<?xml version="1.0" encoding="UTF-8" standalone="no"?>
<!-- Created with Inkscape (http://www.inkscape.org/) -->

<svg
   width="169.33333mm"
   height="164.04167mm"
   viewBox="0 0 169.33333 164.04167"
   version="1.1"
   id="svg5"
   sodipodi:docname="icon.svg"
   inkscape:version="1.1 (c68e22c387, 2021-05-23)"
   xmlns:inkscape="http://www.inkscape.org/namespaces/inkscape"
   xmlns:sodipodi="http://sodipodi.sourceforge.net/DTD/sodipodi-0.dtd"
   xmlns:xlink="http://www.w3.org/1999/xlink"
   xmlns="http://www.w3.org/2000/svg"
   xmlns:svg="http://www.w3.org/2000/svg">
  <sodipodi:namedview
     id="namedview7"
     pagecolor="#ffffff"
     bordercolor="#666666"
     borderopacity="1.0"
     inkscape:pageshadow="2"
     inkscape:pageopacity="0.0"
     inkscape:pagecheckerboard="0"
     inkscape:document-units="mm"
     showgrid="false"
     inkscape:zoom="0.70710678"
     inkscape:cx="-40.305087"
     inkscape:cy="400.92955"
     inkscape:window-width="1920"
     inkscape:window-height="1001"
     inkscape:window-x="-9"
     inkscape:window-y="-9"
     inkscape:window-maximized="1"
     inkscape:current-layer="layer1">
    <inkscape:grid
       type="xygrid"
       id="grid12466"
       originx="-20.697458"
       originy="-11.540641" />
  </sodipodi:namedview>
  <defs
     id="defs2">
    <linearGradient
       inkscape:collect="always"
       id="linearGradient18935">
      <stop
         style="stop-color:#000000;stop-opacity:1;"
         offset="0"
         id="stop18931" />
      <stop
         style="stop-color:#ffffff;stop-opacity:0.34412956"
         offset="1"
         id="stop18933" />
    </linearGradient>
    <inkscape:path-effect
       effect="bspline"
       id="path-effect15392"
       is_visible="true"
       lpeversion="1"
       weight="33.333333"
       steps="2"
       helper_size="0"
       apply_no_weight="true"
       apply_with_weight="true"
       only_selected="false" />
    <linearGradient
       id="linearGradient14652"
       inkscape:swatch="solid">
      <stop
         style="stop-color:#ffffff;stop-opacity:1;"
         offset="0"
         id="stop14650" />
    </linearGradient>
    <inkscape:path-effect
       effect="bspline"
       id="path-effect10986"
       is_visible="true"
       lpeversion="1"
       weight="33.333333"
       steps="2"
       helper_size="0"
       apply_no_weight="true"
       apply_with_weight="true"
       only_selected="false" />
    <inkscape:path-effect
       effect="bspline"
       id="path-effect8869"
       is_visible="true"
       lpeversion="1"
       weight="33.333333"
       steps="2"
       helper_size="0"
       apply_no_weight="true"
       apply_with_weight="true"
       only_selected="false" />
    <inkscape:path-effect
       effect="bspline"
       id="path-effect6507"
       is_visible="true"
       lpeversion="1"
       weight="33.333333"
       steps="2"
       helper_size="0"
       apply_no_weight="true"
       apply_with_weight="true"
       only_selected="false" />
    <inkscape:path-effect
       effect="bspline"
       id="path-effect6503"
       is_visible="true"
       lpeversion="1"
       weight="33.333333"
       steps="2"
       helper_size="0"
       apply_no_weight="true"
       apply_with_weight="true"
       only_selected="false" />
    <inkscape:path-effect
       effect="bspline"
       id="path-effect6141"
       is_visible="true"
       lpeversion="1"
       weight="33.333333"
       steps="2"
       helper_size="0"
       apply_no_weight="true"
       apply_with_weight="true"
       only_selected="false" />
    <inkscape:path-effect
       effect="bspline"
       id="path-effect6104"
       is_visible="true"
       lpeversion="1"
       weight="33.333333"
       steps="2"
       helper_size="0"
       apply_no_weight="true"
       apply_with_weight="true"
       only_selected="false" />
    <inkscape:path-effect
       effect="bspline"
       id="path-effect6067"
       is_visible="true"
       lpeversion="1"
       weight="33.333333"
       steps="2"
       helper_size="0"
       apply_no_weight="true"
       apply_with_weight="true"
       only_selected="false" />
    <inkscape:path-effect
       effect="bspline"
       id="path-effect979"
       is_visible="true"
       lpeversion="1"
       weight="33.333333"
       steps="2"
       helper_size="0"
       apply_no_weight="true"
       apply_with_weight="true"
       only_selected="false" />
    <inkscape:path-effect
       effect="bspline"
       id="path-effect18091"
       is_visible="true"
       lpeversion="1"
       weight="33.333333"
       steps="2"
       helper_size="0"
       apply_no_weight="true"
       apply_with_weight="true"
       only_selected="false" />
    <inkscape:path-effect
       effect="bspline"
       id="path-effect17828"
       is_visible="true"
       lpeversion="1"
       weight="33.333333"
       steps="2"
       helper_size="0"
       apply_no_weight="true"
       apply_with_weight="true"
       only_selected="false" />
    <inkscape:path-effect
       effect="bspline"
       id="path-effect17482"
       is_visible="true"
       lpeversion="1"
       weight="33.333333"
       steps="2"
       helper_size="0"
       apply_no_weight="true"
       apply_with_weight="true"
       only_selected="false" />
    <inkscape:path-effect
       effect="bspline"
       id="path-effect17248"
       is_visible="true"
       lpeversion="1"
       weight="33.333333"
       steps="2"
       helper_size="0"
       apply_no_weight="true"
       apply_with_weight="true"
       only_selected="false" />
    <inkscape:path-effect
       effect="bspline"
       id="path-effect15514"
       is_visible="true"
       lpeversion="1"
       weight="33.333333"
       steps="2"
       helper_size="0"
       apply_no_weight="true"
       apply_with_weight="true"
       only_selected="false" />
    <inkscape:path-effect
       effect="bspline"
       id="path-effect15477"
       is_visible="true"
       lpeversion="1"
       weight="33.333333"
       steps="2"
       helper_size="0"
       apply_no_weight="true"
       apply_with_weight="true"
       only_selected="false" />
    <inkscape:path-effect
       effect="bspline"
       id="path-effect15473"
       is_visible="true"
       lpeversion="1"
       weight="33.333333"
       steps="2"
       helper_size="0"
       apply_no_weight="true"
       apply_with_weight="true"
       only_selected="false" />
    <linearGradient
       inkscape:collect="always"
       xlink:href="#linearGradient18935"
       id="linearGradient18937"
       x1="116.41666"
       y1="238.125"
       x2="52.916668"
       y2="238.125"
       gradientUnits="userSpaceOnUse"
       gradientTransform="matrix(0.6286727,0,0,1,45.405298,-173.66772)"
       spreadMethod="pad" />
  </defs>
  <g
     inkscape:label="Layer 1"
     id="layer1"
     inkscape:groupmode="layer"
     transform="translate(-20.697458,-11.540641)">
    <path
       style="fill:#212529;fill-opacity:1;stroke:none;stroke-width:0.264583px;stroke-linecap:butt;stroke-linejoin:miter;stroke-opacity:1"
       d="m 64.794963,11.540641 c 22.930585,0 58.207617,0 81.138627,0 22.93101,0 33.51392,0 38.80556,5.291905 5.29164,5.291905 5.29164,15.874815 5.29164,37.923865 0,22.04905 0,55.561579 0,77.610649 0,22.04907 0,32.63196 -5.29164,37.9236 -5.29164,5.29165 -15.87455,5.29165 -38.80556,5.29165 -22.93101,0 -58.207362,0 -81.138387,0 -22.931025,0 -33.513935,0 -38.80584,-5.29164 -5.291905,-5.29165 -5.291905,-15.87454 -5.291905,-37.04164 0,-21.16711 0,-52.915819 0,-74.964874 0,-22.049055 0,-34.395775 5.291905,-40.569645 5.291905,-6.17387 15.875015,-6.17387 38.8056,-6.17387 z"
       id="path6139"
       inkscape:path-effect="#path-effect6141"
       inkscape:original-d="m 52.447458,11.540641 c 35.27809,2.7e-4 70.555122,2.7e-4 105.833332,0 10.58381,2.7e-4 21.16672,2.7e-4 31.75,0 2.7e-4,10.58381 2.7e-4,21.16672 0,31.75 2.7e-4,33.51482 2.7e-4,67.027349 0,100.541669 2.7e-4,10.58382 2.7e-4,21.16671 0,31.75 -10.58328,2.6e-4 -21.16619,2.6e-4 -31.75,0 -35.27821,2.6e-4 -70.554562,2.6e-4 -105.833332,0 -10.58328,2.6e-4 -21.16619,2.6e-4 -31.75,0 2.7e-4,-10.58329 2.7e-4,-21.16618 0,-31.75 2.7e-4,-31.75039 2.7e-4,-63.499099 0,-95.249999 2.7e-4,-12.34721 2.7e-4,-24.69393 0,-37.04167 10.58381,2.7e-4 21.16692,2.7e-4 31.75,0 z"
       sodipodi:nodetypes="ccccccccccccc" />
    <path
       style="fill:#ffffff;fill-opacity:1;stroke:none;stroke-width:0.264583px;stroke-linecap:butt;stroke-linejoin:miter;stroke-opacity:1"
       d="m 63.030798,53.873981 c -1.76363,0 -3.52748,0 -4.850586,1.764026 -1.323106,1.764026 -2.205011,5.291647 -5.291878,17.727317 -3.086868,12.43567 -8.378337,33.777926 -11.465197,46.125356 -3.086859,12.34743 -3.96877,15.69868 -2.645669,17.37432 1.3231,1.67564 4.85073,1.67564 14.55232,1.67564 9.70159,0 25.57594,1e-5 34.395565,1e-5 8.819625,0 10.583425,-1e-5 11.906223,-1.76385 1.322794,-1.76385 2.204764,-5.29171 3.086714,-8.81949 0,0 0,0 0,0 0.88194,-3.52778 1.76382,-7.0553 1.323,-8.81931 -0.44083,-1.76402 -2.20464,-1.76402 -7.496431,-1.76402 -5.291791,0 -14.110881,0 -20.284596,0 -6.173715,0 -9.701345,0 -11.112648,-1.32286 -1.411302,-1.32285 -0.705779,-3.96856 0.749466,-9.70133 1.455244,-5.73277 3.660006,-14.551807 5.07115,-20.284573 1.411143,-5.732767 2.028471,-8.378477 4.101244,-9.701522 2.072773,-1.323044 5.600383,-1.323044 11.774143,-1.323044 6.17376,0 14.992822,0 20.284592,0 5.29177,0 7.05558,0 8.37837,-1.763834 1.32279,-1.763834 2.20476,-5.291726 3.08671,-8.819506 0,0 0,0 0,0 0.88194,-3.527777 1.76382,-7.055297 1.323,-8.819313 -0.44083,-1.764017 -2.20464,-1.764017 -11.90624,-1.764017 -9.701592,0 -27.340102,0 -36.159677,0 -8.819575,0 -8.819575,0 -8.819575,0"
       id="path18089-9"
       sodipodi:nodetypes="cccccccccccccccccccccccccc"
       inkscape:original-d="m 63.030798,53.873981 c -1.76363,2.7e-4 -3.52748,2.7e-4 -5.29168,0 -0.8817,3.52813 -1.76361,7.05575 -2.64583,10.58333 -5.29151,21.34376 -10.58298,42.686019 -15.875,64.029169 -0.8817,3.35171 -1.76361,6.70296 -2.64584,10.05416 3.52812,2.7e-4 7.05575,2.7e-4 10.58334,0 15.87559,2.7e-4 31.74994,2.7e-4 47.62501,1e-5 1.76418,2.6e-4 3.52798,2.6e-4 5.291652,-1e-5 0.88223,-3.52761 2.64584,-10.58333 2.64584,-10.58333 v 0 c 0,0 1.76413,-7.05522 2.64583,-10.58333 -1.76366,2.7e-4 -3.52747,2.7e-4 -5.29166,0 -8.819392,2.7e-4 -17.638482,2.7e-4 -26.458342,0 -3.52757,2.7e-4 -7.0552,2.7e-4 -10.58333,0 0.70584,-2.64563 1.41136,-5.29134 2.11667,-7.9375 2.20518,-8.81938 4.40994,-17.638419 6.61459,-26.458329 0.61763,-2.64563 1.23496,-5.29134 1.85207,-7.9375 3.52813,2.6e-4 7.05574,2.6e-4 10.58333,0 8.81993,2.6e-4 17.638992,2.6e-4 26.458352,0 1.76418,2.6e-4 3.52799,2.6e-4 5.29165,0 0.88223,-3.52759 2.64584,-10.58334 2.64584,-10.58334 v 0 c 0,0 1.76413,-7.05522 2.64583,-10.58333 -1.76366,2.7e-4 -3.52747,2.7e-4 -5.29166,0 -17.639002,2.7e-4 -35.277512,2.7e-4 -52.916662,0 2.6e-4,2.7e-4 0,0 0,0"
       inkscape:path-effect="#path-effect8869" />
    <path
       style="fill:url(#linearGradient18937);fill-opacity:1;stroke:none;stroke-width:0.209785px;stroke-linecap:butt;stroke-linejoin:miter;stroke-opacity:1"
       d="m 83.662648,53.873981 c -1.10875,0 -2.21763,0 -3.049434,1.764049 -0.831803,1.76405 -1.386235,5.29167 -1.940701,8.819514 -0.554466,3.527844 -1.108899,7.055495 -0.831567,8.819296 0.277332,1.763801 1.386202,1.763801 7.485357,1.763803 6.099155,10e-7 17.187747,5e-6 23.286867,6e-6 6.09912,2e-6 7.20797,2e-6 8.03957,-1.763809 0.8316,-1.763811 1.38609,-5.291749 1.94055,-8.819529 0,0 0,0 0,0 0.55445,-3.527777 1.10886,-7.055252 0.83173,-8.819291 -0.27713,-1.764039 -1.38601,-1.764039 -7.48513,-1.764039 -6.09913,0 -17.187982,0 -22.732612,0 -5.54463,0 -5.54463,0 -5.54463,0"
       id="path18089-5"
       inkscape:path-effect="#path-effect15392"
       inkscape:original-d="m 83.662648,53.873981 c -1.10875,2.7e-4 -2.21763,2.7e-4 -3.32673,0 -0.55431,3.52813 -1.10874,7.05575 -1.66337,10.58333 -0.55429,3.52811 -1.10873,7.05576 -1.66336,10.58333 1.10909,2.7e-4 2.21796,2.7e-4 3.32673,0 11.08954,2.7e-4 22.178132,2.7e-4 33.267272,1e-5 1.1091,2.6e-4 2.21795,2.6e-4 3.32671,0 0.55464,-3.52759 1.66339,-10.58334 1.66339,-10.58334 v 0 c 0,0 1.10906,-7.05522 1.66336,-10.58333 -1.10876,2.7e-4 -2.21764,2.7e-4 -3.32673,0 -11.08916,2.7e-4 -22.178012,2.7e-4 -33.267272,0 1.6e-4,2.7e-4 0,0 0,0"
       sodipodi:nodetypes="ccccccccccccc" />
    <path
       style="fill:#ffffff;fill-opacity:1;stroke:none;stroke-width:0.165;stroke-linecap:butt;stroke-linejoin:miter;stroke-miterlimit:4;stroke-dasharray:none;stroke-opacity:1"
       d="m 121.23913,53.873981 c -10.58333,0 -12.34722,0 -13.6703,1.764011 -1.32307,1.76401 -2.20499,5.291662 -2.64594,7.055491 -0.44096,1.763828 -0.44096,1.763828 -0.88197,3.527849 -0.441,1.764021 -1.32291,5.291641 -0.88178,7.055475 0.44114,1.763834 2.20496,1.763834 5.7328,1.763834 3.52785,0 8.81942,0 12.34721,0 3.52779,0 5.29164,0 5.73245,1.764015 0.4408,1.764016 -0.4411,5.291656 -2.64601,14.111272 -2.2049,8.819616 -5.73252,22.930142 -7.93743,31.749782 -2.20491,8.81964 -3.08681,12.34726 -1.76372,14.1111 1.3231,1.76383 4.85074,1.76383 6.61452,1.76383 1.76379,0 1.76379,0 3.52785,0 1.76406,0 5.29169,0 7.49644,-1.76383 2.20475,-1.76383 3.08666,-5.29147 5.29156,-14.11108 2.20491,-8.81962 5.73255,-22.930177 7.93745,-31.749797 2.20491,-8.819621 3.08683,-12.34732 4.40992,-14.111306 1.32309,-1.763986 3.08694,-1.763986 5.73281,-1.763986 2.64587,0 6.1735,0 8.81939,0 2.6459,0 4.40971,0 5.7325,-1.763834 1.32279,-1.763834 2.20476,-5.291719 3.0867,-8.819496 0,0 0,0 0,0 0.88195,-3.527777 1.76383,-7.055298 1.323,-8.819314 -0.44082,-1.764016 -2.20463,-1.764016 -12.78824,-1.764016 -10.5836,0 -29.98587,0 -40.56921,0 z"
       id="path977-2"
       inkscape:path-effect="#path-effect10986"
       inkscape:original-d="m 112.41943,53.873981 c -1.76363,2.6e-4 -3.52752,2.6e-4 -5.29167,0 -0.88169,3.5281 -1.76361,7.05575 -2.64583,10.58333 2.6e-4,2.6e-4 2.6e-4,2.6e-4 0,0 -0.8817,3.52812 -1.76361,7.05574 -2.64584,10.58333 1.76419,2.7e-4 3.52801,2.7e-4 5.29167,0 5.29203,2.7e-4 10.5836,2.7e-4 15.87499,0 1.76419,2.7e-4 3.52804,2.7e-4 5.29166,0 -0.88169,3.52811 -1.7636,7.05575 -2.64583,10.58334 -3.52758,14.11164 -7.0552,28.222169 -10.58332,42.333329 -0.8817,3.52812 -1.7636,7.05574 -2.64583,10.58333 3.52811,2.7e-4 7.05575,2.7e-4 10.58332,0 2.6e-4,2.7e-4 2.6e-4,2.7e-4 0,0 3.52812,2.7e-4 7.05575,2.7e-4 10.58333,0 0.88223,-3.52758 1.76414,-7.05522 2.64584,-10.58333 3.5281,-14.11112 7.05575,-28.221679 10.58333,-42.333329 0.88223,-3.52759 1.76415,-7.05529 2.64583,-10.58334 1.76419,2.7e-4 3.52804,2.7e-4 5.29167,0 3.52811,2.7e-4 7.05574,2.7e-4 10.58333,0 1.7642,2.7e-4 3.52801,2.7e-4 5.29167,0 0.88223,-3.52759 2.64583,-10.58333 2.64583,-10.58333 v 0 c 0,0 1.76414,-7.05522 2.64584,-10.58333 -1.76366,2.6e-4 -3.52747,2.6e-4 -5.29167,0 -19.40301,2.6e-4 -38.80528,2.6e-4 -58.20832,0 z"
       sodipodi:nodetypes="ccccccccccccccccccccccccc"
       inkscape:label="path977-2" />
  </g>
</svg>
