<?xml version="1.0" encoding="utf-8"?>
<!-- Generator: Adobe Illustrator 16.0.0, SVG Export Plug-In . SVG Version: 6.00 Build 0)  -->
<!DOCTYPE svg PUBLIC "-//W3C//DTD SVG 1.1//EN" "http://www.w3.org/Graphics/SVG/1.1/DTD/svg11.dtd">
<svg version="1.1" id="Layer_1" xmlns="http://www.w3.org/2000/svg" xmlns:xlink="http://www.w3.org/1999/xlink" x="0px" y="0px"
	 width="32px" height="32px" viewBox="0 0 32 32" enable-background="new 0 0 32 32" xml:space="preserve">
<rect x="2.083" y="7.25" fill-rule="evenodd" clip-rule="evenodd" fill="#2E5E54" width="26.958" height="11.519"/>
<polygon fill-rule="evenodd" clip-rule="evenodd" fill="#227561" points="28.73,12.264 28.73,19.764 15.696,19.878 2.662,20.026 
	2.714,11.718 6.43,8.003 9.6,11.173 12.769,8.003 15.988,11.223 15.988,11.173 19.157,8.003 22.341,11.188 22.341,11.173 
	25.51,8.003 28.73,11.173 "/>
<rect x="2.083" y="18.083" fill-rule="evenodd" clip-rule="evenodd" fill="#23331B" width="26.958" height="6.084"/>
<polygon fill-rule="evenodd" clip-rule="evenodd" fill="#394428" points="2.662,19.391 2.662,18.105 15.696,18.105 28.73,18.105 
	28.677,19.937 24.961,23.651 21.792,20.481 18.623,23.651 15.403,20.432 15.403,20.481 12.234,23.651 9.05,20.467 9.05,20.481 
	5.881,23.651 2.662,20.481 "/>
<path fill-rule="evenodd" clip-rule="evenodd" fill="#BABABA" d="M19.722,15.976h5.258v0.181h-5.227L19.722,15.976z M19.494,13.694
	h3.873l0.472,1.682h-4.125L19.494,13.694z M19.375,13.334h3.968v0.181h-3.936L19.375,13.334z M19.179,11.384h1.542l0.473,1.47
	h-1.795L19.179,11.384z M19.093,11.054h1.762v0.21h-1.762V11.054z M17.888,18.525l-0.472-6.991v-0.719h1.479v0.749l0.882,6.961
	H17.888z M17.699,9.547h0.913v1.094h-0.913V9.547z M17.919,9.374l-0.094-0.27v-0.66h0.661v0.66l-0.094,0.27H17.919z M14.488,15.585
	h2.912l0.008,0.181H14.48L14.488,15.585z M14.506,15.167h2.874l0.01,0.209h-2.894L14.506,15.167z M14.523,14.746h2.838l0.009,0.21
	h-2.856L14.523,14.746z M14.54,14.325h2.802l0.009,0.21h-2.819L14.54,14.325z M14.557,13.935h2.768l0.008,0.181h-2.783
	L14.557,13.935z M14.582,9.656h2.739v1.031h-2.739V9.656z M14.644,8.892h2.645V9.46h-2.645V8.892z M17.294,13.275h-2.71l0.008-0.211
	h2.692L17.294,13.275z M17.276,12.854h-2.675l0.008-0.18h2.658L17.276,12.854z M17.258,12.465h-2.64l0.008-0.209h2.622
	L17.258,12.465z M17.238,12.045h-2.603l0.008-0.21h2.585L17.238,12.045z M17.195,11.055l0.005,0.149h-2.53l0.006-0.149H17.195z
	 M17.219,11.624h-2.567l0.009-0.209h2.549L17.219,11.624z M17.314,13.724h-2.749l0.01-0.239h2.729L17.314,13.724z M12.125,18.525
	l0.882-6.961v-0.749h1.479v0.719l-0.472,6.991H12.125z M13.291,9.547h0.913v1.094h-0.913V9.547z M13.511,9.374l-0.094-0.27v-0.66
	h0.661v0.66l-0.094,0.27H13.511z M10.708,12.854l0.473-1.47h1.543l-0.221,1.47H10.708z M11.062,11.054h1.763v0.21h-1.763V11.054z
	 M12.51,13.515H8.574v-0.181h3.968L12.51,13.515z M12.409,13.694l-0.221,1.682H8.063l0.472-1.682H12.409z M12.164,16.156H6.937
	v-0.181h5.258L12.164,16.156z M12.031,16.336l-0.283,2.011H6.395l0.598-2.011H12.031z M17.504,17.897h-3.112l0.008-0.211h3.094
	L17.504,17.897z M17.485,17.476H14.41l0.008-0.209h3.058L17.485,17.476z M17.466,17.056h-3.04l0.009-0.21h3.021L17.466,17.056z
	 M17.417,15.977l0.01,0.21h-2.963l0.008-0.21H17.417z M17.447,16.635h-3.002l0.01-0.238h2.982L17.447,16.635z M17.514,18.106
	l0.01,0.21h-3.149l0.009-0.21H17.514z M25.507,18.347h-5.353l-0.283-2.011h5.039L25.507,18.347z"/>
<path fill="#898989" d="M18.486,8.444v0.66l-0.094,0.27h-0.473l-0.094-0.27v-0.66H18.486 M14.078,8.444v0.66l-0.094,0.27h-0.473
	l-0.094-0.27v-0.66H14.078 M17.289,8.892V9.46h-2.645V8.892H17.289 M18.612,9.547v1.094h-0.913V9.547H18.612 M14.204,9.547v1.094
	h-0.913V9.547H14.204 M17.321,9.656v1.031h-2.739V9.656H17.321 M18.895,10.815v0.749l0.882,6.961h-1.889l-0.472-6.991v-0.719H18.895
	 M14.486,10.815v0.719l-0.472,6.991h-1.889l0.882-6.961v-0.749H14.486 M20.855,11.054v0.21h-1.762v-0.21H20.855 M12.825,11.054v0.21
	h-1.763v-0.21H12.825 M17.195,11.055l0.005,0.149h-2.53l0.006-0.149H17.195 M20.721,11.384l0.473,1.47h-1.795l-0.22-1.47H20.721
	 M12.724,11.384l-0.221,1.47h-1.795l0.473-1.47H12.724 M17.21,11.415l0.009,0.209h-2.567l0.009-0.209H17.21 M17.229,11.835
	l0.009,0.21h-2.603l0.008-0.21H17.229 M17.248,12.256l0.01,0.209h-2.64l0.008-0.209H17.248 M17.267,12.675l0.009,0.18h-2.675
	l0.008-0.18H17.267 M17.285,13.064l0.01,0.211h-2.71l0.008-0.211H17.285 M23.343,13.334v0.181h-3.936l-0.032-0.181H23.343
	 M12.542,13.334l-0.032,0.181H8.574v-0.181H12.542 M17.305,13.484l0.01,0.239h-2.749l0.01-0.239H17.305 M23.367,13.694l0.472,1.682
	h-4.125l-0.221-1.682H23.367 M12.409,13.694l-0.221,1.682H8.063l0.472-1.682H12.409 M17.325,13.935l0.008,0.181h-2.783l0.007-0.181
	H17.325 M17.342,14.325l0.009,0.21h-2.819l0.008-0.21H17.342 M17.361,14.746l0.009,0.21h-2.856l0.009-0.21H17.361 M17.38,15.167
	l0.01,0.209h-2.894l0.009-0.209H17.38 M17.399,15.585l0.008,0.181H14.48l0.007-0.181H17.399 M24.98,15.976v0.181h-5.227
	l-0.032-0.181H24.98 M12.195,15.976l-0.032,0.181H6.937v-0.181H12.195 M17.417,15.977l0.01,0.21h-2.963l0.008-0.21H17.417
	 M24.91,16.336l0.598,2.011h-5.353l-0.283-2.011H24.91 M12.031,16.336l-0.283,2.011H6.395l0.598-2.011H12.031 M17.437,16.396
	l0.011,0.238h-3.002l0.01-0.238H17.437 M17.457,16.846l0.01,0.21h-3.04l0.009-0.21H17.457 M17.476,17.267l0.009,0.209H14.41
	l0.008-0.209H17.476 M17.495,17.687l0.009,0.211h-3.112l0.008-0.211H17.495 M17.514,18.106l0.01,0.21h-3.149l0.009-0.21H17.514
	 M18.536,8.395h-0.05h-0.661h-0.05v0.05v0.66v0.009l0.002,0.008l0.094,0.27l0.012,0.033h0.036h0.473h0.036l0.012-0.033l0.094-0.27
	l0.002-0.008V9.104v-0.66V8.395L18.536,8.395z M14.127,8.395h-0.05h-0.661h-0.05v0.05v0.66v0.009l0.002,0.008l0.094,0.27
	l0.012,0.033h0.036h0.473h0.036l0.012-0.033l0.094-0.27l0.002-0.008V9.104v-0.66V8.395L14.127,8.395z M17.339,8.842h-0.05h-2.645
	h-0.05v0.05V9.46v0.05h0.05h2.645h0.05V9.46V8.892V8.842L17.339,8.842z M18.662,9.497h-0.05h-0.913h-0.05v0.05v1.094v0.05h0.05
	h0.913h0.05v-0.05V9.547V9.497L18.662,9.497z M14.253,9.497h-0.05h-0.913h-0.05v0.05v1.094v0.05h0.05h0.913h0.05v-0.05V9.547V9.497
	L14.253,9.497z M17.371,9.606h-0.05h-2.739h-0.05v0.05v1.031v0.05h0.05h2.739h0.05v-0.05V9.656V9.606L17.371,9.606z M18.945,10.766
	h-0.05h-1.479h-0.05v0.05v0.719l0.472,6.994l0.003,0.047h0.047h1.889h0.057l-0.007-0.056l-0.882-6.961v-0.743V10.766L18.945,10.766z
	 M14.536,10.766h-0.05h-1.479h-0.05v0.05v0.749l-0.882,6.955l-0.007,0.056h0.057h1.889h0.047l0.003-0.047l0.472-6.991v-0.722V10.766
	L14.536,10.766z M20.905,11.004h-0.05h-1.762h-0.05v0.05v0.21v0.05h0.05h1.762h0.05v-0.05v-0.21V11.004L20.905,11.004z
	 M12.875,11.004h-0.05h-1.763h-0.05v0.05v0.21v0.05h0.05h1.763h0.05v-0.05v-0.21V11.004L12.875,11.004z M17.243,11.005h-0.048
	h-2.519h-0.048l-0.002,0.048l-0.006,0.149l-0.002,0.052h0.052h2.53h0.052l-0.002-0.052l-0.005-0.149L17.243,11.005L17.243,11.005z
	 M20.758,11.334h-0.037h-1.542h-0.058l0.009,0.058l0.22,1.47l0.006,0.042h0.043h1.795h0.068l-0.021-0.065l-0.473-1.47L20.758,11.334
	L20.758,11.334z M12.782,11.334h-0.058h-1.543h-0.037l-0.011,0.034l-0.473,1.47l-0.021,0.065h0.069h1.795h0.043l0.006-0.042
	l0.221-1.47L12.782,11.334L12.782,11.334z M17.258,11.365H17.21h-2.549h-0.048l-0.002,0.048l-0.009,0.209L14.6,11.674h0.052h2.567
	h0.052l-0.002-0.052l-0.009-0.209L17.258,11.365L17.258,11.365z M17.277,11.785h-0.048h-2.585h-0.048l-0.002,0.048l-0.008,0.21
	l-0.002,0.052h0.052h2.603h0.052l-0.002-0.052l-0.009-0.21L17.277,11.785L17.277,11.785z M17.296,12.206h-0.048h-2.622h-0.048
	l-0.002,0.048l-0.008,0.209l-0.002,0.052h0.052h2.64h0.052l-0.002-0.052l-0.01-0.209L17.296,12.206L17.296,12.206z M17.315,12.625
	h-0.048h-2.658h-0.048l-0.002,0.048l-0.008,0.18l-0.002,0.052h0.052h2.675h0.053l-0.003-0.053l-0.009-0.18L17.315,12.625
	L17.315,12.625z M17.333,13.015h-0.048h-2.692h-0.048l-0.001,0.048l-0.008,0.211l-0.002,0.052h0.052h2.71h0.052l-0.002-0.052
	l-0.01-0.211L17.333,13.015L17.333,13.015z M23.393,13.284h-0.05h-3.968h-0.06l0.01,0.059l0.032,0.181l0.007,0.041h0.042h3.936h0.05
	v-0.05v-0.181V13.284L23.393,13.284z M12.601,13.284h-0.06H8.574h-0.05v0.05v0.181v0.05h0.05h3.936h0.042l0.007-0.041l0.032-0.181
	L12.601,13.284L12.601,13.284z M17.353,13.435h-0.048h-2.729h-0.048l-0.002,0.048l-0.01,0.239l-0.002,0.052h0.052h2.749h0.052
	l-0.002-0.052l-0.01-0.239L17.353,13.435L17.353,13.435z M23.405,13.645h-0.038h-3.873h-0.057l0.007,0.057l0.221,1.682l0.006,0.043
	h0.044h4.125h0.066l-0.018-0.063l-0.472-1.682L23.405,13.645L23.405,13.645z M12.466,13.645h-0.057H8.536H8.498l-0.01,0.036
	l-0.472,1.682l-0.018,0.063h0.066h4.125h0.044l0.006-0.043l0.221-1.682L12.466,13.645L12.466,13.645z M17.373,13.885h-0.048h-2.768
	h-0.048l-0.002,0.048L14.5,14.113l-0.002,0.052h0.052h2.783h0.052l-0.002-0.052l-0.008-0.181L17.373,13.885L17.373,13.885z
	 M17.39,14.275h-0.048H14.54h-0.048l-0.002,0.048l-0.008,0.21l-0.002,0.052h0.052h2.819h0.052l-0.002-0.052l-0.009-0.21
	L17.39,14.275L17.39,14.275z M17.409,14.696h-0.048h-2.838h-0.048l-0.002,0.048l-0.009,0.21l-0.002,0.052h0.052h2.856h0.052
	l-0.002-0.052l-0.009-0.21L17.409,14.696L17.409,14.696z M17.428,15.117H17.38h-2.874h-0.048l-0.002,0.048l-0.009,0.209
	l-0.002,0.052h0.052h2.894h0.053l-0.003-0.053l-0.01-0.209L17.428,15.117L17.428,15.117z M17.447,15.535h-0.048h-2.912H14.44
	l-0.002,0.048l-0.007,0.181l-0.002,0.052h0.052h2.927h0.052l-0.002-0.052l-0.008-0.181L17.447,15.535L17.447,15.535z M25.03,15.926
	h-0.05h-5.258h-0.06l0.01,0.059l0.032,0.181l0.007,0.041h0.042h5.227h0.05v-0.05v-0.181V15.926L25.03,15.926z M12.255,15.926h-0.06
	H6.937h-0.05v0.05v0.181v0.05h0.05h5.227h0.042l0.007-0.041l0.032-0.181L12.255,15.926L12.255,15.926z M17.465,15.927h-0.048h-2.945
	h-0.048l-0.002,0.048l-0.008,0.21l-0.002,0.052h0.052h2.963h0.052l-0.002-0.052l-0.01-0.21L17.465,15.927L17.465,15.927z
	 M24.947,16.286H24.91h-5.039h-0.058l0.008,0.057l0.283,2.011l0.006,0.043h0.043h5.353h0.067l-0.019-0.064l-0.598-2.011
	L24.947,16.286L24.947,16.286z M12.089,16.286h-0.058H6.993H6.956l-0.011,0.035l-0.598,2.011l-0.019,0.064h0.067h5.353h0.043
	l0.006-0.043l0.283-2.011L12.089,16.286L12.089,16.286z M17.484,16.347h-0.048h-2.982h-0.048l-0.002,0.048l-0.01,0.238l-0.002,0.052
	h0.052h3.002H17.5l-0.002-0.052l-0.011-0.238L17.484,16.347L17.484,16.347z M17.504,16.796h-0.048h-3.021h-0.048l-0.002,0.048
	l-0.009,0.21l-0.002,0.052h0.052h3.04h0.052l-0.002-0.052l-0.01-0.21L17.504,16.796L17.504,16.796z M17.524,17.217h-0.048h-3.058
	H14.37l-0.001,0.048l-0.008,0.209l-0.002,0.052h0.052h3.075h0.052l-0.002-0.052l-0.009-0.209L17.524,17.217L17.524,17.217z
	 M17.543,17.637h-0.048h-3.094h-0.048l-0.002,0.048l-0.008,0.211l-0.002,0.052h0.052h3.112h0.052l-0.002-0.052l-0.009-0.211
	L17.543,17.637L17.543,17.637z M17.562,18.057h-0.048h-3.13h-0.048l-0.002,0.048l-0.009,0.21l-0.002,0.052h0.052h3.149h0.053
	l-0.003-0.052l-0.01-0.211L17.562,18.057L17.562,18.057z"/>
<path fill-rule="evenodd" clip-rule="evenodd" fill="#9BCB3C" d="M28.444,16.208c-0.505-0.929-1.088-1.318-2.08-2.447
	c-0.954-1.085-1.216-2.501-1.216-2.501c2.662,3.817,5.156,0.925,4.25,7.613C29.278,18.209,28.967,17.167,28.444,16.208z
	 M29.231,18.795c0.103,0.46,0.038,1.113,0.038,1.113s-0.224-2.438-2.449-4.279C24.733,13.902,25.1,11.45,25.1,11.45
	s0.369,1.815,1.979,3.293C28.757,16.285,29.116,18.284,29.231,18.795z M26.567,16.336c1.551,0.787,2.53,2.621,2.863,4.581
	c-0.758-2.282-2.504-4.332-4.856-4.478c-1.5-0.093-2.01,1.021-2.01,1.021C23.372,15.667,25.072,15.577,26.567,16.336z
	 M28.217,18.813c1.439,2.233,1.692,4.15,1.692,4.15s-0.729-2.87-3.865-4.603c-2.959-1.634-3.709,0.568-3.709,0.568
	C22.231,15.435,26.544,16.215,28.217,18.813z M5.675,18.361C2.54,20.094,1.81,22.964,1.81,22.964s0.253-1.917,1.691-4.15
	c1.673-2.599,5.986-3.379,5.883,0.116C9.384,18.93,8.634,16.728,5.675,18.361z M7.144,16.439c-2.351,0.146-4.098,2.195-4.855,4.478
	c0.333-1.96,1.312-3.794,2.862-4.581c1.494-0.758,3.192-0.669,4.002,1.118C9.116,17.378,8.589,16.352,7.144,16.439z M2.449,19.908
	c0,0-0.066-0.653,0.039-1.113c0.114-0.511,0.473-2.51,2.152-4.052c1.609-1.478,1.978-3.293,1.978-3.293s0.367,2.452-1.72,4.179
	C2.673,17.471,2.449,19.908,2.449,19.908z M3.274,16.208c-0.522,0.959-0.833,2.001-0.955,2.665
	c-0.905-6.688,1.588-3.796,4.251-7.613c0,0-0.262,1.416-1.216,2.501C4.362,14.89,3.779,15.279,3.274,16.208z"/>
<path fill="#51853C" d="M1.81,23.014c-0.003,0-0.006,0-0.009-0.001c-0.026-0.005-0.044-0.029-0.041-0.056
	c0.003-0.019,0.271-1.953,1.699-4.171c0.855-1.328,2.44-2.257,3.854-2.257c0.552,0,1.024,0.149,1.38,0.434
	c-0.306-0.264-0.794-0.521-1.546-0.474c-2.514,0.155-4.163,2.491-4.811,4.443c-0.008,0.024-0.032,0.039-0.06,0.033
	c-0.025-0.007-0.042-0.031-0.037-0.058c0.056-0.327,0.128-0.645,0.215-0.95c-0.002,0-0.004,0-0.006,0l0,0
	c-0.026,0-0.047-0.02-0.05-0.045c-0.002-0.027-0.065-0.667,0.04-1.129l0.02-0.09c0.134-0.622,0.543-2.515,2.148-3.988
	c0.479-0.439,0.848-0.912,1.129-1.356c-0.104,0.151-0.218,0.301-0.344,0.444c-0.337,0.384-0.627,0.682-0.883,0.944
	c-0.5,0.515-0.861,0.886-1.191,1.493c-0.517,0.948-0.829,1.991-0.949,2.65c-0.004,0.024-0.025,0.041-0.049,0.041
	c0,0-0.001,0-0.001,0c-0.025,0-0.045-0.019-0.048-0.043c-0.576-4.257,0.229-4.673,1.563-5.362c0.767-0.396,1.722-0.889,2.697-2.286
	c0.013-0.019,0.039-0.027,0.06-0.018c0.022,0.009,0.034,0.032,0.03,0.055c0,0.003-0.01,0.054-0.032,0.142
	c0.008-0.006,0.019-0.01,0.03-0.01H6.62c0.024,0,0.044,0.019,0.048,0.042c0.004,0.025,0.347,2.5-1.738,4.225
	c-1.821,1.508-2.294,3.437-2.402,4.05c0.507-1.594,1.436-2.834,2.602-3.426c0.588-0.298,1.189-0.455,1.738-0.455
	c0.731,0,1.727,0.275,2.326,1.585c0.008,0.009,0.013,0.021,0.013,0.033c0,0.027-0.022,0.05-0.05,0.05c-0.001,0-0.001,0-0.002,0
	c-0.003,0-0.005,0-0.008,0c0.209,0.379,0.306,0.857,0.289,1.428c0,0.023-0.019,0.044-0.042,0.048
	c-0.022,0.002-0.047-0.011-0.055-0.033c-0.016-0.047-0.405-1.139-1.716-1.139c-0.558,0-1.204,0.201-1.922,0.598
	c-3.081,1.702-3.833,4.542-3.841,4.571C1.853,22.999,1.832,23.014,1.81,23.014z M7.313,16.63c-1.359,0-2.944,0.93-3.77,2.211
	c-0.903,1.402-1.338,2.688-1.536,3.44c0.419-0.962,1.447-2.75,3.643-3.964c0.733-0.404,1.396-0.609,1.97-0.609
	c1.026,0,1.523,0.655,1.714,1c-0.017-0.655-0.202-1.168-0.551-1.528C8.434,16.82,7.925,16.63,7.313,16.63z M6.867,15.936
	c-0.533,0-1.119,0.154-1.693,0.445c-1.273,0.646-2.26,2.089-2.708,3.924c0.773-1.833,2.364-3.772,4.675-3.915
	c0.799-0.053,1.323,0.235,1.643,0.521C8.212,16.12,7.451,15.936,6.867,15.936z M6.589,11.748c-0.177,0.575-0.691,1.908-1.916,3.032
	c-1.581,1.452-1.985,3.321-2.118,3.935l-0.02,0.091c-0.046,0.202-0.059,0.445-0.058,0.65c0.18-0.796,0.74-2.502,2.388-3.865
	C6.488,14.249,6.609,12.444,6.589,11.748z M6.463,11.494c-0.937,1.262-1.847,1.731-2.585,2.112
	c-1.264,0.653-2.039,1.053-1.548,4.966c0.151-0.66,0.448-1.56,0.899-2.388c0.337-0.62,0.702-0.996,1.208-1.516
	c0.255-0.262,0.543-0.56,0.879-0.941C6.017,12.932,6.343,11.944,6.463,11.494z M29.909,23.014c-0.022,0-0.042-0.015-0.048-0.037
	c-0.007-0.029-0.762-2.87-3.841-4.571c-0.717-0.396-1.364-0.598-1.921-0.598c-1.312,0-1.701,1.092-1.716,1.139
	c-0.007,0.022-0.032,0.035-0.055,0.033c-0.024-0.004-0.042-0.024-0.042-0.048c-0.017-0.567,0.079-1.044,0.286-1.422
	c-0.009,0-0.019,0-0.027-0.004c-0.025-0.012-0.037-0.041-0.025-0.066c0.597-1.326,1.599-1.604,2.334-1.604
	c0.549,0,1.15,0.158,1.737,0.456c1.165,0.592,2.093,1.83,2.601,3.422c-0.11-0.618-0.585-2.542-2.401-4.046
	c-2.085-1.725-1.742-4.199-1.738-4.225c0.003-0.023,0.024-0.042,0.048-0.042c0.012,0.004,0.023,0.004,0.033,0.011
	c-0.022-0.089-0.032-0.14-0.032-0.143c-0.004-0.022,0.008-0.046,0.03-0.055c0.023-0.01,0.047-0.001,0.061,0.018
	c0.975,1.397,1.929,1.891,2.696,2.286c1.334,0.689,2.139,1.105,1.563,5.362c-0.003,0.024-0.023,0.043-0.048,0.043c0,0,0,0-0.001,0
	c-0.024,0-0.045-0.017-0.049-0.041c-0.12-0.658-0.432-1.7-0.949-2.65c-0.33-0.606-0.691-0.978-1.189-1.491
	c-0.256-0.263-0.546-0.562-0.884-0.946c-0.129-0.146-0.245-0.3-0.35-0.454c0.282,0.447,0.653,0.924,1.136,1.366
	c1.601,1.471,2.012,3.362,2.147,3.984l0.021,0.094c0.104,0.462,0.042,1.102,0.039,1.129c-0.002,0.025-0.024,0.045-0.05,0.045l0,0
	c-0.002,0-0.004,0-0.005,0c0.087,0.306,0.159,0.623,0.215,0.95c0.004,0.026-0.012,0.051-0.037,0.058
	c-0.028,0.006-0.052-0.009-0.06-0.033c-0.648-1.952-2.297-4.288-4.812-4.443c-0.694-0.044-1.168,0.179-1.479,0.423
	c0.348-0.251,0.796-0.383,1.314-0.383c1.413,0,2.998,0.929,3.853,2.257c1.429,2.218,1.697,4.152,1.7,4.171
	c0.003,0.026-0.014,0.051-0.041,0.056C29.915,23.014,29.912,23.014,29.909,23.014z M24.098,17.708c0.575,0,1.237,0.205,1.97,0.609
	c2.195,1.213,3.224,3,3.643,3.962c-0.198-0.752-0.633-2.038-1.536-3.438c-0.825-1.281-2.41-2.211-3.769-2.211
	c-0.613,0-1.122,0.19-1.471,0.55c-0.35,0.36-0.534,0.873-0.551,1.528C22.574,18.363,23.072,17.708,24.098,17.708z M24.398,16.384
	c0.058,0,0.117,0.002,0.178,0.006c2.311,0.143,3.902,2.083,4.676,3.916c-0.447-1.836-1.434-3.278-2.708-3.925
	c-0.574-0.292-1.159-0.445-1.692-0.445c-0.583,0-1.34,0.183-1.911,0.966C23.236,16.641,23.703,16.384,24.398,16.384z M25.129,11.748
	c-0.02,0.696,0.102,2.501,1.724,3.843c1.646,1.362,2.207,3.068,2.387,3.864c0-0.205-0.012-0.447-0.057-0.649l-0.021-0.094
	c-0.134-0.614-0.54-2.482-2.117-3.932C25.821,13.656,25.306,12.324,25.129,11.748z M25.256,11.494
	c0.12,0.45,0.446,1.438,1.146,2.233c0.336,0.383,0.625,0.681,0.881,0.943c0.504,0.52,0.869,0.895,1.206,1.514
	c0.452,0.829,0.749,1.729,0.899,2.387c0.491-3.911-0.284-4.312-1.548-4.965C27.102,13.226,26.192,12.756,25.256,11.494z"/>
<path fill-rule="evenodd" clip-rule="evenodd" fill="#5D5E5E" d="M0.543,4.852h30.692v21.757H0.543V4.852z M1.665,6.018h28.449
	v19.417L1.665,25.436V6.018z"/>
<path fill="#898989" d="M31.335,26.708H0.443V4.752h30.892V26.708z M0.643,26.509h30.492V4.951H0.643V26.509z M1.665,25.535h-0.1
	V5.918h28.649v19.616L1.665,25.535z M1.765,6.117v19.219l28.249-0.001V6.117H1.765z"/>
<path fill="#91C63F" d="M1.665,25.436l28.449-0.001V6.018H1.665V25.436 M3.265,7.617h25.249v16.218L3.265,23.836V7.617L3.265,7.617z
	"/>
<path fill="#51853C" d="M3.265,23.886h-0.05V7.567h25.348v16.317L3.265,23.886z M3.314,7.667v16.119l25.149-0.001V7.667H3.314z"/>
<path fill="#51853C" d="M1.72,25.447H1.665V5.996h28.449v19.45L1.72,25.447z M1.776,6.114v19.215l28.225-0.002V6.114H1.776z"/>
<path fill-rule="evenodd" clip-rule="evenodd" fill="#E2EAD9" d="M23.153,20.561c-0.306-0.324-0.652-0.486-1.036-0.486
	c-0.324,0-0.597,0.11-0.819,0.332c-0.221,0.222-0.333,0.495-0.333,0.818c0,0.228,0.049,0.428,0.148,0.603
	c0.098,0.177,0.237,0.313,0.417,0.413s0.379,0.15,0.599,0.15c0.188,0,0.358-0.035,0.514-0.105c0.155-0.069,0.326-0.196,0.511-0.382
	l0.438,0.457c-0.251,0.245-0.488,0.413-0.71,0.509c-0.223,0.095-0.477,0.142-0.763,0.142c-0.527,0-0.958-0.167-1.294-0.501
	c-0.336-0.335-0.504-0.763-0.504-1.285c0-0.339,0.077-0.64,0.229-0.901c0.153-0.264,0.372-0.475,0.657-0.635
	c0.285-0.159,0.592-0.239,0.921-0.239c0.28,0,0.549,0.06,0.808,0.177c0.258,0.118,0.481,0.286,0.669,0.505L23.153,20.561z
	 M17.809,19.534h1.851v0.633h-1.21v0.612h1.21v0.62h-1.21v0.893h1.21v0.634h-1.851V19.534z M16.392,22.926h-0.655v-2.755h-0.602
	v-0.637h1.875v0.637h-0.618V22.926z M14.447,22.306v0.62h-2.072l1.202-2.753h-1.103v-0.639h2.051l-1.207,2.771H14.447z
	 M10.83,22.227H9.447L9.17,22.926H8.5l1.308-3.392h0.654l1.305,3.392h-0.671L10.83,22.227z M10.139,20.434l-0.456,1.164h0.908
	L10.139,20.434z"/>
<path fill="#A2BC52" d="M22.127,19.449c0.28,0,0.549,0.06,0.808,0.177c0.258,0.118,0.481,0.286,0.669,0.505l-0.452,0.43
	c-0.306-0.324-0.652-0.486-1.036-0.486c-0.324,0-0.597,0.11-0.819,0.332c-0.221,0.222-0.333,0.495-0.333,0.818
	c0,0.228,0.049,0.428,0.148,0.603c0.098,0.177,0.237,0.313,0.417,0.413s0.379,0.15,0.599,0.15c0.188,0,0.358-0.035,0.514-0.105
	c0.155-0.069,0.326-0.196,0.511-0.382l0.438,0.457c-0.251,0.245-0.488,0.413-0.71,0.509c-0.223,0.095-0.477,0.142-0.763,0.142
	c-0.527,0-0.958-0.167-1.294-0.501c-0.336-0.335-0.504-0.763-0.504-1.285c0-0.339,0.077-0.64,0.229-0.901
	c0.153-0.264,0.372-0.475,0.657-0.635C21.491,19.529,21.799,19.449,22.127,19.449 M19.659,19.534v0.633h-1.21v0.612h1.21v0.62h-1.21
	v0.893h1.21v0.634h-1.851v-3.392H19.659 M17.01,19.534v0.637h-0.618v2.755h-0.655v-2.755h-0.602v-0.637H17.01 M14.525,19.534
	l-1.207,2.771h1.128v0.62h-2.072l1.202-2.753h-1.103v-0.639H14.525 M10.462,19.534l1.305,3.392h-0.671l-0.266-0.699H9.447
	L9.17,22.926H8.5l1.308-3.392H10.462 M9.684,21.598h0.908l-0.452-1.164L9.684,21.598 M22.127,19.284
	c-0.355,0-0.692,0.087-1.001,0.26c-0.31,0.176-0.552,0.409-0.719,0.696c-0.167,0.286-0.251,0.617-0.251,0.984
	c0,0.565,0.186,1.036,0.552,1.401c0.367,0.365,0.842,0.55,1.411,0.55c0.306,0,0.584-0.052,0.827-0.155
	c0.244-0.104,0.499-0.286,0.761-0.542l0.117-0.114l-0.113-0.117l-0.438-0.457l-0.117-0.122l-0.119,0.119
	c-0.169,0.169-0.325,0.285-0.462,0.348c-0.133,0.061-0.283,0.091-0.446,0.091c-0.192,0-0.362-0.042-0.519-0.129
	c-0.154-0.086-0.27-0.2-0.354-0.35c-0.085-0.151-0.126-0.322-0.126-0.522c0-0.281,0.093-0.51,0.285-0.702
	c0.191-0.19,0.421-0.283,0.703-0.283c0.34,0,0.64,0.142,0.916,0.435l0.114,0.12l0.12-0.114l0.451-0.43l0.113-0.107l-0.102-0.118
	c-0.202-0.236-0.446-0.421-0.726-0.548C22.723,19.349,22.428,19.284,22.127,19.284L22.127,19.284z M19.824,19.369h-0.165h-1.851
	h-0.165v0.165v3.392v0.165h0.165h1.851h0.165v-0.165v-0.634v-0.165h-0.165h-1.045v-0.563h1.045h0.165v-0.165v-0.62v-0.165h-0.165
	h-1.045v-0.282h1.045h0.165v-0.165v-0.633V19.369L19.824,19.369z M17.174,19.369H17.01h-1.875h-0.165v0.165v0.637v0.164h0.165h0.437
	v2.591v0.165h0.165h0.655h0.165v-0.165v-2.591h0.454h0.165v-0.164v-0.637V19.369L17.174,19.369z M14.776,19.369h-0.251h-2.051H12.31
	v0.165v0.639v0.164h0.165h0.851l-1.102,2.522l-0.101,0.231h0.251h2.072h0.165v-0.165v-0.62v-0.165h-0.165H13.57l1.106-2.54
	L14.776,19.369L14.776,19.369z M10.575,19.369h-0.113H9.808H9.695l-0.041,0.105l-1.308,3.392L8.26,23.091H8.5h0.67h0.112
	l0.041-0.104l0.235-0.595h1.158l0.225,0.593l0.041,0.106h0.114h0.671h0.24l-0.086-0.224l-1.304-3.392L10.575,19.369L10.575,19.369z
	 M9.925,21.433l0.213-0.546l0.212,0.546H9.925L9.925,21.433z"/>
<g>
	<polygon fill-rule="evenodd" clip-rule="evenodd" fill="#9A9E94" points="14.644,11.835 14.635,12.045 14.782,12.045 
		14.789,11.835 	"/>
	<polygon fill-rule="evenodd" clip-rule="evenodd" fill="#9A9E94" points="14.592,13.064 14.584,13.275 14.74,13.275 14.748,13.064 
			"/>
	<polygon fill-rule="evenodd" clip-rule="evenodd" fill="#9A9E94" points="14.609,12.675 14.601,12.854 14.754,12.854 14.76,12.675 
			"/>
	<polygon fill-rule="evenodd" clip-rule="evenodd" fill="#9A9E94" points="14.626,12.256 14.618,12.465 14.768,12.465 
		14.774,12.256 	"/>
	<polygon fill-rule="evenodd" clip-rule="evenodd" fill="#9A9E94" points="14.472,15.977 14.463,16.187 14.642,16.187 
		14.649,15.977 	"/>
	<polygon fill-rule="evenodd" clip-rule="evenodd" fill="#9A9E94" points="14.853,8.892 14.644,8.892 14.644,9.46 15.087,9.46 	"/>
	<polygon fill-rule="evenodd" clip-rule="evenodd" fill="#9A9E94" points="14.455,16.396 14.445,16.635 14.627,16.635 
		14.635,16.396 	"/>
	<polygon fill-rule="evenodd" clip-rule="evenodd" fill="#9A9E94" points="14.418,17.267 14.41,17.476 14.599,17.476 14.605,17.267 
			"/>
	<polygon fill-rule="evenodd" clip-rule="evenodd" fill="#9A9E94" points="14.436,16.846 14.427,17.056 14.613,17.056 14.62,16.846 
			"/>
	<polygon fill-rule="evenodd" clip-rule="evenodd" fill="#9A9E94" points="14.401,17.687 14.393,17.897 14.584,17.897 
		14.591,17.687 	"/>
	<polygon fill-rule="evenodd" clip-rule="evenodd" fill="#9A9E94" points="19.885,13.334 19.375,13.334 19.407,13.515 
		19.885,13.515 	"/>
	<polygon fill-rule="evenodd" clip-rule="evenodd" fill="#9A9E94" points="19.965,13.694 19.494,13.694 19.714,15.376 
		21.303,15.376 	"/>
	<polygon fill-rule="evenodd" clip-rule="evenodd" fill="#9A9E94" points="20.562,12.854 19.489,11.384 19.179,11.384 
		19.399,12.854 	"/>
	<polygon fill-rule="evenodd" clip-rule="evenodd" fill="#9A9E94" points="20.276,15.976 19.722,15.976 19.753,16.156 
		20.276,16.156 	"/>
	<polygon fill-rule="evenodd" clip-rule="evenodd" fill="#9A9E94" points="14.661,11.415 14.652,11.624 14.796,11.624 
		14.803,11.415 	"/>
	<polygon fill-rule="evenodd" clip-rule="evenodd" fill="#9A9E94" points="14.676,11.055 14.67,11.204 14.81,11.204 14.815,11.055 	
		"/>
	<polygon fill-rule="evenodd" clip-rule="evenodd" fill="#9A9E94" points="19.407,11.054 19.093,11.054 19.093,11.264 
		19.401,11.264 	"/>
	<polygon fill-rule="evenodd" clip-rule="evenodd" fill="#9A9E94" points="14.523,14.746 14.514,14.956 14.684,14.956 14.69,14.746 
			"/>
	<polygon fill-rule="evenodd" clip-rule="evenodd" fill="#9A9E94" points="14.895,9.656 14.582,9.656 14.582,10.688 15.277,10.688 	
		"/>
	<polygon fill-rule="evenodd" clip-rule="evenodd" fill="#9A9E94" points="20.362,16.336 19.871,16.336 20.154,18.347 
		22.373,18.347 	"/>
	<polygon fill-rule="evenodd" clip-rule="evenodd" fill="#9A9E94" points="14.383,18.106 14.375,18.316 14.57,18.316 14.577,18.106 
			"/>
	<polygon fill-rule="evenodd" clip-rule="evenodd" fill="#9A9E94" points="14.54,14.325 14.532,14.535 14.698,14.535 14.705,14.325 
			"/>
	<polygon fill-rule="evenodd" clip-rule="evenodd" fill="#9A9E94" points="14.506,15.167 14.497,15.376 14.669,15.376 
		14.676,15.167 	"/>
	<polygon fill-rule="evenodd" clip-rule="evenodd" fill="#9A9E94" points="14.557,13.935 14.549,14.115 14.712,14.115 
		14.718,13.935 	"/>
	<polygon fill-rule="evenodd" clip-rule="evenodd" fill="#9A9E94" points="14.575,13.484 14.565,13.724 14.725,13.724 
		14.733,13.484 	"/>
	<polygon fill-rule="evenodd" clip-rule="evenodd" fill="#9A9E94" points="14.488,15.585 14.48,15.766 14.656,15.766 14.662,15.585 
			"/>
	<path fill-rule="evenodd" clip-rule="evenodd" fill="#9A9E94" d="M14.57,18.316"/>
	<path fill-rule="evenodd" clip-rule="evenodd" fill="#9A9E94" d="M14.577,18.106"/>
	<path fill-rule="evenodd" clip-rule="evenodd" fill="#9A9E94" d="M14.584,17.897"/>
	<path fill-rule="evenodd" clip-rule="evenodd" fill="#9A9E94" d="M14.591,17.687"/>
	<path fill-rule="evenodd" clip-rule="evenodd" fill="#9A9E94" d="M14.599,17.476"/>
	<path fill-rule="evenodd" clip-rule="evenodd" fill="#9A9E94" d="M14.605,17.267"/>
	<path fill-rule="evenodd" clip-rule="evenodd" fill="#9A9E94" d="M14.613,17.056"/>
	<path fill-rule="evenodd" clip-rule="evenodd" fill="#9A9E94" d="M14.62,16.846"/>
	<path fill-rule="evenodd" clip-rule="evenodd" fill="#9A9E94" d="M14.627,16.635"/>
	<path fill-rule="evenodd" clip-rule="evenodd" fill="#9A9E94" d="M14.635,16.396"/>
	<path fill-rule="evenodd" clip-rule="evenodd" fill="#9A9E94" d="M14.642,16.187"/>
	<path fill-rule="evenodd" clip-rule="evenodd" fill="#9A9E94" d="M14.649,15.977"/>
	<path fill-rule="evenodd" clip-rule="evenodd" fill="#9A9E94" d="M14.656,15.766"/>
	<path fill-rule="evenodd" clip-rule="evenodd" fill="#9A9E94" d="M14.662,15.585"/>
	<path fill-rule="evenodd" clip-rule="evenodd" fill="#9A9E94" d="M14.669,15.376"/>
	<path fill-rule="evenodd" clip-rule="evenodd" fill="#9A9E94" d="M14.676,15.167"/>
	<path fill-rule="evenodd" clip-rule="evenodd" fill="#9A9E94" d="M14.684,14.956"/>
	<path fill-rule="evenodd" clip-rule="evenodd" fill="#9A9E94" d="M14.69,14.746"/>
	<path fill-rule="evenodd" clip-rule="evenodd" fill="#9A9E94" d="M14.698,14.535"/>
	<path fill-rule="evenodd" clip-rule="evenodd" fill="#9A9E94" d="M14.705,14.325"/>
	<path fill-rule="evenodd" clip-rule="evenodd" fill="#9A9E94" d="M14.718,13.935"/>
	<path fill-rule="evenodd" clip-rule="evenodd" fill="#9A9E94" d="M14.725,13.724"/>
	<path fill-rule="evenodd" clip-rule="evenodd" fill="#9A9E94" d="M14.733,13.484"/>
	<path fill-rule="evenodd" clip-rule="evenodd" fill="#9A9E94" d="M14.74,13.275"/>
	<path fill-rule="evenodd" clip-rule="evenodd" fill="#9A9E94" d="M14.748,13.064"/>
	<path fill-rule="evenodd" clip-rule="evenodd" fill="#9A9E94" d="M14.754,12.854"/>
	<path fill-rule="evenodd" clip-rule="evenodd" fill="#9A9E94" d="M14.76,12.675"/>
	<path fill-rule="evenodd" clip-rule="evenodd" fill="#9A9E94" d="M14.768,12.465"/>
	<path fill-rule="evenodd" clip-rule="evenodd" fill="#9A9E94" d="M14.774,12.256"/>
	<path fill-rule="evenodd" clip-rule="evenodd" fill="#9A9E94" d="M14.782,12.045"/>
	<path fill-rule="evenodd" clip-rule="evenodd" fill="#9A9E94" d="M14.789,11.835"/>
	<path fill-rule="evenodd" clip-rule="evenodd" fill="#9A9E94" d="M14.803,11.415"/>
	<path fill-rule="evenodd" clip-rule="evenodd" fill="#9A9E94" d="M14.815,11.055"/>
</g>
</svg>
