<?xml version="1.0" encoding="utf-8"?>
<!-- Generator: Adobe Illustrator 16.0.0, SVG Export Plug-In . SVG Version: 6.00 Build 0)  -->
<!DOCTYPE svg PUBLIC "-//W3C//DTD SVG 1.1//EN" "http://www.w3.org/Graphics/SVG/1.1/DTD/svg11.dtd">
<svg version="1.1" id="Layer_1" xmlns="http://www.w3.org/2000/svg" xmlns:xlink="http://www.w3.org/1999/xlink" x="0px" y="0px"
	 width="32px" height="32px" viewBox="0 0 32 32" enable-background="new 0 0 32 32" xml:space="preserve">
<g id="Layer_1_1_" display="none">
	
		<rect x="6.361" y="6.361" transform="matrix(0.7071 -0.7071 0.7071 0.7071 -6.6275 16.0007)" display="inline" fill="#96BD4D" width="19.279" height="19.279"/>
	<path display="inline" fill="#272525" d="M0.715,17.533l13.752,13.752c0.847,0.847,2.221,0.847,3.067,0l13.751-13.752
		c0.848-0.846,0.848-2.22,0-3.067L17.534,0.714c-0.847-0.847-2.22-0.847-3.067,0L0.715,14.467
		C-0.132,15.313-0.132,16.688,0.715,17.533z M14.942,5.453c0.584-0.585,1.532-0.585,2.117,0l9.488,9.489
		c0.585,0.584,0.585,1.532,0,2.117l-9.488,9.488c-0.583,0.585-1.533,0.585-2.117,0l-9.49-9.488c-0.584-0.583-0.584-1.532,0-2.117
		L14.942,5.453z"/>
	<g display="inline">
		<path fill="#272525" d="M17.965,14.47h-3.929l1.965-3.403L17.965,14.47z M14.823,14.016h2.356L16,11.975L14.823,14.016z"/>
		<path fill="#272525" d="M17.965,16.88h-3.929l1.965-3.403L17.965,16.88z M14.823,16.426h2.356L16,14.384L14.823,16.426z"/>
		<path fill="#272525" d="M17.965,12.06h-3.929l1.965-3.403L17.965,12.06z M14.823,11.606h2.356L16,9.565L14.823,11.606z"/>
		<g>
			<path fill="#272525" d="M11.626,18.588h0.827v0.186h-0.619v0.445h0.598v0.188h-0.598v0.452h0.639v0.188h-0.847V18.588z"/>
			<path fill="#272525" d="M13.876,18.588h0.198v1.459h-0.179l-0.976-1.124v1.124h-0.197v-1.459h0.169l0.984,1.135L13.876,18.588
				L13.876,18.588z"/>
			<path fill="#272525" d="M15.667,19.709v0.229c-0.153,0.084-0.33,0.125-0.531,0.125c-0.163,0-0.301-0.03-0.415-0.098
				c-0.113-0.064-0.204-0.156-0.27-0.271c-0.066-0.113-0.1-0.237-0.1-0.373c0-0.211,0.076-0.391,0.228-0.534
				c0.151-0.146,0.338-0.218,0.561-0.218c0.153,0,0.324,0.039,0.511,0.119v0.226c-0.171-0.099-0.337-0.146-0.5-0.146
				c-0.167,0-0.306,0.055-0.416,0.157c-0.111,0.107-0.166,0.238-0.166,0.396c0,0.16,0.055,0.291,0.163,0.396
				c0.108,0.104,0.248,0.154,0.417,0.154C15.326,19.872,15.498,19.816,15.667,19.709z"/>
			<path fill="#272525" d="M15.945,18.588h0.208v1.27h0.658v0.189h-0.867L15.945,18.588L15.945,18.588z"/>
			<path fill="#272525" d="M17.48,18.579h0.146l0.652,1.468h-0.215l-0.192-0.433H17.25l-0.184,0.433h-0.213L17.48,18.579z
				 M17.788,19.43L17.553,18.9l-0.218,0.526h0.453V19.43z"/>
			<path fill="#272525" d="M19.217,18.588h0.208l-0.616,1.465H18.76l-0.628-1.465h0.21l0.438,1.023L19.217,18.588z"/>
			<path fill="#272525" d="M19.605,18.588h0.828v0.186h-0.619v0.445h0.599v0.188h-0.599v0.452h0.64v0.188h-0.849V18.588z"/>
		</g>
	</g>
	
		<linearGradient id="SVGID_1_" gradientUnits="userSpaceOnUse" x1="37.2676" y1="1223" x2="66.7344" y2="1223" gradientTransform="matrix(1 0 0 1 -36 -1207)">
		<stop  offset="0" style="stop-color:#7BA54C"/>
		<stop  offset="0.0885" style="stop-color:#7EA74C"/>
		<stop  offset="0.6311" style="stop-color:#90B74D"/>
		<stop  offset="1" style="stop-color:#96BD4D"/>
	</linearGradient>
	<path display="inline" fill="url(#SVGID_1_)" d="M16,30.732c-0.571,0-1.108-0.224-1.512-0.625L1.894,17.512
		C1.49,17.107,1.267,16.57,1.268,16c0-0.571,0.223-1.108,0.626-1.512L14.489,1.893c0.404-0.404,0.941-0.626,1.512-0.626
		c0.571,0,1.108,0.223,1.513,0.626l12.594,12.595c0.404,0.404,0.627,0.941,0.627,1.512c0,0.57-0.223,1.107-0.627,1.511
		L17.514,30.107C17.109,30.511,16.572,30.732,16,30.732z M16.001,1.57c-0.49,0-0.952,0.19-1.298,0.538L2.108,14.702
		C1.761,15.049,1.57,15.51,1.57,16s0.19,0.951,0.537,1.298l12.595,12.595C15.049,30.239,15.51,30.43,16,30.43
		c0.491,0,0.952-0.189,1.298-0.537l12.597-12.595c0.347-0.347,0.537-0.808,0.537-1.298c0-0.491-0.19-0.952-0.537-1.298L17.299,2.107
		C16.952,1.76,16.491,1.57,16.001,1.57z"/>
</g>
<linearGradient id="SVGID_2_" gradientUnits="userSpaceOnUse" x1="1.4849" y1="16.0117" x2="30.5156" y2="16.0117">
	<stop  offset="0" style="stop-color:#302E2E"/>
	<stop  offset="0.1262" style="stop-color:#2B2929"/>
	<stop  offset="0.4685" style="stop-color:#1C1C1C"/>
	<stop  offset="0.771" style="stop-color:#10100F"/>
	<stop  offset="1" style="stop-color:#030303"/>
</linearGradient>
<polygon fill="url(#SVGID_2_)" points="30.516,16.012 16,30.527 1.485,16.012 16,1.497 "/>
<radialGradient id="SVGID_3_" cx="-632.8062" cy="954.626" r="12.7376" gradientTransform="matrix(-0.0607 -0.9982 2.2198 -0.1351 -2140.4009 -495.1653)" gradientUnits="userSpaceOnUse">
	<stop  offset="0" style="stop-color:#999999"/>
	<stop  offset="0.3646" style="stop-color:#878787"/>
	<stop  offset="1" style="stop-color:#000000"/>
</radialGradient>
<path display="none" fill="url(#SVGID_3_)" d="M16.423,16.423c1.981,0.081,2.815-0.274,5.077-0.017
	c2.75,0.313,3.707,1.27,4.376,0.59c0.089-0.09,0.235-0.279,0.399-0.479c0.078-0.153,0.121-0.328,0.121-0.505
	c0-0.301-0.119-0.585-0.332-0.797l-9.269-9.267C16.584,5.734,16.301,5.617,16,5.617s-0.584,0.117-0.797,0.331l-9.268,9.267
	c-0.212,0.212-0.331,0.497-0.331,0.797c0,0.284,0.087,0.638,0.373,0.902c0.66,0.605,1.493,0.762,2.483,0.51
	C11.223,16.721,13.46,16.303,16.423,16.423z"/>
<linearGradient id="SVGID_4_" gradientUnits="userSpaceOnUse" x1="15.9805" y1="11.561" x2="15.9492" y2="28.4673">
	<stop  offset="0" style="stop-color:#000000"/>
	<stop  offset="1" style="stop-color:#404A44"/>
</linearGradient>
<path fill="url(#SVGID_4_)" d="M5.7,17.046l9.267,9.269c0.571,0.57,1.497,0.57,2.067,0l9.268-9.269
	c0.356-0.356,0.095-1.024,0.095-1.024c0,0.3-0.119,0.585-0.33,0.796l-9.269,9.268C16.585,26.3,16.301,26.417,16,26.417
	s-0.584-0.117-0.797-0.331l-9.268-9.268c-0.213-0.211-0.332-0.496-0.332-0.796C5.604,16.022,5.209,16.555,5.7,17.046z"/>
<radialGradient id="SVGID_5_" cx="52.001" cy="1223.0117" r="15.5483" gradientTransform="matrix(1 0 0 1 -36 -1207)" gradientUnits="userSpaceOnUse">
	<stop  offset="0" style="stop-color:#7C7070"/>
	<stop  offset="0.3226" style="stop-color:#736F6E"/>
	<stop  offset="1" style="stop-color:#212624"/>
</radialGradient>
<path fill="url(#SVGID_5_)" d="M1.074,17.511l13.429,13.429c0.826,0.828,2.167,0.828,2.995,0l13.43-13.429
	c0.828-0.827,0.828-2.169,0-2.997L17.498,1.085c-0.825-0.828-2.167-0.828-2.995,0L1.073,14.514
	C0.246,15.342,0.246,16.684,1.074,17.511z M14.967,5.712c0.571-0.571,1.497-0.571,2.067,0l9.268,9.267c0.57,0.57,0.57,1.497,0,2.067
	l-9.268,9.269c-0.57,0.57-1.496,0.57-2.067,0L5.7,17.046c-0.571-0.57-0.571-1.497,0-2.067L14.967,5.712z"/>
<linearGradient id="SVGID_6_" gradientUnits="userSpaceOnUse" x1="16.6123" y1="43.1338" x2="15.4453" y2="-8.6577">
	<stop  offset="0" style="stop-color:#404A44"/>
	<stop  offset="0.6774" style="stop-color:#736F6E"/>
	<stop  offset="1" style="stop-color:#7C7070"/>
</linearGradient>
<path fill="url(#SVGID_6_)" d="M14.943,5.472c0.584-0.584,1.532-0.584,2.116,0l9.483,9.483c0.583,0.583,0.583,1.532,0,2.115
	l-9.483,9.484c-0.584,0.583-1.531,0.583-2.116,0L5.46,17.07c-0.584-0.583-0.584-1.532,0-2.115L14.943,5.472z"/>
<path fill="#050505" d="M14.985,5.896c0.561-0.561,1.47-0.561,2.03,0l9.103,9.102c0.56,0.56,0.56,1.47,0,2.03l-9.103,9.104
	c-0.56,0.56-1.469,0.56-2.03,0l-9.102-9.104c-0.561-0.56-0.561-1.47,0-2.03L14.985,5.896z"/>
<radialGradient id="SVGID_7_" cx="-636.9282" cy="1043.4434" r="14.4641" gradientTransform="matrix(-0.0607 -0.9982 1.2743 -0.0776 -1355.355 -547.1971)" gradientUnits="userSpaceOnUse">
	<stop  offset="0.0098" style="stop-color:#000000;stop-opacity:0"/>
	<stop  offset="1" style="stop-color:#474D4B;stop-opacity:0.6"/>
</radialGradient>
<path fill="url(#SVGID_7_)" d="M16.423,16.423c1.981,0.081,2.815-0.274,5.077-0.017c2.75,0.313,3.707,1.27,4.376,0.59
	c0.089-0.09,0.235-0.279,0.399-0.479c0.078-0.153,0.121-0.328,0.121-0.505c0-0.301-0.119-0.585-0.332-0.797l-9.269-9.267
	C16.584,5.734,16.301,5.617,16,5.617s-0.584,0.117-0.797,0.331l-9.268,9.267c-0.212,0.212-0.331,0.497-0.331,0.797
	c0,0.284,0.087,0.638,0.373,0.902c0.66,0.605,1.493,0.762,2.483,0.51C11.223,16.721,13.46,16.303,16.423,16.423z"/>
<radialGradient id="SVGID_8_" cx="15.0737" cy="8.8022" r="6.3477" gradientUnits="userSpaceOnUse">
	<stop  offset="0" style="stop-color:#404A44"/>
	<stop  offset="0.6774" style="stop-color:#736F6E"/>
	<stop  offset="1" style="stop-color:#7C7070"/>
</radialGradient>
<path fill="url(#SVGID_8_)" d="M16.38,10.676h1.103l-1.461-2.532l-1.462,2.532h1.104l-1.104,1.911h1.104L14.559,14.5h2.923
	l-1.103-1.912h1.103L16.38,10.676z M14.991,10.428l1.031-1.787l1.032,1.787h-0.817l-0.215-0.373l-0.214,0.373H14.991z M17.053,14.25
	H14.99l0.96-1.663h0.143L17.053,14.25z M16.021,11.968l-0.215,0.373H14.99l0.96-1.663h0.143l0.959,1.663h-0.816L16.021,11.968z"/>
<linearGradient id="SVGID_9_" gradientUnits="userSpaceOnUse" x1="-190" y1="129.4297" x2="-190" y2="147.3644" gradientTransform="matrix(1 0 0 -1 206 149)">
	<stop  offset="0.1429" style="stop-color:#454A4E"/>
	<stop  offset="0.1852" style="stop-color:#403E3E"/>
	<stop  offset="0.561" style="stop-color:#292929"/>
	<stop  offset="0.8441" style="stop-color:#181818"/>
	<stop  offset="1" style="stop-color:#0C0C0C"/>
</linearGradient>
<path display="none" opacity="0.7" fill="url(#SVGID_9_)" d="M30.574,14.868l-13.43-13.43C16.838,1.132,16.433,0.965,16,0.965
	s-0.839,0.167-1.144,0.473l-13.43,13.43c-0.306,0.307-0.474,0.712-0.474,1.144c0,0.223,0.046,0.438,0.132,0.636
	c0.261-0.109,1.375,0.379,1.682,0.52c0.436,0.2,0.984,0.441,2.582,0.232c-0.371-0.371-0.575-0.864-0.575-1.388
	c0-0.524,0.204-1.017,0.575-1.387l9.267-9.268c0.37-0.37,0.863-0.574,1.387-0.574c0.523,0,1.02,0.204,1.389,0.574l9.269,9.268
	c0.368,0.37,0.573,0.862,0.573,1.387c0,0.525-0.205,1.017-0.573,1.388c0,0,0.729,0.408,1.295,0.354
	c0.901-0.087,1.544-0.427,2.364-0.339l0.259-0.261C31.205,16.525,31.205,15.499,30.574,14.868z"/>
<path fill="#565654" d="M30.922,14.502l-6.148-6.139l-3.146-1.312l1.872,0.026L17.51,1.092c-0.402-0.403-0.939-0.625-1.509-0.625
	c-0.571,0-1.107,0.222-1.51,0.625L8.905,6.689l-1.564,3.75l0.033-2.23l-6.292,6.292c-0.403,0.403-0.625,0.939-0.625,1.51
	c-0.001,0.572,0.221,1.108,0.624,1.509l5.942,5.934l3.493,1.454l-2.078-0.029l6.053,6.054c0.403,0.402,0.939,0.625,1.51,0.625
	c0.571,0,1.106-0.223,1.509-0.625l5.967-5.978l1.359-3.261l-0.027,1.94l6.111-6.112c0.403-0.403,0.625-0.939,0.625-1.509
	C31.545,15.443,31.324,14.906,30.922,14.502z M25.146,22.839l0.039-2.825l-1.979,4.76l-5.928,5.929
	c-0.34,0.343-0.795,0.532-1.279,0.532c-0.485,0-0.939-0.189-1.279-0.532l-5.488-5.484l2.962,0.041l-4.992-2.073l-5.892-5.892
	c-0.342-0.342-0.53-0.797-0.53-1.281c0-0.482,0.188-0.938,0.53-1.28l5.727-5.726l-0.045,3.117L9.175,6.87l5.547-5.547
	c0.341-0.343,0.796-0.532,1.279-0.532c0.484,0,0.938,0.188,1.28,0.532l5.422,5.421l-2.76-0.04l4.648,1.929l6.1,6.099
	c0.344,0.345,0.531,0.799,0.531,1.281c0,0.481-0.188,0.936-0.529,1.281L25.146,22.839z"/>
<path fill="#050505" d="M31.325,14.421L17.592,0.688c-0.425-0.425-0.988-0.658-1.591-0.658c-0.601,0-1.166,0.233-1.59,0.658
	L0.677,14.421c-0.424,0.425-0.658,0.989-0.658,1.591s0.233,1.166,0.658,1.591l13.734,13.73c0.424,0.425,0.989,0.659,1.59,0.659
	c0.601,0,1.165-0.234,1.591-0.659l13.733-13.73c0.425-0.428,0.657-0.99,0.657-1.591S31.75,14.846,31.325,14.421z M30.852,17.451
	l-5.938,5.938l0.029-2.213l-1.559,3.74l-5.943,5.943c-0.385,0.385-0.896,0.597-1.438,0.597s-1.055-0.212-1.439-0.597l-5.879-5.877
	l2.35,0.033l-3.972-1.656l-5.91-5.909c-0.385-0.384-0.596-0.896-0.595-1.439c0-0.543,0.211-1.054,0.596-1.438L7.27,8.455
	l-0.037,2.503l1.764-4.23l5.565-5.565c0.384-0.384,0.896-0.596,1.439-0.596s1.056,0.212,1.438,0.596l5.813,5.813l-2.145-0.03
	l3.623,1.511l6.117,6.117c0.385,0.385,0.596,0.896,0.596,1.439C31.445,16.557,31.234,17.066,30.852,17.451z"/>
<g>
	<path fill="#B5AEAE" d="M9.292,18.391H8.568v-2.135h0.56c0.176,0,0.314,0.023,0.413,0.07c0.099,0.048,0.175,0.112,0.227,0.196
		c0.052,0.081,0.078,0.177,0.078,0.287c0,0.21-0.108,0.36-0.325,0.452c0.156,0.029,0.279,0.094,0.372,0.191
		c0.092,0.1,0.138,0.217,0.138,0.354c0,0.11-0.028,0.207-0.084,0.293c-0.056,0.085-0.138,0.155-0.247,0.21
		C9.589,18.363,9.454,18.391,9.292,18.391z M9.137,16.526H8.873v0.644h0.204c0.163,0,0.279-0.031,0.348-0.095
		c0.069-0.061,0.103-0.142,0.103-0.24C9.527,16.629,9.398,16.526,9.137,16.526z M9.16,17.441H8.873v0.678h0.302
		c0.167,0,0.28-0.013,0.339-0.039c0.06-0.026,0.107-0.066,0.144-0.122c0.037-0.055,0.055-0.114,0.055-0.178
		c0-0.064-0.02-0.125-0.057-0.178c-0.039-0.055-0.093-0.094-0.164-0.122C9.422,17.454,9.312,17.441,9.16,17.441z"/>
	<path fill="#B5AEAE" d="M10.331,16.256h0.305v1.856h0.962v0.278h-1.268V16.256z"/>
	<path fill="#B5AEAE" d="M12.705,16.243h0.215l0.958,2.148h-0.313l-0.285-0.633h-0.911l-0.267,0.633h-0.314L12.705,16.243z
		 M13.154,17.485l-0.344-0.772l-0.32,0.772H13.154z"/>
	<path fill="#B5AEAE" d="M15.749,17.896v0.336c-0.224,0.123-0.483,0.184-0.776,0.184c-0.24,0-0.441-0.048-0.607-0.144
		c-0.166-0.097-0.298-0.228-0.395-0.397c-0.096-0.166-0.145-0.349-0.145-0.545c0-0.31,0.111-0.572,0.333-0.784
		c0.221-0.211,0.495-0.316,0.82-0.316c0.224,0,0.474,0.058,0.749,0.175v0.329c-0.25-0.143-0.494-0.216-0.733-0.216
		c-0.244,0-0.447,0.078-0.609,0.233c-0.162,0.153-0.242,0.348-0.242,0.579c0,0.235,0.08,0.427,0.239,0.579
		c0.158,0.15,0.362,0.227,0.61,0.227C15.249,18.135,15.502,18.054,15.749,17.896z"/>
	<path fill="#B5AEAE" d="M17.332,16.256h0.382l-0.926,1.013l1.155,1.122h-0.418l-1.092-1.055v1.055h-0.306v-2.135h0.306v0.977
		L17.332,16.256z"/>
	<path fill="#B5AEAE" d="M18.706,17.496l-0.231-0.141c-0.146-0.091-0.25-0.178-0.312-0.264c-0.062-0.085-0.093-0.187-0.093-0.298
		c0-0.167,0.059-0.304,0.176-0.409c0.117-0.105,0.269-0.156,0.456-0.156c0.177,0,0.341,0.048,0.488,0.149v0.347
		c-0.152-0.149-0.317-0.222-0.495-0.222c-0.102,0-0.182,0.022-0.246,0.068c-0.065,0.048-0.098,0.105-0.098,0.179
		c0,0.063,0.024,0.124,0.071,0.18c0.047,0.057,0.124,0.115,0.229,0.176l0.234,0.138c0.261,0.156,0.39,0.354,0.39,0.594
		c0,0.172-0.057,0.311-0.172,0.417c-0.114,0.108-0.264,0.161-0.447,0.161c-0.209,0-0.403-0.065-0.576-0.194v-0.388
		c0.166,0.209,0.356,0.313,0.573,0.313c0.096,0,0.176-0.027,0.239-0.079c0.064-0.054,0.095-0.121,0.095-0.202
		C18.987,17.736,18.895,17.614,18.706,17.496z"/>
	<path fill="#B5AEAE" d="M19.772,16.256h0.306v2.135h-0.306V16.256z"/>
	<path fill="#B5AEAE" d="M20.371,16.25h1.784v0.274H21.41v1.866h-0.307v-1.866h-0.732V16.25z"/>
	<path fill="#B5AEAE" d="M22.444,16.256h1.211v0.271H22.75v0.651h0.875v0.274H22.75v0.663h0.934v0.272h-1.239V16.256z"/>
</g>
</svg>
