<?xml version="1.0" encoding="utf-8"?>
<!-- Generator: Adobe Illustrator 16.0.0, SVG Export Plug-In . SVG Version: 6.00 Build 0)  -->
<!DOCTYPE svg PUBLIC "-//W3C//DTD SVG 1.1//EN" "http://www.w3.org/Graphics/SVG/1.1/DTD/svg11.dtd">
<svg version="1.1" id="Layer_1" xmlns="http://www.w3.org/2000/svg" xmlns:xlink="http://www.w3.org/1999/xlink" x="0px" y="0px"
	 width="32px" height="32px" viewBox="0 0 32 32" enable-background="new 0 0 32 32" xml:space="preserve">
<g id="Shape_1_copy_20">
	<g>
		<polygon fill-rule="evenodd" clip-rule="evenodd" fill="#15576F" points="16.028,0.921 0.298,12.349 6.307,30.841 25.75,30.841 
			31.758,12.349 		"/>
	</g>
</g>
<g id="Shape_1_copy_21">
	<g>
		<polygon fill-rule="evenodd" clip-rule="evenodd" fill="#07A5C2" points="16.028,1.12 0.508,12.396 6.437,30.642 25.62,30.642 
			31.547,12.396 		"/>
	</g>
</g>
<g id="Shape_20">
	<g>
		<path fill-rule="evenodd" clip-rule="evenodd" fill="#15576F" d="M8.108,30.673h1.665v-0.545H8.108V30.673z M11.563,30.674h1.665
			v-0.546h-1.665V30.674z M15.339,30.674h1.665v-0.546h-1.665V30.674z M18.795,30.674h1.665v-0.546h-1.665V30.674z M22.539,30.674
			h1.665v-0.546h-1.665V30.674z M25.635,28.918l0.519,0.167l0.513-1.584l-0.52-0.167L25.635,28.918z M26.699,25.63l0.52,0.168
			l0.512-1.584l-0.52-0.168L26.699,25.63z M27.862,22.037l0.52,0.168l0.512-1.584l-0.519-0.169L27.862,22.037z M28.926,18.75
			l0.519,0.167l0.513-1.584l-0.519-0.167L28.926,18.75z M30.591,13.604l-0.512,1.584l0.52,0.169l0.513-1.585L30.591,13.604z
			 M5.423,27.613l0.514,1.584l0.519-0.169l-0.513-1.584L5.423,27.613z M4.357,24.325l0.514,1.584l0.52-0.169l-0.513-1.583
			L4.357,24.325z M3.194,20.734l0.513,1.583l0.52-0.168l-0.514-1.584L3.194,20.734z M2.129,17.446l0.513,1.583l0.519-0.168
			l-0.513-1.583L2.129,17.446z M0.975,13.884l0.513,1.585l0.52-0.169l-0.513-1.584L0.975,13.884z M3.266,11.04l-0.32-0.442
			l-1.348,0.976l0.32,0.443L3.266,11.04z M6.065,9.014l-0.32-0.441L4.396,9.549l0.32,0.441L6.065,9.014z M8.804,6.358L7.456,7.334
			l0.32,0.443l1.349-0.977L8.804,6.358z M11.604,4.333l-1.349,0.976l0.321,0.442l1.349-0.977L11.604,4.333z M13.289,3.114
			l0.32,0.442l1.349-0.976l-0.321-0.443L13.289,3.114z M28.944,10.482l-0.32,0.441l1.347,0.979l0.321-0.442L28.944,10.482z
			 M27.495,9.431l-1.347-0.979l-0.321,0.442l1.348,0.977L27.495,9.431z M22.771,6.676l1.347,0.979l0.32-0.442l-1.347-0.978
			L22.771,6.676z M19.975,4.646l1.348,0.979l0.32-0.442l-1.348-0.979L19.975,4.646z M16.945,2.445l1.347,0.979l0.321-0.441
			l-1.347-0.978L16.945,2.445z"/>
	</g>
</g>
<g id="Shape_1_copy_20_1_">
	<g>
		<polygon fill-rule="evenodd" clip-rule="evenodd" fill="#07A5C2" points="15.992,1.825 1.076,12.663 6.773,30.198 25.211,30.198 
			30.909,12.663 		"/>
	</g>
</g>
<g id="Shape_1_copy_22">
	<g>
		<polygon fill-rule="evenodd" clip-rule="evenodd" fill="#C6C5C5" points="15.992,2.688 1.983,12.867 7.334,29.336 24.65,29.336 
			30.001,12.867 		"/>
	</g>
</g>
<g id="Shape_1_copy_20_2_">
	<g>
		<polygon fill-rule="evenodd" clip-rule="evenodd" fill="#AE2324" points="15.992,3.176 2.431,13.027 7.611,28.971 24.374,28.971 
			29.553,13.027 		"/>
	</g>
</g>
<g id="Shape_1_copy_25">
	<g>
		<polygon fill-rule="evenodd" clip-rule="evenodd" fill="#6B100F" points="15.992,3.176 16.119,28.971 24.374,28.971 
			29.553,13.027 		"/>
	</g>
</g>
<g>
	<path fill="#DEDEDD" d="M10.069,26.302l0.543-0.711h0.367v1.917h-0.421v-1.197l-0.457,0.602h-0.063l-0.456-0.602v1.197H9.161
		v-1.917h0.365L10.069,26.302z"/>
	<path fill="#DEDEDD" d="M11.85,25.591v1.917h-0.421v-1.917H11.85z"/>
	<path fill="#DEDEDD" d="M12.301,25.591h0.756c0.164,0,0.297,0.054,0.399,0.16c0.102,0.108,0.154,0.238,0.154,0.392
		c0,0.211-0.097,0.367-0.291,0.469c0.084,0.043,0.166,0.161,0.243,0.353c0.075,0.192,0.149,0.374,0.221,0.544h-0.462
		c-0.028-0.063-0.076-0.184-0.144-0.36c-0.069-0.178-0.128-0.292-0.176-0.343c-0.049-0.05-0.101-0.075-0.157-0.075h-0.121v0.778
		h-0.421V25.591z M12.723,25.941v0.437h0.223c0.071,0,0.127-0.019,0.169-0.057c0.042-0.037,0.062-0.092,0.062-0.162
		c0-0.146-0.08-0.218-0.241-0.218H12.723z"/>
	<path fill="#DEDEDD" d="M15.092,25.591l0.751,1.917H15.39l-0.14-0.379h-0.757l-0.126,0.379h-0.446l0.683-1.917H15.092z
		 M15.127,26.794l-0.274-0.745l-0.248,0.745H15.127z"/>
	<path fill="#DEDEDD" d="M17.527,25.723v0.42c-0.216-0.118-0.426-0.178-0.632-0.178c-0.198,0-0.352,0.058-0.458,0.17
		c-0.107,0.114-0.161,0.259-0.161,0.434c0,0.169,0.053,0.306,0.161,0.409c0.107,0.104,0.249,0.156,0.423,0.156
		c0.093,0,0.186-0.021,0.28-0.067v-0.225h-0.245v-0.351h0.667v0.783c-0.066,0.076-0.168,0.138-0.305,0.187
		c-0.137,0.048-0.272,0.072-0.407,0.072c-0.294,0-0.536-0.093-0.725-0.276c-0.189-0.185-0.284-0.419-0.284-0.704
		c0-0.292,0.094-0.528,0.284-0.713c0.189-0.183,0.434-0.273,0.735-0.273C17.108,25.566,17.331,25.618,17.527,25.723z"/>
	<path fill="#DEDEDD" d="M19.242,27.156v0.352h-1.247v-1.917h1.229v0.351h-0.808v0.402h0.771v0.352h-0.771v0.461H19.242z"/>
</g>
<g id="Shape_18">
	<g>
		<polygon fill-rule="evenodd" clip-rule="evenodd" fill="#30B14A" points="22.595,26.201 21.786,26.131 21.489,25.397 
			21.192,26.131 20.383,26.201 21.009,26.696 20.806,27.501 21.489,27.045 22.172,27.501 21.97,26.696 		"/>
	</g>
</g>
<g id="Shape_21">
	<g>
		<polygon fill-rule="evenodd" clip-rule="evenodd" fill="#5A0F0F" points="24.267,16.688 24.064,11.535 24.315,11.535 
			24.315,11.152 24.049,11.152 24.028,10.592 21.004,10.592 20.981,11.152 20.587,11.152 20.587,11.535 20.966,11.535 
			20.764,16.688 18.54,16.672 18.349,10.448 18.667,10.448 18.667,10.063 18.338,10.063 18.316,9.345 14.716,9.345 14.692,10.063 
			14.284,10.063 14.284,10.448 14.679,10.448 14.476,16.672 12.701,16.672 12.512,11.535 12.796,11.535 12.796,11.152 
			12.497,11.152 12.476,10.576 9.42,10.576 9.401,11.152 9.068,11.152 9.068,11.535 9.388,11.535 9.212,16.672 8.493,16.672 
			8.493,17.071 24.78,17.056 24.78,16.688 		"/>
	</g>
</g>
<g id="Shape_21_copy">
	<g>
		<polygon fill-rule="evenodd" clip-rule="evenodd" fill="#56A5B3" points="23.851,16.271 23.649,11.12 23.9,11.12 23.9,10.735 
			23.634,10.735 23.611,10.176 20.587,10.176 20.566,10.735 20.172,10.735 20.172,11.12 20.55,11.12 20.348,16.271 18.124,16.256 
			17.934,10.032 18.251,10.032 18.251,9.647 17.922,9.647 17.899,8.928 14.3,8.928 14.277,9.647 13.868,9.647 13.868,10.032 
			14.264,10.032 14.061,16.256 12.284,16.256 12.095,11.12 12.38,11.12 12.38,10.735 12.082,10.735 12.06,10.159 9.005,10.159 
			8.985,10.735 8.653,10.735 8.653,11.12 8.972,11.12 8.796,16.256 8.076,16.256 8.076,16.656 24.364,16.64 24.364,16.271 		"/>
	</g>
</g>
<g id="Shape_22">
	<g>
		<path fill-rule="evenodd" clip-rule="evenodd" fill="#3F3F3F" d="M9.708,12.384h0.256V11.76H9.708V12.384z M11.18,12.384h0.256
			V11.76H11.18V12.384z M10.444,12.384h0.256V11.76h-0.256V12.384z M15.18,11.199h0.256v-0.623H15.18V11.199z M16.652,11.199h0.256
			v-0.623h-0.256V11.199z M15.916,11.199h0.256v-0.623h-0.256V11.199z M21.292,12.384h0.256V11.76h-0.256V12.384z M22.764,11.76
			v0.624h0.256V11.76H22.764z M22.028,12.384h0.256V11.76h-0.256V12.384z"/>
	</g>
</g>
<g id="Shape_23">
	<g>
		<path fill-rule="evenodd" clip-rule="evenodd" fill="#BFC25A" d="M14.208,21.103c-0.086-0.204-0.457-0.653-0.777-1.054
			c-0.333-0.401-0.615-0.758-0.808-0.825c-0.078,0.187,0.09,0.63,0.394,1.07c0.291,0.438,0.719,0.875,0.884,0.986
			c0.12,0.084,0.265,0.166,0.364,0.219c-0.25-0.011-0.501-0.027-0.751-0.05c-0.029-0.093-0.086-0.276-0.125-0.388
			c-0.071-0.2-0.393-0.648-0.669-1.05c-0.288-0.404-0.532-0.762-0.71-0.836c-0.083,0.179,0.05,0.615,0.311,1.053
			c0.25,0.436,0.626,0.872,0.775,0.988c0.106,0.084,0.237,0.169,0.328,0.225c-0.239-0.024-0.478-0.053-0.715-0.087
			c-0.023-0.089-0.066-0.267-0.098-0.375c-0.057-0.194-0.332-0.638-0.569-1.038c-0.247-0.402-0.457-0.761-0.62-0.84
			c-0.086,0.171,0.015,0.599,0.236,1.031c0.209,0.43,0.54,0.863,0.673,0.981c0.095,0.085,0.211,0.172,0.293,0.228
			c-0.228-0.033-0.454-0.072-0.679-0.117c-0.017-0.087-0.049-0.258-0.071-0.361c-0.147-0.393-0.774-1.709-1.015-1.859
			c-0.238,0.308,0.449,1.721,0.747,1.977c0.083,0.084,0.187,0.171,0.26,0.229c-0.198-0.039-0.396-0.085-0.592-0.132
			c-0.012-0.084-0.034-0.248-0.05-0.35c-0.12-0.379-0.642-1.677-0.866-1.833c-0.238,0.295,0.34,1.68,0.608,1.936
			c0.075,0.084,0.168,0.17,0.233,0.229c-0.189-0.048-0.377-0.1-0.564-0.153c-0.008-0.082-0.021-0.239-0.031-0.337
			c-0.093-0.366-0.521-1.64-0.727-1.8c-0.236,0.28,0.238,1.632,0.48,1.889c0.066,0.083,0.148,0.168,0.208,0.226
			c-0.186-0.055-0.37-0.113-0.552-0.176c-0.003-0.077-0.007-0.229-0.013-0.32c-0.068-0.354-0.407-1.6-0.597-1.763
			c-0.234,0.268,0.146,1.584,0.361,1.838c0.057,0.081,0.13,0.164,0.182,0.223c-0.162-0.056-0.323-0.116-0.483-0.177
			c0-0.076,0.004-0.22,0.003-0.309c-0.046-0.344-0.31-1.559-0.485-1.721c-0.231,0.255,0.066,1.536,0.258,1.785
			c0.05,0.079,0.114,0.162,0.162,0.219c-0.164-0.063-0.326-0.131-0.487-0.202c0.004-0.072,0.015-0.208,0.019-0.295
			c-0.026-0.328-0.215-1.508-0.376-1.672c-0.229,0.241-0.011,1.485,0.158,1.729c0.043,0.076,0.1,0.157,0.141,0.213
			c-0.159-0.069-0.316-0.142-0.473-0.219c-0.041-0.036-0.09-0.078-0.139-0.118c-0.228-0.121-1.946-1.255-2.563-1.557
			c0.203,0.483,2.064,1.655,2.453,1.693c0.042,0.012,0.094,0.023,0.145,0.033c0.172,0.086,0.347,0.168,0.522,0.247
			c-0.082,0.001-0.2,0.003-0.309,0.011c-0.293,0.058-2.064,0.269-2.416,0.433c0.406,0.214,2.155-0.045,2.472-0.25
			c0.094-0.047,0.237-0.127,0.311-0.168c0.163,0.072,0.326,0.141,0.49,0.206c-0.085,0.005-0.209,0.013-0.322,0.023
			c-0.304,0.073-2.115,0.372-2.461,0.565c0.431,0.209,2.219-0.145,2.534-0.372c0.095-0.054,0.238-0.146,0.312-0.192
			c0.162,0.064,0.324,0.125,0.487,0.183c-0.089,0.009-0.218,0.021-0.336,0.038c-0.313,0.087-2.165,0.476-2.504,0.698
			c0.458,0.206,2.286-0.25,2.596-0.499c0.095-0.062,0.239-0.163,0.311-0.215c0.185,0.064,0.37,0.125,0.557,0.182
			c-0.093,0.013-0.229,0.032-0.351,0.055c-0.325,0.104-2.22,0.597-2.552,0.854c0.486,0.196,2.357-0.372,2.664-0.648
			c0.095-0.067,0.237-0.182,0.309-0.24c0.189,0.057,0.379,0.109,0.569,0.157c-0.097,0.019-0.239,0.044-0.367,0.073
			c-0.33,0.123-2.273,0.724-2.598,1.016c0.517,0.188,2.43-0.5,2.733-0.802c0.095-0.077,0.236-0.204,0.307-0.268
			c0.199,0.05,0.397,0.096,0.597,0.137c-0.101,0.023-0.249,0.058-0.383,0.094c-0.34,0.142-2.329,0.859-2.645,1.188
			c0.548,0.175,2.506-0.64,2.804-0.972c0.095-0.085,0.234-0.225,0.304-0.294c0.227,0.046,0.455,0.086,0.683,0.122
			c-0.105,0.029-0.261,0.071-0.4,0.117c-0.353,0.166-2.392,1.019-2.695,1.39c0.585,0.159,2.592-0.805,2.883-1.168
			c0.094-0.094,0.231-0.25,0.299-0.326c0.239,0.035,0.479,0.066,0.72,0.09c-0.11,0.035-0.274,0.091-0.42,0.146
			c-0.364,0.191-2.454,1.191-2.746,1.604c0.625,0.142,2.682-0.984,2.964-1.38c0.092-0.105,0.227-0.276,0.292-0.36
			c0.252,0.023,0.505,0.042,0.757,0.054c-0.115,0.043-0.287,0.109-0.439,0.175c-0.375,0.221-2.517,1.381-2.794,1.837
			c0.669,0.119,2.775-1.183,3.047-1.612c0.09-0.116,0.221-0.305,0.284-0.396c0.307,0.013,0.614,0.018,0.921,0.012
			c0.004-0.03,0.01-0.072,0.011-0.124c-0.306,0.006-0.61,0.004-0.914-0.007C14.328,21.408,14.257,21.218,14.208,21.103z
			 M24.083,20.056c0.389-0.038,2.25-1.21,2.453-1.693c-0.617,0.302-2.336,1.436-2.564,1.557c-0.049,0.04-0.098,0.082-0.138,0.118
			c-0.156,0.077-0.314,0.149-0.473,0.219c0.041-0.056,0.098-0.137,0.141-0.213c0.168-0.243,0.387-1.487,0.158-1.729
			c-0.161,0.164-0.351,1.344-0.377,1.673c0.005,0.086,0.015,0.222,0.02,0.294c-0.161,0.071-0.323,0.139-0.486,0.202
			c0.046-0.057,0.111-0.14,0.162-0.219c0.191-0.249,0.489-1.53,0.258-1.785c-0.175,0.162-0.438,1.377-0.486,1.721
			c0,0.089,0.003,0.232,0.005,0.309c-0.161,0.061-0.322,0.121-0.484,0.177c0.053-0.059,0.125-0.142,0.183-0.223
			c0.215-0.254,0.594-1.57,0.361-1.838c-0.19,0.163-0.529,1.409-0.598,1.763c-0.004,0.092-0.008,0.243-0.012,0.32
			c-0.183,0.063-0.367,0.121-0.553,0.176c0.059-0.058,0.142-0.143,0.208-0.226c0.242-0.257,0.716-1.608,0.481-1.889
			c-0.206,0.16-0.634,1.434-0.728,1.8c-0.01,0.098-0.022,0.255-0.03,0.337c-0.188,0.054-0.376,0.105-0.565,0.153
			c0.066-0.06,0.158-0.146,0.233-0.229c0.268-0.256,0.846-1.641,0.609-1.936c-0.224,0.156-0.747,1.454-0.866,1.833
			c-0.017,0.102-0.038,0.266-0.051,0.35c-0.196,0.048-0.394,0.093-0.592,0.132c0.073-0.058,0.176-0.145,0.261-0.229
			c0.298-0.256,0.985-1.669,0.747-1.977c-0.241,0.15-0.868,1.467-1.014,1.859c-0.023,0.104-0.055,0.274-0.072,0.361
			c-0.226,0.045-0.452,0.084-0.679,0.117c0.081-0.056,0.198-0.143,0.292-0.228c0.133-0.118,0.463-0.552,0.674-0.981
			c0.22-0.433,0.321-0.86,0.235-1.031c-0.164,0.079-0.373,0.438-0.621,0.84c-0.237,0.4-0.512,0.844-0.569,1.038
			c-0.03,0.108-0.075,0.286-0.098,0.375c-0.238,0.034-0.476,0.063-0.715,0.087c0.09-0.056,0.22-0.141,0.327-0.225
			c0.149-0.116,0.526-0.553,0.775-0.988c0.26-0.438,0.394-0.874,0.311-1.053c-0.178,0.074-0.422,0.432-0.71,0.836
			c-0.277,0.401-0.598,0.85-0.669,1.05c-0.039,0.111-0.095,0.295-0.125,0.388c-0.25,0.022-0.501,0.039-0.752,0.05
			c0.1-0.053,0.245-0.135,0.365-0.219c0.166-0.111,0.593-0.547,0.885-0.986c0.304-0.44,0.471-0.884,0.395-1.07
			c-0.193,0.067-0.476,0.424-0.809,0.825c-0.32,0.4-0.69,0.85-0.777,1.054c-0.048,0.115-0.119,0.306-0.155,0.399
			c-0.305,0.011-0.609,0.013-0.914,0.007c0.001,0.052,0.006,0.094,0.011,0.124c0.307,0.006,0.613,0.001,0.92-0.012
			c0.063,0.091,0.193,0.279,0.284,0.396c0.272,0.43,2.378,1.731,3.047,1.612c-0.277-0.456-2.419-1.616-2.795-1.837
			c-0.152-0.065-0.324-0.132-0.439-0.175c0.253-0.012,0.506-0.03,0.757-0.054c0.066,0.084,0.2,0.255,0.292,0.36
			c0.283,0.396,2.338,1.521,2.964,1.38c-0.292-0.413-2.38-1.413-2.746-1.604c-0.146-0.055-0.309-0.11-0.419-0.146
			c0.24-0.023,0.48-0.055,0.72-0.09c0.067,0.076,0.206,0.232,0.299,0.326c0.292,0.363,2.298,1.327,2.882,1.168
			c-0.304-0.371-2.342-1.224-2.695-1.39c-0.139-0.046-0.295-0.088-0.401-0.117c0.229-0.036,0.457-0.076,0.684-0.122
			c0.069,0.069,0.21,0.209,0.304,0.294c0.299,0.332,2.256,1.146,2.804,0.972c-0.315-0.329-2.303-1.047-2.645-1.188
			c-0.133-0.036-0.281-0.07-0.382-0.094c0.2-0.041,0.398-0.087,0.596-0.137c0.071,0.063,0.212,0.19,0.308,0.268
			c0.303,0.302,2.217,0.989,2.732,0.802c-0.325-0.292-2.268-0.893-2.598-1.016c-0.128-0.029-0.27-0.055-0.366-0.073
			c0.19-0.048,0.379-0.101,0.569-0.157c0.071,0.059,0.214,0.173,0.309,0.24c0.307,0.276,2.177,0.845,2.664,0.648
			c-0.332-0.258-2.227-0.75-2.551-0.854c-0.124-0.022-0.258-0.042-0.351-0.055c0.187-0.057,0.372-0.117,0.556-0.182
			c0.073,0.052,0.216,0.153,0.312,0.215c0.309,0.249,2.137,0.705,2.595,0.499c-0.34-0.223-2.191-0.611-2.505-0.698
			c-0.118-0.018-0.247-0.029-0.335-0.038c0.163-0.058,0.326-0.118,0.487-0.183c0.073,0.047,0.217,0.139,0.312,0.192
			c0.315,0.228,2.104,0.581,2.534,0.372c-0.346-0.193-2.158-0.492-2.461-0.565c-0.114-0.011-0.237-0.019-0.323-0.023
			c0.165-0.065,0.328-0.134,0.49-0.206c0.073,0.041,0.217,0.121,0.312,0.168c0.316,0.205,2.065,0.464,2.472,0.25
			c-0.352-0.163-2.123-0.375-2.416-0.433c-0.109-0.007-0.227-0.01-0.309-0.011c0.175-0.079,0.349-0.161,0.522-0.247
			C23.988,20.079,24.041,20.067,24.083,20.056z"/>
	</g>
</g>
<g id="Shape_16">
	<g>
		<path fill-rule="evenodd" clip-rule="evenodd" fill="#DEDEDD" d="M12.83,17.813h1.107l0-0.017c-0.02-0.16-0.156-0.284-0.322-0.284
			h-0.822c-0.179,0-0.324,0.145-0.324,0.324v0.702c0,0.179,0.145,0.324,0.324,0.324h0.822c0.168,0,0.306-0.127,0.323-0.29v-0.018
			H12.83V17.813z M15.38,18.037h-0.86v-0.233h1.155c-0.017-0.163-0.155-0.291-0.323-0.291h-0.837c-0.179,0-0.324,0.145-0.324,0.324
			v0.2c0.016,0.165,0.154,0.292,0.322,0.292h0.859v0.241h-1.18c0.016,0.165,0.154,0.293,0.322,0.293h0.862
			c0.179,0,0.324-0.146,0.324-0.324v-0.21C15.686,18.166,15.548,18.037,15.38,18.037z M19.347,17.5h-0.843
			c-0.171,0-0.311,0.14-0.311,0.312v0.729c0,0.171,0.14,0.311,0.311,0.311h0.843c0.172,0,0.311-0.14,0.311-0.311v-0.729
			C19.658,17.64,19.519,17.5,19.347,17.5z M19.368,18.601h-0.884v-0.848h0.884V18.601z M16.997,18.201
			c0.065,0.081,0.166,0.088,0.194,0.088h0.45v0.295h-0.944v-0.822h1.232c-0.024-0.149-0.154-0.262-0.307-0.262H16.72
			c-0.171,0-0.31,0.141-0.31,0.312v0.729c0,0.171,0.139,0.311,0.31,0.311h0.902c0.161,0,0.293-0.119,0.309-0.275v-0.511h-1
			C16.934,18.09,16.948,18.138,16.997,18.201z"/>
	</g>
</g>
</svg>
