<?xml version="1.0" encoding="utf-8"?>
<!-- Generator: Adobe Illustrator 16.0.0, SVG Export Plug-In . SVG Version: 6.00 Build 0)  -->
<!DOCTYPE svg PUBLIC "-//W3C//DTD SVG 1.1//EN" "http://www.w3.org/Graphics/SVG/1.1/DTD/svg11.dtd">
<svg version="1.1" id="Layer_1" xmlns="http://www.w3.org/2000/svg" xmlns:xlink="http://www.w3.org/1999/xlink" x="0px" y="0px"
	 width="32px" height="32px" viewBox="0 0 32 32" enable-background="new 0 0 32 32" xml:space="preserve">
<g id="Shape_25_copy_18">
	<g>
		
			<rect x="5.077" y="5.189" transform="matrix(0.7071 -0.7071 0.7071 0.7071 -6.6776 15.961)" fill-rule="evenodd" clip-rule="evenodd" fill="#262218" width="21.704" height="21.705"/>
	</g>
</g>
<g id="Shape_25_copy_20">
	<g>
		
			<rect x="5.417" y="5.529" transform="matrix(0.7071 -0.7071 0.7071 0.7071 -6.6776 15.9617)" fill-rule="evenodd" clip-rule="evenodd" fill="#D2DE26" width="21.024" height="21.025"/>
	</g>
</g>
<g id="Shape_25_copy_18_1_">
	<g>
		
			<rect x="6.909" y="7" transform="matrix(0.7071 -0.7071 0.7071 0.7071 -6.6713 15.9761)" fill-rule="evenodd" clip-rule="evenodd" fill="#D1DF5B" width="18.083" height="18.084"/>
	</g>
</g>
<g id="Shape_25_copy_18_2_">
	<g>
		<polygon fill-rule="evenodd" clip-rule="evenodd" fill="#C1C5AC" points="15.95,3.396 3.124,16.041 28.776,16.041 		"/>
	</g>
</g>
<g id="Shape_49_copy_6">
	<g>
		<path fill-rule="evenodd" clip-rule="evenodd" fill="#888A6C" d="M27.841,15.121h-4.17l-0.023-0.897c0,0,0.595,0.001,0.8,0.001
			c0.308,0,0.09-0.158,0.091-0.157c-0.765-0.772-6.921-6.979-8.298-8.366c-0.081-0.083-0.146-0.146-0.191-0.194
			c-0.029-0.029-0.102-0.063-0.181,0.019c-0.023,0.024-0.052,0.052-0.084,0.085c-1.178,1.177-7.647,7.639-8.446,8.439
			c-0.005,0.003-0.163,0.162,0.048,0.162c0.251,0,0.776,0.012,0.776,0.012l-0.015,0.897H3.904l-0.841,0.803l4.042,4.425h17.391
			l4.307-4.336L27.841,15.121z"/>
	</g>
</g>
<g id="Shape_52_copy_3">
	<g>
		<circle fill-rule="evenodd" clip-rule="evenodd" fill="#302F2F" cx="15.977" cy="12.77" r="3.52"/>
	</g>
</g>
<g id="Shape_52_copy_3_1_">
	<g>
		<circle fill-rule="evenodd" clip-rule="evenodd" fill="#515151" cx="15.977" cy="12.77" r="2.005"/>
	</g>
</g>
<g id="Shape_53_copy_3">
	<g>
		<path fill-rule="evenodd" clip-rule="evenodd" fill="#C3C3C3" d="M17.245,10.887l0.179,0.138l0.544-0.707l-0.179-0.137
			L17.245,10.887z M13.919,15.208l0.179,0.138l0.545-0.708l-0.18-0.137L13.919,15.208z M18.994,11.886l-0.069-0.214l-0.849,0.277
			l0.069,0.213L18.994,11.886z M12.894,13.64l0.068,0.215l0.849-0.277l-0.069-0.215L12.894,13.64z M18.045,13.654l0.837,0.308
			l0.079-0.212l-0.839-0.307L18.045,13.654z M12.926,11.774l0.838,0.309l0.078-0.212l-0.838-0.307L12.926,11.774z M17.187,14.677
			l0.522,0.724l0.183-0.132l-0.522-0.724L17.187,14.677z M13.994,10.258l0.521,0.722l0.184-0.13l-0.523-0.724L13.994,10.258z
			 M15.83,10.481h0.226V9.591H15.83V10.481z M15.83,15.936h0.226v-0.894H15.83V15.936z"/>
	</g>
</g>
<g id="_x30_">
	<g>
		<path fill-rule="evenodd" clip-rule="evenodd" fill="#010101" d="M16.582,8.225c0.068-0.192,0.104-0.369,0.104-0.531
			c0-0.33-0.073-0.602-0.22-0.814c-0.147-0.214-0.325-0.32-0.53-0.32c-0.213,0-0.392,0.11-0.539,0.33
			c-0.147,0.222-0.221,0.484-0.221,0.79c0,0.311,0.075,0.576,0.226,0.797c0.148,0.221,0.325,0.331,0.526,0.331
			c0.122,0,0.244-0.048,0.366-0.146C16.417,8.562,16.511,8.416,16.582,8.225z M16.135,7.855c-0.007,0.412-0.027,0.654-0.063,0.729
			c-0.034,0.076-0.085,0.113-0.151,0.113c-0.045,0-0.08-0.014-0.106-0.043c-0.025-0.028-0.048-0.106-0.068-0.233
			c-0.019-0.126-0.029-0.349-0.029-0.664c0-0.413,0.015-0.698,0.041-0.855c0.028-0.157,0.086-0.236,0.174-0.236
			c0.073,0,0.127,0.06,0.161,0.18c0.034,0.121,0.051,0.305,0.051,0.553L16.135,7.855z M17.102,17.142
			c-0.032,0.041-0.05,0.087-0.05,0.138c0,0.065,0.021,0.122,0.064,0.17c0.042,0.048,0.103,0.072,0.181,0.072
			c0.079,0,0.143-0.026,0.191-0.078c0.05-0.052,0.073-0.112,0.073-0.181c0-0.119-0.058-0.227-0.17-0.324
			c-0.114-0.096-0.273-0.146-0.478-0.146c-0.242,0-0.443,0.069-0.604,0.206c-0.16,0.138-0.24,0.308-0.24,0.511
			c0,0.207,0.079,0.37,0.237,0.492c0.158,0.12,0.342,0.182,0.549,0.182c0.118,0,0.258-0.026,0.416-0.076l-0.02,0.481h-0.673
			c-0.144,0-0.238,0.029-0.285,0.088c-0.046,0.058-0.079,0.213-0.1,0.464h0.099c0.015-0.054,0.028-0.084,0.04-0.09
			c0.011-0.006,0.032-0.01,0.062-0.01h0.891c0.033,0,0.051-0.005,0.057-0.018c0.007-0.012,0.012-0.042,0.013-0.093l0.03-0.872
			c0.003-0.038,0.002-0.063-0.002-0.075c-0.003-0.012-0.013-0.017-0.031-0.017l-0.146,0.056c-0.061,0.021-0.129,0.033-0.206,0.033
			c-0.246,0-0.368-0.204-0.368-0.611c0-0.36,0.113-0.541,0.341-0.541c0.071,0,0.142,0.013,0.209,0.035
			c0.066,0.022,0.102,0.05,0.102,0.08c0,0.023-0.021,0.039-0.065,0.048C17.174,17.076,17.136,17.102,17.102,17.142z M15.027,16.793
			c-0.124,0-0.249,0.051-0.373,0.149c-0.123,0.101-0.221,0.248-0.291,0.443c-0.071,0.195-0.106,0.377-0.106,0.542
			c0,0.335,0.075,0.611,0.223,0.829c0.149,0.216,0.331,0.324,0.541,0.324c0.216,0,0.398-0.112,0.549-0.337
			c0.148-0.223,0.224-0.491,0.224-0.803c0-0.315-0.076-0.586-0.229-0.812C15.411,16.905,15.233,16.793,15.027,16.793z
			 M15.199,18.731c-0.026,0.16-0.085,0.24-0.175,0.24c-0.075,0-0.13-0.062-0.165-0.183c-0.035-0.122-0.052-0.31-0.052-0.563
			l0.009-0.464c0.008-0.419,0.028-0.666,0.063-0.743c0.036-0.077,0.087-0.116,0.154-0.116c0.046,0,0.082,0.016,0.109,0.045
			c0.025,0.029,0.049,0.108,0.067,0.236c0.021,0.13,0.029,0.355,0.029,0.677C15.24,18.282,15.228,18.571,15.199,18.731z"/>
	</g>
</g>
<g id="Shape_72_copy_5">
	<g>
		<polygon fill-rule="evenodd" clip-rule="evenodd" fill="#D1DF5B" points="24.2,19.526 23.705,20.384 23.211,19.526 22.716,20.384 
			22.222,19.526 21.727,20.384 21.232,19.526 20.738,20.384 20.243,19.526 19.766,20.354 19.288,19.526 18.793,20.384 
			18.299,19.526 17.805,20.384 17.31,19.526 16.815,20.384 16.32,19.526 15.844,20.354 15.365,19.526 14.888,20.354 14.41,19.526 
			13.915,20.384 13.421,19.526 12.927,20.384 12.432,19.526 11.938,20.384 11.442,19.526 10.948,20.384 10.454,19.526 9.977,20.354 
			9.499,19.526 9.003,20.384 8.509,19.526 8.014,20.384 7.521,19.526 7.133,20.199 7.52,20.637 7.869,20.637 8.16,20.637 
			8.857,20.637 9.149,20.637 9.813,20.637 10.139,20.637 10.803,20.637 11.094,20.637 11.791,20.637 12.083,20.637 12.781,20.637 
			13.072,20.637 13.77,20.637 14.062,20.637 14.725,20.637 15.052,20.637 15.68,20.637 16.006,20.637 16.669,20.637 16.961,20.637 
			17.658,20.637 17.949,20.637 18.648,20.637 18.939,20.637 19.603,20.637 19.929,20.637 20.592,20.637 20.883,20.637 
			21.582,20.637 21.873,20.637 22.57,20.637 22.862,20.637 23.559,20.637 23.851,20.637 24.268,20.637 24.628,20.269 		"/>
	</g>
</g>
<g id="Shape_25_copy_18_3_">
	<g>
		<path fill-rule="evenodd" clip-rule="evenodd" fill="#262218" d="M15.912,2.199L2.097,16.015l13.815,13.814l13.814-13.815
			L15.912,2.199z M3.324,16.031L15.928,3.427l12.604,12.604L15.928,28.636L3.324,16.031z"/>
	</g>
</g>
<g id="Shape_72">
	<g>
		<path fill-rule="evenodd" clip-rule="evenodd" fill="#E3E0D0" d="M2.905,16.589l0.138,0.138L3.5,16.27l-0.138-0.138L2.905,16.589z
			 M3.683,17.366l0.137,0.138l0.458-0.457L4.14,16.909L3.683,17.366z M4.444,18.129l0.138,0.137l0.457-0.458l-0.137-0.136
			L4.444,18.129z M5.223,18.906l0.138,0.138l0.456-0.458L5.68,18.449L5.223,18.906z M5.984,19.668l0.139,0.139l0.456-0.458
			l-0.138-0.138L5.984,19.668z M6.747,20.431l0.137,0.138l0.457-0.458l-0.137-0.137L6.747,20.431z M7.525,21.209l0.136,0.137
			l0.458-0.458l-0.137-0.137L7.525,21.209z M8.301,21.985l0.138,0.137l0.458-0.456L8.76,21.528L8.301,21.985z M9.063,22.747
			l0.138,0.138l0.457-0.456L9.521,22.29L9.063,22.747z M9.826,23.51l0.137,0.138l0.458-0.457l-0.137-0.138L9.826,23.51z
			 M10.604,24.288l0.137,0.137l0.457-0.457l-0.138-0.137L10.604,24.288z M11.381,25.065l0.138,0.137l0.457-0.458l-0.137-0.136
			L11.381,25.065z M12.144,25.827l0.138,0.138l0.457-0.458l-0.138-0.138L12.144,25.827z M12.906,26.59l0.137,0.137l0.458-0.457
			l-0.138-0.138L12.906,26.59z M13.685,27.367l0.136,0.138l0.457-0.458l-0.137-0.137L13.685,27.367z M14.461,28.145l0.137,0.137
			l0.458-0.457l-0.137-0.137L14.461,28.145z M15.223,28.907l0.138,0.137l0.458-0.457l-0.138-0.138L15.223,28.907z M28.355,16.27
			l0.457,0.457l0.138-0.138l-0.456-0.457L28.355,16.27z M27.578,17.046l0.458,0.458l0.137-0.138l-0.457-0.457L27.578,17.046z
			 M26.816,17.808l0.458,0.458l0.137-0.137l-0.458-0.457L26.816,17.808z M26.039,18.586l0.457,0.458l0.138-0.138l-0.458-0.457
			L26.039,18.586z M25.276,19.349l0.457,0.458l0.139-0.139l-0.458-0.457L25.276,19.349z M24.515,20.11l0.457,0.458l0.138-0.138
			l-0.458-0.457L24.515,20.11z M23.737,20.888l0.457,0.457l0.137-0.136l-0.457-0.458L23.737,20.888z M22.96,21.666l0.457,0.456
			l0.138-0.137l-0.458-0.457L22.96,21.666z M22.197,22.429l0.457,0.456l0.138-0.138l-0.457-0.457L22.197,22.429z M21.435,23.19
			l0.458,0.457l0.137-0.138l-0.457-0.457L21.435,23.19z M20.657,23.968l0.457,0.457l0.137-0.137l-0.456-0.457L20.657,23.968z
			 M19.88,24.744l0.458,0.458l0.137-0.137l-0.458-0.457L19.88,24.744z M19.117,25.507l0.458,0.458l0.137-0.138l-0.457-0.458
			L19.117,25.507z M18.354,26.269l0.459,0.458l0.137-0.137l-0.458-0.458L18.354,26.269z M17.578,27.047l0.457,0.458l0.137-0.138
			l-0.457-0.457L17.578,27.047z M16.801,27.824l0.457,0.457l0.137-0.137l-0.457-0.457L16.801,27.824z M16.038,28.587l0.457,0.457
			l0.138-0.137l-0.457-0.458L16.038,28.587z M2.905,15.443l0.457,0.459L3.5,15.765l-0.457-0.457L2.905,15.443z M3.683,14.668
			l0.457,0.457l0.138-0.139L3.819,14.53L3.683,14.668z M4.444,13.905l0.458,0.457l0.137-0.138l-0.457-0.457L4.444,13.905z
			 M5.223,13.127l0.457,0.457l0.137-0.137L5.36,12.989L5.223,13.127z M5.984,12.364l0.457,0.458l0.138-0.138l-0.456-0.457
			L5.984,12.364z M6.747,11.603l0.457,0.457l0.137-0.137l-0.457-0.458L6.747,11.603z M7.525,10.825l0.457,0.457l0.137-0.137
			l-0.458-0.458L7.525,10.825z M8.301,10.047l0.459,0.458l0.137-0.137L8.438,9.909L8.301,10.047z M9.063,9.285l0.458,0.457
			l0.137-0.137L9.201,9.148L9.063,9.285z M9.826,8.523l0.458,0.457l0.137-0.138L9.963,8.386L9.826,8.523z M10.604,7.746l0.456,0.457
			l0.138-0.138l-0.457-0.457L10.604,7.746z M11.381,6.969l0.458,0.456l0.137-0.137L11.519,6.83L11.381,6.969z M12.144,6.206
			l0.457,0.456l0.138-0.137l-0.457-0.457L12.144,6.206z M12.906,5.444L13.363,5.9l0.138-0.138l-0.458-0.456L12.906,5.444z
			 M13.685,4.666l0.456,0.457l0.137-0.137L13.82,4.528L13.685,4.666z M14.461,3.889l0.458,0.458l0.137-0.139l-0.458-0.457
			L14.461,3.889z M15.223,3.126l0.458,0.458l0.138-0.138L15.36,2.989L15.223,3.126z M28.95,15.443l-0.138-0.136l-0.457,0.457
			l0.139,0.138L28.95,15.443z M27.578,14.986l0.138,0.138l0.457-0.457l-0.137-0.137L27.578,14.986z M26.816,14.224l0.137,0.138
			l0.458-0.456l-0.137-0.138L26.816,14.224z M26.039,13.447l0.137,0.137l0.458-0.457l-0.138-0.138L26.039,13.447z M25.276,12.685
			l0.138,0.138l0.458-0.458l-0.139-0.137L25.276,12.685z M24.515,11.923l0.137,0.137l0.458-0.457l-0.138-0.138L24.515,11.923z
			 M23.737,11.146l0.137,0.137l0.457-0.457l-0.137-0.138L23.737,11.146z M22.96,10.368l0.137,0.137l0.458-0.458l-0.138-0.138
			L22.96,10.368z M22.197,9.605l0.138,0.137l0.457-0.458l-0.138-0.136L22.197,9.605z M21.435,8.843l0.138,0.138l0.457-0.458
			l-0.137-0.137L21.435,8.843z M20.657,8.065l0.138,0.138l0.456-0.457l-0.137-0.138L20.657,8.065z M19.88,7.288l0.137,0.137
			l0.458-0.456L20.338,6.83L19.88,7.288z M19.117,6.525l0.138,0.137l0.457-0.456l-0.137-0.138L19.117,6.525z M18.354,5.763
			L18.492,5.9l0.458-0.456l-0.137-0.138L18.354,5.763z M17.578,4.986l0.137,0.137l0.457-0.457l-0.137-0.138L17.578,4.986z
			 M16.801,4.208l0.137,0.139l0.457-0.458l-0.137-0.138L16.801,4.208z M16.038,3.446l0.138,0.138l0.457-0.458l-0.138-0.137
			L16.038,3.446z"/>
	</g>
</g>
<g id="safehouse">
	<g>
		<path fill-rule="evenodd" clip-rule="evenodd" fill="#262218" d="M16.188,26.474c-0.083-0.015-0.161-0.013-0.233,0.006
			s-0.164,0.051-0.271,0.098c-0.107,0.044-0.182,0.067-0.221,0.067c-0.04,0-0.071-0.01-0.093-0.033
			c-0.028-0.028-0.038-0.064-0.027-0.109c0.009-0.045,0.038-0.091,0.085-0.138c0.082-0.081,0.226-0.156,0.432-0.225l-0.226-0.226
			c-0.182,0.063-0.328,0.152-0.439,0.263c-0.121,0.119-0.186,0.246-0.197,0.378c-0.011,0.134,0.033,0.249,0.131,0.348
			c0.078,0.076,0.157,0.123,0.238,0.139c0.082,0.017,0.158,0.015,0.23-0.005c0.071-0.019,0.161-0.052,0.269-0.099
			c0.109-0.047,0.184-0.069,0.226-0.068s0.075,0.014,0.1,0.038c0.069,0.07,0.055,0.156-0.048,0.259
			c-0.059,0.061-0.128,0.104-0.204,0.135c-0.077,0.029-0.176,0.053-0.298,0.07l0.248,0.248c0.195-0.047,0.357-0.134,0.485-0.263
			c0.119-0.119,0.185-0.247,0.193-0.384c0.011-0.136-0.038-0.257-0.145-0.364C16.348,26.534,16.27,26.49,16.188,26.474z
			 M16.356,25.045l0.731,1.568l0.272-0.273l-0.149-0.305l0.465-0.465l0.313,0.143l0.277-0.277l-1.61-0.691L16.356,25.045z
			 M17.399,25.445l-0.32,0.32l-0.294-0.6L17.399,25.445z M18.902,23.855l-0.212-0.211l-0.455,0.456l-0.258-0.257l0.456-0.455
			l-0.21-0.212l-0.715,0.714l1.15,1.151l0.259-0.259l-0.472-0.472L18.902,23.855z M19.902,23.378l-0.276-0.277l0.472-0.472
			l-0.211-0.212l-0.473,0.474l-0.241-0.241l0.495-0.496l-0.209-0.211l-0.754,0.754l1.149,1.15l0.765-0.765l-0.212-0.21
			L19.902,23.378z M20.715,20.684l0.463,0.463l-0.517,0.517L20.199,21.2l-0.259,0.259l1.15,1.15l0.259-0.258l-0.466-0.466
			l0.517-0.517l0.467,0.466l0.257-0.258l-1.15-1.151L20.715,20.684z M22.621,19.104c-0.228-0.009-0.43,0.075-0.606,0.251
			c-0.177,0.178-0.261,0.38-0.253,0.607s0.092,0.421,0.248,0.578c0.162,0.16,0.354,0.244,0.582,0.25
			c0.227,0.005,0.428-0.079,0.603-0.255c0.174-0.174,0.258-0.374,0.251-0.603c-0.005-0.228-0.088-0.421-0.247-0.58
			C23.041,19.196,22.85,19.113,22.621,19.104z M22.956,20.297c-0.1,0.1-0.211,0.146-0.335,0.142
			c-0.125-0.005-0.239-0.06-0.344-0.163c-0.104-0.106-0.161-0.222-0.164-0.346c-0.005-0.124,0.042-0.236,0.142-0.334
			c0.098-0.099,0.208-0.146,0.333-0.141c0.124,0.005,0.238,0.06,0.344,0.165c0.105,0.104,0.16,0.219,0.164,0.343
			C23.101,20.089,23.054,20.2,22.956,20.297z M24.11,17.29l-0.259,0.258l0.643,0.643c0.091,0.091,0.137,0.184,0.139,0.281
			c0.001,0.097-0.037,0.186-0.117,0.266c-0.076,0.077-0.163,0.114-0.258,0.113c-0.096-0.001-0.185-0.041-0.264-0.122l-0.66-0.661
			l-0.26,0.259l0.654,0.655c0.165,0.165,0.337,0.245,0.515,0.242c0.18-0.003,0.351-0.087,0.515-0.251
			c0.166-0.166,0.251-0.338,0.254-0.514c0.002-0.176-0.08-0.348-0.248-0.516L24.11,17.29z M25.939,16.723
			c-0.082-0.016-0.159-0.014-0.233,0.006c-0.072,0.019-0.162,0.051-0.271,0.096c-0.108,0.046-0.183,0.068-0.221,0.068
			c-0.04,0.001-0.071-0.012-0.093-0.032c-0.029-0.029-0.038-0.066-0.028-0.11c0.011-0.045,0.039-0.091,0.085-0.137
			c0.082-0.082,0.226-0.157,0.433-0.227l-0.225-0.225c-0.184,0.063-0.33,0.151-0.441,0.262c-0.118,0.121-0.186,0.248-0.196,0.38
			s0.033,0.247,0.133,0.347c0.075,0.076,0.154,0.122,0.236,0.139c0.081,0.015,0.158,0.015,0.229-0.004
			c0.072-0.019,0.162-0.053,0.271-0.1s0.183-0.068,0.225-0.067c0.041,0.001,0.074,0.013,0.099,0.037
			c0.071,0.071,0.056,0.157-0.046,0.259c-0.06,0.059-0.128,0.104-0.205,0.135c-0.077,0.029-0.177,0.053-0.298,0.07l0.248,0.248
			c0.195-0.046,0.356-0.135,0.486-0.263c0.118-0.119,0.183-0.247,0.193-0.383c0.009-0.137-0.039-0.258-0.146-0.364
			C26.101,16.783,26.021,16.737,25.939,16.723z M27.508,15.772l-0.506,0.506l-0.277-0.277l0.473-0.472l-0.211-0.211l-0.473,0.473
			l-0.242-0.241l0.497-0.496l-0.211-0.211l-0.754,0.755l1.149,1.15l0.765-0.766L27.508,15.772z"/>
	</g>
</g>
<g id="Shape_16_copy_4">
	<g>
		<path fill-rule="evenodd" clip-rule="evenodd" fill="#C1C5AC" d="M5.118,15.81H4.563c-0.121,0-0.219,0.098-0.219,0.219v0.475
			c0,0.12,0.098,0.219,0.219,0.219h0.555c0.113,0,0.207-0.086,0.218-0.195v-0.013H4.588v-0.5h0.748v-0.013
			C5.322,15.894,5.229,15.81,5.118,15.81z M6.309,16.164h-0.58v-0.158h0.78c-0.013-0.11-0.105-0.196-0.219-0.196H5.726
			c-0.121,0-0.22,0.098-0.22,0.219v0.136c0.011,0.11,0.104,0.198,0.218,0.198l0.58-0.001v0.163H5.507
			c0.011,0.11,0.104,0.197,0.219,0.197h0.582c0.12,0,0.218-0.099,0.218-0.219v-0.142C6.516,16.251,6.422,16.164,6.309,16.164z
			 M8.987,15.802H8.418c-0.116,0-0.209,0.094-0.209,0.21v0.492c0,0.115,0.093,0.21,0.209,0.21h0.569c0.115,0,0.21-0.095,0.21-0.21
			v-0.492C9.197,15.896,9.103,15.802,8.987,15.802z M9.002,16.545H8.404v-0.573h0.598V16.545z M7.4,16.274
			c0.045,0.056,0.111,0.061,0.132,0.061h0.304v0.198H7.197v-0.556h0.832c-0.016-0.1-0.104-0.176-0.208-0.176H7.214
			c-0.115,0-0.21,0.094-0.21,0.21v0.492c0,0.115,0.095,0.21,0.21,0.21h0.607c0.109,0,0.199-0.081,0.209-0.186v-0.347H7.356
			C7.358,16.199,7.367,16.232,7.4,16.274z"/>
	</g>
</g>
</svg>
