<?xml version="1.0" encoding="utf-8"?>
<!-- Generator: Adobe Illustrator 16.0.0, SVG Export Plug-In . SVG Version: 6.00 Build 0)  -->
<!DOCTYPE svg PUBLIC "-//W3C//DTD SVG 1.1//EN" "http://www.w3.org/Graphics/SVG/1.1/DTD/svg11.dtd">
<svg version="1.1" id="Layer_1" xmlns="http://www.w3.org/2000/svg" xmlns:xlink="http://www.w3.org/1999/xlink" x="0px" y="0px"
	 width="32px" height="32px" viewBox="0 0 32 32" enable-background="new 0 0 32 32" xml:space="preserve">
<g>
	<path fill="#B6BAAE" d="M31.237,15.23L16.748,0.737c-0.224-0.224-0.521-0.347-0.836-0.347S15.3,0.514,15.076,0.737L0.587,15.23
		c-0.223,0.224-0.346,0.52-0.346,0.836c0,0.317,0.123,0.613,0.346,0.837l14.489,14.493c0.224,0.224,0.521,0.347,0.836,0.347
		s0.612-0.123,0.836-0.347l14.489-14.493C31.698,16.441,31.698,15.692,31.237,15.23z M30.701,16.591L16.43,30.861
		c-0.138,0.138-0.322,0.215-0.518,0.215c-0.196,0-0.379-0.077-0.518-0.215L1.123,16.591c-0.138-0.139-0.214-0.322-0.214-0.519
		s0.076-0.38,0.214-0.518L15.395,1.283c0.138-0.139,0.322-0.214,0.518-0.214c0.195,0,0.379,0.075,0.518,0.214l14.271,14.271
		C30.986,15.84,30.986,16.305,30.701,16.591z"/>
</g>
<path fill-rule="evenodd" clip-rule="evenodd" fill="#E8E8E8" d="M30.214,16.715L16.516,30.411c-0.355,0.356-0.932,0.356-1.287,0
	L1.532,16.715c-0.356-0.356-0.356-0.932,0-1.287L15.229,1.731c0.355-0.355,0.932-0.355,1.287,0l13.698,13.697
	C30.568,15.783,30.568,16.359,30.214,16.715z"/>
<path fill="#F2F2F2" d="M15.873,30.726c-0.256,0-0.497-0.1-0.678-0.281L1.498,16.75c-0.182-0.182-0.281-0.423-0.281-0.679
	c0-0.255,0.1-0.496,0.281-0.675L15.195,1.697c0.181-0.181,0.421-0.281,0.677-0.281s0.497,0.1,0.677,0.281l13.697,13.698
	c0.18,0.18,0.279,0.42,0.279,0.675c0.001,0.256-0.099,0.498-0.279,0.679L16.55,30.445C16.369,30.626,16.128,30.726,15.873,30.726z
	 M15.873,1.513c-0.23,0-0.447,0.089-0.61,0.252L1.566,15.462c-0.163,0.163-0.252,0.377-0.252,0.608c0,0.231,0.089,0.448,0.252,0.611
	l13.697,13.696c0.163,0.163,0.379,0.253,0.61,0.253s0.447-0.09,0.61-0.253L30.18,16.682c0.162-0.163,0.251-0.38,0.251-0.611
	c0-0.23-0.09-0.445-0.251-0.608L16.482,1.765C16.319,1.603,16.103,1.513,15.873,1.513z"/>
<g>
	<path fill-rule="evenodd" clip-rule="evenodd" fill="#9BCB3C" d="M15.894,28.65c-0.185,0-0.359-0.072-0.489-0.203L3.476,16.518
		c-0.131-0.13-0.203-0.304-0.203-0.489c0-0.186,0.072-0.359,0.203-0.489l0.987-0.987l3.196,0.027l-1.38,1.38
		c-0.039,0.039-0.039,0.103,0,0.142l9.526,9.525c0.02,0.02,0.045,0.029,0.071,0.029s0.051-0.01,0.071-0.029l9.525-9.525
		c0.039-0.039,0.039-0.103,0-0.142l-1.377-1.378h3.304l0.913,0.958c0.132,0.13,0.203,0.304,0.203,0.489
		c0,0.185-0.071,0.358-0.202,0.489L16.383,28.447C16.253,28.578,16.079,28.65,15.894,28.65z M9.268,9.747l6.137-6.137
		c0.13-0.13,0.304-0.202,0.489-0.202s0.359,0.072,0.489,0.202l6.136,6.135h-3.304l-3.27-3.31c-0.02-0.02-0.045-0.029-0.071-0.029
		s-0.051,0.01-0.071,0.029l-3.34,3.339L9.268,9.747z"/>
	<path fill="#D4E6AA" d="M15.894,3.508c0.158,0,0.307,0.061,0.418,0.173l5.965,5.964h-2.979l-3.282-3.281
		c-0.039-0.039-0.09-0.059-0.142-0.059s-0.103,0.02-0.142,0.059l-3.282,3.281h-2.94l5.963-5.964
		C15.587,3.569,15.736,3.508,15.894,3.508 M27.314,14.682l0.927,0.929c0.111,0.111,0.173,0.26,0.173,0.418
		c0,0.158-0.062,0.307-0.174,0.418L16.313,28.376c-0.112,0.112-0.26,0.173-0.418,0.173s-0.307-0.062-0.418-0.174L3.546,16.447
		c-0.112-0.111-0.173-0.26-0.173-0.418c0-0.159,0.062-0.307,0.174-0.419l0.928-0.928h2.94l-1.207,1.207
		c-0.078,0.078-0.078,0.205,0,0.283l9.526,9.525c0.039,0.039,0.09,0.059,0.142,0.059s0.103-0.02,0.142-0.059l9.525-9.525
		c0.078-0.078,0.078-0.205,0-0.283l-1.207-1.207H27.314 M15.894,3.308c-0.203,0-0.406,0.077-0.56,0.231L9.029,9.845h3.506
		l3.34-3.339l3.341,3.339h3.545L16.454,3.54C16.3,3.385,16.097,3.308,15.894,3.308L15.894,3.308z M27.397,14.482h-3.545l1.548,1.549
		l-9.525,9.525l-9.526-9.525l1.548-1.549H4.392l-0.986,0.987c-0.31,0.308-0.31,0.812,0,1.12l11.929,11.929
		c0.154,0.155,0.357,0.232,0.56,0.232s0.406-0.078,0.56-0.232l11.928-11.929c0.31-0.308,0.31-0.812,0-1.12L27.397,14.482
		L27.397,14.482z"/>
</g>
<g>
	<polygon fill="#1D1D22" points="14.863,24.168 15.283,24.587 15.283,17.732 14.863,17.732 	"/>
	<polygon fill="#1D1D22" points="17.729,23.339 17.881,23.19 17.881,17.714 17.729,17.714 	"/>
	<polygon fill="#1D1D22" points="18.046,23.024 18.467,22.604 18.467,17.732 18.046,17.732 	"/>
	<polygon fill="#1D1D22" points="12.166,21.471 12.315,21.621 12.315,17.714 12.166,17.714 	"/>
	<polygon fill="#1D1D22" points="10.399,19.704 10.819,20.125 10.819,17.714 10.399,17.714 	"/>
	<polygon fill="#1D1D22" points="11.089,20.394 11.51,20.815 11.51,17.714 11.089,17.714 	"/>
	<polygon fill="#1D1D22" points="11.745,21.05 11.895,21.2 11.895,17.714 11.745,17.714 	"/>
	<polygon fill="#1D1D22" points="8.717,18.022 9.138,18.443 9.138,17.714 8.717,17.714 	"/>
	<polygon fill="#1D1D22" points="12.526,21.832 12.676,21.981 12.676,17.714 12.526,17.714 	"/>
	<polygon fill="#1D1D22" points="13.642,22.947 14.062,23.367 14.062,17.714 13.642,17.714 	"/>
	<polygon fill="#1D1D22" points="14.263,23.567 14.682,23.987 14.682,17.714 14.263,17.714 	"/>
	<polygon fill="#1D1D22" points="9.463,18.769 9.613,18.918 9.613,17.714 9.463,17.714 	"/>
	<polygon fill="#1D1D22" points="20.092,20.978 20.243,20.827 20.243,17.714 20.092,17.714 	"/>
	<polygon fill="#1D1D22" points="22.739,18.331 23.16,17.91 23.16,17.732 22.739,17.732 	"/>
	<polygon fill="#1D1D22" points="20.412,20.657 20.562,20.507 20.562,17.714 20.412,17.714 	"/>
	<polygon fill="#1D1D22" points="20.728,20.341 21.147,19.922 21.147,17.732 20.728,17.732 	"/>
	<polygon fill="#1D1D22" points="22.344,18.726 22.494,18.576 22.494,17.714 22.344,17.714 	"/>
	<polygon fill="#1D1D22" points="18.686,22.385 19.106,21.964 19.106,17.732 18.686,17.732 	"/>
	<polygon fill="#1D1D22" points="21.628,19.442 22.048,19.021 22.048,17.732 21.628,17.732 	"/>
	<path fill="#1D1D22" d="M9.045,13.056c0.117-0.112,0.174-0.243,0.174-0.397c0-0.113-0.036-0.216-0.106-0.311
		c-0.071-0.095-0.178-0.159-0.32-0.192c0.246-0.076,0.37-0.227,0.37-0.454c0-0.112-0.029-0.208-0.084-0.285
		c-0.056-0.079-0.126-0.138-0.213-0.18c-0.086-0.042-0.215-0.064-0.386-0.064H7.524v2.049h0.955
		C8.74,13.223,8.929,13.167,9.045,13.056z M8.003,11.536h0.329c0.1,0,0.167,0.005,0.201,0.013c0.034,0.01,0.065,0.034,0.094,0.071
		s0.042,0.083,0.042,0.134c0,0.048-0.016,0.098-0.051,0.15c-0.035,0.053-0.119,0.08-0.252,0.08H8.003V11.536z M8.003,12.843V12.35
		h0.389c0.116,0,0.199,0.024,0.25,0.072c0.05,0.048,0.074,0.105,0.074,0.171c0,0.08-0.026,0.141-0.078,0.186
		c-0.052,0.043-0.141,0.065-0.267,0.065H8.003z"/>
	<path fill="#1D1D22" d="M10.424,12.801h0.663l0.126,0.422h0.516l-0.641-2.049h-0.556l-0.657,2.049h0.421L10.424,12.801z
		 M10.759,11.704l0.214,0.718h-0.434L10.759,11.704z"/>
	<path fill="#1D1D22" d="M13.811,12.988c0.03,0.079,0.053,0.157,0.069,0.234h0.219v-1.096h-0.842v0.383h0.386
		c0,0.123-0.034,0.212-0.101,0.269c-0.068,0.055-0.145,0.083-0.231,0.083c-0.133,0-0.236-0.055-0.308-0.167
		c-0.072-0.111-0.108-0.271-0.108-0.482c0-0.218,0.034-0.386,0.1-0.503c0.067-0.117,0.165-0.177,0.295-0.177
		c0.198,0,0.316,0.124,0.353,0.373l0.456-0.061c-0.031-0.212-0.116-0.383-0.256-0.511c-0.14-0.129-0.324-0.193-0.553-0.193
		c-0.272,0-0.487,0.1-0.646,0.298c-0.158,0.198-0.237,0.459-0.237,0.786c0,0.303,0.074,0.549,0.223,0.741
		c0.148,0.192,0.356,0.287,0.624,0.287C13.479,13.254,13.665,13.166,13.811,12.988z"/>
	<path fill="#1D1D22" d="M15.817,11.534c0.199,0,0.316,0.124,0.354,0.373l0.456-0.061c-0.03-0.212-0.116-0.383-0.256-0.511
		c-0.141-0.129-0.325-0.193-0.553-0.193c-0.271,0-0.487,0.1-0.646,0.298c-0.158,0.198-0.238,0.459-0.238,0.786
		c0,0.303,0.074,0.549,0.224,0.741c0.148,0.192,0.356,0.287,0.623,0.287c0.227,0,0.413-0.088,0.559-0.266
		c0.03,0.079,0.053,0.157,0.068,0.234h0.219v-1.096h-0.842v0.383h0.386c0,0.123-0.034,0.212-0.101,0.269
		c-0.068,0.055-0.145,0.083-0.231,0.083c-0.133,0-0.235-0.055-0.308-0.167c-0.072-0.111-0.108-0.271-0.108-0.482
		c0-0.218,0.033-0.386,0.099-0.503C15.589,11.594,15.688,11.534,15.817,11.534z"/>
	<path fill="#1D1D22" d="M17.902,12.801h0.663l0.125,0.422h0.516l-0.64-2.049H18.01l-0.656,2.049h0.421L17.902,12.801z
		 M18.236,11.704l0.215,0.718h-0.434L18.236,11.704z"/>
	<path fill="#1D1D22" d="M20.768,11.534c0.198,0,0.315,0.124,0.353,0.373l0.456-0.061c-0.03-0.212-0.116-0.383-0.257-0.511
		c-0.14-0.129-0.323-0.193-0.552-0.193c-0.273,0-0.487,0.1-0.647,0.298c-0.157,0.198-0.237,0.459-0.237,0.786
		c0,0.303,0.074,0.549,0.224,0.741c0.147,0.192,0.355,0.287,0.624,0.287c0.227,0,0.412-0.088,0.559-0.266
		c0.029,0.079,0.053,0.157,0.067,0.234h0.22v-1.096h-0.843v0.383h0.387c0,0.123-0.034,0.212-0.102,0.269
		c-0.067,0.055-0.145,0.083-0.229,0.083c-0.134,0-0.236-0.055-0.309-0.167c-0.072-0.111-0.107-0.271-0.107-0.482
		c0-0.218,0.033-0.386,0.099-0.503C20.539,11.594,20.637,11.534,20.768,11.534z"/>
	<polygon fill="#1D1D22" points="23.971,11.564 23.971,11.173 22.509,11.173 22.509,13.223 23.971,13.223 23.971,12.818 
		22.997,12.818 22.997,12.37 23.763,12.37 23.763,11.985 22.997,11.985 22.997,11.564 	"/>
	<polygon fill="#1D1D22" points="8.356,15.184 8.467,14.984 8.578,15.184 8.728,15.184 8.557,14.889 8.707,14.633 8.587,14.633 
		8.493,14.8 8.404,14.633 8.253,14.633 8.405,14.891 8.234,15.184 	"/>
	<polygon fill="#1D1D22" points="9.353,14.633 9.232,14.633 9.138,14.8 9.048,14.633 8.898,14.633 9.049,14.891 8.879,15.184 
		9.001,15.184 9.112,14.984 9.223,15.184 9.372,15.184 9.202,14.889 	"/>
	<polygon fill="#1D1D22" points="9.998,14.633 9.877,14.633 9.783,14.8 9.694,14.633 9.543,14.633 9.694,14.891 9.523,15.184 
		9.646,15.184 9.757,14.984 9.868,15.184 10.018,15.184 9.847,14.889 	"/>
	<polygon fill="#1D1D22" points="10.292,15.184 10.402,14.984 10.512,15.184 10.663,15.184 10.492,14.889 10.642,14.633 
		10.522,14.633 10.428,14.8 10.339,14.633 10.188,14.633 10.34,14.891 10.169,15.184 	"/>
	<polygon fill="#1D1D22" points="10.936,15.184 11.047,14.984 11.157,15.184 11.308,15.184 11.137,14.889 11.288,14.633 
		11.167,14.633 11.073,14.8 10.983,14.633 10.833,14.633 10.984,14.891 10.814,15.184 	"/>
	<polygon fill="#1D1D22" points="11.933,14.633 11.812,14.633 11.718,14.8 11.629,14.633 11.479,14.633 11.63,14.891 11.459,15.184 
		11.581,15.184 11.692,14.984 11.803,15.184 11.952,15.184 11.781,14.889 	"/>
	<polygon fill="#1D1D22" points="12.226,15.184 12.337,14.984 12.447,15.184 12.598,15.184 12.427,14.889 12.578,14.633 
		12.457,14.633 12.363,14.8 12.274,14.633 12.123,14.633 12.274,14.891 12.104,15.184 	"/>
	<polygon fill="#1D1D22" points="13.223,14.633 13.102,14.633 13.008,14.8 12.918,14.633 12.769,14.633 12.92,14.891 12.749,15.184 
		12.872,15.184 12.981,14.984 13.093,15.184 13.242,15.184 13.072,14.889 	"/>
	<polygon fill="#1D1D22" points="13.516,15.184 13.627,14.984 13.738,15.184 13.887,15.184 13.717,14.889 13.868,14.633 
		13.747,14.633 13.653,14.8 13.563,14.633 13.413,14.633 13.565,14.891 13.394,15.184 	"/>
	<polygon fill="#1D1D22" points="14.21,14.891 14.039,15.184 14.161,15.184 14.272,14.984 14.383,15.184 14.532,15.184 
		14.362,14.889 14.512,14.633 14.392,14.633 14.298,14.8 14.209,14.633 14.059,14.633 	"/>
	<polygon fill="#1D1D22" points="14.807,15.184 14.917,14.984 15.028,15.184 15.177,15.184 15.007,14.889 15.158,14.633 
		15.037,14.633 14.943,14.8 14.854,14.633 14.704,14.633 14.855,14.891 14.684,15.184 	"/>
	<polygon fill="#1D1D22" points="8.557,15.683 8.707,15.426 8.587,15.426 8.493,15.593 8.404,15.426 8.253,15.426 8.405,15.684 
		8.234,15.978 8.356,15.978 8.467,15.777 8.578,15.978 8.728,15.978 	"/>
	<polygon fill="#1D1D22" points="9.353,15.426 9.232,15.426 9.138,15.593 9.048,15.426 8.898,15.426 9.049,15.684 8.879,15.978 
		9.001,15.978 9.112,15.777 9.223,15.978 9.372,15.978 9.202,15.683 	"/>
	<polygon fill="#1D1D22" points="9.998,15.426 9.877,15.426 9.783,15.593 9.694,15.426 9.543,15.426 9.694,15.684 9.523,15.978 
		9.646,15.978 9.757,15.777 9.868,15.978 10.018,15.978 9.847,15.683 	"/>
	<polygon fill="#1D1D22" points="10.512,15.978 10.663,15.978 10.492,15.683 10.642,15.426 10.522,15.426 10.428,15.593 
		10.339,15.426 10.188,15.426 10.34,15.684 10.169,15.978 10.292,15.978 10.402,15.777 	"/>
	<polygon fill="#1D1D22" points="11.308,15.978 11.137,15.683 11.288,15.426 11.167,15.426 11.073,15.593 10.983,15.426 
		10.833,15.426 10.984,15.684 10.814,15.978 10.936,15.978 11.047,15.777 11.157,15.978 	"/>
	<polygon fill="#1D1D22" points="11.933,15.426 11.812,15.426 11.718,15.593 11.629,15.426 11.479,15.426 11.63,15.684 
		11.459,15.978 11.581,15.978 11.692,15.777 11.803,15.978 11.952,15.978 11.781,15.683 	"/>
	<polygon fill="#1D1D22" points="12.427,15.683 12.578,15.426 12.457,15.426 12.363,15.593 12.274,15.426 12.123,15.426 
		12.274,15.684 12.104,15.978 12.226,15.978 12.337,15.777 12.447,15.978 12.598,15.978 	"/>
	<polygon fill="#1D1D22" points="13.223,15.426 13.102,15.426 13.008,15.593 12.918,15.426 12.769,15.426 12.92,15.684 
		12.749,15.978 12.872,15.978 12.981,15.777 13.093,15.978 13.242,15.978 13.072,15.683 	"/>
	<polygon fill="#1D1D22" points="13.887,15.978 13.717,15.683 13.868,15.426 13.747,15.426 13.653,15.593 13.563,15.426 
		13.413,15.426 13.565,15.684 13.394,15.978 13.516,15.978 13.627,15.777 13.738,15.978 	"/>
	<polygon fill="#1D1D22" points="14.383,15.978 14.532,15.978 14.362,15.683 14.512,15.426 14.392,15.426 14.298,15.593 
		14.209,15.426 14.059,15.426 14.21,15.684 14.039,15.978 14.161,15.978 14.272,15.777 	"/>
	<polygon fill="#1D1D22" points="15.028,15.978 15.177,15.978 15.007,15.683 15.158,15.426 15.037,15.426 14.943,15.593 
		14.854,15.426 14.704,15.426 14.855,15.684 14.684,15.978 14.807,15.978 14.917,15.777 	"/>
	<path fill="#1D1D22" d="M16.867,14.841h0.292c-0.06,0.076-0.108,0.162-0.144,0.258c-0.037,0.097-0.057,0.191-0.059,0.284h0.124
		c0-0.06,0.01-0.127,0.03-0.201c0.018-0.076,0.047-0.148,0.086-0.214c0.036-0.066,0.073-0.117,0.109-0.153v-0.094h-0.439V14.841z"/>
	<path fill="#1D1D22" d="M17.873,15.023c0.063-0.036,0.096-0.083,0.096-0.141c0-0.041-0.016-0.079-0.048-0.112
		c-0.037-0.041-0.089-0.06-0.15-0.06c-0.038,0-0.07,0.007-0.102,0.02c-0.029,0.015-0.053,0.034-0.068,0.059
		c-0.018,0.023-0.029,0.056-0.038,0.097l0.118,0.02c0.004-0.029,0.014-0.052,0.029-0.065c0.015-0.016,0.034-0.024,0.057-0.024
		c0.021,0,0.039,0.007,0.052,0.02c0.014,0.013,0.021,0.031,0.021,0.056s-0.01,0.046-0.028,0.063
		c-0.017,0.016-0.044,0.024-0.079,0.023l-0.014,0.105c0.023-0.007,0.042-0.01,0.06-0.01c0.024,0,0.045,0.01,0.063,0.028
		c0.017,0.019,0.026,0.045,0.026,0.078c0,0.035-0.01,0.061-0.028,0.082c-0.019,0.02-0.04,0.03-0.066,0.03s-0.047-0.009-0.063-0.024
		c-0.018-0.017-0.028-0.042-0.032-0.074l-0.125,0.016c0.007,0.057,0.029,0.102,0.069,0.137c0.041,0.035,0.091,0.052,0.152,0.052
		c0.063,0,0.116-0.021,0.16-0.062c0.043-0.042,0.063-0.091,0.063-0.15c0-0.041-0.012-0.076-0.033-0.104
		C17.942,15.05,17.91,15.031,17.873,15.023z"/>
	<path fill="#1D1D22" d="M18.708,15.135h-0.082V14.71h-0.109l-0.291,0.426v0.113h0.273v0.134h0.127V15.25h0.082V15.135z
		 M18.499,15.135h-0.153l0.153-0.229V15.135z"/>
	<path fill="#1D1D22" d="M18.938,14.841h0.293c-0.06,0.076-0.109,0.162-0.146,0.258c-0.036,0.097-0.055,0.191-0.057,0.284h0.125
		c-0.002-0.06,0.009-0.127,0.028-0.201c0.02-0.076,0.048-0.148,0.085-0.214c0.038-0.066,0.075-0.117,0.111-0.153v-0.094h-0.44
		V14.841z"/>
	<path fill="#1D1D22" d="M19.955,15.022c0.028-0.013,0.053-0.031,0.068-0.056c0.017-0.025,0.024-0.053,0.024-0.083
		c0-0.05-0.017-0.091-0.053-0.124c-0.036-0.034-0.085-0.049-0.148-0.049c-0.065,0-0.114,0.015-0.15,0.049
		c-0.033,0.033-0.052,0.074-0.052,0.124c0,0.029,0.007,0.056,0.023,0.081c0.015,0.024,0.038,0.044,0.071,0.059
		c-0.038,0.016-0.067,0.04-0.084,0.069c-0.02,0.03-0.028,0.063-0.028,0.101c0,0.066,0.024,0.117,0.073,0.156
		c0.04,0.031,0.09,0.048,0.152,0.048c0.065,0,0.118-0.019,0.158-0.058c0.038-0.04,0.059-0.089,0.059-0.151
		c0-0.038-0.011-0.071-0.029-0.1C20.021,15.058,19.992,15.037,19.955,15.022z M19.788,14.834c0.016-0.015,0.034-0.023,0.059-0.023
		s0.043,0.008,0.059,0.023c0.015,0.013,0.021,0.034,0.021,0.058c0,0.025-0.007,0.045-0.021,0.06
		c-0.016,0.015-0.034,0.023-0.059,0.023s-0.044-0.008-0.059-0.023c-0.015-0.014-0.021-0.034-0.021-0.059
		C19.768,14.868,19.773,14.849,19.788,14.834z M19.916,15.265c-0.018,0.019-0.04,0.027-0.066,0.027c-0.027,0-0.05-0.008-0.068-0.029
		c-0.017-0.02-0.026-0.047-0.026-0.083c0-0.026,0.008-0.049,0.022-0.071c0.016-0.022,0.039-0.033,0.07-0.033
		c0.026,0,0.05,0.009,0.068,0.028c0.018,0.02,0.026,0.045,0.026,0.076C19.942,15.217,19.934,15.245,19.916,15.265z"/>
	<path fill="#1D1D22" d="M20.492,15.096c-0.071,0.065-0.119,0.119-0.144,0.16c-0.026,0.041-0.04,0.083-0.046,0.128h0.452v-0.119
		h-0.256c0.007-0.011,0.017-0.025,0.027-0.035c0.01-0.013,0.035-0.038,0.076-0.076c0.04-0.037,0.068-0.066,0.085-0.085
		c0.023-0.03,0.04-0.059,0.051-0.086c0.011-0.027,0.017-0.055,0.017-0.085c0-0.054-0.02-0.097-0.057-0.133
		c-0.038-0.036-0.091-0.053-0.156-0.053c-0.061,0-0.111,0.015-0.152,0.045c-0.039,0.032-0.064,0.083-0.071,0.154l0.13,0.012
		c0.002-0.039,0.011-0.065,0.025-0.081c0.017-0.017,0.038-0.025,0.064-0.025c0.027,0,0.049,0.008,0.064,0.024
		c0.016,0.016,0.024,0.037,0.024,0.065c0,0.026-0.01,0.053-0.028,0.079C20.586,15.004,20.55,15.04,20.492,15.096z"/>
	<path fill="#1D1D22" d="M21.011,14.841h0.293c-0.062,0.076-0.108,0.162-0.146,0.258c-0.035,0.097-0.054,0.191-0.056,0.284h0.124
		c0-0.06,0.009-0.127,0.027-0.201c0.021-0.076,0.05-0.148,0.087-0.214c0.038-0.066,0.075-0.117,0.111-0.153v-0.094h-0.44V14.841z"/>
	<path fill="#1D1D22" d="M22.027,15.022c0.029-0.013,0.052-0.031,0.067-0.056c0.017-0.025,0.024-0.053,0.024-0.083
		c0-0.05-0.018-0.091-0.052-0.124c-0.036-0.034-0.085-0.049-0.149-0.049c-0.065,0-0.114,0.015-0.15,0.049
		c-0.034,0.033-0.052,0.074-0.052,0.124c0,0.029,0.009,0.056,0.023,0.081s0.039,0.044,0.072,0.059
		c-0.039,0.016-0.067,0.04-0.084,0.069c-0.02,0.03-0.028,0.063-0.028,0.101c0,0.066,0.024,0.117,0.072,0.156
		c0.04,0.031,0.092,0.048,0.152,0.048c0.066,0,0.118-0.019,0.158-0.058c0.039-0.04,0.06-0.089,0.06-0.151
		c0-0.038-0.01-0.071-0.03-0.1C22.093,15.058,22.065,15.037,22.027,15.022z M21.86,14.834c0.015-0.015,0.034-0.023,0.059-0.023
		c0.023,0,0.044,0.008,0.058,0.023C21.991,14.848,22,14.868,22,14.892c0,0.025-0.009,0.045-0.023,0.06
		c-0.015,0.015-0.034,0.023-0.059,0.023c-0.023,0-0.043-0.008-0.058-0.023c-0.016-0.014-0.023-0.034-0.023-0.059
		C21.837,14.868,21.845,14.849,21.86,14.834z M21.988,15.265c-0.019,0.019-0.04,0.027-0.066,0.027c-0.027,0-0.051-0.008-0.068-0.029
		c-0.019-0.02-0.026-0.047-0.026-0.083c0-0.026,0.007-0.049,0.021-0.071c0.017-0.022,0.04-0.033,0.071-0.033
		c0.026,0,0.05,0.009,0.067,0.028c0.017,0.02,0.026,0.045,0.026,0.076C22.014,15.217,22.004,15.245,21.988,15.265z"/>
	<path fill="#1D1D22" d="M22.831,15.05c0-0.122-0.022-0.208-0.066-0.261c-0.043-0.053-0.1-0.078-0.168-0.078
		c-0.063,0-0.113,0.02-0.154,0.062c-0.04,0.041-0.061,0.097-0.061,0.165c0,0.065,0.02,0.119,0.057,0.159
		c0.04,0.04,0.084,0.061,0.138,0.061c0.048,0,0.089-0.019,0.12-0.056c-0.005,0.077-0.015,0.129-0.034,0.152
		c-0.019,0.024-0.041,0.037-0.068,0.037c-0.021,0-0.039-0.007-0.05-0.018c-0.014-0.012-0.022-0.032-0.024-0.057l-0.125,0.015
		c0.01,0.054,0.03,0.095,0.063,0.125c0.032,0.027,0.074,0.041,0.128,0.041c0.072,0,0.132-0.026,0.177-0.082
		C22.807,15.26,22.831,15.171,22.831,15.05z M22.66,15.033c-0.017,0.02-0.038,0.03-0.062,0.03c-0.026,0-0.047-0.011-0.065-0.031
		c-0.018-0.02-0.024-0.051-0.024-0.095c0-0.043,0.007-0.074,0.022-0.093c0.017-0.018,0.036-0.028,0.06-0.028
		c0.024,0,0.047,0.011,0.066,0.035c0.02,0.022,0.028,0.054,0.028,0.095C22.686,14.985,22.678,15.015,22.66,15.033z"/>
	<path fill="#1D1D22" d="M23.459,14.71h-0.107l-0.292,0.426v0.113h0.275v0.134h0.124V15.25h0.084v-0.115h-0.084V14.71z
		 M23.335,15.135h-0.154l0.154-0.229V15.135z"/>
</g>
<g>
	<path fill="#1D1D22" d="M22.194,16.201v0.753c0,0.176,0.145,0.321,0.321,0.321h0.87c0.178,0,0.322-0.145,0.322-0.321v-0.753
		c0-0.176-0.145-0.32-0.322-0.32h-0.87C22.339,15.88,22.194,16.024,22.194,16.201z M23.408,16.141v0.876h-0.913v-0.876H23.408z"/>
	<rect x="19.897" y="16.697" fill="#1D1D22" width="0.232" height="0.234"/>
	<path fill="#1D1D22" d="M17.838,16.188v-0.017c-0.021-0.165-0.161-0.294-0.333-0.294h-0.848c-0.185,0-0.334,0.149-0.334,0.335
		v0.725c0,0.185,0.149,0.334,0.334,0.334h0.848c0.175,0,0.317-0.13,0.334-0.299v-0.018h-1.145v-0.767H17.838z"/>
	<path fill="#1D1D22" d="M21.92,16.15c-0.023-0.154-0.157-0.27-0.316-0.27h-0.931c-0.179,0-0.32,0.144-0.32,0.32v0.753
		c0,0.176,0.142,0.321,0.32,0.321h0.931c0.166,0,0.304-0.123,0.318-0.285v-0.529h-1.031c0.003,0.027,0.017,0.077,0.068,0.142
		c0.067,0.084,0.171,0.092,0.2,0.092h0.466V17h-0.977v-0.85H21.92z"/>
	<path fill="#1D1D22" d="M18.102,16.971c0.018,0.17,0.159,0.301,0.333,0.301h0.89c0.187,0,0.337-0.149,0.337-0.334v-0.217
		c-0.017-0.169-0.159-0.301-0.333-0.301h-0.889v-0.241h1.193c-0.018-0.169-0.16-0.301-0.333-0.301h-0.865
		c-0.185,0-0.335,0.149-0.335,0.334v0.208c0.018,0.171,0.16,0.302,0.333,0.302l0.889-0.001v0.25H18.102z"/>
	<rect x="19.897" y="16.219" fill="#1D1D22" width="0.232" height="0.233"/>
</g>
</svg>
