<?xml version="1.0" encoding="utf-8"?>
<!-- Generator: Adobe Illustrator 16.0.0, SVG Export Plug-In . SVG Version: 6.00 Build 0)  -->
<!DOCTYPE svg PUBLIC "-//W3C//DTD SVG 1.1//EN" "http://www.w3.org/Graphics/SVG/1.1/DTD/svg11.dtd">
<svg version="1.1" id="Layer_1" xmlns="http://www.w3.org/2000/svg" xmlns:xlink="http://www.w3.org/1999/xlink" x="0px" y="0px"
	 width="32px" height="32px" viewBox="0 0 32 32" enable-background="new 0 0 32 32" xml:space="preserve">
<path fill="#F3F0E7" d="M15.883,31.299C11.286,29.828,3.164,26.502,2.895,7.723c2.161-0.908,3.392-2.429,4.044-3.55
	C7.492,3.222,7.248,2.69,7.42,1.602c2.399-0.259,5.811-0.719,8.316-0.719c2.785,0,6.404,0.348,8.693,0.587
	c0.205,2.669,0.633,4.579,4.381,5.984C28.655,20.253,25.29,28.225,15.883,31.299z"/>
<path fill="#47205E" d="M25.633,7.502c0.47,0.381,1.116,0.81,1.752,1.113c-0.139,11.368-3.992,18.45-11.456,21.049
	c-2.162-0.809-6.773-2.55-9.467-9.133L25.633,7.502z"/>
<polygon fill="#47205E" points="15.859,2.275 15.873,1.03 19.133,1.134 19.055,2.386 "/>
<polygon fill="#47205E" points="9.572,2.645 9.44,1.406 12.691,1.13 12.759,2.383 "/>
<path fill="#47205E" d="M25.162,6.813l0.792-0.753c0,0,0.509,0.646,1.761,1.262c-0.225,0.519-0.274,0.744-0.421,1.017
	C26.169,7.899,25.162,6.813,25.162,6.813z"/>
<path fill="#47205E" d="M6.811,6.91L5.949,6.147c0,0,0.633-0.597,1.17-1.974C7.684,4.36,7.925,4.39,8.226,4.519
	C7.862,5.745,6.811,6.91,6.811,6.91z"/>
<path fill="#47205E" d="M28.582,13.182l-1.203-0.118c0,0,0.137-1.409,0.195-2.846c0.636,0.02,0.811,0.045,1.184,0.039
	C28.777,11.499,28.582,13.182,28.582,13.182z"/>
<path fill="#47205E" d="M3.354,13.223l1.155-0.116c0,0,0.139,1.451,0.355,2.916c-0.602,0.104-0.771,0.112-1.122,0.191
	C3.488,14.962,3.354,13.223,3.354,13.223z"/>
<path fill="#47205E" d="M4.506,19.184l1.097-0.38c0,0,0.443,1.273,0.966,2.541c-0.563,0.238-0.725,0.285-1.048,0.44
	C5.007,20.717,4.506,19.184,4.506,19.184z"/>
<path fill="#47205E" d="M6.997,24.429l0.943-0.676c0,0,0.787,1.095,1.648,2.162c-0.472,0.388-0.614,0.479-0.88,0.72
	C7.913,25.758,6.997,24.429,6.997,24.429z"/>
<path fill="#47205E" d="M10.868,28.585l0.6-0.994c0,0,1.155,0.695,2.368,1.334c-0.28,0.543-0.375,0.683-0.524,1.01
	C12.234,29.444,10.868,28.585,10.868,28.585z"/>
<path fill="#47205E" d="M15.933,31.042l-0.008-1.165c0,0,0.809-0.469,2.113-0.756c0.183,0.208,0.417,0.652,0.651,0.965
	C17.542,30.478,15.933,31.042,15.933,31.042z"/>
<path fill="#47205E" d="M27.435,19.153l-1.171-0.3c0,0,0.35-1.371,0.628-2.783c0.625,0.116,0.793,0.168,1.164,0.219
	C27.885,17.521,27.435,19.153,27.435,19.153z"/>
<path fill="#47205E" d="M25.004,24.356l-1.049-0.601c0,0,0.702-1.229,1.346-2.516c0.572,0.278,0.721,0.374,1.063,0.521
	C25.873,22.902,25.004,24.356,25.004,24.356z"/>
<path fill="#47205E" d="M22.196,2.562l0.098-1.164l2.357,0.245l0.205,2.387c0,0-0.772,0.293-1.036,0.43
	c-0.226-0.44-0.518-1.785-0.518-1.785L22.196,2.562z"/>
<path fill="#47205E" d="M4.727,8.389L4.213,7.368L3.065,7.759l0.053,2.53c0,0,0.834-0.079,1.095-0.052
	c0.026-0.548,0.026-1.644,0.026-1.644L4.727,8.389z"/>
<rect x="7.22" y="23.435" transform="matrix(-0.5176 -0.8556 0.8556 -0.5176 -9.6097 42.8611)" width="0.117" height="1.409"/>
<g>
	<g>
		<path fill-rule="evenodd" clip-rule="evenodd" fill="#F3F0E7" d="M22.614,29.94c0.743,0.175,1.18,0.278,1.642,0.382
			c0.23,0.052,0.402,0.084,0.683,0.099c0.301,0.016,1.077-0.164,1.349-1.067c0.166-0.502,0.205-0.82,0.374-1.339
			c0.747,0.214,2.292,0.466,2.292,0.466l-0.808-2.173c0,0,1.697-1.132,2.228-1.553c-2.141-0.351-2.71-0.381-3.86-1.027
			c-1.021-0.522-1.376,0.133-1.431,0.438c-0.049,0.279-0.355,1.188-0.434,1.551c-0.444-0.112-0.994-0.242-1.632-0.364
			c-0.788-0.155-1.709-0.31-2.725-0.43c-0.508-0.06-1.04-0.111-1.594-0.147c-0.197-0.013-1.54-0.059-1.726-0.059l0,0l0,0
			c-1.222-0.007,0.32,0.026-0.771,0.005c-0.642-0.013-0.683-0.005-0.683-0.005c-0.299,0-3.034,0.173-3.318,0.207
			c-1.016,0.12-1.937,0.275-2.726,0.429c-0.747,0.144-1.375,0.298-1.854,0.421C7.507,25.42,7.46,24.444,7.41,24.165
			C7.356,23.86,7,23.206,5.979,23.728c-1.149,0.646-1.72,0.676-3.86,1.027c0.53,0.421,2.228,1.553,2.228,1.553L3.539,28.48
			c0,0,1.546-0.252,2.293-0.466c0.169,0.519,0.207,0.837,0.373,1.339c0.272,0.903,1.049,1.083,1.349,1.067
			c0.28-0.015,0.453-0.047,0.684-0.099c0.462-0.104,0.897-0.207,1.641-0.382c1.489-0.351,3.545-0.751,5.967-0.735
			C18.297,29.221,18.861,29.055,22.614,29.94z"/>
	</g>
</g>
<g>
	<path fill-rule="evenodd" clip-rule="evenodd" fill="#47205E" d="M18.236,11.789h-0.633c-0.128,0-0.232-0.104-0.232-0.233v-0.546
		c0-0.128,0.104-0.233,0.232-0.233h0.633c0.128,0,0.232,0.104,0.232,0.233v0.546C18.469,11.685,18.364,11.789,18.236,11.789z
		 M18.252,10.965h-0.663v0.636h0.663V10.965z M16.942,11.789h-0.677c-0.128,0-0.232-0.104-0.232-0.233v-0.546
		c0-0.128,0.104-0.233,0.232-0.233h0.677c0.114,0,0.212,0.084,0.229,0.196h-0.924v0.616h0.709v-0.221l-0.338,0
		c-0.021,0-0.097-0.005-0.146-0.067c-0.037-0.046-0.047-0.083-0.05-0.103h0.75v0.384C17.162,11.699,17.063,11.789,16.942,11.789z
		 M15.703,11.369h0.17v0.17h-0.17V11.369z M15.703,11.021h0.17v0.17h-0.17V11.021z M15.288,11.787h-0.646
		c-0.126,0-0.23-0.096-0.242-0.219h0.885v-0.181l-0.644,0c-0.127,0-0.23-0.096-0.242-0.219v-0.151c0-0.134,0.108-0.243,0.243-0.243
		h0.628c0.126,0,0.229,0.096,0.242,0.219h-0.866v0.175h0.645c0.126,0,0.23,0.096,0.241,0.219v0.157
		C15.531,11.679,15.422,11.787,15.288,11.787z M13.968,11.787h-0.616c-0.135,0-0.244-0.108-0.244-0.243v-0.526
		c0-0.134,0.109-0.243,0.244-0.243h0.616c0.124,0,0.227,0.093,0.241,0.214V11h-0.831v0.557h0.831v0.012
		C14.197,11.692,14.093,11.787,13.968,11.787z"/>
</g>
<path fill-rule="evenodd" clip-rule="evenodd" fill="#D4D2C9" d="M5.479,23.934c0.482-0.278,0.868-0.427,1.235-0.363
	s0.542,0.509,0.542,0.509l0.385,1.693l-1.217,0.235c0,0-1.057-0.178-1.199-0.52c-0.143-0.342-0.285-0.513-0.057-0.684
	c0.228-0.171,0.398-0.171,0.398-0.171L5.479,23.934z"/>
<path fill-rule="evenodd" clip-rule="evenodd" fill="#D4D2C9" d="M24.656,25.857l0.385-1.692c0,0,0.176-0.445,0.543-0.509
	c0.366-0.064,0.752,0.085,1.235,0.363c0.482,0.278,0.502,0.278,0.676,0.321c0.174,0.043,0.637,0.363,0.54,0.684
	c-0.096,0.321-0.868,3.164-0.868,3.164l-0.587-0.064l0.557-2.437l-1.264,0.406L24.656,25.857z"/>
<path fill="#191818" d="M30.426,24.9c-0.453,0.36-1.722,1.214-2.119,1.481l0.754,2.031c0.022,0.06,0.014,0.127-0.021,0.178
	c-0.036,0.051-0.093,0.076-0.15,0.067c-0.06-0.01-1.386-0.227-2.165-0.43c-0.056,0.186-0.097,0.349-0.136,0.507
	c-0.052,0.207-0.104,0.422-0.19,0.681c-0.281,0.935-1.052,1.185-1.463,1.185c-0.016,0-0.031,0-0.045-0.001
	c-0.28-0.015-0.459-0.046-0.708-0.102c-0.479-0.108-0.94-0.217-1.643-0.382c-0.954-0.225-1.703-0.381-2.325-0.49
	c-1.778,1.089-3.381,1.582-4.305,1.897c-0.847-0.323-2.352-0.801-4.052-1.812c-0.767,0.128-1.438,0.275-1.987,0.405
	c-0.701,0.166-1.162,0.274-1.642,0.382c-0.25,0.056-0.428,0.087-0.708,0.102c-0.015,0.001-0.029,0.001-0.045,0.001
	c-0.411,0-1.182-0.251-1.465-1.189c-0.084-0.255-0.138-0.47-0.188-0.677c-0.04-0.158-0.08-0.321-0.136-0.507
	c-0.78,0.204-2.105,0.42-2.165,0.43c-0.058,0.01-0.115-0.016-0.15-0.067c-0.036-0.051-0.044-0.119-0.022-0.178l0.755-2.031
	C3.706,26.114,2.438,25.26,1.984,24.9c-0.054-0.042-0.079-0.117-0.063-0.187c0.016-0.071,0.068-0.125,0.134-0.135
	c0.252-0.042,0.483-0.079,0.696-0.112c1.589-0.255,2.124-0.34,3.114-0.897c0.021-0.011,0.042-0.019,0.063-0.029
	c-1.983-3.522-3.421-8.651-3.333-16.204c4.007-0.843,4.77-4.133,4.523-5.881c2.461-0.27,5.697-0.711,8.687-0.711
	c3.096,0,6.406,0.342,8.934,0.62c-0.146,2.379,0.901,4.995,4.458,5.949c0.089,7.437-1.274,12.536-3.186,16.065
	c0.165,0.031,0.341,0.092,0.527,0.188c0.996,0.56,1.531,0.645,3.12,0.9c0.213,0.034,0.443,0.071,0.696,0.112
	c0.065,0.011,0.118,0.064,0.133,0.135C30.504,24.783,30.479,24.857,30.426,24.9z M26.194,21.778l-0.87-0.416
	c-0.383,0.844-0.813,1.633-1.288,2.368l0.823,0.501l0.021-0.082c0-0.006,0.001-0.013,0.002-0.019c0.008-0.046,0.022-0.1,0.043-0.157
	c0.063-0.171,0.188-0.371,0.396-0.497C25.627,22.949,25.919,22.385,26.194,21.778z M25.063,24.597
	c-0.053,0.235-0.231,0.993-0.231,0.993c0.159,0.041,0.302,0.079,0.429,0.112c0.284,0.075,0.509,0.134,0.584,0.14
	c0.031,0.003,0.061,0.005,0.092,0.005c0.532,0,1.221-0.381,1.248-0.69c0.012-0.134-0.021-0.191-0.047-0.223
	c-0.083-0.101-0.289-0.152-0.613-0.152c-0.183,0-0.407,0.016-0.706,0.049c-0.222,0.025-0.467-0.042-0.65-0.161
	C25.178,24.692,25.052,24.573,25.063,24.597z M25.604,7.411c-1.828-1.591-2.337-3.456-2.515-4.428
	c-2.086-0.21-4.739-0.641-7.278-0.641c-2.363,0-4.952,0.243-7.138,0.47C8.588,3.782,8.282,4.898,7.795,5.734
	c-0.573,0.984-1.63,2.295-3.489,2.873c0.074,5.116,0.82,9.039,1.989,11.906l0.063,0.129c0.809,1.904,1.733,3.449,2.772,4.589
	c0.019-0.003,0.326-0.093,0.346-0.097c0.789-0.154,1.71-0.309,2.726-0.429c0.284-0.034,3.02-0.207,3.318-0.207
	c0,0,0.041-0.008,0.683,0.005c1.091,0.021-0.451-0.011,0.771-0.005c0.186,0,1.528,0.046,1.726,0.059
	c0.554,0.036,1.086,0.087,1.594,0.147c0.799,0.095,1.728,0.256,2.391,0.376c3.225-3.61,4.728-9.258,4.817-16.51
	c-0.619-0.29-1.32-0.69-1.774-1.055L25.604,7.411z M7.527,24.28l0.086,0.835c0.1,0.133,0.199,0.263,0.3,0.39
	c0.299-0.074,0.639-0.154,1.018-0.234c-0.369-0.437-0.731-0.913-1.081-1.437l-0.343,0.21c0.009,0.03,0.016,0.059,0.021,0.085
	C7.536,24.181,7.536,24.231,7.527,24.28z M22.84,25.131c0.005,0.001,0.011,0.002,0.016,0.003c0.379,0.073,0.873,0.189,1.187,0.262
	c0.257-0.334,0.51-0.687,0.757-1.064l-0.826-0.503C23.664,24.3,23.188,24.707,22.84,25.131z M27.18,19.179l-0.91-0.312
	c-0.262,0.838-0.562,1.634-0.897,2.387l0.87,0.416C26.583,20.907,26.898,20.079,27.18,19.179z M27.912,16.301l-0.943-0.185
	c-0.185,0.921-0.405,1.802-0.664,2.64l0.91,0.311C27.479,18.209,27.714,17.291,27.912,16.301z M28.379,13.221l-0.954-0.088
	c-0.108,0.996-0.252,1.953-0.433,2.869l0.942,0.185C28.116,15.259,28.266,14.271,28.379,13.221z M28.588,10.347l-0.958-0.064
	c-0.036,0.941-0.101,1.854-0.192,2.733l0.953,0.088C28.482,12.229,28.55,11.313,28.588,10.347z M27.724,7.435l-0.408,0.868
	c0.103,0.046,0.207,0.092,0.314,0.134l0.037,0.015v0.04c-0.001,0.568-0.013,1.125-0.032,1.673l0.957,0.065
	c0.029-0.791,0.04-1.61,0.029-2.464C28.304,7.673,28.005,7.561,27.724,7.435z M25.897,6.171L25.188,6.81
	c0.537,0.561,1.205,1.059,2.021,1.443l0.408-0.868C26.934,7.063,26.362,6.647,25.897,6.171z M24.656,4.216l-0.88,0.347
	c0.284,0.748,0.72,1.495,1.332,2.16l0.706-0.637C25.288,5.524,24.904,4.883,24.656,4.216z M22.169,2.583
	c0.389,0.04,0.679,0.207,1.05,0.247l0.049,0.005l0.004,0.049c0.042,0.538,0.255,0.989,0.464,1.57l0.881-0.348
	c-0.263-0.75-0.44-1.549-0.43-2.275c-0.639-0.071-1.208-0.129-1.948-0.203L22.169,2.583z M19.08,2.32
	c1.012,0.067,2.015,0.156,2.972,0.251l0.07-0.956c-0.958-0.095-1.978-0.185-3.013-0.253L19.08,2.32z M15.874,2.202
	c1.013,0.002,2.055,0.044,3.089,0.111l0.03-0.958c-1.045-0.067-2.102-0.11-3.119-0.112V2.202z M12.67,1.367l0.03,0.958
	c1.032-0.074,2.065-0.122,3.056-0.124V1.243C14.751,1.245,13.705,1.293,12.67,1.367z M9.544,1.65l0.069,0.957
	c0.96-0.102,1.963-0.199,2.97-0.272l-0.03-0.959C11.519,1.45,10.498,1.549,9.544,1.65z M7.309,4.142L8.2,4.494
	c0.193-0.564,0.315-1.15,0.349-1.723l0.002-0.05l0.05-0.005c0.293-0.032,0.593-0.065,0.896-0.097L9.427,1.662
	C8.765,1.733,8.267,1.83,7.69,1.894C7.712,2.507,7.585,3.313,7.309,4.142z M6.108,6.177l0.713,0.643
	c0.359-0.386,0.632-0.777,0.834-1.125c0.219-0.375,0.399-0.778,0.542-1.191l-0.04,0.101L7.271,4.253
	C7.032,4.921,6.655,5.592,6.108,6.177z M4.282,7.439l0.409,0.869C5.566,7.935,6.234,7.428,6.74,6.904L6.028,6.262
	C5.566,6.734,4.989,7.142,4.282,7.439z M3.203,10.227l0.955-0.064c-0.02-0.519-0.029-1.05-0.031-1.597V8.522l0.04-0.014
	c0.144-0.047,0.281-0.1,0.416-0.155L4.174,7.485C3.864,7.607,3.531,7.71,3.172,7.787C3.162,8.632,3.174,9.444,3.203,10.227z
	 M3.408,13.107l0.948-0.088c-0.092-0.867-0.156-1.78-0.193-2.74l-0.956,0.065C3.245,11.312,3.314,12.23,3.408,13.107z M3.873,16.191
	l0.931-0.183c-0.177-0.897-0.323-1.853-0.435-2.873L3.42,13.224C3.536,14.275,3.688,15.263,3.873,16.191z M4.605,19.071l0.891-0.305
	c-0.254-0.818-0.479-1.697-0.67-2.643l-0.931,0.182C4.097,17.295,4.337,18.214,4.605,19.071z M5.593,21.67l0.843-0.404
	c-0.329-0.73-0.634-1.524-0.906-2.387l-0.889,0.304C4.927,20.081,5.246,20.908,5.593,21.67z M6.463,23.366
	c0.055-0.007,0.109-0.012,0.161-0.012c0.476,0,0.731,0.313,0.843,0.578l0.318-0.195c-0.461-0.703-0.899-1.487-1.301-2.364
	l-0.844,0.404C5.901,22.342,6.177,22.87,6.463,23.366z M7.262,24.656c-0.185,0.127-0.439,0.199-0.67,0.174
	c-0.299-0.034-0.522-0.049-0.705-0.049c-0.324,0-0.531,0.051-0.613,0.152c-0.026,0.031-0.06,0.089-0.048,0.223
	c0.028,0.309,0.716,0.69,1.249,0.69c0.03,0,0.061-0.001,0.089-0.004c0.078-0.006,0.302-0.065,0.587-0.14
	c0.067-0.018,0.141-0.038,0.218-0.058C7.347,25.443,7.298,24.993,7.262,24.656z M5.608,27.88l-0.649-2.482
	c-0.029-0.066-0.048-0.135-0.054-0.207c-0.019-0.204,0.025-0.371,0.129-0.498c0.152-0.187,0.415-0.27,0.853-0.27
	c0.193,0,0.428,0.017,0.738,0.051c0.021,0.002,0.041,0.004,0.063,0.004c0.214,0,0.42-0.107,0.497-0.209
	c0.014-0.019,0.03-0.046,0.026-0.069c-0.004-0.02-0.093-0.488-0.587-0.488c-0.178,0-0.386,0.06-0.618,0.179
	c-1.032,0.58-1.625,0.675-3.209,0.929c-0.091,0.015-0.186,0.03-0.284,0.045c0.689,0.499,1.861,1.281,1.876,1.29
	c0.068,0.045,0.096,0.139,0.065,0.221l-0.698,1.88C4.196,28.18,5.054,28.024,5.608,27.88z M13.289,29.832l0.196-0.339
	c-0.239,0.024-0.474,0.05-0.7,0.08C12.956,29.664,13.125,29.75,13.289,29.832z M15.851,29.869c-0.34-0.126-0.741-0.276-1.185-0.462
	c-0.355,0.017-0.702,0.041-1.037,0.071l-0.233,0.405c1.02,0.494,1.887,0.793,2.455,1.009V29.869z M18.44,29.925l-0.325-0.534
	c-0.269-0.01-0.531-0.012-0.807-0.011c-0.537,0.225-0.997,0.383-1.34,0.501v1.013C16.558,30.692,17.428,30.406,18.44,29.925z
	 M19.298,29.486c-0.384-0.048-0.721-0.075-1.042-0.089l0.291,0.478C18.79,29.757,19.041,29.627,19.298,29.486z M26.987,25.885
	c-0.323,0.202-0.736,0.318-1.052,0.318c-0.04,0-0.079-0.002-0.116-0.005c-0.1-0.007-0.301-0.061-0.635-0.149
	c-0.505-0.133-1.268-0.335-2.236-0.521c-0.913-0.179-1.826-0.323-2.715-0.428c-0.538-0.063-1.072-0.113-1.586-0.147
	c-0.19-0.013-1.537-0.059-1.716-0.059c-0.129,0-0.228-0.001-0.299,0c-0.02,0.008-0.041,0.013-0.063,0.013
	c-0.027,0-0.136-0.002-0.413-0.007c-0.519-0.01-0.643-0.007-0.663-0.005c-0.006,0-0.011,0-0.016,0c-0.278,0-2.994,0.169-3.302,0.206
	c-0.889,0.105-1.802,0.249-2.714,0.428c-0.97,0.187-1.733,0.389-2.238,0.521c-0.334,0.088-0.535,0.142-0.637,0.149
	c-0.035,0.003-0.073,0.005-0.113,0.005c-0.326,0-0.757-0.125-1.084-0.339l0.533,2.052c0.008,0.011,0.014,0.024,0.019,0.038
	c0.086,0.264,0.139,0.478,0.19,0.685c0.052,0.209,0.102,0.408,0.183,0.653c0.227,0.753,0.857,0.951,1.16,0.951
	c0.01,0,0.02,0,0.029-0.001c0.261-0.014,0.42-0.042,0.659-0.096c0.479-0.107,0.938-0.216,1.639-0.381
	c1.373-0.324,3.5-0.759,6.002-0.739c0.373,0.002,0.702,0,1.006-0.001c0.177-0.001,0.345-0.002,0.508-0.002
	c1.332,0,2.353,0.05,5.288,0.742c0.701,0.166,1.161,0.274,1.64,0.381c0.238,0.054,0.397,0.082,0.659,0.096
	c0.009,0.001,0.019,0.001,0.029,0.001c0.302,0,0.933-0.198,1.158-0.945c0.083-0.251,0.132-0.449,0.184-0.659
	c0.047-0.185,0.095-0.377,0.166-0.604L26.987,25.885z M29.896,24.864c-0.098-0.016-0.192-0.031-0.283-0.045
	c-1.584-0.254-2.177-0.349-3.215-0.932c-0.227-0.116-0.435-0.176-0.612-0.176c-0.494,0-0.583,0.468-0.587,0.488
	c-0.004,0.023,0.012,0.05,0.026,0.069c0.076,0.103,0.283,0.209,0.497,0.209c0.021,0,0.042-0.001,0.063-0.004
	c0.311-0.034,0.545-0.051,0.738-0.051c0.438,0,0.7,0.083,0.853,0.27c0.104,0.126,0.147,0.294,0.129,0.498
	c-0.007,0.076-0.027,0.15-0.06,0.219l-0.637,2.473c0.555,0.144,1.407,0.298,1.846,0.373l-0.699-1.88
	c-0.03-0.082-0.002-0.176,0.066-0.221C28.035,26.145,29.207,25.363,29.896,24.864z"/>
<g>
	<g>
		<path fill-rule="evenodd" clip-rule="evenodd" fill="#47205E" d="M13.221,6.39c-0.095-0.136-0.18-0.275-0.274-0.411
			c0.085,0.397,0.207,0.796,0.308,1.19c0.045,0.014,0.057,0.022,0.083,0.058c0.009-0.003,0.018-0.007,0.026-0.011h0.019
			c-0.025-0.098,0.112,0.063,0.148,0.169c0.015,0.014,0.125,0.067,0.14,0.081c0.018-0.06,0.012-0.164,0.091-0.178
			c0.043-0.056-0.005-0.106,0.005-0.134C13.621,6.864,13.393,6.644,13.221,6.39z M13.958,7.339c0.016,0.014,0.026,0.026,0.05,0.03
			c0.018,0.007,0.029-0.007,0.045-0.015c0.006-0.018,0.011-0.036,0.017-0.054c-0.01-0.064-0.039-0.095-0.089-0.095
			c-0.01,0.006-0.019,0.013-0.027,0.02C13.939,7.264,13.941,7.293,13.958,7.339z M13.209,7.161c-0.082-0.4-0.32-0.899-0.318-1.327
			c0.006-0.003,0.012-0.007,0.018-0.01c0.098,0.15,0.272,0.42,0.33,0.481l0.58,0.795c0.066-0.041,0.049-0.072,0.099-0.115
			c0.154-0.135,0.374-0.063,0.535,0c0.033-0.418,0.065-0.837,0.099-1.256c0.029-0.211,0.067-0.468,0.125-0.523
			c0.136,0.063,0.135,0.24,0.188,0.397l0.384,1.235c0.029,0.003,0.06,0.007,0.089,0.01l0.009-0.01
			c-0.059-0.539-0.248-0.877-0.401-1.306c-0.03-0.084-0.082-0.278-0.135-0.375c-0.027-0.051-0.08-0.075-0.138-0.073
			c-0.051,0.002-0.057,0.047-0.081,0.103c-0.146,0.321-0.17,1.333-0.191,1.65c-0.032-0.011-0.065-0.021-0.098-0.031
			c-0.012-0.06-0.026-0.101-0.038-0.16c-0.004-0.031-0.021-0.056-0.042-0.04c-0.019,0.052-0.031,0.123-0.045,0.188
			c-0.054,0.003-0.107,0.007-0.161,0.011c-0.019-0.06-0.047-0.142-0.089-0.178c-0.006,0.004-0.012,0.007-0.018,0.011
			c-0.006,0.073-0.008,0.141-0.002,0.204c-0.015,0.028-0.019,0.03-0.043,0.047c-0.012,0.014-0.023,0.028-0.035,0.042
			c-0.176-0.382-0.457-0.645-0.672-0.981c-0.069-0.108-0.14-0.323-0.311-0.275c-0.027,0.015-0.029,0.014-0.045,0.042
			c-0.043,0.074,0.012,0.327,0.036,0.418c0.099,0.345,0.196,0.69,0.295,1.036C13.158,7.171,13.183,7.165,13.209,7.161z M15.06,6.986
			c0.016,0.03,0.017,0.026,0.044,0.042c0.015-0.051,0.03-0.076,0.063-0.104c-0.014-0.152-0.076-0.277-0.116-0.397
			c-0.096-0.287-0.14-0.554-0.23-0.824c-0.034-0.104-0.072-0.295-0.129-0.387c-0.109,0.455-0.101,1.187-0.149,1.682
			c0.032,0.028,0.065,0.056,0.098,0.084c0.019-0.003,0.142,0.066,0.16,0.063C14.82,6.901,14.992,6.871,15.06,6.986z M14.935,7.588
			c0.009-0.005,0.019-0.01,0.027-0.015c0.013-0.028,0.017-0.043,0.011-0.087c-0.019-0.02-0.024-0.034-0.059-0.034
			c-0.022,0.017-0.047,0.048-0.024,0.092C14.9,7.571,14.914,7.578,14.935,7.588z M14.508,7.225c0.018,0.058,0.029,0.085,0.078,0.095
			c0.026-0.017,0.042-0.024,0.051-0.065c0.02-0.071-0.034-0.124-0.081-0.121C14.527,7.162,14.518,7.174,14.508,7.225z M13.312,7.275
			c-0.009,0.008-0.017,0.017-0.025,0.025c-0.003,0.022-0.009,0.063,0.007,0.094c0.014,0.036,0.036,0.055,0.069,0.059
			c0.013-0.013,0.027-0.026,0.04-0.039c0.003-0.036,0.006-0.07-0.017-0.099C13.37,7.283,13.347,7.273,13.312,7.275z M17.78,9.266
			c0.048,0.036,0.077-0.025,0.123-0.031l0.047,0.023c0.004-0.061,0.008-0.122,0.013-0.183c-0.002-0.001-0.003-0.002-0.004-0.004
			c-0.014,0.005-0.026,0.01-0.039,0.016c-0.071-0.013-0.092-0.11-0.166-0.12c-0.018,0.062,0.027,0.132,0.057,0.167
			c-0.019,0.038-0.037,0.059-0.034,0.125C17.777,9.26,17.779,9.263,17.78,9.266z M18.025,9.339c0.009-0.001,0.018-0.002,0.027-0.004
			c0.005-0.01,0.01-0.021,0.016-0.031c0.007-0.019,0-0.039-0.005-0.055c-0.012-0.01-0.019-0.016-0.037-0.02
			c-0.006,0.002-0.011,0.005-0.017,0.007c-0.006,0.019-0.013,0.037-0.019,0.055c0.003,0.01,0.007,0.021,0.011,0.031
			C18.01,9.329,18.018,9.334,18.025,9.339z M12.846,6.85c-0.037,0.106-0.005,0.243,0.116,0.23l0.018-0.053
			C12.964,6.975,12.893,6.868,12.846,6.85z M18.043,8.839c-0.273-0.035-0.547-0.069-0.819-0.104
			c-0.119-0.012-0.239-0.023-0.359-0.035c-0.138-0.026-0.254,0.001-0.392-0.023c-0.296-0.004-0.593-0.008-0.89-0.012
			c-0.231,0.005-0.464,0.01-0.696,0.015c-0.207,0.016-0.414,0.031-0.621,0.046c-0.295,0.036-0.59,0.072-0.886,0.108
			c-0.009,0.018-0.014,0.032-0.015,0.062c0.006,0.007,0.012,0.013,0.017,0.02c0.136,0.032,0.292-0.043,0.433-0.039
			c0.07-0.008,0.141-0.016,0.21-0.023l0.167-0.007c0.138-0.027,0.271-0.025,0.402-0.05c0.188-0.008,0.377-0.016,0.564-0.023
			c0.091-0.001,0.182-0.002,0.272-0.003c0.142,0,0.304-0.012,0.429,0.011h0.289c0.164,0.031,0.361,0.019,0.535,0.031v0.003
			c-0.028,0.029-0.225,0.128-0.275,0.108c-0.08-0.031-0.146-0.103-0.25-0.104c-0.002,0.004-0.004,0.008-0.007,0.012
			c-0.021,0.07,0.078,0.12,0.104,0.155c-0.029,0.034-0.063,0.046-0.063,0.116c0.007,0.007,0.014,0.015,0.021,0.023
			c0.077,0.019,0.142-0.072,0.223-0.05c0.075,0.02,0.219,0.128,0.298,0.066c0.005-0.021,0.009-0.043-0.001-0.062
			c-0.018-0.042-0.082-0.067-0.128-0.074V8.99c0.06-0.025,0.127-0.077,0.151-0.143c-0.005-0.012-0.009-0.023-0.014-0.035
			c0.089,0,0.192,0.026,0.266,0.023c0.202-0.008,0.445,0.003,0.646,0.042c0.058,0.004,0.115,0.008,0.173,0.011
			c0.066,0.019,0.13,0.061,0.2,0.035C18.039,8.903,18.041,8.872,18.043,8.839z M13.705,7.688c-0.003,0.033-0.006,0.06,0.012,0.09
			c0.014,0.029,0.028,0.031,0.051,0.047c0.032-0.005,0.041-0.022,0.059-0.042l0.003-0.028c-0.007-0.065-0.04-0.1-0.089-0.1
			C13.729,7.666,13.717,7.677,13.705,7.688z M14.863,4.663c0.021-0.047,0.004-0.104-0.022-0.136c-0.038-0.065-0.071-0.105-0.17-0.1
			c-0.023,0.011-0.069,0.026-0.094,0.037c-0.062,0.035-0.064,0.081-0.087,0.16c-0.002,0.073,0.049,0.141,0.101,0.175
			C14.734,4.846,14.813,4.789,14.863,4.663z M14.836,4.757c-0.009,0.011-0.018,0.021-0.026,0.032V4.83h0.071
			c0.024-0.017,0.021-0.015,0.036-0.042C14.894,4.76,14.887,4.758,14.836,4.757z M12.798,5.606c0.079-0.032,0.135,0.052,0.19,0.021
			c0.01-0.007,0.027-0.007,0.027-0.033c-0.022-0.117-0.124-0.124-0.25-0.115c-0.027,0.01-0.054,0.021-0.08,0.031
			c-0.035,0.054-0.041,0.085-0.022,0.127c-0.024-0.007-0.031-0.021-0.059-0.002c-0.022,0.026-0.023,0.049-0.016,0.081
			c0.008,0.043,0.064,0.064,0.105,0.024c0.017-0.009,0.009-0.042-0.005-0.075C12.766,5.663,12.76,5.622,12.798,5.606z M17.713,8.955
			c-0.003-0.005-0.007-0.01-0.01-0.016c-0.039-0.006-0.128,0.075-0.175,0.097c-0.055-0.031-0.093-0.112-0.159-0.124
			c-0.021,0.076,0.039,0.11,0.054,0.159c0.013,0.044-0.058,0.079-0.024,0.14c0.006,0.011,0.01,0.012,0.018,0.02
			c0.038-0.016,0.077-0.031,0.115-0.046c0.058,0.017,0.089,0.094,0.162,0.101c0.047-0.082-0.023-0.131-0.066-0.167V9.114
			C17.665,9.081,17.715,9.032,17.713,8.955z M15.551,6.599c-0.019-0.073-0.036-0.146-0.054-0.22
			c-0.006-0.007-0.013-0.014-0.018-0.021h-0.027c-0.028,0.068-0.036,0.126-0.026,0.22c0.032,0.014,0.065,0.028,0.098,0.042
			C15.532,6.612,15.542,6.605,15.551,6.599z M14.471,4.977c-0.003,0.021-0.006,0.042-0.01,0.063
			c0.013,0.007,0.024,0.014,0.036,0.021c0.091,0.04,0.105-0.071,0.205-0.042c0.036,0.01,0.062,0.056,0.125,0.042
			c0.003-0.003,0.006-0.007,0.009-0.011c0.019-0.014,0.036-0.028,0.054-0.042V4.956c-0.058-0.071-0.123-0.1-0.25-0.094
			C14.564,4.899,14.505,4.891,14.471,4.977z M12.719,5.419c0.076,0.007,0.154-0.027,0.172-0.097c0.013-0.085-0.024-0.186-0.09-0.209
			c-0.029-0.007-0.059-0.014-0.089-0.021c-0.063-0.007-0.104,0.042-0.134,0.125c-0.009,0.048-0.01,0.088,0.009,0.125
			C12.612,5.396,12.668,5.397,12.719,5.419z M12.661,5.505c0.006,0,0.019-0.025,0.022-0.032c0-0.017-0.007-0.019-0.007-0.037
			c-0.007-0.007-0.013-0.014-0.019-0.021h-0.054c-0.023,0.035-0.038,0.055-0.009,0.084C12.618,5.521,12.651,5.51,12.661,5.505z
			 M13.042,5.678c0.015,0.007,0.025,0.022,0.04,0.03c0.03,0.011,0.051-0.007,0.065-0.042c0.008-0.022,0.011-0.052,0-0.08
			c-0.018-0.033-0.021-0.031-0.063-0.041c-0.034-0.001-0.05,0.042-0.049,0.091c0,0.011,0.006,0.021,0.006,0.031V5.678z
			 M12.962,5.437c0.019-0.019,0.007,0,0.018-0.031v-0.01c-0.021-0.007-0.041-0.014-0.063-0.021
			c-0.009,0.014-0.018,0.028-0.026,0.042C12.912,5.444,12.925,5.454,12.962,5.437z M14.551,4.841V4.789
			c-0.027-0.004-0.054-0.007-0.08-0.011c-0.012,0.011-0.024,0.021-0.036,0.032v0.042c0.03,0.007,0.06,0.014,0.089,0.021
			C14.533,4.861,14.542,4.851,14.551,4.841z M15.254,6.981l0.006,0.051c0.011,0.036,0.028,0.056,0.06,0.062
			c0.078,0.035,0.104-0.186-0.019-0.175C15.277,6.939,15.267,6.945,15.254,6.981z M16.237,7.038
			c0.002-0.073-0.024-0.113-0.077-0.114c-0.015,0.012-0.028,0.024-0.042,0.037c-0.017,0.08-0.005,0.125,0.044,0.153
			c0.015-0.003,0.029-0.006,0.045-0.01C16.217,7.082,16.228,7.06,16.237,7.038z M18.472,7.225c-0.148,0.129-0.31,0.35-0.387,0.576
			c-0.004,0.003-0.008,0.006-0.012,0.009c-0.009-0.024,0.009-0.094,0.005-0.132c-0.009-0.092-0.043-0.167-0.055-0.246h-0.011
			c-0.099,0.099-0.094,0.33-0.156,0.484c0,0.003-0.001,0.006-0.001,0.009c-0.04-0.021-0.073-0.047-0.137-0.046l-0.035,0.06
			c-0.023,0.003-0.018-0.014-0.035-0.023c-0.055-0.027-0.143-0.022-0.205-0.004c-0.002-0.003-0.004-0.006-0.006-0.01
			c0.044-0.079,0.269-0.404,0.258-0.51c-0.006-0.01-0.001-0.005-0.014-0.01c-0.06-0.011-0.276,0.2-0.33,0.252
			c-0.027,0.027-0.044,0.08-0.079,0.095c0.015-0.088,0.043-0.17,0.064-0.268c0.021-0.097-0.017-0.458-0.047-0.481
			c-0.18,0.149-0.329,0.423-0.401,0.712c-0.004,0.003-0.008,0.006-0.012,0.01c-0.04-0.146-0.072-0.34-0.186-0.393h-0.004
			c-0.049,0.085-0.062,0.236-0.066,0.378c-0.071,0.013-0.176,0.013-0.248,0.015c-0.001-0.003-0.002-0.006-0.003-0.01
			c0.052-0.109,0.189-0.404,0.158-0.604c-0.005-0.019-0.008-0.022-0.021-0.031c-0.037-0.021-0.098,0.021-0.126,0.041
			c-0.078,0.055-0.272,0.239-0.31,0.339c-0.01,0.006-0.006,0.004-0.015,0.005c-0.037-0.329-0.063-0.498-0.184-0.723
			c-0.031-0.059-0.063-0.166-0.119-0.188c-0.058-0.023-0.12,0.11-0.143,0.151c-0.146,0.265-0.161,0.368-0.188,0.78h-0.003
			c-0.101-0.124-0.281-0.412-0.459-0.41c-0.005,0.009-0.011,0.017-0.017,0.025c-0.022,0.228,0.085,0.478,0.155,0.61v0.015
			c-0.063-0.001-0.188,0.001-0.247-0.015c-0.02-0.131-0.019-0.269-0.063-0.374c-0.002-0.001-0.005-0.003-0.007-0.005
			c-0.074,0.024-0.184,0.267-0.183,0.388c-0.002,0.001-0.005,0.003-0.007,0.005c-0.003-0.002-0.005-0.003-0.007-0.005
			c-0.045-0.166-0.111-0.338-0.192-0.463c-0.068-0.083-0.138-0.168-0.207-0.254c-0.006,0.001-0.012,0.003-0.018,0.005
			c-0.02,0.275-0.071,0.433,0.031,0.735C14.201,7.725,14.2,7.728,14.199,7.73c-0.032-0.015-0.042-0.06-0.068-0.085
			c-0.072-0.071-0.259-0.266-0.352-0.262c-0.001,0.003-0.002,0.007-0.002,0.01c0.035,0.208,0.179,0.361,0.257,0.505
			c0,0.004,0.001,0.009,0.001,0.014c-0.093-0.014-0.174-0.01-0.236,0.032c-0.014-0.021-0.028-0.043-0.042-0.064
			c-0.061,0-0.104,0.042-0.141,0.042c-0.039-0.143-0.073-0.398-0.148-0.479c-0.008-0.01-0.002-0.005-0.016-0.009
			c-0.033,0.106-0.074,0.206-0.047,0.377h-0.004c-0.034-0.03-0.053-0.109-0.078-0.156c-0.061-0.11-0.234-0.391-0.327-0.43
			c0.015,0.098,0.029,0.195,0.043,0.291c0.021,0.066,0.04,0.131,0.061,0.196c-0.02-0.018-0.039-0.035-0.058-0.052
			c-0.018,0.047,0.16,0.403,0.188,0.445c0,0.001,0,0.003,0.001,0.004c-0.002,0.001-0.004,0.003-0.007,0.005
			c-0.015-0.003-0.011-0.007-0.015,0.013c0.029,0.049,0.07,0.125,0.116,0.182c0.029,0.037,0.059,0.311,0.038,0.315
			c-0.044,0.164,0.196,0.1,0.28,0.08c0.223-0.052,0.447-0.039,0.69-0.088c0.079-0.016,0.165,0.002,0.255-0.017
			c0.089-0.005,0.177-0.011,0.266-0.017c0.17-0.036,0.385-0.032,0.573-0.021c0.063,0.003,0.167,0.018,0.24,0.008
			c0.078-0.01,0.205,0.011,0.284-0.004h0.371c0.107,0.008,0.215,0.017,0.322,0.025c0.126,0.024,0.291,0,0.414,0.025
			c0.205,0.024,0.41,0.048,0.614,0.072c0.098,0.021,0.233,0.063,0.326,0.033c0.016-0.024,0.027-0.05,0.033-0.092
			C18.019,8.62,18.086,8.367,18.1,8.356C18.164,8.3,18.221,8.2,18.266,8.123c-0.002-0.005-0.005-0.009-0.008-0.014
			c-0.005,0.001-0.01,0.003-0.015,0.005c0.029-0.096,0.201-0.347,0.192-0.445c0.001-0.003,0.001-0.006,0.002-0.009
			c-0.014,0.009-0.026,0.019-0.04,0.028c-0.007,0.008-0.015,0.016-0.021,0.024h-0.003c0.034-0.137,0.076-0.295,0.104-0.482
			C18.476,7.229,18.474,7.227,18.472,7.225z M18.045,9.06c-0.01,0.01-0.017,0.012-0.022,0.027c-0.001,0.014-0.001,0.028-0.002,0.042
			c0.007,0.006,0.014,0.013,0.021,0.02c0.011,0.001,0.022,0.002,0.033,0.004c0.012-0.014,0.019-0.022,0.025-0.043
			c-0.007-0.022-0.01-0.036-0.027-0.046C18.063,9.063,18.055,9.061,18.045,9.06z M17.411,9.531
			c-0.348-0.069-0.723-0.046-1.088-0.086c-0.131-0.001-0.261-0.003-0.392-0.004c-0.194-0.029-0.391,0.025-0.599,0
			c-0.24,0.01-0.481,0.021-0.723,0.031c-0.215,0.021-0.431,0.042-0.646,0.063c-0.192,0.026-0.385,0.052-0.577,0.079
			c-0.013,0.035,0.008,0.064,0.015,0.102c0.661,0.102,1.367,0.11,2.112,0.11c0.169,0,0.347,0.008,0.514-0.004
			c0.109-0.003,0.22-0.005,0.329-0.008c0.13-0.023,0.267,0.002,0.386-0.02c0.087-0.001,0.174-0.002,0.262-0.004
			c0.231-0.022,0.464-0.044,0.696-0.066c0.101-0.008,0.2-0.016,0.301-0.024c0.024-0.014,0.044-0.046,0.076-0.059
			c0.003-0.007,0.006-0.014,0.009-0.02c-0.051-0.042-0.158-0.022-0.229-0.035C17.709,9.567,17.56,9.549,17.411,9.531z M16.837,7.339
			c0.037,0.008,0.051-0.006,0.074-0.03c0.008-0.032,0.011-0.063,0.011-0.1c-0.02-0.023-0.026-0.041-0.059-0.05
			c-0.036,0.026-0.041,0.035-0.063,0.08C16.799,7.295,16.813,7.317,16.837,7.339z M17.691,7.669
			c-0.006,0.016-0.011,0.032-0.017,0.047c0.005,0.038,0.008,0.061,0.033,0.076c0.018,0.012,0.039,0,0.051-0.014
			c0.015-0.01,0.021-0.028,0.03-0.047c0.006-0.048-0.004-0.07-0.023-0.09c-0.014-0.001-0.025-0.003-0.039-0.005
			C17.715,7.647,17.703,7.658,17.691,7.669z M16.491,7.506c-0.002,0.033-0.001,0.051,0.008,0.067
			c0.011,0.026,0.036,0.042,0.066,0.029c0.027-0.014,0.038-0.034,0.04-0.087c-0.02-0.03-0.037-0.058-0.08-0.059
			C16.511,7.474,16.502,7.483,16.491,7.506z M18.107,7.314c-0.023,0.028-0.021,0.063-0.018,0.099l0.041,0.04
			c0.033-0.004,0.055-0.023,0.069-0.059c0.015-0.031,0.01-0.071,0.006-0.094c-0.008-0.008-0.017-0.017-0.024-0.025
			C18.146,7.273,18.123,7.283,18.107,7.314z M17.586,7.275c-0.008-0.022-0.015-0.043-0.022-0.065l-0.05-0.01
			c-0.017,0.014-0.025,0.016-0.036,0.04c-0.015,0.02-0.021,0.062-0.013,0.085c0.007,0.027,0.02,0.033,0.039,0.044
			c0.016-0.005,0.032-0.01,0.048-0.015C17.566,7.331,17.578,7.313,17.586,7.275z M13.45,9.32c0.013-0.004,0.026-0.008,0.04-0.012
			c0.013-0.022,0.025-0.052,0.008-0.078c-0.008-0.016-0.021-0.021-0.042-0.023c-0.017,0.012-0.026,0.013-0.034,0.035
			c-0.01,0.019-0.006,0.042,0.005,0.055C13.433,9.309,13.439,9.313,13.45,9.32z M14.746,8.886c-0.007-0.018-0.008-0.022-0.026-0.027
			c-0.05,0.031-0.158,0.109-0.201,0.124c-0.061,0.021-0.198-0.081-0.252-0.1c-0.016,0.01-0.022,0.01-0.03,0.031
			c-0.016,0.082,0.106,0.101,0.125,0.159c-0.06,0.017-0.128,0.055-0.108,0.144c0.009,0.005,0.018,0.01,0.026,0.016
			c0.074,0.021,0.162-0.088,0.228-0.101c0.063-0.013,0.11,0.061,0.173,0.043c0.013-0.007,0.016-0.01,0.021-0.023
			c0.021-0.051-0.022-0.096-0.046-0.113V9.025C14.696,8.986,14.725,8.948,14.746,8.886z M15.381,8.847l-0.003-0.012
			c-0.104-0.021-0.205,0.127-0.293,0.104c-0.101-0.026-0.178-0.11-0.282-0.116c-0.009,0.009-0.018,0.018-0.026,0.027
			c0.006,0.085,0.104,0.117,0.151,0.158c-0.045,0.051-0.126,0.02-0.137,0.116c0.003,0.01,0.006,0.021,0.01,0.031
			c0.085,0.06,0.217-0.057,0.3-0.07c0.072-0.012,0.148,0.089,0.217,0.05c0.011-0.006,0.011-0.006,0.017-0.02
			c0.02-0.051-0.028-0.101-0.057-0.112V8.99C15.313,8.975,15.396,8.901,15.381,8.847z M14.144,8.928l-0.132,0.116
			c-0.059,0.02-0.124-0.075-0.172-0.097c-0.013,0.009-0.017,0.015-0.023,0.031c0.005,0.08,0.058,0.101,0.088,0.151
			c-0.04,0.05-0.08,0.043-0.08,0.147c0.007,0.008,0.014,0.016,0.021,0.023c0.059-0.025,0.114-0.061,0.158-0.105
			c0.047,0.009,0.069,0.043,0.119,0.047c0.038-0.06,0-0.096-0.015-0.151c0.029-0.044,0.06-0.08,0.06-0.159
			C14.158,8.931,14.151,8.929,14.144,8.928z M16.112,8.854V8.832c-0.006-0.004-0.012-0.008-0.017-0.012
			c-0.065-0.026-0.223,0.082-0.286,0.097c-0.07,0.017-0.272-0.104-0.349-0.127c-0.016,0.01-0.022,0.009-0.03,0.027
			c-0.013,0.049,0.118,0.142,0.159,0.151c0.004,0.005,0.007,0.01,0.011,0.015c-0.042,0.038-0.117,0.017-0.144,0.074
			c-0.011,0.014-0.013,0.037-0.003,0.054c0.017,0.039,0.07,0.035,0.113,0.023c0.081-0.023,0.162-0.046,0.243-0.07
			c0.057,0.01,0.189,0.089,0.236,0.054c0.011-0.007,0.012-0.011,0.017-0.023c-0.001-0.055-0.03-0.091-0.067-0.104
			c-0.001-0.002-0.002-0.005-0.003-0.008C16.027,8.931,16.081,8.914,16.112,8.854z M17.297,8.917
			c-0.014-0.12-0.205,0.066-0.275,0.054c-0.082-0.015-0.129-0.119-0.225-0.124c-0.004,0.004-0.007,0.007-0.01,0.011
			c0.003,0.07,0.05,0.121,0.088,0.151c0.001,0.004,0.001,0.008,0.001,0.012c-0.024,0.033-0.05,0.048-0.049,0.112
			c0.063,0.078,0.121-0.041,0.203-0.016c0.076,0.023,0.135,0.1,0.231,0.101c0.008-0.012,0.016-0.023,0.023-0.035
			c-0.001-0.097-0.067-0.094-0.116-0.132V9.048C17.221,9.009,17.266,8.979,17.297,8.917z M13.731,9.457
			c0.146-0.025,0.331-0.022,0.502-0.055c0.068-0.002,0.136-0.005,0.204-0.008c0.103-0.02,0.217-0.011,0.324-0.023
			c0.101-0.009,0.201-0.019,0.301-0.027h1.33c0.338,0.025,0.676,0.049,1.013,0.074c0.196,0.029,0.392,0.057,0.588,0.086
			c0.027-0.03,0.056-0.058,0.077-0.094V9.406c-0.019-0.006-0.038-0.013-0.057-0.02l0.003-0.023
			c-0.026-0.003-0.042-0.007-0.071-0.012c0.003,0.005,0.005,0.01,0.008,0.016c-0.008,0.007-0.175-0.004-0.197-0.011
			c-0.154-0.053-0.347-0.033-0.517-0.074c-0.121-0.03-0.278-0.028-0.428-0.051c-0.082-0.004-0.164-0.008-0.247-0.012h-0.26
			c-0.145-0.031-0.378-0.042-0.537-0.012c-0.097,0.018-0.231,0-0.301-0.016c-0.019,0.003-0.037,0.005-0.057,0.008
			c-0.049-0.002-0.098-0.005-0.146-0.008C15.242,9.209,15.203,9.2,15.17,9.207c-0.153,0.032-0.323,0.006-0.497,0.023
			c-0.154,0.015-0.285,0.032-0.428,0.063c-0.104,0.005-0.209,0.01-0.314,0.015c-0.073,0.021-0.166,0.034-0.244,0.051
			c-0.06,0.012-0.107,0.029-0.155,0.039c-0.06,0.013-0.093-0.038-0.153,0.023c0.007,0.034,0.005,0.052,0.024,0.07
			C13.51,9.515,13.629,9.474,13.731,9.457z M13.767,8.979c-0.046,0.027-0.103,0.075-0.136,0.12c-0.02-0.005-0.04-0.01-0.06-0.015
			c0.004,0.062,0.007,0.124,0.01,0.187c0.021-0.004,0.021-0.015,0.034-0.02c0.038-0.014,0.082,0.039,0.115,0.047
			c0.012-0.008,0.015-0.009,0.021-0.023c0.019-0.039-0.006-0.098-0.027-0.117c0.013-0.064,0.058-0.081,0.06-0.17
			C13.777,8.983,13.771,8.981,13.767,8.979z M13.478,9.098c-0.013-0.002-0.026-0.005-0.039-0.007
			c-0.02,0.014-0.027,0.018-0.041,0.039c0,0.006-0.001,0.013-0.001,0.02c0.012,0.015,0.021,0.023,0.036,0.035
			c0.034-0.002,0.043-0.019,0.055-0.047C13.484,9.125,13.48,9.111,13.478,9.098z M18.741,5.419c0.05-0.021,0.106-0.023,0.132-0.076
			c0.019-0.037,0.018-0.078,0.009-0.125c-0.03-0.083-0.071-0.132-0.135-0.125c-0.029,0.007-0.06,0.014-0.089,0.021
			c-0.065,0.023-0.103,0.124-0.089,0.209C18.587,5.392,18.665,5.426,18.741,5.419z M18.417,5.678v-0.01
			c0-0.011,0.006-0.021,0.006-0.032c0.002-0.049-0.015-0.092-0.049-0.091c-0.04,0.009-0.044,0.008-0.063,0.041
			c-0.011,0.028-0.007,0.058,0,0.08c0.015,0.035,0.036,0.053,0.065,0.042C18.393,5.7,18.402,5.685,18.417,5.678z M16.65,4.83V4.789
			c-0.01-0.011-0.019-0.021-0.027-0.032c-0.051,0.001-0.057,0.003-0.08,0.032c0.015,0.026,0.011,0.025,0.036,0.042H16.65z
			 M16.909,4.841c0.009,0.01,0.018,0.021,0.026,0.031c0.03-0.007,0.06-0.014,0.09-0.021V4.81c-0.013-0.011-0.024-0.021-0.036-0.032
			c-0.026,0.003-0.054,0.007-0.08,0.011V4.841z M16.868,4.799c0.052-0.034,0.104-0.102,0.101-0.175
			c-0.022-0.079-0.025-0.125-0.087-0.16c-0.023-0.01-0.069-0.026-0.094-0.037c-0.098-0.005-0.131,0.034-0.169,0.1
			c-0.026,0.031-0.043,0.089-0.022,0.136C16.646,4.789,16.725,4.846,16.868,4.799z M16.819,4.861
			c-0.126-0.005-0.191,0.023-0.25,0.094v0.053c0.019,0.014,0.036,0.028,0.054,0.042c0.003,0.003,0.006,0.007,0.009,0.011
			c0.063,0.014,0.09-0.032,0.125-0.042c0.101-0.029,0.114,0.082,0.206,0.042c0.012-0.007,0.023-0.014,0.035-0.021l-0.009-0.063
			C16.954,4.891,16.896,4.899,16.819,4.861z M18.498,5.437c0.036,0.017,0.049,0.007,0.071-0.021
			c-0.009-0.014-0.019-0.028-0.027-0.042c-0.021,0.007-0.041,0.014-0.063,0.021v0.01C18.491,5.438,18.479,5.418,18.498,5.437z
			 M18.797,5.638c0.019-0.042,0.012-0.073-0.022-0.127c-0.027-0.01-0.054-0.021-0.08-0.031c-0.126-0.009-0.229-0.001-0.25,0.115
			c0,0.026,0.018,0.026,0.026,0.033c0.056,0.031,0.111-0.053,0.19-0.021c0.039,0.015,0.033,0.057,0.108,0.059
			c-0.014,0.033-0.021,0.066-0.004,0.075c0.041,0.041,0.098,0.02,0.105-0.024c0.008-0.032,0.006-0.054-0.017-0.081
			C18.828,5.617,18.82,5.631,18.797,5.638z M18.801,5.416c-0.006,0.007-0.012,0.014-0.018,0.021c0,0.018-0.008,0.02-0.008,0.037
			c0.005,0.007,0.017,0.032,0.022,0.032c0.011,0.005,0.044,0.016,0.065-0.005c0.03-0.029,0.015-0.049-0.009-0.084H18.801z
			 M18.613,5.678c-0.17-0.048-0.241,0.167-0.31,0.275c-0.216,0.336-0.496,0.599-0.672,0.981c-0.012-0.014-0.023-0.028-0.036-0.042
			c-0.023-0.017-0.027-0.019-0.042-0.047c0.005-0.063,0.004-0.131-0.002-0.204c-0.006-0.003-0.012-0.007-0.019-0.011
			c-0.041,0.036-0.069,0.118-0.089,0.178c-0.054-0.004-0.107-0.007-0.16-0.011c-0.014-0.066-0.027-0.136-0.045-0.188
			c-0.021-0.017-0.039,0.009-0.043,0.04c-0.012,0.059-0.025,0.1-0.037,0.16c-0.033,0.01-0.065,0.021-0.099,0.031
			c-0.021-0.316-0.046-1.329-0.19-1.65c-0.025-0.056-0.03-0.101-0.082-0.103c-0.058-0.002-0.109,0.021-0.138,0.073
			c-0.053,0.097-0.104,0.291-0.135,0.375c-0.152,0.429-0.342,0.767-0.401,1.306l0.009,0.01c0.03-0.003,0.06-0.007,0.09-0.01
			l0.384-1.235c0.053-0.157,0.051-0.335,0.188-0.397c0.057,0.055,0.095,0.312,0.125,0.523c0.032,0.418,0.065,0.837,0.098,1.256
			c0.162-0.063,0.382-0.135,0.536,0c0.049,0.043,0.032,0.074,0.098,0.115l0.58-0.795c0.059-0.062,0.233-0.331,0.33-0.481
			c0.006,0.003,0.013,0.007,0.019,0.01c0.001,0.427-0.236,0.926-0.319,1.327c0.026,0.003,0.051,0.01,0.078,0.013
			c0.098-0.346,0.196-0.691,0.295-1.036c0.023-0.091,0.079-0.345,0.035-0.418C18.643,5.692,18.642,5.692,18.613,5.678z
			 M18.479,7.027c0.006,0.018,0.012,0.035,0.019,0.053c0.121,0.012,0.153-0.125,0.115-0.23C18.566,6.868,18.495,6.975,18.479,7.027z
			 M16.639,5.701c-0.09,0.271-0.135,0.537-0.229,0.824c-0.04,0.12-0.103,0.246-0.116,0.397c0.033,0.029,0.048,0.053,0.063,0.104
			c0.027-0.015,0.028-0.011,0.045-0.042c0.066-0.115,0.239-0.084,0.26,0.157c0.018,0.003,0.142-0.066,0.159-0.063
			c0.033-0.028,0.065-0.056,0.099-0.084c-0.05-0.495-0.041-1.228-0.149-1.682C16.712,5.406,16.674,5.598,16.639,5.701z
			 M16.034,6.578c0.01-0.093,0.001-0.151-0.026-0.22H15.98c-0.006,0.007-0.012,0.014-0.018,0.021
			c-0.018,0.073-0.036,0.146-0.054,0.22c0.009,0.007,0.018,0.014,0.026,0.021C15.969,6.605,16.001,6.591,16.034,6.578z M18.238,6.39
			c-0.172,0.254-0.4,0.475-0.544,0.764c0.009,0.028-0.038,0.078,0.004,0.134c0.079,0.015,0.074,0.119,0.091,0.178
			c0.016-0.014,0.125-0.067,0.14-0.081c0.037-0.105,0.175-0.267,0.149-0.169h0.018c0.009,0.003,0.019,0.007,0.027,0.011
			c0.025-0.035,0.037-0.044,0.082-0.058c0.102-0.394,0.223-0.793,0.309-1.19C18.418,6.115,18.334,6.253,18.238,6.39z"/>
	</g>
</g>
<path fill="#878787" d="M22.252,25.024c1.458-1.706,3.202-5.01,3.908-8.258c0.545-2.507,0.913-6.499,0.885-7.781
	c-0.826-0.285-1.853-1.044-3.051-2.565c-0.812-1.029-1.312-3.135-1.312-3.135s-3.289-0.493-6.695-0.512V2.771
	c-0.034,0-0.067,0-0.101,0c-0.034,0-0.068,0-0.102,0v0.001C12.379,2.791,9.09,3.284,9.09,3.284S8.589,5.39,7.778,6.419
	C6.58,7.94,5.554,8.699,4.728,8.984c-0.028,1.283,0.34,5.275,0.885,7.781c0.713,3.278,2.619,6.702,4.102,8.365
	c0,0-0.399,0.071-0.668,0.11c-1.458-1.721-3.287-4.982-4.019-8.348c-0.557-2.558-0.929-6.569-0.898-7.921l0.009-0.417l0.395-0.136
	c0.569-0.196,1.513-0.767,2.776-2.37c0.596-0.757,1.067-2.353,1.198-2.903l0.094-0.394l0.4-0.06
	c0.125-0.019,2.896-0.429,6.006-0.506l-0.003-0.013h0.781l0.062,0h0.038h0.041l0.062,0l0.781,0.001l-0.003,0.012
	c3.109,0.077,5.88,0.488,6.006,0.506l0.4,0.06l0.093,0.394c0.131,0.55,0.602,2.144,1.199,2.903c1.264,1.603,2.207,2.174,2.776,2.37
	l0.394,0.136l0.01,0.417c0.03,1.353-0.342,5.363-0.898,7.922c-0.733,3.371-2.462,6.534-3.847,8.253L22.252,25.024z"/>
<path fill="#191818" d="M15.887,2.771c-0.034,0-0.068,0-0.102,0v0.001C12.379,2.791,9.09,3.284,9.09,3.284S8.589,5.39,7.778,6.419
	C6.58,7.94,5.554,8.699,4.728,8.984c-0.028,1.283,0.34,5.275,0.885,7.781c0.713,3.31,2.654,6.698,4.123,8.418l0.153-0.021
	c-1.416-1.612-3.424-5.024-4.159-8.423c-0.518-2.381-0.896-6.271-0.884-7.671c0.938-0.352,1.957-1.218,3.026-2.576
	C8.61,5.557,9.085,3.791,9.187,3.391c0.521-0.074,3.531-0.482,6.6-0.5l0.094,0h0.006l0,0h0.007l0.094,0
	c3.069,0.017,6.078,0.425,6.6,0.5c0.101,0.4,0.576,2.166,1.313,3.103c1.071,1.358,2.089,2.225,3.027,2.576
	c0.013,1.4-0.366,5.29-0.884,7.671c-0.737,3.39-2.706,6.844-4.074,8.402l0.122,0.043c1.473-1.697,3.346-5.067,4.069-8.42
	c0.545-2.507,0.913-6.499,0.885-7.781c-0.826-0.285-1.853-1.044-3.051-2.565c-0.812-1.029-1.312-3.135-1.312-3.135
	s-3.289-0.493-6.695-0.512V2.771C15.953,2.771,15.92,2.771,15.887,2.771 M15.987,2.172l0.781,0.001l-0.003,0.012
	c3.109,0.077,5.88,0.488,6.006,0.506l0.4,0.06l0.093,0.394c0.131,0.55,0.602,2.144,1.199,2.903c1.264,1.603,2.207,2.174,2.776,2.37
	l0.394,0.136l0.01,0.417c0.03,1.353-0.342,5.363-0.898,7.922c-0.772,3.552-2.667,6.9-4.1,8.508l0.089,0.08
	c1.443-1.619,3.351-4.99,4.128-8.563c0.558-2.566,0.931-6.592,0.9-7.95l-0.009-0.417l-0.002-0.083l-0.079-0.027l-0.394-0.136
	c-0.554-0.191-1.476-0.75-2.722-2.331c-0.584-0.742-1.047-2.314-1.176-2.857l-0.094-0.394L23.27,2.645l-0.08-0.012l-0.4-0.06
	c-0.115-0.017-2.818-0.417-5.868-0.504l0.004-0.016h-0.156l-0.781-0.001l0,0l0,0h-0.001h-0.061l-0.041,0l-0.038,0h-0.062h-0.781
	h-0.157l0.005,0.017c-3.05,0.087-5.753,0.487-5.868,0.504l-0.4,0.06l-0.08,0.012L8.484,2.724L8.391,3.118
	C8.262,3.661,7.797,5.234,7.214,5.975c-1.244,1.58-2.167,2.14-2.721,2.331L4.099,8.441L4.021,8.469L4.019,8.552l-0.01,0.417
	c-0.03,1.358,0.344,5.384,0.901,7.95c0.764,3.514,2.718,6.917,4.211,8.591l0.089-0.08c-0.027-0.031-0.055-0.063-0.083-0.095
	c-1.471-1.694-3.354-5.014-4.1-8.442c-0.557-2.558-0.929-6.569-0.898-7.921l0.009-0.417l0.395-0.136
	c0.569-0.196,1.513-0.767,2.776-2.37c0.596-0.757,1.067-2.353,1.198-2.903l0.094-0.394l0.4-0.06
	c0.125-0.019,2.896-0.429,6.006-0.506l-0.003-0.013h0.781l0.062,0h0.038h0.041L15.987,2.172"/>
<path fill="#F3F0E7" d="M17.003,23.231c-0.468-0.718-0.207-1.492,0.243-1.941c0.023-0.093,0.11-0.101,0.152-0.228
	c0.138-0.485,0.509-0.732,0.533-0.865c0.033-0.179,0.793,0.217,1.076,0.502c0.246,0.315-0.27,0.951-0.273,1.226
	c-0.169,0.034-0.218,0.005-0.386,0.039c-0.012,0.078-0.014,0.23-0.024,0.309c0,0.09,0,0.179,0,0.269
	c0.861-0.186,1.006-1.1,1.235-1.901c-0.201-0.268-0.711-0.68-0.837-0.872c0.078-0.082,0.257-0.156,0.305-0.191
	c0.622-0.455,1.09-1.119,1.112-1.648c0.017-0.159,0.137-0.199,0.24-0.2c0.093-0.001,0.44-0.102,0.681-0.31
	c0.102-0.018,0.114-0.155,0.114-0.177c0-0.011,0-0.082,0-0.093c0.001-0.13-0.253-0.119-0.424-0.156
	c-0.154-0.033-0.39-0.101-0.548-0.168c-0.137-0.058-0.225-0.097-0.372-0.159c-0.055-0.023-0.148-0.102-0.204-0.125
	c-0.062-0.025-0.14-0.018-0.201-0.043c-0.049-0.021-0.094-0.043-0.138-0.067c0.006-0.002,0.012-0.006,0.019-0.007
	c0.43-0.069,0.467-0.316,0.356-0.511c-0.034-0.061-0.102-0.086-0.109-0.086c-0.009-0.001-0.001,0.034,0.019,0.095
	c0.063,0.196,0.037,0.295-0.324,0.386c-0.043,0.011-0.139-0.014-0.177-0.007c-0.086-0.053-0.102-0.101-0.204-0.141
	c-0.082-0.032-0.328-0.161-0.324-0.222c0-0.014,0.16-0.063,0.366-0.12c0.286-0.08,0.38-0.148,0.468-0.297
	c0.028-0.047,0.011-0.087,0.009-0.091c-0.003-0.005-0.023,0.016-0.056,0.054c-0.107,0.125-0.164,0.162-0.444,0.211
	c-0.188,0.033-0.297,0.061-0.292,0.052c0.061-0.103,0.166-0.167,0.274-0.411c0.028-0.059,0.062-0.13,0.104-0.228
	c0.033-0.079,0.104-0.281,0.106-0.322c0.003-0.048-0.002-0.251-0.057-0.267c-0.021-0.006-0.069,0.171-0.078,0.25
	c-0.017,0.125-0.046,0.248-0.064,0.292c-0.023,0.054-0.033,0.123-0.061,0.15s-0.053,0.008-0.085-0.021
	c-0.022-0.021-0.147-0.09-0.139-0.233c0.003-0.031-0.017-0.256-0.031-0.254c-0.055,0.007-0.065,0.235-0.067,0.262
	c-0.014,0.189,0.143,0.265,0.161,0.282c0.03,0.027,0.014,0.044,0.022,0.062c0.015,0.031,0,0.084-0.049,0.122
	c-0.045,0.034-0.047,0.137-0.183,0.204c-0.04,0.028-0.052,0.157-0.104,0.181c-0.046,0.001-0.033-0.063-0.082-0.115
	c-0.074-0.079-0.149-0.135-0.16-0.229c-0.003-0.036,0.042-0.246,0.042-0.283c0-0.101,0.045-0.183,0.073-0.271
	c0.062-0.194,0.039-0.323,0.051-0.348c0.025-0.056,0.006-0.079-0.033,0.001c-0.029,0.06-0.093,0.19-0.129,0.301
	c-0.011,0.034-0.023,0.107-0.071,0.102c-0.033-0.003-0.067-0.1-0.075-0.125c0,0.001,0,0.001,0,0.002
	c0.014,0.044-0.067-0.275-0.101-0.367c-0.009-0.025-0.074-0.2-0.095-0.198c-0.057,0.011-0.028,0.193-0.024,0.219
	c0.052,0.272,0.186,0.522,0.19,0.701c0.001,0.02,0.038,0.094,0.009,0.106c-0.029,0.012-0.081,0.028-0.176-0.051
	c-0.092-0.077-0.137-0.155-0.184-0.232c-0.039-0.063-0.143-0.281-0.169-0.27c-0.062,0.026,0.083,0.314,0.108,0.344
	c0.02,0.022,0.096,0.118,0.183,0.221c-0.024-0.005-0.051-0.008-0.08-0.007c-0.033,0-0.244,0.021-0.245,0.038
	c-0.008,0.067,0.203,0.051,0.237,0.051c0.154,0,0.248,0.115,0.282,0.151c0.016,0.016,0.029,0.032,0.039,0.046
	c0.006,0.012,0.011,0.023,0.017,0.034c0.003,0.014-0.001,0.027-0.014,0.039c-0.033,0.034-0.125,0.033-0.192,0.054
	c-0.058,0.019-0.211,0.027-0.35,0.019c-0.088-0.005-0.253-0.034-0.248,0.055c0.002,0.029,0.194,0.07,0.255,0.08
	c0.044,0.007,0.287-0.007,0.394-0.038c0.1-0.029,0.189,0.016,0.269,0.004c0.091,0.109,0.182,0.144,0.242,0.185
	c0.075,0.074,0.403,0.293,0.503,0.417c0.045,0.056-0.037,0.117-0.064,0.069c-0.021,0.015-0.097-0.023-0.226-0.08
	c-0.467-0.206-0.598-0.092-0.651-0.026c0,0.011,0.042,0.04,0.042,0.05c0.208,0.208,0.391,0.504,0.74,0.404
	c0.101,0.216-0.001,0.389-0.101,0.572c-0.243,0.447-1.275,0.131-1.915,0.558c-1.043,0.035-1.294,0.02-1.736-0.019
	c-0.328-0.065-1.21-0.121-1.403-0.042c-0.093,0.037-0.16,0.064-0.16,0.109c-0.194-0.039-0.464-0.02-0.553-0.361
	c-0.143,0.09-0.039-0.225-0.061-0.236c-0.254,0.27-0.42,0.322-0.402,0.882c0.031,0.152,0.104,0.346,0.181,0.453
	c0.177,0.946,0.442,0.928,0.565,1.449c-0.126,0.472-0.493,0.613-0.725,0.792c-0.021,0.016-0.065,0.031-0.083,0.048
	c-0.015,0.014-0.021,0.068-0.033,0.1c-0.109,0.283-0.099,1.518-0.182,1.725c-0.025,0.144,0.087,0.256,0.087,0.368
	c0.135,0,0.396-0.006,0.53-0.006c0.006-0.14-0.213-0.353-0.219-0.486c-0.021-0.427,0.016-0.791,0.066-1.142
	c0.008-0.052,0.029-0.157,0.076-0.19c0.165-0.115,0.274-0.162,0.573-0.307c0.058,0.097-0.001,0.108-0.128,0.285
	c-0.025,0.037-0.115,0.158-0.123,0.205c-0.008,0.052,0.037,0.352,0.051,0.405c0.061,0.234,0.229,0.85,0.323,1.093
	c0.022,0.034,0.045,0.067,0.067,0.101c0.123,0,0.354-0.021,0.479-0.021c-0.034-0.05-0.142-0.188-0.217-0.276
	c-0.14-0.164-0.203-0.373-0.241-0.508c-0.052-0.212-0.086-0.506-0.023-0.674c0.043-0.116,0.267-0.436,0.371-0.525
	c0.351-0.298,0.463-0.322,0.602-0.634c-0.011-0.017,0.409,0.174,0.712,0.152c0.599-0.042,1.574-0.257,1.72-0.219
	c-0.008,0.632-0.226,1.276-0.305,1.856c0,0.246-0.021,0.452,0.062,0.603c0.044,0.08,0.002,0.171,0.041,0.29c0.155,0,0.312,0,0.467,0
	C17.027,23.25,16.992,23.254,17.003,23.231z"/>
<g>
	<path fill="#D4D2C9" d="M9.641,28.578c-0.095,0.097-0.213,0.162-0.354,0.194c-0.097,0.022-0.189,0.025-0.277,0.01
		c-0.087-0.016-0.169-0.052-0.246-0.111c-0.071-0.057-0.139-0.138-0.201-0.244s-0.115-0.24-0.155-0.402
		c-0.072-0.287-0.077-0.522-0.013-0.706c0.064-0.185,0.198-0.301,0.398-0.347c0.161-0.037,0.31-0.014,0.444,0.069
		c0.135,0.083,0.267,0.231,0.393,0.443c0.047-0.01,0.093-0.019,0.139-0.029c-0.056-0.249-0.112-0.499-0.168-0.748
		c-0.047,0.01-0.094,0.019-0.141,0.029c-0.027,0.034-0.055,0.067-0.083,0.101c-0.078-0.02-0.173-0.032-0.283-0.037
		c-0.11-0.005-0.229,0.006-0.355,0.036c-0.174,0.041-0.331,0.106-0.471,0.197c-0.139,0.091-0.25,0.199-0.333,0.324
		c-0.084,0.127-0.138,0.265-0.162,0.416s-0.015,0.304,0.028,0.461c0.043,0.158,0.111,0.295,0.205,0.412
		c0.093,0.117,0.201,0.207,0.324,0.271c0.125,0.065,0.262,0.105,0.41,0.12c0.148,0.015,0.301,0.004,0.457-0.033
		c0.13-0.03,0.24-0.071,0.329-0.122c0.089-0.051,0.168-0.112,0.237-0.182c0.062-0.063,0.114-0.135,0.156-0.213
		s0.076-0.165,0.104-0.259c-0.049-0.016-0.099-0.033-0.147-0.048C9.814,28.349,9.736,28.48,9.641,28.578z"/>
	<path fill="#D4D2C9" d="M24.144,26.965c0.037,0.008,0.085,0.02,0.141,0.034c0.057,0.015,0.101,0.029,0.131,0.043
		c0.071,0.031,0.136,0.096,0.191,0.193c0.056,0.097,0.09,0.188,0.102,0.273c0.04,0.01,0.079,0.02,0.119,0.029
		c0.044-0.173,0.086-0.347,0.13-0.52c-0.671-0.167-1.346-0.313-2.022-0.438c-0.007,0.038-0.014,0.076-0.021,0.113
		c0.025,0.008,0.062,0.021,0.11,0.041c0.049,0.019,0.086,0.037,0.111,0.054c0.041,0.027,0.065,0.053,0.073,0.078
		c0.007,0.025,0.007,0.055,0,0.09c-0.095,0.484-0.189,0.969-0.284,1.454c-0.007,0.037-0.02,0.065-0.038,0.086
		c-0.018,0.021-0.047,0.036-0.089,0.044c-0.021,0.003-0.058,0.004-0.107,0s-0.089-0.007-0.117-0.01
		c-0.008,0.038-0.015,0.076-0.021,0.114c0.673,0.125,1.343,0.271,2.009,0.439c0.067-0.208,0.134-0.416,0.201-0.624
		c-0.037-0.009-0.074-0.019-0.111-0.028c-0.032,0.043-0.09,0.105-0.175,0.187c-0.084,0.082-0.156,0.14-0.216,0.175
		c-0.022,0.014-0.054,0.021-0.093,0.022s-0.08-0.001-0.124-0.006c-0.038-0.004-0.082-0.011-0.132-0.021s-0.092-0.02-0.127-0.027
		c-0.076-0.017-0.136-0.033-0.178-0.049c-0.043-0.015-0.075-0.035-0.097-0.058c-0.021-0.025-0.034-0.057-0.036-0.095
		s0.004-0.088,0.018-0.15c0.042-0.197,0.084-0.395,0.126-0.592c0.076,0.017,0.151,0.033,0.227,0.05
		c0.062,0.014,0.114,0.032,0.158,0.055c0.043,0.024,0.078,0.057,0.104,0.099c0.018,0.029,0.032,0.076,0.043,0.143
		s0.015,0.121,0.012,0.163c0.039,0.009,0.077,0.019,0.116,0.027c0.067-0.284,0.135-0.568,0.202-0.852
		c-0.04-0.009-0.079-0.019-0.119-0.028c-0.018,0.04-0.045,0.084-0.082,0.135c-0.038,0.05-0.071,0.083-0.1,0.1
		c-0.047,0.026-0.096,0.041-0.146,0.043c-0.049,0.002-0.103-0.004-0.16-0.017c-0.076-0.017-0.151-0.033-0.228-0.049
		c0.056-0.264,0.112-0.527,0.169-0.792C23.924,26.916,24.034,26.94,24.144,26.965z"/>
	<path fill="#D4D2C9" d="M12.92,26.772c-0.08-0.126-0.182-0.23-0.306-0.311c-0.12-0.079-0.26-0.134-0.418-0.166
		c-0.157-0.032-0.322-0.035-0.495-0.011c-0.173,0.025-0.333,0.076-0.478,0.151c-0.145,0.077-0.264,0.172-0.357,0.287
		c-0.096,0.117-0.162,0.25-0.2,0.399c-0.039,0.148-0.043,0.307-0.013,0.476c0.029,0.162,0.087,0.303,0.174,0.425
		c0.086,0.121,0.19,0.218,0.312,0.293c0.123,0.076,0.259,0.128,0.406,0.156c0.148,0.028,0.3,0.03,0.457,0.008
		c0.195-0.027,0.359-0.078,0.494-0.153c0.134-0.075,0.248-0.17,0.342-0.285c0.09-0.111,0.154-0.237,0.193-0.38
		s0.051-0.291,0.035-0.443C13.049,27.047,13,26.898,12.92,26.772z M12.453,27.687c-0.007,0.116-0.027,0.221-0.063,0.316
		c-0.032,0.09-0.082,0.165-0.147,0.224c-0.066,0.059-0.149,0.095-0.25,0.109c-0.104,0.015-0.193,0.003-0.271-0.035
		c-0.077-0.038-0.146-0.097-0.206-0.176c-0.059-0.079-0.107-0.174-0.146-0.286c-0.04-0.111-0.07-0.232-0.091-0.362
		c-0.049-0.306-0.037-0.55,0.037-0.733c0.075-0.183,0.211-0.29,0.406-0.317c0.114-0.017,0.214-0.002,0.297,0.041
		c0.084,0.044,0.154,0.107,0.213,0.19c0.056,0.083,0.101,0.181,0.133,0.293c0.033,0.112,0.058,0.228,0.072,0.349
		C12.454,27.443,12.46,27.571,12.453,27.687z"/>
	<path fill="#D4D2C9" d="M15.859,27.141c-0.066-0.04-0.145-0.072-0.234-0.095s-0.176-0.038-0.259-0.042
		c0-0.01-0.001-0.019-0.001-0.028c0.082-0.021,0.158-0.045,0.23-0.074c0.071-0.029,0.133-0.062,0.184-0.1
		c0.057-0.041,0.1-0.088,0.13-0.143c0.03-0.054,0.044-0.117,0.043-0.188c-0.003-0.154-0.074-0.269-0.217-0.344
		c-0.142-0.076-0.372-0.109-0.689-0.095c-0.42,0.019-0.84,0.045-1.259,0.079c0.003,0.039,0.006,0.077,0.01,0.115
		c0.033,0.002,0.073,0.005,0.118,0.011c0.045,0.005,0.085,0.013,0.119,0.022c0.047,0.015,0.077,0.033,0.091,0.056
		c0.014,0.023,0.021,0.052,0.024,0.087c0.035,0.492,0.069,0.984,0.104,1.476c0.003,0.038-0.001,0.07-0.014,0.095
		c-0.012,0.025-0.037,0.046-0.073,0.064c-0.02,0.009-0.053,0.019-0.101,0.028s-0.088,0.018-0.119,0.023
		c0.003,0.038,0.007,0.077,0.01,0.115c0.376-0.031,0.754-0.055,1.131-0.072c0.162-0.007,0.304-0.022,0.423-0.045
		c0.12-0.023,0.226-0.058,0.317-0.105c0.086-0.045,0.152-0.104,0.198-0.178s0.067-0.165,0.066-0.271
		c-0.001-0.089-0.023-0.166-0.066-0.231C15.983,27.237,15.928,27.183,15.859,27.141z M14.714,26.188
		c0.023-0.002,0.052-0.005,0.085-0.008c0.033-0.003,0.06-0.005,0.081-0.006c0.144-0.007,0.254,0.021,0.328,0.083
		c0.075,0.062,0.114,0.151,0.118,0.268c0.005,0.127-0.032,0.229-0.111,0.307s-0.204,0.12-0.376,0.129
		c-0.027,0.001-0.055,0.003-0.083,0.004C14.742,26.707,14.728,26.448,14.714,26.188z M15.369,27.866
		c-0.074,0.082-0.172,0.125-0.294,0.131c-0.069,0.003-0.128-0.006-0.178-0.029c-0.05-0.022-0.08-0.052-0.092-0.088
		c-0.014-0.256-0.027-0.512-0.041-0.768c0.016-0.001,0.04-0.004,0.073-0.008c0.033-0.003,0.06-0.005,0.08-0.006
		c0.174-0.009,0.31,0.025,0.404,0.099c0.096,0.075,0.146,0.185,0.15,0.332C15.478,27.672,15.443,27.784,15.369,27.866z"/>
	<path fill="#D4D2C9" d="M18.894,27.212c-0.063-0.046-0.137-0.084-0.224-0.116c-0.088-0.032-0.172-0.054-0.255-0.066
		c0.001-0.009,0.002-0.019,0.002-0.028c0.084-0.013,0.162-0.031,0.236-0.053c0.073-0.022,0.138-0.05,0.192-0.083
		c0.06-0.036,0.107-0.079,0.142-0.13c0.035-0.051,0.055-0.112,0.061-0.183c0.011-0.153-0.051-0.275-0.186-0.363
		s-0.36-0.142-0.678-0.156c-0.42-0.019-0.841-0.031-1.261-0.035c0,0.039-0.001,0.077-0.001,0.115
		c0.033,0.005,0.072,0.013,0.117,0.021c0.044,0.009,0.083,0.021,0.117,0.034c0.045,0.019,0.073,0.04,0.085,0.063
		c0.011,0.024,0.017,0.054,0.016,0.089c-0.01,0.493-0.019,0.986-0.028,1.479c-0.001,0.038-0.009,0.069-0.022,0.093
		c-0.015,0.024-0.041,0.043-0.079,0.057c-0.02,0.008-0.054,0.014-0.103,0.02c-0.048,0.005-0.088,0.009-0.12,0.012
		c0,0.038-0.001,0.077-0.001,0.115c0.377,0.003,0.755,0.014,1.132,0.03c0.163,0.007,0.305,0.005,0.426-0.007
		s0.229-0.037,0.325-0.076c0.09-0.036,0.161-0.089,0.214-0.159c0.052-0.07,0.083-0.158,0.091-0.264
		c0.006-0.089-0.009-0.167-0.046-0.235C19.009,27.318,18.958,27.26,18.894,27.212z M17.839,26.16c0.024,0,0.053,0,0.086,0
		s0.061,0,0.081,0.001c0.145,0.006,0.251,0.043,0.319,0.112c0.069,0.069,0.1,0.162,0.094,0.278
		c-0.007,0.127-0.054,0.226-0.139,0.296c-0.086,0.07-0.214,0.102-0.386,0.095c-0.028-0.001-0.056-0.002-0.083-0.003
		C17.82,26.678,17.83,26.419,17.839,26.16z M18.341,27.89c-0.081,0.075-0.183,0.109-0.305,0.104
		c-0.069-0.003-0.127-0.018-0.175-0.045c-0.047-0.027-0.075-0.059-0.083-0.096c0.01-0.256,0.019-0.513,0.028-0.769
		c0.016,0,0.04-0.001,0.073-0.001c0.033,0,0.061,0,0.08,0.001c0.174,0.007,0.307,0.053,0.395,0.135
		c0.089,0.083,0.128,0.198,0.12,0.344C18.467,27.706,18.422,27.814,18.341,27.89z"/>
	<path fill="#D4D2C9" d="M21.711,28.072c-0.069,0.082-0.133,0.144-0.192,0.186c-0.039,0.026-0.098,0.038-0.176,0.036
		c-0.078-0.001-0.158-0.009-0.24-0.02c-0.084-0.011-0.148-0.023-0.195-0.035s-0.083-0.028-0.106-0.05
		c-0.024-0.021-0.039-0.051-0.044-0.089c-0.004-0.038-0.003-0.09,0.006-0.154c0.058-0.457,0.116-0.913,0.174-1.37
		c0.005-0.034,0.016-0.064,0.033-0.089c0.017-0.025,0.048-0.042,0.091-0.049c0.036-0.005,0.078-0.007,0.126-0.006
		s0.089,0.002,0.124,0.004c0.005-0.038,0.01-0.076,0.016-0.114c-0.422-0.058-0.845-0.108-1.268-0.151
		c-0.004,0.039-0.008,0.077-0.012,0.115c0.028,0.006,0.065,0.017,0.111,0.03s0.085,0.028,0.117,0.046
		c0.043,0.023,0.069,0.047,0.079,0.072c0.009,0.024,0.012,0.054,0.009,0.089c-0.055,0.491-0.108,0.981-0.163,1.472
		c-0.004,0.039-0.015,0.069-0.031,0.092c-0.018,0.023-0.045,0.04-0.083,0.049c-0.017,0.004-0.049,0.007-0.098,0.008
		s-0.091,0.001-0.127,0.001c-0.004,0.038-0.008,0.076-0.012,0.114c0.667,0.067,1.332,0.154,1.995,0.262
		c0.05-0.219,0.101-0.438,0.151-0.657c-0.038-0.006-0.075-0.012-0.113-0.019C21.838,27.915,21.78,27.991,21.711,28.072z"/>
</g>
<g>
	<path fill="#47205E" d="M9.498,28.5c-0.095,0.097-0.213,0.162-0.354,0.194c-0.097,0.022-0.189,0.025-0.277,0.01
		c-0.087-0.015-0.169-0.052-0.246-0.11C8.55,28.537,8.482,28.455,8.42,28.35c-0.063-0.106-0.115-0.24-0.155-0.402
		c-0.072-0.287-0.077-0.522-0.013-0.706c0.064-0.185,0.198-0.301,0.398-0.347c0.161-0.037,0.31-0.014,0.444,0.069
		s0.267,0.231,0.393,0.443c0.047-0.009,0.093-0.019,0.139-0.028c-0.056-0.25-0.112-0.499-0.168-0.748
		c-0.047,0.01-0.094,0.02-0.141,0.029c-0.027,0.034-0.055,0.067-0.082,0.101c-0.079-0.02-0.174-0.032-0.284-0.037
		c-0.11-0.005-0.229,0.007-0.354,0.036c-0.175,0.041-0.332,0.106-0.472,0.197c-0.139,0.091-0.25,0.199-0.333,0.324
		c-0.084,0.127-0.138,0.266-0.162,0.416C7.605,27.846,7.616,28,7.658,28.157c0.043,0.158,0.111,0.295,0.205,0.412
		c0.093,0.117,0.201,0.207,0.324,0.271c0.126,0.066,0.262,0.105,0.41,0.12c0.148,0.015,0.301,0.004,0.457-0.033
		c0.13-0.03,0.239-0.071,0.329-0.122c0.089-0.051,0.168-0.112,0.237-0.182c0.063-0.064,0.114-0.135,0.156-0.214
		s0.076-0.165,0.104-0.259c-0.049-0.017-0.099-0.033-0.147-0.049C9.672,28.27,9.594,28.402,9.498,28.5z"/>
	<path fill="#47205E" d="M24.001,26.886c0.037,0.008,0.084,0.02,0.141,0.034c0.058,0.014,0.101,0.028,0.131,0.043
		c0.071,0.031,0.136,0.096,0.191,0.193c0.057,0.097,0.09,0.188,0.102,0.273c0.04,0.01,0.08,0.02,0.119,0.03
		c0.044-0.173,0.087-0.347,0.129-0.52c-0.67-0.167-1.344-0.312-2.021-0.438c-0.007,0.038-0.014,0.076-0.021,0.113
		c0.025,0.008,0.062,0.021,0.11,0.041c0.049,0.019,0.086,0.038,0.111,0.054c0.041,0.027,0.065,0.053,0.073,0.079
		c0.007,0.025,0.007,0.055,0,0.09c-0.095,0.484-0.189,0.969-0.284,1.454c-0.007,0.037-0.02,0.065-0.038,0.087
		c-0.018,0.021-0.047,0.035-0.089,0.043c-0.021,0.004-0.058,0.004-0.107,0.001c-0.05-0.004-0.089-0.007-0.117-0.011
		c-0.007,0.038-0.015,0.076-0.021,0.114c0.673,0.125,1.343,0.271,2.009,0.439c0.066-0.208,0.134-0.416,0.201-0.624
		c-0.037-0.009-0.074-0.019-0.112-0.028c-0.031,0.043-0.089,0.105-0.174,0.187c-0.084,0.082-0.156,0.14-0.216,0.175
		c-0.022,0.014-0.054,0.021-0.093,0.022s-0.08-0.001-0.124-0.006c-0.038-0.004-0.082-0.012-0.132-0.022s-0.092-0.02-0.127-0.027
		c-0.076-0.018-0.136-0.034-0.178-0.049c-0.043-0.016-0.075-0.035-0.097-0.059c-0.021-0.025-0.034-0.057-0.036-0.095
		c-0.002-0.039,0.004-0.088,0.018-0.15c0.042-0.197,0.084-0.395,0.126-0.592c0.076,0.016,0.151,0.033,0.228,0.049
		c0.061,0.014,0.113,0.032,0.157,0.056s0.078,0.057,0.104,0.099c0.018,0.028,0.032,0.076,0.043,0.143s0.015,0.121,0.012,0.163
		c0.039,0.009,0.077,0.018,0.116,0.027c0.067-0.284,0.135-0.568,0.202-0.852c-0.04-0.01-0.079-0.019-0.119-0.028
		c-0.018,0.04-0.045,0.084-0.082,0.134c-0.038,0.05-0.071,0.083-0.1,0.1c-0.047,0.027-0.095,0.041-0.145,0.043
		s-0.104-0.003-0.161-0.016c-0.076-0.017-0.151-0.033-0.228-0.05c0.056-0.264,0.112-0.527,0.169-0.792
		C23.781,26.838,23.892,26.861,24.001,26.886z"/>
	<path fill="#47205E" d="M12.777,26.694c-0.08-0.126-0.182-0.23-0.306-0.311c-0.121-0.079-0.26-0.134-0.417-0.166
		c-0.158-0.032-0.323-0.035-0.496-0.011s-0.333,0.075-0.478,0.151s-0.264,0.172-0.357,0.287c-0.096,0.117-0.162,0.25-0.2,0.399
		c-0.039,0.148-0.043,0.307-0.013,0.476c0.029,0.162,0.087,0.304,0.174,0.425c0.086,0.121,0.19,0.218,0.312,0.293
		c0.123,0.076,0.259,0.128,0.406,0.156c0.148,0.028,0.3,0.031,0.457,0.008c0.195-0.028,0.359-0.079,0.494-0.154
		c0.134-0.075,0.248-0.17,0.342-0.285c0.09-0.111,0.154-0.237,0.193-0.38s0.052-0.291,0.035-0.443
		C12.906,26.969,12.857,26.82,12.777,26.694z M12.311,27.608c-0.007,0.115-0.027,0.221-0.063,0.316
		c-0.032,0.09-0.081,0.165-0.147,0.224c-0.066,0.059-0.149,0.095-0.25,0.11c-0.104,0.014-0.193,0.003-0.271-0.035
		c-0.078-0.037-0.146-0.096-0.207-0.176c-0.059-0.079-0.107-0.174-0.146-0.286c-0.04-0.111-0.07-0.232-0.091-0.362
		c-0.049-0.305-0.037-0.55,0.037-0.733c0.075-0.183,0.211-0.29,0.406-0.317c0.114-0.016,0.214-0.002,0.297,0.041
		c0.084,0.044,0.155,0.107,0.213,0.19c0.056,0.083,0.101,0.182,0.134,0.293c0.032,0.112,0.057,0.228,0.071,0.349
		C12.312,27.364,12.317,27.493,12.311,27.608z"/>
	<path fill="#47205E" d="M15.716,27.063c-0.065-0.041-0.144-0.072-0.233-0.096s-0.176-0.038-0.259-0.042
		c0-0.01-0.001-0.019-0.001-0.028c0.082-0.021,0.159-0.045,0.23-0.074s0.133-0.062,0.184-0.1c0.057-0.041,0.1-0.088,0.13-0.143
		c0.03-0.054,0.044-0.117,0.043-0.188c-0.003-0.153-0.074-0.269-0.217-0.344c-0.142-0.076-0.372-0.109-0.689-0.095
		c-0.42,0.019-0.84,0.045-1.259,0.08c0.003,0.038,0.006,0.076,0.01,0.115c0.033,0.002,0.073,0.005,0.118,0.011
		c0.045,0.005,0.085,0.013,0.12,0.022c0.046,0.015,0.076,0.033,0.09,0.056c0.014,0.022,0.021,0.052,0.024,0.087
		c0.035,0.492,0.07,0.984,0.105,1.476c0.002,0.039-0.002,0.07-0.015,0.095c-0.012,0.025-0.037,0.046-0.073,0.064
		c-0.02,0.009-0.053,0.019-0.101,0.028c-0.048,0.01-0.087,0.018-0.119,0.023c0.004,0.039,0.007,0.077,0.01,0.115
		c0.377-0.031,0.754-0.055,1.131-0.072c0.162-0.007,0.304-0.022,0.423-0.045c0.12-0.023,0.226-0.058,0.317-0.105
		c0.086-0.045,0.152-0.104,0.198-0.178s0.068-0.165,0.066-0.271c-0.001-0.089-0.023-0.166-0.066-0.231
		C15.841,27.158,15.785,27.104,15.716,27.063z M14.571,26.11c0.023-0.002,0.052-0.005,0.085-0.008
		c0.033-0.003,0.06-0.005,0.081-0.006c0.144-0.007,0.254,0.021,0.328,0.083c0.075,0.062,0.114,0.151,0.118,0.268
		c0.005,0.127-0.032,0.229-0.111,0.307c-0.079,0.078-0.204,0.12-0.376,0.129c-0.027,0.001-0.055,0.003-0.083,0.004
		C14.6,26.628,14.585,26.369,14.571,26.11z M15.227,27.788c-0.074,0.082-0.172,0.125-0.294,0.131
		c-0.068,0.003-0.128-0.006-0.178-0.029c-0.05-0.023-0.08-0.052-0.091-0.088c-0.015-0.256-0.028-0.512-0.042-0.769
		c0.016-0.001,0.04-0.004,0.073-0.007s0.06-0.005,0.08-0.006c0.174-0.009,0.31,0.025,0.404,0.1c0.097,0.074,0.146,0.185,0.15,0.331
		C15.335,27.594,15.301,27.706,15.227,27.788z"/>
	<path fill="#47205E" d="M18.751,27.133c-0.062-0.046-0.137-0.084-0.224-0.116c-0.088-0.031-0.172-0.054-0.254-0.066
		c0-0.009,0.001-0.019,0.001-0.028c0.084-0.014,0.162-0.031,0.236-0.053c0.073-0.022,0.138-0.05,0.192-0.083
		c0.06-0.035,0.107-0.079,0.142-0.13c0.035-0.052,0.056-0.113,0.06-0.184c0.012-0.153-0.05-0.274-0.185-0.363
		c-0.135-0.088-0.36-0.142-0.678-0.156c-0.42-0.019-0.84-0.031-1.261-0.035c0,0.038,0,0.077-0.001,0.115
		c0.033,0.005,0.072,0.012,0.117,0.021c0.044,0.009,0.083,0.02,0.117,0.033c0.045,0.019,0.073,0.04,0.084,0.064
		c0.012,0.023,0.018,0.054,0.017,0.089c-0.01,0.493-0.019,0.986-0.028,1.479c-0.001,0.039-0.009,0.069-0.022,0.093
		c-0.015,0.024-0.041,0.043-0.079,0.058c-0.02,0.007-0.054,0.014-0.103,0.019c-0.048,0.005-0.088,0.009-0.12,0.012
		c0,0.038-0.001,0.077-0.001,0.115c0.377,0.003,0.755,0.014,1.132,0.03c0.163,0.007,0.305,0.005,0.426-0.007
		c0.122-0.012,0.229-0.037,0.325-0.076c0.09-0.036,0.161-0.089,0.214-0.159c0.052-0.07,0.082-0.158,0.091-0.264
		c0.007-0.088-0.009-0.167-0.046-0.235C18.866,27.239,18.815,27.182,18.751,27.133z M17.697,26.081c0.023,0,0.052,0,0.085,0
		s0.061,0,0.081,0.001c0.145,0.006,0.251,0.043,0.319,0.112c0.069,0.069,0.1,0.162,0.094,0.277c-0.007,0.127-0.054,0.226-0.14,0.296
		c-0.085,0.071-0.213,0.102-0.385,0.095c-0.028-0.001-0.056-0.002-0.083-0.003C17.679,26.6,17.688,26.34,17.697,26.081z
		 M18.198,27.811c-0.081,0.075-0.183,0.109-0.305,0.104c-0.069-0.003-0.127-0.018-0.175-0.045c-0.047-0.026-0.075-0.059-0.083-0.095
		c0.01-0.257,0.019-0.513,0.028-0.769c0.016,0,0.04,0,0.073-0.001s0.061,0,0.08,0.001c0.175,0.007,0.307,0.053,0.395,0.136
		c0.089,0.083,0.128,0.197,0.12,0.343C18.324,27.627,18.279,27.736,18.198,27.811z"/>
	<path fill="#47205E" d="M21.568,27.993c-0.069,0.082-0.133,0.144-0.193,0.186c-0.038,0.026-0.097,0.038-0.175,0.036
		c-0.078-0.001-0.158-0.008-0.24-0.02c-0.083-0.011-0.149-0.023-0.195-0.035c-0.047-0.012-0.083-0.028-0.106-0.05
		c-0.025-0.021-0.039-0.051-0.044-0.089c-0.004-0.038-0.002-0.09,0.006-0.154c0.058-0.457,0.116-0.913,0.174-1.37
		c0.005-0.034,0.016-0.064,0.033-0.089c0.017-0.025,0.048-0.042,0.092-0.048c0.035-0.005,0.077-0.008,0.125-0.007
		c0.047,0.001,0.089,0.002,0.124,0.004c0.005-0.038,0.01-0.076,0.016-0.114c-0.422-0.058-0.845-0.108-1.268-0.15
		c-0.004,0.038-0.008,0.077-0.012,0.115c0.028,0.007,0.065,0.017,0.111,0.03c0.046,0.013,0.085,0.028,0.117,0.045
		c0.043,0.023,0.069,0.047,0.079,0.072c0.009,0.024,0.012,0.054,0.008,0.09c-0.054,0.491-0.107,0.981-0.162,1.472
		c-0.004,0.039-0.015,0.069-0.031,0.092c-0.018,0.023-0.045,0.04-0.083,0.049c-0.017,0.004-0.049,0.007-0.098,0.008
		s-0.091,0.002-0.127,0.001c-0.004,0.038-0.008,0.077-0.012,0.115c0.667,0.066,1.332,0.154,1.995,0.262
		c0.05-0.219,0.101-0.438,0.151-0.657c-0.038-0.006-0.075-0.012-0.113-0.018C21.695,27.837,21.638,27.912,21.568,27.993z"/>
</g>
</svg>
