<?xml version="1.0" encoding="utf-8"?>
<!-- Generator: Adobe Illustrator 16.0.0, SVG Export Plug-In . SVG Version: 6.00 Build 0)  -->
<!DOCTYPE svg PUBLIC "-//W3C//DTD SVG 1.1//EN" "http://www.w3.org/Graphics/SVG/1.1/DTD/svg11.dtd">
<svg version="1.1" id="Layer_1" xmlns="http://www.w3.org/2000/svg" xmlns:xlink="http://www.w3.org/1999/xlink" x="0px" y="0px"
	 width="32px" height="32px" viewBox="0 0 32 32" enable-background="new 0 0 32 32" xml:space="preserve">
<g id="Shape_24_2_">
	<g>
		<circle fill-rule="evenodd" clip-rule="evenodd" fill="#9B1C1F" cx="16.483" cy="16.147" r="15.267"/>
	</g>
</g>
<g id="Shape_24_copy_2_">
	<g>
		<circle fill-rule="evenodd" clip-rule="evenodd" fill="#080606" cx="16.336" cy="16.098" r="13.32"/>
	</g>
</g>
<g id="Shape_23_2_">
	<g>
		<path fill-rule="evenodd" clip-rule="evenodd" fill="#282622" d="M31.456,16.094c0-0.104-0.001-0.208-0.004-0.313
			c-0.001-0.073-0.004-0.147-0.007-0.221c-0.002-0.045-0.002-0.09-0.005-0.134c0-0.007,0-0.014-0.001-0.019
			c-0.001-0.038-0.004-0.076-0.006-0.114c-0.004-0.067-0.008-0.135-0.013-0.202c-0.004-0.051-0.007-0.101-0.011-0.151
			c-0.006-0.084-0.014-0.169-0.022-0.254c-0.006-0.063-0.014-0.128-0.021-0.192c-0.004-0.033-0.008-0.067-0.012-0.102
			c-0.015-0.131-0.032-0.26-0.051-0.39c-0.001-0.012-0.003-0.023-0.005-0.035c-0.011-0.073-0.022-0.146-0.034-0.219
			c-0.002-0.017-0.005-0.032-0.007-0.048c-0.022-0.136-0.047-0.271-0.073-0.406c-0.003-0.015-0.005-0.03-0.009-0.044
			c-0.042-0.217-0.09-0.434-0.142-0.646c-0.005-0.022-0.011-0.045-0.016-0.066c-0.051-0.207-0.106-0.412-0.167-0.615
			c-0.009-0.03-0.018-0.062-0.028-0.094c-0.03-0.101-0.062-0.201-0.094-0.301c-0.012-0.036-0.023-0.073-0.035-0.108
			c-0.018-0.057-0.038-0.113-0.057-0.169c-0.015-0.043-0.03-0.087-0.045-0.129c-0.028-0.079-0.058-0.159-0.087-0.238
			c-0.019-0.05-0.038-0.101-0.057-0.15c-0.019-0.048-0.038-0.097-0.057-0.145c-0.026-0.065-0.053-0.13-0.08-0.194
			c-0.023-0.055-0.046-0.109-0.069-0.164c-0.024-0.058-0.049-0.114-0.075-0.17c-0.018-0.041-0.036-0.082-0.054-0.122
			c-0.038-0.083-0.076-0.165-0.115-0.246c-0.017-0.037-0.035-0.072-0.052-0.107c-0.03-0.063-0.061-0.125-0.092-0.188
			c-0.017-0.031-0.033-0.063-0.049-0.096c-0.043-0.084-0.087-0.167-0.132-0.249c-0.018-0.033-0.036-0.065-0.054-0.099
			c-0.039-0.071-0.078-0.141-0.117-0.21c-0.016-0.028-0.032-0.056-0.048-0.084c-0.044-0.078-0.09-0.153-0.136-0.229
			c-0.018-0.031-0.037-0.062-0.055-0.091c-0.01-0.017-0.02-0.033-0.029-0.05h-0.001c-2.637-4.271-7.36-7.116-12.748-7.116
			c-6.507,0-12.044,4.151-14.109,9.95c-0.005,0.013-0.009,0.026-0.014,0.039c-0.042,0.117-0.082,0.234-0.12,0.353
			c-0.01,0.031-0.02,0.061-0.03,0.092c-0.018,0.057-0.036,0.113-0.053,0.17c-0.017,0.055-0.033,0.11-0.049,0.165
			c-0.019,0.063-0.037,0.126-0.054,0.19c-0.019,0.069-0.038,0.139-0.057,0.209c-0.01,0.036-0.019,0.072-0.028,0.108
			c-0.025,0.101-0.05,0.201-0.073,0.302c-0.004,0.016-0.007,0.03-0.01,0.045C1.864,12.899,1.841,13,1.82,13.103l-0.009,0.041
			c-0.024,0.117-0.046,0.233-0.067,0.352c0,0.001,0,0.001,0,0.002c-0.131,0.736-0.209,1.489-0.228,2.257v0.011
			c-0.003,0.127-0.005,0.254-0.005,0.381c0,0,0,0,0,0.001c0,0.006,0,0.011,0,0.016c0,0.073,0,0.145,0.001,0.218
			c0.018,1.198,0.178,2.362,0.462,3.478c0.001,0.005,0.002,0.011,0.004,0.016c0.029,0.113,0.06,0.228,0.091,0.34
			c0.004,0.014,0.008,0.027,0.012,0.041c0.027,0.096,0.055,0.19,0.084,0.285c0.006,0.021,0.012,0.042,0.019,0.062
			c0.03,0.095,0.06,0.188,0.092,0.283c0.013,0.039,0.026,0.078,0.04,0.117c0.021,0.063,0.042,0.124,0.065,0.186
			c0.026,0.072,0.053,0.146,0.08,0.217c0.015,0.043,0.031,0.086,0.048,0.128c0.022,0.059,0.045,0.117,0.069,0.176
			c0.005,0.015,0.011,0.028,0.017,0.042c0.051,0.126,0.103,0.252,0.157,0.376c0.004,0.008,0.008,0.019,0.012,0.027
			c0.75,1.711,1.808,3.251,3.102,4.552v2.255c0,0.127,0.082,0.23,0.181,0.23h3.081c0.168,0.096,0.339,0.188,0.512,0.276H9.639
			c0.006,0.004,0.013,0.007,0.02,0.01c0.007,0.005,0.015,0.008,0.022,0.012c0.095,0.049,0.19,0.096,0.286,0.143
			c0.011,0.005,0.021,0.011,0.032,0.016c0.097,0.047,0.194,0.093,0.292,0.137c0.018,0.008,0.036,0.016,0.053,0.024
			c0.098,0.044,0.196,0.087,0.294,0.129c0.012,0.005,0.024,0.01,0.037,0.016c0.091,0.038,0.183,0.076,0.275,0.112
			c0.017,0.006,0.034,0.014,0.052,0.021c0.094,0.037,0.189,0.073,0.285,0.108c0.027,0.01,0.054,0.02,0.081,0.03
			c0.093,0.033,0.186,0.066,0.279,0.099c0.027,0.009,0.054,0.018,0.08,0.026c0.075,0.024,0.149,0.05,0.224,0.073
			c0.032,0.011,0.065,0.021,0.098,0.03c0.085,0.027,0.172,0.053,0.259,0.078c0.042,0.013,0.085,0.024,0.127,0.036
			c0.072,0.02,0.144,0.04,0.216,0.059c0.058,0.016,0.116,0.03,0.174,0.045c0.05,0.013,0.101,0.025,0.151,0.037
			c0.078,0.019,0.157,0.036,0.235,0.055c0.049,0.011,0.097,0.021,0.146,0.032c0.059,0.012,0.118,0.024,0.178,0.036
			c0.034,0.007,0.067,0.013,0.102,0.02c0.104,0.021,0.207,0.04,0.312,0.057c0.029,0.006,0.058,0.011,0.087,0.015
			c0.122,0.021,0.245,0.039,0.367,0.056c0.013,0.003,0.027,0.005,0.041,0.007c0.07,0.009,0.139,0.019,0.208,0.026
			c0.017,0.001,0.034,0.004,0.05,0.006c0.122,0.015,0.244,0.027,0.366,0.038c0.028,0.004,0.056,0.006,0.083,0.008
			c0.109,0.011,0.22,0.019,0.331,0.025c0.032,0.002,0.065,0.005,0.097,0.007c0.061,0.003,0.123,0.007,0.184,0.01
			c0.055,0.003,0.11,0.005,0.165,0.006c0.074,0.004,0.148,0.006,0.223,0.008c0.067,0.001,0.134,0.002,0.201,0.002
			c0.038,0.001,0.077,0.001,0.115,0.001h0.016c0.1,0,0.201-0.001,0.3-0.003c0.022,0,0.045-0.001,0.067-0.001
			c1.281-0.031,2.522-0.223,3.704-0.557c0.007-0.002,0.014-0.004,0.021-0.007c0.115-0.031,0.229-0.064,0.343-0.101
			c0.001,0,0.001-0.001,0.001-0.001c0.102-0.03,0.204-0.063,0.305-0.098c0.025-0.009,0.05-0.017,0.075-0.025
			c0.091-0.03,0.181-0.063,0.271-0.095c0.038-0.014,0.075-0.027,0.112-0.041c0.066-0.024,0.133-0.05,0.199-0.076
			c0.062-0.023,0.124-0.048,0.186-0.072c0.044-0.019,0.087-0.035,0.131-0.054c0.103-0.043,0.205-0.086,0.306-0.131
			c0.015-0.006,0.031-0.013,0.045-0.02c0.064-0.028,0.127-0.057,0.191-0.086c0.005-0.002,0.009-0.004,0.014-0.007
			c0.371-0.171,0.733-0.357,1.086-0.557h2.526c0.1,0,0.181-0.104,0.181-0.23v-1.727c1.176-1.069,2.178-2.321,2.965-3.708
			c0,0,0,0,0,0c0.04-0.069,0.079-0.141,0.117-0.211c0.018-0.033,0.036-0.066,0.054-0.1c0.032-0.06,0.063-0.12,0.095-0.18
			c0.019-0.036,0.038-0.072,0.057-0.11c0.041-0.081,0.082-0.162,0.123-0.245c0.018-0.038,0.036-0.075,0.054-0.113
			c0.027-0.058,0.054-0.115,0.081-0.172c0.018-0.04,0.036-0.079,0.054-0.119c0.037-0.081,0.073-0.162,0.107-0.245
			c0.02-0.044,0.038-0.088,0.056-0.132c0.022-0.052,0.043-0.104,0.065-0.158c0.022-0.056,0.044-0.111,0.066-0.167
			c0.027-0.068,0.052-0.137,0.078-0.205c0.019-0.052,0.038-0.102,0.056-0.154c0.016-0.044,0.032-0.088,0.047-0.133
			c0.031-0.089,0.062-0.18,0.091-0.27c0.013-0.038,0.025-0.078,0.039-0.116c0.019-0.061,0.037-0.12,0.056-0.181
			c0.009-0.031,0.019-0.063,0.028-0.095c0.034-0.114,0.066-0.229,0.098-0.345c0.006-0.021,0.012-0.042,0.018-0.064
			c0.019-0.069,0.037-0.139,0.054-0.209c0.003-0.013,0.006-0.025,0.01-0.039c0.034-0.139,0.067-0.277,0.097-0.418
			c0.002-0.011,0.004-0.021,0.006-0.03c0.05-0.23,0.094-0.464,0.133-0.698c0-0.005,0.001-0.008,0.002-0.012
			c0.038-0.236,0.072-0.475,0.1-0.714c0.001-0.004,0.001-0.01,0.002-0.015c0.027-0.233,0.048-0.468,0.064-0.704
			c0.001-0.018,0.003-0.036,0.004-0.054c0.014-0.219,0.023-0.437,0.027-0.657c0.001-0.049,0.002-0.1,0.002-0.148
			c0.001-0.053,0.001-0.105,0.001-0.158v-0.007C31.456,16.128,31.456,16.111,31.456,16.094z M30.382,14.842
			c0.014,0.239,0.028,0.479,0.042,0.717c-0.079,0.005-0.159,0.009-0.238,0.015c-0.016-0.267-0.032-0.534-0.048-0.801l0.239-0.015
			C30.379,14.786,30.38,14.814,30.382,14.842z M30.185,13.462c0.043,0.265,0.085,0.528,0.128,0.793
			c-0.079,0.013-0.157,0.024-0.234,0.037c-0.043-0.264-0.086-0.527-0.129-0.791C30.028,13.487,30.106,13.475,30.185,13.462z
			 M29.874,12.19c0.069,0.258,0.138,0.517,0.206,0.774c-0.077,0.021-0.153,0.041-0.229,0.062c-0.069-0.258-0.139-0.516-0.208-0.773
			C29.72,12.231,29.797,12.211,29.874,12.19z M29.444,10.954c0.094,0.25,0.188,0.499,0.282,0.75
			c-0.075,0.027-0.149,0.057-0.224,0.084c-0.094-0.25-0.189-0.501-0.283-0.75C29.295,11.01,29.37,10.981,29.444,10.954z
			 M28.919,9.761c0.063,0.145,0.125,0.289,0.188,0.435c0.044,0.1,0.087,0.2,0.131,0.301c-0.073,0.031-0.146,0.063-0.22,0.095
			c-0.037-0.083-0.073-0.167-0.109-0.25c-0.07-0.162-0.14-0.323-0.21-0.485C28.772,9.824,28.846,9.792,28.919,9.761z M28.263,8.625
			c0.13,0.233,0.26,0.468,0.389,0.701c-0.07,0.038-0.139,0.078-0.209,0.116c-0.13-0.234-0.259-0.467-0.389-0.701
			C28.124,8.702,28.193,8.664,28.263,8.625z M27.505,7.557c0.155,0.225,0.31,0.449,0.465,0.675c-0.063,0.043-0.125,0.086-0.188,0.13
			h-0.013c-0.154-0.223-0.307-0.445-0.461-0.669C27.373,7.647,27.439,7.602,27.505,7.557z M26.65,6.563
			c0.175,0.209,0.351,0.418,0.527,0.627c-0.061,0.052-0.122,0.103-0.184,0.154c-0.175-0.209-0.352-0.418-0.527-0.627
			C26.528,6.666,26.589,6.615,26.65,6.563z M25.707,5.654c0.195,0.191,0.39,0.382,0.585,0.574c-0.057,0.057-0.112,0.113-0.168,0.17
			c-0.195-0.19-0.39-0.382-0.585-0.573C25.595,5.769,25.651,5.711,25.707,5.654z M24.684,4.836c0.212,0.173,0.424,0.344,0.637,0.517
			c-0.05,0.062-0.101,0.124-0.151,0.186c-0.212-0.172-0.425-0.343-0.637-0.516C24.583,4.961,24.633,4.898,24.684,4.836z
			 M23.588,4.118c0.228,0.151,0.456,0.301,0.683,0.452c-0.044,0.067-0.088,0.134-0.132,0.199c-0.228-0.15-0.456-0.301-0.683-0.451
			C23.5,4.251,23.544,4.185,23.588,4.118z M22.43,3.505c0.241,0.129,0.482,0.257,0.723,0.386c-0.037,0.069-0.075,0.141-0.112,0.212
			c-0.241-0.129-0.482-0.257-0.723-0.386C22.355,3.646,22.393,3.576,22.43,3.505z M21.219,3.006
			c0.252,0.104,0.505,0.207,0.758,0.312c-0.03,0.073-0.061,0.147-0.091,0.221c-0.253-0.104-0.505-0.207-0.758-0.312
			C21.159,3.153,21.189,3.079,21.219,3.006z M19.967,2.621c0.262,0.078,0.523,0.157,0.785,0.235
			c-0.023,0.076-0.046,0.153-0.069,0.23c-0.262-0.079-0.523-0.157-0.785-0.235C19.921,2.774,19.944,2.697,19.967,2.621z
			 M18.684,2.357c0.268,0.052,0.536,0.104,0.805,0.156c-0.016,0.078-0.031,0.157-0.046,0.235c-0.268-0.052-0.536-0.104-0.804-0.155
			C18.654,2.515,18.669,2.437,18.684,2.357z M17.382,2.215l0.816,0.075l-0.022,0.238L17.36,2.454L17.382,2.215z M16.892,2.185
			l0.002,0.241l-0.819,0.007l-0.002-0.239L16.892,2.185z M15.589,2.228c0.005,0.08,0.01,0.159,0.015,0.24
			c-0.272,0.016-0.545,0.032-0.818,0.049c-0.004-0.08-0.009-0.159-0.014-0.239C15.044,2.261,15.316,2.244,15.589,2.228z
			 M14.288,2.369c0.013,0.079,0.026,0.158,0.039,0.236c-0.27,0.044-0.539,0.089-0.808,0.133C13.505,2.659,13.493,2.58,13.48,2.5
			C13.749,2.457,14.019,2.413,14.288,2.369z M13.006,2.632c0.021,0.077,0.042,0.155,0.062,0.231
			c-0.264,0.071-0.527,0.143-0.791,0.212c-0.021-0.076-0.042-0.154-0.063-0.231C12.479,2.773,12.743,2.703,13.006,2.632z
			 M11.755,3.016c0.028,0.074,0.057,0.149,0.084,0.225c-0.255,0.096-0.511,0.192-0.767,0.288c-0.028-0.074-0.056-0.149-0.084-0.225
			C11.244,3.208,11.499,3.111,11.755,3.016z M10.545,3.515c0.035,0.072,0.071,0.144,0.106,0.215L9.917,4.093
			c-0.035-0.071-0.07-0.144-0.106-0.215C10.056,3.757,10.3,3.636,10.545,3.515z M9.388,4.127C9.43,4.194,9.473,4.262,9.515,4.33
			C9.283,4.475,9.05,4.618,8.818,4.762C8.776,4.694,8.734,4.626,8.692,4.559C8.924,4.414,9.156,4.271,9.388,4.127z M8.293,4.844
			c0.049,0.063,0.097,0.127,0.146,0.19C8.222,5.2,8.004,5.365,7.787,5.531C7.739,5.468,7.69,5.403,7.642,5.34
			C7.859,5.175,8.076,5.01,8.293,4.844z M7.271,5.66c0.055,0.059,0.108,0.118,0.163,0.176C7.233,6.021,7.032,6.207,6.832,6.393
			c-0.054-0.06-0.108-0.117-0.163-0.176C6.87,6.031,7.07,5.846,7.271,5.66z M6.328,6.568c0.06,0.054,0.119,0.106,0.179,0.16
			c-0.182,0.204-0.364,0.407-0.545,0.61c-0.06-0.054-0.12-0.106-0.179-0.159C5.964,6.977,6.146,6.772,6.328,6.568z M5.474,7.561
			c0.064,0.047,0.129,0.094,0.193,0.143c-0.162,0.221-0.324,0.439-0.485,0.66C5.118,8.316,5.053,8.268,4.989,8.221
			C5.151,8,5.313,7.781,5.474,7.561z M4.716,8.629c0.068,0.04,0.138,0.081,0.206,0.122c-0.14,0.235-0.279,0.47-0.419,0.704
			C4.434,9.414,4.365,9.373,4.297,9.333C4.437,9.098,4.576,8.863,4.716,8.629z M4.054,9.779C4.126,9.812,4.198,9.847,4.27,9.881
			c-0.113,0.241-0.227,0.482-0.341,0.724c-0.072-0.033-0.144-0.067-0.216-0.102C3.826,10.263,3.94,10.02,4.054,9.779z M3.379,11.332
			c0.049-0.118,0.098-0.237,0.147-0.357c0.07,0.026,0.139,0.051,0.208,0.075c-0.043,0.123-0.087,0.246-0.131,0.369
			c-0.053,0.129-0.106,0.257-0.158,0.385c-0.067-0.028-0.136-0.056-0.204-0.084C3.287,11.59,3.333,11.461,3.379,11.332z
			 M3.088,12.249c0.004-0.014,0.008-0.028,0.012-0.042c0.077,0.023,0.154,0.046,0.23,0.069c-0.001,0.002-0.001,0.004-0.002,0.008
			c-0.076,0.253-0.153,0.506-0.229,0.759c-0.076-0.022-0.153-0.046-0.229-0.068C2.942,12.733,3.015,12.491,3.088,12.249z
			 M2.791,13.478c0.078,0.016,0.157,0.031,0.235,0.046c-0.052,0.263-0.104,0.524-0.155,0.787c-0.078-0.016-0.156-0.03-0.234-0.045
			C2.688,14.002,2.739,13.74,2.791,13.478z M2.601,14.772c0.08,0.008,0.159,0.015,0.238,0.022c-0.024,0.266-0.05,0.532-0.074,0.797
			c-0.079-0.006-0.158-0.014-0.237-0.021C2.552,15.305,2.576,15.039,2.601,14.772z M2.539,16.882
			c-0.001-0.076-0.002-0.152-0.003-0.228c-0.001-0.191-0.002-0.383-0.004-0.575c0.08,0,0.159-0.001,0.239-0.001
			c0.001,0.171,0.003,0.343,0.005,0.514c0,0.096,0.001,0.191,0.002,0.288C2.698,16.881,2.619,16.881,2.539,16.882z M2.67,18.185
			c-0.029-0.265-0.058-0.531-0.087-0.797c0.079-0.009,0.157-0.017,0.236-0.025c0.03,0.265,0.059,0.53,0.089,0.796
			C2.829,18.167,2.75,18.177,2.67,18.185z M2.755,18.686c0.078-0.016,0.155-0.033,0.233-0.049c0.056,0.261,0.112,0.521,0.168,0.783
			C3.078,19.437,3,19.454,2.922,19.47C2.867,19.209,2.811,18.946,2.755,18.686z M3.049,19.962c0.075-0.023,0.151-0.048,0.227-0.072
			c0.082,0.255,0.164,0.509,0.246,0.763c-0.076,0.024-0.152,0.049-0.228,0.074C3.211,20.472,3.13,20.217,3.049,19.962z
			 M3.778,21.937c-0.052-0.121-0.104-0.242-0.157-0.363c-0.047-0.125-0.095-0.25-0.142-0.375c0.067-0.03,0.135-0.059,0.202-0.088
			l0.161,0.372c0.047,0.125,0.095,0.251,0.142,0.376C3.916,21.885,3.847,21.911,3.778,21.937z M4.362,23.108
			c-0.118-0.24-0.236-0.479-0.355-0.72l0.215-0.105c0.118,0.239,0.236,0.479,0.354,0.719C4.505,23.037,4.434,23.072,4.362,23.108z
			 M5.079,24.227c-0.144-0.232-0.288-0.465-0.432-0.697c0.068-0.041,0.136-0.084,0.204-0.126c0.144,0.232,0.288,0.465,0.432,0.696
			C5.215,24.142,5.147,24.184,5.079,24.227z M5.867,25.229c-0.158-0.207-0.317-0.415-0.475-0.623
			c0.063-0.049,0.127-0.097,0.19-0.146c0.095,0.125,0.19,0.249,0.285,0.374V25.229z M12.397,29.466h-0.019l-0.01,0.028
			c-0.006-0.002-0.012-0.005-0.018-0.007l-0.06-0.021h0l-0.677-0.24c0.004-0.012,0.008-0.023,0.013-0.036h0.601
			c0.08,0.028,0.159,0.058,0.238,0.085C12.443,29.339,12.42,29.403,12.397,29.466z M13.638,29.818
			c-0.159-0.039-0.319-0.078-0.479-0.118c-0.1-0.024-0.199-0.05-0.299-0.074c0.019-0.077,0.039-0.154,0.058-0.232
			c0.26,0.064,0.519,0.128,0.778,0.193C13.676,29.664,13.657,29.741,13.638,29.818z M14.932,30.021
			c-0.228-0.032-0.457-0.065-0.685-0.098c-0.037-0.005-0.073-0.011-0.109-0.016c0.012-0.079,0.023-0.158,0.035-0.236
			c0.042,0.005,0.085,0.012,0.127,0.018c0.222,0.031,0.444,0.063,0.666,0.096C14.955,29.864,14.943,29.943,14.932,30.021z
			 M16.239,30.103c-0.114-0.004-0.227-0.008-0.341-0.013l-0.46-0.021l0.01-0.238c0.159,0.007,0.318,0.013,0.477,0.02l0.325,0.014
			C16.245,29.944,16.242,30.023,16.239,30.103z M17.17,30.087c-0.141,0.001-0.283,0.003-0.424,0.004l-0.013-0.219l0.429-0.026
			c0.126-0.001,0.252-0.002,0.378-0.003c0.001,0.074,0.001,0.147,0.003,0.222L17.17,30.087z M18.601,29.946
			c-0.185,0.02-0.37,0.04-0.555,0.061c-0.009-0.079-0.017-0.159-0.026-0.238c0.207-0.022,0.414-0.046,0.62-0.068
			c0.059-0.006,0.118-0.013,0.177-0.019l0.026,0.237C18.763,29.928,18.682,29.937,18.601,29.946z M19.909,29.682
			c-0.19,0.039-0.38,0.08-0.57,0.12c-0.017-0.078-0.033-0.155-0.05-0.232l0.477-0.104h-0.001c0.108-0.023,0.217-0.046,0.326-0.069
			c0.005,0.023,0.01,0.046,0.015,0.069h-0.018l0.036,0.169C20.053,29.65,19.981,29.666,19.909,29.682z M20.607,29.478
			c-0.025-0.075-0.049-0.152-0.074-0.229c0.063-0.02,0.125-0.04,0.187-0.06h0.654c0.004,0.014,0.008,0.026,0.012,0.038
			C21.127,29.311,20.867,29.395,20.607,29.478z M26.368,23.656h-0.096c0.07-0.091,0.139-0.184,0.207-0.276h0.001
			c0.016-0.021,0.031-0.044,0.046-0.065c0.013-0.018,0.026-0.036,0.039-0.056c0.044-0.062,0.088-0.125,0.131-0.188l0.026-0.038
			c0.105-0.157,0.208-0.316,0.306-0.479c0.006-0.011,0.012-0.021,0.019-0.031c0.042-0.069,0.084-0.14,0.125-0.211
			c0.009-0.016,0.017-0.03,0.026-0.046c0.041-0.071,0.082-0.145,0.122-0.217c0.005-0.01,0.01-0.02,0.015-0.028
			c0.09-0.167,0.177-0.336,0.26-0.507c0.008-0.016,0.015-0.032,0.023-0.048c0.032-0.067,0.064-0.135,0.095-0.203
			c0.01-0.021,0.02-0.044,0.03-0.066c0.03-0.066,0.059-0.133,0.088-0.2c0.008-0.02,0.017-0.039,0.024-0.058
			c0.036-0.085,0.071-0.171,0.105-0.256c0.006-0.015,0.011-0.029,0.017-0.044c0.027-0.068,0.054-0.139,0.079-0.208
			c0.012-0.034,0.025-0.068,0.038-0.103c0.018-0.05,0.036-0.101,0.053-0.15c0.014-0.04,0.027-0.081,0.042-0.12
			c0.015-0.045,0.029-0.09,0.044-0.135c0.014-0.043,0.028-0.087,0.041-0.131c0.011-0.035,0.021-0.07,0.032-0.105
			c0.03-0.1,0.059-0.2,0.086-0.301c0.007-0.027,0.015-0.053,0.021-0.079c0.016-0.06,0.031-0.119,0.045-0.179
			c0.006-0.025,0.012-0.05,0.018-0.074c0.016-0.063,0.031-0.126,0.045-0.19c0.003-0.014,0.007-0.029,0.01-0.044
			c0.067-0.304,0.123-0.611,0.167-0.922c0.001-0.006,0.002-0.012,0.002-0.019c0.056-0.394,0.092-0.794,0.109-1.197
			c0.001-0.021,0.001-0.041,0.002-0.061c0.002-0.067,0.004-0.133,0.006-0.199c0.001-0.03,0.001-0.06,0.002-0.088
			c0-0.062,0.001-0.122,0.001-0.184v-0.004c0-0.013,0-0.025,0-0.038c0-0.087-0.001-0.175-0.003-0.263
			c-0.001-0.06-0.004-0.119-0.006-0.178c-0.001-0.038-0.002-0.077-0.004-0.115c0-0.004,0-0.01,0-0.014
			c-0.002-0.045-0.005-0.09-0.008-0.135c-0.003-0.048-0.005-0.094-0.009-0.139c-0.003-0.057-0.008-0.112-0.013-0.168
			c-0.002-0.033-0.005-0.065-0.009-0.099c-0.006-0.062-0.012-0.125-0.019-0.187c-0.001-0.018-0.004-0.035-0.006-0.053
			c-0.025-0.225-0.056-0.448-0.093-0.67c-0.002-0.013-0.004-0.025-0.007-0.038c-0.012-0.07-0.024-0.139-0.037-0.206
			c-0.003-0.019-0.007-0.038-0.01-0.057c-0.014-0.068-0.027-0.136-0.042-0.203c-0.002-0.012-0.005-0.023-0.007-0.036
			c-0.045-0.209-0.095-0.416-0.15-0.621c-0.008-0.029-0.016-0.06-0.024-0.09c-0.015-0.052-0.03-0.104-0.045-0.157
			c-0.011-0.036-0.022-0.073-0.033-0.111c-0.015-0.048-0.029-0.095-0.044-0.143c-0.015-0.048-0.031-0.095-0.046-0.141
			c-0.013-0.039-0.025-0.077-0.038-0.114c-0.028-0.083-0.057-0.164-0.086-0.245c-0.01-0.03-0.021-0.06-0.033-0.088
			c-0.022-0.061-0.044-0.119-0.067-0.178c-0.011-0.029-0.022-0.058-0.034-0.086c-0.025-0.063-0.051-0.126-0.077-0.188
			c-0.009-0.022-0.019-0.044-0.027-0.065c-0.074-0.176-0.153-0.35-0.235-0.521c-0.003-0.005-0.005-0.011-0.008-0.016
			c-0.039-0.082-0.079-0.161-0.119-0.241c-0.006-0.011-0.011-0.021-0.017-0.032c-0.042-0.08-0.083-0.16-0.127-0.239
			c-0.002-0.005-0.003-0.008-0.006-0.011c-0.141-0.261-0.291-0.514-0.449-0.761c-0.003-0.004-0.005-0.008-0.007-0.011
			c-0.211-0.329-0.437-0.646-0.676-0.952c-0.005-0.007-0.01-0.014-0.015-0.019c-0.021-0.026-0.041-0.054-0.063-0.079h-0.001
			c-0.285-0.356-0.589-0.696-0.911-1.019c-2.233-2.233-5.317-3.613-8.724-3.613s-6.491,1.38-8.725,3.613
			c-0.601,0.602-1.141,1.266-1.608,1.98c0,0.001-0.001,0.002-0.002,0.003C6.107,9.47,6.067,9.532,6.026,9.597
			C6.024,9.6,6.022,9.604,6.021,9.606c-0.164,0.263-0.318,0.531-0.462,0.805c-0.002,0.004-0.004,0.009-0.006,0.012
			c-0.036,0.067-0.07,0.135-0.104,0.202c-0.002,0.003-0.004,0.008-0.006,0.012c-0.102,0.205-0.199,0.412-0.29,0.623
			c-0.002,0.005-0.005,0.011-0.007,0.017c-0.026,0.061-0.051,0.12-0.076,0.182c-0.009,0.021-0.018,0.044-0.027,0.066
			c-0.022,0.056-0.045,0.112-0.067,0.169c-0.01,0.025-0.02,0.052-0.03,0.079C4.904,11.88,4.863,11.99,4.826,12.1
			c-0.008,0.021-0.015,0.042-0.022,0.063c-0.014,0.041-0.028,0.083-0.042,0.125c-0.015,0.047-0.031,0.093-0.046,0.14
			c-0.012,0.039-0.024,0.078-0.036,0.117c-0.016,0.054-0.032,0.107-0.048,0.162c-0.01,0.032-0.019,0.064-0.028,0.098
			c-0.022,0.079-0.043,0.158-0.064,0.238c-0.002,0.009-0.004,0.017-0.007,0.024c-0.024,0.095-0.047,0.188-0.069,0.284
			c-0.003,0.012-0.005,0.022-0.007,0.033c-0.02,0.084-0.038,0.17-0.056,0.256c-0.003,0.014-0.006,0.027-0.009,0.042
			c-0.019,0.092-0.036,0.184-0.053,0.275c0,0.002,0,0.005-0.001,0.008c-0.054,0.303-0.097,0.608-0.128,0.918
			c0,0.001-0.001,0.002-0.001,0.003c-0.031,0.307-0.051,0.615-0.059,0.928c0,0.013,0,0.024-0.001,0.038
			c-0.002,0.084-0.003,0.17-0.003,0.254c0,0.015,0,0.027,0,0.041c0,0.012,0,0.023,0,0.035c0,0.046,0,0.092,0.001,0.139
			c0.001,0.043,0.001,0.087,0.002,0.131c0,0.03,0.001,0.062,0.002,0.093c0.002,0.059,0.004,0.118,0.007,0.177
			c0,0.007,0.001,0.014,0.001,0.02c0,0.008,0.001,0.015,0.001,0.022c0.005,0.098,0.011,0.195,0.018,0.292c0,0.002,0,0.004,0,0.006
			c0.054,0.734,0.172,1.452,0.349,2.146c0.001,0.003,0.002,0.006,0.003,0.011c0.074,0.287,0.157,0.572,0.251,0.852
			c0.007,0.021,0.015,0.042,0.021,0.062c0.023,0.067,0.046,0.134,0.07,0.2c0.01,0.028,0.02,0.055,0.03,0.083
			c0.023,0.063,0.046,0.125,0.07,0.186c0.01,0.027,0.02,0.053,0.031,0.079c0.032,0.079,0.063,0.16,0.097,0.239
			c0.016,0.038,0.033,0.077,0.049,0.115c0.019,0.043,0.038,0.086,0.056,0.129c0.021,0.045,0.041,0.09,0.061,0.135l0.048,0.103
			c0.023,0.048,0.046,0.098,0.069,0.145c0.012,0.025,0.025,0.05,0.038,0.076c0.089,0.18,0.182,0.356,0.28,0.531
			c0.01,0.019,0.02,0.037,0.03,0.056c0.032,0.056,0.063,0.11,0.096,0.166c0.01,0.017,0.021,0.034,0.031,0.051
			c0.148,0.251,0.305,0.496,0.47,0.733c0.012,0.018,0.023,0.033,0.034,0.049c0.037,0.053,0.073,0.104,0.11,0.155
			c0.004,0.007,0.008,0.012,0.012,0.019h0c0.067,0.093,0.136,0.186,0.207,0.276H6.047c-0.046,0-0.088,0.023-0.12,0.06
			c-0.08-0.11-0.158-0.223-0.234-0.336c-0.079-0.118-0.155-0.236-0.23-0.356c-0.012-0.02-0.025-0.038-0.037-0.059
			c-0.033-0.053-0.066-0.107-0.098-0.162c-0.012-0.019-0.023-0.038-0.035-0.058c-0.101-0.171-0.198-0.345-0.292-0.521
			c-0.015-0.028-0.03-0.057-0.045-0.086c-0.026-0.051-0.051-0.1-0.076-0.148c-0.018-0.034-0.035-0.068-0.051-0.104
			c-0.035-0.07-0.069-0.141-0.102-0.211c-0.023-0.051-0.047-0.1-0.07-0.151c-0.019-0.04-0.036-0.079-0.054-0.119
			c-0.021-0.049-0.043-0.097-0.063-0.146c-0.016-0.036-0.032-0.072-0.047-0.11c-0.028-0.067-0.056-0.136-0.083-0.204
			c-0.007-0.018-0.014-0.035-0.021-0.053c-0.035-0.088-0.068-0.177-0.101-0.267c-0.008-0.021-0.016-0.043-0.024-0.065
			c-0.027-0.075-0.054-0.152-0.08-0.229c-0.006-0.017-0.011-0.034-0.017-0.051c-0.065-0.195-0.127-0.393-0.183-0.592
			c0-0.002-0.001-0.006-0.002-0.008c-0.261-0.925-0.422-1.892-0.471-2.893c-0.001-0.014-0.001-0.028-0.002-0.043
			c-0.003-0.061-0.005-0.12-0.007-0.182c-0.001-0.03-0.002-0.062-0.003-0.094c-0.001-0.044-0.002-0.089-0.002-0.134
			c0-0.047-0.001-0.094-0.001-0.142v-0.079c0.002-0.883,0.092-1.745,0.262-2.577l0.004-0.026c0.019-0.09,0.039-0.181,0.06-0.271
			c0.003-0.016,0.007-0.031,0.011-0.047c0.044-0.19,0.093-0.381,0.146-0.568c0.009-0.031,0.018-0.062,0.027-0.094
			c0.017-0.06,0.035-0.119,0.053-0.179c0.011-0.037,0.022-0.073,0.034-0.109c0.02-0.063,0.041-0.124,0.061-0.187
			c0.021-0.063,0.042-0.125,0.064-0.188c0.015-0.041,0.029-0.084,0.044-0.126c0.019-0.051,0.037-0.102,0.057-0.153
			c0.012-0.031,0.024-0.063,0.036-0.095c0.021-0.056,0.042-0.111,0.065-0.166c0.001-0.004,0.003-0.009,0.005-0.013
			c0.053-0.133,0.108-0.265,0.166-0.395c0.006-0.012,0.011-0.025,0.017-0.037c0.028-0.063,0.057-0.126,0.086-0.189
			c0.006-0.013,0.012-0.025,0.018-0.038c0.095-0.203,0.195-0.403,0.299-0.602c0.001-0.002,0.003-0.004,0.004-0.007
			C5.048,9.982,5.084,9.917,5.12,9.852C5.124,9.847,5.127,9.84,5.13,9.834C5.204,9.702,5.28,9.571,5.358,9.44h0
			c0.546-0.904,1.199-1.735,1.941-2.478c2.351-2.352,5.598-3.806,9.185-3.806c3.586,0,6.834,1.454,9.184,3.806
			c0.808,0.807,1.51,1.721,2.083,2.718c0.001,0.001,0.001,0.001,0.001,0.002c0.154,0.268,0.298,0.54,0.433,0.819l0.013,0.025
			c0.087,0.183,0.171,0.367,0.25,0.555c0.005,0.011,0.009,0.021,0.014,0.033c0.032,0.077,0.064,0.155,0.095,0.233
			c0.009,0.022,0.019,0.046,0.028,0.068c0.028,0.074,0.056,0.146,0.083,0.221c0.007,0.018,0.015,0.037,0.021,0.057
			c0.032,0.085,0.062,0.173,0.092,0.26c0.011,0.033,0.022,0.066,0.033,0.1c0.018,0.056,0.036,0.11,0.053,0.166
			c0.014,0.042,0.026,0.083,0.039,0.125c0.015,0.048,0.029,0.097,0.043,0.144c0.021,0.073,0.042,0.147,0.063,0.223
			c0.013,0.048,0.026,0.096,0.039,0.146c0.015,0.056,0.028,0.112,0.042,0.168c0.008,0.033,0.016,0.065,0.024,0.099
			c0.014,0.059,0.028,0.117,0.041,0.176c0.006,0.027,0.012,0.053,0.017,0.079c0.045,0.206,0.085,0.413,0.12,0.623
			c0.003,0.021,0.007,0.043,0.011,0.064c0.01,0.066,0.021,0.133,0.031,0.2c0.003,0.021,0.006,0.043,0.009,0.065
			c0.028,0.205,0.052,0.411,0.072,0.62c0.003,0.037,0.007,0.075,0.009,0.112c0.005,0.054,0.009,0.107,0.012,0.159
			c0.004,0.054,0.007,0.106,0.01,0.16c0.003,0.04,0.005,0.082,0.007,0.123c0.002,0.047,0.003,0.093,0.005,0.14
			c0.003,0.062,0.006,0.122,0.007,0.184c0.002,0.093,0.003,0.185,0.003,0.277c0,0.016,0,0.03,0,0.044
			c0,0.059-0.001,0.115-0.001,0.173l-0.001,0.105c-0.001,0.064-0.003,0.13-0.005,0.194c-0.001,0.021-0.002,0.042-0.002,0.063
			c-0.01,0.232-0.025,0.464-0.047,0.692c0,0.005,0,0.008-0.001,0.011c-0.007,0.079-0.016,0.158-0.024,0.236
			c-0.001,0.005-0.001,0.009-0.002,0.014c-0.026,0.235-0.061,0.47-0.1,0.702c-0.001,0.007-0.002,0.014-0.003,0.02
			c-0.012,0.073-0.026,0.146-0.04,0.219c-0.002,0.014-0.005,0.026-0.008,0.04c-0.04,0.21-0.085,0.419-0.136,0.624
			c-0.006,0.026-0.013,0.055-0.02,0.081c-0.014,0.057-0.029,0.112-0.043,0.169c-0.01,0.036-0.02,0.072-0.03,0.107
			c-0.014,0.052-0.028,0.104-0.042,0.154c-0.023,0.079-0.047,0.158-0.071,0.237c-0.012,0.039-0.025,0.077-0.038,0.116
			c-0.017,0.053-0.034,0.105-0.051,0.158c-0.013,0.037-0.026,0.074-0.039,0.113c-0.021,0.059-0.041,0.117-0.062,0.175
			c-0.011,0.03-0.021,0.06-0.032,0.088c-0.032,0.088-0.065,0.175-0.099,0.261c-0.007,0.017-0.014,0.033-0.02,0.049
			c-0.03,0.075-0.06,0.148-0.091,0.223c-0.009,0.022-0.02,0.045-0.028,0.067c-0.033,0.076-0.066,0.15-0.1,0.227
			c-0.005,0.012-0.011,0.023-0.016,0.036c-0.042,0.093-0.084,0.184-0.128,0.274c0,0.001-0.001,0.002-0.002,0.003
			c-0.042,0.088-0.085,0.174-0.129,0.26c-0.007,0.014-0.013,0.026-0.02,0.039c-0.043,0.084-0.088,0.168-0.133,0.251
			c-0.001,0.004-0.002,0.006-0.004,0.008c-0.097,0.179-0.198,0.354-0.303,0.527c-0.006,0.01-0.011,0.019-0.017,0.028
			c-0.311,0.51-0.656,0.997-1.033,1.459v-0.469C26.549,23.76,26.467,23.656,26.368,23.656z M26.549,25.813V25.47
			c0.015-0.015,0.029-0.03,0.044-0.045c0.057,0.056,0.114,0.112,0.171,0.168C26.692,25.665,26.62,25.739,26.549,25.813z
			 M27.088,25.225c-0.063-0.051-0.125-0.101-0.187-0.151c0.172-0.211,0.344-0.425,0.516-0.636c0.063,0.05,0.125,0.101,0.187,0.15
			C27.432,24.8,27.26,25.012,27.088,25.225z M27.893,24.192c-0.067-0.044-0.133-0.088-0.2-0.132c0.15-0.229,0.301-0.455,0.451-0.681
			h0.005c0.065,0.043,0.13,0.087,0.196,0.13L27.893,24.192z M28.599,23.09c-0.07-0.037-0.14-0.075-0.211-0.112
			c0.126-0.235,0.251-0.472,0.377-0.708c0.07,0.037,0.141,0.074,0.211,0.112C28.85,22.618,28.725,22.854,28.599,23.09z
			 M29.199,21.926c-0.073-0.03-0.147-0.062-0.221-0.091c0.102-0.247,0.204-0.494,0.305-0.742c0.074,0.03,0.147,0.062,0.221,0.092
			C29.403,21.432,29.301,21.679,29.199,21.926z M29.77,20.419c-0.034,0.097-0.069,0.194-0.104,0.291
			c-0.075-0.027-0.15-0.055-0.226-0.081c0.041-0.113,0.081-0.227,0.121-0.339c0.049-0.14,0.099-0.277,0.148-0.417
			c0.075,0.027,0.15,0.054,0.225,0.081C29.88,20.108,29.825,20.264,29.77,20.419z M30.047,19.41
			c-0.003,0.015-0.007,0.03-0.011,0.044c-0.077-0.019-0.155-0.038-0.232-0.058c0.004-0.016,0.007-0.03,0.011-0.045
			c0.061-0.244,0.122-0.489,0.182-0.733c0.077,0.02,0.154,0.039,0.231,0.058C30.168,18.921,30.107,19.165,30.047,19.41z
			 M30.286,18.17c-0.079-0.012-0.158-0.022-0.237-0.034v-0.001c0.038-0.265,0.076-0.528,0.114-0.792
			c0.079,0.011,0.157,0.022,0.236,0.033C30.362,17.642,30.324,17.905,30.286,18.17z M30.425,16.651
			c-0.003,0.072-0.006,0.145-0.01,0.217c-0.079-0.004-0.159-0.007-0.238-0.01c0.003-0.074,0.006-0.148,0.009-0.222
			c0.008-0.192,0.017-0.387,0.024-0.58c0.08,0.003,0.159,0.007,0.238,0.01C30.44,16.261,30.433,16.456,30.425,16.651z"/>
	</g>
</g>
<g id="Shape_29">
	<g>
		
			<rect x="9.798" y="8.102" transform="matrix(0.7071 -0.7071 0.7071 0.7071 -5.6057 15.9324)" fill-rule="evenodd" clip-rule="evenodd" fill="#B4B4B0" width="13.262" height="13.262"/>
	</g>
</g>
<g id="_x35_1">
	<g>
		<path fill-rule="evenodd" clip-rule="evenodd" fill="#9B1C1F" d="M14.461,13.482c-0.57-0.236-1.229-0.355-1.976-0.355
			c-0.178,0-0.426,0.012-0.748,0.035l0.146-1.645c0.34-0.01,0.584-0.014,0.733-0.014c0.441,0,0.81,0.002,1.106,0.006h0.697
			l0.445,0.008l0.956,0.035l0.036-0.977c0.009-0.292,0.036-0.688,0.079-1.186c-0.938,0.01-2.111,0.015-3.519,0.015
			c-1.11,0-2.267-0.005-3.468-0.015c-0.014,0.407-0.029,0.726-0.043,0.955l-0.37,4.642c0.503-0.067,0.902-0.111,1.196-0.132
			c0.295-0.021,0.596-0.032,0.902-0.032c0.689,0,1.196,0.09,1.519,0.27c0.323,0.181,0.485,0.446,0.485,0.796
			c0,0.24-0.079,0.461-0.237,0.663s-0.384,0.358-0.679,0.469c-0.294,0.11-0.617,0.166-0.966,0.166c-0.651,0-1.473-0.142-2.464-0.424
			c0.047,0.43,0.08,0.739,0.097,0.931c0.017,0.19,0.033,0.404,0.046,0.637l0.05,0.725c0.359,0.08,0.654,0.142,0.884,0.179
			c0.23,0.039,0.513,0.073,0.848,0.104c0.335,0.031,0.625,0.047,0.87,0.047c0.646,0,1.277-0.063,1.893-0.189
			c0.615-0.128,1.157-0.334,1.624-0.619c0.467-0.284,0.834-0.667,1.103-1.148c0.268-0.482,0.402-0.983,0.402-1.506
			c0-0.536-0.132-1.018-0.395-1.444C15.449,14.052,15.032,13.72,14.461,13.482z M22.247,9.405c-0.556,0-1.048-0.005-1.475-0.015
			c-0.139,0.11-0.243,0.19-0.312,0.24c-0.069,0.051-0.258,0.172-0.566,0.364c-0.309,0.191-0.584,0.356-0.828,0.495
			c0,0.259-0.012,0.662-0.036,1.21c-0.024,0.549-0.05,1.026-0.079,1.435c0.559-0.402,0.923-0.658,1.089-0.766
			c0.167-0.107,0.34-0.217,0.517-0.327c-0.015,0.714-0.069,1.899-0.164,3.557s-0.174,2.857-0.236,3.6
			c0.45-0.01,1.015-0.015,1.695-0.015c0.584,0,1.08,0.005,1.487,0.015v-0.935l0.071-1.954l0.31-5.316l0.144-1.603
			C23.314,9.4,22.774,9.405,22.247,9.405z"/>
		<path fill="#C4C4C4" d="M23.866,9.391l-0.144,1.603l-0.31,5.316l-0.071,1.954v0.935c-0.407-0.01-0.903-0.015-1.487-0.015
			c-0.68,0-1.245,0.005-1.695,0.015c0.062-0.742,0.141-1.942,0.236-3.6s0.149-2.843,0.164-3.557c-0.177,0.11-0.35,0.22-0.517,0.327
			c-0.167,0.107-0.53,0.363-1.089,0.766c0.028-0.408,0.054-0.886,0.079-1.435c0.024-0.548,0.036-0.951,0.036-1.21
			c0.244-0.139,0.52-0.304,0.828-0.495c0.308-0.192,0.497-0.313,0.566-0.364c0.069-0.05,0.173-0.13,0.312-0.24
			c0.426,0.01,0.918,0.015,1.475,0.015C22.774,9.405,23.314,9.4,23.866,9.391 M15.935,9.391c-0.043,0.498-0.07,0.894-0.079,1.186
			l-0.036,0.977l-0.956-0.035l-0.445-0.008h-0.697c-0.297-0.004-0.666-0.006-1.106-0.006c-0.148,0-0.393,0.004-0.733,0.014
			l-0.146,1.645c0.322-0.023,0.57-0.035,0.748-0.035c0.748,0,1.406,0.119,1.976,0.355c0.57,0.237,0.987,0.569,1.251,0.995
			c0.263,0.427,0.395,0.908,0.395,1.444c0,0.522-0.134,1.023-0.402,1.506c-0.269,0.481-0.636,0.864-1.103,1.148
			c-0.467,0.285-1.009,0.491-1.624,0.619c-0.615,0.126-1.247,0.189-1.893,0.189c-0.245,0-0.535-0.016-0.87-0.047
			c-0.335-0.031-0.618-0.065-0.848-0.104c-0.23-0.037-0.524-0.099-0.884-0.179l-0.05-0.725c-0.014-0.232-0.03-0.446-0.046-0.637
			c-0.017-0.191-0.049-0.501-0.097-0.931c0.991,0.282,1.813,0.424,2.464,0.424c0.35,0,0.672-0.056,0.966-0.166
			c0.295-0.11,0.521-0.267,0.679-0.469s0.237-0.423,0.237-0.663c0-0.35-0.162-0.615-0.485-0.796c-0.323-0.18-0.83-0.27-1.519-0.27
			c-0.307,0-0.607,0.011-0.902,0.032c-0.294,0.021-0.693,0.064-1.196,0.132l0.37-4.642c0.015-0.229,0.029-0.548,0.043-0.955
			c1.202,0.01,2.358,0.015,3.468,0.015C13.824,9.405,14.997,9.4,15.935,9.391 M20.772,9.08c-0.07,0-0.139,0.023-0.193,0.067
			c-0.133,0.106-0.235,0.184-0.301,0.232c-0.044,0.032-0.174,0.118-0.548,0.351c-0.304,0.189-0.58,0.354-0.817,0.49
			c-0.097,0.055-0.157,0.157-0.157,0.27c0,0.253-0.013,0.656-0.036,1.196c-0.024,0.546-0.05,1.025-0.079,1.426
			c-0.008,0.12,0.054,0.234,0.159,0.293c0.047,0.026,0.099,0.039,0.152,0.039c0.063,0,0.127-0.019,0.181-0.059
			c0.552-0.396,0.915-0.651,1.077-0.755c0.007-0.006,0.014-0.01,0.021-0.015c-0.025,0.713-0.075,1.706-0.147,2.964
			c-0.095,1.649-0.173,2.857-0.235,3.593c-0.007,0.088,0.023,0.174,0.083,0.238c0.059,0.063,0.141,0.098,0.226,0.098
			c0.002,0,0.004,0,0.007,0c0.448-0.01,1.016-0.015,1.688-0.015c0.577,0,1.074,0.005,1.479,0.015c0.003,0,0.005,0,0.008,0
			c0.081,0,0.159-0.032,0.217-0.089c0.06-0.058,0.093-0.139,0.093-0.222V18.27l0.072-1.948l0.309-5.306l0.144-1.598
			c0.007-0.088-0.022-0.174-0.083-0.238c-0.059-0.063-0.141-0.1-0.227-0.1c-0.002,0-0.004,0-0.005,0
			c-0.543,0.01-1.086,0.015-1.614,0.015c-0.555,0-1.049-0.005-1.468-0.015C20.777,9.08,20.774,9.08,20.772,9.08L20.772,9.08z
			 M15.935,9.08c-0.001,0-0.002,0-0.003,0c-0.925,0.01-2.108,0.015-3.516,0.015c-1.114,0-2.279-0.005-3.465-0.015
			c-0.001,0-0.002,0-0.003,0c-0.167,0-0.304,0.133-0.31,0.3c-0.015,0.402-0.029,0.721-0.043,0.946l-0.369,4.637
			c-0.008,0.094,0.028,0.186,0.096,0.251c0.058,0.054,0.135,0.084,0.213,0.084c0.014,0,0.028-0.001,0.042-0.002
			c0.496-0.066,0.892-0.11,1.178-0.132c0.286-0.021,0.581-0.031,0.879-0.031c0.633,0,1.093,0.078,1.368,0.231
			c0.226,0.125,0.326,0.287,0.326,0.524c0,0.171-0.057,0.325-0.171,0.472c-0.122,0.155-0.305,0.279-0.543,0.369
			c-0.258,0.097-0.546,0.146-0.857,0.146c-0.62,0-1.42-0.138-2.379-0.412c-0.028-0.007-0.057-0.012-0.085-0.012
			c-0.073,0-0.144,0.026-0.201,0.074c-0.08,0.066-0.12,0.168-0.108,0.271c0.048,0.427,0.08,0.738,0.097,0.924
			c0.016,0.189,0.032,0.401,0.046,0.629l0.05,0.727c0.01,0.136,0.107,0.25,0.241,0.28c0.364,0.084,0.667,0.145,0.901,0.185
			c0.236,0.038,0.529,0.074,0.87,0.106c0.344,0.031,0.646,0.048,0.898,0.048c0.664,0,1.322-0.065,1.955-0.196
			c0.648-0.134,1.228-0.355,1.724-0.657c0.511-0.313,0.918-0.737,1.212-1.264c0.293-0.525,0.441-1.084,0.441-1.656
			c0-0.593-0.148-1.133-0.441-1.607c-0.297-0.481-0.767-0.856-1.396-1.119c-0.606-0.251-1.311-0.379-2.096-0.379
			c-0.111,0-0.246,0.005-0.407,0.013l0.089-1.009c0.197-0.004,0.347-0.006,0.448-0.006c0.429,0,0.799,0.002,1.102,0.006h0.702
			l0.44,0.008l0.949,0.036c0.004,0,0.008,0,0.012,0c0.078,0,0.154-0.03,0.211-0.083c0.061-0.056,0.096-0.134,0.1-0.217l0.036-0.977
			c0.009-0.286,0.036-0.679,0.078-1.17c0.008-0.088-0.022-0.174-0.082-0.238C16.104,9.116,16.021,9.08,15.935,9.08L15.935,9.08z"/>
	</g>
</g>
<g id="Shape_21_copy_2_">
	<g>
		<path fill-rule="evenodd" clip-rule="evenodd" fill="#080606" d="M27.254,23.644c0-0.169-0.121-0.306-0.269-0.306L5.426,23.35
			c-0.147,0-0.267,0.136-0.267,0.306l0.021,5.543c0.001,0.17,0.121,0.306,0.269,0.306l21.56-0.011c0.147,0,0.267-0.138,0.267-0.306
			L27.254,23.644z"/>
	</g>
</g>
<g id="Shape_21_copy_2">
	<g>
		<path fill-rule="evenodd" clip-rule="evenodd" fill="#282622" d="M26.798,24.031c0-0.147-0.116-0.267-0.257-0.267l-20.69,0.01
			c-0.142,0-0.256,0.119-0.255,0.267l0.02,4.799c0,0.146,0.116,0.267,0.257,0.267l20.69-0.01c0.141,0,0.256-0.119,0.255-0.267
			L26.798,24.031z"/>
	</g>
</g>
<g id="VERTIGO" opacity="0.7686">
	<g>
		<path fill-rule="evenodd" clip-rule="evenodd" fill="#C5C3C4" d="M7.811,27.139l-0.515-2.363H6.755l0.712,3.274h0.496l1.601-3.274
			H8.968L7.811,27.139z M9.818,28.05h1.608l0.071-0.571h-1.048l0.114-0.869h1.041l0.071-0.577h-1.037l0.089-0.676h1.031l0.071-0.581
			H10.24L9.818,28.05z M14.231,26.242c0.123-0.163,0.185-0.357,0.186-0.584c0.001-0.185-0.039-0.343-0.12-0.478
			c-0.081-0.134-0.202-0.238-0.362-0.314c-0.129-0.062-0.352-0.091-0.668-0.091h-0.513l-0.423,3.274h0.554l0.186-1.43h0.045
			l0.622,1.43h0.575l-0.635-1.469C13.924,26.519,14.109,26.405,14.231,26.242z M13.728,25.98c-0.091,0.067-0.287,0.102-0.587,0.104
			l0.096-0.742c0.21,0,0.35,0.011,0.418,0.031c0.068,0.021,0.121,0.058,0.157,0.109c0.036,0.053,0.054,0.116,0.054,0.193
			C13.864,25.811,13.818,25.912,13.728,25.98z M14.96,25.358h0.641l-0.347,2.691h0.551l0.348-2.691h0.615l0.068-0.583h-1.804
			L14.96,25.358z M17.006,28.05h0.532l0.433-3.274h-0.542L17.006,28.05z M19.976,26.945h0.921c-0.1,0.204-0.229,0.357-0.385,0.459
			c-0.156,0.103-0.33,0.153-0.52,0.153c-0.256,0-0.471-0.099-0.644-0.296s-0.26-0.441-0.258-0.732
			c0.002-0.296,0.088-0.564,0.26-0.806c0.216-0.305,0.494-0.457,0.835-0.457c0.159,0,0.299,0.033,0.423,0.1s0.253,0.184,0.386,0.353
			l0.464-0.333c-0.116-0.161-0.237-0.291-0.363-0.388c-0.127-0.097-0.269-0.172-0.426-0.225c-0.158-0.054-0.319-0.081-0.485-0.081
			c-0.447,0-0.833,0.182-1.159,0.543c-0.326,0.362-0.49,0.792-0.492,1.289c-0.003,0.408,0.106,0.76,0.325,1.056
			c0.272,0.368,0.648,0.552,1.127,0.552c0.44,0,0.804-0.159,1.09-0.478c0.287-0.318,0.442-0.749,0.467-1.29h-1.494L19.976,26.945z
			 M25.03,25.126c-0.262-0.289-0.596-0.434-1.001-0.434c-0.521,0-0.95,0.205-1.288,0.614c-0.302,0.368-0.454,0.809-0.457,1.32
			c-0.003,0.451,0.121,0.814,0.37,1.091c0.249,0.276,0.584,0.414,1.005,0.414c0.335,0,0.634-0.08,0.894-0.243
			c0.26-0.161,0.469-0.393,0.627-0.695c0.158-0.302,0.237-0.624,0.239-0.965C25.422,25.783,25.292,25.416,25.03,25.126z
			 M24.517,27.18c-0.227,0.251-0.502,0.378-0.824,0.378c-0.278,0-0.491-0.094-0.639-0.28c-0.147-0.188-0.22-0.414-0.219-0.685
			c0.001-0.227,0.056-0.446,0.165-0.659c0.108-0.213,0.25-0.376,0.425-0.489c0.175-0.114,0.369-0.171,0.58-0.171
			c0.257,0,0.465,0.09,0.622,0.269c0.158,0.18,0.235,0.42,0.234,0.718C24.858,26.62,24.744,26.927,24.517,27.18z"/>
	</g>
	<g>
		<path fill="#FFFFFF" d="M23.659,28.21c-0.441,0-0.799-0.148-1.063-0.439c-0.262-0.29-0.393-0.675-0.39-1.145
			c0.003-0.527,0.163-0.988,0.475-1.368c0.351-0.427,0.804-0.644,1.347-0.644c0.426,0,0.783,0.155,1.059,0.459
			c0.274,0.305,0.412,0.692,0.409,1.156c-0.002,0.352-0.085,0.688-0.248,1c-0.164,0.313-0.384,0.558-0.655,0.726
			C24.322,28.124,24.008,28.21,23.659,28.21z M24.029,24.77c-0.501,0-0.903,0.191-1.228,0.587c-0.289,0.352-0.437,0.78-0.44,1.271
			c-0.002,0.43,0.116,0.778,0.351,1.039c0.236,0.262,0.546,0.389,0.947,0.389c0.319,0,0.606-0.078,0.853-0.231
			s0.448-0.377,0.599-0.666c0.151-0.289,0.229-0.602,0.231-0.929c0.002-0.424-0.122-0.777-0.369-1.05
			C24.724,24.903,24.415,24.77,24.029,24.77z M19.985,28.21c-0.503,0-0.903-0.197-1.189-0.584c-0.229-0.308-0.343-0.679-0.34-1.102
			c0.003-0.516,0.175-0.966,0.512-1.341c0.34-0.377,0.749-0.569,1.217-0.569c0.173,0,0.345,0.029,0.51,0.085
			c0.165,0.057,0.316,0.136,0.449,0.237c0.132,0.101,0.26,0.236,0.379,0.404l0.045,0.063l-0.587,0.421l-0.046-0.058
			c-0.125-0.161-0.247-0.272-0.361-0.333c-0.112-0.061-0.243-0.09-0.387-0.09c-0.317,0-0.57,0.139-0.772,0.424
			c-0.161,0.227-0.244,0.483-0.246,0.762c-0.001,0.27,0.079,0.498,0.239,0.681c0.16,0.181,0.351,0.27,0.586,0.27
			c0.174,0,0.334-0.047,0.477-0.141c0.115-0.075,0.213-0.181,0.296-0.316h-0.878l0.091-0.736h1.644l-0.003,0.08
			c-0.025,0.559-0.189,1.009-0.486,1.339C20.833,28.04,20.446,28.21,19.985,28.21z M20.184,24.77c-0.428,0-0.789,0.169-1.102,0.519
			c-0.31,0.346-0.47,0.762-0.472,1.236c-0.002,0.39,0.102,0.729,0.31,1.009c0.259,0.351,0.608,0.521,1.065,0.521
			c0.421,0,0.759-0.148,1.032-0.452c0.258-0.287,0.407-0.678,0.442-1.16h-1.343l-0.053,0.426h0.958l-0.055,0.111
			c-0.106,0.216-0.245,0.381-0.413,0.49c-0.169,0.11-0.358,0.166-0.562,0.166c-0.278,0-0.515-0.109-0.703-0.322
			c-0.186-0.212-0.279-0.476-0.277-0.784c0.001-0.311,0.094-0.598,0.274-0.851c0.23-0.324,0.533-0.489,0.899-0.489
			c0.17,0,0.325,0.036,0.46,0.107c0.119,0.063,0.241,0.17,0.363,0.316l0.341-0.244c-0.097-0.126-0.198-0.23-0.301-0.31
			c-0.12-0.091-0.256-0.162-0.405-0.214C20.496,24.796,20.341,24.77,20.184,24.77z M17.606,28.128h-0.688l0.443-3.431h0.699
			L17.606,28.128z M17.094,27.973h0.376l0.412-3.12h-0.386L17.094,27.973z M15.873,28.128h-0.708l0.347-2.692h-0.64l0.091-0.738
			h1.959l-0.086,0.738H16.22L15.873,28.128z M15.342,27.973h0.394l0.348-2.692h0.614l0.05-0.428h-1.647l-0.053,0.428h0.642
			L15.342,27.973z M14.431,28.128h-0.743l-0.565-1.3l-0.169,1.3h-0.711l0.443-3.431h0.582c0.331,0,0.56,0.032,0.701,0.099
			c0.174,0.082,0.307,0.197,0.396,0.345c0.088,0.146,0.133,0.32,0.131,0.518c-0.001,0.244-0.069,0.455-0.201,0.631
			c-0.118,0.156-0.289,0.271-0.509,0.343L14.431,28.128z M13.79,27.973h0.405l-0.624-1.443l0.088-0.022
			c0.228-0.06,0.399-0.164,0.51-0.311c0.112-0.148,0.169-0.33,0.17-0.538c0.001-0.169-0.036-0.316-0.109-0.437
			c-0.073-0.121-0.184-0.217-0.329-0.285c-0.118-0.056-0.332-0.084-0.635-0.084h-0.445l-0.403,3.12h0.397l0.186-1.43h0.165
			L13.79,27.973z M11.495,28.128H9.729l0.443-3.431h1.744l-0.09,0.736h-1.032l-0.068,0.521h1.035l-0.09,0.732h-1.041L10.537,27.4
			h1.047L11.495,28.128z M9.906,27.973h1.451l0.051-0.418H10.36l0.134-1.023h1.04l0.052-0.421H10.55l0.109-0.832h1.03l0.053-0.426
			h-1.432L9.906,27.973z M8.013,28.128H7.406l-0.747-3.431h0.7l0.48,2.207l1.08-2.207h0.77L8.013,28.128z M7.531,27.973h0.384
			l1.525-3.12H9.016l-1.233,2.521l-0.549-2.521H6.852L7.531,27.973z M23.692,27.636c-0.302,0-0.538-0.105-0.7-0.311
			c-0.158-0.2-0.237-0.446-0.235-0.732c0.001-0.238,0.06-0.472,0.173-0.694c0.114-0.225,0.267-0.4,0.453-0.52
			c0.188-0.121,0.396-0.184,0.623-0.184c0.279,0,0.508,0.1,0.68,0.297c0.169,0.192,0.255,0.451,0.253,0.769
			c-0.002,0.377-0.125,0.705-0.364,0.97C24.333,27.499,24.036,27.636,23.692,27.636z M24.005,25.351
			c-0.195,0-0.376,0.054-0.538,0.158c-0.163,0.105-0.297,0.261-0.398,0.459c-0.102,0.201-0.155,0.412-0.156,0.626
			c-0.001,0.25,0.067,0.464,0.202,0.635c0.133,0.169,0.322,0.252,0.578,0.252c0.302,0,0.553-0.116,0.767-0.354
			c0.213-0.236,0.322-0.528,0.324-0.867c0.001-0.277-0.071-0.501-0.215-0.666C24.425,25.431,24.241,25.351,24.005,25.351z
			 M13.052,26.162l0.117-0.896h0.068c0.22,0,0.364,0.011,0.44,0.034c0.085,0.025,0.152,0.072,0.198,0.139
			c0.046,0.065,0.068,0.146,0.068,0.238c-0.001,0.16-0.058,0.283-0.169,0.365c-0.107,0.08-0.308,0.118-0.632,0.119L13.052,26.162z
			 M13.305,25.42l-0.075,0.585c0.286-0.009,0.403-0.052,0.452-0.087c0.071-0.053,0.105-0.132,0.106-0.242
			c0-0.062-0.013-0.109-0.04-0.148c-0.026-0.037-0.064-0.064-0.116-0.079C13.594,25.437,13.507,25.423,13.305,25.42z"/>
	</g>
</g>
<g id="Color_Fill_1_6_">
	<g>
		<path fill-rule="evenodd" clip-rule="evenodd" fill="#C4C4C4" d="M19.942,21.805h0.857v-0.013
			c-0.015-0.119-0.121-0.212-0.25-0.212h-0.635c-0.139,0-0.251,0.108-0.251,0.241v0.521c0,0.133,0.112,0.241,0.251,0.241h0.635
			c0.13,0,0.237-0.095,0.25-0.215v-0.014h-0.857V21.805z M21.916,21.971H21.25v-0.174h0.894c-0.013-0.121-0.12-0.217-0.25-0.217
			h-0.648c-0.139,0-0.251,0.108-0.251,0.241v0.149c0.012,0.122,0.119,0.217,0.25,0.217h0.664v0.179h-0.913
			c0.013,0.122,0.12,0.218,0.25,0.218h0.667c0.139,0,0.251-0.108,0.251-0.241v-0.155C22.152,22.065,22.045,21.971,21.916,21.971z
			 M24.986,21.571h-0.653c-0.132,0-0.241,0.104-0.241,0.231v0.541c0,0.128,0.109,0.231,0.241,0.231h0.653
			c0.133,0,0.24-0.104,0.24-0.231v-0.541C25.226,21.676,25.119,21.571,24.986,21.571z M25.002,22.389h-0.685v-0.63h0.685V22.389z
			 M23.167,22.092c0.05,0.062,0.127,0.066,0.15,0.066h0.348v0.219h-0.731v-0.61h0.954c-0.019-0.111-0.119-0.195-0.237-0.195h-0.698
			c-0.132,0-0.24,0.104-0.24,0.231v0.541c0,0.128,0.108,0.231,0.24,0.231h0.698c0.124,0,0.227-0.089,0.239-0.204V21.99h-0.774
			C23.118,22.009,23.129,22.046,23.167,22.092z"/>
	</g>
</g>
</svg>
