<?xml version="1.0" encoding="utf-8"?>
<!-- Generator: Adobe Illustrator 16.0.0, SVG Export Plug-In . SVG Version: 6.00 Build 0)  -->
<!DOCTYPE svg PUBLIC "-//W3C//DTD SVG 1.1//EN" "http://www.w3.org/Graphics/SVG/1.1/DTD/svg11.dtd">
<svg version="1.1" id="Layer_1" xmlns="http://www.w3.org/2000/svg" xmlns:xlink="http://www.w3.org/1999/xlink" x="0px" y="0px"
	 width="32px" height="32px" viewBox="0 0 32 32" enable-background="new 0 0 32 32" xml:space="preserve">
<g id="Shape_24_copy">
	<g>
		<circle fill-rule="evenodd" clip-rule="evenodd" fill="#1F2020" cx="15.9" cy="17.047" r="12.96"/>
	</g>
</g>
<g id="Shape_24_copy_6">
	<g>
		<path fill-rule="evenodd" clip-rule="evenodd" fill="#C02026" d="M4.346,20.894c1.772,5.365,6.235,7.872,11.713,7.872
			c5.479,0,10.102-2.619,11.874-7.802L4.346,20.894z"/>
	</g>
</g>
<g id="Shape_24">
	<g>
		<path fill-rule="evenodd" clip-rule="evenodd" fill="#1F2020" d="M16.059,0.727c-8.487,0-15.367,6.881-15.367,15.369
			s6.88,15.369,15.367,15.369c8.488,0,15.368-6.881,15.368-15.369S24.547,0.727,16.059,0.727z M16.059,27.673
			c-6.395,0-11.577-5.184-11.577-11.578S9.664,4.517,16.059,4.517s11.578,5.184,11.578,11.578S22.453,27.673,16.059,27.673z"/>
	</g>
</g>
<g id="Shape_24_copy_3">
	<g>
		<path fill-rule="evenodd" clip-rule="evenodd" fill="#1F2020" d="M16.059,1.155c-8.251,0-14.939,6.689-14.939,14.94
			s6.688,14.94,14.939,14.94c8.252,0,14.939-6.689,14.939-14.94S24.311,1.155,16.059,1.155z M16.059,30.764
			c-8.102,0-14.668-6.567-14.668-14.668S7.957,1.427,16.059,1.427s14.669,6.567,14.669,14.668S24.16,30.764,16.059,30.764z"/>
	</g>
</g>
<g opacity="0.2">
	<path fill="#010101" d="M16.217,4.068V1.61h-0.503v2.466c0.149-0.005,0.299-0.008,0.449-0.008
		C16.181,4.067,16.199,4.068,16.217,4.068z"/>
	<path fill="#010101" d="M10.745,2.554l-0.466,0.188l0.961,2.376c0.151-0.068,0.306-0.134,0.462-0.196L10.745,2.554z"/>
	<path fill="#010101" d="M8.081,3.915L7.664,4.193l1.439,2.165c0.135-0.099,0.271-0.193,0.412-0.286L8.081,3.915z"/>
	<path fill="#010101" d="M21.963,2.846L21.501,2.65l-0.952,2.243c0.156,0.061,0.311,0.125,0.464,0.193L21.963,2.846z"/>
	<path fill="#010101" d="M3.916,7.963L3.641,8.382l2.238,1.475c0.088-0.143,0.177-0.284,0.271-0.423L3.916,7.963z"/>
	<path fill="#010101" d="M24.831,7.759l1.677-1.677l-0.354-0.355l-1.678,1.677C24.597,7.52,24.716,7.639,24.831,7.759z"/>
	<path fill="#010101" d="M30.281,13.587l-0.101-0.492l-2.26,0.465c0.035,0.163,0.066,0.327,0.094,0.493L30.281,13.587z"/>
	<path fill="#010101" d="M28.182,16.502h2.358V16h-2.353c0,0.031,0,0.062,0,0.093C28.188,16.229,28.186,16.366,28.182,16.502z"/>
	<path fill="#010101" d="M2.657,10.211l-0.196,0.462l2.493,1.058c0.061-0.156,0.125-0.311,0.191-0.464L2.657,10.211z"/>
	<path fill="#010101" d="M24.232,4.193l-0.418-0.276l-1.296,1.966c0.143,0.088,0.282,0.181,0.42,0.274L24.232,4.193z"/>
	<path fill="#010101" d="M28.255,8.385l-0.277-0.418l-1.927,1.281c0.096,0.138,0.188,0.277,0.277,0.418L28.255,8.385z"/>
	<path fill="#010101" d="M29.604,10.998l-0.188-0.466l-2.174,0.878c0.064,0.154,0.127,0.31,0.186,0.467L29.604,10.998z"/>
	<path fill="#010101" d="M13.25,1.887l-0.491,0.101l0.5,2.433c0.162-0.04,0.325-0.077,0.49-0.111L13.25,1.887z"/>
	<path fill="#010101" d="M23.789,28.445l0.418-0.278L22.833,26.1c-0.139,0.093-0.28,0.183-0.424,0.271L23.789,28.445z"/>
	<path fill="#010101" d="M27.961,24.404l0.277-0.419l-2.004-1.319c-0.092,0.14-0.187,0.278-0.283,0.414L27.961,24.404z"/>
	<path fill="#010101" d="M21.187,29.747l0.466-0.188l-0.941-2.331c-0.154,0.063-0.312,0.123-0.469,0.18L21.187,29.747z"/>
	<path fill="#010101" d="M18.628,30.515l0.492-0.101l-0.523-2.542c-0.164,0.033-0.329,0.063-0.495,0.09L18.628,30.515z"/>
	<path fill="#010101" d="M29.27,22.055l0.195-0.462l-2.179-0.925c-0.063,0.155-0.131,0.308-0.2,0.46L29.27,22.055z"/>
	<path fill="#010101" d="M30.155,19.283l0.099-0.492l-2.274-0.458c-0.031,0.165-0.065,0.329-0.104,0.491L30.155,19.283z"/>
	<path fill="#010101" d="M10.119,29.458l0.462,0.196l1.03-2.427c-0.154-0.063-0.309-0.13-0.46-0.2L10.119,29.458z"/>
	<path fill="#010101" d="M2.412,21.44L2.6,21.906l2.531-1.022C5.063,20.73,5,20.576,4.939,20.419L2.412,21.44z"/>
	<path fill="#010101" d="M1.654,18.965l0.101,0.492l2.713-0.558c-0.039-0.163-0.075-0.326-0.106-0.491L1.654,18.965z"/>
	<path fill="#010101" d="M3.726,24.093l0.278,0.417l2.301-1.53c-0.096-0.138-0.188-0.276-0.279-0.417L3.726,24.093z"/>
	<path fill="#010101" d="M1.703,13.044l-0.1,0.492l2.703,0.544c0.027-0.166,0.06-0.33,0.094-0.493L1.703,13.044z"/>
	<path fill="#010101" d="M7.792,28.239l0.42,0.276l1.498-2.274c-0.142-0.09-0.28-0.183-0.419-0.279L7.792,28.239z"/>
	<path fill="#010101" d="M12.891,30.393l0.492,0.099l0.521-2.586c-0.166-0.031-0.329-0.066-0.492-0.104L12.891,30.393z"/>
	<path fill="#010101" d="M19.129,1.94l-0.493-0.099l-0.48,2.391c0.165,0.028,0.33,0.059,0.493,0.093L19.129,1.94z"/>
	<path fill="#010101" d="M7.475,24.406L5.56,26.321l0.354,0.355l1.916-1.915C7.708,24.646,7.591,24.527,7.475,24.406z"/>
	<path fill="#010101" d="M24.354,24.896l1.734,1.733l0.354-0.355l-1.729-1.728C24.597,24.665,24.478,24.782,24.354,24.896z"/>
	<path fill="#010101" d="M7.709,7.541L5.85,5.681L5.494,6.035l1.865,1.866C7.474,7.779,7.591,7.658,7.709,7.541z"/>
	<path fill="#010101" d="M4.14,16H1.417v0.502h2.729c-0.005-0.136-0.007-0.272-0.007-0.41C4.139,16.062,4.139,16.031,4.14,16z"/>
	<path fill="#010101" d="M15.714,28.109v2.625h0.503v-2.616c-0.018,0-0.036,0-0.054,0C16.013,28.118,15.863,28.115,15.714,28.109z"
		/>
	<path fill="#010101" d="M7.83,24.762c0.454,0.437,0.943,0.838,1.461,1.2l5.142-7.804L7.83,24.762z"/>
	<path fill="#010101" d="M6.305,22.98c0.354,0.505,0.744,0.981,1.17,1.426l6.577-6.578L6.305,22.98z"/>
	<path fill="#010101" d="M13.903,27.905c0.589,0.112,1.194,0.181,1.811,0.204v-9.202L13.903,27.905z"/>
	<path fill="#010101" d="M11.611,27.227c0.579,0.236,1.181,0.43,1.8,0.574l1.842-9.151L11.611,27.227z"/>
	<path fill="#010101" d="M9.71,26.241c0.46,0.293,0.941,0.556,1.441,0.786l3.553-8.367L9.71,26.241z"/>
	<path fill="#010101" d="M26.234,22.665c0.32-0.489,0.604-1.002,0.852-1.537l-8.956-3.803L26.234,22.665z"/>
	<path fill="#010101" d="M16.217,28.118c0.641-0.003,1.271-0.056,1.885-0.156l-1.885-9.168V28.118z"/>
	<path fill="#010101" d="M27.286,20.668c0.244-0.593,0.442-1.209,0.59-1.845l-9.379-1.887L27.286,20.668z"/>
	<path fill="#010101" d="M24.715,24.546c0.449-0.455,0.864-0.945,1.236-1.467l-7.919-5.217L24.715,24.546z"/>
	<path fill="#010101" d="M18.885,16.502l9.095,1.831c0.112-0.596,0.181-1.208,0.202-1.831H18.885z"/>
	<path fill="#010101" d="M5.131,20.883c0.254,0.585,0.555,1.147,0.895,1.68l7.82-5.2L5.131,20.883z"/>
	<path fill="#010101" d="M18.597,27.872c0.563-0.116,1.112-0.272,1.646-0.463l-3.549-8.787L18.597,27.872z"/>
	<path fill="#010101" d="M20.711,27.228c0.591-0.242,1.159-0.529,1.698-0.858l-5.21-7.835L20.711,27.228z"/>
	<path fill="#010101" d="M22.833,26.1c0.54-0.36,1.049-0.763,1.521-1.204l-6.931-6.931L22.833,26.1z"/>
	<path fill="#010101" d="M4.468,18.898c0.124,0.521,0.283,1.028,0.472,1.521l8.163-3.297L4.468,18.898z"/>
	<path fill="#010101" d="M22.519,5.883c-0.48-0.3-0.983-0.566-1.506-0.797l-3.684,8.675L22.519,5.883z"/>
	<path fill="#010101" d="M18.155,4.232c-0.631-0.105-1.278-0.161-1.938-0.164v9.799L18.155,4.232z"/>
	<path fill="#010101" d="M20.549,4.893c-0.611-0.239-1.245-0.431-1.9-0.568l-1.93,9.588L20.549,4.893z"/>
	<path fill="#010101" d="M24.477,7.404C24,6.948,23.486,6.531,22.938,6.157l-5.374,8.158L24.477,7.404z"/>
	<path fill="#010101" d="M15.714,4.076c-0.671,0.025-1.326,0.104-1.965,0.234l1.965,9.552V4.076z"/>
	<path fill="#010101" d="M13.259,4.421c-0.534,0.132-1.054,0.301-1.557,0.502l3.384,8.378L13.259,4.421z"/>
	<path fill="#010101" d="M9.104,6.357c-0.495,0.359-0.96,0.755-1.395,1.184l6.506,6.505L9.104,6.357z"/>
	<path fill="#010101" d="M26.051,9.248c-0.366-0.529-0.774-1.026-1.22-1.489l-6.86,6.861L26.051,9.248z"/>
	<path fill="#010101" d="M7.359,7.901C6.916,8.377,6.512,8.89,6.149,9.434l8.04,5.296L7.359,7.901z"/>
	<path fill="#010101" d="M4.307,14.08C4.201,14.705,4.144,15.346,4.14,16h9.706L4.307,14.08z"/>
	<path fill="#010101" d="M4.954,11.731c-0.233,0.597-0.418,1.217-0.554,1.856l9.361,1.884L4.954,11.731z"/>
	<path fill="#010101" d="M4.146,16.502c0.022,0.649,0.095,1.286,0.216,1.905l9.261-1.905H4.146z"/>
	<path fill="#010101" d="M5.879,9.857c-0.273,0.451-0.52,0.922-0.733,1.41l8.087,3.433L5.879,9.857z"/>
	<path fill="#010101" d="M27.921,13.561c-0.124-0.578-0.29-1.14-0.493-1.684l-9.007,3.638L27.921,13.561z"/>
	<path fill="#010101" d="M11.24,5.119c-0.604,0.271-1.18,0.59-1.725,0.952l5.371,8.078L11.24,5.119z"/>
	<path fill="#010101" d="M27.242,11.41c-0.258-0.608-0.564-1.191-0.914-1.744L18.23,15.05L27.242,11.41z"/>
	<path fill="#010101" d="M28.188,16c-0.005-0.663-0.063-1.313-0.173-1.947L18.554,16H28.188z"/>
</g>
<g id="Shape_24_copy_5">
	<g>
		<path fill-rule="evenodd" clip-rule="evenodd" fill="#570F0F" d="M27.076,11.346L4.955,11.305
			c-0.805,1.852-0.914,2.68-0.914,4.791c0,1.669,0.41,3.383,0.995,4.843l21.936,0.086c0.641-1.515,0.995-3.181,0.995-4.929
			C27.967,13.985,27.989,13.096,27.076,11.346z"/>
	</g>
</g>
<g id="Shape_24_copy_4">
	<g>
		<path fill-rule="evenodd" clip-rule="evenodd" fill="#131414" d="M16.059,4.13C9.45,4.13,4.094,9.487,4.094,16.095
			S9.45,28.061,16.059,28.061s11.966-5.357,11.966-11.965S22.667,4.13,16.059,4.13z M16.059,27.645
			c-6.378,0-11.55-5.171-11.55-11.55s5.172-11.55,11.55-11.55c6.379,0,11.55,5.171,11.55,11.55
			C27.608,22.474,22.438,27.645,16.059,27.645z"/>
	</g>
</g>
<g id="Shape_24_copy_11">
	<g>
		<path fill-rule="evenodd" clip-rule="evenodd" fill="#FFCD05" d="M16.059,3.886C9.315,3.886,3.85,9.353,3.85,16.095
			s5.466,12.209,12.209,12.209s12.21-5.467,12.21-12.209S22.802,3.886,16.059,3.886z M16.059,27.88
			c-6.509,0-11.784-5.276-11.784-11.785S9.55,4.311,16.059,4.311s11.785,5.276,11.785,11.785S22.567,27.88,16.059,27.88z"/>
	</g>
</g>
<g id="Shape_24_copy_11_2_">
	<g>
		<path fill-rule="evenodd" clip-rule="evenodd" fill="#FFCD05" d="M16.059,0.661c-8.523,0-15.434,6.911-15.434,15.435
			S7.535,31.53,16.059,31.53c8.524,0,15.436-6.911,15.436-15.435S24.583,0.661,16.059,0.661z M16.059,30.993
			c-8.228,0-14.897-6.67-14.897-14.898S7.831,1.197,16.059,1.197c8.228,0,14.898,6.67,14.898,14.898S24.286,30.993,16.059,30.993z"
			/>
	</g>
</g>
<g id="Shape_24_copy_10">
	<g>
		<path fill-rule="evenodd" clip-rule="evenodd" fill="#010101" d="M16.059,1.122c-8.27,0-14.973,6.704-14.973,14.974
			s6.703,14.973,14.973,14.973c8.271,0,14.973-6.703,14.973-14.973S24.329,1.122,16.059,1.122z M16.059,30.548
			c-7.981,0-14.452-6.47-14.452-14.453S8.077,1.643,16.059,1.643c7.982,0,14.453,6.47,14.453,14.453S24.041,30.548,16.059,30.548z"
			/>
	</g>
</g>
<g id="Shape_25">
	<g>
		<path fill-rule="evenodd" clip-rule="evenodd" fill="#FFCD05" d="M16.941,17.746l0.375,5.965h6.064l-2.245-5.965H16.941z
			 M8.493,23.711h6.098l0.349-5.965h-4.197L8.493,23.711z M6.192,13.133v3.118H7.5v1.155h1.016v-1.155h6.977v1.155h1.016v-1.155
			h7.227v1.155h1.016v-1.155h1.174v-3.118H6.192z M19.179,12.443l-1.827-4.528h-1.14l0.327,4.528H19.179z M15.667,7.915h-1.141
			l-1.828,4.528h2.654L15.667,7.915z"/>
	</g>
</g>
<g>
	<path fill="#1F2020" d="M8.36,15.833c-0.267,0-0.473-0.086-0.619-0.259c-0.145-0.173-0.219-0.382-0.219-0.627
		c0-0.25,0.075-0.458,0.223-0.625c0.147-0.167,0.357-0.251,0.631-0.251c0.276,0,0.483,0.089,0.625,0.268
		c0.14,0.179,0.211,0.382,0.211,0.611c0,0.248-0.073,0.458-0.219,0.627C8.85,15.748,8.639,15.833,8.36,15.833z M8.373,14.398
		c-0.243,0-0.364,0.184-0.364,0.553c0,0.37,0.121,0.555,0.364,0.555c0.235,0,0.353-0.185,0.353-0.554
		C8.726,14.583,8.608,14.398,8.373,14.398z"/>
	<path fill="#1F2020" d="M11.52,14.098l-0.599,1.709h-0.497l-0.595-1.709h0.493l0.396,1.222l0.412-1.222H11.52z"/>
	<path fill="#1F2020" d="M13.645,14.423h-0.942v0.351h0.74v0.322h-0.74v0.373h0.942v0.338h-1.413v-1.709h1.413V14.423z"/>
	<path fill="#1F2020" d="M14.923,15.129v0.678h-0.466v-1.709h0.869c0.159,0,0.289,0.016,0.386,0.048
		c0.098,0.032,0.178,0.091,0.242,0.177c0.063,0.085,0.095,0.181,0.095,0.287c0,0.205-0.113,0.352-0.343,0.441l0.365,0.756h-0.513
		l-0.304-0.678H14.923z M14.923,14.402v0.436h0.284c0.093,0,0.16-0.005,0.202-0.017c0.042-0.011,0.079-0.036,0.112-0.075
		c0.032-0.039,0.049-0.083,0.049-0.133c0-0.047-0.017-0.09-0.049-0.127c-0.033-0.038-0.068-0.061-0.106-0.069
		c-0.039-0.009-0.112-0.013-0.218-0.013H14.923z"/>
	<path fill="#1F2020" d="M17.412,15.172v0.635h-0.471v-1.709h0.779c0.174,0,0.307,0.016,0.399,0.047
		c0.093,0.033,0.175,0.09,0.247,0.172s0.108,0.185,0.108,0.305c0,0.084-0.019,0.166-0.058,0.247
		c-0.039,0.08-0.094,0.143-0.164,0.189c-0.07,0.046-0.139,0.076-0.205,0.091s-0.17,0.022-0.311,0.022H17.412z M17.396,14.861h0.302
		c0.115,0,0.195-0.022,0.242-0.068c0.047-0.046,0.069-0.099,0.069-0.158c0-0.07-0.025-0.125-0.077-0.166
		c-0.053-0.041-0.13-0.062-0.236-0.062h-0.3V14.861z"/>
	<path fill="#1F2020" d="M20.238,14.098l0.619,1.709h-0.498l-0.121-0.352h-0.64l-0.125,0.352h-0.405l0.634-1.709H20.238z
		 M19.709,15.14h0.419l-0.208-0.6L19.709,15.14z"/>
	<path fill="#1F2020" d="M22.971,14.473l-0.395,0.114c-0.053-0.135-0.165-0.203-0.336-0.203c-0.184,0-0.275,0.052-0.275,0.154
		c0,0.041,0.017,0.075,0.053,0.104c0.034,0.028,0.11,0.053,0.231,0.074c0.201,0.035,0.35,0.07,0.442,0.106
		c0.094,0.036,0.173,0.093,0.237,0.173c0.064,0.079,0.096,0.168,0.096,0.267c0,0.154-0.069,0.288-0.206,0.401
		c-0.138,0.112-0.342,0.168-0.611,0.168c-0.203,0-0.376-0.04-0.518-0.119c-0.143-0.08-0.237-0.198-0.281-0.355l0.429-0.084
		c0.047,0.16,0.182,0.239,0.401,0.239c0.105,0,0.186-0.018,0.237-0.053c0.052-0.036,0.078-0.078,0.078-0.127
		c0-0.051-0.023-0.089-0.07-0.117c-0.048-0.027-0.14-0.053-0.274-0.077c-0.252-0.045-0.431-0.107-0.539-0.185
		c-0.106-0.078-0.159-0.192-0.159-0.343c0-0.151,0.063-0.28,0.191-0.384c0.128-0.104,0.302-0.157,0.521-0.157
		C22.611,14.071,22.86,14.206,22.971,14.473z"/>
	<path fill="#1F2020" d="M25.228,14.473l-0.394,0.114c-0.053-0.135-0.166-0.203-0.337-0.203c-0.184,0-0.274,0.052-0.274,0.154
		c0,0.041,0.017,0.075,0.051,0.104c0.035,0.028,0.112,0.053,0.233,0.074c0.201,0.035,0.349,0.07,0.441,0.106
		c0.094,0.036,0.173,0.093,0.237,0.173c0.064,0.079,0.097,0.168,0.097,0.267c0,0.154-0.069,0.288-0.207,0.401
		c-0.137,0.112-0.342,0.168-0.611,0.168c-0.203,0-0.376-0.04-0.518-0.119c-0.143-0.08-0.236-0.198-0.282-0.355l0.43-0.084
		c0.047,0.16,0.183,0.239,0.401,0.239c0.106,0,0.186-0.018,0.237-0.053c0.052-0.036,0.078-0.078,0.078-0.127
		c0-0.051-0.023-0.089-0.07-0.117c-0.048-0.027-0.139-0.053-0.274-0.077c-0.251-0.045-0.431-0.107-0.538-0.185
		c-0.106-0.078-0.16-0.192-0.16-0.343c0-0.151,0.064-0.28,0.191-0.384c0.128-0.104,0.302-0.157,0.521-0.157
		C24.867,14.071,25.117,14.206,25.228,14.473z"/>
</g>
<g>
	<g>
		<path fill="#C02026" d="M8.789,14.101c-0.141-0.178-0.349-0.267-0.625-0.267c-0.273,0-0.483,0.083-0.631,0.25
			c-0.147,0.167-0.222,0.375-0.222,0.625c0,0.246,0.073,0.455,0.218,0.627c0.146,0.173,0.354,0.259,0.619,0.259
			c0.278,0,0.49-0.085,0.635-0.255C8.927,15.17,9,14.96,9,14.713C9,14.483,8.929,14.279,8.789,14.101z M8.162,15.269
			c-0.244,0-0.364-0.185-0.364-0.555c0-0.369,0.12-0.553,0.364-0.553c0.234,0,0.352,0.185,0.352,0.554S8.396,15.269,8.162,15.269z"
			/>
		<path fill="#FEECA0" d="M8.164,13.834c0.276,0,0.484,0.089,0.625,0.267C8.929,14.279,9,14.483,9,14.713
			c0,0.248-0.073,0.457-0.217,0.627c-0.145,0.17-0.356,0.255-0.635,0.255c-0.266,0-0.473-0.086-0.619-0.259
			c-0.145-0.173-0.218-0.382-0.218-0.627c0-0.25,0.074-0.458,0.222-0.625C7.681,13.917,7.891,13.834,8.164,13.834 M8.162,15.269
			c0.234,0,0.352-0.185,0.352-0.554s-0.117-0.554-0.352-0.554c-0.244,0-0.364,0.185-0.364,0.553
			C7.798,15.083,7.918,15.269,8.162,15.269 M8.164,13.754c-0.295,0-0.528,0.093-0.69,0.277c-0.16,0.181-0.241,0.409-0.241,0.677
			c0,0.264,0.079,0.492,0.237,0.678c0.161,0.191,0.39,0.288,0.679,0.288c0.301,0,0.535-0.096,0.694-0.283
			C9,15.207,9.078,14.979,9.078,14.713c0-0.247-0.075-0.469-0.227-0.661C8.695,13.854,8.464,13.754,8.164,13.754L8.164,13.754z
			 M8.162,15.189c-0.079,0-0.285,0-0.285-0.476c0-0.474,0.206-0.474,0.285-0.474c0.073,0,0.272,0,0.272,0.475
			C8.435,15.189,8.235,15.189,8.162,15.189L8.162,15.189z"/>
	</g>
	<g>
		<polygon fill="#C02026" points="10.507,15.082 10.111,13.86 9.618,13.86 10.212,15.569 10.711,15.569 11.308,13.86 10.919,13.86 
					"/>
		<path fill="#FEECA0" d="M11.308,13.86l-0.597,1.708h-0.499L9.618,13.86h0.493l0.396,1.222l0.412-1.222H11.308 M11.42,13.781
			h-0.112h-0.389h-0.057l-0.018,0.054l-0.336,0.994l-0.322-0.993l-0.018-0.055h-0.058H9.618H9.506l0.038,0.105l0.594,1.708
			l0.018,0.054h0.057h0.499h0.056l0.019-0.053l0.597-1.709L11.42,13.781L11.42,13.781z"/>
	</g>
	<g>
		<polygon fill="#C02026" points="12.021,15.569 13.433,15.569 13.433,15.231 12.49,15.231 12.49,14.858 13.23,14.858 13.23,14.536 
			12.49,14.536 12.49,14.186 13.433,14.186 13.433,13.86 12.021,13.86 		"/>
		<path fill="#FEECA0" d="M13.433,13.86v0.325H12.49v0.351h0.74v0.322h-0.74v0.373h0.942v0.338h-1.412V13.86H13.433 M13.512,13.781
			h-0.079h-1.412h-0.08v0.08v1.708v0.08h0.08h1.412h0.079v-0.08v-0.338v-0.08h-0.079H12.57v-0.214h0.66h0.08v-0.08v-0.322v-0.079
			h-0.08h-0.66v-0.192h0.862h0.079v-0.08V13.86V13.781L13.512,13.781z"/>
	</g>
	<g>
		<path fill="#C02026" d="M15.838,14.372c0-0.105-0.032-0.201-0.096-0.287c-0.063-0.086-0.145-0.145-0.241-0.177
			c-0.098-0.032-0.227-0.048-0.387-0.048h-0.869v1.708h0.467v-0.677h0.331l0.305,0.677h0.512l-0.365-0.755
			C15.724,14.725,15.838,14.577,15.838,14.372z M15.311,14.508c-0.033,0.039-0.07,0.064-0.112,0.075S15.089,14.6,14.996,14.6h-0.284
			v-0.436h0.273c0.106,0,0.179,0.004,0.218,0.013c0.038,0.009,0.074,0.032,0.107,0.07c0.033,0.037,0.05,0.08,0.05,0.127
			C15.36,14.424,15.344,14.469,15.311,14.508z"/>
		<path fill="#FEECA0" d="M15.114,13.86c0.16,0,0.289,0.016,0.387,0.048c0.097,0.032,0.178,0.091,0.241,0.177
			c0.063,0.085,0.096,0.181,0.096,0.287c0,0.205-0.114,0.353-0.344,0.441l0.365,0.755h-0.512l-0.305-0.677h-0.331v0.677h-0.467
			V13.86H15.114 M14.712,14.6h0.284c0.093,0,0.16-0.006,0.202-0.017s0.079-0.036,0.112-0.075c0.033-0.039,0.05-0.083,0.05-0.133
			c0-0.048-0.017-0.09-0.05-0.127c-0.033-0.038-0.069-0.061-0.107-0.07c-0.039-0.009-0.111-0.013-0.218-0.013h-0.273V14.6
			 M15.114,13.781h-0.869h-0.079v0.08v1.708v0.08h0.079h0.467h0.079v-0.08v-0.598h0.201l0.282,0.63l0.021,0.047h0.052h0.512h0.127
			l-0.056-0.114l-0.33-0.682c0.259-0.13,0.316-0.33,0.316-0.48c0-0.122-0.038-0.235-0.111-0.334s-0.167-0.168-0.279-0.206
			C15.42,13.798,15.285,13.781,15.114,13.781L15.114,13.781z M14.791,14.244h0.194c0.124,0,0.178,0.006,0.2,0.011
			c0.021,0.004,0.044,0.02,0.065,0.044c0.02,0.023,0.029,0.048,0.029,0.076c0,0.032-0.01,0.058-0.03,0.082
			c-0.022,0.026-0.046,0.043-0.072,0.05c-0.024,0.007-0.075,0.015-0.182,0.015h-0.205V14.244L14.791,14.244z"/>
	</g>
	<g>
		<path fill="#C02026" d="M17.908,13.909c-0.092-0.033-0.225-0.048-0.399-0.048h-0.779v1.708H17.2v-0.635h0.326
			c0.142,0,0.245-0.007,0.312-0.022c0.065-0.015,0.134-0.045,0.204-0.091c0.071-0.046,0.125-0.109,0.164-0.189
			s0.059-0.162,0.059-0.247c0-0.12-0.036-0.221-0.109-0.304C18.083,13.998,18.001,13.94,17.908,13.909z M17.728,14.555
			c-0.047,0.046-0.126,0.069-0.241,0.069h-0.302V14.17h0.301c0.104,0,0.184,0.021,0.235,0.062c0.051,0.041,0.076,0.096,0.076,0.166
			C17.797,14.457,17.774,14.509,17.728,14.555z"/>
		<path fill="#FEECA0" d="M17.509,13.86c0.175,0,0.308,0.016,0.399,0.048c0.093,0.032,0.175,0.089,0.247,0.171
			c0.073,0.083,0.109,0.185,0.109,0.304c0,0.085-0.02,0.167-0.059,0.247s-0.093,0.143-0.164,0.189
			c-0.07,0.046-0.139,0.077-0.204,0.091c-0.066,0.015-0.17,0.022-0.312,0.022H17.2v0.635h-0.471V13.86H17.509 M17.185,14.624h0.302
			c0.115,0,0.194-0.022,0.241-0.069c0.047-0.046,0.069-0.098,0.069-0.157c0-0.069-0.025-0.125-0.076-0.166
			c-0.052-0.041-0.131-0.062-0.235-0.062h-0.301V14.624 M17.509,13.781h-0.779H16.65v0.08v1.708v0.08h0.079H17.2h0.079v-0.08v-0.555
			h0.247c0.148,0,0.257-0.008,0.328-0.024c0.076-0.017,0.153-0.052,0.231-0.103c0.082-0.054,0.146-0.128,0.192-0.221
			c0.043-0.091,0.065-0.186,0.065-0.282c0-0.14-0.044-0.259-0.128-0.356c-0.082-0.093-0.177-0.158-0.281-0.195
			C17.833,13.798,17.693,13.781,17.509,13.781L17.509,13.781z M17.264,14.25h0.222c0.085,0,0.149,0.015,0.186,0.044
			c0.033,0.026,0.048,0.058,0.048,0.104c0,0.038-0.015,0.07-0.046,0.101c-0.021,0.021-0.07,0.046-0.187,0.046h-0.223V14.25
			L17.264,14.25z"/>
	</g>
	<g>
		<path fill="#C02026" d="M19.49,13.86l-0.634,1.708h0.406l0.124-0.352h0.64l0.121,0.352h0.498l-0.619-1.708H19.49z M19.498,14.901
			l0.21-0.6l0.209,0.6H19.498z"/>
		<path fill="#FEECA0" d="M20.026,13.86l0.619,1.708h-0.498l-0.121-0.352h-0.64l-0.124,0.352h-0.406l0.634-1.708H20.026
			 M19.498,14.901h0.419l-0.209-0.6L19.498,14.901 M20.082,13.781h-0.056H19.49h-0.055l-0.02,0.051l-0.634,1.709l-0.039,0.107h0.113
			h0.406h0.056l0.019-0.053l0.105-0.299h0.527l0.104,0.298l0.019,0.054h0.056h0.498h0.113l-0.038-0.106l-0.62-1.709L20.082,13.781
			L20.082,13.781z M19.609,14.823l0.099-0.28l0.097,0.28H19.609L19.609,14.823z"/>
	</g>
	<g>
		<path fill="#C02026" d="M22.48,14.585c-0.094-0.036-0.241-0.072-0.442-0.107c-0.122-0.021-0.198-0.045-0.232-0.074
			c-0.034-0.029-0.052-0.063-0.052-0.104c0-0.103,0.092-0.154,0.274-0.154c0.172,0,0.283,0.067,0.337,0.203l0.395-0.114
			c-0.111-0.268-0.36-0.401-0.749-0.401c-0.219,0-0.393,0.052-0.52,0.156c-0.128,0.104-0.192,0.232-0.192,0.384
			c0,0.15,0.054,0.264,0.161,0.343c0.106,0.078,0.286,0.139,0.538,0.184c0.135,0.024,0.226,0.05,0.273,0.078
			c0.047,0.027,0.07,0.066,0.07,0.117c0,0.049-0.025,0.091-0.078,0.126c-0.052,0.035-0.13,0.054-0.236,0.054
			c-0.22,0-0.354-0.08-0.402-0.239l-0.429,0.084c0.046,0.157,0.139,0.275,0.281,0.355c0.143,0.08,0.315,0.119,0.518,0.119
			c0.271,0,0.475-0.056,0.611-0.169c0.138-0.113,0.207-0.246,0.207-0.4c0-0.099-0.032-0.188-0.097-0.267
			C22.652,14.679,22.574,14.621,22.48,14.585z"/>
		<path fill="#FEECA0" d="M22.011,13.834c0.389,0,0.638,0.134,0.749,0.401l-0.395,0.114c-0.054-0.135-0.165-0.203-0.337-0.203
			c-0.183,0-0.274,0.051-0.274,0.154c0,0.041,0.018,0.075,0.052,0.104c0.034,0.028,0.11,0.053,0.232,0.074
			c0.201,0.035,0.349,0.071,0.442,0.107c0.094,0.036,0.172,0.093,0.236,0.173c0.064,0.079,0.097,0.168,0.097,0.267
			c0,0.154-0.069,0.288-0.207,0.4c-0.137,0.113-0.341,0.169-0.611,0.169c-0.202,0-0.375-0.04-0.518-0.119
			c-0.143-0.08-0.235-0.198-0.281-0.355l0.429-0.084c0.049,0.159,0.183,0.239,0.402,0.239c0.106,0,0.185-0.019,0.236-0.054
			c0.053-0.035,0.078-0.078,0.078-0.126c0-0.05-0.023-0.089-0.07-0.117c-0.048-0.028-0.139-0.054-0.273-0.078
			c-0.252-0.045-0.432-0.106-0.538-0.184c-0.107-0.079-0.161-0.193-0.161-0.343c0-0.152,0.064-0.28,0.192-0.384
			C21.618,13.886,21.792,13.834,22.011,13.834 M22.011,13.754c-0.236,0-0.429,0.059-0.569,0.174c-0.147,0.12-0.222,0.27-0.222,0.446
			s0.065,0.313,0.193,0.407c0.118,0.086,0.304,0.151,0.571,0.199c0.163,0.029,0.225,0.055,0.248,0.068
			c0.025,0.015,0.03,0.029,0.03,0.048c0,0.008,0,0.032-0.043,0.061c-0.027,0.018-0.081,0.04-0.192,0.04
			c-0.244,0-0.303-0.104-0.327-0.183l-0.021-0.069l-0.07,0.014l-0.429,0.084l-0.085,0.017l0.024,0.083
			c0.051,0.177,0.158,0.313,0.318,0.402c0.154,0.086,0.341,0.13,0.557,0.13c0.288,0,0.511-0.063,0.662-0.187
			c0.156-0.128,0.235-0.284,0.235-0.462c0-0.117-0.039-0.224-0.113-0.317c-0.073-0.09-0.164-0.157-0.271-0.198
			c-0.1-0.039-0.249-0.074-0.457-0.111c-0.153-0.026-0.19-0.052-0.195-0.057c-0.02-0.017-0.023-0.03-0.023-0.042
			c0-0.05,0.065-0.075,0.195-0.075c0.182,0,0.238,0.087,0.264,0.153l0.026,0.067l0.069-0.021l0.394-0.113l0.086-0.025l-0.034-0.082
			C22.709,13.906,22.433,13.754,22.011,13.754L22.011,13.754z"/>
	</g>
	<g>
		<path fill="#C02026" d="M24.974,14.759c-0.064-0.08-0.143-0.138-0.235-0.173c-0.095-0.036-0.242-0.072-0.443-0.107
			c-0.121-0.021-0.198-0.045-0.232-0.074c-0.035-0.029-0.051-0.063-0.051-0.104c0-0.103,0.091-0.154,0.273-0.154
			c0.173,0,0.284,0.067,0.338,0.203l0.393-0.114c-0.109-0.268-0.359-0.401-0.748-0.401c-0.218,0-0.393,0.052-0.52,0.156
			c-0.128,0.104-0.192,0.232-0.192,0.384c0,0.15,0.054,0.264,0.161,0.343c0.106,0.078,0.286,0.139,0.538,0.184
			c0.136,0.024,0.227,0.05,0.273,0.078c0.048,0.027,0.07,0.066,0.07,0.117c0,0.049-0.025,0.091-0.078,0.126
			c-0.052,0.035-0.13,0.054-0.236,0.054c-0.22,0-0.354-0.08-0.402-0.239l-0.429,0.084c0.045,0.157,0.139,0.275,0.281,0.355
			c0.143,0.08,0.315,0.119,0.518,0.119c0.271,0,0.475-0.056,0.611-0.169c0.139-0.113,0.207-0.246,0.207-0.4
			C25.07,14.927,25.038,14.838,24.974,14.759z"/>
		<path fill="#FEECA0" d="M24.268,13.834c0.389,0,0.639,0.134,0.748,0.401l-0.393,0.114c-0.054-0.135-0.165-0.203-0.338-0.203
			c-0.183,0-0.273,0.051-0.273,0.154c0,0.041,0.016,0.075,0.051,0.104c0.034,0.028,0.111,0.053,0.232,0.074
			c0.201,0.035,0.349,0.071,0.443,0.107c0.093,0.036,0.171,0.093,0.235,0.173c0.064,0.079,0.097,0.168,0.097,0.267
			c0,0.154-0.068,0.288-0.207,0.4c-0.137,0.113-0.34,0.169-0.611,0.169c-0.202,0-0.375-0.04-0.518-0.119
			c-0.143-0.08-0.236-0.198-0.281-0.355l0.429-0.084c0.049,0.159,0.183,0.239,0.402,0.239c0.106,0,0.185-0.019,0.236-0.054
			c0.053-0.035,0.078-0.078,0.078-0.126c0-0.05-0.022-0.089-0.07-0.117c-0.047-0.028-0.138-0.054-0.273-0.078
			c-0.252-0.045-0.432-0.106-0.538-0.184c-0.107-0.079-0.161-0.193-0.161-0.343c0-0.152,0.064-0.28,0.192-0.384
			C23.875,13.886,24.05,13.834,24.268,13.834 M24.268,13.754c-0.235,0-0.428,0.059-0.57,0.174c-0.146,0.12-0.221,0.27-0.221,0.446
			s0.065,0.313,0.193,0.407c0.118,0.086,0.305,0.151,0.57,0.199c0.164,0.029,0.227,0.055,0.247,0.068
			c0.027,0.015,0.032,0.029,0.032,0.048c0,0.008,0,0.032-0.043,0.061c-0.026,0.018-0.081,0.04-0.192,0.04
			c-0.243,0-0.302-0.104-0.326-0.183l-0.021-0.069l-0.069,0.014l-0.429,0.084l-0.085,0.017l0.023,0.083
			c0.051,0.177,0.158,0.313,0.318,0.402c0.154,0.086,0.342,0.13,0.557,0.13c0.288,0,0.511-0.063,0.662-0.187
			c0.156-0.128,0.235-0.284,0.235-0.462c0-0.117-0.039-0.224-0.113-0.317c-0.073-0.09-0.164-0.157-0.271-0.198
			c-0.1-0.039-0.249-0.074-0.457-0.111c-0.153-0.026-0.189-0.052-0.195-0.057c-0.02-0.017-0.023-0.03-0.023-0.042
			c0-0.05,0.065-0.075,0.195-0.075c0.183,0,0.238,0.087,0.263,0.153l0.027,0.067l0.069-0.021l0.395-0.113l0.084-0.025l-0.033-0.082
			C24.966,13.906,24.689,13.754,24.268,13.754L24.268,13.754z"/>
	</g>
</g>
<g id="Shape_16_copy_5">
	<g>
		<path fill-rule="evenodd" clip-rule="evenodd" fill="#FFCD05" d="M20.252,9.237h-0.646c-0.14,0-0.254,0.114-0.254,0.255v0.552
			c0,0.14,0.114,0.254,0.254,0.254h0.646c0.132,0,0.241-0.1,0.254-0.228v-0.013h-0.87V9.474h0.87V9.461
			C20.49,9.335,20.382,9.237,20.252,9.237z M21.637,9.65h-0.674V9.466h0.906c-0.013-0.129-0.122-0.229-0.254-0.229h-0.657
			c-0.141,0-0.254,0.114-0.254,0.255v0.158c0.013,0.128,0.12,0.229,0.253,0.229h0.674v0.189h-0.926
			c0.013,0.128,0.121,0.229,0.253,0.229h0.677c0.141,0,0.255-0.114,0.255-0.254V9.879C21.878,9.75,21.77,9.65,21.637,9.65z
			 M24.752,9.228H24.09c-0.135,0-0.244,0.109-0.244,0.244v0.573c0,0.134,0.109,0.244,0.244,0.244h0.662
			c0.135,0,0.244-0.109,0.244-0.244V9.472C24.996,9.337,24.887,9.228,24.752,9.228z M24.77,10.091h-0.695V9.426h0.695V10.091z
			 M22.906,9.777c0.053,0.065,0.13,0.07,0.153,0.07l0.354,0v0.231h-0.742V9.434h0.968c-0.019-0.118-0.121-0.206-0.242-0.206h-0.707
			c-0.135,0-0.243,0.109-0.243,0.244v0.572c0,0.134,0.108,0.244,0.243,0.244h0.707c0.127,0,0.23-0.094,0.243-0.216V9.67h-0.785
			C22.858,9.691,22.868,9.729,22.906,9.777z"/>
	</g>
</g>
</svg>
