<?xml version="1.0" encoding="utf-8"?>
<!-- Generator: Adobe Illustrator 16.0.0, SVG Export Plug-In . SVG Version: 6.00 Build 0)  -->
<!DOCTYPE svg PUBLIC "-//W3C//DTD SVG 1.1//EN" "http://www.w3.org/Graphics/SVG/1.1/DTD/svg11.dtd">
<svg version="1.1" id="Layer_1" xmlns="http://www.w3.org/2000/svg" xmlns:xlink="http://www.w3.org/1999/xlink" x="0px" y="0px"
	 width="32px" height="32px" viewBox="0 0 32 32" enable-background="new 0 0 32 32" xml:space="preserve">
<g id="Shape_1_copy_13">
	<g>
		<polygon fill-rule="evenodd" clip-rule="evenodd" fill="#721011" points="28.515,13.102 19.345,12.357 16.037,4.037 
			12.729,12.357 3.559,13.102 10.685,18.65 8.325,27.77 16.037,22.538 23.748,27.77 21.389,18.65 		"/>
	</g>
</g>
<g id="Shape_4_copy">
	<g>
		<polygon fill-rule="evenodd" clip-rule="evenodd" fill="#ED2024" points="28.414,13.642 28.22,12.914 17.286,16.311 
			24.673,12.427 23.037,12.254 17.105,15.998 21.351,12.076 20.336,11.969 16.85,15.742 19.505,11.536 19.134,10.621 16.537,15.562 
			18.534,9.135 17.947,7.684 16.188,15.468 16.624,4.414 16.468,4.028 15.68,4.028 15.402,4.737 15.826,15.467 14.133,7.973 
			13.566,9.414 15.477,15.562 13.001,10.854 12.647,11.756 15.162,15.742 11.771,12.07 10.754,12.159 14.907,15.998 9.064,12.309 
			7.396,12.457 14.728,16.311 3.793,12.914 3.59,13.672 4.439,14.356 14.633,16.66 6.922,16.355 8.071,17.281 14.633,17.022 
			9.258,18.237 9.888,18.745 9.857,18.884 14.728,17.371 9.586,20.074 9.329,21.206 14.907,17.685 8.859,23.272 8.412,25.247 
			15.162,17.94 9.053,27.621 9.111,27.656 11.182,26.289 15.477,18.121 13.392,24.829 14.496,24.1 15.826,18.214 15.623,23.356 
			15.989,23.113 16.392,23.381 16.188,18.214 17.525,24.135 18.636,24.873 16.537,18.121 20.868,26.359 22.857,27.681 
			22.962,27.621 16.85,17.94 23.273,24.892 22.838,22.981 17.105,17.685 22.391,21.021 22.141,19.924 17.286,17.371 21.884,18.8 
			21.882,18.788 22.619,18.206 17.38,17.022 23.802,17.275 24.962,16.361 17.38,16.66 27.482,14.376 		"/>
	</g>
</g>
<g id="Shape_1_copy_13_13_">
	<g>
		<path fill-rule="evenodd" clip-rule="evenodd" fill="#AC782B" d="M31.348,12.273c-1.842-0.149-11.138-0.902-11.138-0.902
			S17.045,3.41,16.228,1.354c-0.121-0.305-0.262-0.305-0.383,0.002c-0.819,2.06-3.981,10.015-3.981,10.015
			s-9.346,0.755-11.168,0.903c-0.194,0.016-0.218,0.166-0.055,0.292c1.458,1.136,8.645,6.743,8.645,6.743S6.832,28.768,6.41,30.401
			c-0.04,0.151,0.11,0.255,0.25,0.161c1.432-0.971,9.377-6.347,9.377-6.347s7.685,5.213,9.395,6.373
			c0.214,0.146,0.3,0.098,0.24-0.133c-0.503-1.949-2.883-11.146-2.883-11.146s7.211-5.613,8.649-6.733
			C31.595,12.454,31.546,12.289,31.348,12.273z M21.937,18.871l2.601,10.053l-8.5-5.767l-8.501,5.767l2.601-10.053l-7.854-6.115
			l10.107-0.82l3.646-9.172l3.646,9.172l10.106,0.82L21.937,18.871z"/>
	</g>
</g>
<g id="Shape_1_copy_13_9_">
	<g>
		<path fill-rule="evenodd" clip-rule="evenodd" fill="#280F0E" d="M30.973,12.511L19.997,11.62l-3.961-9.962l-3.96,9.962
			L1.1,12.511l8.53,6.642L6.806,30.07l9.231-6.263l9.231,6.263l-2.824-10.917L30.973,12.511z M24.103,28.276l-8.065-5.472
			l-8.066,5.472l2.469-9.54l-7.455-5.803l9.593-0.778l3.46-8.704l3.459,8.704l9.592,0.778l-7.453,5.803L24.103,28.276z"/>
	</g>
</g>
<g id="Shape_1_copy_13_6_">
	<g>
		<path fill-rule="evenodd" clip-rule="evenodd" fill="#280F0E" d="M28.911,13.033l-9.461-0.768l-3.413-8.586l-3.414,8.586
			l-9.459,0.768l7.351,5.725L8.08,28.167l7.957-5.397l7.956,5.397l-2.435-9.409L28.911,13.033z M22.989,26.621l-6.952-4.716
			l-6.953,4.716l2.127-8.221l-6.422-5.002l8.266-0.671l2.982-7.501l2.981,7.501l8.267,0.671l-6.424,5.002L22.989,26.621z"/>
	</g>
</g>
<g id="Shape_1_copy_13_8_">
	<g>
		<path fill-rule="evenodd" clip-rule="evenodd" fill="#AC782B" d="M29.554,12.889l-9.934-0.807l-3.583-9.015l-3.583,9.015
			L2.52,12.889l7.719,6.01l-2.556,9.879l8.354-5.667l8.354,5.667l-2.556-9.879L29.554,12.889z M23.335,27.155l-7.298-4.952
			l-7.3,4.952l2.233-8.632l-6.744-5.251l8.679-0.704l3.132-7.876l3.13,7.876l8.68,0.704l-6.744,5.251L23.335,27.155z"/>
	</g>
</g>
<g id="Shape_1_copy_13_10_">
	<g>
		<path fill-rule="evenodd" clip-rule="evenodd" fill="#521311" d="M30.359,12.688l-10.526-0.854l-3.796-9.552l-3.798,9.552
			L1.713,12.688l8.18,6.37L7.184,29.525l8.854-6.005l8.852,6.005l-2.708-10.468L30.359,12.688z M23.771,27.806l-7.734-5.247
			l-7.734,5.247l2.366-9.147l-7.147-5.565l9.197-0.746l3.318-8.346l3.317,8.346l9.197,0.746l-7.146,5.565L23.771,27.806z"/>
	</g>
</g>
<g id="Shape_10_2_">
	<g>
		<path fill-rule="evenodd" clip-rule="evenodd" fill="#AC782B" d="M25.786,13.867H6.29c-0.108,0-0.197,0.088-0.197,0.196v5.806
			c0,0.108,0.089,0.196,0.197,0.196h19.496c0.108,0,0.196-0.088,0.196-0.196v-5.806C25.982,13.955,25.895,13.867,25.786,13.867z"/>
	</g>
</g>
<g id="Shape_1_copy_14">
	<g>
		<rect x="6.439" y="14.186" fill-rule="evenodd" clip-rule="evenodd" fill="#280F0E" width="19.229" height="5.641"/>
	</g>
</g>
<g id="Shape_1_copy_13_12_">
	<g>
		<rect x="6.767" y="14.488" fill-rule="evenodd" clip-rule="evenodd" fill="#521311" width="18.575" height="5.036"/>
	</g>
</g>
<g id="Shape_1_copy_13_14_">
	<g>
		<rect x="7.011" y="14.776" fill-rule="evenodd" clip-rule="evenodd" fill="#FFFFFF" width="18.087" height="4.528"/>
	</g>
</g>
<g id="Shape_1_copy_13_16_">
	<g>
		<rect x="7.249" y="14.987" fill-rule="evenodd" clip-rule="evenodd" fill="#E8E1BB" width="17.609" height="4.107"/>
	</g>
</g>
<g id="Shape_9">
	<g>
		<path fill-rule="evenodd" clip-rule="evenodd" fill="#361F1E" d="M10.363,15.537h-1.13c-0.154,0-0.284,0.048-0.39,0.145
			c-0.106,0.096-0.159,0.213-0.159,0.352v2.012c0,0.138,0.053,0.255,0.159,0.352c0.105,0.097,0.235,0.145,0.39,0.145h1.13
			c0.155,0,0.284-0.048,0.393-0.145c0.107-0.096,0.16-0.213,0.16-0.352v-0.546h-0.604v0.429c0,0.033-0.013,0.061-0.039,0.083
			c-0.027,0.022-0.059,0.034-0.096,0.034H9.424c-0.037,0-0.068-0.012-0.096-0.034c-0.026-0.022-0.039-0.05-0.039-0.083V16.15
			c0-0.034,0.013-0.061,0.039-0.083c0.027-0.023,0.059-0.034,0.096-0.034h0.754c0.037,0,0.068,0.011,0.096,0.034
			c0.026,0.022,0.039,0.05,0.039,0.083v0.401h0.604v-0.519c0-0.138-0.053-0.255-0.16-0.352
			C10.647,15.584,10.519,15.537,10.363,15.537z M12.656,15.537l-1.131,3.004h0.608l0.231-0.654h1.131l0.24,0.654h0.608l-1.13-3.004
			H12.656z M12.546,17.404l0.387-1.146l0.388,1.146H12.546z M16.658,15.537h-1.131c-0.154,0-0.284,0.048-0.39,0.145
			c-0.105,0.096-0.158,0.213-0.158,0.352v2.012c0,0.138,0.053,0.255,0.158,0.352c0.105,0.097,0.235,0.145,0.39,0.145h1.131
			c0.154,0,0.284-0.048,0.392-0.145c0.107-0.096,0.161-0.213,0.161-0.352v-0.546h-0.604v0.429c0,0.033-0.014,0.061-0.04,0.083
			c-0.027,0.022-0.059,0.034-0.096,0.034h-0.754c-0.036,0-0.068-0.012-0.095-0.034c-0.027-0.022-0.04-0.05-0.04-0.083V16.15
			c0-0.034,0.013-0.061,0.04-0.083c0.026-0.023,0.059-0.034,0.095-0.034h0.754c0.037,0,0.068,0.011,0.096,0.034
			c0.026,0.022,0.04,0.05,0.04,0.083v0.401h0.604v-0.519c0-0.138-0.054-0.255-0.161-0.352
			C16.942,15.584,16.813,15.537,16.658,15.537z M18.709,15.537h-0.604v3.004h0.604v-1.286h1.137v1.286h0.603v-1.782h-1.739V15.537z
			 M23.425,16.033v-0.496h-2.03v3.004h2.03v-0.496h-1.428v-0.771h1.302v-0.497h-1.302v-0.744H23.425z"/>
	</g>
</g>
<path fill="#B7AE86" d="M21.395,18.693c-0.091,0-0.163-0.073-0.163-0.164v-3.003c0-0.09,0.072-0.164,0.163-0.164h2.03
	c0.09,0,0.163,0.074,0.163,0.164v0.496c0,0.09-0.073,0.164-0.163,0.164h-1.264v0.417h1.138c0.09,0,0.164,0.074,0.164,0.164v0.496
	c0,0.09-0.074,0.164-0.164,0.164h-1.138v0.444h1.264c0.09,0,0.163,0.074,0.163,0.164v0.496c0,0.09-0.073,0.164-0.163,0.164H21.395z
	 M23.365,18.471v-0.378h-1.427v-0.889h1.302v-0.378h-1.302v-0.862h1.427v-0.377h-1.911v2.885H23.365z"/>
<path fill="#B7AE86" d="M19.846,18.693c-0.091,0-0.164-0.073-0.164-0.164v-1.121h-0.809v1.121c0,0.09-0.073,0.164-0.164,0.164
	h-0.604c-0.089,0-0.162-0.073-0.162-0.164v-3.003c0-0.09,0.073-0.164,0.162-0.164h0.604c0.091,0,0.164,0.074,0.164,0.164v1.058
	h1.575c0.091,0,0.163,0.073,0.163,0.164v1.781c0,0.09-0.072,0.164-0.163,0.164H19.846z M20.389,18.471v-1.664H18.65v-1.222h-0.484
	v2.885h0.484v-1.285h1.254v1.285H20.389z"/>
<path fill="#B7AE86" d="M15.527,18.693c-0.196,0-0.365-0.063-0.5-0.187c-0.141-0.128-0.211-0.287-0.211-0.472v-2.012
	c0-0.185,0.07-0.344,0.211-0.473c0.135-0.124,0.304-0.187,0.5-0.187h1.131c0.195,0,0.363,0.063,0.501,0.186
	c0.144,0.127,0.216,0.287,0.216,0.473v0.519c0,0.09-0.074,0.164-0.164,0.164h-0.604c-0.09,0-0.163-0.074-0.163-0.164l-0.003-0.355
	h-0.694l0.003,1.685h0.694v-0.382c0-0.09,0.073-0.164,0.163-0.164h0.604c0.09,0,0.164,0.074,0.164,0.164v0.546
	c0,0.186-0.072,0.345-0.216,0.473c-0.138,0.124-0.306,0.186-0.501,0.186H15.527z M15.527,15.585c-0.141,0-0.255,0.042-0.35,0.129
	c-0.094,0.085-0.14,0.186-0.14,0.308v2.012c0,0.122,0.046,0.223,0.14,0.308c0.095,0.087,0.209,0.128,0.35,0.128h1.131
	c0.14,0,0.256-0.042,0.353-0.129c0.095-0.085,0.142-0.186,0.142-0.308v-0.487h-0.484v0.369c0,0.051-0.022,0.095-0.062,0.128
	c-0.039,0.032-0.084,0.048-0.135,0.048h-0.754c-0.051,0-0.095-0.016-0.133-0.048c-0.041-0.034-0.061-0.078-0.061-0.128V16.14
	c0-0.051,0.021-0.096,0.062-0.128c0.035-0.032,0.081-0.048,0.132-0.048h0.754c0.051,0,0.097,0.017,0.135,0.049
	c0.039,0.032,0.062,0.077,0.062,0.128v0.342h0.484v-0.46c0-0.122-0.047-0.222-0.142-0.308c-0.097-0.087-0.213-0.129-0.353-0.129
	H15.527z"/>
<path fill="#B7AE86" d="M13.736,18.693c-0.067,0-0.129-0.043-0.153-0.106l-0.201-0.547h-0.9l-0.192,0.544
	c-0.024,0.065-0.086,0.109-0.155,0.109h-0.608c-0.053,0-0.104-0.026-0.135-0.07c-0.029-0.044-0.037-0.101-0.018-0.151l1.13-3.003
	c0.024-0.063,0.086-0.106,0.153-0.106h0.559c0.067,0,0.129,0.042,0.152,0.106l1.131,3.004c0.019,0.05,0.013,0.107-0.019,0.151
	c-0.03,0.044-0.081,0.07-0.135,0.07H13.736z M14.26,18.471l-1.087-2.885h-0.475l-1.087,2.885h0.48l0.231-0.654h1.213l0.243,0.654
	H14.26z M12.464,17.453l0.469-1.389l0.47,1.389H12.464z M13.092,17.23l-0.159-0.47l-0.158,0.47H13.092z"/>
<path fill="#B7AE86" d="M9.233,18.693c-0.196,0-0.365-0.063-0.5-0.187c-0.141-0.128-0.213-0.287-0.213-0.472v-2.012
	c0-0.185,0.072-0.344,0.213-0.473c0.136-0.124,0.304-0.187,0.5-0.187h1.13c0.196,0,0.364,0.063,0.502,0.186
	c0.143,0.127,0.215,0.287,0.215,0.473v0.519c0,0.09-0.074,0.164-0.164,0.164h-0.604c-0.089,0-0.162-0.074-0.162-0.164l-0.004-0.355
	H9.453l0.002,1.685h0.695v-0.382c0-0.09,0.073-0.164,0.162-0.164h0.604c0.09,0,0.164,0.074,0.164,0.164v0.546
	c0,0.186-0.072,0.345-0.215,0.473c-0.138,0.124-0.306,0.186-0.502,0.186H9.233z M9.233,15.585c-0.141,0-0.255,0.042-0.35,0.129
	C8.79,15.8,8.744,15.9,8.744,16.022v2.012c0,0.122,0.045,0.223,0.14,0.308c0.095,0.087,0.208,0.128,0.35,0.128h1.13
	c0.141,0,0.257-0.042,0.354-0.129c0.095-0.085,0.141-0.186,0.141-0.308v-0.487h-0.484v0.369c0,0.051-0.021,0.095-0.063,0.128
	c-0.037,0.032-0.082,0.048-0.133,0.048H9.424c-0.051,0-0.096-0.016-0.133-0.048c-0.041-0.034-0.062-0.078-0.062-0.128V16.14
	c0-0.051,0.021-0.096,0.062-0.128c0.036-0.032,0.082-0.048,0.133-0.048h0.754c0.051,0,0.097,0.017,0.133,0.049
	c0.041,0.032,0.063,0.077,0.063,0.128v0.342h0.484v-0.46c0-0.122-0.046-0.222-0.142-0.308c-0.096-0.087-0.212-0.129-0.353-0.129
	H9.233z"/>
<g id="Shape_8">
	<g>
		<path fill-rule="evenodd" clip-rule="evenodd" fill="#EFEDA8" d="M10.363,15.421h-1.13c-0.18,0-0.335,0.058-0.461,0.171
			c-0.127,0.116-0.192,0.26-0.192,0.429v2.012c0,0.168,0.065,0.313,0.192,0.429c0.126,0.114,0.28,0.172,0.461,0.172h1.13
			c0.182,0,0.336-0.058,0.462-0.171c0.131-0.116,0.196-0.26,0.196-0.429v-0.546c0-0.057-0.047-0.104-0.105-0.104h-0.604
			c-0.057,0-0.104,0.047-0.104,0.104v0.429c-0.01,0.008-0.017,0.013-0.031,0.013H9.424c-0.015,0-0.021-0.004-0.028-0.009
			l-0.002-1.78c0.009-0.008,0.016-0.013,0.03-0.013h0.754c0.015,0,0.021,0.004,0.028,0.009l0.003,0.404
			c0,0.058,0.047,0.105,0.104,0.105h0.604c0.059,0,0.105-0.047,0.105-0.105v-0.519c0-0.169-0.065-0.313-0.196-0.429
			C10.699,15.479,10.545,15.421,10.363,15.421z M10.916,16.541h-0.604V16.14c0-0.033-0.013-0.062-0.039-0.083
			c-0.027-0.022-0.059-0.034-0.096-0.034H9.424c-0.037,0-0.068,0.012-0.096,0.034c-0.026,0.022-0.039,0.05-0.039,0.083v1.777
			c0,0.033,0.013,0.061,0.039,0.083c0.027,0.023,0.059,0.034,0.096,0.034h0.754c0.037,0,0.068-0.011,0.096-0.034
			c0.026-0.022,0.039-0.05,0.039-0.083v-0.429h0.604v0.546c0,0.138-0.053,0.255-0.16,0.352c-0.108,0.096-0.237,0.144-0.393,0.144
			h-1.13c-0.154,0-0.284-0.048-0.39-0.144c-0.106-0.096-0.159-0.213-0.159-0.352v-2.012c0-0.139,0.053-0.255,0.159-0.352
			c0.105-0.096,0.235-0.144,0.39-0.144h1.13c0.155,0,0.284,0.048,0.393,0.144c0.107,0.096,0.16,0.213,0.16,0.352V16.541z
			 M13.215,15.421h-0.559c-0.044,0-0.082,0.027-0.098,0.068l-1.131,3.003c-0.011,0.032-0.008,0.068,0.012,0.097
			s0.052,0.045,0.086,0.045h0.608c0.045,0,0.085-0.028,0.099-0.07l0.206-0.584h0.984l0.216,0.586
			c0.015,0.041,0.055,0.068,0.098,0.068h0.608c0.035,0,0.067-0.017,0.087-0.045s0.022-0.065,0.012-0.097l-1.132-3.003
			C13.297,15.449,13.258,15.421,13.215,15.421z M13.736,18.53l-0.24-0.654h-1.131l-0.231,0.654h-0.608l1.131-3.003h0.559l1.13,3.003
			H13.736z M12.546,17.394h0.774l-0.388-1.146L12.546,17.394z M12.692,17.289l0.24-0.714l0.241,0.714H12.692z M16.658,15.421h-1.131
			c-0.18,0-0.335,0.058-0.46,0.171c-0.128,0.116-0.191,0.26-0.191,0.429v2.012c0,0.168,0.063,0.313,0.191,0.429
			c0.125,0.114,0.279,0.172,0.46,0.172h1.131c0.181,0,0.336-0.058,0.461-0.171c0.131-0.116,0.196-0.26,0.196-0.429v-0.546
			c0-0.057-0.047-0.104-0.104-0.104h-0.604c-0.058,0-0.104,0.047-0.104,0.104v0.429c-0.008,0.008-0.017,0.013-0.031,0.013h-0.754
			c-0.015,0-0.021-0.004-0.027-0.009l-0.003-1.78c0.009-0.008,0.016-0.013,0.03-0.013h0.754c0.015,0,0.023,0.004,0.028,0.009
			l0.003,0.404c0,0.058,0.047,0.105,0.104,0.105h0.604c0.058,0,0.104-0.047,0.104-0.105v-0.519c0-0.169-0.065-0.313-0.196-0.429
			C16.993,15.479,16.839,15.421,16.658,15.421z M17.211,16.541h-0.604V16.14c0-0.033-0.014-0.062-0.04-0.083
			c-0.027-0.022-0.059-0.034-0.096-0.034h-0.754c-0.036,0-0.068,0.012-0.095,0.034c-0.027,0.022-0.04,0.05-0.04,0.083v1.777
			c0,0.033,0.013,0.061,0.04,0.083c0.026,0.023,0.059,0.034,0.095,0.034h0.754c0.037,0,0.068-0.011,0.096-0.034
			c0.026-0.022,0.04-0.05,0.04-0.083v-0.429h0.604v0.546c0,0.138-0.054,0.255-0.161,0.352s-0.237,0.144-0.392,0.144h-1.131
			c-0.154,0-0.284-0.048-0.39-0.144s-0.158-0.213-0.158-0.352v-2.012c0-0.139,0.053-0.255,0.158-0.352
			c0.105-0.096,0.235-0.144,0.39-0.144h1.131c0.154,0,0.284,0.048,0.392,0.144c0.107,0.096,0.161,0.213,0.161,0.352V16.541z
			 M20.448,16.644h-1.634v-1.118c0-0.058-0.047-0.105-0.105-0.105h-0.604c-0.056,0-0.104,0.047-0.104,0.105v3.003
			c0,0.058,0.048,0.105,0.104,0.105h0.604c0.059,0,0.105-0.047,0.105-0.105v-1.181h0.926v1.181c0,0.058,0.048,0.105,0.105,0.105
			h0.603c0.058,0,0.104-0.047,0.104-0.105v-1.781C20.553,16.691,20.506,16.644,20.448,16.644z M20.448,18.53h-0.603v-1.285h-1.137
			v1.285h-0.604v-3.003h0.604v1.222h1.739V18.53z M23.425,16.127c0.058,0,0.104-0.047,0.104-0.105v-0.496
			c0-0.058-0.047-0.105-0.104-0.105h-2.03c-0.057,0-0.104,0.047-0.104,0.105v3.003c0,0.058,0.048,0.105,0.104,0.105h2.03
			c0.058,0,0.104-0.047,0.104-0.105v-0.496c0-0.058-0.047-0.105-0.104-0.105h-1.322v-0.562h1.196c0.059,0,0.104-0.047,0.104-0.105
			v-0.496c0-0.058-0.046-0.105-0.104-0.105h-1.196v-0.534H23.425z M23.299,16.766v0.496h-1.302v0.772h1.428v0.496h-2.03v-3.003h2.03
			v0.496h-1.428v0.744H23.299z"/>
	</g>
</g>
<g id="Shape_16_copy_6">
	<g>
		<path fill-rule="evenodd" clip-rule="evenodd" fill="#280F0E" d="M13.59,20.991h0.843v-0.013
			c-0.014-0.122-0.118-0.216-0.245-0.216h-0.625c-0.137,0-0.245,0.11-0.245,0.246v0.535c0,0.135,0.108,0.246,0.245,0.246h0.625
			c0.128,0,0.233-0.096,0.246-0.221v-0.012H13.59V20.991z M15.529,21.161h-0.653v-0.178h0.878c-0.012-0.124-0.117-0.221-0.246-0.221
			h-0.637c-0.136,0-0.246,0.11-0.246,0.246v0.153c0.012,0.125,0.117,0.223,0.244,0.223l0.654,0v0.183h-0.897
			c0.012,0.125,0.117,0.223,0.245,0.223h0.655c0.137,0,0.247-0.111,0.247-0.246v-0.16C15.762,21.258,15.656,21.161,15.529,21.161z
			 M18.545,20.752h-0.641c-0.13,0-0.236,0.106-0.236,0.236v0.555c0,0.13,0.106,0.236,0.236,0.236h0.641
			c0.13,0,0.236-0.106,0.236-0.236v-0.555C18.781,20.859,18.675,20.752,18.545,20.752z M18.561,21.589h-0.672v-0.645h0.672V21.589z
			 M16.759,21.285c0.05,0.063,0.125,0.068,0.148,0.068l0.342,0v0.224h-0.72v-0.625h0.937c-0.018-0.113-0.116-0.199-0.232-0.199
			h-0.685c-0.132,0-0.237,0.106-0.237,0.237v0.554c0,0.13,0.105,0.236,0.237,0.236h0.685c0.122,0,0.223-0.091,0.235-0.209v-0.389
			h-0.761C16.711,21.201,16.721,21.238,16.759,21.285z"/>
	</g>
</g>
<g id="Shape_16_copy_6_2_">
	<g>
		<path fill-rule="evenodd" clip-rule="evenodd" fill="#E2A825" d="M13.733,20.834h0.779v-0.011c-0.014-0.113-0.11-0.2-0.227-0.2
			h-0.578c-0.127,0-0.229,0.102-0.229,0.228v0.494c0,0.126,0.103,0.229,0.229,0.229h0.578c0.118,0,0.216-0.089,0.228-0.204v-0.012
			h-0.78V20.834z M15.528,20.992h-0.606v-0.165h0.813c-0.012-0.115-0.107-0.205-0.228-0.205h-0.589
			c-0.126,0-0.229,0.102-0.229,0.228v0.142c0.013,0.115,0.108,0.206,0.228,0.206h0.604v0.169h-0.831
			c0.013,0.116,0.108,0.206,0.228,0.206h0.606c0.127,0,0.229-0.103,0.229-0.229v-0.147C15.744,21.082,15.646,20.992,15.528,20.992z
			 M18.321,20.613h-0.593c-0.121,0-0.22,0.099-0.22,0.219v0.513c0,0.121,0.099,0.219,0.22,0.219h0.593
			c0.12,0,0.219-0.098,0.219-0.219v-0.513C18.54,20.712,18.441,20.613,18.321,20.613z M18.336,21.388h-0.622v-0.597h0.622V21.388z
			 M16.668,21.107c0.044,0.058,0.115,0.063,0.136,0.063h0.316v0.208h-0.665v-0.579h0.868c-0.017-0.106-0.109-0.185-0.217-0.185
			h-0.635c-0.121,0-0.22,0.099-0.22,0.22v0.513c0,0.121,0.099,0.219,0.22,0.219h0.635c0.113,0,0.207-0.084,0.218-0.194v-0.36H16.62
			C16.623,21.029,16.633,21.063,16.668,21.107z"/>
	</g>
</g>
</svg>
