<?xml version="1.0" encoding="utf-8"?>
<!-- Generator: Adobe Illustrator 16.0.0, SVG Export Plug-In . SVG Version: 6.00 Build 0)  -->
<!DOCTYPE svg PUBLIC "-//W3C//DTD SVG 1.1//EN" "http://www.w3.org/Graphics/SVG/1.1/DTD/svg11.dtd">
<svg version="1.1" id="Layer_1" xmlns="http://www.w3.org/2000/svg" xmlns:xlink="http://www.w3.org/1999/xlink" x="0px" y="0px"
	 width="32px" height="32px" viewBox="0 0 32 32" enable-background="new 0 0 32 32" xml:space="preserve">
<circle fill-rule="evenodd" clip-rule="evenodd" fill="#998C67" cx="16.102" cy="15.996" r="15.387"/>
<path fill-rule="evenodd" clip-rule="evenodd" fill="#5E3C2A" d="M24.516,22.446c-1.043,0.243-1.286,0.208-1.877,0.486
	c-0.591,0.278-0.765,0.226-1.042-0.139c-0.278-0.365-0.227-0.539-0.07-1.043s0.14-0.539,0.104-0.765
	c-0.034-0.226-0.069-0.348,0.174-0.66c0.243-0.313,0.504-0.521,0.486-0.973c-0.017-0.452,0.174-0.626-0.243-0.904
	s-0.504,0.208-0.66-0.521c-0.156-0.729-3.875-5.561-4.345-6.743c-0.469-1.182-0.972-2.672-0.799-3.649
	c0.101-0.574,0.729-1.147,0.66-1.529s-0.869-0.956-0.729-1.147c0.139-0.191,9.939-1.182,11.261,6.708
	C28.756,19.457,25.559,22.202,24.516,22.446z M14.854,26.13c0.087,0.678-4.709,1.147-7.021,0.278
	c-2.312-0.869-2.276-2.224-3.268-5.491c-0.99-3.267,1.061-6.273,1.738-6.569s1.13,0.243,2.085,0.417
	c0.956,0.174,0.748-0.243,1.529-0.348c0.782-0.104,0.817,0.208,1.772,0.73c0.956,0.521,1.355,1.286,1.564,1.564
	c0.209,0.278,0.782,0.938,1.217,1.355c0.434,0.417,0.399,0.625,0.625,1.321c0.227,0.695-0.104,0.73-0.277,1.599
	c-0.174,0.869,0.243,0.678,0.451,1.39c0.209,0.713-0.174,1.373-0.417,2.329C14.61,25.661,14.767,25.452,14.854,26.13z"/>
<g>
	<g>
		<path fill-rule="evenodd" clip-rule="evenodd" fill="#281F15" d="M7.115,12.451c0.201-0.128,0.294-0.349,0.294-0.477
			s0.036-0.128,0.11-0.037c0.073,0.092,0.128,0.128,0.293,0.037s0.349-0.386,0.404-0.514c0.055-0.129-0.147-0.294-0.221-0.404
			c-0.073-0.11-0.258-0.055-0.331-0.147c-0.072-0.092,0.073-0.331,0-0.441c-0.072-0.11-0.22-0.202-0.366-0.367
			c-0.147-0.166-0.238,0.055-0.368,0c-0.128-0.055-0.164-0.404-0.513-0.441c-0.349-0.037-0.275,0.606-0.331,0.771
			c-0.055,0.166,0,0.074,0.146,0.331c0.147,0.257,0.294,0.257,0.404,0.477c0.11,0.221-0.056,0.367-0.184,0.698
			s0.018,0.293,0.147,0.477C6.729,12.598,6.913,12.58,7.115,12.451z M19.12,7.458c0.11-0.238,0.146-0.11,0.366-0.22
			c0.221-0.11,0-0.184,0-0.331c0-0.146,0.184-0.202,0.073-0.514c-0.109-0.312-0.312,0.128-0.587-0.037
			c-0.275-0.166-0.165-0.239-0.221-0.551c-0.055-0.312-0.349-0.238-0.697-0.331c-0.349-0.092-0.55,0.019-0.771,0.184
			s-0.073,0.11,0,0.331s-0.147,0.128-0.184,0.331c-0.037,0.202,0,0.092,0.33,0.33c0.33,0.239,0.698,0.257,1.065,0.918
			C18.862,8.229,19.01,7.697,19.12,7.458z M24.736,9.037c0.019-0.22,0.093-0.293,0-0.514c-0.091-0.221-0.146-0.459-0.366-0.661
			c-0.221-0.202-1.34-0.808-1.249-0.33c0.092,0.477,0.11,0.715,0.11,1.028c0,0.312,0.018,0.184,0.221,0.514
			c0.201,0.331-0.037,0.551,0.439,0.478c0.479-0.074,0.35,0.165,0.551-0.11C24.646,9.166,24.719,9.258,24.736,9.037z M26.462,15.278
			c-0.128-0.275-0.221-0.257-0.44-0.22c-0.22,0.037-0.165,0.055-0.367,0.661c-0.201,0.605-0.037,0.275-0.184,0.624
			c-0.147,0.349,0,0.129,0.073,0.22c0.073,0.092,0.019,0.055,0,0.22c-0.018,0.166-0.11,0.129-0.073,0.367
			c0.036,0.239,0.073,0.055,0.331-0.11c0.257-0.165,0.055-0.037,0.477-0.293s0.11-0.019,0.331-0.881
			C26.829,15.003,26.591,15.554,26.462,15.278z M21.665,21.569c-0.238-0.037-0.495-0.203-0.294,0.183
			c0.202,0.385,0.238,0.477,0.404,0.625c0.165,0.146,0.275-0.019,0.183-0.367C21.867,21.66,21.903,21.605,21.665,21.569z
			 M24.59,17.701c-0.11,0.202-0.367,0.349-0.11,0.478c0.257,0.128,0.33,0.128,0.515,0.037c0.184-0.092,0.293-0.055,0.257-0.331
			C25.214,17.609,24.699,17.499,24.59,17.701z M9.354,20.271c-0.22-0.239-0.146-0.202-0.44-0.551s-0.386-0.624-0.551-0.991
			c-0.166-0.367-0.184-0.11-0.221-0.587c-0.036-0.477-0.165-0.587-0.33-0.514c-0.165,0.073-0.386,0.055-0.478,0.367
			c-0.092,0.312,0,0.459-0.22,0.551c-0.221,0.092-0.258-0.055-0.331,0.367c-0.072,0.422,0,0.422,0.221,0.661
			c0.221,0.239,0.202,0.569,0.404,0.734c0.201,0.165,0.733,0.073,0.954,0.11c0.22,0.037,0.386,0.239,0.587,0.221
			C9.152,20.62,9.574,20.51,9.354,20.271z M13.393,25.337c-0.165-0.257-0.349-0.221-0.588-0.184
			c-0.238,0.037-0.22,0.275-0.293,0.697c-0.073,0.422,0.496,0.184,0.734,0.184s0.11-0.037,0.33-0.293
			C13.796,25.484,13.558,25.594,13.393,25.337z M9.024,24.016c-0.459,0.22,0.459,0.587,0.66,0.587c0.202,0,0.037-0.018,0.147-0.183
			c0.11-0.166,0.11-0.184-0.074-0.587C9.574,23.428,9.483,23.795,9.024,24.016z M20.185,8.009c-0.367-0.496-0.331-0.092-0.515,0.11
			c-0.184,0.202-0.275,0.22-0.514,0.22s-0.238-0.074-0.404,0.11c-0.165,0.183,0.037,0.128,0.294,0.44
			c0.258,0.312,0.734,0.202,0.845,0.257s0.184,0.055,0.403,0.11c0.221,0.055,0.203,0.037,0.441,0
			c0.238-0.037,0.018-0.11-0.037-0.294S20.552,8.505,20.185,8.009z"/>
	</g>
</g>
<g>
	<g>
		<path fill-rule="evenodd" clip-rule="evenodd" fill="#AA998D" d="M18.445,6.784c-0.124-0.143-0.159-0.32-0.249-0.391
			c-0.089-0.071-0.355,0.017-0.461,0.142c-0.106,0.124-0.035,0.124-0.214,0.319c-0.177,0.195-0.496,0.018-0.496,0.106
			c0,0,0.319,0.125,0.425,0.178c0.107,0.054,0.107,0.054,0.144,0.143c0.035,0.088-0.036,0.159-0.036,0.249
			c0,0.087,0.071,0.176,0.071,0.176s0.071,0.036,0.143,0.142c0.069,0.107,0.052,0.107,0.069,0.214
			c0.019,0.106-0.035,0.124,0.107,0.212c0.141,0.089,0.159,0.036,0.354,0.107c0.195,0.071,0.284-0.195,0.391-0.426
			c0.105-0.23,0.178-0.71,0.178-0.71l-0.035-0.143C18.836,7.102,18.571,6.925,18.445,6.784z M20.596,7.991
			c-0.088-0.142-0.158,0-0.142,0.178c0.019,0.177-0.141,0.354-0.354,0.426c-0.214,0.071-0.229-0.196-0.391-0.356
			c-0.16-0.159-0.124-0.053-0.177,0.072c-0.054,0.125-0.108,0.159-0.143,0.355c-0.035,0.194,0.958,0.728,1.137,0.674
			c0.177-0.053,0.213-0.23,0.39-0.461c0.177-0.231,0.07-0.231,0.034-0.391C20.916,8.329,20.685,8.133,20.596,7.991z M23.697,8.026
			c-0.158,0.018-0.408,0.248-0.566,0.461c-0.159,0.213-0.196,0.32-0.319,0.426c-0.125,0.107-0.195,0.071-0.214,0.355
			c-0.019,0.284,0,0.515,0.036,0.639c0.035,0.124,0.142,0.302,0.248,0.142c0.105-0.159,0.212-0.213,0.212-0.213
			s0.108-0.07,0.179-0.035c0.071,0.035,0.122,0.106,0.247,0.106c0.124,0,0.249,0.142,0.249-0.106c0-0.249-0.018-0.568,0.071-0.853
			c0.09-0.283,0.266-0.443,0.178-0.674C23.93,8.043,23.857,8.007,23.697,8.026z M7.513,11.469c0-0.107,0-0.143,0.07-0.249
			c0.072-0.107,0.019-0.178-0.07-0.213c-0.088-0.035-0.105-0.035-0.247-0.035c-0.143,0-0.161-0.036-0.284-0.143
			c-0.124-0.107-0.124-0.195-0.354-0.461C6.396,10.102,6.2,10.759,6.2,10.9s0.337,0.267,0.462,0.355
			c0.123,0.089,0.106,0.16,0.106,0.284c0,0.124-0.302,0.55-0.355,0.745c-0.054,0.196-0.107,0.178,0,0.32
			c0.106,0.142,0.089,0.213,0.215,0.249c0.121,0.036,0.086,0.071,0.282-0.071c0.194-0.143,0.515-0.479,0.673-0.639
			c0.161-0.16,0.072-0.319,0.037-0.426C7.583,11.61,7.513,11.575,7.513,11.469z M20.239,24.689
			c-0.143-0.195-0.213-0.088-0.285-0.035c-0.069,0.054,0.072,0.089-0.036,0.249c-0.104,0.159,0.036,0.212-0.211,0.355
			c-0.25,0.142-0.284,0.159-0.284,0.283c0,0.125-0.019,0.302,0,0.355c0.018,0.054,0.248-0.071,0.319-0.106s0.052-0.053,0.143,0
			c0.087,0.054,0.195,0.071,0.247-0.071c0.054-0.142,0.054-0.159,0.107-0.248c0.053-0.088,0.07,0.106,0.213-0.106
			c0.143-0.213,0.354-0.125,0.105-0.355C20.31,24.779,20.382,24.885,20.239,24.689z M26.608,17.29
			c-0.194-0.498-0.089-0.089-0.318-0.036c-0.232,0.053-0.25,0.301-0.391,0.567c-0.141,0.267-0.515,0.071-0.64,0.32
			c-0.124,0.249,0.231,0.284,0.284,0.498c0.053,0.212-0.088,0.231-0.213,0.461c-0.125,0.23-0.035,0.178,0.105,0.284
			c0.143,0.107,0.035,0.036,0.143,0.178c0.107,0.142,0.088,0.124,0.391,0.07c0.302-0.053,0.392-0.39,0.746-1.064
			C27.07,17.892,26.804,17.786,26.608,17.29z M8.542,19.986c-0.017,0.107,0.072,0.391,0.249,0.284
			c0.178-0.106,0.124-0.177,0.32-0.141c0.194,0.035,0.337,0.106,0.532,0.177c0.194,0.071,0.283,0,0.105-0.177
			c-0.177-0.178-0.285-0.214-0.391-0.533c-0.105-0.319,0.019-0.302-0.105-0.639c-0.125-0.338-0.249-0.355-0.392-0.497
			c-0.142-0.143-0.265-0.125-0.319,0.071c-0.053,0.195-0.088,0.372-0.249,0.567c-0.158,0.195-0.373,0.195-0.249,0.391
			c0.126,0.194,0.162,0.301,0.321,0.319C8.525,19.827,8.56,19.879,8.542,19.986z M9.43,23.536c-0.338-0.337-0.088-0.302-0.283-0.532
			c-0.195-0.231-0.159-0.036-0.641,0.212c-0.478,0.249,1.102,1.296,1.28,1.349c0.176,0.054,0.105,0,0.211-0.213
			c0.107-0.211,0-0.124-0.07-0.354S9.768,23.873,9.43,23.536z M12.942,25.346c-0.318-0.16-0.211-0.053-0.602,0.248
			c-0.393,0.302,0.62,0.337,0.922,0.426c0.302,0.089,0.089,0.018,0.071-0.248C13.315,25.506,13.263,25.506,12.942,25.346z
			 M22.302,21.587c-0.147-0.08-0.108,0.026-0.269-0.026c-0.16-0.054-0.055-0.147-0.241-0.027c-0.188,0.12-0.04,0.133,0,0.24
			c0.039,0.107,0.026,0.013,0.081,0.16c0.054,0.147,0.013,0.054-0.055,0.241c-0.066,0.187-0.12,0.027-0.268,0.133
			c-0.146,0.107,0.016,0.094,0.135,0.214c0.12,0.12,0.039,0.054,0.429-0.347c0.387-0.4,0.119-0.121,0.319-0.375
			C22.635,21.548,22.449,21.667,22.302,21.587z"/>
	</g>
</g>
<path fill-rule="evenodd" clip-rule="evenodd" fill="#232323" d="M16.102,0.609c-8.498,0-15.387,6.889-15.387,15.387
	s6.889,15.387,15.387,15.387s15.387-6.889,15.387-15.387S24.6,0.609,16.102,0.609z M16.258,26.611
	c-5.811,0-10.521-4.711-10.521-10.521S10.447,5.569,16.258,5.569s10.521,4.71,10.521,10.521S22.068,26.611,16.258,26.611z"/>
<path fill-rule="evenodd" clip-rule="evenodd" fill="#F4DA6E" d="M18.469,18.948c-0.109,0-0.21-0.018-0.309-0.055l-0.063-0.023
	c-0.512-0.193-0.779-0.301-0.779-0.45c0-0.085,0.143-0.208,1.143-0.905c0.283-0.198,0.551-0.385,0.634-0.456
	c0.212-0.184,0.425-0.295,0.709-0.371c0.206-0.056,0.741-0.175,0.999-0.175c0.077,0,0.16,0.009,0.193,0.066
	c0.067,0.118,0.085,0.22,0.086,0.225l0.002,0.017l-0.005,0.017c-0.042,0.12-0.415,1.18-0.609,1.344
	c-0.198,0.168-0.701,0.56-1.108,0.593c-0.129,0.011-0.256,0.046-0.39,0.084C18.811,18.902,18.643,18.948,18.469,18.948z
	 M13.479,18.932c-0.185,0-0.313-0.012-0.394-0.038c-0.218-0.068-0.88-0.276-1.12-0.614c-0.084-0.118-0.205-0.258-0.322-0.395
	c-0.206-0.238-0.4-0.464-0.462-0.628c-0.103-0.272-0.003-0.493,0.001-0.503l0.004-0.006l0.004-0.006
	c0.112-0.148,0.348-0.18,0.561-0.197c0.023-0.001,0.052-0.002,0.084-0.002c0.243,0,0.723,0.061,0.983,0.292
	c0.271,0.24,0.933,0.718,1.142,0.837c0.031,0.018,0.75,0.423,0.848,0.501c0.09,0.071,0.082,0.117,0.048,0.199
	c-0.007,0.018-0.017,0.04-0.026,0.068c-0.056,0.156-0.323,0.456-0.544,0.456l0,0c-0.049,0-0.136,0.006-0.239,0.013
	C13.877,18.919,13.668,18.932,13.479,18.932z"/>
<path fill-rule="evenodd" clip-rule="evenodd" fill="#D6D6D6" d="M22.645,13.033l-0.467-2.368c-0.711-1.771-3.912-3.572-6.35-3.572
	c-0.025,0-0.051,0-0.077,0.001l-1.312,0.308c-1.467,0.571-3.507,1.52-4.315,3.149l-0.192,1.004l-0.349,1.663
	c0.06,0.474,0.282,1.026,0.497,1.561c0.227,0.563,0.441,1.093,0.436,1.473v0.017l-0.23,0.425l0.155,1.479l-0.384,0.766
	c0.15,0.297,0.301,0.396,0.524,0.545c0.077,0.051,0.163,0.107,0.259,0.18c0.074,0.057,0.145,0.11,0.212,0.161
	c0.502,0.384,0.805,0.615,1.192,0.615c0.303,0,0.676-0.136,1.287-0.47l0.061-0.033l0.078,0.156l-0.001,0.018
	c-0.024,0.395-0.208,0.761-0.403,1.148c-0.308,0.612-0.626,1.246-0.308,2.039c0.05,0.048,0.091,0.082,0.129,0.112
	c0.082,0.067,0.149,0.122,0.229,0.261l0.398-0.239l0.213,0.595c0.049,0.021,0.086,0.03,0.116,0.03c0.051,0,0.091-0.026,0.179-0.085
	l0.104-0.07l0.034,0.065c0.18,0.34,1.008,0.597,1.926,0.597c0.856,0,1.473-0.229,1.57-0.583L17.88,23.9l0.341,0.17l0.01-0.011
	l0.006-0.003c0.141-0.09,0.221-0.252,0.242-0.495l0.003-0.037l0.149-0.073l0.293,0.22c0.031-0.039,0.053-0.073,0.072-0.104
	c0.066-0.106,0.117-0.173,0.307-0.243c0.102-0.645,0.025-1.405-0.197-1.948c-0.056-0.137-0.129-0.258-0.199-0.375
	c-0.149-0.248-0.305-0.506-0.312-0.934l-0.001-0.104l1.102,0.466c0.078,0.018,0.162,0.027,0.247,0.027
	c0.938,0,2.009-1.058,2.264-1.557c-0.405-0.72-0.368-0.988-0.245-1.849l0.021-0.147c0.022-0.167-0.049-0.263-0.125-0.365
	c-0.046-0.063-0.089-0.12-0.107-0.192l-0.005-0.019l0.473-1.575c0.04-0.125,0.096-0.256,0.154-0.394
	C22.536,13.973,22.723,13.537,22.645,13.033z M14.771,18.318c-0.047,0.133-0.295,0.413-0.481,0.413
	c-0.186-0.001-0.931,0.077-1.179,0c-0.248-0.079-0.863-0.277-1.086-0.59c-0.223-0.313-0.682-0.761-0.775-1.008
	c-0.094-0.249,0-0.45,0-0.45c0.094-0.124,0.311-0.155,0.512-0.171c0.202-0.016,0.748,0.033,1.018,0.273
	c0.27,0.238,0.938,0.722,1.154,0.845c0.217,0.122,0.76,0.433,0.838,0.495C14.849,18.187,14.818,18.187,14.771,18.318z M20.434,18.03
	c-0.188,0.157-0.684,0.546-1.07,0.576c-0.389,0.031-0.762,0.28-1.172,0.125c-0.411-0.155-0.799-0.296-0.799-0.413
	c0-0.115,1.521-1.108,1.753-1.31c0.232-0.202,0.45-0.295,0.683-0.357c0.232-0.062,1.055-0.247,1.117-0.139
	c0.062,0.108,0.077,0.201,0.077,0.201S20.619,17.872,20.434,18.03z"/>
<path opacity="0.7" fill="#282621" d="M16.273,24.827c-0.75,0-1.645-0.175-2.03-0.563c-0.384,0.207-0.639-0.097-0.683-0.438
	l-0.323,0.077c-0.319-0.044-0.306-0.245-0.489-0.427c-0.524-1.226,0.303-2.003,0.596-3.117c-0.686,0.346-1.309,0.486-1.98,0.034
	c-0.535-0.36-1.332-0.804-1.596-1.414l0.001-0.089l0.397-0.796c-0.089-0.69-0.284-1.298,0.082-1.918
	c-0.062-1.017-0.875-1.535-0.932-2.781c-0.043-0.933,0.357-1.986,0.534-2.903c0.964-1.975,3.782-3.525,5.966-3.666
	c2.578,0,5.85,1.864,6.604,3.764c0.156,0.786,0.476,1.737,0.551,2.535c0.152,0.979-0.676,2.253-0.964,3.216
	c0.046-0.072,0.235,0.537,0.227,0.599c-0.104,0.72-0.157,1.26,0.234,1.903l0.004,0.092c-0.329,0.71-1.098,1.331-1.808,1.626
	c-0.674,0.279-1.15,0.086-1.771-0.176c0.142,0.515,0.501,0.91,0.614,1.451c0.113,0.533,0.125,1.094,0.029,1.631
	c-0.201,0.107-0.414,0.283-0.527,0.498l-0.135,0.014l-0.189-0.142c-0.059,0.201-0.183,0.361-0.353,0.479l-0.138,0.047l-0.196-0.098
	C17.744,24.624,17.125,24.827,16.273,24.827z M14.378,23.949c0.394,0.744,3.178,0.95,3.435,0.021l0.033-0.117l0.363,0.182
	c0.154-0.133,0.23-0.33,0.229-0.531l0.185-0.09l0.282,0.212c0.107-0.151,0.169-0.253,0.355-0.325
	c0.104-0.683,0.047-1.489-0.291-2.104c-0.23-0.423-0.443-0.78-0.422-1.283c0.418,0.177,0.92,0.512,1.383,0.512
	c0.85,0,1.896-0.812,2.248-1.568c-0.416-0.647-0.352-1.224-0.242-1.957c0.034-0.239-0.176-0.336-0.23-0.544
	c0.259-0.964,1.041-2.365,0.893-3.318c-0.061-0.786-0.314-1.596-0.467-2.37c-0.695-1.745-3.886-3.541-6.314-3.541
	c-2.108,0.456-4.66,1.38-5.68,3.448c-0.168,0.89-0.352,1.775-0.537,2.662c0.137,1.032,0.949,1.968,0.937,3.016
	c-0.078,0.16-0.16,0.319-0.245,0.476c0.062,0.474,0.117,0.946,0.167,1.421c-0.131,0.279-0.259,0.56-0.399,0.834
	c0.325,0.479,1.225,1.076,1.743,1.321c0.603,0.284,1.274-0.124,1.791-0.415c0.04,0.071,0.071,0.146,0.096,0.223
	c-0.069,1.144-1.206,1.97-0.708,3.186c0.13,0.079,0.256,0.198,0.334,0.328l0.406-0.243l0.234,0.66
	c0.004-0.031,0.266-0.116,0.332-0.164L14.378,23.949z"/>
<path fill-rule="evenodd" clip-rule="evenodd" fill="#282828" d="M15.73,7.026c2.572-0.043,5.795,1.852,6.499,3.62
	c0.155,0.791,0.312,1.583,0.468,2.374c0.109,0.708-0.277,1.28-0.429,1.751c-0.155,0.52-0.312,1.038-0.467,1.558
	c0.044,0.166,0.275,0.284,0.233,0.583c-0.139,0.987-0.202,1.222,0.233,1.985c-0.263,0.566-1.573,1.836-2.607,1.596
	c-0.337-0.143-0.675-0.285-1.013-0.429c0.01,0.61,0.328,0.851,0.506,1.285c0.239,0.585,0.303,1.388,0.195,2.024
	c-0.309,0.104-0.248,0.187-0.428,0.389c-0.104-0.078-0.208-0.155-0.312-0.233c-0.026,0.013-0.052,0.025-0.078,0.039
	c-0.022,0.248-0.105,0.438-0.272,0.544c-0.014,0.014-0.025,0.026-0.039,0.039c-0.104-0.052-0.207-0.104-0.312-0.155
	c-0.254,0.922-3.219,0.759-3.62,0c-0.176,0.117-0.224,0.171-0.428,0.078c-0.064-0.182-0.13-0.363-0.194-0.545
	c-0.13,0.078-0.259,0.155-0.39,0.233c-0.129-0.253-0.209-0.252-0.389-0.429c-0.545-1.328,0.638-2.221,0.7-3.229
	c-0.013-0.026-0.026-0.053-0.039-0.079c-1.472,0.806-1.66,0.522-2.763-0.311c-0.372-0.281-0.601-0.329-0.818-0.778
	c0.131-0.26,0.26-0.519,0.39-0.778c-0.052-0.493-0.104-0.986-0.155-1.479c0.077-0.143,0.155-0.285,0.232-0.429
	c0.01-0.72-0.815-2.05-0.934-3.035c0.117-0.558,0.234-1.116,0.35-1.674c0.066-0.338,0.131-0.675,0.195-1.012
	c0.779-1.579,2.662-2.53,4.359-3.191C14.848,7.234,15.289,7.129,15.73,7.026z M15.846,7.259c-0.479,0.117-0.959,0.233-1.439,0.351
	c-1.889,0.686-3.345,1.614-4.087,3.464c-0.274,0.684-0.707,1.788-0.351,2.725c0.247,0.7,0.493,1.401,0.74,2.102
	c0.025-0.013,0.052-0.025,0.078-0.038c0.16-1.139,0.221-1.928-0.117-2.959c0.052,0.039,0.104,0.078,0.156,0.117
	c0.234,0.612,0.477,2.005,0.155,2.802c-0.169,0.312-0.338,0.623-0.506,0.935c0.038,0.493,0.077,0.986,0.116,1.479
	c-0.063,0.319-0.266,0.536-0.272,0.817c0.169,0.18,0.308,0.354,0.584,0.429c0-0.014,0-0.026,0-0.039
	c-0.065-0.168-0.13-0.338-0.194-0.506c0.052,0.026,0.104,0.052,0.155,0.078c0.987,2.605,1.743,0.387,3.659,0.7
	c0.039,0.052,0.077,0.104,0.116,0.155c0.093,0.303-0.046,0.63-0.272,0.74c0.121-0.228,0.24-0.435,0.117-0.701
	c-0.159,0.079-0.445,0.121-0.545,0.272c-0.334,0.604-0.686,1.132-0.856,1.868c0.207,0.107,0.181,0.286,0.272,0.507
	c0.064,0,0.13,0,0.194,0c0.039,0.116,0.077,0.232,0.117,0.35c0.026-0.013,0.052-0.026,0.077-0.039
	c0.064-0.091,0.131-0.182,0.195-0.271c0.064,0.012,0.13,0.025,0.194,0.038c0.11,0.154,0.177,0.239,0.233,0.468
	c0.025-0.014,0.053-0.026,0.078-0.039c0.064-0.091,0.129-0.183,0.194-0.273c0.065,0.014,0.13,0.026,0.195,0.039
	c0.128,0.178,0.216,0.385,0.35,0.584c0.013,0,0.026,0,0.039,0c0.054-0.214,0.141-0.264,0.272-0.389
	c0.359-0.01,0.438,0.059,0.623,0.194c0.127-0.13,0.363-0.278,0.622-0.155c0.171,0.087,0.201,0.211,0.312,0.35
	c0.014,0,0.026,0,0.039,0c0.037-0.353,0.191-0.442,0.389-0.623c0.053,0.026,0.104,0.053,0.156,0.078
	c0.078,0.078,0.156,0.156,0.234,0.234c0.043-0.285,0.141-0.391,0.35-0.506c0.179,0.09,0.215,0.191,0.351,0.311
	c0.052-0.13,0.104-0.259,0.155-0.39c0.064,0.027,0.13,0.052,0.195,0.079c0-0.336,0.094-0.441,0.232-0.624
	c-0.383-0.606-0.472-1.383-0.934-1.907c-0.156-0.052-0.312-0.104-0.467-0.155c-0.058,0.097-0.07,0.132-0.078,0.312
	c0.052,0.13,0.104,0.259,0.156,0.39c-0.053-0.039-0.104-0.078-0.156-0.117c-0.076-0.241-0.121-0.436-0.078-0.739
	c0.026-0.013,0.053-0.026,0.078-0.039c2.105-0.364,2.518,2.077,3.775-0.817c0.013,0,0.025,0,0.039,0
	c-0.053,0.194-0.104,0.39-0.156,0.584c0.264-0.068,0.463-0.252,0.584-0.467c-0.09-0.246-0.182-0.493-0.271-0.74
	c0.039-0.506,0.077-1.012,0.116-1.518c-0.155-0.272-0.312-0.545-0.468-0.817c-0.307-0.641-0.287-2.568,0.234-2.997
	c-0.216,0.671-0.553,2.329,0,2.958c0.013,0,0.025,0,0.039,0c0.271-0.855,0.545-1.713,0.816-2.569
	c0.125-0.665-0.139-1.211-0.271-1.635C21.191,8.758,19.036,7.817,15.846,7.259z M19.115,23.217c-0.012-0.22-0.025-0.441-0.038-0.661
	c0.155,0.12,0.176,0.455,0.194,0.7C19.22,23.243,19.168,23.23,19.115,23.217z M18.648,23.451c-0.04-0.213,0.058-0.464,0.117-0.7
	c0.202,0.197,0.192,0.468,0.156,0.817C18.83,23.529,18.74,23.49,18.648,23.451z M18.221,23.996c-0.215-0.413-0.33-0.767-0.078-1.207
	c0.039,0,0.078,0,0.117,0c0.188,0.323,0.133,0.702,0.078,1.13C18.299,23.944,18.26,23.97,18.221,23.996z M17.559,24.268
	c-0.064-0.013-0.129-0.026-0.193-0.039c-0.09-0.352-0.138-0.551-0.117-0.973c0.077-0.091,0.155-0.182,0.232-0.273
	c0.039,0,0.078,0,0.117,0c0.099,0.25,0.319,0.723,0.156,1.091C17.689,24.187,17.648,24.19,17.559,24.268z M17.014,24.424
	c-0.259,0.038-0.519,0.077-0.777,0.116c-0.159-0.325-0.076-0.852,0-1.207c0.09-0.052,0.182-0.104,0.271-0.155
	c0.065,0.013,0.13,0.026,0.195,0.039c0.158,0.234,0.532,0.674,0.35,1.09C17.04,24.346,17.027,24.385,17.014,24.424z M15.262,24.462
	c-0.038-0.038-0.077-0.077-0.115-0.116c-0.006-0.607,0.183-0.833,0.428-1.168c0.117,0.026,0.233,0.052,0.35,0.078
	c0.148,0.266,0.113,0.742,0.156,1.168c0,0.013,0,0.025,0,0.038C15.827,24.581,15.592,24.486,15.262,24.462z M14.718,24.268
	c-0.078-0.039-0.155-0.078-0.233-0.117c-0.092-0.446,0.006-0.866,0.155-1.168c0.039,0,0.078,0,0.117,0
	c0.309,0.415,0.224,0.705,0.116,1.246C14.821,24.242,14.77,24.255,14.718,24.268z M13.979,23.996
	c-0.187-0.348-0.164-0.825-0.039-1.207c0.064,0.014,0.13,0.026,0.194,0.039c0.14,0.506,0.066,0.647-0.077,1.129
	C14.03,23.97,14.004,23.983,13.979,23.996z M13.316,23.568c-0.041-0.348-0.02-0.577,0.117-0.817
	c0.064,0.194,0.129,0.389,0.193,0.583C13.535,23.459,13.495,23.518,13.316,23.568z M12.966,23.256c0.04-0.233,0.078-0.468,0.117-0.7
	c0.097,0.111,0.036,0.39,0.077,0.583c-0.051,0.039-0.104,0.078-0.154,0.117C12.992,23.256,12.979,23.256,12.966,23.256z
	 M15.652,19.13c0.116,0.013,0.232,0.026,0.35,0.039c0.022,0.173,0.03,0.182,0.117,0.272c0.052-0.104,0.104-0.207,0.155-0.312
	c0.274,0.003,0.349,0.058,0.507,0.156c0.156,0.406,0.572,1.405,0.389,1.867c-0.078,0.091-0.156,0.183-0.233,0.273
	c-0.065-0.013-0.13-0.026-0.195-0.039c-0.155-0.312-0.312-0.623-0.467-0.934c-0.13,0.024-0.259,0.052-0.39,0.077
	c-0.088,0.334-0.245,0.754-0.545,0.896c-0.104-0.078-0.207-0.156-0.311-0.234C15.008,20.423,15.277,19.544,15.652,19.13z
	 M11.526,16.368c0.39-0.008,0.934-0.061,1.206,0.077c0.428,0.377,0.857,0.753,1.285,1.129c0.519,0.272,1.037,0.545,1.557,0.817
	c-0.438-0.023-0.58-0.072-0.779,0.194c-0.609,0.284-0.826,0.696-1.789,0.701c0.012-0.026,0.025-0.052,0.038-0.078
	c0.356-0.039,0.7-0.145,0.896-0.351c0-0.013,0-0.025,0-0.038c-0.742,0.023-1.469,0.06-1.947-0.273
	c-0.219-0.233-0.44-0.467-0.661-0.7c0,0.013,0,0.025,0,0.038c0.165,0.435,0.413,0.684,0.584,1.052c-0.013,0-0.026,0-0.038,0
	c-0.438-0.304-0.732-0.792-0.857-1.401c-0.012-0.233-0.025-0.468-0.038-0.7c-0.067-0.108-0.146-0.043-0.233-0.039
	c-0.014-0.013-0.026-0.025-0.039-0.039c0-0.013,0-0.025,0-0.039C10.981,16.6,11.254,16.484,11.526,16.368z M11.487,16.639
	c-0.026,0.013-0.052,0.026-0.078,0.039c0.18,1.13,2.168,2.855,3.23,1.557c-0.013-0.025-0.026-0.052-0.039-0.077
	c-0.739-0.454-1.479-0.908-2.218-1.362C12.084,16.744,11.785,16.691,11.487,16.639z M19.699,16.368
	c0.864-0.021,1.299,0.131,1.83,0.35c0,0.026,0,0.053,0,0.078c-0.092,0-0.182,0-0.273,0c0.021,0.981-0.297,1.805-0.934,2.141
	c0.133-0.356,0.406-0.666,0.584-1.052c-0.013-0.013-0.025-0.025-0.039-0.038c-0.922,0.775-0.885,1.011-2.607,0.974
	c0.025,0.038,0.052,0.077,0.078,0.116c0.299,0.116,0.596,0.234,0.895,0.351c-0.924,0.022-1.6-0.414-1.984-0.935
	c-0.195,0.013-0.39,0.025-0.584,0.039c0.013-0.026,0.025-0.052,0.039-0.078C17.978,18.093,18.779,16.997,19.699,16.368z
	 M20.712,16.639c-0.325,0.064-0.649,0.131-0.974,0.195c-0.713,0.467-1.427,0.934-2.141,1.4c0.621,0.797,2.33,0.145,2.725-0.389
	c0.169-0.39,0.338-0.779,0.506-1.168C20.789,16.666,20.75,16.652,20.712,16.639z M17.326,13.642
	c-0.004,0.419-1.005,1.074-1.363,1.323c0.053,0.065,0.104,0.131,0.156,0.195c0.195,0.182,0.389,0.363,0.584,0.545
	c-0.285-0.207-0.572-0.415-0.857-0.623c-0.287,0.204-0.725,0.608-1.051,0.623c0.273-0.26,0.545-0.519,0.818-0.779
	c-0.247-0.245-0.493-0.492-0.74-0.739c0.014-0.013,0.025-0.026,0.039-0.039c0.272,0.221,0.545,0.442,0.818,0.662
	C16.25,14.662,16.986,14.024,17.326,13.642z"/>
<path fill-rule="evenodd" clip-rule="evenodd" fill="#AA998D" d="M16.193,31.532c-8.609,0-15.588-6.979-15.588-15.587
	S7.584,0.358,16.193,0.358c8.607,0,15.586,6.979,15.586,15.587S24.801,31.532,16.193,31.532z M16.161,1.039
	c-8.233,0-14.908,6.675-14.908,14.908s6.675,14.908,14.908,14.908s14.908-6.675,14.908-14.908S24.395,1.039,16.161,1.039z
	 M16.203,30.374c-7.895,0-14.328-6.543-14.328-14.438c0-7.896,6.258-14.47,14.328-14.47s14.232,6.587,14.232,14.482
	C30.436,23.843,24.1,30.374,16.203,30.374z M16.193,1.979c-7.714,0-13.893,6.252-13.893,13.966s6.179,13.967,13.893,13.967
	c7.713,0,13.741-6.253,13.741-13.967S23.906,1.979,16.193,1.979z M16.193,26.765c-5.977,0-10.821-4.845-10.821-10.82
	s4.845-10.82,10.821-10.82c5.976,0,10.82,4.845,10.82,10.82S22.169,26.765,16.193,26.765z M16.171,5.597
	c-5.716,0-10.35,4.633-10.35,10.349s4.634,10.35,10.35,10.35s10.349-4.634,10.349-10.35S21.887,5.597,16.171,5.597z M21.23,5.147
	c-0.077,0.243-0.338,0.376-0.58,0.299l-1.189-0.383c-0.242-0.078-0.375-0.339-0.298-0.58l0.331-1.029
	c0.077-0.241,0.338-0.374,0.58-0.296l1.189,0.382c0.242,0.077,0.376,0.338,0.298,0.58L21.23,5.147z M19.93,3.502l-0.385,1.198
	l1.248,0.401l0.386-1.198L19.93,3.502z M16.918,4.216l1.393,0.159l0.049-0.435l-0.662-0.075c-0.043-0.005-0.189-0.031-0.271-0.162
	c-0.063-0.102-0.074-0.175-0.074-0.215l1.472,0.168l-0.085,0.755c-0.05,0.226-0.266,0.38-0.502,0.354l-1.328-0.151
	c-0.252-0.028-0.435-0.258-0.405-0.511l0.122-1.072c0.029-0.253,0.258-0.436,0.51-0.407l1.328,0.151
	c0.226,0.026,0.398,0.213,0.408,0.438l-1.814-0.207L16.918,4.216z M15.145,4.645l-1.27,0.148c-0.248,0.029-0.474-0.136-0.525-0.376
	l1.738-0.202L15.046,3.86l-1.265,0.148c-0.248,0.028-0.474-0.136-0.525-0.375l-0.034-0.297c-0.031-0.262,0.157-0.503,0.421-0.532
	l1.234-0.144c0.246-0.03,0.473,0.135,0.525,0.373l0.002-0.001l-1.703,0.2l0.04,0.344l1.267-0.147
	c0.247-0.029,0.473,0.135,0.523,0.374l0.035,0.309C15.598,4.375,15.408,4.615,15.145,4.645z M12.625,5.077l-1.149,0.404
	c-0.251,0.087-0.524-0.045-0.612-0.295l-0.345-0.983c-0.088-0.25,0.044-0.525,0.294-0.613l1.15-0.401
	c0.232-0.083,0.484,0.024,0.59,0.24l0.008,0.023l-1.549,0.542l0.364,1.04l1.551-0.544l0.008,0.023
	C12.992,4.75,12.859,4.995,12.625,5.077z M11.276,28.264l0.688-1.718l-0.263-0.105l0.067-0.167l1.053,0.423
	c0.367,0.148,0.614,0.348,0.739,0.603c0.124,0.254,0.12,0.546-0.014,0.876c-0.132,0.333-0.332,0.548-0.599,0.647
	c-0.266,0.097-0.583,0.072-0.951-0.075l-1.052-0.422l0.066-0.167L11.276,28.264z M11.996,28.553
	c0.214,0.085,0.398,0.081,0.553-0.016c0.155-0.098,0.293-0.296,0.413-0.596c0.117-0.298,0.156-0.535,0.112-0.711
	c-0.045-0.177-0.175-0.309-0.388-0.395l-0.191-0.076l-0.69,1.718L11.996,28.553z M13.955,27.069l1.133,0.083l-0.013,0.178
	l-0.281-0.02l-0.079,1.102c-0.021,0.275,0.009,0.47,0.086,0.586c0.077,0.116,0.22,0.182,0.428,0.196
	c0.202,0.016,0.351-0.029,0.443-0.135c0.094-0.104,0.15-0.292,0.17-0.565l0.079-1.104l-0.28-0.019l0.012-0.18l0.77,0.055
	l-0.014,0.18l-0.282-0.021l-0.081,1.133c-0.025,0.337-0.115,0.572-0.271,0.704c-0.156,0.133-0.405,0.188-0.749,0.163
	c-0.342-0.025-0.582-0.115-0.717-0.271c-0.135-0.155-0.191-0.401-0.167-0.737l0.081-1.131l-0.279-0.02L13.955,27.069z
	 M18.061,28.561c-0.061-0.042-0.178-0.072-0.352-0.092l-0.339-0.037c-0.223-0.027-0.382-0.082-0.481-0.168
	c-0.102-0.086-0.164-0.219-0.188-0.398c-0.026-0.219,0.021-0.396,0.148-0.537c0.129-0.14,0.324-0.226,0.584-0.262
	c0.128-0.017,0.263-0.024,0.403-0.021c0.143,0.002,0.29,0.017,0.443,0.04l0.066,0.484l-0.188,0.025
	c-0.048-0.148-0.126-0.25-0.231-0.307c-0.104-0.057-0.244-0.074-0.421-0.051c-0.146,0.02-0.252,0.059-0.318,0.12
	c-0.067,0.061-0.094,0.14-0.082,0.24c0.013,0.091,0.047,0.157,0.104,0.197c0.058,0.041,0.189,0.073,0.394,0.099l0.339,0.037
	c0.211,0.023,0.369,0.084,0.475,0.179c0.106,0.096,0.172,0.237,0.197,0.426c0.028,0.222-0.026,0.399-0.163,0.534
	c-0.138,0.136-0.355,0.223-0.649,0.262c-0.145,0.02-0.288,0.027-0.432,0.02c-0.144-0.005-0.292-0.024-0.445-0.055l-0.068-0.519
	l0.187-0.024c0.051,0.16,0.135,0.273,0.249,0.34c0.117,0.069,0.269,0.089,0.454,0.064c0.154-0.02,0.265-0.064,0.336-0.132
	c0.072-0.068,0.101-0.159,0.085-0.271C18.156,28.667,18.122,28.602,18.061,28.561z M20.858,26.756l-0.187,0.069l-0.118-0.329
	l-0.574,0.208l0.621,1.718l0.276-0.1l0.061,0.168l-1.091,0.395l-0.061-0.169l0.275-0.099l-0.621-1.721l-0.569,0.207l0.118,0.329
	L18.8,27.5l-0.189-0.519l2.061-0.745L20.858,26.756z"/>
<path fill="#5B4D35" d="M16.12,30.957c-8.248,0-14.958-6.71-14.958-14.958S7.872,1.041,16.12,1.041s14.958,6.71,14.958,14.958
	S24.368,30.957,16.12,30.957z M16.12,1.14c-8.192,0-14.858,6.666-14.858,14.858S7.928,30.857,16.12,30.857
	s14.858-6.666,14.858-14.858S24.313,1.14,16.12,1.14z M16.162,30.475c-3.824,0-7.434-1.518-10.16-4.272
	c-2.72-2.749-4.217-6.377-4.217-10.215c0-3.86,1.474-7.494,4.151-10.231c2.706-2.766,6.337-4.288,10.226-4.288
	c3.883,0,7.497,1.525,10.179,4.296c2.646,2.733,4.104,6.369,4.104,10.236C30.444,23.982,24.037,30.475,16.162,30.475z M16.162,1.568
	c-7.873,0-14.277,6.469-14.277,14.42c0,7.934,6.404,14.388,14.277,14.388c7.82,0,14.183-6.448,14.183-14.375
	C30.345,7.908,24.115,1.568,16.162,1.568z M16.152,30.013c-3.74,0-7.246-1.458-9.875-4.105c-2.623-2.643-4.066-6.162-4.066-9.911
	s1.443-7.269,4.066-9.911c2.629-2.646,6.135-4.104,9.875-4.104c3.73,0,7.21,1.458,9.799,4.105c2.574,2.633,3.992,6.152,3.992,9.91
	s-1.418,7.278-3.992,9.911C23.362,28.555,19.883,30.013,16.152,30.013z M16.152,2.081c-7.633,0-13.842,6.243-13.842,13.916
	c0,7.674,6.209,13.917,13.842,13.917c7.678,0,13.691-6.113,13.691-13.917S23.83,2.081,16.152,2.081z M16.152,26.667
	c-5.885,0-10.67-4.786-10.67-10.67s4.785-10.67,10.67-10.67c5.883,0,10.669,4.786,10.669,10.67S22.035,26.667,16.152,26.667z
	 M16.152,5.458c-5.812,0-10.539,4.729-10.539,10.539s4.728,10.539,10.539,10.539c5.811,0,10.538-4.729,10.538-10.539
	S21.963,5.458,16.152,5.458z"/>
</svg>
