<?xml version="1.0" encoding="utf-8"?>
<!-- Generator: Adobe Illustrator 16.0.0, SVG Export Plug-In . SVG Version: 6.00 Build 0)  -->
<!DOCTYPE svg PUBLIC "-//W3C//DTD SVG 1.1//EN" "http://www.w3.org/Graphics/SVG/1.1/DTD/svg11.dtd">
<svg version="1.1" id="Layer_1" xmlns="http://www.w3.org/2000/svg" xmlns:xlink="http://www.w3.org/1999/xlink" x="0px" y="0px"
	 width="32px" height="32px" viewBox="0 0 32 32" enable-background="new 0 0 32 32" xml:space="preserve">
<g id="Shape_1_copy_11">
	<g>
		<path fill-rule="evenodd" clip-rule="evenodd" fill="#B7E4F3" d="M24.301,3.451c0-0.21,0.016-0.418,0.045-0.622
			c-2.285-0.262-5.189-0.505-8.087-0.505c-2.799,0-5.593,0.231-7.817,0.486c0.032,0.21,0.048,0.423,0.048,0.641
			c0,2.339-1.883,5.392-4.394,5.863c-0.218,18.099,9.518,20.474,12.248,21.57c2.79-1.112,12.473-3.473,12.249-21.591
			C26.133,8.789,24.301,5.759,24.301,3.451z"/>
	</g>
</g>
<g id="Shape_49">
	<g>
		<path fill-rule="evenodd" clip-rule="evenodd" fill="#8ED7F0" d="M25.977,11.356c0,0-1.965-0.625-4.014-0.362
			c1.383-1.472,1.979-3.224,1.979-3.224S21.83,7.986,20.07,9.135c0.703-1.968,0.502-3.922,0.502-3.922s-1.883,1.121-2.967,2.986
			c-0.176-2.158-1.252-3.934-1.252-3.934s-1.048,1.593-1.318,3.566c-1.019-1.715-2.508-2.787-2.508-2.787s-0.339,1.893,0.195,3.832
			C11.09,7.691,9.264,7.289,9.264,7.289s0.442,1.906,1.721,3.497c-2.009-0.437-3.907-0.063-3.907-0.063s1.193,1.606,3.043,2.561
			c-1.043,0.217-1.98,0.617-2.655,0.96c-0.67,0.34,4.028,4.094,4.028,4.094l10.246,0.061c0,0,4.326-3.195,3.654-3.629
			c-0.666-0.43-1.588-0.935-2.613-1.242C24.693,12.741,25.977,11.356,25.977,11.356z"/>
	</g>
</g>
<g id="Shape_1_copy_16">
	<g>
		<path fill-rule="evenodd" clip-rule="evenodd" fill="#546265" d="M25.064,2.685c0-0.223,0.016-0.442,0.049-0.658
			c-2.504-0.277-5.766-0.535-8.861-0.535c-2.99,0-6.131,0.245-8.569,0.514c0.035,0.222,0.053,0.449,0.053,0.679
			c0,2.476-1.697,5.706-4.355,6.205C3.152,28.042,13.454,30.556,16.343,31.716c2.954-1.176,13.2-3.675,12.961-22.848
			C26.701,8.334,25.064,5.127,25.064,2.685z M16.343,30.557C13.713,29.5,4.246,27.123,4.456,9.689
			c2.815-1.091,4.486-4.294,4.64-6.726c2.143-0.246,4.47-0.4,7.166-0.4c2.792,0,5.233,0.201,7.434,0.453
			c0.041,1.635,1.449,5.509,4.563,6.673C28.475,27.141,19.031,29.486,16.343,30.557z"/>
	</g>
</g>
<g id="Shape_1_copy_17">
	<g>
		<path fill-rule="evenodd" clip-rule="evenodd" fill="#FFFFFF" d="M24.178,3.492c0-0.21,0.016-0.417,0.045-0.62
			c-2.25-0.261-5.109-0.504-7.962-0.504c-2.757,0-5.508,0.23-7.698,0.484c0.031,0.209,0.047,0.423,0.047,0.64
			c0,2.332-1.973,5.375-4.476,5.845c-0.217,18.043,9.488,20.411,12.21,21.504c2.782-1.108,12.434-3.462,12.209-21.524
			C26.102,8.813,24.178,5.792,24.178,3.492z M16.343,29.748C13.866,28.753,4.948,26.514,5.145,10.09
			C7.797,9.063,9.498,6.045,9.64,3.754c1.982-0.231,4.118-0.376,6.627-0.376c2.598,0,4.838,0.188,6.875,0.426
			c0.039,1.541,1.49,5.189,4.424,6.287C27.77,26.53,18.875,28.739,16.343,29.748z"/>
	</g>
</g>
<g id="Shape_1_copy_18">
	<g>
		<path fill-rule="evenodd" clip-rule="evenodd" fill="#010101" d="M24.336,3.248c0-0.213-0.033-0.424-0.004-0.63
			c-2.281-0.266-5.133-0.514-8.075-0.514c-2.843,0-5.583,0.235-7.803,0.493c0.032,0.213-0.001,0.431-0.001,0.651
			c0,2.376-1.997,5.475-4.547,5.954c-0.221,18.377,9.665,20.79,12.437,21.903c2.833-1.129,12.665-3.526,12.436-21.923
			C26.283,8.668,24.336,5.591,24.336,3.248z M16.343,29.992C13.82,28.979,4.736,26.697,4.937,9.969
			c2.702-1.047,4.38-4.12,4.526-6.454c2.034-0.235,4.243-0.384,6.802-0.384c2.651,0,4.967,0.192,7.055,0.434
			c0.041,1.569,1.467,5.286,4.455,6.403C27.982,26.714,18.922,28.964,16.343,29.992z"/>
	</g>
</g>
<g id="Shape_34_copy_2">
	<g>
		<path fill-rule="evenodd" clip-rule="evenodd" fill="#8D917E" d="M8.557,17.673c0.099,0.448,0.238,1.016,0.414,1.576
			c0.356,1.135,0.885,2.236,0.885,2.236H23.32c0,0,0.59-1.083,0.941-2.208c0.174-0.556,0.297-1.122,0.379-1.572L8.557,17.673z"/>
	</g>
</g>
<g id="Shape_1_copy_14_2_">
	<g>
		<path fill-rule="evenodd" clip-rule="evenodd" fill="#B8B5A0" d="M20.621,21.167l-8.446,0.034c0,0-4.904,0.537-3.575,2.596
			c0.276,0.428,0.562,0.823,0.854,1.188c2.553,3.192,5.573,3.951,6.889,4.479c1.524-0.607,5.12-1.479,7.809-5.789
			C25.658,21.262,20.621,21.167,20.621,21.167z"/>
	</g>
</g>
<g id="Shape_1_copy_15">
	<g>
		<path fill-rule="evenodd" clip-rule="evenodd" fill="#A29784" d="M5.51,12.764c0.436,5.998,1.993,9.782,3.944,12.221
			c1.49-2.05,2.721-3.783,2.721-3.783s0.035-6.002,0.002-6.014C8.556,13.895,5.51,12.764,5.51,12.764z M20.629,15.471
			c-0.039,0.014-0.008,5.696-0.008,5.696s1.004,1.587,2.531,3.919c1.945-2.419,3.49-6.206,3.986-12.276
			C27.139,12.81,21.289,15.239,20.629,15.471z"/>
	</g>
</g>
<g id="Shape_31_copy_2">
	<g>
		<polygon fill-rule="evenodd" clip-rule="evenodd" fill="#242424" points="19.725,12.614 19.953,11.828 19.301,11.323 18.381,8.32 
			14.339,8.313 13.482,11.259 12.822,11.775 13.082,12.633 12.544,14.485 13.484,14.512 19.283,14.348 20.297,14.485 		"/>
	</g>
</g>
<g id="Shape_28_copy_8">
	<g>
		<rect x="14.702" y="9.106" fill-rule="evenodd" clip-rule="evenodd" fill="#C0B391" width="3.367" height="17.031"/>
	</g>
</g>
<g id="Shape_28_copy_8_1_">
	<g>
		<polygon fill-rule="evenodd" clip-rule="evenodd" fill="#A29784" points="13.339,13.905 13.339,21.058 14.734,26.137 
			14.734,9.106 		"/>
	</g>
</g>
<g id="Shape_28_copy_8_2_">
	<g>
		<polygon fill-rule="evenodd" clip-rule="evenodd" fill="#A29784" points="18.014,9.106 18.014,26.137 19.408,21.165 
			19.408,13.601 		"/>
	</g>
</g>
<g id="Shape_29_copy_4">
	<g>
		<rect x="15.944" y="16.968" fill-rule="evenodd" clip-rule="evenodd" fill="#30281F" width="1.021" height="1.902"/>
	</g>
</g>
<g id="Shape_32_copy_7">
	<g>
		<path fill-rule="evenodd" clip-rule="evenodd" fill="#30281F" d="M17.215,12.494c-0.02-0.383-0.354-0.688-0.763-0.688
			c-0.409,0-0.743,0.305-0.763,0.688h-0.001v1.744h1.527V12.494L17.215,12.494z"/>
	</g>
</g>
<g id="Color_Fill_2">
	<g>
		<path fill-rule="evenodd" clip-rule="evenodd" fill="#010101" d="M23.623,13.172c-0.063-0.016-0.125-0.014-0.186,0
			c-0.094-1.051-0.307-3.618-0.307-3.618s-0.016-0.167-0.133-0.165c-0.098,0.002-0.117,0.119-0.117,0.119L22.5,12.709
			c-0.102-0.023-0.205-0.02-0.299,0.026c-0.285,0.143-0.16,0.58-0.008,0.971c0.135,0.353,0.365,0.987,0.807,0.895
			c-0.043,0.234-0.068,0.497,0.078,0.54c0.594,0.17,0.697-0.608,0.762-1.023C23.902,13.703,23.932,13.25,23.623,13.172z
			 M22.975,13.571c-0.006-0.167,0.047-0.354-0.018-0.514c-0.043-0.11-0.127-0.206-0.283-0.276c0.08-0.74,0.297-3.04,0.297-3.04
			l0.047-0.004l0.238,3.491C23.1,13.306,23.027,13.441,22.975,13.571z"/>
	</g>
</g>
<g id="Color_Fill_1_2_">
	<g>
		<path fill-rule="evenodd" clip-rule="evenodd" fill="#010101" d="M16.255,10.097c4.065-0.024,8.12-0.564,9.967-0.906
			c0.336-0.062,0.641-0.119,0.92-0.173l-0.195-0.129c-0.225,0.04-0.465,0.084-0.725,0.132c-1.848,0.342-5.902,0.882-9.967,0.906
			C11.354,9.955,6.443,9.417,5.441,9.277c-0.007,0.074,0.003,0.146,0,0.171C6.443,9.588,11.354,10.126,16.255,10.097z M28.016,9.594
			c-0.48,0.102-1.111,0.243-1.893,0.426c-1.83,0.43-5.871,1.491-9.936,1.516c-4.901,0.029-9.786-1.119-10.781-1.304
			c-0.274-0.051-0.506-0.09-0.698-0.12c-0.002,0.04-0.016,0.098-0.019,0.148c0.193,0.043,0.43,0.091,0.709,0.143
			c0.995,0.185,5.888,1.334,10.789,1.305c4.065-0.024,8.114-1.086,9.944-1.516c0.863-0.202,1.541-0.37,2.035-0.498L28.016,9.594z"/>
	</g>
</g>
<g id="Color_Fill_1_copy_7">
	<g>
		<path fill-rule="evenodd" clip-rule="evenodd" fill="#546265" d="M6.853,26.454c0.001,0.009,0.005,0.028,0.011,0.058
			C6.859,26.493,6.856,26.473,6.853,26.454z M26.006,26.19c0-0.021-0.002-0.042-0.006-0.063c0-0.011-0.002-0.021-0.004-0.032
			c-0.002-0.01-0.004-0.021-0.006-0.031c-0.006-0.021-0.012-0.041-0.018-0.061c-0.125-0.344-0.428-0.469-0.773-0.484
			c-0.346-0.014-0.736,0.083-1.043,0.19c-0.209,0.074-0.447,0.096-0.6,0.24c-0.033,0.029-0.039,0.061-0.055,0.111
			c0.023,0.051,0.045,0.103,0.068,0.154c0.107,0.016,0.264-0.106,0.377-0.152c0.422-0.169,1.676-0.514,1.822,0.084
			c0.117,0.537-0.697,0.694-1.189,0.632c-0.279-0.034-1.162-0.271-2.518-0.487c-1.355-0.217-3.162-0.425-5.344-0.416
			c-0.067,0-0.136,0-0.203,0c-0.069,0-0.136,0.001-0.203,0.002c-0.135,0.002-0.268,0.005-0.401,0.009
			c-0.265,0.007-0.526,0.017-0.783,0.029c-0.513,0.025-1.008,0.061-1.483,0.102c-0.949,0.083-1.816,0.19-2.562,0.297
			c-1.495,0.21-2.508,0.435-2.719,0.461c-0.503,0.07-1.146-0.163-1.26-0.585c-0.071-0.262,0.146-0.302,0.373-0.36
			c0.626-0.158,1.281,0.267,1.778,0.396c0.054-0.111,0.083-0.15,0.043-0.277c-0.458-0.213-0.978-0.391-1.592-0.443
			c-0.408-0.024-0.618,0-0.818,0.431c-0.01,0.021-0.019,0.043-0.026,0.065c-0.003,0.011-0.006,0.022-0.009,0.033
			s-0.006,0.023-0.008,0.034c-0.004,0.023-0.008,0.047-0.01,0.07c-0.001,0.012-0.002,0.024-0.003,0.036
			c0,0.012-0.001,0.024-0.001,0.036c-0.001,0.078,0.007,0.159,0.021,0.24c-0.017-0.13,0.4,1.525,0.691,2.823
			c0.117,0.257,0.393,0.453,0.636,0.558c0.032,0.014,0.074,0.022,0.126,0.027c0.053,0.003,0.115,0.003,0.187-0.001
			c0.144-0.01,0.327-0.035,0.546-0.07c0.439-0.072,1.023-0.187,1.73-0.308c1.417-0.242,3.317-0.509,5.58-0.507
			c2.258,0.001,4.165,0.27,5.592,0.516c0.713,0.123,1.303,0.241,1.746,0.317c0.221,0.038,0.406,0.065,0.553,0.078
			c0.072,0.006,0.135,0.008,0.189,0.006c0.025-0.001,0.049-0.003,0.07-0.006c0.012-0.001,0.021-0.003,0.029-0.006
			c0.006-0.001,0.01-0.002,0.014-0.004c0.002,0,0.002-0.001,0.004-0.001c0,0,0.002,0,0.002,0c0,0,0.002,0,0.002,0
			c0.002-0.001,0.004-0.001,0.006-0.002c0.299-0.109,0.582-0.297,0.725-0.593c0.084-0.175,0.135-0.396,0.188-0.619
			c0.309-1.388,0.51-2.205,0.496-2.146c0.021-0.086,0.037-0.173,0.041-0.259C26.008,26.232,26.008,26.211,26.006,26.19z"/>
		<path fill="#010101" d="M7.528,25.501c0.055,0,0.115,0.002,0.178,0.006c0.614,0.052,1.134,0.23,1.592,0.443
			c0.04,0.126,0.011,0.166-0.043,0.277c-0.421-0.11-0.955-0.432-1.489-0.432c-0.096,0-0.193,0.011-0.289,0.035
			c-0.227,0.058-0.444,0.098-0.373,0.36c0.101,0.372,0.612,0.597,1.076,0.597c0.063,0,0.124-0.004,0.184-0.012
			c0.211-0.026,1.224-0.251,2.719-0.461c0.746-0.107,1.613-0.213,2.562-0.297c0.475-0.041,0.97-0.076,1.483-0.102
			c0.257-0.012,0.518-0.022,0.783-0.029c0.133-0.003,0.267-0.007,0.401-0.009c0.067,0,0.134-0.001,0.203-0.002
			c0.067,0,0.136,0,0.203,0c0.045,0,0.089,0,0.133,0c2.122,0,3.883,0.205,5.211,0.417c1.355,0.216,2.238,0.453,2.518,0.487
			c0.068,0.009,0.141,0.013,0.215,0.013c0.48,0,1.076-0.181,0.975-0.645c-0.063-0.253-0.324-0.337-0.635-0.337
			c-0.424,0-0.945,0.156-1.188,0.253c-0.105,0.043-0.252,0.153-0.357,0.153c-0.008,0-0.014,0-0.02-0.001
			c-0.023-0.051-0.045-0.103-0.068-0.154c0.016-0.051,0.021-0.082,0.055-0.111c0.152-0.144,0.391-0.166,0.6-0.24
			c0.287-0.1,0.646-0.191,0.975-0.191c0.023,0,0.047,0,0.068,0.001c0.346,0.015,0.648,0.14,0.773,0.484
			c0.006,0.02,0.012,0.041,0.018,0.061c0.002,0.01,0.004,0.021,0.006,0.031C25.998,26.106,26,26.116,26,26.127
			c0.004,0.021,0.006,0.042,0.006,0.063c0.002,0.021,0.002,0.042,0,0.064c-0.004,0.086-0.02,0.173-0.041,0.259
			c0-0.002,0-0.003,0-0.003s-0.199,0.809-0.496,2.149c-0.053,0.223-0.104,0.444-0.188,0.619c-0.143,0.296-0.426,0.483-0.725,0.593
			c-0.002,0.001-0.004,0.001-0.006,0.002c0,0-0.002,0-0.002,0c0,0-0.002,0-0.002,0c-0.002,0-0.002,0-0.004,0.001
			c-0.004,0.001-0.008,0.003-0.014,0.004c-0.008,0.002-0.018,0.004-0.029,0.006c-0.021,0.003-0.045,0.005-0.07,0.006
			c-0.014,0-0.027,0.001-0.043,0.001c-0.043,0-0.092-0.002-0.146-0.007c-0.146-0.012-0.332-0.04-0.553-0.078
			c-0.443-0.076-1.033-0.194-1.746-0.317c-1.428-0.247-3.334-0.515-5.592-0.516c-0.007,0-0.014,0-0.021,0
			c-2.253,0-4.146,0.266-5.559,0.507c-0.708,0.121-1.292,0.236-1.73,0.308c-0.219,0.036-0.402,0.061-0.546,0.07
			c-0.041,0.002-0.078,0.004-0.112,0.004c-0.026,0-0.051-0.001-0.075-0.002c-0.052-0.004-0.094-0.013-0.126-0.027
			c-0.243-0.104-0.519-0.301-0.636-0.558c-0.28-1.25-0.677-2.83-0.691-2.83c0,0,0,0.002,0,0.007
			c-0.014-0.081-0.023-0.162-0.021-0.24c0-0.012,0-0.024,0.001-0.036c0.001-0.012,0.001-0.024,0.003-0.036
			c0.002-0.023,0.005-0.047,0.01-0.07c0.002-0.011,0.005-0.023,0.008-0.034s0.006-0.022,0.009-0.033
			c0.007-0.022,0.016-0.044,0.026-0.065C7.057,25.575,7.232,25.501,7.528,25.501 M6.853,26.454c0.003,0.02,0.007,0.039,0.011,0.058
			C6.857,26.482,6.854,26.463,6.853,26.454 M7.528,25.264L7.528,25.264c-0.354,0-0.635,0.098-0.857,0.575
			c-0.013,0.03-0.025,0.061-0.036,0.093c-0.004,0.015-0.009,0.031-0.013,0.046c-0.004,0.016-0.007,0.031-0.011,0.047
			c-0.006,0.03-0.011,0.062-0.014,0.093c-0.001,0.015-0.003,0.031-0.003,0.046c-0.001,0.016-0.001,0.03-0.002,0.046
			c-0.001,0.086,0.007,0.177,0.025,0.28c0.001,0.012,0.005,0.031,0.013,0.07l0.009-0.002c0.067,0.231,0.415,1.622,0.672,2.771
			l0.005,0.024l0.01,0.022c0.124,0.273,0.407,0.527,0.758,0.678c0.056,0.024,0.123,0.039,0.203,0.045
			c0.028,0.002,0.06,0.003,0.092,0.003c0.039,0,0.082-0.001,0.127-0.004c0.14-0.009,0.321-0.032,0.57-0.073
			c0.222-0.037,0.476-0.083,0.77-0.137c0.286-0.053,0.61-0.112,0.962-0.172c1.266-0.216,3.215-0.503,5.519-0.503h0.021
			c2.321,0.002,4.28,0.293,5.551,0.513c0.389,0.067,0.74,0.133,1.053,0.19c0.264,0.049,0.49,0.092,0.693,0.126
			c0.256,0.043,0.434,0.068,0.574,0.081c0.063,0.005,0.117,0.007,0.166,0.007c0.02,0,0.035,0,0.053-0.001
			c0.035-0.001,0.068-0.004,0.098-0.009c0.018-0.002,0.033-0.006,0.051-0.01c0.008-0.002,0.016-0.004,0.023-0.007l0.006-0.001
			l0.002,0l0.004-0.001v0c0.002,0,0.004,0,0.006-0.001c0.002-0.001,0.006-0.002,0.01-0.004c0.406-0.148,0.703-0.395,0.857-0.713
			c0.088-0.182,0.139-0.398,0.189-0.608l0.014-0.06l0.002-0.002v-0.002c0.115-0.521,0.293-1.309,0.482-2.094
			c0.004-0.015,0.008-0.029,0.01-0.043l0,0c0.029-0.114,0.047-0.215,0.051-0.308c0.002-0.028,0.002-0.057,0-0.083
			c0-0.029-0.004-0.058-0.008-0.085c-0.002-0.015-0.004-0.029-0.006-0.044c-0.004-0.014-0.006-0.028-0.01-0.042
			c-0.006-0.031-0.016-0.06-0.025-0.087c-0.1-0.278-0.352-0.615-0.986-0.641c-0.025-0.001-0.051-0.001-0.078-0.001
			c-0.389,0-0.787,0.111-1.053,0.205c-0.053,0.019-0.109,0.034-0.17,0.05c-0.17,0.045-0.361,0.097-0.514,0.239
			c-0.08,0.073-0.102,0.156-0.117,0.21l-0.004,0.011l-0.021,0.081l0.031,0.078l0.057,0.126c-0.354-0.071-0.77-0.148-1.24-0.224
			c-1.766-0.282-3.482-0.419-5.249-0.419c-0.044,0-0.088,0-0.133,0c-0.068,0-0.137,0-0.205,0.001c-0.069,0-0.137,0.001-0.205,0.002
			c-0.131,0.002-0.266,0.004-0.403,0.009c-0.256,0.006-0.521,0.016-0.788,0.029c-0.482,0.023-0.984,0.058-1.492,0.103
			c-0.837,0.073-1.704,0.173-2.575,0.298c-0.618,0.086-1.149,0.175-1.58,0.252l0.011-0.023c0.065-0.129,0.106-0.235,0.044-0.429
			l-0.031-0.1l-0.095-0.044c-0.578-0.269-1.109-0.417-1.671-0.464l-0.003,0H7.721C7.641,25.266,7.582,25.264,7.528,25.264
			L7.528,25.264z"/>
	</g>
</g>
<g>
	<g>
		<path fill-rule="evenodd" clip-rule="evenodd" fill="#1E2729" d="M18.379,26.451c-0.75,0-1.098,0.313-1.436,0.833
			c-0.127,0.194-0.244,0.38-0.332,0.55c-0.096,0.184-0.14,0.11-0.086-0.043c0.105-0.299,0.289-0.544,0.446-0.881
			c0.109-0.24,0.238-0.53,0.238-0.791c0-0.312-0.129-0.655-0.311-1.03c-0.174-0.364-0.42-0.497-0.585-0.954
			c-0.165,0.458-0.411,0.59-0.585,0.954c-0.183,0.375-0.311,0.718-0.311,1.03c0,0.26,0.128,0.551,0.237,0.791
			c0.155,0.333,0.335,0.576,0.441,0.869c0.057,0.156,0.012,0.241-0.087,0.056c-0.096-0.179-0.224-0.377-0.354-0.577
			c-0.338-0.52-0.658-0.806-1.407-0.806c-0.512,0-0.914,0.541-0.914,1.124c0,0.494,0.236,1.017,0.525,1.311
			c0.052,0.053,0.162,0.012,0.166-0.045c0.042-0.581,0.301-0.933,0.908-0.933c0.42,0,1.099,0.417,1.099,0.771
			c-0.131,0-0.088,0.317,0,0.249c0.069,0,0.445,0,0.563,0c0.093,0,0.129-0.249,0-0.249c0-0.354,0.678-0.771,1.096-0.771
			c0.598,0,0.857,0.341,0.906,0.903c0.006,0.067,0.133,0.114,0.191,0.051c0.279-0.298,0.502-0.807,0.502-1.287
			C19.291,26.992,18.891,26.451,18.379,26.451z M16.074,29.437h0.503c0.08,0,0.144-0.097,0.144-0.216
			c0-0.119-0.063-0.215-0.144-0.215h-0.503c-0.08,0-0.144,0.097-0.144,0.215C15.93,29.34,15.994,29.437,16.074,29.437z
			 M17.02,29.937c-0.201,0-0.379-0.003-0.375-0.28c0.033-0.073-0.09-0.179-0.16-0.167c-0.068,0.012-0.146,0.054-0.183,0.054
			c-0.036,0-0.15-0.054-0.196-0.059c-0.045-0.006-0.171,0.103-0.122,0.172c0.002,0.276-0.225,0.275-0.449,0.275
			c-0.317,0,0.206,0.397,0.381,0.216c0.14-0.143,0.233-0.154,0.232-0.348h0.02c0,0.175-0.016,0.223-0.09,0.35
			c-0.034,0.059-0.054,0.127-0.032,0.189c0.099,0.284,0.394,0.333,0.498,0c0.019-0.062-0.006-0.146-0.028-0.208
			c-0.047-0.129-0.058-0.129-0.057-0.33h0.017c-0.001,0.194,0.077,0.202,0.202,0.329C16.835,30.292,17.309,29.937,17.02,29.937z"/>
		<path fill="#403C32" d="M16.313,24.134c0.165,0.458,0.411,0.59,0.585,0.954c0.182,0.375,0.311,0.718,0.311,1.03
			c0,0.26-0.129,0.551-0.238,0.791c-0.157,0.337-0.341,0.582-0.446,0.881c-0.031,0.089-0.029,0.151-0.004,0.151
			c0.019,0,0.05-0.031,0.09-0.108c0.088-0.169,0.205-0.355,0.332-0.55c0.338-0.52,0.686-0.833,1.436-0.833
			c0.512,0,0.912,0.541,0.912,1.124c0,0.48-0.223,0.989-0.502,1.287c-0.02,0.021-0.047,0.029-0.074,0.029
			c-0.055,0-0.113-0.036-0.117-0.081c-0.049-0.563-0.309-0.903-0.906-0.903c-0.418,0-1.096,0.417-1.096,0.771
			c0.129,0,0.093,0.249,0,0.249c-0.119,0-0.494,0-0.563,0c-0.009,0.007-0.017,0.01-0.024,0.01c-0.071,0-0.094-0.259,0.024-0.259
			c0-0.354-0.678-0.771-1.099-0.771c-0.606,0-0.866,0.353-0.908,0.933c-0.003,0.039-0.053,0.07-0.103,0.07
			c-0.023,0-0.046-0.007-0.063-0.024c-0.289-0.294-0.525-0.817-0.525-1.311c0-0.583,0.402-1.124,0.914-1.124
			c0.75,0,1.069,0.287,1.407,0.806c0.13,0.199,0.258,0.397,0.354,0.577c0.04,0.075,0.071,0.105,0.09,0.105
			c0.029,0,0.031-0.068-0.003-0.161c-0.106-0.293-0.286-0.537-0.441-0.869c-0.109-0.24-0.237-0.53-0.237-0.791
			c0-0.312,0.128-0.655,0.311-1.03C15.902,24.725,16.148,24.592,16.313,24.134 M16.577,29.005c0.08,0,0.144,0.097,0.144,0.215
			c0,0.119-0.063,0.216-0.144,0.216h-0.503c-0.08,0-0.144-0.097-0.144-0.216c0-0.119,0.064-0.215,0.144-0.215H16.577 M16.102,29.484
			c0.001,0,0.002,0,0.003,0c0.046,0.005,0.16,0.059,0.196,0.059c0.037,0,0.115-0.042,0.183-0.054c0.004,0,0.007,0,0.011,0
			c0.07,0,0.18,0.099,0.148,0.167c-0.004,0.276,0.175,0.28,0.375,0.28c0.234,0-0.036,0.235-0.229,0.235
			c-0.044,0-0.084-0.012-0.113-0.042c-0.125-0.127-0.203-0.135-0.202-0.329h-0.017c-0.001,0.201,0.01,0.201,0.057,0.33
			c0.022,0.063,0.047,0.146,0.028,0.208c-0.05,0.16-0.144,0.232-0.239,0.232c-0.103,0-0.207-0.084-0.258-0.232
			c-0.022-0.062-0.002-0.13,0.032-0.189c0.074-0.126,0.09-0.175,0.09-0.35h-0.02c0.001,0.194-0.092,0.206-0.232,0.348
			c-0.032,0.034-0.077,0.047-0.125,0.047c-0.215,0-0.514-0.264-0.256-0.264c0.001,0,0.002,0,0.003,0c0.223,0,0.447,0,0.445-0.275
			C15.935,29.59,16.053,29.484,16.102,29.484 M16.313,23.943C16.313,23.943,16.313,23.943,16.313,23.943
			c-0.081,0-0.152,0.051-0.179,0.126c-0.084,0.232-0.19,0.371-0.304,0.517c-0.094,0.121-0.19,0.245-0.274,0.42
			c-0.153,0.313-0.329,0.724-0.329,1.111c0,0.149,0.034,0.302,0.084,0.452c-0.261-0.201-0.587-0.31-1.063-0.31
			c-0.598,0-1.104,0.601-1.104,1.313c0,0.512,0.233,1.092,0.58,1.444c0.051,0.053,0.123,0.082,0.199,0.082
			c0.154,0,0.282-0.108,0.292-0.247c0.039-0.53,0.253-0.756,0.718-0.756c0.321,0,0.78,0.294,0.885,0.501
			c-0.006,0.009-0.012,0.018-0.017,0.028c-0.035,0.064-0.043,0.134-0.043,0.18c0,0.069,0.015,0.131,0.04,0.181
			c-0.037,0.066-0.059,0.146-0.059,0.233c0,0.102,0.029,0.194,0.078,0.264c-0.001,0.002-0.002,0.004-0.003,0.006
			c-0.034,0.065-0.041,0.136-0.023,0.199c-0.002,0.019-0.007,0.025-0.007,0.025c-0.024,0.027-0.18,0.027-0.247,0.027h-0.003
			c-0.067,0-0.121,0.012-0.167,0.036c-0.077,0.042-0.124,0.118-0.124,0.203c0,0.223,0.331,0.404,0.546,0.404
			c0.023,0,0.047-0.002,0.069-0.005c0.002,0.007,0.005,0.014,0.007,0.021c0.076,0.218,0.248,0.36,0.438,0.36
			c0.192,0,0.35-0.137,0.42-0.366c0.005-0.013,0.008-0.024,0.01-0.037c0.02,0.002,0.038,0.004,0.057,0.004
			c0.201,0,0.51-0.164,0.51-0.382c0-0.084-0.047-0.159-0.123-0.2c-0.043-0.023-0.096-0.034-0.158-0.034
			c-0.052,0-0.149,0-0.176-0.015c-0.002-0.005-0.008-0.019-0.008-0.049c0.011-0.056,0.004-0.115-0.022-0.171
			c0.062-0.073,0.099-0.176,0.099-0.291c0-0.102-0.029-0.195-0.08-0.265c0.024-0.05,0.037-0.107,0.037-0.169
			c0-0.068-0.018-0.131-0.052-0.182c-0.002-0.003-0.005-0.007-0.008-0.011c0.11-0.206,0.564-0.496,0.882-0.496
			c0.459,0,0.672,0.218,0.717,0.729c0.012,0.143,0.146,0.254,0.307,0.254c0.082,0,0.158-0.032,0.213-0.089
			c0.332-0.355,0.555-0.924,0.555-1.417c0-0.712-0.506-1.313-1.104-1.313c-0.467,0-0.801,0.116-1.066,0.316
			c0.051-0.153,0.086-0.308,0.086-0.459c0-0.388-0.176-0.799-0.33-1.113c-0.083-0.173-0.179-0.298-0.272-0.418
			c-0.113-0.146-0.221-0.285-0.305-0.517C16.464,23.994,16.394,23.943,16.313,23.943L16.313,23.943z"/>
	</g>
</g>
<g id="ITALY_copy_5">
	<g>
		<path fill-rule="evenodd" clip-rule="evenodd" fill="#E7D19E" d="M11.995,28.606c-0.05,0-0.086-0.003-0.109-0.008
			c-0.042-0.009-0.07-0.023-0.088-0.044c-0.018-0.021-0.03-0.048-0.036-0.081c-0.082-0.457-0.163-0.913-0.245-1.369
			c-0.005-0.032-0.004-0.061,0.005-0.088c0.01-0.027,0.034-0.05,0.074-0.068c0.031-0.014,0.07-0.028,0.118-0.04
			c0.047-0.013,0.086-0.022,0.118-0.03c-0.006-0.036-0.012-0.07-0.018-0.106c-0.423,0.063-0.845,0.133-1.265,0.212
			c0.007,0.035,0.015,0.07,0.022,0.105c0.037-0.003,0.082-0.004,0.134-0.004c0.051,0,0.091,0.002,0.119,0.007
			c0.043,0.007,0.074,0.021,0.093,0.042s0.031,0.047,0.037,0.078c0.091,0.456,0.181,0.911,0.272,1.367
			c0.007,0.034,0.006,0.063-0.003,0.088s-0.031,0.047-0.065,0.068c-0.018,0.01-0.054,0.022-0.105,0.036s-0.092,0.024-0.118,0.03
			c0.008,0.036,0.015,0.07,0.022,0.106c0.393-0.074,0.787-0.14,1.182-0.199c-0.006-0.036-0.012-0.071-0.018-0.106
			C12.087,28.605,12.045,28.606,11.995,28.606z M12.533,26.673c0.026,0.185,0.053,0.371,0.079,0.556
			c0.041-0.005,0.083-0.01,0.124-0.015c0.021-0.087,0.062-0.183,0.122-0.286c0.061-0.104,0.122-0.163,0.183-0.177
			c0.034-0.008,0.076-0.016,0.126-0.023c0.05-0.008,0.093-0.014,0.129-0.018c0.026-0.003,0.051-0.005,0.076-0.008
			c0.059,0.514,0.117,1.028,0.176,1.543c0.003,0.034,0,0.064-0.01,0.09c-0.01,0.026-0.034,0.049-0.072,0.067
			c-0.019,0.009-0.054,0.02-0.107,0.03c-0.052,0.011-0.093,0.02-0.122,0.025c0.004,0.036,0.009,0.071,0.014,0.107
			c0.398-0.044,0.797-0.081,1.197-0.11c-0.002-0.036-0.006-0.071-0.009-0.107c-0.035-0.001-0.077-0.004-0.127-0.009
			c-0.05-0.005-0.087-0.01-0.111-0.017c-0.04-0.011-0.068-0.029-0.083-0.053c-0.016-0.024-0.025-0.053-0.029-0.086
			c-0.047-0.511-0.095-1.021-0.144-1.532c0.025-0.002,0.051-0.004,0.076-0.006c0.037-0.003,0.08-0.005,0.131-0.006
			c0.051-0.001,0.093-0.001,0.128,0c0.063,0.003,0.135,0.049,0.216,0.14s0.14,0.177,0.179,0.258
			c0.041-0.002,0.083-0.005,0.125-0.007c-0.013-0.187-0.025-0.373-0.037-0.56C14.017,26.511,13.273,26.58,12.533,26.673z
			 M17.391,28.223c-0.037-0.021-0.066-0.043-0.086-0.066c-0.02-0.022-0.035-0.048-0.049-0.076c-0.078-0.17-0.172-0.385-0.285-0.644
			c-0.114-0.259-0.274-0.611-0.491-1.053c-0.109,0-0.217,0.002-0.327,0.004c-0.146,0.315-0.276,0.605-0.39,0.869
			c-0.114,0.263-0.225,0.527-0.332,0.79c-0.018,0.045-0.04,0.084-0.068,0.118c-0.027,0.033-0.062,0.062-0.102,0.086
			c-0.023,0.015-0.057,0.027-0.098,0.037c-0.042,0.01-0.079,0.017-0.113,0.021c0.002,0.036,0.005,0.071,0.007,0.107
			c0.294-0.016,0.589-0.027,0.884-0.034l-0.003-0.108c-0.115-0.006-0.198-0.019-0.248-0.038c-0.05-0.019-0.076-0.043-0.077-0.073
			c0-0.009,0-0.025,0.003-0.048c0.003-0.023,0.013-0.061,0.03-0.113c0.014-0.04,0.03-0.085,0.049-0.137
			c0.02-0.051,0.037-0.096,0.054-0.134c0.253-0.008,0.508-0.012,0.761-0.014c0.064,0.134,0.127,0.27,0.189,0.405
			c0.007,0.016,0.012,0.028,0.014,0.037c0,0.01,0.002,0.018,0.002,0.025c0,0.021-0.037,0.039-0.111,0.054
			c-0.074,0.015-0.139,0.024-0.193,0.028c0.001,0.036,0.001,0.071,0.001,0.107c0.392-0.004,0.783,0,1.175,0.011
			c0-0.036,0.002-0.072,0.002-0.108c-0.029-0.003-0.064-0.008-0.102-0.017S17.42,28.238,17.391,28.223z M15.81,27.59
			c0.098-0.239,0.198-0.478,0.301-0.716c0.114,0.234,0.227,0.469,0.335,0.704C16.234,27.581,16.022,27.584,15.81,27.59z
			 M19.666,28.113c-0.064,0.08-0.125,0.141-0.18,0.183c-0.037,0.026-0.094,0.041-0.172,0.042c-0.076,0.002-0.156,0-0.236-0.005
			c-0.084-0.006-0.148-0.013-0.195-0.021c-0.049-0.008-0.084-0.022-0.109-0.041c-0.025-0.019-0.041-0.045-0.047-0.081
			c-0.008-0.036-0.01-0.083-0.004-0.144c0.029-0.429,0.061-0.858,0.092-1.287c0.002-0.033,0.01-0.061,0.027-0.085
			c0.016-0.024,0.045-0.041,0.088-0.05c0.035-0.007,0.076-0.011,0.123-0.013c0.047-0.002,0.088-0.003,0.123-0.003
			c0.002-0.036,0.006-0.071,0.008-0.107c-0.42-0.031-0.842-0.054-1.266-0.069c0,0.036-0.002,0.072-0.004,0.108
			c0.029,0.004,0.066,0.012,0.113,0.021c0.045,0.01,0.086,0.021,0.119,0.036c0.043,0.02,0.07,0.04,0.082,0.062
			c0.01,0.022,0.014,0.05,0.014,0.083c-0.023,0.461-0.049,0.921-0.072,1.381c-0.002,0.036-0.01,0.065-0.025,0.087
			c-0.016,0.022-0.041,0.04-0.078,0.05c-0.018,0.005-0.047,0.01-0.096,0.014s-0.09,0.007-0.127,0.009
			c0,0.035-0.002,0.071-0.004,0.107c0.662,0.023,1.324,0.068,1.982,0.134c0.037-0.207,0.074-0.414,0.113-0.621
			c-0.039-0.003-0.076-0.007-0.113-0.011C19.781,27.96,19.729,28.033,19.666,28.113z M22.014,26.831
			c-0.008,0.036-0.014,0.071-0.02,0.106c0.1,0.021,0.17,0.042,0.211,0.067c0.041,0.023,0.059,0.051,0.053,0.082
			c-0.004,0.024-0.055,0.084-0.15,0.18c-0.096,0.096-0.268,0.264-0.512,0.507c-0.07-0.154-0.135-0.288-0.186-0.401
			c-0.053-0.113-0.092-0.202-0.119-0.266c-0.029-0.069-0.049-0.119-0.061-0.151c-0.01-0.033-0.016-0.054-0.014-0.063
			c0.004-0.02,0.027-0.033,0.07-0.039s0.125-0.001,0.244,0.013c0.006-0.036,0.012-0.071,0.018-0.106
			c-0.438-0.064-0.875-0.119-1.313-0.165c-0.004,0.036-0.01,0.071-0.014,0.107c0.033,0.005,0.07,0.014,0.111,0.026
			c0.039,0.012,0.074,0.026,0.102,0.043c0.035,0.023,0.07,0.052,0.104,0.087c0.031,0.035,0.064,0.08,0.094,0.134
			c0.055,0.105,0.115,0.218,0.174,0.337c0.061,0.12,0.123,0.248,0.184,0.381c0.021,0.047,0.039,0.085,0.053,0.114
			c0.014,0.03,0.021,0.053,0.027,0.072c0.004,0.016,0.004,0.036,0.002,0.059c-0.004,0.023-0.006,0.049-0.012,0.08
			c-0.018,0.114-0.035,0.228-0.051,0.342c-0.008,0.035-0.018,0.063-0.035,0.085S20.93,28.5,20.889,28.51
			c-0.021,0.004-0.061,0.006-0.113,0.004c-0.055-0.001-0.096-0.003-0.123-0.005c-0.006,0.036-0.012,0.072-0.016,0.107
			c0.396,0.05,0.795,0.108,1.189,0.174c0.008-0.035,0.014-0.071,0.021-0.106c-0.027-0.006-0.066-0.019-0.119-0.039
			s-0.088-0.034-0.105-0.042c-0.035-0.021-0.057-0.045-0.066-0.072c-0.01-0.026-0.012-0.057-0.006-0.089
			c0.016-0.091,0.031-0.183,0.049-0.274c0.018-0.103,0.035-0.173,0.057-0.212c0.02-0.04,0.064-0.093,0.135-0.162
			c0.109-0.108,0.211-0.206,0.305-0.294c0.094-0.089,0.184-0.17,0.27-0.245c0.041-0.036,0.082-0.067,0.125-0.096
			c0.043-0.027,0.09-0.048,0.139-0.062c0.033-0.009,0.064-0.015,0.098-0.018c0.033-0.002,0.07-0.001,0.109,0.002
			c0.008-0.035,0.014-0.071,0.023-0.106C22.576,26.925,22.295,26.876,22.014,26.831z"/>
	</g>
</g>
<g id="Shape_50">
	<g>
		<rect x="10.283" y="21.101" fill-rule="evenodd" clip-rule="evenodd" fill="#A29784" width="3.878" height="1.899"/>
	</g>
</g>
<g id="Shape_50_copy">
	<g>
		<rect x="18.336" y="21.101" fill-rule="evenodd" clip-rule="evenodd" fill="#A29784" width="3.879" height="1.899"/>
	</g>
</g>
<g id="Shape_16_copy_3">
	<g>
		<path fill-rule="evenodd" clip-rule="evenodd" fill="#FFFFFF" d="M11.466,4.709h1.688V4.684c-0.029-0.244-0.238-0.434-0.49-0.434
			h-1.252c-0.273,0-0.494,0.222-0.494,0.494v1.07c0,0.272,0.221,0.494,0.494,0.494h1.252c0.256,0,0.466-0.193,0.491-0.442V5.841
			h-1.688V4.709z M15.352,5.051h-1.311V4.695h1.76c-0.025-0.25-0.236-0.445-0.492-0.445h-1.275c-0.273,0-0.495,0.222-0.495,0.494
			v0.307c0.024,0.25,0.235,0.445,0.491,0.445l1.309-0.001v0.368h-1.797c0.024,0.25,0.235,0.445,0.492,0.445h1.313
			c0.272,0,0.494-0.221,0.494-0.494V5.495C15.818,5.246,15.607,5.051,15.352,5.051z M21.396,4.232h-1.285
			c-0.26,0-0.473,0.213-0.473,0.474v1.111c0,0.261,0.213,0.473,0.473,0.473h1.285c0.262,0,0.473-0.212,0.473-0.473V4.706
			C21.869,4.445,21.658,4.232,21.396,4.232z M21.428,5.909H20.08V4.616h1.348V5.909z M17.816,5.3c0.1,0.125,0.252,0.135,0.295,0.135
			h0.686v0.449h-1.439V4.631h1.877c-0.035-0.228-0.232-0.398-0.467-0.398h-1.373c-0.262,0-0.475,0.213-0.475,0.474v1.111
			c0,0.261,0.213,0.473,0.475,0.473h1.373c0.244,0,0.447-0.182,0.471-0.42V5.091h-1.523C17.721,5.131,17.742,5.205,17.816,5.3z"/>
	</g>
</g>
</svg>
