<?xml version="1.0" encoding="utf-8"?>
<!-- Generator: Adobe Illustrator 16.0.0, SVG Export Plug-In . SVG Version: 6.00 Build 0)  -->
<!DOCTYPE svg PUBLIC "-//W3C//DTD SVG 1.1//EN" "http://www.w3.org/Graphics/SVG/1.1/DTD/svg11.dtd">
<svg version="1.1" id="Layer_1" xmlns="http://www.w3.org/2000/svg" xmlns:xlink="http://www.w3.org/1999/xlink" x="0px" y="0px"
	 width="32px" height="32px" viewBox="0 0 32 32" enable-background="new 0 0 32 32" xml:space="preserve">
<g id="Shape_37_copy_4">
	<g>
		<path fill-rule="evenodd" clip-rule="evenodd" fill="#B31F24" d="M30.13,5.599h-3.683c0.525-1.224,1.104-2.336,1.07-3.152
			c-0.087,0-5.971-1.38-10.707-1.38c-4.824,0-11.138,1.38-11.195,1.38C5.582,3.263,6.157,4.375,6.683,5.599H2.9
			C2.724,9.207,3.657,27.609,16.515,31.544C29.373,27.609,30.306,9.207,30.13,5.599z"/>
	</g>
</g>
<g id="Shape_46" opacity="0.2784">
	<g>
		<path fill-rule="evenodd" clip-rule="evenodd" fill="#010101" d="M30.146,6.471c0.001-0.347-0.006-0.64-0.017-0.872h-1.859
			l-9.979,2.28l8.527-3.125c0.224-0.505,0.426-0.98,0.556-1.411l-8.999,4.091l8.555-5.108c-0.369-0.077-0.899-0.187-1.544-0.307
			l-7.509,5.289l5.993-5.557c-0.372-0.063-0.762-0.124-1.166-0.184l-4.846,5.228l3.951-5.353c-0.32-0.043-0.646-0.082-0.976-0.12
			l-3.43,5.463l2.574-5.553c-0.287-0.027-0.573-0.052-0.861-0.073l-1.968,5.25l1.334-5.292c-0.27-0.015-0.538-0.028-0.806-0.036
			l-0.97,5.592l0.211-5.606h-0.109c-0.223,0-0.448,0.003-0.677,0.009l0.199,5.248l-0.787-5.228
			c-0.264,0.011-0.529,0.025-0.798,0.042l1.257,5.5l-1.996-5.445c-0.283,0.023-0.568,0.049-0.851,0.078l2.4,5.282L12.45,1.345
			C12.128,1.381,11.81,1.42,11.495,1.46l3.938,5.591L10.39,1.611C9.986,1.669,9.596,1.729,9.225,1.788L14.92,7.07L8.038,1.986
			C7.444,2.092,6.934,2.188,6.535,2.265l8.375,5.26L5.736,3.271C5.858,3.701,6.058,4.176,6.28,4.684l8.255,3.096L5.894,5.599H2.9
			C2.893,5.756,2.887,5.942,2.885,6.153L14.799,8.22L2.916,7.772C2.933,8.159,2.957,8.58,2.992,9.028l11.457-0.432L3.11,10.303
			c0.043,0.402,0.093,0.819,0.152,1.25l11.5-2.628l-11.268,4.13c0.073,0.422,0.153,0.852,0.243,1.29L14.678,9.37L4.046,15.719
			c0.109,0.451,0.229,0.907,0.358,1.364l10.772-7.587L4.987,18.945c0.17,0.493,0.355,0.986,0.553,1.476l9.655-10.412L6.277,22.087
			c0.254,0.525,0.527,1.044,0.819,1.552l8.552-13.62L8.405,25.646c0.382,0.517,0.787,1.016,1.222,1.491l6.277-16.742l-4.622,18.324
			c0.513,0.427,1.058,0.82,1.634,1.183l3.43-19.771l-0.795,21.08c0.314,0.12,0.635,0.232,0.964,0.333
			c0.338-0.104,0.666-0.22,0.988-0.342l-0.78-20.722l2.96,19.682c0.591-0.344,1.149-0.723,1.678-1.133l-4.31-18.863l6.257,17.075
			c0.438-0.474,0.85-0.971,1.235-1.486l-7.048-15.504l8.218,13.764c0.306-0.509,0.59-1.028,0.856-1.558L17.621,9.752l9.875,10.651
			c0.198-0.49,0.382-0.982,0.553-1.476l-9.914-9.194l10.397,7.679c0.135-0.46,0.258-0.919,0.372-1.375l-10.76-6.758l11.127,5.16
			c0.091-0.438,0.173-0.868,0.247-1.29L18.52,9.024l11.206,2.827c0.061-0.429,0.115-0.848,0.161-1.251L18.255,8.584l11.782,0.443
			c0.035-0.447,0.06-0.867,0.076-1.254L18.605,8.207L30.146,6.471z"/>
	</g>
</g>
<g id="Shape_47">
	<g>
		<path fill-rule="evenodd" clip-rule="evenodd" fill="#B31F24" d="M29.274,6.176c0.023-0.09-2.033-0.038-2.01-0.129
			c0.023-0.09-1.206-0.096-1.183-0.186c0.491-1.897,0.955-3.199,0.955-3.199c0.139-0.533-0.042-0.975-0.406-0.975H6.411
			c-0.364,0-0.537,0.441-0.391,0.975c0,0,0.35,1.135,0.885,3.073c0.021,0.076,0.042,0.151,0.063,0.229
			c0.025,0.093-3.288-0.056-3.263,0.037c0.573,2.076,0.53,6.663,0.53,6.663c0.089,0.321,0.191,0.545,0.466,0.545h23.657
			c0.273,0,0.563-0.257,0.646-0.578C29.005,12.631,28.731,8.277,29.274,6.176z"/>
	</g>
</g>
<g id="Shape_32_copy_8">
	<g>
		<path fill-rule="evenodd" clip-rule="evenodd" fill="#181818" d="M23.264,7.011c-0.047-0.783-0.842-1.407-1.815-1.407
			c-0.975,0-1.77,0.624-1.816,1.407h-0.003v3.571h3.637V7.011H23.264z M15.833,5.604c-0.974,0-1.77,0.624-1.816,1.407h-0.002v3.571
			h3.637V7.011h-0.003C17.602,6.228,16.807,5.604,15.833,5.604z M11.486,5.604c-0.974,0-1.769,0.624-1.815,1.407H9.669v3.57
			l3.636,0.001V7.011h-0.002C13.256,6.228,12.461,5.604,11.486,5.604z"/>
	</g>
</g>
<g id="Shape_26_copy_4">
	<g>
		<polygon fill-rule="evenodd" clip-rule="evenodd" fill="#F2622A" points="3.526,11.737 4.631,16.332 27.605,16.499 29.584,11.737 
					"/>
	</g>
</g>
<g id="Shape_37_copy_4_1_">
	<g>
		<path fill-rule="evenodd" clip-rule="evenodd" fill="#181818" d="M29.782,5.436h-3.21c0.533-1.219,0.699-2.327,0.669-3.14
			c-0.085,0-5.82-1.375-10.438-1.375c-4.703,0-10.858,1.375-10.915,1.375c-0.029,0.813,0.137,1.921,0.67,3.14H3.247
			C3.081,9.023,4.008,27.297,16.515,31.196C29.022,27.297,29.948,9.023,29.782,5.436z M16.515,29.752
			C5.115,26.215,4.222,9.538,4.359,6.262h3.378c-0.474-1.12-0.991-2.139-0.966-2.887c0.052,0,5.693-1.267,10.008-1.267
			c4.235,0,9.493,1.267,9.57,1.267c0.026,0.748-0.494,1.767-0.968,2.887h3.288C28.808,9.538,27.915,26.215,16.515,29.752z"/>
	</g>
</g>
<g id="Shape_37_copy_5">
	<g>
		<path fill-rule="evenodd" clip-rule="evenodd" fill="#F8F1D4" d="M29.975,5.281h-3.257c0.541-1.235,0.709-2.359,0.679-3.185
			c-0.086,0-5.905-1.395-10.589-1.395c-4.771,0-11.016,1.395-11.072,1.395c-0.03,0.825,0.139,1.949,0.681,3.185H3.055
			C2.886,8.922,3.827,27.46,16.515,31.416C29.203,27.46,30.144,8.922,29.975,5.281z M16.515,29.514
			C5.31,26.036,4.432,9.646,4.568,6.425h3.476c-0.466-1.1-1.028-2.177-1.004-2.912c1.73-0.336,5.494-1.244,9.734-1.244
			c4.163,0,8.519,1.058,9.267,1.244c0.025,0.735-0.456,1.813-0.922,2.912h3.342C28.598,9.646,27.72,26.036,16.515,29.514z"/>
	</g>
</g>
<g id="Shape_37_copy_4_2_">
	<g>
		<path fill-rule="evenodd" clip-rule="evenodd" fill="#3D575F" d="M30.401,5.035h-3.109c0.443-1.273,0.498-2.291,0.471-3.146
			c-0.089,0-6.099-1.446-10.945-1.446c-4.936,0-11.387,1.446-11.445,1.446C5.347,2.744,5.57,3.759,6.018,5.035H2.629
			c-0.15,3.932,1.026,22.75,13.886,26.697C29.375,27.785,30.551,8.967,30.401,5.035z M16.515,30.267
			C4.785,26.679,3.676,9.409,3.801,5.826h3.272c-0.502-1.172-0.791-2.018-0.77-2.804c0.054,0,5.964-1.329,10.488-1.329
			c4.442,0,9.949,1.329,10.03,1.329c0.021,0.786-0.158,1.632-0.66,2.804h3.066C29.354,9.409,28.245,26.679,16.515,30.267z"/>
	</g>
</g>
<g id="Shape_27_copy_4">
	<g>
		<rect x="8.765" y="11.687" fill-rule="evenodd" clip-rule="evenodd" fill="#E8E8E8" width="5.221" height="4.659"/>
	</g>
</g>
<path fill="#3D575F" d="M5.312,28.997c-0.596,0-1.081-0.485-1.081-1.081v-4.869c0-0.597,0.485-1.082,1.081-1.082h22.447
	c0.598,0,1.083,0.485,1.083,1.082v4.869c0,0.596-0.485,1.081-1.083,1.081H5.312z"/>
<path fill="#F8F1D4" d="M28.301,27.916c0,0.298-0.243,0.54-0.542,0.54H5.312c-0.298,0-0.54-0.242-0.54-0.54v-4.869
	c0-0.299,0.242-0.541,0.54-0.541h22.447c0.299,0,0.542,0.242,0.542,0.541V27.916z"/>
<path fill="#768990" d="M5.312,28.006c-0.049,0-0.09-0.041-0.09-0.09v-4.869c0-0.05,0.041-0.09,0.09-0.09h22.447
	c0.05,0,0.091,0.04,0.091,0.09v4.869c0,0.049-0.041,0.09-0.091,0.09H5.312z"/>
<g>
	<path fill="#3D575F" d="M8.839,27.35H7.578l0.599-1.928H7.543l0.406-1.308h2.528l-0.406,1.308H9.437L8.839,27.35z"/>
	<path fill="#3D575F" d="M10.838,27.35l1.004-3.235h1.261c0.437,0,0.727,0.012,0.868,0.033c0.141,0.022,0.254,0.074,0.339,0.154
		s0.14,0.188,0.164,0.326c0.023,0.139,0.012,0.284-0.037,0.438c-0.101,0.325-0.283,0.569-0.548,0.733
		c0.186,0.396,0.209,0.913,0.07,1.551h-1.31l0.01-0.03c0.117-0.38,0.161-0.67,0.129-0.868c-0.03-0.2-0.131-0.3-0.303-0.3H12.47
		l-0.372,1.198H10.838z M12.918,24.78h-0.021l-0.194,0.623h0.032c0.123,0,0.22-0.026,0.291-0.076
		c0.07-0.052,0.123-0.133,0.158-0.244C13.246,24.881,13.158,24.78,12.918,24.78z"/>
	<path fill="#3D575F" d="M16.612,26.798l-0.333,0.552h-1.276l2.023-3.235h1.798l-0.039,3.235h-1.263l0.007-0.552H16.612z
		 M17.074,26.039h0.467l0.015-0.79L17.074,26.039z"/>
	<path fill="#3D575F" d="M21.331,27.35h-1.259l1.004-3.235h1.261L21.331,27.35z"/>
	<path fill="#3D575F" d="M24.477,26.367l-0.306,0.982h-1.259l1.004-3.235h0.9l0.334,1.081l0.336-1.081h1.26l-1.012,3.256h-0.957
		L24.477,26.367z"/>
</g>
<g>
	<path fill="#F8F1D2" d="M8.428,27.051h-1.26l0.598-1.928H7.133l0.406-1.308h2.527L9.66,25.123H9.026L8.428,27.051z"/>
	<path fill="#F8F1D2" d="M10.427,27.051l1.005-3.235h1.261c0.437,0,0.727,0.012,0.868,0.034c0.14,0.022,0.254,0.073,0.339,0.153
		s0.14,0.189,0.163,0.326c0.023,0.139,0.012,0.284-0.036,0.438c-0.101,0.325-0.283,0.569-0.548,0.733
		c0.186,0.396,0.209,0.912,0.07,1.55h-1.311l0.01-0.029c0.118-0.381,0.162-0.671,0.13-0.87c-0.031-0.199-0.132-0.299-0.303-0.299
		h-0.017l-0.371,1.198H10.427z M12.508,24.48h-0.023l-0.192,0.624h0.032c0.123,0,0.22-0.025,0.29-0.076
		c0.071-0.052,0.124-0.133,0.158-0.244C12.836,24.583,12.747,24.48,12.508,24.48z"/>
	<path fill="#F8F1D2" d="M16.202,26.499l-0.333,0.552h-1.276l2.022-3.235h1.798l-0.038,3.235h-1.263l0.006-0.552H16.202z
		 M16.663,25.74h0.467l0.015-0.791L16.663,25.74z"/>
	<path fill="#F8F1D2" d="M20.921,27.051h-1.26l1.005-3.235h1.26L20.921,27.051z"/>
	<path fill="#F8F1D2" d="M24.065,26.069l-0.305,0.981h-1.26l1.005-3.235h0.9l0.333,1.081l0.336-1.081h1.261l-1.013,3.256h-0.957
		L24.065,26.069z"/>
</g>
<g id="Shape_16_copy_2">
	<g>
		<path fill-rule="evenodd" clip-rule="evenodd" fill="#F04923" d="M20.669,16.961h-0.731c-0.159,0-0.288,0.129-0.288,0.288v0.625
			c0,0.159,0.129,0.289,0.288,0.289h0.731c0.149,0,0.272-0.113,0.287-0.259V17.89h-0.985v-0.661h0.985v-0.014
			C20.938,17.071,20.816,16.961,20.669,16.961z M22.238,17.428h-0.765v-0.207h1.028c-0.016-0.146-0.139-0.26-0.288-0.26H21.47
			c-0.16,0-0.289,0.129-0.289,0.288v0.179c0.015,0.146,0.137,0.261,0.287,0.261h0.764v0.214h-1.05
			c0.015,0.146,0.138,0.261,0.288,0.261h0.766c0.159,0,0.289-0.13,0.289-0.289v-0.186C22.512,17.542,22.388,17.428,22.238,17.428z
			 M25.77,16.951h-0.75c-0.152,0-0.277,0.123-0.277,0.275v0.649c0,0.152,0.125,0.275,0.277,0.275h0.75
			c0.152,0,0.276-0.123,0.276-0.275v-0.648C26.046,17.074,25.922,16.951,25.77,16.951z M25.788,17.93h-0.787v-0.756h0.787V17.93z
			 M23.678,17.573c0.059,0.073,0.147,0.079,0.173,0.079h0.4v0.262H23.41v-0.731h1.097c-0.021-0.133-0.137-0.231-0.273-0.231h-0.802
			c-0.152,0-0.276,0.123-0.276,0.276v0.648c0,0.152,0.124,0.275,0.276,0.275h0.802c0.144,0,0.261-0.105,0.274-0.244v-0.455h-0.89
			C23.622,17.475,23.635,17.519,23.678,17.573z"/>
	</g>
</g>
</svg>
