<?xml version="1.0" encoding="utf-8"?>
<!-- Generator: Adobe Illustrator 16.0.0, SVG Export Plug-In . SVG Version: 6.00 Build 0)  -->
<!DOCTYPE svg PUBLIC "-//W3C//DTD SVG 1.1//EN" "http://www.w3.org/Graphics/SVG/1.1/DTD/svg11.dtd">
<svg version="1.1" id="Layer_1" xmlns="http://www.w3.org/2000/svg" xmlns:xlink="http://www.w3.org/1999/xlink" x="0px" y="0px"
	 width="32px" height="32px" viewBox="0 0 32 32" enable-background="new 0 0 32 32" xml:space="preserve">
<g id="Shape_10">
	<g>
		<circle fill-rule="evenodd" clip-rule="evenodd" fill="#140F21" cx="15.882" cy="16.224" r="15.039"/>
	</g>
</g>
<g id="Shape_10_copy_3_2_">
	<g>
		<circle fill-rule="evenodd" clip-rule="evenodd" fill="#92B5BD" cx="15.882" cy="16.224" r="14.491"/>
	</g>
</g>
<g id="Shape_10_copy_3">
	<g>
		<circle fill-rule="evenodd" clip-rule="evenodd" fill="#9FDCF0" cx="15.882" cy="16.223" r="14.384"/>
	</g>
</g>
<g>
	<path fill-rule="evenodd" clip-rule="evenodd" fill="#010101" d="M16.017,2.581l0.432,0.684c0.033,0.054,0.086,0.085,0.148,0.088
		c0.063,0.004,0.118-0.021,0.158-0.069l0.507-0.63c0.042-0.053,0.102-0.077,0.168-0.069c0.066,0.007,0.119,0.045,0.148,0.104
		l0.351,0.729c0.027,0.056,0.075,0.093,0.138,0.104c0.062,0.011,0.12-0.008,0.164-0.052l0.576-0.567
		c0.048-0.048,0.11-0.065,0.175-0.05c0.065,0.015,0.114,0.059,0.135,0.121l0.266,0.764c0.021,0.06,0.064,0.102,0.125,0.119
		s0.12,0.006,0.169-0.032l0.637-0.499c0.052-0.041,0.117-0.051,0.179-0.029c0.063,0.022,0.106,0.071,0.121,0.136l0.177,0.79
		c0.014,0.061,0.053,0.107,0.111,0.132c0.058,0.025,0.118,0.02,0.171-0.013l0.689-0.423c0.057-0.035,0.122-0.038,0.182-0.008
		c0.06,0.029,0.097,0.082,0.104,0.147l0.086,0.805c0.006,0.063,0.04,0.113,0.095,0.145c0.054,0.03,0.115,0.033,0.172,0.007
		l0.733-0.342c0.06-0.028,0.125-0.024,0.182,0.013c0.056,0.035,0.087,0.093,0.086,0.159l-0.007,0.81
		c0,0.063,0.027,0.117,0.078,0.153c0.051,0.037,0.111,0.046,0.17,0.026l0.768-0.256c0.063-0.021,0.127-0.01,0.179,0.033
		c0.052,0.042,0.076,0.102,0.068,0.169L24.56,6.582c-0.007,0.062,0.014,0.119,0.06,0.161c0.047,0.043,0.105,0.059,0.167,0.046
		l0.792-0.167c0.065-0.014,0.128,0.005,0.174,0.053c0.046,0.048,0.063,0.111,0.048,0.176L25.61,7.637
		c-0.015,0.062,0,0.12,0.041,0.168c0.041,0.047,0.098,0.07,0.16,0.063l0.804-0.075c0.067-0.006,0.127,0.021,0.167,0.073
		c0.041,0.052,0.05,0.117,0.028,0.179l-0.278,0.761c-0.021,0.059-0.014,0.118,0.021,0.17c0.036,0.053,0.089,0.081,0.151,0.083
		l0.809,0.017c0.066,0.001,0.124,0.034,0.158,0.091c0.035,0.057,0.037,0.122,0.007,0.182l-0.362,0.723
		c-0.028,0.057-0.027,0.117,0.002,0.173s0.079,0.091,0.141,0.099l0.801,0.109c0.066,0.009,0.119,0.048,0.146,0.108
		c0.027,0.06,0.022,0.126-0.014,0.181l-0.442,0.678c-0.035,0.052-0.041,0.112-0.019,0.171c0.023,0.059,0.068,0.099,0.129,0.114
		l0.784,0.199c0.065,0.018,0.112,0.062,0.133,0.125c0.021,0.063,0.008,0.128-0.034,0.178l-0.517,0.623
		c-0.04,0.048-0.053,0.107-0.037,0.168s0.057,0.106,0.115,0.128l0.756,0.288c0.062,0.023,0.104,0.073,0.118,0.139
		c0.013,0.064-0.006,0.128-0.055,0.173l-0.584,0.56c-0.045,0.044-0.065,0.102-0.056,0.163c0.009,0.063,0.044,0.111,0.1,0.141
		l0.718,0.372c0.059,0.03,0.095,0.085,0.101,0.151s-0.021,0.126-0.074,0.166l-0.644,0.489c-0.05,0.037-0.077,0.092-0.075,0.155
		c0.002,0.063,0.031,0.115,0.083,0.15l0.671,0.451c0.055,0.038,0.085,0.096,0.083,0.162c-0.001,0.066-0.035,0.122-0.092,0.157
		l-0.696,0.412c-0.054,0.032-0.086,0.083-0.091,0.146s0.018,0.119,0.065,0.16l0.615,0.524c0.05,0.044,0.074,0.104,0.064,0.171
		c-0.009,0.065-0.048,0.117-0.109,0.145l-0.738,0.33c-0.057,0.025-0.095,0.073-0.107,0.135c-0.013,0.062,0.003,0.12,0.046,0.165
		l0.552,0.592c0.045,0.049,0.061,0.112,0.044,0.177c-0.017,0.064-0.062,0.111-0.125,0.132l-0.771,0.244
		c-0.06,0.02-0.103,0.062-0.123,0.121s-0.01,0.12,0.027,0.171l0.48,0.649c0.04,0.055,0.048,0.119,0.024,0.181
		c-0.024,0.063-0.075,0.104-0.14,0.117l-0.794,0.154c-0.062,0.012-0.109,0.049-0.136,0.106c-0.025,0.058-0.023,0.117,0.008,0.173
		l0.403,0.7c0.033,0.058,0.035,0.124,0.004,0.183c-0.031,0.059-0.086,0.095-0.152,0.1l-0.806,0.063
		c-0.063,0.005-0.114,0.037-0.147,0.091c-0.032,0.054-0.036,0.114-0.011,0.172l0.32,0.742c0.026,0.062,0.02,0.126-0.018,0.182
		c-0.038,0.055-0.096,0.084-0.162,0.081l-0.808-0.029c-0.063-0.001-0.118,0.024-0.156,0.074c-0.038,0.05-0.049,0.109-0.031,0.17
		l0.234,0.773c0.019,0.063,0.005,0.128-0.039,0.178c-0.043,0.051-0.104,0.073-0.17,0.063l-0.8-0.122
		c-0.062-0.009-0.12,0.01-0.163,0.056c-0.044,0.045-0.062,0.103-0.051,0.165l0.145,0.796c0.012,0.065-0.009,0.127-0.059,0.172
		c-0.049,0.045-0.112,0.061-0.176,0.044l-0.78-0.213c-0.061-0.016-0.12-0.003-0.168,0.037c-0.049,0.039-0.074,0.095-0.069,0.157
		l0.053,0.807c0.004,0.066-0.023,0.126-0.077,0.165c-0.054,0.039-0.119,0.047-0.181,0.023l-0.751-0.3
		c-0.058-0.023-0.119-0.018-0.171,0.017c-0.053,0.033-0.083,0.087-0.086,0.148l-0.04,0.809c-0.003,0.066-0.038,0.122-0.096,0.154
		c-0.058,0.033-0.124,0.034-0.182,0.002l-0.712-0.383c-0.056-0.029-0.116-0.031-0.172-0.003c-0.056,0.028-0.092,0.077-0.103,0.138
		l-0.131,0.799c-0.011,0.065-0.051,0.117-0.113,0.143c-0.061,0.026-0.126,0.019-0.181-0.019l-0.664-0.462
		c-0.052-0.036-0.112-0.044-0.171-0.022c-0.059,0.021-0.101,0.065-0.118,0.126l-0.222,0.777c-0.018,0.064-0.064,0.11-0.128,0.129
		s-0.128,0.005-0.178-0.039l-0.607-0.534c-0.047-0.042-0.106-0.057-0.167-0.042c-0.061,0.014-0.107,0.054-0.132,0.111l-0.309,0.747
		c-0.025,0.062-0.076,0.103-0.142,0.114c-0.066,0.011-0.128-0.01-0.172-0.06l-0.543-0.601c-0.042-0.046-0.099-0.067-0.161-0.061
		c-0.062,0.007-0.113,0.041-0.143,0.096l-0.392,0.707c-0.033,0.059-0.087,0.094-0.154,0.097c-0.066,0.004-0.125-0.024-0.164-0.078
		l-0.47-0.657c-0.037-0.052-0.09-0.079-0.153-0.079c-0.063,0-0.117,0.027-0.153,0.079l-0.47,0.657
		c-0.039,0.054-0.098,0.082-0.164,0.078c-0.066-0.003-0.122-0.038-0.154-0.097l-0.392-0.707c-0.031-0.055-0.082-0.089-0.144-0.096
		c-0.063-0.007-0.119,0.015-0.161,0.061l-0.542,0.601c-0.044,0.05-0.106,0.07-0.172,0.06c-0.065-0.012-0.117-0.053-0.142-0.114
		l-0.31-0.747c-0.024-0.058-0.07-0.098-0.131-0.111c-0.061-0.015-0.12,0-0.167,0.042l-0.607,0.534
		c-0.05,0.044-0.114,0.058-0.178,0.039c-0.064-0.019-0.11-0.064-0.128-0.129l-0.222-0.777c-0.017-0.061-0.059-0.105-0.118-0.126
		c-0.059-0.021-0.12-0.014-0.171,0.022l-0.664,0.462c-0.055,0.037-0.12,0.045-0.181,0.019c-0.061-0.025-0.102-0.077-0.113-0.143
		l-0.132-0.799c-0.01-0.061-0.046-0.109-0.103-0.138s-0.117-0.026-0.172,0.003l-0.712,0.383c-0.059,0.032-0.124,0.031-0.182-0.002
		c-0.058-0.032-0.092-0.088-0.096-0.154l-0.04-0.809c-0.003-0.062-0.034-0.115-0.087-0.148c-0.052-0.034-0.113-0.04-0.171-0.017
		l-0.751,0.3c-0.063,0.023-0.127,0.016-0.181-0.023s-0.082-0.099-0.078-0.165l0.053-0.807c0.004-0.063-0.02-0.118-0.069-0.157
		c-0.048-0.04-0.108-0.053-0.168-0.037l-0.78,0.213c-0.064,0.017-0.128,0.001-0.177-0.044c-0.049-0.045-0.07-0.106-0.059-0.172
		l0.144-0.796c0.012-0.063-0.006-0.12-0.05-0.165C6.52,25.276,6.462,25.258,6.4,25.267l-0.8,0.122
		c-0.065,0.01-0.127-0.013-0.17-0.063c-0.043-0.05-0.057-0.114-0.038-0.178l0.234-0.773c0.018-0.061,0.007-0.12-0.031-0.17
		s-0.093-0.075-0.156-0.074L4.63,24.159c-0.066,0.003-0.125-0.026-0.163-0.081c-0.037-0.056-0.043-0.12-0.017-0.182l0.321-0.742
		c0.024-0.058,0.021-0.118-0.012-0.172s-0.084-0.086-0.146-0.091l-0.807-0.063c-0.066-0.005-0.121-0.041-0.152-0.1
		c-0.031-0.059-0.03-0.125,0.003-0.183l0.403-0.7c0.031-0.056,0.034-0.115,0.008-0.173c-0.026-0.058-0.074-0.095-0.135-0.106
		L3.14,21.413C3.075,21.399,3.024,21.358,3,21.296c-0.024-0.062-0.016-0.126,0.024-0.181l0.48-0.649
		c0.038-0.051,0.047-0.111,0.028-0.171S3.47,20.193,3.41,20.174L2.639,19.93c-0.063-0.021-0.109-0.067-0.125-0.132
		c-0.017-0.064-0.001-0.128,0.044-0.177l0.551-0.592c0.042-0.045,0.06-0.104,0.047-0.165s-0.05-0.109-0.108-0.135l-0.738-0.33
		c-0.061-0.027-0.1-0.079-0.109-0.145c-0.009-0.067,0.014-0.127,0.064-0.171L2.88,17.56c0.047-0.041,0.07-0.098,0.065-0.16
		c-0.005-0.063-0.037-0.113-0.091-0.146l-0.696-0.412c-0.057-0.035-0.09-0.091-0.092-0.157c-0.001-0.066,0.028-0.124,0.083-0.162
		l0.671-0.451c0.052-0.035,0.081-0.088,0.083-0.15c0.002-0.063-0.024-0.118-0.075-0.155l-0.644-0.489
		c-0.053-0.04-0.079-0.1-0.074-0.166c0.006-0.066,0.042-0.121,0.101-0.151l0.718-0.372c0.056-0.029,0.091-0.078,0.1-0.141
		c0.009-0.062-0.011-0.119-0.056-0.163l-0.584-0.56c-0.048-0.045-0.068-0.108-0.055-0.173c0.013-0.065,0.056-0.115,0.118-0.139
		l0.756-0.288c0.059-0.021,0.099-0.067,0.115-0.128s0.003-0.12-0.037-0.168L2.77,12.205c-0.042-0.05-0.055-0.115-0.034-0.178
		c0.021-0.063,0.068-0.107,0.133-0.125l0.784-0.199c0.061-0.016,0.106-0.056,0.129-0.114c0.022-0.059,0.016-0.119-0.018-0.171
		L3.321,10.74c-0.037-0.055-0.042-0.121-0.014-0.181c0.027-0.061,0.08-0.1,0.146-0.108l0.801-0.109
		c0.062-0.008,0.112-0.043,0.141-0.099s0.03-0.116,0.002-0.173L4.035,9.348c-0.03-0.06-0.027-0.125,0.007-0.182
		s0.091-0.09,0.157-0.091l0.809-0.017c0.063-0.002,0.116-0.03,0.151-0.083c0.036-0.052,0.043-0.111,0.022-0.17L4.903,8.045
		C4.881,7.983,4.891,7.918,4.932,7.866c0.04-0.053,0.1-0.079,0.167-0.073l0.805,0.075c0.063,0.007,0.119-0.017,0.16-0.063
		c0.041-0.048,0.055-0.106,0.041-0.168L5.915,6.851C5.899,6.786,5.917,6.723,5.963,6.675C6.01,6.627,6.072,6.608,6.137,6.622
		l0.792,0.167c0.062,0.013,0.12-0.003,0.167-0.046c0.046-0.042,0.067-0.1,0.06-0.161L7.056,5.779
		C7.048,5.712,7.072,5.652,7.124,5.61c0.051-0.043,0.116-0.055,0.179-0.033L8.07,5.833c0.06,0.02,0.119,0.011,0.17-0.026
		c0.051-0.036,0.078-0.091,0.078-0.153l-0.006-0.81c0-0.066,0.031-0.124,0.087-0.159C8.454,4.647,8.519,4.644,8.58,4.672
		l0.733,0.342C9.369,5.04,9.43,5.037,9.485,5.007C9.54,4.976,9.573,4.925,9.579,4.862l0.086-0.805C9.672,3.992,9.71,3.939,9.77,3.91
		c0.06-0.03,0.125-0.027,0.182,0.008l0.689,0.423c0.054,0.032,0.114,0.038,0.172,0.013c0.058-0.024,0.097-0.071,0.11-0.132
		l0.177-0.79c0.015-0.064,0.058-0.113,0.121-0.136c0.063-0.021,0.127-0.012,0.18,0.029l0.636,0.499
		c0.049,0.038,0.109,0.05,0.169,0.032c0.061-0.018,0.104-0.06,0.125-0.119l0.266-0.764c0.022-0.063,0.071-0.106,0.135-0.121
		c0.065-0.016,0.128,0.002,0.175,0.05l0.575,0.567c0.045,0.044,0.103,0.063,0.165,0.052c0.062-0.011,0.11-0.048,0.137-0.104
		l0.352-0.729c0.029-0.06,0.082-0.098,0.148-0.104c0.066-0.008,0.127,0.017,0.168,0.069l0.507,0.63
		c0.04,0.049,0.095,0.073,0.158,0.069c0.063-0.003,0.115-0.034,0.148-0.088l0.432-0.684c0.035-0.056,0.093-0.087,0.159-0.087
		C15.924,2.494,15.981,2.525,16.017,2.581L16.017,2.581z M15.857,4.822c3.167,0,6.034,1.283,8.109,3.358
		c2.075,2.076,3.359,4.943,3.359,8.109c0,3.168-1.284,6.034-3.359,8.109s-4.943,3.359-8.109,3.359s-6.034-1.284-8.109-3.359
		c-2.076-2.075-3.359-4.941-3.359-8.109c0-3.166,1.283-6.033,3.359-8.109C9.823,6.105,12.69,4.822,15.857,4.822L15.857,4.822z"/>
	<path fill="#92B5BD" d="M15.857,2.494c0.067,0,0.124,0.031,0.16,0.087l0.432,0.684c0.033,0.054,0.086,0.085,0.148,0.088
		c0.004,0,0.008,0,0.012,0c0.058,0,0.109-0.023,0.146-0.069l0.507-0.63c0.037-0.046,0.088-0.071,0.146-0.071
		c0.007,0,0.015,0.001,0.023,0.002c0.066,0.007,0.119,0.045,0.148,0.104l0.351,0.729c0.027,0.056,0.075,0.093,0.138,0.104
		c0.011,0.002,0.023,0.003,0.034,0.003c0.049,0,0.094-0.019,0.13-0.055l0.576-0.567c0.037-0.036,0.082-0.056,0.13-0.056
		c0.015,0,0.03,0.002,0.045,0.006c0.065,0.015,0.114,0.059,0.135,0.121l0.266,0.764c0.021,0.06,0.064,0.102,0.125,0.119
		c0.019,0.006,0.037,0.008,0.055,0.008c0.041,0,0.08-0.013,0.114-0.04l0.637-0.499c0.034-0.026,0.074-0.041,0.114-0.041
		c0.021,0,0.043,0.004,0.065,0.012c0.063,0.022,0.106,0.071,0.121,0.136l0.177,0.79c0.014,0.061,0.053,0.107,0.111,0.132
		c0.024,0.011,0.049,0.017,0.074,0.017c0.034,0,0.067-0.01,0.098-0.029l0.689-0.423c0.031-0.019,0.064-0.028,0.098-0.028
		c0.028,0,0.056,0.006,0.083,0.021c0.06,0.029,0.097,0.082,0.104,0.147l0.086,0.805c0.006,0.063,0.04,0.113,0.095,0.145
		c0.029,0.017,0.061,0.024,0.092,0.024c0.026,0,0.054-0.005,0.08-0.018l0.733-0.342c0.026-0.013,0.053-0.018,0.08-0.018
		c0.035,0,0.07,0.01,0.102,0.03c0.056,0.035,0.087,0.093,0.086,0.159l-0.007,0.81c0,0.063,0.027,0.117,0.078,0.153
		c0.033,0.023,0.071,0.036,0.109,0.036c0.02,0,0.041-0.003,0.061-0.01l0.768-0.256c0.021-0.007,0.041-0.011,0.062-0.011
		c0.042,0,0.083,0.016,0.117,0.044c0.052,0.042,0.076,0.102,0.068,0.169L24.56,6.582c-0.007,0.062,0.014,0.119,0.06,0.161
		c0.036,0.033,0.08,0.05,0.126,0.05c0.013,0,0.027-0.002,0.041-0.004l0.792-0.167c0.014-0.003,0.027-0.005,0.041-0.005
		c0.05,0,0.097,0.021,0.133,0.058c0.046,0.048,0.063,0.111,0.048,0.176L25.61,7.637c-0.015,0.062,0,0.12,0.041,0.168
		c0.037,0.042,0.085,0.064,0.141,0.064c0.006,0,0.013,0,0.02-0.001l0.804-0.075c0.007-0.001,0.013-0.001,0.02-0.001
		c0.059,0,0.111,0.025,0.148,0.074c0.041,0.052,0.05,0.117,0.028,0.179l-0.278,0.761c-0.021,0.059-0.014,0.118,0.021,0.17
		c0.036,0.053,0.089,0.081,0.151,0.083l0.809,0.017c0.066,0.001,0.124,0.034,0.158,0.091c0.035,0.057,0.037,0.122,0.007,0.182
		l-0.362,0.723c-0.028,0.057-0.027,0.117,0.002,0.173s0.079,0.091,0.141,0.099l0.801,0.109c0.066,0.009,0.119,0.048,0.146,0.108
		c0.027,0.06,0.022,0.126-0.014,0.181l-0.442,0.678c-0.035,0.052-0.041,0.112-0.019,0.171c0.023,0.059,0.068,0.099,0.129,0.114
		l0.784,0.199c0.065,0.018,0.112,0.062,0.133,0.125c0.021,0.063,0.008,0.128-0.034,0.178l-0.517,0.623
		c-0.04,0.048-0.053,0.107-0.037,0.168s0.057,0.106,0.115,0.128l0.756,0.288c0.062,0.023,0.104,0.073,0.118,0.139
		c0.013,0.064-0.006,0.128-0.055,0.173l-0.584,0.56c-0.045,0.044-0.065,0.102-0.056,0.163c0.009,0.063,0.044,0.111,0.1,0.141
		l0.718,0.372c0.059,0.03,0.095,0.085,0.101,0.151s-0.021,0.126-0.074,0.166l-0.644,0.489c-0.05,0.037-0.077,0.092-0.075,0.155
		c0.002,0.063,0.031,0.115,0.083,0.15l0.671,0.451c0.055,0.038,0.085,0.096,0.083,0.162c-0.001,0.066-0.035,0.122-0.092,0.157
		l-0.696,0.412c-0.054,0.032-0.086,0.083-0.091,0.146s0.018,0.119,0.065,0.16l0.615,0.524c0.05,0.044,0.074,0.104,0.064,0.171
		c-0.009,0.065-0.048,0.117-0.109,0.145l-0.738,0.33c-0.057,0.025-0.095,0.073-0.107,0.135c-0.013,0.062,0.003,0.12,0.046,0.165
		l0.552,0.592c0.045,0.049,0.061,0.112,0.044,0.177c-0.017,0.064-0.062,0.111-0.125,0.132l-0.771,0.244
		c-0.06,0.02-0.103,0.062-0.123,0.121s-0.01,0.12,0.027,0.171l0.48,0.649c0.04,0.055,0.048,0.119,0.024,0.181
		c-0.024,0.063-0.075,0.104-0.14,0.117l-0.794,0.154c-0.062,0.012-0.109,0.049-0.136,0.106c-0.025,0.058-0.023,0.117,0.008,0.173
		l0.403,0.7c0.033,0.058,0.035,0.124,0.004,0.183c-0.031,0.059-0.086,0.095-0.152,0.1l-0.806,0.063
		c-0.063,0.005-0.114,0.037-0.147,0.091c-0.032,0.054-0.036,0.114-0.011,0.172l0.32,0.742c0.026,0.062,0.02,0.126-0.018,0.182
		c-0.036,0.053-0.091,0.082-0.155,0.082c-0.002,0-0.005-0.001-0.007-0.001l-0.808-0.029c-0.003,0-0.005,0-0.008,0
		c-0.06,0-0.112,0.026-0.148,0.074c-0.038,0.05-0.049,0.109-0.031,0.17l0.234,0.773c0.019,0.063,0.005,0.128-0.039,0.178
		c-0.037,0.043-0.086,0.065-0.14,0.065c-0.01,0-0.02-0.001-0.03-0.002l-0.8-0.122c-0.01-0.001-0.02-0.001-0.03-0.001
		c-0.05,0-0.097,0.02-0.133,0.057c-0.044,0.045-0.062,0.103-0.051,0.165l0.145,0.796c0.012,0.065-0.009,0.127-0.059,0.172
		c-0.035,0.033-0.079,0.05-0.125,0.05c-0.017,0-0.034-0.002-0.051-0.006l-0.78-0.213c-0.017-0.004-0.035-0.007-0.051-0.007
		c-0.042,0-0.083,0.015-0.117,0.044c-0.049,0.039-0.074,0.095-0.069,0.157l0.053,0.807c0.004,0.066-0.023,0.126-0.077,0.165
		c-0.034,0.024-0.071,0.036-0.11,0.036c-0.023,0-0.047-0.004-0.071-0.013l-0.751-0.3c-0.023-0.01-0.047-0.014-0.071-0.014
		c-0.035,0-0.069,0.01-0.101,0.03c-0.053,0.033-0.083,0.087-0.086,0.148l-0.04,0.809c-0.003,0.066-0.038,0.122-0.096,0.154
		c-0.029,0.017-0.061,0.025-0.092,0.025c-0.031,0-0.061-0.008-0.09-0.023l-0.712-0.383c-0.028-0.015-0.059-0.023-0.089-0.023
		c-0.028,0-0.056,0.008-0.083,0.021c-0.056,0.028-0.092,0.077-0.103,0.138l-0.131,0.799c-0.011,0.065-0.051,0.117-0.113,0.143
		c-0.024,0.011-0.05,0.016-0.075,0.016c-0.037,0-0.074-0.012-0.106-0.034l-0.664-0.462c-0.033-0.022-0.069-0.034-0.106-0.034
		c-0.021,0-0.043,0.003-0.064,0.012c-0.059,0.021-0.101,0.065-0.118,0.126l-0.222,0.777c-0.018,0.064-0.064,0.11-0.128,0.129
		c-0.019,0.006-0.037,0.008-0.055,0.008c-0.044,0-0.087-0.016-0.123-0.047l-0.607-0.534c-0.035-0.031-0.078-0.048-0.122-0.048
		c-0.015,0-0.029,0.002-0.045,0.006c-0.061,0.014-0.107,0.054-0.132,0.111l-0.309,0.747c-0.025,0.062-0.076,0.103-0.142,0.114
		c-0.012,0.001-0.023,0.002-0.034,0.002c-0.053,0-0.102-0.021-0.138-0.062l-0.543-0.601c-0.037-0.041-0.084-0.063-0.138-0.063
		c-0.008,0-0.016,0.001-0.023,0.002c-0.062,0.007-0.113,0.041-0.143,0.096l-0.392,0.707c-0.033,0.059-0.087,0.094-0.154,0.097
		c-0.004,0-0.008,0-0.012,0c-0.062,0-0.116-0.027-0.152-0.078l-0.47-0.657c-0.037-0.052-0.09-0.079-0.153-0.079
		c-0.063,0-0.117,0.027-0.153,0.079l-0.47,0.657c-0.036,0.051-0.091,0.078-0.152,0.078c-0.004,0-0.008,0-0.012,0
		c-0.066-0.003-0.122-0.038-0.154-0.097l-0.392-0.707c-0.031-0.055-0.082-0.089-0.144-0.096c-0.008-0.001-0.016-0.002-0.023-0.002
		c-0.053,0-0.101,0.021-0.138,0.063l-0.542,0.601c-0.037,0.041-0.085,0.062-0.138,0.062c-0.011,0-0.023-0.001-0.034-0.002
		c-0.065-0.012-0.117-0.053-0.142-0.114l-0.31-0.747c-0.024-0.058-0.07-0.098-0.131-0.111c-0.015-0.004-0.03-0.006-0.045-0.006
		c-0.044,0-0.087,0.017-0.122,0.048l-0.607,0.534c-0.036,0.031-0.078,0.047-0.123,0.047c-0.018,0-0.037-0.002-0.055-0.008
		c-0.064-0.019-0.11-0.064-0.128-0.129l-0.222-0.777c-0.017-0.061-0.059-0.105-0.118-0.126c-0.022-0.009-0.043-0.012-0.065-0.012
		c-0.037,0-0.073,0.012-0.106,0.034l-0.664,0.462c-0.033,0.022-0.07,0.034-0.106,0.034c-0.025,0-0.05-0.005-0.075-0.016
		c-0.061-0.025-0.102-0.077-0.113-0.143l-0.132-0.799c-0.01-0.061-0.046-0.109-0.103-0.138c-0.027-0.013-0.056-0.021-0.083-0.021
		c-0.03,0-0.061,0.009-0.089,0.023l-0.712,0.383c-0.029,0.016-0.06,0.023-0.09,0.023c-0.031,0-0.063-0.009-0.092-0.025
		c-0.058-0.032-0.092-0.088-0.096-0.154l-0.04-0.809c-0.003-0.062-0.034-0.115-0.087-0.148c-0.031-0.021-0.065-0.03-0.101-0.03
		c-0.023,0-0.047,0.004-0.071,0.014l-0.751,0.3c-0.024,0.009-0.048,0.013-0.071,0.013c-0.039,0-0.076-0.012-0.109-0.036
		c-0.054-0.039-0.082-0.099-0.078-0.165l0.053-0.807c0.004-0.063-0.02-0.118-0.069-0.157c-0.035-0.029-0.075-0.044-0.117-0.044
		c-0.017,0-0.034,0.003-0.051,0.007l-0.78,0.213c-0.018,0.004-0.035,0.006-0.052,0.006c-0.046,0-0.09-0.017-0.125-0.05
		c-0.049-0.045-0.07-0.106-0.059-0.172l0.144-0.796c0.012-0.063-0.006-0.12-0.05-0.165c-0.036-0.037-0.083-0.057-0.133-0.057
		c-0.01,0-0.02,0-0.03,0.001l-0.8,0.122c-0.01,0.001-0.021,0.002-0.03,0.002c-0.054,0-0.104-0.022-0.14-0.065
		c-0.043-0.05-0.057-0.114-0.038-0.178l0.234-0.773c0.018-0.061,0.007-0.12-0.031-0.17c-0.037-0.048-0.089-0.074-0.148-0.074
		c-0.002,0-0.005,0-0.008,0L4.63,24.159c-0.002,0-0.005,0.001-0.007,0.001c-0.063,0-0.119-0.029-0.155-0.082
		c-0.037-0.056-0.043-0.12-0.017-0.182l0.321-0.742c0.024-0.058,0.021-0.118-0.012-0.172s-0.084-0.086-0.146-0.091l-0.807-0.063
		c-0.066-0.005-0.121-0.041-0.152-0.1c-0.031-0.059-0.03-0.125,0.003-0.183l0.403-0.7c0.031-0.056,0.034-0.115,0.008-0.173
		c-0.026-0.058-0.074-0.095-0.135-0.106L3.14,21.413C3.075,21.399,3.024,21.358,3,21.296c-0.024-0.062-0.016-0.126,0.024-0.181
		l0.48-0.649c0.038-0.051,0.047-0.111,0.028-0.171S3.47,20.193,3.41,20.174L2.639,19.93c-0.063-0.021-0.109-0.067-0.125-0.132
		c-0.017-0.064-0.001-0.128,0.044-0.177l0.551-0.592c0.042-0.045,0.06-0.104,0.047-0.165s-0.05-0.109-0.108-0.135l-0.738-0.33
		c-0.061-0.027-0.1-0.079-0.109-0.145c-0.009-0.067,0.014-0.127,0.064-0.171L2.88,17.56c0.047-0.041,0.07-0.098,0.065-0.16
		c-0.005-0.063-0.037-0.113-0.091-0.146l-0.696-0.412c-0.057-0.035-0.09-0.091-0.092-0.157c-0.001-0.066,0.028-0.124,0.083-0.162
		l0.671-0.451c0.052-0.035,0.081-0.088,0.083-0.15c0.002-0.063-0.024-0.118-0.075-0.155l-0.644-0.489
		c-0.053-0.04-0.079-0.1-0.074-0.166c0.006-0.066,0.042-0.121,0.101-0.151l0.718-0.372c0.056-0.029,0.091-0.078,0.1-0.141
		c0.009-0.062-0.011-0.119-0.056-0.163l-0.584-0.56c-0.048-0.045-0.068-0.108-0.055-0.173c0.013-0.065,0.056-0.115,0.118-0.139
		l0.756-0.288c0.059-0.021,0.099-0.067,0.115-0.128s0.003-0.12-0.037-0.168L2.77,12.205c-0.042-0.05-0.055-0.115-0.034-0.178
		c0.021-0.063,0.068-0.107,0.133-0.125l0.784-0.199c0.061-0.016,0.106-0.056,0.129-0.114c0.022-0.059,0.016-0.119-0.018-0.171
		L3.321,10.74c-0.037-0.055-0.042-0.121-0.014-0.181c0.027-0.061,0.08-0.1,0.146-0.108l0.801-0.109
		c0.062-0.008,0.112-0.043,0.141-0.099s0.03-0.116,0.002-0.173L4.035,9.348c-0.03-0.06-0.027-0.125,0.007-0.182
		s0.091-0.09,0.157-0.091l0.809-0.017c0.063-0.002,0.116-0.03,0.151-0.083c0.036-0.052,0.043-0.111,0.022-0.17L4.903,8.045
		C4.881,7.983,4.891,7.918,4.932,7.866c0.036-0.049,0.089-0.074,0.147-0.074c0.006,0,0.013,0,0.019,0.001l0.805,0.075
		C5.91,7.869,5.917,7.869,5.922,7.869c0.055,0,0.104-0.022,0.141-0.064c0.041-0.048,0.055-0.106,0.041-0.168L5.915,6.851
		C5.899,6.786,5.917,6.723,5.963,6.675C6,6.638,6.046,6.617,6.096,6.617c0.013,0,0.027,0.002,0.041,0.005l0.792,0.167
		c0.014,0.002,0.027,0.004,0.041,0.004c0.046,0,0.089-0.017,0.125-0.05c0.046-0.042,0.067-0.1,0.06-0.161L7.056,5.779
		C7.048,5.712,7.072,5.652,7.124,5.61c0.035-0.028,0.076-0.044,0.117-0.044c0.021,0,0.042,0.004,0.062,0.011L8.07,5.833
		C8.09,5.84,8.11,5.843,8.131,5.843c0.039,0,0.076-0.013,0.109-0.036c0.051-0.036,0.078-0.091,0.078-0.153l-0.006-0.81
		c0-0.066,0.031-0.124,0.087-0.159c0.032-0.021,0.066-0.03,0.101-0.03c0.027,0,0.054,0.005,0.081,0.018l0.733,0.342
		c0.026,0.013,0.053,0.018,0.08,0.018c0.031,0,0.063-0.008,0.092-0.024C9.54,4.976,9.573,4.925,9.579,4.862l0.086-0.805
		C9.672,3.992,9.71,3.939,9.77,3.91C9.797,3.896,9.825,3.89,9.854,3.89c0.033,0,0.067,0.01,0.098,0.028l0.689,0.423
		c0.03,0.02,0.064,0.029,0.098,0.029c0.025,0,0.05-0.006,0.074-0.017c0.058-0.024,0.097-0.071,0.11-0.132l0.177-0.79
		c0.015-0.064,0.058-0.113,0.121-0.136c0.021-0.008,0.043-0.012,0.065-0.012c0.041,0,0.081,0.015,0.115,0.041l0.636,0.499
		c0.035,0.027,0.074,0.04,0.114,0.04c0.018,0,0.037-0.002,0.055-0.008c0.061-0.018,0.104-0.06,0.125-0.119l0.266-0.764
		c0.022-0.063,0.071-0.106,0.135-0.121c0.015-0.004,0.03-0.006,0.044-0.006c0.049,0,0.094,0.02,0.131,0.056l0.575,0.567
		c0.037,0.036,0.082,0.055,0.131,0.055c0.011,0,0.022-0.001,0.034-0.003c0.062-0.011,0.11-0.048,0.137-0.104l0.352-0.729
		c0.029-0.06,0.082-0.098,0.148-0.104c0.008-0.001,0.016-0.002,0.023-0.002c0.057,0,0.108,0.025,0.145,0.071l0.507,0.63
		c0.037,0.046,0.088,0.069,0.146,0.069c0.004,0,0.008,0,0.012,0c0.063-0.003,0.115-0.034,0.148-0.088l0.432-0.684
		C15.733,2.525,15.791,2.494,15.857,2.494 M15.857,27.759c3.167,0,6.034-1.284,8.109-3.359s3.359-4.941,3.359-8.109
		c0-3.166-1.284-6.033-3.359-8.109c-2.075-2.075-4.943-3.358-8.109-3.358S9.823,6.105,7.748,8.181
		c-2.076,2.076-3.359,4.943-3.359,8.109c0,3.168,1.283,6.034,3.359,8.109C9.823,26.475,12.69,27.759,15.857,27.759 M15.857,2.337
		c-0.121,0-0.227,0.059-0.292,0.161l-0.432,0.684c-0.007,0.01-0.013,0.014-0.024,0.015c-0.001,0-0.002,0-0.003,0
		c-0.009,0-0.016-0.002-0.023-0.012l-0.507-0.63c-0.066-0.083-0.162-0.13-0.267-0.13c-0.014,0-0.028,0.001-0.041,0.003
		c-0.12,0.014-0.219,0.084-0.272,0.193L13.643,3.35c-0.005,0.011-0.01,0.015-0.023,0.017c-0.003,0.001-0.005,0.001-0.007,0.001
		c-0.006,0-0.012-0.001-0.021-0.009L13.018,2.79c-0.065-0.064-0.151-0.101-0.241-0.101c-0.026,0-0.053,0.004-0.08,0.01
		c-0.118,0.027-0.208,0.108-0.249,0.223l-0.266,0.764c-0.004,0.012-0.009,0.017-0.021,0.02c-0.004,0.002-0.008,0.002-0.011,0.002
		c-0.004,0-0.009-0.001-0.017-0.007l-0.637-0.498c-0.062-0.049-0.135-0.074-0.211-0.074c-0.04,0-0.08,0.007-0.118,0.02
		c-0.114,0.041-0.194,0.132-0.221,0.251L10.77,4.187c-0.002,0.013-0.007,0.018-0.018,0.022c-0.005,0.002-0.009,0.004-0.013,0.004
		c-0.002,0-0.007,0-0.016-0.006l-0.689-0.424C9.978,3.75,9.916,3.732,9.854,3.732C9.8,3.732,9.749,3.744,9.7,3.769
		C9.592,3.822,9.522,3.921,9.509,4.042L9.423,4.846C9.422,4.858,9.418,4.863,9.407,4.87l0,0l0,0
		C9.399,4.875,9.394,4.875,9.393,4.875c-0.004,0-0.009-0.002-0.014-0.004L8.646,4.529C8.599,4.508,8.55,4.497,8.499,4.497
		c-0.065,0-0.13,0.019-0.186,0.055c-0.102,0.065-0.16,0.172-0.159,0.293l0.006,0.809c0,0.013-0.003,0.02-0.013,0.026
		C8.14,5.685,8.135,5.686,8.131,5.686c-0.003,0-0.007,0-0.012-0.002L7.352,5.429c-0.036-0.013-0.074-0.02-0.111-0.02
		c-0.079,0-0.154,0.028-0.217,0.079C6.931,5.565,6.885,5.678,6.9,5.798l0.099,0.803C7,6.613,6.997,6.619,6.988,6.628
		C6.98,6.635,6.975,6.636,6.969,6.636c-0.003,0-0.005,0-0.009-0.001L6.169,6.468C6.145,6.463,6.12,6.46,6.096,6.46
		c-0.093,0-0.18,0.038-0.246,0.105C5.766,6.652,5.734,6.77,5.762,6.888l0.189,0.786c0.003,0.012,0.001,0.019-0.007,0.027
		S5.931,7.712,5.922,7.712c-0.001,0-0.002,0-0.004,0L5.113,7.637C5.102,7.636,5.09,7.635,5.079,7.635
		c-0.107,0-0.206,0.049-0.272,0.135C4.733,7.865,4.714,7.985,4.756,8.1l0.277,0.759C5.038,8.87,5.037,8.877,5.03,8.887
		C5.023,8.897,5.017,8.9,5.005,8.901L4.196,8.918C4.076,8.92,3.97,8.981,3.908,9.085l0,0l0,0C3.845,9.188,3.841,9.31,3.895,9.418
		l0.362,0.723c0.006,0.011,0.006,0.019,0,0.028c-0.006,0.012-0.012,0.016-0.023,0.018l-0.801,0.108
		c-0.12,0.017-0.218,0.089-0.268,0.199s-0.041,0.231,0.025,0.332l0.442,0.678c0.006,0.01,0.007,0.017,0.003,0.028
		c-0.004,0.011-0.01,0.016-0.021,0.019l-0.784,0.2c-0.117,0.029-0.206,0.112-0.243,0.228c-0.038,0.115-0.015,0.235,0.063,0.328
		l0.517,0.622c0.007,0.009,0.009,0.016,0.006,0.027v0.001l0,0c-0.003,0.011-0.008,0.017-0.019,0.021l-0.756,0.287
		C2.284,13.309,2.205,13.4,2.181,13.52s0.012,0.234,0.1,0.318l0.584,0.56c0.009,0.008,0.011,0.015,0.009,0.026
		c-0.002,0.013-0.006,0.019-0.017,0.023L2.14,14.819c-0.107,0.056-0.175,0.156-0.185,0.277l0,0l0,0
		c-0.01,0.121,0.039,0.231,0.135,0.305l0.645,0.488c0.009,0.008,0.012,0.015,0.012,0.025v0.001l0,0c0,0.012-0.003,0.019-0.014,0.025
		l-0.671,0.451c-0.101,0.067-0.156,0.176-0.153,0.296c0.003,0.121,0.065,0.226,0.169,0.288l0.695,0.412
		c0.011,0.006,0.015,0.013,0.016,0.024s-0.001,0.02-0.011,0.026l-0.615,0.524c-0.092,0.079-0.135,0.193-0.118,0.313
		c0.018,0.119,0.091,0.217,0.201,0.266l0.739,0.33C2.996,18.878,3,18.883,3.002,18.896c0.002,0.012,0,0.019-0.008,0.027
		l-0.551,0.592c-0.083,0.088-0.112,0.206-0.081,0.323s0.114,0.205,0.229,0.241l0.771,0.244c0.012,0.004,0.017,0.009,0.021,0.02
		c0.004,0.013,0.003,0.02-0.004,0.029l-0.48,0.65c-0.072,0.098-0.088,0.219-0.044,0.331s0.137,0.19,0.256,0.213l0.793,0.154
		c0.012,0.003,0.018,0.008,0.022,0.019c0.005,0.012,0.004,0.019-0.001,0.028l0,0v0.001l-0.403,0.7
		c-0.061,0.104-0.063,0.227-0.006,0.334c0.057,0.106,0.158,0.173,0.279,0.183l0.806,0.063c0.012,0.001,0.019,0.004,0.024,0.015
		c0.006,0.01,0.007,0.019,0.002,0.028l-0.32,0.743c-0.048,0.11-0.036,0.232,0.032,0.332l0,0c0.065,0.096,0.169,0.149,0.285,0.149
		c0.004,0,0.009,0,0.013,0l0.808-0.029c0.001,0,0.001,0,0.002,0c0.01,0,0.016,0.002,0.024,0.013c0.007,0.01,0.009,0.017,0.005,0.028
		l-0.234,0.773c-0.035,0.116-0.01,0.235,0.069,0.327c0.067,0.077,0.159,0.119,0.259,0.119c0.018,0,0.036-0.001,0.054-0.004
		l0.8-0.122c0.002,0,0.005,0,0.007,0c0.005,0,0.012,0,0.021,0.01c0.008,0.009,0.01,0.016,0.008,0.028l-0.144,0.795
		c-0.021,0.119,0.018,0.234,0.106,0.316c0.064,0.059,0.146,0.091,0.231,0.091c0.031,0,0.062-0.004,0.093-0.013l0.78-0.211
		c0.003-0.001,0.007-0.002,0.01-0.002c0.004,0,0.01,0.001,0.018,0.008c0.009,0.007,0.012,0.015,0.012,0.025l-0.053,0.808
		c-0.008,0.121,0.043,0.23,0.142,0.302c0.06,0.044,0.13,0.066,0.202,0.066c0.044,0,0.087-0.008,0.129-0.024l0.751-0.3
		c0.005-0.001,0.009-0.002,0.013-0.002c0.002,0,0.007,0,0.016,0.005c0.011,0.007,0.014,0.014,0.015,0.025l0.04,0.808
		c0.006,0.121,0.07,0.225,0.176,0.283c0.052,0.03,0.111,0.046,0.169,0.046c0.057,0,0.112-0.015,0.164-0.042l0.712-0.383
		c0.005-0.003,0.01-0.005,0.014-0.005s0.009,0.001,0.014,0.004c0.011,0.005,0.015,0.012,0.017,0.023l0.132,0.798
		c0.02,0.119,0.095,0.215,0.207,0.262c0.044,0.019,0.089,0.028,0.136,0.028c0.069,0,0.137-0.021,0.196-0.063l0.664-0.462
		c0.008-0.005,0.014-0.006,0.017-0.006c0.003,0,0.007,0.001,0.012,0.002c0.011,0.004,0.016,0.01,0.02,0.021l0,0l0,0l0.222,0.778
		c0.033,0.116,0.119,0.202,0.235,0.237c0.033,0.01,0.066,0.014,0.099,0.014c0.084,0,0.162-0.03,0.227-0.087l0.607-0.533
		c0.008-0.008,0.014-0.009,0.019-0.009c0.003,0,0.006,0,0.009,0.001c0.012,0.003,0.017,0.008,0.022,0.019l0.309,0.747
		c0.046,0.112,0.142,0.188,0.26,0.209c0.021,0.004,0.042,0.005,0.062,0.005c0.098,0,0.188-0.04,0.254-0.114l0.542-0.6
		c0.008-0.009,0.014-0.011,0.021-0.011c0.002,0,0.004,0,0.006,0c0.012,0.002,0.018,0.007,0.024,0.018l0.392,0.706
		c0.059,0.106,0.161,0.171,0.282,0.178c0.007,0,0.014,0,0.021,0c0.113,0,0.215-0.052,0.28-0.145l0.47-0.657
		c0.007-0.011,0.013-0.013,0.025-0.013s0.019,0.002,0.026,0.012l0.47,0.658c0.065,0.093,0.168,0.145,0.28,0.145
		c0.007,0,0.014,0,0.021,0c0.121-0.007,0.224-0.071,0.283-0.178l0.392-0.706c0.006-0.011,0.012-0.016,0.024-0.018
		c0.001,0,0.003,0,0.005,0c0.007,0,0.014,0.002,0.021,0.011l0.542,0.6l0,0c0.066,0.074,0.157,0.114,0.255,0.114
		c0.02,0,0.04-0.001,0.061-0.005c0.119-0.021,0.214-0.097,0.261-0.208l0.309-0.748c0.004-0.011,0.01-0.016,0.021-0.019
		c0.004-0.001,0.007-0.001,0.01-0.001c0.005,0,0.01,0.001,0.019,0.009l0.607,0.533c0.064,0.057,0.143,0.087,0.227,0.087
		c0.033,0,0.067-0.004,0.099-0.014c0.116-0.035,0.202-0.121,0.235-0.237l0.222-0.778c0.003-0.011,0.008-0.017,0.02-0.021
		c0.004-0.001,0.008-0.002,0.012-0.002c0.002,0,0.008,0,0.017,0.006l0.664,0.462c0.059,0.041,0.127,0.063,0.196,0.063
		c0.047,0,0.092-0.01,0.136-0.028c0.111-0.047,0.187-0.143,0.206-0.262l0.132-0.798c0.002-0.012,0.006-0.019,0.017-0.023
		c0.005-0.003,0.01-0.004,0.014-0.004s0.009,0.002,0.015,0.005l0.712,0.383c0.052,0.027,0.107,0.042,0.164,0.042
		c0.059,0,0.117-0.016,0.17-0.046c0.105-0.06,0.169-0.162,0.175-0.284l0.04-0.807c0.001-0.013,0.004-0.019,0.015-0.025
		c0.007-0.005,0.013-0.005,0.016-0.005c0.004,0,0.008,0.001,0.013,0.002l0.751,0.3c0.042,0.017,0.085,0.024,0.129,0.024
		c0.072,0,0.142-0.022,0.202-0.066c0.098-0.071,0.149-0.181,0.142-0.302l-0.052-0.808c-0.001-0.011,0.001-0.019,0.011-0.025l0,0
		v-0.001c0.008-0.006,0.013-0.007,0.018-0.007c0.003,0,0.006,0.001,0.01,0.002l0.781,0.211c0.031,0.009,0.062,0.013,0.092,0.013
		c0.085,0,0.167-0.032,0.232-0.091c0.089-0.082,0.127-0.197,0.106-0.316l-0.144-0.796c-0.002-0.012,0-0.019,0.008-0.027
		c0.008-0.01,0.015-0.01,0.02-0.01c0.002,0,0.004,0,0.006,0l0.8,0.122c0.018,0.003,0.036,0.004,0.054,0.004
		c0.1,0,0.192-0.042,0.259-0.119c0.079-0.092,0.104-0.211,0.069-0.327l-0.234-0.773c-0.003-0.012-0.002-0.019,0.005-0.028
		c0.009-0.011,0.015-0.013,0.024-0.013c0,0,0.001,0,0.002,0l0.808,0.029c0.004,0,0.009,0,0.013,0c0.116,0,0.219-0.054,0.284-0.149
		l0,0c0.068-0.1,0.081-0.222,0.033-0.332l-0.321-0.743c-0.005-0.01-0.004-0.019,0.002-0.028c0.006-0.011,0.012-0.014,0.024-0.015
		l0.806-0.063c0.121-0.01,0.223-0.076,0.279-0.183c0.057-0.107,0.054-0.229-0.006-0.334l-0.403-0.7
		c-0.006-0.011-0.006-0.018-0.001-0.029c0.005-0.011,0.011-0.016,0.023-0.019l0.793-0.154c0.119-0.022,0.212-0.101,0.256-0.213
		s0.028-0.233-0.044-0.331l-0.48-0.65c-0.007-0.01-0.008-0.017-0.004-0.028c0.003-0.012,0.009-0.017,0.021-0.021l0.771-0.244
		c0.116-0.036,0.2-0.124,0.23-0.241c0.03-0.116,0.001-0.234-0.082-0.323l-0.551-0.592c-0.009-0.009-0.01-0.016-0.008-0.027v-0.001
		l0,0c0.003-0.012,0.007-0.017,0.018-0.021l0.738-0.33c0.11-0.05,0.184-0.146,0.201-0.267c0.017-0.119-0.026-0.233-0.118-0.313
		l-0.615-0.524c-0.009-0.008-0.012-0.015-0.011-0.026s0.005-0.019,0.016-0.024l0.695-0.412c0.104-0.063,0.166-0.167,0.169-0.288
		c0.003-0.12-0.052-0.229-0.153-0.296l-0.671-0.451c-0.01-0.007-0.013-0.014-0.014-0.026c0-0.011,0.003-0.018,0.013-0.025
		l0.644-0.488c0.096-0.073,0.146-0.184,0.135-0.305c-0.01-0.121-0.078-0.222-0.185-0.278l-0.718-0.371
		c-0.011-0.005-0.015-0.011-0.017-0.023c-0.001-0.012,0.001-0.019,0.009-0.026l0.584-0.56c0.087-0.084,0.124-0.2,0.1-0.318
		c-0.024-0.119-0.103-0.211-0.216-0.255l-0.756-0.287c-0.011-0.004-0.016-0.01-0.019-0.021c-0.003-0.012-0.001-0.02,0.006-0.028
		l0.517-0.622c0.077-0.093,0.101-0.212,0.063-0.328c-0.038-0.115-0.126-0.198-0.244-0.228l-0.784-0.2
		c-0.012-0.003-0.017-0.008-0.021-0.019c-0.004-0.012-0.003-0.019,0.003-0.028l0.442-0.678c0.066-0.101,0.076-0.223,0.025-0.333
		c-0.05-0.109-0.147-0.182-0.268-0.198l-0.801-0.108c-0.012-0.002-0.018-0.006-0.024-0.017c-0.005-0.011-0.005-0.019,0-0.029
		l0.362-0.723c0.055-0.108,0.05-0.229-0.013-0.333c-0.063-0.104-0.167-0.165-0.289-0.167l-0.809-0.017
		C26.697,8.9,26.69,8.897,26.684,8.888V8.887l0,0c-0.006-0.01-0.007-0.017-0.003-0.028L26.958,8.1
		C27,7.985,26.981,7.865,26.907,7.77c-0.066-0.086-0.165-0.135-0.272-0.135c-0.011,0-0.022,0.001-0.034,0.002l-0.804,0.075
		c-0.002,0-0.003,0-0.005,0c-0.008,0-0.014-0.002-0.022-0.011c-0.007-0.009-0.009-0.016-0.006-0.027l0.189-0.786
		c0.028-0.118-0.003-0.235-0.088-0.322l0,0C25.798,6.498,25.71,6.46,25.618,6.46c-0.024,0-0.049,0.003-0.073,0.008l-0.791,0.167
		c-0.003,0.001-0.006,0.001-0.008,0.001c-0.005,0-0.011-0.001-0.02-0.008c-0.009-0.009-0.011-0.015-0.01-0.027l0.099-0.803
		c0.015-0.12-0.031-0.232-0.125-0.31c-0.063-0.051-0.138-0.079-0.217-0.079c-0.037,0-0.075,0.007-0.111,0.02l-0.767,0.255
		c-0.004,0.002-0.008,0.002-0.011,0.002c-0.002,0-0.008,0-0.018-0.006c-0.009-0.007-0.013-0.014-0.013-0.026l0,0l0.006-0.809
		c0.001-0.121-0.057-0.228-0.159-0.293c-0.056-0.036-0.121-0.055-0.186-0.055c-0.05,0-0.1,0.011-0.146,0.032L22.335,4.87
		c-0.005,0.003-0.01,0.005-0.014,0.005c-0.002,0-0.007,0-0.015-0.005c-0.011-0.006-0.014-0.012-0.016-0.024l-0.086-0.804
		c-0.013-0.121-0.083-0.22-0.191-0.273c-0.049-0.024-0.1-0.036-0.153-0.036c-0.063,0-0.125,0.018-0.18,0.051l-0.689,0.424
		c-0.009,0.006-0.014,0.006-0.016,0.006c-0.004,0-0.008-0.002-0.013-0.004l0,0h0c-0.011-0.005-0.016-0.011-0.018-0.022l-0.177-0.788
		c-0.026-0.118-0.107-0.21-0.221-0.251c-0.039-0.013-0.078-0.02-0.118-0.02c-0.076,0-0.149,0.025-0.211,0.074L19.58,3.7
		c-0.009,0.007-0.015,0.007-0.017,0.007c-0.003,0-0.006,0-0.011-0.002c-0.012-0.003-0.017-0.008-0.021-0.02l-0.266-0.764
		c-0.04-0.114-0.13-0.195-0.248-0.223c-0.026-0.006-0.054-0.01-0.081-0.01c-0.09,0-0.175,0.036-0.24,0.101l-0.576,0.568
		c-0.009,0.008-0.015,0.009-0.02,0.009c-0.002,0-0.004,0-0.007-0.001c-0.012-0.002-0.018-0.006-0.023-0.017L17.72,2.621
		c-0.053-0.109-0.151-0.179-0.272-0.193c-0.014-0.002-0.028-0.003-0.041-0.003c-0.104,0-0.202,0.047-0.268,0.13l-0.506,0.63
		c-0.008,0.01-0.015,0.012-0.024,0.012c-0.001,0-0.002,0-0.003,0c-0.012-0.001-0.018-0.005-0.025-0.015l-0.432-0.684
		C16.085,2.396,15.978,2.337,15.857,2.337L15.857,2.337z M15.857,27.602c-3.021,0-5.862-1.177-7.998-3.313s-3.313-4.976-3.313-7.998
		c0-3.021,1.177-5.861,3.313-7.997c2.136-2.137,4.977-3.313,7.998-3.313c3.021,0,5.862,1.177,7.998,3.313s3.313,4.977,3.313,7.997
		c0,3.021-1.177,5.861-3.313,7.998S18.878,27.602,15.857,27.602L15.857,27.602z"/>
</g>
<g id="Shape_10_copy">
	<g>
		<circle fill-rule="evenodd" clip-rule="evenodd" fill="#CFCCCC" cx="15.882" cy="16.224" r="12.215"/>
	</g>
</g>
<g id="Shape_10_copy_2_">
	<g>
		<circle fill-rule="evenodd" clip-rule="evenodd" fill="#919191" cx="15.882" cy="16.223" r="12.087"/>
	</g>
</g>
<g id="Shape_10_copy_4_">
	<g>
		<circle fill-rule="evenodd" clip-rule="evenodd" fill="#CFCCCC" cx="15.882" cy="16.224" r="11.48"/>
	</g>
</g>
<g id="Shape_10_copy_4">
	<g>
		<circle fill-rule="evenodd" clip-rule="evenodd" fill="#140F21" cx="15.882" cy="16.223" r="11.341"/>
	</g>
</g>
<g id="Shape_10_copy_4_2_">
	<g>
		<circle fill-rule="evenodd" clip-rule="evenodd" fill="#1D536C" cx="15.882" cy="16.223" r="11.026"/>
	</g>
</g>
<g>
	<path fill="#EDE730" d="M12.818,16.058c0.002-0.544,0.152-1.052,0.411-1.487c0.259-0.437,0.627-0.8,1.067-1.052l0,0
		c0,0,0,0,0-0.001c0.003-0.001,0.006-0.003,0.009-0.005c0.002-0.003,0.006-0.005,0.008-0.006c0.003-0.003,0.005-0.006,0.007-0.009
		c0.002-0.002,0.005-0.005,0.007-0.008c0.002-0.003,0.004-0.006,0.006-0.01c0.001-0.002,0.003-0.004,0.004-0.007
		c0.002-0.004,0.003-0.008,0.004-0.012c0.001-0.003,0.002-0.005,0.003-0.008c0.001-0.004,0.002-0.008,0.002-0.013
		c0-0.003,0.001-0.004,0.001-0.007c0-0.005,0-0.01,0-0.015c0-0.002,0-0.004,0-0.006c0-0.006-0.001-0.011-0.003-0.016
		c0-0.001-0.001-0.003-0.001-0.005c-0.002-0.005-0.004-0.01-0.007-0.015c0-0.002-0.001-0.003-0.001-0.005h0l0,0l0,0l-3.574-6.19
		c-0.014-0.023-0.037-0.042-0.064-0.05c-0.026-0.007-0.056-0.002-0.08,0.011c-1.542,0.89-2.831,2.168-3.735,3.699
		C5.979,12.376,5.46,14.162,5.46,16.07c0,0.028,0.011,0.055,0.031,0.074c0.02,0.021,0.046,0.031,0.074,0.031l7.147-0.014
		C12.771,16.162,12.818,16.115,12.818,16.058z M13.924,14.975c-0.199,0.333-0.302,0.715-0.302,1.099c0,0.119,0.01,0.239,0.03,0.357
		c0.083,0.486,0.337,0.934,0.71,1.256c0.378,0.327,0.865,0.513,1.365,0.52l0,0c0.01,0,0.02,0,0.031,0c0.501,0,0.991-0.178,1.375-0.5
		c0.377-0.316,0.637-0.761,0.727-1.245c0.023-0.129,0.036-0.259,0.036-0.388c0-0.374-0.098-0.747-0.287-1.073
		c-0.245-0.424-0.634-0.755-1.092-0.929c-0.243-0.092-0.5-0.138-0.758-0.138c-0.248,0-0.496,0.042-0.73,0.128
		C14.568,14.229,14.175,14.555,13.924,14.975z M20.073,23.338l0.873,1.507c0.014,0.024,0.018,0.053,0.011,0.08
		s-0.025,0.05-0.049,0.064c-1.621,0.936-3.393,1.382-5.14,1.382c-1.812,0-3.599-0.479-5.167-1.385
		c-0.024-0.015-0.042-0.037-0.049-0.063c-0.007-0.028-0.003-0.057,0.011-0.081l0.904-1.566L20.073,23.338z M18.288,20.258
		l-0.926-1.596c-0.029-0.051-0.093-0.067-0.144-0.039c-0.43,0.247-0.927,0.388-1.459,0.388c-0.539,0-1.043-0.146-1.478-0.398
		c-0.024-0.015-0.053-0.019-0.08-0.011c-0.027,0.007-0.05,0.024-0.064,0.049l-0.934,1.617L18.288,20.258z M24.708,11.007
		c-0.875-1.55-2.162-2.893-3.814-3.846c-0.024-0.015-0.053-0.019-0.08-0.011c-0.027,0.008-0.05,0.024-0.064,0.05l-3.554,6.182
		c-0.029,0.05-0.012,0.114,0.039,0.145c0.438,0.254,0.804,0.618,1.062,1.056c0.257,0.436,0.404,0.944,0.404,1.488
		c0,0.001,0,0.009,0,0.02c0,0.028,0.011,0.055,0.031,0.074s0.047,0.031,0.075,0.031h7.134c0.028,0,0.055-0.012,0.075-0.031
		c0.02-0.02,0.031-0.046,0.031-0.074C26.044,14.31,25.582,12.556,24.708,11.007z"/>
	<path fill="#1F4654" d="M10.67,7.131c0.009,0,0.018,0.001,0.027,0.003c0.027,0.008,0.05,0.026,0.064,0.05l3.574,6.19l0,0l0,0h0
		c0,0.002,0.001,0.003,0.001,0.005c0.002,0.005,0.005,0.01,0.007,0.015c0,0.002,0.001,0.004,0.001,0.005
		c0.001,0.005,0.002,0.01,0.003,0.016c0,0.002,0,0.004,0,0.006c0,0.005,0,0.01,0,0.015c0,0.003-0.001,0.004-0.001,0.007
		c0,0.005-0.001,0.009-0.002,0.013c-0.001,0.003-0.002,0.005-0.003,0.008c-0.001,0.004-0.002,0.008-0.004,0.012
		c-0.001,0.003-0.003,0.005-0.004,0.007c-0.002,0.004-0.004,0.007-0.006,0.01c-0.002,0.003-0.005,0.006-0.007,0.008
		c-0.002,0.003-0.004,0.006-0.007,0.009c-0.002,0.001-0.006,0.003-0.008,0.006c-0.003,0.002-0.006,0.004-0.009,0.005
		c0,0.001,0,0.001,0,0.001l0,0c-0.44,0.252-0.809,0.615-1.067,1.052c-0.259,0.436-0.409,0.943-0.411,1.487
		c0,0.058-0.048,0.104-0.106,0.104l-7.147,0.014l0,0c-0.028,0-0.055-0.012-0.074-0.031c-0.02-0.02-0.031-0.046-0.031-0.074
		c0-1.908,0.519-3.694,1.422-5.227c0.904-1.531,2.193-2.81,3.735-3.699C10.633,7.136,10.651,7.131,10.67,7.131 M20.841,7.146
		c0.018,0,0.037,0.005,0.053,0.015c1.652,0.953,2.939,2.296,3.814,3.846c0.875,1.549,1.336,3.303,1.336,5.083
		c0,0.028-0.011,0.055-0.031,0.074c-0.02,0.02-0.047,0.031-0.075,0.031h-7.134c-0.027,0-0.055-0.012-0.075-0.031
		s-0.031-0.046-0.031-0.074c0-0.011,0-0.019,0-0.02c0-0.544-0.147-1.053-0.404-1.488c-0.257-0.438-0.624-0.802-1.062-1.056
		c-0.05-0.03-0.067-0.095-0.039-0.145L20.749,7.2c0.014-0.025,0.037-0.042,0.064-0.05C20.823,7.148,20.832,7.146,20.841,7.146
		 M15.758,13.934c0.258,0,0.516,0.046,0.758,0.138c0.458,0.174,0.847,0.505,1.092,0.929c0.189,0.326,0.287,0.699,0.287,1.073
		c0,0.129-0.012,0.259-0.036,0.388c-0.09,0.484-0.35,0.929-0.727,1.245c-0.383,0.322-0.874,0.5-1.375,0.5c-0.011,0-0.021,0-0.031,0
		l0,0c-0.5-0.007-0.987-0.192-1.365-0.52c-0.373-0.322-0.627-0.77-0.71-1.256c-0.021-0.118-0.03-0.238-0.03-0.357
		c0-0.384,0.103-0.766,0.302-1.099c0.251-0.42,0.645-0.746,1.104-0.913C15.263,13.976,15.511,13.934,15.758,13.934 M14.228,18.598
		c0.019,0,0.037,0.005,0.053,0.015c0.435,0.253,0.939,0.398,1.478,0.398c0.532,0,1.029-0.141,1.459-0.388
		c0.017-0.009,0.035-0.014,0.052-0.014c0.037,0,0.072,0.019,0.092,0.053l0.926,1.596l-5.085,0.01l0.934-1.617
		c0.014-0.024,0.037-0.042,0.064-0.049C14.209,18.599,14.219,18.598,14.228,18.598 M11.466,23.275l8.607,0.063l0.873,1.507
		c0.014,0.024,0.018,0.053,0.011,0.08s-0.025,0.05-0.049,0.064c-1.621,0.936-3.393,1.382-5.14,1.382
		c-1.812,0-3.599-0.479-5.167-1.385c-0.024-0.015-0.042-0.037-0.049-0.063c-0.007-0.028-0.003-0.057,0.011-0.081L11.466,23.275
		 M10.67,6.966c-0.048,0-0.094,0.013-0.135,0.037c-1.564,0.902-2.875,2.202-3.793,3.758c-0.465,0.787-0.824,1.632-1.067,2.512
		c-0.251,0.907-0.378,1.849-0.378,2.798c0,0.071,0.029,0.14,0.08,0.19s0.119,0.079,0.19,0.079l0,0h0l7.147-0.014
		c0.148,0,0.269-0.12,0.27-0.269c0.002-0.495,0.136-0.98,0.388-1.403c0.242-0.407,0.585-0.747,0.994-0.985l0,0l0.015-0.009
		c0,0,0,0,0.001,0l0.017-0.01l0,0l0.033-0.019l0.005-0.015c0.002-0.003,0.005-0.005,0.006-0.008c0.004-0.004,0.01-0.01,0.017-0.019
		l0-0.001l0,0c0.007-0.01,0.012-0.019,0.016-0.023c0.002-0.005,0.007-0.012,0.012-0.021c0.005-0.011,0.008-0.021,0.011-0.026
		c0.002-0.004,0.005-0.012,0.007-0.022c0.004-0.012,0.005-0.022,0.006-0.029c0.001-0.005,0.002-0.012,0.003-0.02
		c0.001-0.015,0.001-0.025,0-0.033c0-0.006,0-0.012-0.001-0.02v-0.001l0,0c-0.002-0.014-0.004-0.024-0.007-0.034
		c0-0.005-0.002-0.011-0.005-0.019l0,0v-0.019l-0.017-0.024L14.45,13.21h-0.02l-3.527-6.108c-0.036-0.062-0.096-0.107-0.164-0.126
		C10.717,6.97,10.693,6.966,10.67,6.966L10.67,6.966z M20.841,6.982c-0.023,0-0.047,0.003-0.07,0.01
		c-0.069,0.019-0.128,0.063-0.164,0.126l-3.554,6.183c-0.074,0.127-0.029,0.293,0.099,0.367c0.413,0.239,0.76,0.585,1.002,0.997
		c0.25,0.424,0.381,0.909,0.381,1.403v0.001c0,0.003,0,0.011,0,0.021c0,0.07,0.029,0.141,0.079,0.19
		c0.05,0.051,0.119,0.079,0.19,0.079h7.134c0.071,0,0.141-0.029,0.191-0.079s0.079-0.12,0.079-0.19c0-1.806-0.47-3.592-1.358-5.164
		c-0.449-0.797-1.001-1.53-1.642-2.181c-0.66-0.671-1.411-1.251-2.233-1.727C20.935,6.995,20.888,6.982,20.841,6.982L20.841,6.982z
		 M15.758,13.77L15.758,13.77L15.758,13.77c-0.271,0-0.535,0.046-0.786,0.138c-0.496,0.18-0.918,0.529-1.19,0.983
		c-0.212,0.355-0.325,0.764-0.325,1.183c0,0.129,0.011,0.259,0.032,0.385c0.089,0.523,0.361,1.004,0.765,1.354
		c0.408,0.353,0.93,0.551,1.47,0.56h0.001h0c0.011,0,0.021,0,0.032,0c0.542,0,1.066-0.192,1.48-0.539
		c0.408-0.343,0.686-0.82,0.783-1.342c0.025-0.136,0.038-0.277,0.038-0.417c0-0.407-0.107-0.807-0.309-1.156
		c-0.265-0.457-0.683-0.813-1.175-1C16.315,13.819,16.041,13.77,15.758,13.77L15.758,13.77z M14.228,18.434
		c-0.023,0-0.047,0.003-0.069,0.009c-0.07,0.019-0.128,0.063-0.165,0.126l-0.933,1.616l-0.143,0.247h0.285l5.084-0.01h0.285
		l-0.143-0.246l-0.926-1.597c-0.048-0.082-0.138-0.134-0.234-0.134c-0.046,0-0.093,0.013-0.134,0.035
		c-0.418,0.239-0.894,0.366-1.378,0.366c-0.491,0-0.973-0.131-1.395-0.377C14.322,18.446,14.275,18.434,14.228,18.434L14.228,18.434
		z M11.372,23.11l-0.048,0.083L10.42,24.76c-0.036,0.062-0.045,0.136-0.027,0.205c0.019,0.068,0.064,0.128,0.126,0.163
		c1.594,0.921,3.409,1.407,5.25,1.407c0.898,0,1.793-0.116,2.659-0.346c0.894-0.236,1.755-0.592,2.563-1.059
		c0.063-0.036,0.107-0.094,0.125-0.164c0.019-0.069,0.009-0.142-0.027-0.205l-0.874-1.506l-0.047-0.081l-0.093-0.001l-8.607-0.063
		L11.372,23.11L11.372,23.11z"/>
</g>
<g>
	<g>
		<path fill="#1D536C" d="M22.25,13.139h-0.48v-0.341h0.345c0.237,0,0.429-0.192,0.429-0.428v-1.037
			c0-0.236-0.192-0.429-0.429-0.429h-0.345v-0.176h0.398c0.237,0,0.429-0.191,0.429-0.429V9.21c0-0.237-0.192-0.429-0.429-0.429
			h-2.064c-0.112,0-0.214,0.044-0.291,0.114c-0.079-0.072-0.182-0.114-0.291-0.114h-1.162c-0.104,0-0.201,0.037-0.276,0.101
			c-0.074-0.063-0.171-0.101-0.275-0.101h-1.238c-0.174,0-0.323,0.104-0.391,0.252c-0.067-0.148-0.216-0.252-0.39-0.252H14.55
			c-0.063,0-0.124,0.015-0.178,0.039c-0.054-0.024-0.114-0.039-0.177-0.039h-1.238c-0.174,0-0.323,0.104-0.391,0.252
			c-0.067-0.148-0.216-0.252-0.39-0.252h-1.035c-0.143,0-0.27,0.07-0.348,0.178c-0.078-0.109-0.206-0.178-0.347-0.178H9.411
			c-0.237,0-0.429,0.191-0.429,0.429v5.447c0,0.237,0.192,0.429,0.429,0.429h1.035c0.128,0,0.244-0.057,0.322-0.146
			c0.079,0.091,0.195,0.146,0.322,0.146h1.085c0.237,0,0.429-0.191,0.429-0.429v-0.723c0.043,0.167,0.113,0.328,0.209,0.482
			c0.15,0.24,0.373,0.435,0.662,0.577c0.276,0.137,0.593,0.206,0.943,0.206c0.32,0,0.608-0.06,0.854-0.178
			c0.26-0.126,0.472-0.312,0.63-0.552c0.112-0.171,0.191-0.342,0.238-0.514v0.7c0,0.237,0.192,0.429,0.429,0.429h1.238
			c0.094,0,0.18-0.03,0.251-0.081c0.07,0.051,0.157,0.081,0.25,0.081h1.28c0.094,0,0.183-0.031,0.256-0.086
			c0.072,0.054,0.162,0.086,0.258,0.086h2.147c0.237,0,0.429-0.191,0.429-0.429v-1.09C22.678,13.33,22.486,13.139,22.25,13.139z
			 M12.176,14.657H11.09l-0.644-2.477v2.477H9.411V9.21h1.035l0.694,2.453V9.21h1.035V14.657z M15.789,12.851
			c0,0.412-0.012,0.703-0.036,0.87s-0.093,0.338-0.208,0.515c-0.116,0.176-0.268,0.309-0.458,0.4
			c-0.189,0.091-0.412,0.136-0.669,0.136c-0.285,0-0.536-0.054-0.753-0.161c-0.218-0.107-0.38-0.248-0.488-0.421
			c-0.107-0.173-0.171-0.354-0.191-0.546c-0.02-0.192-0.029-0.596-0.029-1.21V9.21h1.238v4.085c0,0.237,0.011,0.39,0.034,0.456
			c0.022,0.066,0.068,0.099,0.137,0.099c0.078,0,0.129-0.036,0.151-0.108c0.022-0.073,0.034-0.245,0.034-0.518V9.21h1.238V12.851z
			 M18.309,14.657l-0.501-2.335v2.335h-1.238V9.21h1.238v2.116l0.551-2.116h1.162l-0.71,2.459l0.778,2.988H18.309z M22.25,14.657
			h-2.147V9.21h2.064v1.09h-0.826v1.033h0.773v1.037h-0.773v1.197h0.909V14.657z"/>
		<polygon fill="#F0EFEF" points="11.141,11.663 10.446,9.21 9.411,9.21 9.411,14.657 10.446,14.657 10.446,12.181 11.09,14.657 
			12.176,14.657 12.176,9.21 11.141,9.21 		"/>
	</g>
	<g>
		<path fill="#F0EFEF" d="M14.55,13.224c0,0.272-0.011,0.444-0.034,0.518c-0.022,0.072-0.073,0.108-0.151,0.108
			c-0.069,0-0.115-0.032-0.137-0.099c-0.023-0.066-0.034-0.219-0.034-0.456V9.21h-1.238v3.224c0,0.614,0.01,1.018,0.029,1.21
			c0.02,0.191,0.083,0.373,0.191,0.546c0.108,0.173,0.271,0.313,0.488,0.421c0.217,0.107,0.468,0.161,0.753,0.161
			c0.257,0,0.48-0.045,0.669-0.136c0.189-0.092,0.342-0.225,0.458-0.4c0.115-0.177,0.185-0.348,0.208-0.515s0.036-0.458,0.036-0.87
			V9.21H14.55V13.224z"/>
	</g>
	<g>
		<polygon fill="#F0EFEF" points="19.521,9.21 18.359,9.21 17.808,11.326 17.808,9.21 16.569,9.21 16.569,14.657 17.808,14.657 
			17.808,12.322 18.309,14.657 19.588,14.657 18.811,11.669 		"/>
	</g>
	<g>
		<polygon fill="#F0EFEF" points="21.341,13.567 21.341,12.37 22.114,12.37 22.114,11.333 21.341,11.333 21.341,10.3 22.167,10.3 
			22.167,9.21 20.103,9.21 20.103,14.657 22.25,14.657 22.25,13.567 		"/>
	</g>
</g>
<g>
	<g>
		<circle fill-rule="evenodd" clip-rule="evenodd" fill="#010101" cx="8.699" cy="21.521" r="0.107"/>
		<path fill="#1D4654" d="M8.699,21.771c-0.138,0-0.25-0.111-0.25-0.249c0-0.139,0.112-0.251,0.25-0.251
			c0.138,0,0.25,0.112,0.25,0.251C8.949,21.659,8.837,21.771,8.699,21.771z M8.699,21.486c-0.02,0-0.036,0.016-0.036,0.035
			c0,0.019,0.016,0.034,0.036,0.034s0.035-0.016,0.035-0.034C8.734,21.502,8.719,21.486,8.699,21.486z"/>
	</g>
	<g>
		<path fill="#010101" d="M10.958,21.1c-0.188,0-0.346,0.058-0.474,0.172c-0.128,0.115-0.207,0.263-0.238,0.441
			c-0.033,0.193-0.002,0.343,0.091,0.452c0.093,0.108,0.23,0.163,0.409,0.163c0.146,0,0.276-0.037,0.39-0.111
			c0.113-0.074,0.192-0.183,0.236-0.325l-0.304-0.017c-0.055,0.149-0.147,0.226-0.279,0.226c-0.081,0-0.139-0.027-0.175-0.08
			c-0.036-0.054-0.041-0.154-0.016-0.305c0.044-0.259,0.149-0.388,0.314-0.388c0.145,0,0.205,0.084,0.181,0.252l0.335-0.019
			C11.439,21.254,11.282,21.1,10.958,21.1L10.958,21.1z"/>
		<path fill="#1D4654" d="M10.746,22.472c-0.222,0-0.396-0.072-0.517-0.213c-0.122-0.143-0.164-0.334-0.124-0.569
			c0.036-0.212,0.131-0.388,0.283-0.524c0.154-0.139,0.346-0.208,0.569-0.208c0.207,0,0.365,0.056,0.471,0.166
			c0.102,0.104,0.149,0.255,0.143,0.443c-0.003,0.074-0.062,0.134-0.135,0.138l-0.335,0.019c-0.043,0.002-0.084-0.015-0.113-0.046
			c-0.029-0.032-0.042-0.074-0.036-0.117c0.008-0.055,0.001-0.078-0.001-0.084c-0.005-0.002-0.017-0.005-0.038-0.005
			c-0.031,0-0.128,0-0.173,0.27c-0.026,0.149-0.009,0.196-0.006,0.201c0.003,0.005,0.014,0.016,0.056,0.016
			c0.034,0,0.097,0,0.145-0.131c0.021-0.059,0.079-0.097,0.142-0.094l0.305,0.017c0.043,0.002,0.084,0.025,0.109,0.061
			c0.025,0.037,0.033,0.082,0.019,0.125c-0.054,0.174-0.153,0.31-0.294,0.402C11.077,22.426,10.92,22.472,10.746,22.472z
			 M10.55,21.405c-0.087,0.089-0.141,0.198-0.164,0.332c-0.025,0.15-0.006,0.259,0.059,0.335c0.022,0.025,0.047,0.046,0.077,0.063
			c-0.01-0.012-0.019-0.022-0.027-0.034c-0.059-0.087-0.07-0.217-0.038-0.409C10.477,21.576,10.507,21.481,10.55,21.405z
			 M11.154,21.275c0.004,0.004,0.008,0.008,0.011,0.012c0.034,0.039,0.056,0.087,0.067,0.142l0.042-0.002
			c-0.01-0.045-0.028-0.08-0.053-0.106C11.205,21.302,11.182,21.287,11.154,21.275z"/>
	</g>
	<g>
		<polygon fill="#010101" points="12.754,21.118 11.787,21.118 11.584,22.31 12.551,22.31 12.591,22.074 11.947,22.074 
			11.991,21.814 12.498,21.814 12.536,21.59 12.029,21.59 12.071,21.345 12.715,21.345 		"/>
		<path fill="#1D4654" d="M12.551,22.453h-0.966c-0.042,0-0.082-0.019-0.109-0.051c-0.027-0.032-0.039-0.074-0.031-0.116
			l0.203-1.191c0.012-0.068,0.071-0.119,0.141-0.119h0.967c0.042,0,0.082,0.019,0.109,0.051c0.027,0.031,0.039,0.074,0.031,0.116
			l-0.039,0.226c-0.011,0.069-0.071,0.119-0.141,0.119h-0.079c0.003,0.004,0.006,0.007,0.009,0.01
			c0.027,0.032,0.039,0.075,0.032,0.116l-0.038,0.226c-0.007,0.038-0.029,0.071-0.06,0.093h0.012c0.042,0,0.082,0.019,0.109,0.051
			s0.039,0.074,0.032,0.116l-0.04,0.235C12.68,22.402,12.621,22.453,12.551,22.453z M11.753,22.167h0.085c0,0,0,0,0-0.001
			c-0.027-0.032-0.039-0.074-0.032-0.115l0.044-0.261c0.007-0.045,0.036-0.082,0.075-0.103c-0.001-0.002-0.003-0.004-0.005-0.006
			c-0.027-0.032-0.039-0.074-0.031-0.116l0.042-0.245c0.003-0.021,0.013-0.042,0.025-0.06h-0.047L11.753,22.167z"/>
	</g>
	<g>
		<path fill="#010101" d="M14.014,21.374c-0.05-0.089-0.113-0.153-0.189-0.194c-0.075-0.041-0.198-0.062-0.366-0.062h-0.413
			l-0.203,1.191h0.465c0.201,0,0.368-0.057,0.501-0.171c0.134-0.114,0.215-0.257,0.244-0.428
			C14.078,21.575,14.063,21.463,14.014,21.374z M13.729,21.704c-0.018,0.103-0.061,0.192-0.13,0.268
			c-0.069,0.076-0.161,0.113-0.276,0.113h-0.131l0.127-0.747h0.134c0.066,0,0.121,0.011,0.165,0.036
			c0.044,0.024,0.076,0.068,0.098,0.13C13.737,21.564,13.742,21.632,13.729,21.704z"/>
		<path fill="#1D4654" d="M13.309,22.453h-0.465c-0.042,0-0.083-0.019-0.109-0.051s-0.039-0.074-0.032-0.116l0.203-1.191
			c0.012-0.068,0.071-0.119,0.141-0.119h0.413c0.194,0,0.336,0.025,0.434,0.079c0.099,0.053,0.181,0.138,0.245,0.249
			c0.067,0.118,0.086,0.263,0.058,0.432c-0.035,0.203-0.133,0.376-0.292,0.512C13.744,22.384,13.543,22.453,13.309,22.453z
			 M13.012,22.167h0.063c-0.021-0.03-0.03-0.068-0.023-0.105l0.127-0.748c0.003-0.02,0.01-0.037,0.02-0.053h-0.033L13.012,22.167z
			 M13.764,21.31c0.037,0.039,0.066,0.088,0.086,0.146c0.03,0.085,0.037,0.176,0.02,0.272c-0.015,0.087-0.045,0.168-0.09,0.239
			c0.071-0.08,0.115-0.172,0.133-0.28c0.017-0.103,0.009-0.184-0.024-0.242C13.854,21.382,13.813,21.338,13.764,21.31z
			 M13.44,21.479l-0.078,0.461c0.055-0.006,0.098-0.027,0.132-0.064c0.05-0.057,0.082-0.12,0.095-0.195
			c0.008-0.049,0.005-0.091-0.008-0.13c-0.005-0.016-0.017-0.044-0.033-0.053c-0.021-0.012-0.053-0.019-0.094-0.019H13.44z"/>
	</g>
	<g>
		<path fill="#010101" d="M15.083,21.118h-0.367l-0.637,1.191h0.278l0.127-0.245h0.438l0.042,0.245h0.34L15.083,21.118z
			 M14.597,21.845l0.216-0.418l0.071,0.418H14.597z"/>
		<path fill="#1D4654" d="M15.303,22.453h-0.34c-0.07,0-0.129-0.051-0.141-0.119L14.8,22.208h-0.23l-0.086,0.168
			c-0.024,0.047-0.074,0.077-0.127,0.077h-0.278c-0.05,0-0.097-0.027-0.123-0.069c-0.025-0.044-0.027-0.097-0.003-0.142l0.637-1.191
			c0.025-0.046,0.073-0.075,0.126-0.075h0.367c0.068,0,0.128,0.049,0.141,0.116l0.22,1.192c0.008,0.042-0.003,0.084-0.03,0.117
			C15.386,22.435,15.346,22.453,15.303,22.453z M15.083,22.167h0.048l-0.167-0.906h-0.163l-0.013,0.024
			c0.015-0.003,0.031-0.003,0.046,0c0.061,0.01,0.109,0.057,0.119,0.117l0.071,0.418c0.007,0.042-0.005,0.085-0.032,0.116
			c-0.001,0.001-0.002,0.002-0.003,0.003c0.037,0.021,0.064,0.057,0.072,0.102L15.083,22.167z M14.463,21.895l-0.018,0.032
			c0.01-0.002,0.021-0.004,0.032-0.005c-0.001-0.001-0.002-0.002-0.002-0.003C14.47,21.911,14.466,21.902,14.463,21.895z"/>
	</g>
	<g>
		<path fill-rule="evenodd" clip-rule="evenodd" fill="#010101" d="M16.751,21.275c-0.034-0.061-0.082-0.102-0.145-0.123
			c-0.063-0.023-0.148-0.034-0.258-0.034h-0.595l-0.202,1.191h0.318l0.081-0.472h0.227l0.127,0.472h0.35l-0.16-0.526
			c0.167-0.063,0.263-0.165,0.288-0.308C16.795,21.401,16.784,21.335,16.751,21.275z M16.455,21.477
			c-0.006,0.035-0.022,0.066-0.05,0.094c-0.027,0.026-0.055,0.044-0.085,0.053c-0.03,0.008-0.077,0.011-0.141,0.011h-0.194
			l0.051-0.304h0.188c0.073,0,0.122,0.003,0.147,0.009c0.025,0.007,0.047,0.022,0.065,0.049S16.46,21.444,16.455,21.477z"/>
		<path fill="#1D4654" d="M16.655,22.453h-0.35c-0.064,0-0.121-0.044-0.138-0.105l-0.097-0.361l-0.059,0.348
			c-0.012,0.068-0.072,0.119-0.142,0.119h-0.318c-0.042,0-0.082-0.019-0.109-0.051s-0.039-0.074-0.032-0.116l0.204-1.191
			c0.012-0.068,0.071-0.119,0.14-0.119h0.595c0.127,0,0.228,0.013,0.307,0.041c0.096,0.035,0.17,0.098,0.221,0.188
			c0.05,0.089,0.065,0.188,0.047,0.294c-0.019,0.112-0.08,0.257-0.256,0.359l0.125,0.41c0.013,0.043,0.005,0.09-0.022,0.127
			C16.743,22.432,16.7,22.453,16.655,22.453z M16.414,22.167h0.048l-0.104-0.343c-0.006-0.021-0.008-0.043-0.004-0.063
			c-0.015,0.004-0.032,0.008-0.05,0.01c0.005,0.01,0.009,0.02,0.012,0.029L16.414,22.167z M15.719,22.167h0.03l0.06-0.354
			c0.007-0.04,0.03-0.072,0.061-0.094c-0.023-0.031-0.033-0.071-0.026-0.109l0.052-0.304c0.003-0.017,0.009-0.032,0.016-0.046
			h-0.038L15.719,22.167z M16.531,21.278c0.008,0.009,0.016,0.018,0.023,0.028c0.04,0.058,0.054,0.124,0.042,0.194
			c-0.004,0.026-0.012,0.052-0.023,0.075c0.048-0.043,0.063-0.09,0.069-0.125c0.007-0.042,0.002-0.075-0.016-0.106
			c-0.017-0.03-0.037-0.048-0.067-0.059C16.551,21.283,16.542,21.28,16.531,21.278z M16.154,21.491h0.025
			c0.072,0,0.098-0.005,0.104-0.007c0.003-0.001,0.008-0.004,0.015-0.01c-0.017-0.001-0.042-0.002-0.075-0.002h-0.066L16.154,21.491
			z"/>
	</g>
	<g>
		<path fill="#010101" d="M18.344,21.1c-0.188,0-0.345,0.058-0.473,0.172c-0.128,0.115-0.208,0.263-0.238,0.441
			c-0.032,0.193-0.002,0.343,0.092,0.452c0.093,0.108,0.229,0.163,0.409,0.163c0.146,0,0.276-0.037,0.389-0.111
			c0.114-0.074,0.192-0.183,0.236-0.325l-0.304-0.017c-0.055,0.149-0.148,0.226-0.279,0.226c-0.081,0-0.14-0.027-0.176-0.08
			c-0.036-0.054-0.041-0.154-0.015-0.305c0.044-0.259,0.148-0.388,0.314-0.388c0.145,0,0.205,0.084,0.181,0.252l0.335-0.019
			C18.826,21.254,18.669,21.1,18.344,21.1L18.344,21.1z"/>
		<path fill="#1D4654" d="M18.133,22.472c-0.222,0-0.396-0.072-0.518-0.213c-0.122-0.143-0.164-0.334-0.124-0.569
			c0.036-0.212,0.131-0.388,0.283-0.524c0.155-0.139,0.346-0.208,0.569-0.208c0.207,0,0.365,0.056,0.471,0.166
			c0.102,0.104,0.149,0.255,0.143,0.443c-0.003,0.074-0.061,0.134-0.135,0.138l-0.335,0.019c-0.043,0.002-0.084-0.015-0.113-0.046
			c-0.029-0.032-0.042-0.074-0.036-0.117c0.008-0.055,0.001-0.078-0.001-0.084c-0.005-0.002-0.017-0.005-0.039-0.005
			c-0.031,0-0.127,0-0.173,0.27c-0.026,0.149-0.008,0.196-0.006,0.201c0.004,0.005,0.014,0.016,0.057,0.016
			c0.034,0,0.097,0,0.144-0.131c0.022-0.059,0.08-0.097,0.142-0.094l0.305,0.017c0.044,0.002,0.084,0.025,0.109,0.061
			c0.025,0.037,0.032,0.082,0.02,0.125c-0.054,0.174-0.153,0.31-0.295,0.402C18.464,22.426,18.307,22.472,18.133,22.472z
			 M17.937,21.405c-0.087,0.089-0.141,0.198-0.164,0.332c-0.025,0.15-0.006,0.259,0.059,0.335c0.022,0.025,0.047,0.046,0.077,0.063
			c-0.011-0.012-0.02-0.022-0.027-0.034c-0.059-0.087-0.071-0.217-0.039-0.409C17.863,21.576,17.894,21.481,17.937,21.405z
			 M18.541,21.275c0.004,0.004,0.007,0.008,0.011,0.012c0.034,0.039,0.056,0.087,0.067,0.142l0.042-0.002
			c-0.01-0.045-0.028-0.08-0.053-0.106C18.591,21.302,18.568,21.287,18.541,21.275z"/>
	</g>
	<g>
		<path fill="#010101" d="M20.171,21.275c-0.033-0.061-0.082-0.102-0.144-0.123c-0.063-0.023-0.148-0.034-0.259-0.034h-0.595
			l-0.203,1.191h0.319l0.08-0.472h0.227l0.127,0.472h0.35l-0.16-0.526c0.167-0.063,0.263-0.165,0.287-0.308
			C20.215,21.401,20.205,21.335,20.171,21.275z M19.875,21.477c-0.006,0.035-0.022,0.066-0.049,0.094
			c-0.027,0.026-0.056,0.044-0.085,0.053c-0.03,0.008-0.077,0.011-0.141,0.011h-0.194l0.052-0.304h0.188
			c0.073,0,0.122,0.003,0.147,0.009c0.025,0.007,0.047,0.022,0.065,0.049C19.875,21.414,19.881,21.444,19.875,21.477z"/>
		<path fill="#1D4654" d="M20.075,22.453h-0.35c-0.064,0-0.121-0.044-0.138-0.105l-0.097-0.361l-0.059,0.348
			c-0.012,0.068-0.071,0.119-0.141,0.119h-0.319c-0.042,0-0.082-0.019-0.109-0.051c-0.027-0.032-0.039-0.074-0.032-0.116
			l0.203-1.191c0.012-0.068,0.071-0.119,0.141-0.119h0.595c0.128,0,0.228,0.013,0.307,0.041c0.096,0.035,0.17,0.098,0.221,0.188
			c0.05,0.089,0.066,0.188,0.048,0.294c-0.02,0.112-0.081,0.257-0.256,0.359l0.124,0.41c0.013,0.043,0.005,0.09-0.021,0.127
			C20.163,22.432,20.121,22.453,20.075,22.453z M19.835,22.167h0.048l-0.104-0.343c-0.007-0.021-0.008-0.043-0.004-0.063
			c-0.015,0.004-0.032,0.008-0.051,0.01c0.005,0.01,0.009,0.02,0.012,0.029L19.835,22.167z M19.14,22.167h0.03l0.06-0.354
			c0.007-0.04,0.029-0.072,0.061-0.094c-0.023-0.031-0.033-0.071-0.026-0.109l0.052-0.304c0.003-0.017,0.008-0.032,0.016-0.046
			h-0.038L19.14,22.167z M19.952,21.278c0.008,0.009,0.015,0.018,0.022,0.028c0.04,0.058,0.054,0.124,0.042,0.194
			c-0.004,0.026-0.012,0.052-0.023,0.075c0.048-0.043,0.063-0.09,0.069-0.125c0.007-0.042,0.002-0.075-0.016-0.106
			c-0.016-0.03-0.037-0.048-0.067-0.059C19.972,21.283,19.963,21.28,19.952,21.278z M19.575,21.491H19.6
			c0.071,0,0.098-0.005,0.104-0.007c0.003-0.001,0.008-0.004,0.015-0.01c-0.017-0.001-0.041-0.002-0.074-0.002h-0.067L19.575,21.491
			z"/>
	</g>
	<g>
		<polygon fill="#010101" points="21.577,21.118 20.61,21.118 20.407,22.31 21.374,22.31 21.414,22.074 20.77,22.074 20.814,21.814 
			21.32,21.814 21.358,21.59 20.852,21.59 20.894,21.345 21.538,21.345 		"/>
		<path fill="#1D4654" d="M21.374,22.453h-0.966c-0.042,0-0.082-0.019-0.109-0.051s-0.039-0.074-0.032-0.116l0.203-1.191
			c0.012-0.068,0.071-0.119,0.141-0.119h0.967c0.042,0,0.082,0.019,0.109,0.051c0.027,0.031,0.039,0.074,0.032,0.116l-0.039,0.226
			c-0.012,0.069-0.071,0.119-0.141,0.119h-0.079c0.003,0.004,0.006,0.007,0.009,0.01c0.027,0.032,0.039,0.075,0.032,0.116
			l-0.039,0.226c-0.006,0.038-0.029,0.071-0.06,0.093h0.012c0.042,0,0.082,0.019,0.109,0.051c0.027,0.032,0.039,0.074,0.031,0.116
			l-0.04,0.235C21.503,22.402,21.443,22.453,21.374,22.453z M20.576,22.167h0.085c0,0,0,0-0.001-0.001
			c-0.027-0.032-0.039-0.074-0.032-0.115l0.044-0.261c0.008-0.045,0.036-0.082,0.075-0.103c-0.001-0.002-0.003-0.004-0.005-0.006
			c-0.027-0.032-0.039-0.074-0.032-0.116l0.042-0.245c0.004-0.021,0.013-0.042,0.026-0.06H20.73L20.576,22.167z"/>
	</g>
	<g>
		<polygon fill="#010101" points="22.835,21.118 21.868,21.118 21.666,22.31 22.632,22.31 22.672,22.074 22.028,22.074 
			22.072,21.814 22.579,21.814 22.617,21.59 22.11,21.59 22.152,21.345 22.797,21.345 		"/>
		<path fill="#1D4654" d="M22.632,22.453h-0.967c-0.042,0-0.082-0.019-0.109-0.051c-0.027-0.032-0.039-0.074-0.032-0.116
			l0.203-1.191c0.012-0.068,0.071-0.119,0.141-0.119h0.967c0.042,0,0.082,0.019,0.109,0.051c0.027,0.031,0.039,0.074,0.032,0.116
			l-0.039,0.226c-0.012,0.069-0.072,0.119-0.141,0.119h-0.08c0.003,0.004,0.006,0.007,0.009,0.01
			c0.027,0.032,0.039,0.075,0.032,0.116l-0.039,0.226c-0.006,0.038-0.028,0.071-0.059,0.093h0.012c0.042,0,0.082,0.019,0.109,0.051
			c0.027,0.032,0.039,0.074,0.031,0.116l-0.041,0.235C22.761,22.402,22.702,22.453,22.632,22.453z M21.834,22.167h0.085
			c0,0,0,0,0-0.001c-0.027-0.032-0.039-0.074-0.032-0.115l0.044-0.261c0.008-0.045,0.037-0.082,0.075-0.103
			c-0.002-0.002-0.003-0.004-0.005-0.006c-0.027-0.032-0.039-0.074-0.031-0.116l0.042-0.245c0.004-0.021,0.013-0.042,0.025-0.06
			h-0.047L21.834,22.167z"/>
	</g>
	<g>
		<g>
			<polygon fill="#010101" points="23.127,21.118 22.924,22.31 23.235,22.31 23.282,22.036 23.513,21.792 23.695,22.31 
				24.044,22.31 23.769,21.544 24.166,21.118 23.863,21.118 23.343,21.679 23.438,21.118 			"/>
			<path fill="#1D4654" d="M24.044,22.453L24.044,22.453h-0.349c-0.061,0-0.115-0.038-0.135-0.096l-0.104-0.297l-0.041,0.042
				l-0.04,0.231c-0.011,0.068-0.071,0.119-0.141,0.119h-0.312c-0.042,0-0.082-0.019-0.109-0.051
				c-0.027-0.032-0.039-0.074-0.032-0.116l0.203-1.191c0.012-0.068,0.071-0.119,0.141-0.119h0.312c0.042,0,0.082,0.019,0.109,0.051
				c0.027,0.031,0.039,0.074,0.032,0.116l-0.015,0.088l0.194-0.21c0.027-0.028,0.065-0.045,0.105-0.045h0.303
				c0.057,0,0.108,0.033,0.131,0.086c0.022,0.052,0.013,0.112-0.026,0.153l-0.338,0.362l0.244,0.678
				c0.006,0.017,0.011,0.035,0.011,0.055C24.188,22.389,24.124,22.453,24.044,22.453z M23.796,22.167h0.045l-0.208-0.575
				c-0.001-0.005-0.002-0.009-0.004-0.014l-0.072,0.078c0.042,0.015,0.076,0.046,0.091,0.089L23.796,22.167z M23.093,22.167h0.021
				l0.026-0.154c0.004-0.027,0.018-0.054,0.037-0.074l0.119-0.125c-0.006-0.003-0.011-0.004-0.017-0.007
				c-0.057-0.028-0.088-0.09-0.078-0.153l0.067-0.393h-0.021L23.093,22.167z"/>
		</g>
	</g>
	<g>
		<path fill-rule="evenodd" clip-rule="evenodd" fill="#010101" d="M9.466,22.581c-0.271,0.245-0.976,0.266-1.419-0.273
			c0.012-0.131,0.049-0.223,0.097-0.324c0.021,0.04,0.064,0.103,0.09,0.133c0.114,0.137,0.569,0.668,1.165,0.353
			c0.2-0.105,0.293-0.419,0.34-0.551c0.01-0.028,0.021-0.023,0.021-0.001C9.75,22.048,9.725,22.347,9.466,22.581z"/>
		<path fill="#1D4654" d="M8.952,22.889c-0.389,0-0.759-0.179-1.016-0.491c-0.024-0.029-0.036-0.066-0.032-0.104
			c0.015-0.158,0.063-0.269,0.11-0.37c0.023-0.049,0.072-0.081,0.126-0.082c0.054-0.002,0.105,0.028,0.13,0.076
			C8.285,21.946,8.322,22,8.343,22.024c0.275,0.331,0.521,0.4,0.681,0.4c0.102,0,0.206-0.028,0.308-0.082
			c0.132-0.07,0.217-0.315,0.258-0.434c0.005-0.014,0.009-0.027,0.014-0.039c0.039-0.106,0.124-0.114,0.149-0.114
			c0.041,0,0.079,0.017,0.107,0.046c0.021,0.022,0.045,0.063,0.042,0.125c-0.007,0.118-0.03,0.479-0.339,0.76
			C9.42,22.815,9.197,22.889,8.952,22.889z"/>
	</g>
	<g>
		<path fill-rule="evenodd" clip-rule="evenodd" fill="#010101" d="M9.491,20.786c0.053,0.083,0.07,0.124,0.098,0.188
			c0.039,0.084,0.006,0.063-0.022,0.019c-0.042-0.065-0.076-0.108-0.15-0.19C9.44,20.794,9.469,20.788,9.491,20.786z"/>
		<path fill="#1D4654" d="M9.604,21.175c-0.09,0-0.141-0.08-0.157-0.105c-0.035-0.056-0.063-0.092-0.135-0.171
			c-0.032-0.036-0.044-0.085-0.032-0.131c0.011-0.046,0.045-0.084,0.09-0.1c0.033-0.012,0.073-0.021,0.108-0.024
			c0.054-0.005,0.106,0.02,0.135,0.066c0.053,0.083,0.074,0.131,0.099,0.188l0.008,0.019c0.019,0.041,0.054,0.119,0.006,0.192
			C9.699,21.15,9.653,21.175,9.604,21.175z"/>
	</g>
	<g>
		<path fill="#010101" d="M9.28,20.478c-0.342-0.368-0.918-0.34-1.259-0.094c-0.348,0.25-0.513,0.711-0.313,1.293
			c0.053-0.122,0.143-0.299,0.266-0.451c-0.015-0.252,0.021-0.372,0.121-0.514c0.26-0.365,0.707-0.404,0.99-0.199
			C9.153,20.494,9.247,20.483,9.28,20.478z"/>
		<path fill="#1D4654" d="M7.708,21.819c-0.002,0-0.004,0-0.005,0c-0.059-0.002-0.111-0.04-0.13-0.097
			c-0.105-0.306-0.122-0.594-0.051-0.854c0.067-0.245,0.21-0.453,0.416-0.601c0.186-0.134,0.432-0.212,0.676-0.212
			c0.304,0,0.578,0.116,0.771,0.323c0.037,0.039,0.048,0.096,0.03,0.146s-0.061,0.086-0.113,0.094
			c-0.006,0.001-0.014,0.002-0.023,0.004c-0.038,0.005-0.108,0.015-0.156,0.027c-0.042,0.012-0.086,0.003-0.122-0.022
			c-0.085-0.063-0.194-0.097-0.305-0.097c-0.189,0-0.366,0.096-0.484,0.264c-0.077,0.107-0.109,0.194-0.095,0.422
			c0.002,0.036-0.009,0.071-0.031,0.099c-0.125,0.154-0.208,0.328-0.246,0.418C7.817,21.786,7.765,21.819,7.708,21.819z
			 M8.043,20.548c-0.202,0.176-0.296,0.427-0.276,0.721c0.02-0.029,0.04-0.059,0.062-0.088c-0.008-0.239,0.033-0.388,0.15-0.552
			C8,20.601,8.021,20.574,8.043,20.548z"/>
	</g>
	<g>
		<path fill-rule="evenodd" clip-rule="evenodd" fill="#010101" d="M8.926,22.494c0.072-0.05,0.108-0.091,0.165-0.131
			c0.038-0.027,0.051-0.059-0.019-0.011c-0.063,0.044-0.11,0.078-0.193,0.123C8.891,22.483,8.912,22.492,8.926,22.494z"/>
		<path fill="#1D4654" d="M8.926,22.637c-0.006,0-0.012,0-0.018-0.001c-0.045-0.005-0.089-0.028-0.113-0.046
			c-0.04-0.028-0.061-0.075-0.058-0.125c0.004-0.049,0.032-0.093,0.075-0.116c0.066-0.035,0.106-0.063,0.157-0.099l0.022-0.015
			c0.044-0.03,0.083-0.051,0.128-0.051c0.064,0,0.12,0.041,0.139,0.102c0.013,0.041,0.02,0.12-0.084,0.193
			c-0.021,0.016-0.039,0.03-0.06,0.048c-0.029,0.025-0.061,0.053-0.107,0.085C8.983,22.628,8.955,22.637,8.926,22.637z"/>
	</g>
	<g>
		<path fill-rule="evenodd" clip-rule="evenodd" fill="#010101" d="M9.821,20.665c-0.241-0.282-1.185-0.117-1.694,0.53
			c-0.51,0.646-0.628,1.273-0.229,1.555c0.192,0.136,0.413,0.106,0.652-0.01c-0.044-0.021-0.089-0.031-0.148-0.067
			c-0.185,0.045-0.289,0.015-0.386-0.146c-0.197-0.322,0.179-0.907,0.451-1.187c0.185-0.188,0.96-0.816,1.32-0.58
			c0.118,0.077,0.13,0.245,0.113,0.387c-0.012,0.092,0,0.092,0.021,0.005C9.957,21.007,9.948,20.813,9.821,20.665z"/>
		<path fill="#1D4654" d="M8.181,22.983c-0.134,0-0.257-0.039-0.365-0.116c-0.161-0.113-0.262-0.278-0.291-0.479
			c-0.052-0.359,0.121-0.814,0.489-1.282c0.176-0.224,0.413-0.41,0.685-0.539c0.242-0.114,0.5-0.178,0.726-0.178
			c0.228,0,0.402,0.063,0.504,0.183c0.137,0.16,0.186,0.39,0.13,0.613c-0.006,0.026-0.012,0.047-0.018,0.063
			c-0.037,0.1-0.112,0.11-0.144,0.11l0,0c-0.041,0-0.08-0.019-0.108-0.049c-0.048-0.055-0.04-0.121-0.032-0.181
			c0.016-0.126-0.003-0.22-0.049-0.251c-0.03-0.02-0.067-0.028-0.115-0.028c-0.32,0-0.856,0.417-1.025,0.59
			c-0.114,0.117-0.272,0.32-0.374,0.537c-0.097,0.208-0.117,0.377-0.057,0.476c0.055,0.09,0.089,0.096,0.131,0.096
			c0.027,0,0.06-0.005,0.101-0.015c0.036-0.009,0.074-0.002,0.106,0.017c0.026,0.015,0.048,0.024,0.075,0.034
			c0.021,0.008,0.041,0.017,0.064,0.027c0.049,0.025,0.079,0.075,0.079,0.129c0,0.055-0.032,0.104-0.08,0.128
			C8.454,22.945,8.313,22.983,8.181,22.983z M9.036,20.741c-0.277,0.088-0.578,0.266-0.797,0.542
			c-0.314,0.399-0.471,0.787-0.431,1.064c0.005,0.032,0.013,0.063,0.023,0.093c-0.034-0.163,0.001-0.361,0.105-0.583
			c0.099-0.213,0.259-0.442,0.429-0.616c0.093-0.096,0.289-0.26,0.5-0.396C8.923,20.807,8.98,20.771,9.036,20.741z"/>
	</g>
</g>
<g>
	<g>
		<circle fill-rule="evenodd" clip-rule="evenodd" fill="#C52A29" cx="8.699" cy="21.521" r="0.107"/>
	</g>
	<path fill="#C52A29" d="M10.958,21.1c-0.188,0-0.346,0.058-0.474,0.172c-0.128,0.115-0.207,0.263-0.238,0.441
		c-0.033,0.193-0.002,0.343,0.091,0.452c0.093,0.108,0.23,0.163,0.409,0.163c0.146,0,0.276-0.037,0.39-0.111
		c0.113-0.074,0.192-0.183,0.236-0.325l-0.304-0.017c-0.055,0.149-0.147,0.226-0.279,0.226c-0.081,0-0.139-0.027-0.175-0.08
		c-0.036-0.054-0.041-0.154-0.016-0.305c0.044-0.259,0.149-0.388,0.314-0.388c0.145,0,0.205,0.084,0.181,0.252l0.335-0.019
		C11.439,21.254,11.282,21.1,10.958,21.1L10.958,21.1z"/>
	<polygon fill="#C52A29" points="12.754,21.118 11.787,21.118 11.584,22.31 12.551,22.31 12.591,22.074 11.947,22.074 
		11.991,21.814 12.498,21.814 12.536,21.59 12.029,21.59 12.071,21.345 12.715,21.345 	"/>
	<path fill="#C52A29" d="M14.014,21.374c-0.05-0.089-0.113-0.153-0.189-0.194c-0.075-0.041-0.198-0.062-0.366-0.062h-0.413
		l-0.203,1.191h0.465c0.201,0,0.368-0.057,0.501-0.171c0.134-0.114,0.215-0.257,0.244-0.428
		C14.078,21.575,14.063,21.463,14.014,21.374z M13.729,21.704c-0.018,0.103-0.061,0.192-0.13,0.268
		c-0.069,0.076-0.161,0.113-0.276,0.113h-0.131l0.127-0.747h0.134c0.066,0,0.121,0.011,0.165,0.036
		c0.044,0.024,0.076,0.068,0.098,0.13C13.737,21.564,13.742,21.632,13.729,21.704z"/>
	<path fill="#C52A29" d="M15.083,21.118h-0.367l-0.637,1.191h0.278l0.127-0.245h0.438l0.042,0.245h0.34L15.083,21.118z
		 M14.597,21.845l0.216-0.418l0.071,0.418H14.597z"/>
	<path fill-rule="evenodd" clip-rule="evenodd" fill="#C52A29" d="M16.751,21.275c-0.034-0.061-0.082-0.102-0.145-0.123
		c-0.063-0.023-0.148-0.034-0.258-0.034h-0.595l-0.202,1.191h0.318l0.081-0.472h0.227l0.127,0.472h0.35l-0.16-0.526
		c0.167-0.063,0.263-0.165,0.288-0.308C16.795,21.401,16.784,21.335,16.751,21.275z M16.455,21.477
		c-0.006,0.035-0.022,0.066-0.05,0.094c-0.027,0.026-0.055,0.044-0.085,0.053c-0.03,0.008-0.077,0.011-0.141,0.011h-0.194
		l0.051-0.304h0.188c0.073,0,0.122,0.003,0.147,0.009c0.025,0.007,0.047,0.022,0.065,0.049S16.46,21.444,16.455,21.477z"/>
	<path fill="#C52A29" d="M18.344,21.1c-0.188,0-0.345,0.058-0.473,0.172c-0.128,0.115-0.208,0.263-0.238,0.441
		c-0.032,0.193-0.002,0.343,0.092,0.452c0.093,0.108,0.229,0.163,0.409,0.163c0.146,0,0.276-0.037,0.389-0.111
		c0.114-0.074,0.192-0.183,0.236-0.325l-0.304-0.017c-0.055,0.149-0.148,0.226-0.279,0.226c-0.081,0-0.14-0.027-0.176-0.08
		c-0.036-0.054-0.041-0.154-0.015-0.305c0.044-0.259,0.148-0.388,0.314-0.388c0.145,0,0.205,0.084,0.181,0.252l0.335-0.019
		C18.826,21.254,18.669,21.1,18.344,21.1L18.344,21.1z"/>
	<path fill="#C52A29" d="M20.171,21.275c-0.033-0.061-0.082-0.102-0.144-0.123c-0.063-0.023-0.148-0.034-0.259-0.034h-0.595
		l-0.203,1.191h0.319l0.08-0.472h0.227l0.127,0.472h0.35l-0.16-0.526c0.167-0.063,0.263-0.165,0.287-0.308
		C20.215,21.401,20.205,21.335,20.171,21.275z M19.875,21.477c-0.006,0.035-0.022,0.066-0.049,0.094
		c-0.027,0.026-0.056,0.044-0.085,0.053c-0.03,0.008-0.077,0.011-0.141,0.011h-0.194l0.052-0.304h0.188
		c0.073,0,0.122,0.003,0.147,0.009c0.025,0.007,0.047,0.022,0.065,0.049C19.875,21.414,19.881,21.444,19.875,21.477z"/>
	<polygon fill="#C52A29" points="21.577,21.118 20.61,21.118 20.407,22.31 21.374,22.31 21.414,22.074 20.77,22.074 20.814,21.814 
		21.32,21.814 21.358,21.59 20.852,21.59 20.894,21.345 21.538,21.345 	"/>
	<polygon fill="#C52A29" points="22.835,21.118 21.868,21.118 21.666,22.31 22.632,22.31 22.672,22.074 22.028,22.074 
		22.072,21.814 22.579,21.814 22.617,21.59 22.11,21.59 22.152,21.345 22.797,21.345 	"/>
	<g>
		<polygon fill="#C52A29" points="23.127,21.118 22.924,22.31 23.235,22.31 23.282,22.036 23.513,21.792 23.695,22.31 24.044,22.31 
			23.769,21.544 24.166,21.118 23.863,21.118 23.343,21.679 23.438,21.118 		"/>
	</g>
	<path fill-rule="evenodd" clip-rule="evenodd" fill="#C52A29" d="M9.466,22.581c-0.271,0.245-0.976,0.266-1.419-0.273
		c0.012-0.131,0.049-0.223,0.097-0.324c0.021,0.04,0.064,0.103,0.09,0.133c0.114,0.137,0.569,0.668,1.165,0.353
		c0.2-0.105,0.293-0.419,0.34-0.551c0.01-0.028,0.021-0.023,0.021-0.001C9.75,22.048,9.725,22.347,9.466,22.581z"/>
	<path fill-rule="evenodd" clip-rule="evenodd" fill="#C52A29" d="M9.491,20.786c0.053,0.083,0.07,0.124,0.098,0.188
		c0.039,0.084,0.006,0.063-0.022,0.019c-0.042-0.065-0.076-0.108-0.15-0.19C9.44,20.794,9.469,20.788,9.491,20.786z"/>
	<path fill="#C52A29" d="M9.28,20.478c-0.342-0.368-0.918-0.34-1.259-0.094c-0.348,0.25-0.513,0.711-0.313,1.293
		c0.053-0.122,0.143-0.299,0.266-0.451c-0.015-0.252,0.021-0.372,0.121-0.514c0.26-0.365,0.707-0.404,0.99-0.199
		C9.153,20.494,9.247,20.483,9.28,20.478z"/>
	<path fill-rule="evenodd" clip-rule="evenodd" fill="#C52A29" d="M8.926,22.494c0.072-0.05,0.108-0.091,0.165-0.131
		c0.038-0.027,0.051-0.059-0.019-0.011c-0.063,0.044-0.11,0.078-0.193,0.123C8.891,22.483,8.912,22.492,8.926,22.494z"/>
	<path fill-rule="evenodd" clip-rule="evenodd" fill="#C52A29" d="M9.821,20.665c-0.241-0.282-1.185-0.117-1.694,0.53
		c-0.51,0.646-0.628,1.273-0.229,1.555c0.192,0.136,0.413,0.106,0.652-0.01c-0.044-0.021-0.089-0.031-0.148-0.067
		c-0.185,0.045-0.289,0.015-0.386-0.146c-0.197-0.322,0.179-0.907,0.451-1.187c0.185-0.188,0.96-0.816,1.32-0.58
		c0.118,0.077,0.13,0.245,0.113,0.387c-0.012,0.092,0,0.092,0.021,0.005C9.957,21.007,9.948,20.813,9.821,20.665z"/>
</g>
</svg>
