<?xml version="1.0" encoding="utf-8"?>
<!-- Generator: Adobe Illustrator 16.0.0, SVG Export Plug-In . SVG Version: 6.00 Build 0)  -->
<!DOCTYPE svg PUBLIC "-//W3C//DTD SVG 1.1//EN" "http://www.w3.org/Graphics/SVG/1.1/DTD/svg11.dtd">
<svg version="1.1" id="Layer_1" xmlns="http://www.w3.org/2000/svg" xmlns:xlink="http://www.w3.org/1999/xlink" x="0px" y="0px"
	 width="32px" height="32px" viewBox="0 0 32 32" enable-background="new 0 0 32 32" xml:space="preserve">
<g id="Shape_39">
	<g>
		<path fill-rule="evenodd" clip-rule="evenodd" fill="#1C2115" d="M29.976,0.65H2.36C1.958,9.97,2.7,27.451,16.169,31.48
			C29.636,27.452,30.374,9.842,29.976,0.65z"/>
	</g>
</g>
<g id="Shape_39_copy">
	<g>
		<path fill-rule="evenodd" clip-rule="evenodd" fill="#E78025" d="M29.664,0.969H2.674c-0.38,9.15,0.386,26.266,13.495,30.179
			C29.277,27.235,30.037,9.994,29.664,0.969z"/>
	</g>
</g>
<g id="Shape_39_copy_4">
	<g>
		<path fill-rule="evenodd" clip-rule="evenodd" fill="#A29D59" d="M28.411,2.316H3.925c-0.32,8.361,0.433,23.67,12.244,27.184
			C27.979,25.987,28.728,10.564,28.411,2.316z"/>
	</g>
</g>
<g id="Shape_6">
	<g>
		<polygon fill-rule="evenodd" clip-rule="evenodd" fill="#7E8044" points="16.182,4.546 4.419,9.883 4.723,14.393 16.182,9.066 
			27.639,14.393 28.027,10.113 		"/>
	</g>
</g>
<g id="Shape_6_copy">
	<g>
		<path fill-rule="evenodd" clip-rule="evenodd" fill="#7E8044" d="M16.182,10.86l-11.38,5.21c0,0,0.794,3.202,1.563,3.873
			c3.17-1.474,9.816-4.563,9.816-4.563s6.297,2.928,9.554,4.443c1.048-1.496,1.545-3.735,1.545-3.735L16.182,10.86z"/>
	</g>
</g>
<g id="Shape_20_2_">
	<g>
		<circle fill-rule="evenodd" clip-rule="evenodd" fill="#A29D59" cx="16.229" cy="14.45" r="5.112"/>
	</g>
</g>
<g id="Shape_19">
	<g>
		<path fill-rule="evenodd" clip-rule="evenodd" fill="#272E28" d="M20.277,14.44c0-2.251-1.825-4.076-4.076-4.076
			s-4.076,1.825-4.076,4.076c0,2.005,1.448,3.672,3.356,4.013l-0.234,4.2l-1.152,0.002v0.321l1.13-0.003l-0.475,6.258l0.874-0.002
			l0.191-6.257l0.794-0.002l0.209,6.257l0.872-0.002l-0.493-6.256l0.959-0.002l0.005-0.321l-0.985,0.002l-0.234-4.2
			C18.84,18.1,20.277,16.438,20.277,14.44z M15.825,22.651l0.005-0.176l0.221-3.962c0.05,0.001,0.1,0.003,0.15,0.003
			c0.057,0,0.115-0.001,0.171-0.004l0.22,3.95l0.007,0.188L15.825,22.651z M16.065,18.242l0.146-2.627l0.146,2.625
			c-0.052,0.003-0.104,0.004-0.156,0.004C16.155,18.244,16.11,18.243,16.065,18.242z M16.928,18.174l-0.238-4.269l-0.478,0.027
			l-0.479-0.027l-0.238,4.273c-1.764-0.331-3.099-1.879-3.099-3.739c0-2.102,1.704-3.805,3.805-3.805s3.805,1.703,3.805,3.805
			C20.006,16.293,18.681,17.836,16.928,18.174z M15.624,29.23l1.194-0.002v0L15.624,29.23L15.624,29.23z"/>
	</g>
</g>
<g id="Shape_18_2_">
	<g>
		<path fill-rule="evenodd" clip-rule="evenodd" fill="#272E28" d="M15.629,13.096l-1.918-4.019l-1.29,0.607l2.824,3.708
			L15.629,13.096z M15.183,13.399l-3.381-2.917l-0.915,1.082l4.07,2.264L15.183,13.399z M14.723,14.46l-4.401,0.154l0.102,1.409
			l4.435-1.094L14.723,14.46z M17.718,14.569l4.358-0.12l-0.057-1.407l-4.431,1.057L17.718,14.569z M17.634,13.994l3.97-1.799
			L21,10.904l-3.668,2.702L17.634,13.994z M18.271,9.002l-1.356-0.486l-0.583,4.563l0.488,0.061L18.271,9.002z M16.225,13.004
			L16.014,8.59l-1.437,0.052l1.174,4.485L16.225,13.004z M14.86,13.87l-4.19-1.486l-0.438,1.343l4.579,0.626L14.86,13.87z
			 M16.851,15.866l1.832,3.911l1.266-0.581l-2.712-3.622L16.851,15.866z M17.261,15.576l3.271,2.861l0.919-1.043l-3.96-2.242
			L17.261,15.576z M17.626,14.63l-0.056,0.481l4.099,1.486l0.468-1.315L17.626,14.63z M16.251,15.961l0.173,4.289l1.401-0.05
			l-1.104-4.358L16.251,15.961z M15.142,15.479l-2.814,3.253l1.093,0.901l2.157-3.925L15.142,15.479z M14.829,15.035l-3.947,1.824
			l0.64,1.263l3.613-2.704L14.829,15.035z M17.202,14.457c-0.005-0.544-0.455-0.989-1.004-0.992
			c-0.55-0.002-0.989,0.438-0.981,0.984c0.007,0.544,0.457,0.986,1.004,0.988C16.769,15.438,17.207,15,17.202,14.457z M14.25,19.887
			l1.339,0.446l0.533-4.445l-0.486-0.056L14.25,19.887z M17.31,13.5l2.882-3.277l-1.083-0.946l-2.231,3.988L17.31,13.5z"/>
	</g>
</g>
<g id="Shape_39_copy_2">
	<g>
		<path fill-rule="evenodd" clip-rule="evenodd" fill="#1C2115" d="M28.833,1.868H3.504c-0.341,8.622,0.411,24.51,12.665,28.16
			C28.42,26.378,29.169,10.372,28.833,1.868z M16.169,29.101C4.768,25.715,4.018,10.85,4.317,2.734H28.02
			C28.315,10.741,27.567,25.715,16.169,29.101z"/>
	</g>
</g>
<text transform="matrix(1 0 0 1 6.4873 7.2632)" fill="#F5E8B0" font-family="'BritannicBold'" font-size="5.1856">MILITIA</text>
<g id="Color_Fill_1_4_">
	<g>
		<path fill-rule="evenodd" clip-rule="evenodd" fill="#EFEEEE" d="M20.645,8.273h0.796V8.261c-0.013-0.117-0.111-0.208-0.23-0.208
			h-0.592c-0.129,0-0.233,0.106-0.233,0.237v0.512c0,0.131,0.104,0.236,0.233,0.236h0.592c0.121,0,0.22-0.092,0.232-0.211V8.815
			h-0.798V8.273z M22.48,8.437h-0.619v-0.17h0.832c-0.013-0.119-0.112-0.213-0.233-0.213h-0.603c-0.129,0-0.233,0.106-0.233,0.237
			v0.146c0.011,0.12,0.111,0.214,0.232,0.214l0.618,0v0.176h-0.85c0.011,0.12,0.111,0.213,0.232,0.213h0.62
			c0.13,0,0.233-0.105,0.233-0.236V8.649C22.701,8.53,22.601,8.437,22.48,8.437z M25.337,8.044h-0.607
			c-0.122,0-0.224,0.103-0.224,0.227v0.532c0,0.125,0.102,0.227,0.224,0.227h0.607c0.124,0,0.224-0.102,0.224-0.227V8.271
			C25.561,8.147,25.461,8.044,25.337,8.044z M25.353,8.848h-0.637V8.229h0.637V8.848z M24.315,8.236
			c-0.018-0.11-0.111-0.191-0.221-0.191h-0.649c-0.124,0-0.224,0.103-0.224,0.227v0.532c0,0.125,0.1,0.227,0.224,0.227h0.649
			c0.115,0,0.21-0.087,0.221-0.201V8.456h-0.719c0.002,0.02,0.012,0.055,0.049,0.1c0.046,0.061,0.118,0.065,0.139,0.065h0.325v0.216
			h-0.682v-0.6H24.315z"/>
	</g>
</g>
</svg>
