<?xml version="1.0" encoding="utf-8"?>
<!-- Generator: Adobe Illustrator 16.0.0, SVG Export Plug-In . SVG Version: 6.00 Build 0)  -->
<!DOCTYPE svg PUBLIC "-//W3C//DTD SVG 1.1//EN" "http://www.w3.org/Graphics/SVG/1.1/DTD/svg11.dtd">
<svg version="1.1" id="Layer_1" xmlns="http://www.w3.org/2000/svg" xmlns:xlink="http://www.w3.org/1999/xlink" x="0px" y="0px"
	 width="32px" height="32px" viewBox="0 0 32 32" enable-background="new 0 0 32 32" xml:space="preserve">
<g id="Shape_22_copy_11_4_">
	<g>
		<path fill-rule="evenodd" clip-rule="evenodd" fill="#5E5C55" d="M27.265,5.259H4.152c-0.247,0-0.448,0.201-0.448,0.448v11.939
			c0.027,0.402,0.518,0.896,0.518,0.896s11.03,11.075,11.166,11.211c0.137,0.137,0.427,0.204,0.637-0.006
			c0.21-0.209,11.24-11.205,11.24-11.205s0.447-0.467,0.447-0.896V5.708C27.712,5.46,27.512,5.259,27.265,5.259z"/>
	</g>
</g>
<g id="Ellipse_1_copy_5" opacity="0.4">
	<g>
		<path fill-rule="evenodd" clip-rule="evenodd" fill="#171617" d="M24.033,8.904l0.083-4.535L4.136,4.301l0.067,13.515l2.704,2.942
			l0.938,0.769V9.862c0-0.53,0.431-0.959,0.961-0.959h15.164C23.992,8.902,24.013,8.903,24.033,8.904z M14.699,12.492h10.376v-0.674
			H14.81c-0.005-1.11-0.906-2.009-2.018-2.009s-2.014,0.899-2.02,2.009h-0.186v0.674h0.298c0.249,0.715,0.889,1.247,1.663,1.34
			v1.915c-0.52,0.061-0.989,0.277-1.362,0.602l-1.753-1.75l-0.479,0.478l1.785,1.783c-0.26,0.393-0.412,0.863-0.412,1.369
			c0,0.658,0.257,1.256,0.675,1.702L8.958,21.97l0.479,0.478l2.093-2.09c0.303,0.185,0.649,0.307,1.019,0.35v1.944
			c-0.992,0.102-1.771,0.923-1.808,1.934h-0.153v0.674l0.243,0c0.255,0.821,1.021,1.418,1.927,1.418
			c0.904,0,1.669-0.594,1.927-1.412l6.354,0.01l0.376-0.69h-6.64c-0.033-0.921-0.684-1.684-1.549-1.89v-2
			c0.357-0.054,0.691-0.184,0.984-0.373l2.131,2.129l0.479-0.478l-2.095-2.092c0.394-0.441,0.633-1.02,0.633-1.656
			c0-0.483-0.138-0.934-0.377-1.316l1.833-1.831l-0.477-0.478l-1.79,1.788c-0.36-0.329-0.816-0.556-1.321-0.633V13.8
			C13.913,13.649,14.471,13.147,14.699,12.492z"/>
	</g>
</g>
<g id="Rectangle_1_copy_4">
	<g>
		<path fill-rule="evenodd" clip-rule="evenodd" fill="#B3B1A6" d="M12.206,23.091h0.677V18.69l3.116,3.112l0.478-0.478
			l-3.454-3.449l3.45-3.445l-0.479-0.478l-3.11,3.106v-4.4h-0.677v4.4L9.09,13.947l-0.479,0.478l3.454,3.449l-3.449,3.445
			l0.478,0.478l3.112-3.107V23.091z M10.245,24.608h11.511v-0.674H10.245V24.608z M10.245,11.167v0.674h14.488v-0.674H10.245z"/>
	</g>
</g>
<g opacity="0.4">
	<path fill="#343A38" d="M14.029,16.625l-0.688-0.687c-0.165-0.038-0.337-0.059-0.513-0.059c-1.261,0-2.284,1.021-2.284,2.281
		c0,0.239,0.226,0.696,0.295,0.913c0.009,0.027-0.216,0.196-0.2,0.219c0.147,0.209,0.307,0.371,0.508,0.518l0.08-0.167l0.974,0.317
		v0.479c0.35,0.091,0.666,0.013,0.686,0.012l0.031-0.534l0.321-0.487l0.677,0.297l0.267,0.271c0.188-0.137,0.353-0.303,0.489-0.49
		l-0.643-0.643V16.625z"/>
	<path fill="#343A38" d="M13.59,11.124l-0.748-0.677c-0.165-0.038-0.258-0.428-0.434-0.428c-1.263,0-1.261,0.392-1.261,1.651
		c0,0.539,0.271,0.976,0.582,1.367l0.476,0.023v0.53c0.281,0.096,0.671,0.018,0.689,0.017v-0.523l-0.88-1.243l0.677,0.297
		l0.267,0.271c0.187-0.138,0.352-0.303,0.489-0.49l0.771-0.059h0.321c0,0,0.073-0.4,0.012-0.701
		C14.134,11.16,13.59,11.124,13.59,11.124z"/>
	<path fill="#343A38" d="M13.394,24.68l0.772-0.059h0.32c0,0,0.123-0.265,0.012-0.702c-0.554,0-0.962-0.035-0.962-0.035
		L13.394,24.68z"/>
</g>
<g id="Color_Fill_1">
	<g>
		<path fill-rule="evenodd" clip-rule="evenodd" fill="#B3B1A6" d="M24.244,7.009V3.656H3.441V17.24l3.899,3.9l0.069-0.547
			c0,0,0-9.888,0-10.401c0-0.599-0.034-0.834,0.342-1.232C8.127,8.563,8.18,8.583,8.848,8.583c0.479,0,15.44,0,15.44,0L24.244,7.009
			z M10.72,11.504c0,0.991,0.805,1.795,1.797,1.795c0.993,0,1.799-0.804,1.799-1.795s-0.806-1.795-1.799-1.795
			C11.524,9.709,10.72,10.513,10.72,11.504z M14.315,24.271c0-0.991-0.806-1.795-1.799-1.795c-0.992,0-1.797,0.804-1.797,1.795
			s0.805,1.795,1.797,1.795C13.51,26.066,14.315,25.263,14.315,24.271z M12.544,20.155c1.262,0,2.284-1.021,2.284-2.281
			s-1.022-2.281-2.284-2.281s-2.283,1.021-2.283,2.281S11.282,20.155,12.544,20.155z M19.019,27.401
			c-2.02,0-4.303-0.016-6.159-0.016c-0.871,0,2.807,3.275,2.807,3.275S20.278,27.401,19.019,27.401z"/>
	</g>
</g>
<g id="Rectangle_3">
	<g>
		<polygon fill-rule="evenodd" clip-rule="evenodd" fill="#293C3C" points="22.574,4.832 22.574,24.252 27.485,18.558 27.485,4.832 
					"/>
	</g>
</g>
<path fill-rule="evenodd" clip-rule="evenodd" fill="#55682F" d="M27.52,3.117H4.375c-0.862,0-1.377,0.637-1.377,1.252v12.685
	c0,1.091,0.635,1.879,0.662,1.913l0.012,0.015l0.013,0.014c3.398,3.624,11.318,12.066,11.486,12.215
	c0.202,0.18,0.483,0.283,0.771,0.283c0.283,0,0.555-0.103,0.765-0.29c0.262-0.233,9.688-10.209,11.574-12.207l0.03-0.033
	l0.024-0.037c0.059-0.083,0.562-0.843,0.562-1.714V4.369C28.896,3.777,28.332,3.117,27.52,3.117z M28.166,17.219
	c0,0.822-0.476,1.539-0.529,1.618l-0.024,0.034l-0.028,0.031C25.804,20.787,16.91,30.2,16.663,30.419
	c-0.197,0.177-0.454,0.274-0.722,0.274c-0.271,0-0.536-0.098-0.728-0.267C15.057,30.285,7.583,22.319,4.377,18.9l-0.012-0.013
	l-0.013-0.014c-0.024-0.031-0.624-0.775-0.624-1.805V5.099c0-0.58,0.486-1.181,1.3-1.181h21.838c0.766,0,1.3,0.623,1.3,1.181V17.219
	z"/>
<path opacity="0.4" fill-rule="evenodd" clip-rule="evenodd" fill="#191919" d="M16.133,30.431c-0.008,0-0.015-0.002-0.02-0.003
	c-0.537-0.55-7.729-8.237-10.771-11.48c-0.055-0.074-0.396-0.56-0.396-1.181V5.087c0.004-0.02,0.033-0.116,0.236-0.116h22.449
	c0.158,0,0.223,0.106,0.236,0.135l0.079,12.185c0,0.413-0.232,0.866-0.34,1.037c-3.099,3.28-11.06,11.701-11.47,12.103
	C16.137,30.431,16.135,30.431,16.133,30.431z M26.435,17.815c0.107-0.12,0.266-0.374,0.266-0.495L26.621,5.552l-1.934,0.023
	l0.026,0.832H6.026v11.88c0.017,0.102,0.176,0.354,0.327,0.517c0.098,0.103,8.544,9.054,9.697,10.273
	C17.183,27.888,26.174,18.09,26.435,17.815z"/>
<path fill-rule="evenodd" clip-rule="evenodd" fill="#8CA14A" d="M15.941,30.354c-0.007,0-0.015-0.002-0.021-0.003
	c-0.535-0.55-8.344-8.872-11.386-12.116c-0.055-0.074-0.396-0.559-0.396-1.181V4.375c0.003-0.02,0.033-0.117,0.236-0.117H27.52
	c0.16,0,0.223,0.107,0.236,0.136v12.82c0,0.413-0.231,0.866-0.34,1.037c-3.098,3.28-11.06,11.701-11.47,12.103
	C15.945,30.353,15.944,30.354,15.941,30.354z M26.243,17.737c0.108-0.12,0.267-0.374,0.267-0.495V5.695H5.219v11.521
	c0.016,0.102,0.175,0.353,0.326,0.517c0.098,0.103,9.161,9.688,10.315,10.908C16.992,27.452,25.981,18.012,26.243,17.737z"/>
<g id="Shape_22_copy_12_3_">
	<g>
		<path fill-rule="evenodd" clip-rule="evenodd" fill="#343A38" d="M27.52,3.687H4.375c-0.574,0-0.807,0.413-0.807,0.682v12.685
			c0,0.9,0.532,1.551,0.532,1.551s11.283,12.031,11.449,12.18c0.167,0.148,0.521,0.222,0.777-0.007
			c0.256-0.228,11.538-12.173,11.538-12.173s0.461-0.671,0.461-1.392V4.369C28.326,4.1,28.028,3.687,27.52,3.687z M27.08,17.242
			c0,0.423-0.418,0.882-0.418,0.882S16.355,28.947,16.159,29.153c-0.195,0.207-0.467,0.141-0.594,0.006
			C15.438,29.025,5.132,18.125,5.132,18.125s-0.459-0.486-0.483-0.882V5.565c0-0.243,0.188-0.441,0.418-0.441h21.596
			c0.23,0,0.418,0.198,0.418,0.441V17.242z"/>
	</g>
</g>
<path opacity="0.4" fill="#131313" d="M25.468,5.699l-0.006-2.586l-0.728-0.008l-0.75-1.608c0,0-0.14-0.022-0.2-0.022H8.367
	c-0.485,0-0.88,0.395-0.88,0.881v4.582c0,0.487,0.746,1.245,1.231,1.245l13.856-0.021l0.019-0.272h1.675
	c0.731,0,1.444-0.701,1.444-1.326l0.001-0.19l0.796-0.004l-0.004-0.669H25.468z"/>
<path fill="#8CA14A" d="M24.806,5.891c0,0.896-0.776,1.622-1.735,1.622h-14.1c-0.959,0-1.735-0.726-1.735-1.622V2.646
	c0-0.896,0.776-1.622,1.735-1.622h14.1c0.959,0,1.735,0.727,1.735,1.623V5.891z"/>
<path fill="#343A38" d="M8.908,7.078c-0.644,0-1.167-0.493-1.167-1.099V2.559c0-0.606,0.523-1.1,1.167-1.1h14.225
	c0.644,0,1.167,0.494,1.167,1.1v3.419c0,0.606-0.523,1.1-1.167,1.1L8.908,7.078z"/>
<g id="bank" opacity="0.4">
	<g>
		<path fill-rule="evenodd" clip-rule="evenodd" fill="#171717" d="M11.648,3.494c0.148-0.034,0.26-0.096,0.334-0.186
			c0.075-0.09,0.112-0.191,0.112-0.303c0-0.153-0.064-0.29-0.193-0.409c-0.128-0.119-0.333-0.179-0.613-0.179H9.937v2.24h1.268
			c0.397,0,0.657-0.065,0.778-0.196c0.122-0.131,0.182-0.279,0.182-0.445C12.164,3.738,11.993,3.563,11.648,3.494z M10.688,2.898
			h0.365c0.182,0,0.273,0.063,0.273,0.187c0,0.046-0.02,0.09-0.059,0.13c-0.04,0.041-0.106,0.061-0.201,0.061h-0.379V2.898z
			 M11.304,4.097c-0.046,0.041-0.118,0.062-0.218,0.062h-0.397V3.751h0.371c0.119,0,0.201,0.022,0.247,0.065
			c0.044,0.043,0.066,0.091,0.066,0.142C11.373,4.009,11.351,4.056,11.304,4.097z M13.823,2.417l-0.821,2.24h0.663l0.159-0.441
			h0.714l0.15,0.441h0.833l-0.835-2.24H13.823z M13.964,3.727l0.216-0.65l0.214,0.65H13.964z M18.096,3.08
			c0,0.201,0.021,0.396,0.063,0.588c-0.063-0.124-0.157-0.267-0.28-0.43l-0.62-0.821h-0.772v2.24h0.663V3.573
			c0-0.101-0.021-0.224-0.063-0.368c0.095,0.181,0.188,0.335,0.282,0.463l0.729,0.989h0.665v-2.24h-0.665V3.08z M21.51,3.237
			l0.672-0.82h-0.734l-0.734,0.926V2.417h-0.77v2.24h0.77V4.141l0.276-0.33l0.46,0.846h0.894L21.51,3.237z"/>
	</g>
</g>
<g id="bank_4_">
	<g>
		<path fill-rule="evenodd" clip-rule="evenodd" fill="#F2EBC8" d="M11.458,3.304c0.148-0.034,0.26-0.096,0.334-0.187
			c0.075-0.09,0.112-0.191,0.112-0.303c0-0.153-0.064-0.29-0.192-0.409c-0.129-0.119-0.333-0.179-0.615-0.179H9.746v2.24h1.269
			c0.396,0,0.656-0.065,0.777-0.196c0.122-0.131,0.183-0.279,0.183-0.446C11.975,3.547,11.802,3.374,11.458,3.304z M10.499,2.708
			h0.364c0.183,0,0.272,0.063,0.272,0.188c0,0.046-0.02,0.089-0.058,0.129c-0.039,0.04-0.106,0.061-0.201,0.061h-0.378V2.708z
			 M11.114,3.907c-0.046,0.041-0.118,0.062-0.218,0.062h-0.397V3.562h0.371c0.119,0,0.201,0.021,0.246,0.065
			c0.045,0.043,0.067,0.09,0.067,0.142C11.184,3.82,11.16,3.866,11.114,3.907z M13.634,2.227l-0.821,2.24h0.663l0.159-0.441h0.713
			l0.15,0.441h0.834l-0.835-2.24H13.634z M13.774,3.537l0.215-0.65l0.215,0.65H13.774z M17.906,2.89c0,0.2,0.021,0.396,0.063,0.587
			c-0.063-0.124-0.157-0.267-0.281-0.43l-0.62-0.821h-0.771v2.24h0.662V3.383c0-0.101-0.021-0.223-0.064-0.368
			c0.096,0.182,0.189,0.335,0.284,0.462l0.729,0.99h0.665v-2.24h-0.665V2.89z M21.319,3.047l0.673-0.82h-0.734l-0.734,0.926V2.227
			h-0.77v2.24h0.77V3.95L20.8,3.621l0.46,0.846h0.894L21.319,3.047z"/>
	</g>
</g>
<g id="Shape_16_4_">
	<g>
		<path fill-rule="evenodd" clip-rule="evenodd" fill="#9CAF4E" d="M17.503,5.169h-0.622c-0.136,0-0.246,0.11-0.246,0.245v0.532
			c0,0.136,0.11,0.246,0.246,0.246h0.622c0.126,0,0.23-0.096,0.243-0.22V5.959h-0.838V5.397h0.838V5.385
			C17.731,5.263,17.628,5.169,17.503,5.169z M18.838,5.567h-0.651V5.389h0.874c-0.012-0.123-0.116-0.22-0.243-0.22h-0.635
			c-0.136,0-0.245,0.11-0.245,0.245v0.152c0.012,0.125,0.117,0.221,0.244,0.221l0.649,0V5.97h-0.893
			c0.013,0.124,0.117,0.221,0.244,0.221h0.652c0.136,0,0.246-0.109,0.246-0.245V5.787C19.069,5.663,18.965,5.567,18.838,5.567z
			 M21.841,5.16h-0.639c-0.129,0-0.234,0.105-0.234,0.235v0.551c0,0.13,0.105,0.235,0.234,0.235h0.639
			c0.129,0,0.235-0.105,0.235-0.235V5.396C22.076,5.266,21.97,5.16,21.841,5.16z M21.856,5.993h-0.67V5.351h0.67V5.993z
			 M20.063,5.69c0.049,0.063,0.125,0.067,0.146,0.067l0.341,0V5.98h-0.715V5.358h0.933C20.749,5.244,20.65,5.16,20.534,5.16h-0.683
			c-0.129,0-0.234,0.106-0.234,0.235v0.551c0,0.13,0.105,0.235,0.234,0.235h0.683c0.122,0,0.223-0.09,0.234-0.208V5.586h-0.757
			C20.015,5.606,20.024,5.643,20.063,5.69z"/>
	</g>
</g>
</svg>
