<?xml version="1.0" encoding="utf-8"?>
<!-- Generator: Adobe Illustrator 23.0.2, SVG Export Plug-In . SVG Version: 6.00 Build 0)  -->
<svg version="1.1" id="Layer_1" xmlns="http://www.w3.org/2000/svg" xmlns:xlink="http://www.w3.org/1999/xlink" x="0px" y="0px"
	 width="32px" height="32px" viewBox="0 0 32 32" enable-background="new 0 0 32 32" xml:space="preserve">
<linearGradient id="SVGID_1_" gradientUnits="userSpaceOnUse" x1="16" y1="3.8982" x2="16" y2="26.4613">
	<stop  offset="0" style="stop-color:#B2C9CC"/>
	<stop  offset="0.2185" style="stop-color:#8FA1A3"/>
	<stop  offset="0.4362" style="stop-color:#738182"/>
	<stop  offset="0.6435" style="stop-color:#5E6A6A"/>
	<stop  offset="0.8362" style="stop-color:#525C5C"/>
	<stop  offset="1" style="stop-color:#4E5757"/>
</linearGradient>
<circle fill="url(#SVGID_1_)" cx="16" cy="15.8" r="14.1"/>
<linearGradient id="SVGID_2_" gradientUnits="userSpaceOnUse" x1="15.6121" y1="12.8788" x2="15.6121" y2="30.5654">
	<stop  offset="0" style="stop-color:#B6CCD1"/>
	<stop  offset="1.855779e-02" style="stop-color:#B3C8CD"/>
	<stop  offset="0.2369" style="stop-color:#8FA0A3"/>
	<stop  offset="0.4494" style="stop-color:#738082"/>
	<stop  offset="0.6519" style="stop-color:#5E696A"/>
	<stop  offset="0.8401" style="stop-color:#525C5C"/>
	<stop  offset="1" style="stop-color:#4E5757"/>
</linearGradient>
<path fill="url(#SVGID_2_)" d="M1,17.6c0.3-0.2,0.6-0.5,0.9-0.9c1.6-2,2.9-4.2,3.7-5.4c0.3,1.5,3.4,6.8,6.8,7.9
	c4.8,1.6,7.1,0,8.4-1.3c3.3-3.2,4.3-6.7,5.4-8.2c1.2,1.5,1.6,3.6,3,4.8c0.4,0.3,1,1,1.4,1.2c-0.1,5.2-1.6,15.1-13.8,15.1
	S-1,19.3,1,17.6z"/>
<rect x="13.2" y="9.7" fill="#6D6460" width="0.4" height="3.2"/>
<path fill="#DE9537" d="M22,8.9l-0.2,0.1C21.9,9,22,9,22,8.9z"/>
<g>
	<polygon fill="#DDDBD4" points="22.5,28.5 22.5,28.5 24.9,27.4 26.9,25 28.9,22.4 30.1,17.7 1.9,17.7 2.4,20.6 4.4,24.6 8.5,28.4 
		12,30.1 18.3,30.2 	"/>
	<rect x="13.2" y="9" fill="#725835" width="5.4" height="3.2"/>
	<rect x="18.3" y="9" fill="#6D6460" width="0.4" height="3.2"/>
	<rect x="15.8" y="9" fill="#6D6460" width="0.4" height="3.2"/>
	<polygon fill="#A03C2E" points="10,17.7 21.9,17.7 21.7,14.2 10.2,14.2 	"/>
	<polygon fill="#DDDBD4" points="10.3,12 10.2,13.9 21.7,13.9 21.6,12 	"/>
	<polygon fill="#EDE9DD" points="21.4,11.7 16,11.7 10.5,11.7 9.6,12.5 16,12.5 22.3,12.5 	"/>
	<path fill="#966626" d="M23.5,8l-0.3-0.5L22,8.3c-0.1,0-0.1,0.1-0.2,0.1C19.6,9.5,16,9.3,16,9.3c-3.5,0-5.9-0.9-5.9-0.9L8.7,7.6
		L8.5,8l1.3,0.8C9.7,9.1,9.6,9.3,9.6,9.3s1.2,0.6,3.6,0.8c0,0,1,0.1,2.7,0.1s2.7-0.1,2.7-0.1c2.5-0.3,3.6-0.8,3.6-0.8s0-0.2-0.1-0.5
		L23.5,8z"/>
	<path fill="#DE9537" d="M21.8,8.4c-2,0.7-3.4-1-3.9-1.4c-0.4-0.4-0.9-1-1.4-1.3h-0.3c0.1,0,0.1-0.1,0.1-0.2V5
		c0-0.1-0.1-0.2-0.2-0.2l0,0c0,0,0,0,0,0v0c0,0,0-0.1,0-0.1h0.1h0.3c0,0,0.1,0,0.1-0.1l0-0.1c0,0,0-0.1-0.1-0.1h-0.5c0,0,0,0,0,0v0
		c0,0,0,0,0,0l0,0c0.1,0,0.1-0.1,0.1-0.2V3.7c0-0.1-0.1-0.2-0.2-0.2h0c0,0,0,0,0,0v0c0,0,0,0,0,0h0.3c0,0,0,0,0-0.1l0-0.1
		c0,0,0-0.1-0.1-0.1h-0.1h-0.1c0,0,0,0,0,0v0c0,0,0,0,0,0l0,0c0.1,0-0.2-0.9-0.2-0.9c0,0,0,0,0,0c0,0-0.3,0.9-0.2,0.9l0,0
		c0,0,0,0,0,0v0c0,0,0,0,0,0h-0.1h-0.1c0,0-0.1,0-0.1,0.1l0,0.1c0,0,0,0.1,0,0.1h0.3c0,0,0,0,0,0v0c0,0,0,0,0,0h0
		c-0.1,0-0.2,0.1-0.2,0.2v0.4c0,0.1,0.1,0.1,0.1,0.2l0,0c0,0,0,0,0,0v0c0,0,0,0,0,0h-0.5c0,0-0.1,0-0.1,0.1l0,0.1c0,0,0,0.1,0.1,0.1
		h0.3h0.1c0,0,0,0,0,0.1v0c0,0,0,0,0,0l0,0c-0.1,0-0.2,0.1-0.2,0.2v0.5c0,0.1,0.1,0.2,0.1,0.2h-0.3c-0.5,0.3-1,1-1.4,1.3
		c-0.5,0.5-1.9,2.1-3.9,1.4c0,0,2.3,0.9,5.9,0.9C16,9.3,19.6,9.5,21.8,8.4z"/>
	<rect x="17.5" y="14.7" fill="#6D6460" width="2" height="2"/>
	<g>
		<rect x="17.7" y="14.9" fill="#9DA5A5" width="1.5" height="1.5"/>
	</g>
	<g>
		<rect x="17.5" y="16.7" fill="#D6D6D6" width="2" height="0.2"/>
	</g>
	<path fill="#D6D6D6" d="M18.7,10.1c-1.8,0.2-3.6,0.2-5.4,0v0.6c1.8,0.2,3.6,0.2,5.4,0V10.1z"/>
	<g>
		<polygon fill="#D6D6D6" points="21.7,14.4 10.2,14.5 10.2,13.9 21.7,13.9 		"/>
	</g>
	<g>
		<polygon fill="#D6D6D6" points="30.1,18.5 1.8,18.6 1.8,18 30,18 		"/>
	</g>
	<g>
		<polygon fill="#D6D6D6" points="21.7,13 10.2,13.1 10.2,12.5 21.7,12.5 		"/>
	</g>
	<rect x="12.4" y="14.7" fill="#6D6460" width="2" height="2"/>
	<g>
		<rect x="12.7" y="14.9" fill="#9DA5A5" width="1.5" height="1.5"/>
	</g>
	<g>
		<rect x="12.5" y="16.7" fill="#D6D6D6" width="2" height="0.2"/>
	</g>
</g>
<polygon fill="#A03C2E" points="20.1,30.9 16.6,31.5 10.8,30.4 7.4,28.9 6.2,27.1 26.9,27.1 22.5,29.8 "/>
<rect x="12.6" y="28.1" fill="#6D6460" width="2" height="2"/>
<rect x="17.2" y="28.1" fill="#6D6460" width="2" height="2"/>
<polygon fill="#6D6460" points="22.7,30.1 21.9,30.1 21.9,28.1 23.9,28.1 23.9,29.3 "/>
<polygon fill="#6D6460" points="10.6,30.1 9.1,30.1 8.6,29.5 8.6,28.1 10.6,28.1 "/>
<g>
	<rect x="17.3" y="28.2" fill="#9DA5A5" width="1.7" height="1.7"/>
</g>
<g>
	<rect x="12.8" y="28.2" fill="#9DA5A5" width="1.7" height="1.7"/>
</g>
<g>
	<polygon fill="#9DA5A5" points="22.1,28.2 23.8,28.2 23.8,29.4 23.4,29.9 22.1,29.9 	"/>
</g>
<g>
	<rect x="8.7" y="28.2" fill="#9DA5A5" width="1.7" height="1.7"/>
</g>
<g>
	<path fill="#626666" d="M30.7,17.5c-2.2-0.8-3.8-1.9-3.9-1.9l-0.1,0l-0.1,0c0,0-5,3.2-10.3,3.2c-3.7,0-7.4-1.5-9.6-2.4
		c-0.8-0.3-1.2-0.5-1.5-0.6v0h0c-0.2,0-0.3,0-0.3,0C4.7,16,3.1,16.5,1.7,17c-0.8,0.3-1,0.6,0.1,0.2c1.3-0.5,2.8-1,3.2-1.2l0.3,0
		c0.3,0.1,0.8,0.3,1.4,0.5c2.2,0.9,5.9,2.4,9.7,2.4c4.8,0,9.2-2.5,10.2-3.1l0.3,0c0.6,0.4,1.9,1.2,3.8,1.9
		C30.9,17.6,30.9,17.6,30.7,17.5z"/>
	<path fill="#626666" d="M9,17.5c-0.1-0.2-0.2-0.3-0.4-0.4C8.5,17.1,8.3,17,8.1,17c0,0,0,0,0,0c-0.1,0-0.2,0-0.3,0
		c0-0.1-0.1-0.2-0.1-0.3c-0.1-0.1-0.2-0.2-0.3-0.3c-0.1-0.1-0.3-0.1-0.4-0.1c-0.1,0-0.2,0-0.3,0c0-0.1,0.1-0.2,0-0.3
		c-0.1,0-0.1,0-0.2-0.1c-0.1,0-0.2,0-0.2,0L6.1,16C5.9,16,5.9,16,5.8,16l-0.1,0.1l0,0.1c-0.1,0.3-0.2,0.5-0.3,0.7c0,0,0,0,0,0
		c0,0,0-0.2-0.2-0.5c-0.2-0.3-0.2-0.4-0.3-0.4l-0.2,0h0c-0.1,0-0.5,0.3-0.6,0.3l-0.1,0.1l0,0l0,0.1c0,0,0.2,0.3,0.2,0.4
		c0.1,0.1,0.1,0.3,0.2,0.4c0,0,0,0.1,0,0.3c0,0.1,0,0.1,0,0.2c0,0-0.1,0-0.2-0.1c-0.2-0.1-0.2-0.2-0.2-0.2c0-0.1-0.1-0.2-0.2-0.3
		c0,0-0.2-0.3-0.2-0.3l-0.2-0.1H3.3c-0.1,0-0.6,0.3-0.6,0.3L2.6,17c0,0,0,0-0.1,0l-0.1,0C2.2,17,2.1,17.1,2,17.3c0,0,0,0,0,0.1
		c0-0.1-0.1-0.1-0.2-0.1c0,0,0,0,0,0c0,0,0,0-0.3,0.2c-0.1,0.1-0.2,0.1-0.3,0.2l0,0.2l0,0.1c0.1,0.2,0.3,0.4,0.4,0.8l0.4,1l0.1,0.1
		H2l0.1,0c0.1,0,0.2-0.1,0.3-0.1c0.1-0.1,0.2-0.1,0.3-0.1l0.1-0.1l0-0.1c0,0-0.1-0.3-0.2-0.4l-0.2-0.6c0-0.1,0-0.2,0-0.2
		c0,0,0,0,0.2-0.1L2.8,18c0.1,0,0.2-0.2,0.1-0.3l0-0.1C3,17.9,3.1,18,3.1,18c0,0,0.2,0.1,0.6,0.3c0.3,0.1,0.4,0.2,0.4,0.3
		c0,0.1-0.1,0.2-0.4,0.3L3.7,19l0.1,0.1c0,0,0,0.1,0.2,0.2l0.3,0.2c0,0,0.1,0,0.2-0.1c0.6-0.3,0.6-0.4,0.6-0.4c0,0,0-0.1,0.1-0.6
		l0-0.2c0.1,0.1,0.2,0.1,0.3,0.1c0,0,0.1,0,0.1,0c0,0,0,0,0.1,0l0.1-0.1l0.6-1.2c0,0,0,0,0.2,0l0.2,0.1c0,0,0,0.1,0,0.2l-0.2,0.5
		c0,0.1-0.3,0.6-0.3,0.6c0,0.1,0,0.1,0,0.2l0,0.1l0.8,0.3L7,19l0.3-0.7c0.1-0.3,0.2-0.4,0.2-0.5c0,0,0.1-0.1,0.1-0.1l0.2,0
		c0.1,0,0.1,0.1,0.1,0.2c0,0.1-0.1,0.3-0.2,0.5c0,0.1-0.3,0.6-0.3,0.6c-0.1,0.2,0,0.3,0,0.3c0,0,0.1,0.1,0.3,0.2
		c0.2,0.1,0.3,0.1,0.3,0.1l0.1,0l0.1-0.1l0.4-0.9c0-0.1,0.3-0.6,0.3-0.7C9.1,17.9,9.1,17.7,9,17.5z"/>
	<path fill="#626666" d="M11.4,18.4c-0.2-0.3-0.4-0.5-0.8-0.6c-0.1,0-0.3-0.1-0.4-0.1c-0.2,0-0.4,0.1-0.6,0.2
		C9.3,18,9.1,18.3,9,18.7c-0.1,0.4-0.1,0.7,0.1,1c0.2,0.3,0.4,0.5,0.8,0.6c0.1,0,0.3,0.1,0.4,0.1c0.2,0,0.4-0.1,0.6-0.1
		c0.3-0.2,0.5-0.4,0.6-0.8C11.6,19,11.5,18.7,11.4,18.4z M10.4,19.3c0,0-0.1,0-0.2,0c0,0,0,0-0.1,0c-0.1,0-0.1-0.1-0.2-0.2
		c0-0.1,0-0.2,0-0.3c0-0.1,0.1-0.2,0.1-0.2c0,0,0.1,0,0.1,0l0.1,0c0.1,0,0.1,0.1,0.2,0.1c0,0.1,0,0.2,0,0.3
		C10.5,19.2,10.5,19.3,10.4,19.3z"/>
	<path fill="#626666" d="M13.5,18.4l-0.1,0c-0.1,0-0.3,0-0.4,0.1c0,0-0.1,0-0.1,0c0-0.1,0-0.2-0.2-0.3c-0.1,0-0.2,0-0.4,0
		c-0.2,0-0.3,0-0.4,0l-0.1,0.1l0,0.1c0,0.2,0,0.5,0,0.9l-0.2,1.1l0,0.2l0.1,0c0.1,0,0.2,0,0.4,0.1c0.2,0,0.3,0,0.3,0
		c0.1,0,0.2-0.1,0.2-0.2l0.2-1.2c0,0,0,0,0.1-0.1c0.1,0,0.1,0,0.1,0c0,0,0,0,0,0c0.1,0,0.2,0,0.1,0.2L13,20c0,0.1-0.1,0.6-0.1,0.6
		c0,0.1,0,0.2,0.1,0.2c0,0,0.2,0,0.4,0.1c0.2,0,0.3,0,0.3,0h0l0.2-0.1l0.3-1.7c0-0.2,0-0.4-0.2-0.6C13.9,18.5,13.7,18.4,13.5,18.4z"
		/>
	<path fill="#626666" d="M17,18.8L17,18.8c-0.1-0.1-0.3-0.1-0.4-0.1c-0.2,0-0.3-0.1-0.3-0.1c-0.1,0-0.1,0.1-0.2,0.1
		c-0.1-0.1-0.3-0.2-0.6-0.2c-0.4,0-0.7,0.1-0.9,0.4c-0.2,0.2-0.3,0.5-0.3,0.9c0,0.3,0.1,0.6,0.3,0.9c0.2,0.3,0.5,0.4,0.8,0.4h0
		c0.2,0,0.3-0.1,0.5-0.2c0,0.1,0.1,0.2,0.2,0.2l0.2,0c0.2,0,0.3,0,0.4,0c0.1,0,0.2-0.1,0.2-0.2c0-0.1,0-0.3,0-0.5c0-0.2,0-0.4,0-0.5
		c0-0.3,0-0.6,0.1-0.9L17,18.8z M15.8,20.1c-0.1,0.1-0.1,0.1-0.2,0.1h0c-0.1,0-0.2,0-0.2-0.1c-0.1-0.1-0.1-0.1-0.1-0.2
		c0-0.1,0-0.2,0.1-0.2c0.1-0.1,0.1-0.1,0.2-0.1h0c0.1,0,0.2,0,0.2,0.1c0.1,0.1,0.1,0.1,0.1,0.2C15.9,19.9,15.9,20,15.8,20.1z"/>
	<path fill="#626666" d="M18.3,19.4c-0.1-0.1-0.1-0.1-0.1-0.1c0,0,0-0.1,0-0.1c0,0,0.1,0,0.3-0.1l0.1,0l0-0.1l0.1-0.1l0,0
		c0,0,0-0.1-0.2-0.3c-0.2-0.2-0.2-0.3-0.3-0.3h0c-0.3,0-0.5,0.1-0.7,0.3c-0.2,0.2-0.4,0.4-0.3,0.7c0,0.1,0.1,0.3,0.2,0.4
		c0,0,0.1,0.1,0.2,0.2c0.1,0.1,0.1,0.1,0.1,0.1c0,0,0,0.1-0.1,0.1l-0.3,0.1l-0.1,0.1l0,0.1c0,0,0,0.1,0.2,0.3
		c0.2,0.2,0.2,0.3,0.3,0.3h0c0.2,0,0.3-0.1,0.5-0.2c0.2-0.1,0.3-0.2,0.4-0.3c0.1-0.1,0.1-0.2,0.1-0.3c0-0.1,0-0.2,0-0.3
		c0-0.2-0.1-0.3-0.2-0.4C18.5,19.6,18.5,19.5,18.3,19.4z"/>
	<path fill="#626666" d="M22.9,19.2c-0.1-0.1-0.2-0.2-0.2-0.2c0.1,0,0.1,0,0.1,0c0.1,0,0.2-0.2,0.1-0.4c-0.1-0.3-0.3-0.6-0.6-0.7
		c-0.2-0.1-0.4-0.2-0.6-0.2c-0.1,0-0.2,0-0.3,0c-0.4,0.1-0.6,0.3-0.8,0.6c-0.1,0.2-0.1,0.4-0.1,0.6l-0.1-0.1h-0.1
		c-0.1,0-0.4,0.1-0.4,0.1c0-0.1,0-0.1,0-0.3c0-0.1,0-0.2,0-0.3c0-0.1-0.1-0.1-0.2-0.1c0,0-0.4,0-0.4,0l-0.2,0c0,0-0.1,0-0.1,0
		l-0.1,0l0,0c0,0.1,0,0.1,0,0.4L19,19c0,0.1,0,0.2,0,0.2h0c-0.2,0-0.2,0.1-0.2,0.2l0.1,0.3l0,0.2c0,0.1,0.1,0.1,0.2,0.1l0.1,0
		c0,0.1,0,0.2,0.1,0.4c0,0.2,0.1,0.4,0.1,0.5c0.1,0.3,0.3,0.5,0.6,0.5c0.1,0,0.2,0,0.2,0c0.3,0,0.5-0.1,0.7-0.3C20.9,21,21,21,21,21
		l0-0.1l0,0c0,0,0-0.1,0-0.2c0-0.1,0-0.2,0-0.2l-0.1-0.1h-0.1c0,0-0.1,0-0.2,0.1c-0.1,0-0.1,0-0.1,0l-0.1,0c0,0,0-0.1-0.1-0.2l0-0.2
		l0-0.1l0.4-0.1l0.2-0.1l-0.1-0.3c0.1,0.3,0.3,0.6,0.6,0.7c0.2,0.1,0.4,0.1,0.6,0.1c0.1,0,0.3,0,0.4-0.1c0.4-0.1,0.7-0.3,0.8-0.6
		l0-0.1l0,0C23.1,19.5,23.1,19.4,22.9,19.2z M21.5,18.7c0-0.1,0.1-0.1,0.1-0.1l0.1,0c0,0,0.1,0,0.1,0c0,0,0.1,0.1,0.1,0.1
		c0,0,0,0,0,0c-0.2,0.1-0.4,0.2-0.4,0.2C21.5,18.8,21.5,18.7,21.5,18.7z M22.4,19.2c-0.1,0.1-0.2,0.2-0.3,0.2c0,0-0.1,0-0.2,0
		c0,0-0.1,0-0.1,0c0,0,0,0,0,0C22.1,19.3,22.4,19.2,22.4,19.2L22.4,19.2z"/>
	<path fill="#626666" d="M30.7,17.5c-0.1-0.2-0.2-0.3-0.4-0.4C30.1,17.1,30,17,29.8,17c0,0,0,0,0,0c-0.1,0-0.2,0-0.3,0
		c0-0.1-0.1-0.2-0.1-0.3c-0.1-0.1-0.2-0.2-0.3-0.3c-0.1-0.1-0.3-0.1-0.4-0.1c-0.1,0-0.2,0-0.3,0c0-0.1,0.1-0.2,0-0.3
		c-0.1,0-0.1,0-0.2-0.1c-0.1,0-0.2,0-0.2,0L27.7,16c-0.1,0-0.2-0.1-0.2-0.1l-0.1,0.1l0,0.1c-0.1,0.3-0.2,0.5-0.3,0.7
		c0-0.1-0.1-0.2-0.2-0.5c-0.2-0.3-0.2-0.4-0.3-0.4l-0.2,0h0c-0.1,0-0.5,0.3-0.6,0.3l-0.1,0.1l0,0l0,0.1c0,0,0.1,0.1,0.1,0.2
		c0,0.1,0.1,0.1,0.1,0.2c0.1,0.1,0.1,0.3,0.2,0.4c0,0,0,0.1,0,0.3c0,0.1,0,0.1,0,0.2c0,0-0.1,0-0.2-0.1c-0.2-0.1-0.2-0.2-0.2-0.2
		c0-0.1-0.1-0.2-0.2-0.3c0,0-0.2-0.3-0.2-0.3l-0.2-0.1H25c-0.1,0-0.6,0.3-0.6,0.3c-0.1,0-0.1,0.1-0.1,0.1l0,0c0,0,0-0.1-0.1-0.1
		l-0.1,0l0,0c-0.1,0.1-0.3,0.2-0.4,0.3c0,0,0,0,0,0.1c0-0.1-0.1-0.1-0.2-0.1c0,0,0,0,0,0c0,0,0,0-0.3,0.2c-0.1,0.1-0.2,0.1-0.3,0.2
		l0,0.2l0,0.1c0.1,0.2,0.3,0.4,0.4,0.8l0.2,0.4l0.1,0.2l0.2,0.4l0.1,0.1h0.1l0.1,0c0.1,0,0.2-0.1,0.3-0.1c0.1-0.1,0.2-0.1,0.3-0.1
		l0.1-0.1c0,0-0.2-0.4-0.2-0.5l-0.2-0.6c0-0.1,0-0.2,0-0.2c0,0,0,0,0.2-0.1l0.2-0.1c0.1,0,0.2-0.2,0.1-0.3l0-0.1
		c0.1,0.3,0.2,0.3,0.2,0.4c0,0,0.2,0.1,0.6,0.3c0.3,0.1,0.4,0.2,0.4,0.2c0,0,0,0,0,0c0,0,0,0.1,0,0.1c-0.1,0.1-0.2,0.2-0.3,0.3
		L25.3,19l0.1,0.1c0,0,0,0.1,0.2,0.1l0.4,0.3c0,0,0.1,0,0.2-0.1c0.6-0.3,0.6-0.4,0.6-0.4c0,0,0-0.1,0.1-0.6l0-0.2
		c0.1,0.1,0.2,0.1,0.3,0.1c0,0,0.1,0,0.1,0c0,0,0,0,0,0l0.1-0.1l0.6-1.2c0,0,0,0,0.2,0l0.2,0.1c0,0,0,0.1,0,0.2l-0.2,0.5
		c0,0.1-0.3,0.6-0.3,0.6c0,0.1,0,0.1,0,0.2l0,0.1l0.8,0.3l0.1,0c0,0,0.3-0.6,0.3-0.7c0.1-0.3,0.2-0.4,0.2-0.5c0,0,0.1-0.1,0.1-0.1
		l0.2,0c0.1,0,0.1,0.1,0.1,0.2c0,0.1-0.1,0.3-0.2,0.5c0,0.1-0.3,0.6-0.3,0.6c-0.1,0.2,0,0.3,0,0.3c0,0,0.1,0.1,0.3,0.2
		c0.2,0.1,0.3,0.1,0.3,0.1l0.1,0l0.1-0.1l0.4-0.9l0.3-0.7C30.8,17.9,30.8,17.7,30.7,17.5z"/>
	<path fill="#B2838D" d="M8.2,19.5c0,0-0.1,0.1-0.1,0.1c0,0-0.1-0.1-0.3-0.1c-0.2-0.1-0.3-0.1-0.3-0.2c0,0,0-0.1,0-0.1
		c0-0.1,0.1-0.2,0.1-0.3c0.1-0.1,0.1-0.2,0.1-0.3C7.9,18.3,8,18.2,8,18c0.1-0.2,0-0.3-0.1-0.4c-0.1,0-0.1,0-0.2,0
		c-0.1,0-0.2,0.1-0.2,0.1c0,0.1-0.1,0.2-0.3,0.5c0,0.1-0.1,0.2-0.1,0.3C7,18.7,7,18.8,7,18.9c0,0-0.1,0.1-0.1,0l-0.6-0.3
		c0,0,0-0.1,0-0.1c0-0.1,0.1-0.2,0.1-0.3C6.4,18.1,6.5,18,6.5,18c0-0.1,0.1-0.1,0.1-0.2c0-0.1,0.1-0.2,0.1-0.2
		c0.1-0.2,0.1-0.3-0.1-0.4c-0.1,0-0.1,0-0.2,0c-0.1,0-0.2,0-0.2,0.1c-0.1,0.1-0.2,0.3-0.3,0.6c-0.1,0.2-0.2,0.4-0.3,0.6
		c0,0,0,0.1,0,0.1c0,0,0,0-0.1,0c-0.1,0-0.2-0.1-0.3-0.1c-0.1,0-0.2-0.1-0.3-0.2c0,0,0,0-0.1,0c0,0,0,0,0-0.1
		c0.1-0.1,0.1-0.3,0.2-0.5c0.1-0.2,0.2-0.4,0.2-0.5c0.1-0.2,0.2-0.5,0.3-0.8c0,0,0,0,0,0c0,0,0,0,0.1,0c0,0,0.1,0,0.2,0.1
		c0.1,0,0.2,0.1,0.2,0.1c0,0,0.1,0,0.2,0c0.1,0,0.1,0,0.2,0.1c0,0,0,0.1,0,0.2c0,0.1-0.1,0.1-0.1,0.2c0,0,0,0,0.1,0
		c0.2,0,0.3-0.1,0.4-0.1c0.1,0,0.3,0,0.4,0.1c0.1,0.1,0.2,0.1,0.3,0.2c0.1,0.1,0.1,0.2,0.1,0.4c0.1-0.1,0.3-0.1,0.4-0.1
		c0.2,0,0.3,0,0.4,0.1c0.2,0.1,0.3,0.2,0.4,0.3c0.1,0.2,0.1,0.3,0,0.5c0,0.1-0.1,0.2-0.2,0.3c-0.1,0.1-0.1,0.3-0.2,0.3
		c0,0.1-0.1,0.2-0.2,0.4C8.3,19.3,8.3,19.4,8.2,19.5z"/>
	<path fill="#5A8E55" d="M11.4,19.3c-0.1,0.3-0.3,0.6-0.5,0.7c-0.3,0.1-0.6,0.2-0.9,0.1c-0.3-0.1-0.6-0.3-0.7-0.5
		C9.1,19.3,9,19,9.1,18.7c0.1-0.3,0.3-0.6,0.5-0.7c0.3-0.2,0.6-0.2,0.9-0.1c0.3,0.1,0.6,0.3,0.7,0.5C11.4,18.7,11.5,19,11.4,19.3z
		 M10.6,19.1c0-0.1,0-0.2,0-0.3c0-0.1-0.1-0.2-0.2-0.2c-0.1,0-0.2,0-0.3,0.1c-0.1,0.1-0.2,0.2-0.2,0.3c0,0.1,0,0.2,0,0.3
		c0,0.1,0.1,0.2,0.2,0.2c0.1,0,0.2,0,0.3-0.1C10.5,19.3,10.6,19.2,10.6,19.1z"/>
	<path fill="#4F80B2" d="M13.8,20.8C13.8,20.9,13.8,20.9,13.8,20.8c-0.1,0.1-0.2,0-0.4,0c-0.2,0-0.3-0.1-0.4-0.1S13,20.7,13,20.7
		c0-0.1,0-0.2,0.1-0.3c0-0.1,0-0.3,0.1-0.3c0-0.1,0-0.1,0-0.3c0-0.1,0-0.2,0-0.3c0-0.2,0-0.3-0.2-0.4c-0.1,0-0.1,0-0.2,0
		c-0.1,0-0.1,0.1-0.2,0.2l-0.2,1.2c0,0,0,0.1-0.1,0.1c-0.1,0-0.2,0-0.3,0c-0.2,0-0.3,0-0.3-0.1c0,0-0.1,0-0.1-0.1
		c0-0.1,0-0.3,0.1-0.5c0-0.2,0.1-0.4,0.1-0.5c0.1-0.4,0.1-0.7,0-0.9c0,0,0,0,0,0c0,0,0,0,0,0c0.1,0,0.2,0,0.4,0c0.2,0,0.4,0,0.4,0
		c0,0,0,0.1,0,0.2c0,0.1,0,0.2,0,0.2c0,0,0.1,0,0.3-0.1c0.2-0.1,0.4-0.1,0.5-0.1c0.2,0,0.3,0.1,0.5,0.2c0.1,0.1,0.2,0.3,0.1,0.5
		L14,19.9c0,0.1,0,0.2-0.1,0.4C13.9,20.6,13.8,20.7,13.8,20.8z"/>
	<path fill="#CCC381" d="M16.8,19.8c0,0.1,0,0.3,0,0.5c0,0.2,0,0.4,0,0.5c0,0.1,0,0.1-0.1,0.1c-0.2,0-0.4,0-0.7,0c0,0,0,0-0.1-0.1
		c0-0.1,0-0.1,0-0.1c0,0,0,0,0,0c-0.2,0.2-0.4,0.3-0.6,0.2c-0.3,0-0.5-0.1-0.7-0.4c-0.2-0.2-0.3-0.5-0.3-0.8c0-0.4,0.1-0.6,0.3-0.8
		c0.2-0.2,0.5-0.3,0.8-0.3c0.2,0,0.4,0.1,0.6,0.3c0,0,0,0,0,0c0,0,0,0,0-0.1c0-0.1,0-0.1,0.1-0.1c0.1,0,0.2,0,0.3,0.1
		c0.2,0,0.3,0.1,0.3,0.1c0,0,0,0,0,0c0,0,0,0,0,0C16.8,19.2,16.8,19.5,16.8,19.8z M16,19.8c0-0.1,0-0.2-0.1-0.3
		c-0.1-0.1-0.2-0.1-0.3-0.1c-0.1,0-0.2,0-0.3,0.1c-0.1,0.1-0.1,0.2-0.1,0.3c0,0.1,0,0.2,0.1,0.3c0.1,0.1,0.2,0.1,0.3,0.1
		c0.1,0,0.2,0,0.3-0.1C16,20.1,16,20,16,19.8z"/>
	<path fill="#5A8E55" d="M18.6,19C18.6,19,18.6,19,18.6,19C18.5,19,18.5,19,18.4,19c-0.1,0-0.2,0-0.2,0.1c-0.1,0.1-0.1,0.1-0.1,0.2
		c0,0.1,0,0.1,0.1,0.2c0.1,0.1,0.2,0.2,0.2,0.2c0.1,0.1,0.1,0.2,0.1,0.4c0,0.1,0,0.2,0,0.3c0,0.1-0.1,0.2-0.1,0.2
		c-0.1,0.1-0.2,0.2-0.4,0.3C18,20.9,17.8,21,17.7,21c0,0-0.1-0.1-0.2-0.2c-0.1-0.2-0.2-0.3-0.2-0.3c0,0,0,0,0,0
		c0.1,0,0.2-0.1,0.3-0.1c0.1-0.1,0.2-0.1,0.2-0.2c0-0.1-0.1-0.1-0.1-0.2c-0.2-0.1-0.2-0.2-0.2-0.2c-0.1-0.1-0.1-0.2-0.1-0.3
		c0-0.2,0.1-0.4,0.3-0.6c0.2-0.2,0.4-0.3,0.6-0.3c0,0,0.1,0.1,0.2,0.2C18.5,18.8,18.6,18.9,18.6,19z"/>
	<path fill="#B2838D" d="M20.8,20.4c0,0,0,0.1,0,0.2c0,0.1,0,0.2,0,0.2c0,0,0,0.1,0,0.1c0,0,0,0-0.1,0.1c-0.2,0.1-0.4,0.2-0.6,0.3
		c-0.4,0.1-0.7-0.1-0.7-0.4c0-0.1,0-0.2-0.1-0.4c0-0.2-0.1-0.4-0.1-0.4c0-0.1-0.1-0.1-0.1-0.1c0,0,0,0,0,0c0,0,0,0,0,0
		c-0.1,0-0.1,0-0.1,0c0,0,0-0.1,0-0.1c0-0.1,0-0.1,0-0.1c0,0,0-0.1,0-0.1c0-0.1,0-0.1,0-0.1c0,0,0-0.1,0.1-0.1c0.1,0,0.1,0,0.1-0.1
		c0-0.1,0-0.1,0-0.3c0-0.2-0.1-0.3-0.1-0.3c0-0.2,0-0.3,0-0.3c0,0,0.1,0,0.2,0c0.1,0,0.2,0,0.2,0c0.1,0,0.2,0,0.4,0c0,0,0.1,0,0.1,0
		c0,0.1,0,0.2,0,0.3c0,0.1,0,0.2,0,0.3c0,0.1,0,0.1,0.1,0.1c0.1,0,0.1,0,0.2,0c0.1,0,0.2,0,0.2,0c0,0,0.1,0,0.1,0c0,0,0,0.1,0,0.2
		c0,0.1,0,0.1,0,0.2c0,0,0,0.1,0,0.2c0,0.1,0,0.1,0,0.2c0,0,0,0.1-0.1,0.1c0,0-0.1,0-0.2,0c-0.1,0-0.1,0-0.2,0l-0.2,0c0,0,0,0,0,0.1
		c0,0,0,0.1,0,0.2c0,0.1,0,0.1,0,0.2c0,0.1,0.1,0.2,0.1,0.3c0.1,0.1,0.1,0.1,0.3,0.1c0,0,0.1,0,0.2-0.1
		C20.7,20.4,20.7,20.4,20.8,20.4C20.8,20.4,20.8,20.4,20.8,20.4z"/>
	<path fill="#4F80B2" d="M22.9,18.6c0,0.1,0,0.2-0.1,0.3c0,0-0.2,0.1-0.4,0.2c-0.2,0.1-0.4,0.2-0.8,0.3c0,0.1,0.1,0.1,0.2,0.2
		c0.1,0,0.2,0,0.3,0c0.1,0,0.3-0.1,0.4-0.2c0-0.1,0.1-0.1,0.1-0.2c0,0,0.1,0.1,0.2,0.2c0.1,0.1,0.2,0.2,0.2,0.2c0,0,0,0,0,0.1
		c-0.1,0.2-0.4,0.4-0.8,0.5c-0.3,0.1-0.7,0.1-0.9-0.1c-0.3-0.1-0.5-0.4-0.6-0.7c-0.1-0.3-0.1-0.6,0.1-0.9c0.1-0.3,0.4-0.5,0.7-0.6
		c0.3-0.1,0.6,0,0.8,0.1C22.6,18.1,22.8,18.3,22.9,18.6z M22,18.7c0-0.1-0.1-0.2-0.2-0.2c-0.1-0.1-0.2-0.1-0.3,0
		c-0.1,0-0.2,0.1-0.2,0.2c0,0.1,0,0.2,0,0.3c0,0,0,0.1,0.1,0C21.6,18.9,21.8,18.9,22,18.7C22,18.7,22,18.7,22,18.7z"/>
	<path fill="#CCC381" d="M24.5,17.7c0,0.1,0,0.1-0.1,0.1c0,0-0.1,0-0.1,0c-0.1,0-0.1,0-0.1,0c-0.1,0-0.2,0.1-0.2,0.2
		c0,0.1,0,0.1,0,0.2c0,0.1,0.1,0.2,0.1,0.3c0.1,0.1,0.1,0.2,0.1,0.3c0,0,0,0.1,0.1,0.2c0,0.1,0.1,0.1,0.1,0.2c0,0,0,0.1,0,0.1
		c-0.1,0-0.2,0.1-0.3,0.1c-0.1,0.1-0.2,0.1-0.3,0.1c0,0-0.1,0-0.1,0c0-0.1-0.1-0.3-0.2-0.5c-0.1-0.2-0.2-0.4-0.2-0.5
		c-0.1-0.3-0.3-0.6-0.4-0.8c0,0,0,0,0,0c0,0,0,0,0-0.1c0.1,0,0.2-0.1,0.3-0.2c0.2-0.1,0.3-0.2,0.3-0.2c0,0,0.1,0,0.1,0.1
		c0,0.1,0.1,0.1,0.1,0.1c0,0,0-0.1,0.1-0.2c0.1-0.1,0.2-0.2,0.3-0.3c0.1,0,0.1,0,0.1,0c0,0,0,0.1,0.1,0.2c0,0.1,0,0.1,0.1,0.2
		c0,0,0,0.1,0.1,0.2C24.5,17.7,24.5,17.7,24.5,17.7z"/>
	<path fill="#B2838D" d="M26.7,16.4c0.1,0.3,0.2,0.4,0.2,0.5c0,0.1,0,0.4,0,1c0,0.1,0,0.3-0.1,0.6c-0.1,0.4-0.1,0.6-0.1,0.6
		c0,0-0.2,0.2-0.6,0.4c-0.1,0-0.1,0-0.1,0c0,0-0.1-0.1-0.2-0.2c0,0-0.1-0.1-0.1-0.1c-0.1-0.1-0.1-0.1-0.1-0.1c0,0,0,0,0-0.1
		c0.4-0.2,0.5-0.4,0.4-0.6c0,0-0.2-0.1-0.5-0.3c-0.3-0.2-0.5-0.3-0.6-0.3c0,0-0.1-0.2-0.2-0.4c0,0-0.1-0.1-0.1-0.2
		c-0.1-0.1-0.1-0.2-0.1-0.2c0,0,0-0.1,0-0.1c0.1,0,0.2-0.1,0.3-0.2c0.1-0.1,0.2-0.1,0.3-0.2c0,0,0.1,0,0.1,0c0,0,0,0.1,0.1,0.2
		c0,0.1,0.1,0.1,0.1,0.2c0.1,0.2,0.2,0.3,0.2,0.3c0,0,0.1,0.1,0.3,0.2c0.2,0.1,0.2,0.1,0.3,0.1c0,0,0-0.1,0.1-0.3c0-0.2,0-0.3,0-0.3
		c-0.1-0.1-0.1-0.3-0.2-0.4c0,0-0.1-0.1-0.1-0.2c0-0.1-0.1-0.1-0.1-0.2c0,0,0,0,0-0.1c0.1,0,0.2-0.1,0.3-0.2
		c0.1-0.1,0.2-0.1,0.3-0.2c0,0,0.1,0,0.1,0C26.5,16,26.6,16.1,26.7,16.4z"/>
	<path fill="#5A8E55" d="M29.9,19.5c0,0-0.1,0.1-0.1,0.1c0,0-0.1-0.1-0.3-0.1c-0.2-0.1-0.3-0.1-0.3-0.2c0,0,0-0.1,0-0.1
		c0-0.1,0.1-0.2,0.1-0.3c0.1-0.1,0.1-0.2,0.1-0.3c0.1-0.2,0.2-0.4,0.2-0.5c0.1-0.2,0-0.3-0.1-0.4c-0.1,0-0.1,0-0.2,0
		c-0.1,0-0.2,0.1-0.2,0.1c0,0.1-0.1,0.2-0.3,0.5c0,0.1-0.1,0.2-0.1,0.3c-0.1,0.1-0.1,0.2-0.1,0.3c0,0-0.1,0.1-0.1,0l-0.6-0.3
		c0,0,0-0.1,0-0.1c0-0.1,0.1-0.2,0.1-0.3c0.1-0.1,0.1-0.2,0.1-0.3c0-0.1,0.1-0.1,0.1-0.2c0-0.1,0.1-0.2,0.1-0.2
		c0.1-0.2,0.1-0.3-0.1-0.4c-0.1,0-0.1,0-0.2,0c-0.1,0-0.2,0-0.2,0.1c-0.1,0.1-0.2,0.3-0.3,0.6c-0.1,0.2-0.2,0.4-0.3,0.6
		c0,0,0,0.1,0,0.1c0,0,0,0-0.1,0c-0.1,0-0.2-0.1-0.3-0.1c-0.1,0-0.2-0.1-0.3-0.2c0,0,0,0-0.1,0c0,0,0,0,0-0.1
		c0.1-0.1,0.1-0.3,0.2-0.5c0.1-0.2,0.2-0.4,0.2-0.5c0.1-0.2,0.2-0.5,0.3-0.8c0,0,0,0,0,0c0,0,0,0,0.1,0c0,0,0.1,0,0.2,0.1
		c0.1,0,0.2,0.1,0.2,0.1c0,0,0.1,0,0.2,0c0.1,0,0.1,0,0.2,0.1c0,0,0,0.1,0,0.2s-0.1,0.1-0.1,0.2c0,0,0,0,0.1,0
		c0.2,0,0.3-0.1,0.4-0.1c0.1,0,0.3,0,0.4,0.1c0.1,0.1,0.2,0.1,0.3,0.2c0.1,0.1,0.1,0.2,0.1,0.4c0.1-0.1,0.3-0.1,0.4-0.1
		c0.2,0,0.3,0,0.4,0.1c0.2,0.1,0.3,0.2,0.4,0.3c0.1,0.2,0.1,0.3,0,0.5c0,0.1-0.1,0.2-0.2,0.3c-0.1,0.1-0.1,0.3-0.2,0.3
		c0,0.1-0.1,0.2-0.2,0.4C30,19.3,29.9,19.4,29.9,19.5z"/>
	<path fill="#C4BCB1" d="M2.8,17.7c0,0.1,0,0.1-0.1,0.1c0,0-0.1,0-0.1,0c-0.1,0-0.1,0-0.1,0c-0.1,0-0.2,0.1-0.2,0.2
		c0,0.1,0,0.1,0,0.2c0,0.1,0.1,0.2,0.1,0.3c0.1,0.1,0.1,0.2,0.1,0.3c0,0,0,0.1,0.1,0.2c0,0.1,0.1,0.1,0.1,0.2c0,0,0,0.1,0,0.1
		c-0.1,0-0.2,0.1-0.3,0.1c-0.1,0.1-0.2,0.1-0.3,0.1c0,0-0.1,0-0.1,0c0-0.1-0.1-0.3-0.2-0.5c-0.1-0.2-0.2-0.4-0.2-0.5
		c-0.1-0.3-0.3-0.6-0.4-0.8c0,0,0,0,0,0c0,0,0,0,0-0.1c0.1,0,0.2-0.1,0.3-0.2c0.2-0.1,0.3-0.2,0.3-0.2c0,0,0.1,0,0.1,0.1
		c0,0.1,0.1,0.1,0.1,0.1c0,0,0-0.1,0.1-0.2c0.1-0.1,0.2-0.2,0.3-0.3c0.1,0,0.1,0,0.1,0c0,0,0,0.1,0.1,0.2c0,0.1,0,0.1,0.1,0.2
		c0,0,0,0.1,0.1,0.2C2.8,17.7,2.8,17.7,2.8,17.7z"/>
	<path fill="#CCC381" d="M5,16.4c0.1,0.3,0.2,0.4,0.2,0.5c0,0.1,0,0.4,0,1c0,0.1,0,0.3-0.1,0.6C5,18.8,5,19,5,19.1
		c0,0-0.2,0.2-0.6,0.4c-0.1,0-0.1,0-0.1,0c0,0-0.1-0.1-0.2-0.2c0,0-0.1-0.1-0.1-0.1c-0.1-0.1-0.1-0.1-0.1-0.1c0,0,0,0,0-0.1
		c0.4-0.2,0.5-0.4,0.4-0.6c0,0-0.2-0.1-0.5-0.3c-0.3-0.2-0.5-0.3-0.6-0.3c0,0-0.1-0.2-0.2-0.4c0,0-0.1-0.1-0.1-0.2
		c-0.1-0.1-0.1-0.2-0.1-0.2c0,0,0-0.1,0-0.1c0.1,0,0.2-0.1,0.3-0.2c0.1-0.1,0.2-0.1,0.3-0.2c0,0,0.1,0,0.1,0c0,0,0,0.1,0.1,0.2
		c0,0.1,0.1,0.1,0.1,0.2c0.1,0.2,0.2,0.3,0.2,0.3c0,0,0.1,0.1,0.3,0.2c0.2,0.1,0.2,0.1,0.3,0.1c0,0,0-0.1,0.1-0.3c0-0.2,0-0.3,0-0.3
		c-0.1-0.1-0.1-0.3-0.2-0.4c0,0-0.1-0.1-0.1-0.2c0-0.1-0.1-0.1-0.1-0.2c0,0,0,0,0-0.1c0.1,0,0.2-0.1,0.3-0.2C4.5,16,4.6,16,4.6,15.9
		c0,0,0.1,0,0.1,0C4.8,16,4.9,16.1,5,16.4z"/>
</g>
<g>
	<g>
		<path fill="#586689" d="M8.2,23.6c0,0-0.1,0.1-0.1,0.1c0,0-0.1-0.1-0.3-0.1c-0.2-0.1-0.3-0.1-0.3-0.2c0,0,0-0.1,0-0.1
			c0-0.1,0.1-0.2,0.1-0.3c0.1-0.1,0.1-0.2,0.1-0.3C7.9,22.4,8,22.3,8,22.1c0.1-0.2,0-0.3-0.1-0.4c-0.1,0-0.1,0-0.2,0
			c-0.1,0-0.2,0.1-0.2,0.1c0,0.1-0.1,0.2-0.3,0.5c0,0.1-0.1,0.2-0.1,0.3C7,22.8,7,22.9,7,23c0,0-0.1,0.1-0.1,0l-0.6-0.3
			c0,0,0-0.1,0-0.1c0-0.1,0.1-0.2,0.1-0.3c0.1-0.1,0.1-0.2,0.1-0.3c0-0.1,0.1-0.1,0.1-0.2c0-0.1,0.1-0.2,0.1-0.2
			c0.1-0.2,0.1-0.3-0.1-0.4c-0.1,0-0.1,0-0.2,0c-0.1,0-0.2,0-0.2,0.1c-0.1,0.1-0.2,0.3-0.3,0.6c-0.1,0.2-0.2,0.4-0.3,0.6
			c0,0,0,0.1,0,0.1c0,0,0,0-0.1,0c-0.1,0-0.2-0.1-0.3-0.1c-0.1,0-0.2-0.1-0.3-0.2c0,0,0,0-0.1,0c0,0,0,0,0-0.1
			c0.1-0.1,0.1-0.3,0.2-0.5c0.1-0.2,0.2-0.4,0.2-0.5c0.1-0.2,0.2-0.5,0.3-0.8c0,0,0,0,0,0c0,0,0,0,0.1,0c0,0,0.1,0,0.2,0.1
			c0.1,0,0.2,0.1,0.2,0.1c0,0,0.1,0,0.2,0c0.1,0,0.1,0,0.2,0.1c0,0,0,0.1,0,0.2c0,0.1-0.1,0.1-0.1,0.2c0,0,0,0,0.1,0
			c0.2,0,0.3-0.1,0.4-0.1c0.1,0,0.3,0,0.4,0.1c0.1,0.1,0.2,0.1,0.3,0.2c0.1,0.1,0.1,0.2,0.1,0.4c0.1-0.1,0.3-0.1,0.4-0.1
			c0.2,0,0.3,0,0.4,0.1c0.2,0.1,0.3,0.2,0.4,0.3C9,21.8,9,22,8.9,22.2c0,0.1-0.1,0.2-0.2,0.3c-0.1,0.1-0.1,0.3-0.2,0.3
			c0,0.1-0.1,0.2-0.2,0.4C8.3,23.4,8.3,23.5,8.2,23.6z"/>
		<path fill="#586689" d="M11.4,23.4c-0.1,0.3-0.3,0.6-0.5,0.7c-0.3,0.1-0.6,0.2-0.9,0.1c-0.3-0.1-0.6-0.3-0.7-0.5
			c-0.1-0.3-0.2-0.6-0.1-0.9c0.1-0.3,0.3-0.6,0.5-0.7c0.3-0.2,0.6-0.2,0.9-0.1c0.3,0.1,0.6,0.3,0.7,0.5
			C11.4,22.8,11.5,23.1,11.4,23.4z M10.6,23.2c0-0.1,0-0.2,0-0.3c0-0.1-0.1-0.2-0.2-0.2c-0.1,0-0.2,0-0.3,0.1
			C10,22.8,9.9,22.9,9.9,23c0,0.1,0,0.2,0,0.3c0,0.1,0.1,0.2,0.2,0.2c0.1,0,0.2,0,0.3-0.1C10.5,23.4,10.6,23.3,10.6,23.2z"/>
		<path fill="#586689" d="M13.8,24.9C13.8,24.9,13.8,25,13.8,24.9c-0.1,0.1-0.2,0-0.4,0c-0.2,0-0.3-0.1-0.4-0.1c0,0-0.1-0.1-0.1-0.1
			c0-0.1,0-0.2,0.1-0.3c0-0.1,0-0.3,0.1-0.3c0-0.1,0-0.1,0-0.3c0-0.1,0-0.2,0-0.3c0-0.2,0-0.3-0.2-0.4c-0.1,0-0.1,0-0.2,0
			c-0.1,0-0.1,0.1-0.2,0.2l-0.2,1.2c0,0,0,0.1-0.1,0.1c-0.1,0-0.2,0-0.3,0c-0.2,0-0.3,0-0.3-0.1c0,0-0.1,0-0.1-0.1
			c0-0.1,0-0.3,0.1-0.5c0-0.2,0.1-0.4,0.1-0.5c0.1-0.4,0.1-0.7,0-0.9c0,0,0,0,0,0c0,0,0,0,0,0c0.1,0,0.2,0,0.4,0c0.2,0,0.4,0,0.4,0
			c0,0,0,0.1,0,0.2s0,0.2,0,0.2c0,0,0.1,0,0.3-0.1c0.2-0.1,0.4-0.1,0.5-0.1c0.2,0,0.3,0.1,0.5,0.2c0.1,0.1,0.2,0.3,0.1,0.5L14,24
			c0,0.1,0,0.2-0.1,0.4C13.9,24.7,13.8,24.8,13.8,24.9z"/>
		<path fill="#586689" d="M16.8,23.9c0,0.1,0,0.3,0,0.5c0,0.2,0,0.4,0,0.5c0,0.1,0,0.1-0.1,0.1c-0.2,0-0.4,0-0.7,0c0,0,0,0-0.1-0.1
			c0-0.1,0-0.1,0-0.1c0,0,0,0,0,0c-0.2,0.2-0.4,0.3-0.6,0.2c-0.3,0-0.5-0.1-0.7-0.4c-0.2-0.2-0.3-0.5-0.3-0.8c0-0.4,0.1-0.6,0.3-0.8
			c0.2-0.2,0.5-0.3,0.8-0.3c0.2,0,0.4,0.1,0.6,0.3c0,0,0,0,0,0c0,0,0,0,0-0.1c0-0.1,0-0.1,0.1-0.1c0.1,0,0.2,0,0.3,0.1
			c0.2,0,0.3,0.1,0.3,0.1c0,0,0,0,0,0c0,0,0,0,0,0C16.8,23.3,16.8,23.6,16.8,23.9z M16,23.9c0-0.1,0-0.2-0.1-0.3
			c-0.1-0.1-0.2-0.1-0.3-0.1c-0.1,0-0.2,0-0.3,0.1c-0.1,0.1-0.1,0.2-0.1,0.3c0,0.1,0,0.2,0.1,0.3c0.1,0.1,0.2,0.1,0.3,0.1
			c0.1,0,0.2,0,0.3-0.1C16,24.2,16,24.1,16,23.9z"/>
		<path fill="#586689" d="M18.6,23.1C18.6,23.1,18.6,23.1,18.6,23.1c-0.1,0.1-0.1,0.1-0.2,0.1c-0.1,0-0.2,0-0.2,0.1
			c-0.1,0.1-0.1,0.1-0.1,0.2c0,0.1,0,0.1,0.1,0.2c0.1,0.1,0.2,0.2,0.2,0.2c0.1,0.1,0.1,0.2,0.1,0.4c0,0.1,0,0.2,0,0.3
			c0,0.1-0.1,0.2-0.1,0.2c-0.1,0.1-0.2,0.2-0.4,0.3c-0.2,0.1-0.3,0.1-0.4,0.1c0,0-0.1-0.1-0.2-0.2c-0.1-0.2-0.2-0.3-0.2-0.3
			c0,0,0,0,0,0c0.1,0,0.2-0.1,0.3-0.1c0.1-0.1,0.2-0.1,0.2-0.2c0-0.1-0.1-0.1-0.1-0.2c-0.2-0.1-0.2-0.2-0.2-0.2
			c-0.1-0.1-0.1-0.2-0.1-0.3c0-0.2,0.1-0.4,0.3-0.6c0.2-0.2,0.4-0.3,0.6-0.3c0,0,0.1,0.1,0.2,0.2C18.5,22.9,18.6,23,18.6,23.1z"/>
		<path fill="#586689" d="M20.8,24.5c0,0,0,0.1,0,0.2c0,0.1,0,0.2,0,0.2c0,0,0,0.1,0,0.1c0,0,0,0-0.1,0.1c-0.2,0.1-0.4,0.2-0.6,0.3
			c-0.4,0.1-0.7-0.1-0.7-0.4c0-0.1,0-0.2-0.1-0.4c0-0.2-0.1-0.4-0.1-0.4c0-0.1-0.1-0.1-0.1-0.1c0,0,0,0,0,0c0,0,0,0,0,0
			c-0.1,0-0.1,0-0.1,0c0,0,0-0.1,0-0.1c0-0.1,0-0.1,0-0.1c0,0,0-0.1,0-0.1c0-0.1,0-0.1,0-0.1c0,0,0-0.1,0.1-0.1c0.1,0,0.1,0,0.1-0.1
			c0-0.1,0-0.1,0-0.3c0-0.2-0.1-0.3-0.1-0.3c0-0.2,0-0.3,0-0.3c0,0,0.1,0,0.2,0c0.1,0,0.2,0,0.2,0c0.1,0,0.2,0,0.4,0
			c0,0,0.1,0,0.1,0c0,0.1,0,0.2,0,0.3c0,0.1,0,0.2,0,0.3c0,0.1,0,0.1,0.1,0.1c0.1,0,0.1,0,0.2,0c0.1,0,0.2,0,0.2,0c0,0,0.1,0,0.1,0
			c0,0,0,0.1,0,0.2c0,0.1,0,0.1,0,0.2c0,0,0,0.1,0,0.2c0,0.1,0,0.1,0,0.2c0,0,0,0.1-0.1,0.1c0,0-0.1,0-0.2,0c-0.1,0-0.1,0-0.2,0
			l-0.2,0c0,0,0,0,0,0.1c0,0,0,0.1,0,0.2c0,0.1,0,0.1,0,0.2c0,0.1,0.1,0.2,0.1,0.3c0.1,0.1,0.1,0.1,0.3,0.1c0,0,0.1,0,0.2-0.1
			C20.7,24.5,20.7,24.5,20.8,24.5C20.8,24.5,20.8,24.5,20.8,24.5z"/>
		<path fill="#586689" d="M22.9,22.7c0,0.1,0,0.2-0.1,0.3c0,0-0.2,0.1-0.4,0.2c-0.2,0.1-0.4,0.2-0.8,0.3c0,0.1,0.1,0.1,0.2,0.2
			c0.1,0,0.2,0,0.3,0c0.1,0,0.3-0.1,0.4-0.2c0-0.1,0.1-0.1,0.1-0.2c0,0,0.1,0.1,0.2,0.2c0.1,0.1,0.2,0.2,0.2,0.2c0,0,0,0,0,0.1
			c-0.1,0.2-0.4,0.4-0.8,0.5c-0.3,0.1-0.7,0.1-0.9-0.1c-0.3-0.1-0.5-0.4-0.6-0.7c-0.1-0.3-0.1-0.6,0.1-0.9c0.1-0.3,0.4-0.5,0.7-0.6
			c0.3-0.1,0.6,0,0.8,0.1C22.6,22.2,22.8,22.4,22.9,22.7z M22,22.8c0-0.1-0.1-0.2-0.2-0.2c-0.1-0.1-0.2-0.1-0.3,0
			c-0.1,0-0.2,0.1-0.2,0.2c0,0.1,0,0.2,0,0.3c0,0,0,0.1,0.1,0C21.6,23,21.8,23,22,22.8C22,22.8,22,22.8,22,22.8z"/>
		<path fill="#586689" d="M24.5,21.8c0,0.1,0,0.1-0.1,0.1c0,0-0.1,0-0.1,0c-0.1,0-0.1,0-0.1,0c-0.1,0-0.2,0.1-0.2,0.2
			c0,0.1,0,0.1,0,0.2c0,0.1,0.1,0.2,0.1,0.3c0.1,0.1,0.1,0.2,0.1,0.3c0,0,0,0.1,0.1,0.2c0,0.1,0.1,0.1,0.1,0.2c0,0,0,0.1,0,0.1
			c-0.1,0-0.2,0.1-0.3,0.1c-0.1,0.1-0.2,0.1-0.3,0.1c0,0-0.1,0-0.1,0c0-0.1-0.1-0.3-0.2-0.5c-0.1-0.2-0.2-0.4-0.2-0.5
			c-0.1-0.3-0.3-0.6-0.4-0.8c0,0,0,0,0,0c0,0,0,0,0-0.1c0.1,0,0.2-0.1,0.3-0.2c0.2-0.1,0.3-0.2,0.3-0.2c0,0,0.1,0,0.1,0.1
			c0,0.1,0.1,0.1,0.1,0.1c0,0,0-0.1,0.1-0.2c0.1-0.1,0.2-0.2,0.3-0.3c0.1,0,0.1,0,0.1,0c0,0,0,0.1,0.1,0.2c0,0.1,0,0.1,0.1,0.2
			c0,0,0,0.1,0.1,0.2C24.5,21.8,24.5,21.8,24.5,21.8z"/>
		<path fill="#586689" d="M26.7,20.5c0.1,0.3,0.2,0.4,0.2,0.5c0,0.1,0,0.4,0,1c0,0.1,0,0.3-0.1,0.6c-0.1,0.4-0.1,0.6-0.1,0.6
			c0,0-0.2,0.2-0.6,0.4c-0.1,0-0.1,0-0.1,0c0,0-0.1-0.1-0.2-0.2c0,0-0.1-0.1-0.1-0.1c-0.1-0.1-0.1-0.1-0.1-0.1c0,0,0,0,0-0.1
			c0.4-0.2,0.5-0.4,0.4-0.6c0,0-0.2-0.1-0.5-0.3c-0.3-0.2-0.5-0.3-0.6-0.3c0,0-0.1-0.2-0.2-0.4c0,0-0.1-0.1-0.1-0.2
			c-0.1-0.1-0.1-0.2-0.1-0.2c0,0,0-0.1,0-0.1c0.1,0,0.2-0.1,0.3-0.2c0.1-0.1,0.2-0.1,0.3-0.2c0,0,0.1,0,0.1,0c0,0,0,0.1,0.1,0.2
			c0,0.1,0.1,0.1,0.1,0.2c0.1,0.2,0.2,0.3,0.2,0.3c0,0,0.1,0.1,0.3,0.2c0.2,0.1,0.2,0.1,0.3,0.1c0,0,0-0.1,0.1-0.3
			c0-0.2,0-0.3,0-0.3C26,21,26,20.9,25.9,20.8c0,0-0.1-0.1-0.1-0.2c0-0.1-0.1-0.1-0.1-0.2c0,0,0,0,0-0.1c0.1,0,0.2-0.1,0.3-0.2
			c0.1-0.1,0.2-0.1,0.3-0.2c0,0,0.1,0,0.1,0C26.5,20.1,26.6,20.2,26.7,20.5z"/>
	</g>
</g>
<path fill="#A03C2E" d="M16,0.3C7.3,0.3,0.2,7.3,0.2,16s7,15.7,15.7,15.7s15.7-7,15.7-15.7S24.7,0.3,16,0.3z M16,30
	C8.2,30,2,23.7,2,16C2,8.3,8.2,2,16,2s14,6.3,14,14C29.9,23.7,23.7,30,16,30z"/>
<path fill="#682721" d="M16,0.9C7.6,0.9,0.9,7.7,0.9,16S7.6,31.1,16,31.1S31.1,24.3,31.1,16S24.3,0.9,16,0.9z M16,30.7
	C7.9,30.7,1.3,24.1,1.3,16C1.3,7.9,7.9,1.3,16,1.3S30.6,7.9,30.6,16C30.6,24.1,24.1,30.7,16,30.7z"/>
<path fill="#682721" d="M16,0.2C7.3,0.2,0.2,7.3,0.2,16S7.3,31.8,16,31.8S31.7,24.7,31.7,16S24.7,0.2,16,0.2z M16,31.3
	C7.5,31.3,0.6,24.5,0.6,16C0.6,7.5,7.5,0.7,16,0.7S31.3,7.5,31.3,16C31.3,24.5,24.4,31.3,16,31.3z"/>
</svg>
