<?xml version="1.0" encoding="utf-8"?>
<!-- Generator: Adobe Illustrator 16.0.0, SVG Export Plug-In . SVG Version: 6.00 Build 0)  -->
<!DOCTYPE svg PUBLIC "-//W3C//DTD SVG 1.1//EN" "http://www.w3.org/Graphics/SVG/1.1/DTD/svg11.dtd">
<svg version="1.1" id="Layer_1" xmlns="http://www.w3.org/2000/svg" xmlns:xlink="http://www.w3.org/1999/xlink" x="0px" y="0px"
	 width="32px" height="32px" viewBox="0 0 32 32" enable-background="new 0 0 32 32" xml:space="preserve">
<g id="Shape_24_4_">
	<g>
		<linearGradient id="SVGID_1_" gradientUnits="userSpaceOnUse" x1="2.5088" y1="3.9233" x2="29.6924" y2="28.0986">
			<stop  offset="0" style="stop-color:#EFE580"/>
			<stop  offset="1" style="stop-color:#E6B341"/>
		</linearGradient>
		<circle fill-rule="evenodd" clip-rule="evenodd" fill="url(#SVGID_1_)" cx="16.253" cy="16.147" r="15.447"/>
	</g>
</g>
<g id="Shape_23_4_">
	<g>
		<linearGradient id="SVGID_2_" gradientUnits="userSpaceOnUse" x1="13.7412" y1="4.9336" x2="19.1074" y2="28.8782">
			<stop  offset="0" style="stop-color:#454547"/>
			<stop  offset="1" style="stop-color:#000000"/>
		</linearGradient>
		<path fill-rule="evenodd" clip-rule="evenodd" fill="url(#SVGID_2_)" d="M31.401,16.093c0-0.104-0.001-0.21-0.004-0.316
			c-0.001-0.074-0.004-0.149-0.008-0.223c-0.001-0.045-0.001-0.091-0.004-0.136c-0.001-0.006-0.001-0.014-0.002-0.019
			c-0.001-0.038-0.004-0.077-0.006-0.115c-0.004-0.068-0.008-0.137-0.013-0.205c-0.004-0.051-0.007-0.102-0.011-0.153
			c-0.007-0.085-0.015-0.171-0.022-0.257c-0.007-0.064-0.014-0.129-0.021-0.195c-0.004-0.034-0.008-0.068-0.012-0.103
			c-0.016-0.132-0.032-0.263-0.052-0.394c-0.001-0.012-0.004-0.024-0.004-0.036c-0.012-0.074-0.023-0.148-0.035-0.222
			c-0.002-0.017-0.005-0.032-0.007-0.048c-0.022-0.137-0.048-0.275-0.074-0.411c-0.003-0.015-0.005-0.031-0.008-0.045
			c-0.044-0.219-0.091-0.438-0.144-0.654c-0.006-0.023-0.011-0.045-0.017-0.067c-0.051-0.209-0.107-0.417-0.168-0.623
			c-0.01-0.03-0.019-0.062-0.028-0.095c-0.03-0.102-0.063-0.204-0.096-0.304c-0.013-0.037-0.022-0.074-0.036-0.11
			c-0.018-0.057-0.037-0.115-0.057-0.171c-0.016-0.043-0.031-0.088-0.046-0.13c-0.029-0.08-0.06-0.161-0.089-0.241
			c-0.019-0.05-0.038-0.102-0.058-0.152c-0.019-0.048-0.038-0.098-0.057-0.146c-0.026-0.066-0.054-0.131-0.081-0.197
			c-0.023-0.055-0.047-0.11-0.071-0.166c-0.023-0.059-0.05-0.116-0.075-0.172c-0.019-0.042-0.035-0.083-0.055-0.123
			c-0.039-0.084-0.077-0.167-0.116-0.249c-0.018-0.038-0.034-0.073-0.053-0.109c-0.031-0.063-0.063-0.126-0.094-0.19
			c-0.017-0.031-0.032-0.064-0.049-0.097c-0.045-0.084-0.089-0.169-0.134-0.252c-0.019-0.034-0.035-0.066-0.055-0.1
			c-0.039-0.072-0.078-0.142-0.118-0.212c-0.017-0.029-0.033-0.056-0.049-0.085c-0.045-0.079-0.091-0.155-0.138-0.232
			c-0.018-0.032-0.037-0.062-0.056-0.092c-0.01-0.017-0.02-0.034-0.029-0.05h-0.001c-2.669-4.321-7.447-7.2-12.898-7.2
			c-6.583,0-12.186,4.2-14.273,10.067c-0.007,0.013-0.011,0.027-0.015,0.04c-0.042,0.119-0.083,0.237-0.121,0.357
			c-0.01,0.031-0.021,0.061-0.031,0.093c-0.018,0.057-0.035,0.114-0.054,0.172c-0.016,0.055-0.033,0.111-0.049,0.167
			c-0.019,0.065-0.037,0.128-0.056,0.193c-0.019,0.07-0.037,0.141-0.057,0.211c-0.011,0.037-0.02,0.073-0.027,0.11
			c-0.026,0.102-0.052,0.204-0.075,0.305c-0.004,0.016-0.007,0.031-0.011,0.045c-0.023,0.104-0.045,0.206-0.067,0.31
			c-0.003,0.014-0.005,0.028-0.008,0.042c-0.025,0.118-0.047,0.236-0.068,0.355c0,0.001,0,0.001,0,0.002
			c-0.134,0.745-0.211,1.507-0.231,2.283v0.011c-0.004,0.128-0.006,0.257-0.006,0.385v0.001c0,0.006,0.001,0.011,0.001,0.016
			c0,0.074,0.001,0.146,0.001,0.22c0.019,1.212,0.18,2.39,0.469,3.519c0.001,0.005,0.001,0.011,0.004,0.016
			c0.029,0.114,0.06,0.23,0.093,0.344c0.004,0.014,0.008,0.027,0.012,0.042c0.027,0.097,0.055,0.192,0.084,0.288
			c0.007,0.021,0.013,0.043,0.02,0.063c0.03,0.095,0.06,0.19,0.093,0.286c0.013,0.04,0.026,0.079,0.041,0.119
			c0.021,0.063,0.042,0.125,0.064,0.188c0.026,0.073,0.054,0.147,0.082,0.22c0.016,0.043,0.031,0.087,0.048,0.129
			c0.023,0.06,0.047,0.119,0.07,0.178c0.006,0.015,0.012,0.028,0.018,0.042c0.052,0.127,0.104,0.254,0.158,0.38
			c0.005,0.008,0.008,0.019,0.013,0.028c0.758,1.731,1.829,3.289,3.14,4.605v2.281c0,0.129,0.083,0.233,0.182,0.233h3.116
			c0.172,0.097,0.344,0.189,0.519,0.279H9.329c0.006,0.004,0.013,0.007,0.02,0.01c0.007,0.005,0.015,0.008,0.021,0.012
			c0.098,0.049,0.192,0.097,0.291,0.144c0.01,0.005,0.021,0.011,0.031,0.016c0.099,0.047,0.197,0.094,0.296,0.138
			c0.019,0.008,0.036,0.016,0.055,0.025c0.099,0.044,0.197,0.088,0.298,0.13c0.012,0.005,0.024,0.01,0.037,0.016
			c0.092,0.039,0.185,0.077,0.278,0.114c0.017,0.006,0.034,0.014,0.052,0.021c0.095,0.037,0.192,0.074,0.288,0.109
			c0.028,0.01,0.055,0.02,0.082,0.03c0.094,0.034,0.188,0.067,0.283,0.1c0.027,0.009,0.055,0.018,0.081,0.027
			c0.076,0.024,0.151,0.05,0.226,0.074c0.034,0.011,0.066,0.022,0.099,0.031c0.088,0.028,0.176,0.054,0.264,0.079
			c0.043,0.013,0.085,0.025,0.129,0.037c0.072,0.02,0.146,0.041,0.219,0.06c0.058,0.016,0.116,0.03,0.176,0.045
			c0.051,0.013,0.102,0.026,0.152,0.038c0.079,0.019,0.158,0.036,0.238,0.055c0.05,0.011,0.098,0.021,0.147,0.033
			c0.06,0.012,0.12,0.024,0.181,0.036c0.034,0.007,0.067,0.013,0.103,0.02c0.104,0.021,0.209,0.041,0.315,0.057
			c0.029,0.006,0.059,0.011,0.088,0.015c0.123,0.021,0.247,0.04,0.371,0.056c0.013,0.003,0.028,0.005,0.041,0.007
			c0.07,0.009,0.14,0.019,0.211,0.027c0.017,0.001,0.033,0.004,0.051,0.006c0.124,0.015,0.246,0.028,0.37,0.038
			c0.028,0.004,0.057,0.006,0.085,0.008c0.11,0.011,0.223,0.019,0.334,0.025c0.034,0.002,0.066,0.005,0.099,0.007
			c0.062,0.003,0.125,0.007,0.186,0.01c0.057,0.003,0.113,0.005,0.168,0.006c0.075,0.004,0.149,0.006,0.226,0.008
			c0.067,0.001,0.135,0.002,0.203,0.002c0.038,0,0.078,0,0.116,0h0.016c0.102,0,0.203,0,0.304-0.003
			c0.023,0,0.045-0.001,0.068-0.001c1.296-0.032,2.552-0.225,3.747-0.563c0.008-0.002,0.015-0.004,0.022-0.007
			c0.116-0.032,0.23-0.065,0.346-0.102c0.001,0,0.001-0.001,0.001-0.001c0.104-0.03,0.207-0.064,0.309-0.099
			c0.025-0.009,0.052-0.017,0.076-0.025c0.092-0.031,0.183-0.063,0.273-0.096c0.039-0.014,0.077-0.028,0.115-0.042
			c0.067-0.024,0.135-0.05,0.2-0.077c0.063-0.023,0.126-0.048,0.188-0.073c0.045-0.019,0.089-0.036,0.133-0.055
			c0.104-0.043,0.206-0.087,0.31-0.132c0.016-0.006,0.031-0.013,0.046-0.02c0.065-0.029,0.129-0.058,0.192-0.087
			c0.007-0.002,0.011-0.004,0.015-0.007c0.375-0.173,0.743-0.361,1.101-0.563h2.555c0.101,0,0.185-0.104,0.185-0.233v-1.747
			c1.188-1.082,2.203-2.349,2.999-3.751c0,0,0,0,0.001,0c0.041-0.07,0.08-0.143,0.118-0.214c0.019-0.033,0.037-0.067,0.055-0.101
			c0.031-0.061,0.064-0.122,0.096-0.182c0.019-0.037,0.039-0.073,0.058-0.112c0.042-0.082,0.083-0.164,0.123-0.248
			c0.019-0.039,0.037-0.076,0.056-0.115c0.027-0.058,0.055-0.116,0.081-0.173c0.018-0.041,0.037-0.081,0.054-0.121
			c0.038-0.082,0.075-0.165,0.109-0.248c0.02-0.044,0.038-0.089,0.057-0.133c0.022-0.053,0.043-0.106,0.064-0.16
			c0.023-0.056,0.046-0.113,0.067-0.169c0.028-0.069,0.053-0.139,0.079-0.208c0.021-0.053,0.039-0.103,0.058-0.156
			c0.016-0.044,0.031-0.089,0.047-0.134c0.032-0.09,0.063-0.182,0.094-0.272c0.012-0.039,0.025-0.079,0.038-0.118
			c0.019-0.062,0.037-0.122,0.057-0.183c0.01-0.032,0.02-0.063,0.028-0.096c0.034-0.116,0.067-0.231,0.1-0.349
			c0.006-0.021,0.012-0.042,0.018-0.065c0.019-0.07,0.037-0.14,0.055-0.211c0.003-0.013,0.006-0.026,0.01-0.04
			c0.034-0.141,0.068-0.28,0.098-0.423c0.003-0.011,0.006-0.021,0.007-0.03c0.051-0.234,0.097-0.47,0.136-0.707
			c0-0.005,0-0.008,0.002-0.012c0.039-0.24,0.073-0.48,0.101-0.723c0.002-0.004,0.002-0.01,0.002-0.015
			c0.027-0.236,0.049-0.473,0.065-0.712c0-0.018,0.002-0.036,0.004-0.054c0.014-0.221,0.022-0.441,0.028-0.665
			c0-0.05,0.001-0.101,0.001-0.15c0-0.053,0.001-0.106,0.001-0.16v-0.007C31.402,16.128,31.401,16.111,31.401,16.093z
			 M30.317,14.826c0.013,0.242,0.027,0.484,0.041,0.726c-0.079,0.005-0.16,0.009-0.24,0.015c-0.016-0.27-0.032-0.54-0.048-0.81
			c0.079-0.005,0.159-0.01,0.24-0.015C30.313,14.77,30.314,14.799,30.317,14.826z M30.117,13.43
			c0.044,0.268,0.085,0.535,0.129,0.802c-0.079,0.013-0.158,0.025-0.238,0.038c-0.043-0.267-0.086-0.533-0.13-0.8
			C29.957,13.456,30.037,13.443,30.117,13.43z M29.801,12.144c0.07,0.261,0.141,0.522,0.21,0.784
			c-0.078,0.021-0.155,0.041-0.233,0.062c-0.068-0.261-0.14-0.522-0.21-0.782C29.646,12.186,29.725,12.165,29.801,12.144z
			 M29.367,10.893c0.095,0.253,0.191,0.505,0.286,0.759c-0.075,0.028-0.151,0.058-0.227,0.085c-0.096-0.253-0.19-0.507-0.287-0.759
			C29.217,10.949,29.292,10.921,29.367,10.893z M28.837,9.686c0.063,0.146,0.126,0.293,0.189,0.44
			c0.045,0.101,0.089,0.203,0.132,0.304c-0.073,0.032-0.147,0.064-0.222,0.096c-0.036-0.084-0.073-0.169-0.109-0.253
			c-0.071-0.164-0.143-0.327-0.214-0.491C28.688,9.75,28.762,9.717,28.837,9.686z M28.173,8.537
			c0.132,0.236,0.263,0.473,0.394,0.709c-0.071,0.038-0.141,0.079-0.212,0.118c-0.133-0.237-0.263-0.473-0.393-0.709
			C28.03,8.615,28.102,8.576,28.173,8.537z M27.405,7.456c0.157,0.227,0.313,0.455,0.47,0.683c-0.063,0.043-0.127,0.087-0.19,0.131
			h-0.014c-0.155-0.225-0.311-0.451-0.466-0.677C27.271,7.547,27.339,7.501,27.405,7.456z M26.541,6.451
			c0.178,0.211,0.354,0.423,0.533,0.634c-0.063,0.053-0.124,0.104-0.187,0.156c-0.177-0.211-0.354-0.423-0.533-0.634
			C26.416,6.555,26.479,6.503,26.541,6.451z M25.586,5.531c0.198,0.194,0.396,0.387,0.592,0.581
			c-0.058,0.058-0.113,0.115-0.17,0.172c-0.196-0.193-0.395-0.386-0.592-0.58C25.474,5.646,25.529,5.588,25.586,5.531z
			 M24.551,4.703c0.214,0.175,0.429,0.348,0.645,0.522c-0.052,0.063-0.102,0.126-0.153,0.188c-0.215-0.174-0.43-0.347-0.644-0.522
			C24.448,4.83,24.499,4.766,24.551,4.703z M23.442,3.977c0.23,0.153,0.461,0.305,0.691,0.458C24.088,4.502,24.044,4.57,24,4.636
			c-0.23-0.152-0.461-0.304-0.692-0.457C23.354,4.111,23.397,4.044,23.442,3.977z M22.271,3.356c0.245,0.13,0.488,0.26,0.732,0.39
			c-0.038,0.07-0.077,0.143-0.114,0.214c-0.244-0.13-0.488-0.26-0.73-0.39C22.195,3.5,22.232,3.428,22.271,3.356z M21.045,2.852
			c0.256,0.104,0.512,0.209,0.767,0.315c-0.029,0.074-0.061,0.149-0.092,0.223c-0.256-0.104-0.511-0.209-0.767-0.315
			C20.984,3,21.016,2.926,21.045,2.852z M19.778,2.462c0.265,0.079,0.53,0.159,0.794,0.238c-0.023,0.077-0.047,0.155-0.07,0.233
			c-0.264-0.08-0.527-0.16-0.793-0.238C19.732,2.617,19.754,2.539,19.778,2.462z M18.479,2.195c0.272,0.052,0.544,0.106,0.814,0.158
			c-0.016,0.079-0.03,0.16-0.046,0.238c-0.272-0.052-0.543-0.105-0.813-0.157C18.451,2.354,18.465,2.275,18.479,2.195z
			 M17.163,2.051l0.826,0.076l-0.022,0.241l-0.826-0.075L17.163,2.051z M16.667,2.021l0.002,0.244L15.84,2.271l-0.001-0.242
			L16.667,2.021z M15.351,2.064c0.004,0.081,0.009,0.161,0.013,0.243c-0.274,0.016-0.551,0.032-0.827,0.049
			c-0.004-0.081-0.009-0.161-0.015-0.242C14.798,2.097,15.073,2.081,15.351,2.064z M14.033,2.208c0.013,0.08,0.026,0.16,0.039,0.239
			c-0.273,0.044-0.547,0.09-0.818,0.134c-0.012-0.08-0.026-0.16-0.038-0.241C13.487,2.296,13.761,2.251,14.033,2.208z M12.735,2.473
			c0.022,0.078,0.044,0.157,0.063,0.234c-0.267,0.072-0.533,0.145-0.801,0.215c-0.021-0.077-0.042-0.156-0.063-0.234
			C12.202,2.616,12.469,2.545,12.735,2.473z M11.47,2.861c0.029,0.075,0.058,0.151,0.086,0.228
			c-0.259,0.096-0.517,0.194-0.776,0.291c-0.028-0.075-0.056-0.151-0.085-0.227C10.953,3.056,11.212,2.958,11.47,2.861z
			 M10.246,3.366c0.035,0.073,0.072,0.146,0.108,0.217C10.105,3.706,9.858,3.829,9.61,3.951C9.574,3.879,9.539,3.806,9.503,3.734
			C9.751,3.611,9.999,3.488,10.246,3.366z M9.076,3.986c0.041,0.068,0.085,0.136,0.127,0.205c-0.234,0.146-0.47,0.292-0.704,0.437
			C8.455,4.56,8.414,4.491,8.371,4.422C8.605,4.276,8.841,4.131,9.076,3.986z M7.968,4.711c0.049,0.064,0.099,0.128,0.147,0.192
			c-0.221,0.168-0.44,0.335-0.66,0.503C7.406,5.342,7.357,5.277,7.309,5.213C7.529,5.046,7.748,4.879,7.968,4.711z M6.933,5.537
			c0.056,0.06,0.109,0.12,0.165,0.178C6.895,5.902,6.691,6.09,6.489,6.278C6.435,6.218,6.38,6.16,6.324,6.1
			C6.526,5.912,6.73,5.725,6.933,5.537z M5.979,6.456C6.04,6.51,6.101,6.563,6.16,6.618C5.977,6.824,5.792,7.03,5.608,7.235
			C5.548,7.181,5.487,7.128,5.428,7.074C5.611,6.869,5.796,6.662,5.979,6.456z M5.116,7.459c0.064,0.048,0.13,0.095,0.195,0.144
			C5.147,7.827,4.983,8.048,4.82,8.272C4.755,8.224,4.688,8.175,4.625,8.127C4.788,7.904,4.951,7.683,5.116,7.459z M4.349,8.541
			c0.068,0.041,0.139,0.082,0.208,0.124C4.415,8.902,4.274,9.139,4.133,9.376c-0.07-0.042-0.14-0.083-0.209-0.124
			C4.066,9.015,4.207,8.778,4.349,8.541z M3.68,9.705c0.072,0.032,0.144,0.068,0.217,0.103c-0.114,0.244-0.229,0.488-0.346,0.732
			c-0.072-0.033-0.146-0.068-0.219-0.103C3.448,10.193,3.563,9.947,3.68,9.705z M2.996,11.275c0.05-0.12,0.099-0.24,0.148-0.362
			c0.07,0.027,0.141,0.052,0.21,0.076c-0.043,0.125-0.088,0.249-0.132,0.374c-0.054,0.13-0.108,0.26-0.16,0.39
			c-0.069-0.029-0.138-0.057-0.206-0.085C2.902,11.537,2.95,11.406,2.996,11.275z M2.701,12.203
			c0.004-0.014,0.008-0.029,0.012-0.042c0.079,0.023,0.156,0.047,0.233,0.07c-0.001,0.002-0.002,0.004-0.002,0.008
			c-0.077,0.256-0.155,0.512-0.232,0.768c-0.077-0.022-0.155-0.046-0.231-0.069C2.554,12.693,2.628,12.448,2.701,12.203z
			 M2.401,13.446c0.079,0.016,0.157,0.032,0.236,0.046c-0.052,0.266-0.104,0.531-0.156,0.796c-0.079-0.016-0.158-0.031-0.237-0.045
			C2.297,13.977,2.349,13.712,2.401,13.446z M2.208,14.756c0.08,0.008,0.161,0.015,0.241,0.022
			c-0.024,0.269-0.051,0.539-0.075,0.806c-0.08-0.006-0.159-0.014-0.239-0.021C2.158,15.294,2.184,15.026,2.208,14.756z
			 M2.146,16.891c-0.003-0.077-0.003-0.154-0.004-0.23c0-0.193-0.003-0.387-0.004-0.582c0.08,0,0.161-0.001,0.241-0.001
			c0.001,0.173,0.003,0.347,0.005,0.52c0.001,0.097,0.002,0.194,0.002,0.292C2.307,16.89,2.227,16.89,2.146,16.891z M2.278,18.208
			c-0.029-0.268-0.059-0.538-0.087-0.806c0.079-0.009,0.158-0.017,0.238-0.026c0.03,0.268,0.06,0.537,0.09,0.806
			C2.439,18.19,2.358,18.201,2.278,18.208z M2.364,18.715c0.078-0.016,0.157-0.034,0.236-0.049c0.057,0.264,0.112,0.527,0.17,0.792
			c-0.079,0.017-0.158,0.034-0.237,0.05C2.478,19.245,2.421,18.979,2.364,18.715z M2.661,20.007
			c0.076-0.024,0.153-0.048,0.229-0.073c0.083,0.258,0.166,0.515,0.249,0.771c-0.077,0.025-0.154,0.05-0.23,0.075
			C2.825,20.522,2.744,20.265,2.661,20.007z M3.398,22.005c-0.052-0.123-0.104-0.246-0.158-0.368
			c-0.048-0.126-0.096-0.253-0.143-0.379c0.067-0.03,0.136-0.059,0.204-0.089c0.055,0.126,0.108,0.251,0.163,0.376
			c0.049,0.127,0.096,0.254,0.144,0.381C3.539,21.952,3.47,21.979,3.398,22.005z M3.991,23.19c-0.12-0.243-0.239-0.485-0.359-0.729
			c0.072-0.036,0.145-0.071,0.218-0.107c0.118,0.242,0.239,0.486,0.357,0.728C4.135,23.118,4.063,23.153,3.991,23.19z M4.715,24.322
			c-0.145-0.236-0.291-0.471-0.437-0.706c0.068-0.042,0.138-0.085,0.207-0.128c0.146,0.235,0.29,0.471,0.437,0.705
			C4.854,24.235,4.784,24.278,4.715,24.322z M5.514,25.335c-0.161-0.209-0.322-0.42-0.481-0.63c0.064-0.05,0.128-0.098,0.192-0.147
			c0.096,0.126,0.191,0.252,0.289,0.378V25.335z M12.12,29.622h-0.02l-0.009,0.029c-0.007-0.002-0.012-0.005-0.019-0.007
			l-0.061-0.022h-0.002c-0.228-0.081-0.456-0.162-0.685-0.243c0.004-0.012,0.008-0.024,0.014-0.037h0.607
			c0.081,0.029,0.161,0.058,0.241,0.086C12.167,29.494,12.143,29.559,12.12,29.622z M13.375,29.979
			c-0.161-0.04-0.323-0.079-0.485-0.12c-0.101-0.024-0.202-0.05-0.302-0.075c0.02-0.078,0.039-0.156,0.058-0.235
			c0.263,0.065,0.525,0.129,0.788,0.195C13.413,29.823,13.394,29.901,13.375,29.979z M14.684,30.185
			c-0.23-0.033-0.462-0.066-0.693-0.099c-0.036-0.005-0.072-0.011-0.109-0.016c0.012-0.08,0.023-0.16,0.034-0.239
			c0.044,0.005,0.087,0.012,0.13,0.018c0.224,0.031,0.449,0.064,0.674,0.097C14.708,30.025,14.696,30.105,14.684,30.185z
			 M16.007,30.267c-0.115-0.004-0.23-0.008-0.345-0.013l-0.466-0.021l0.009-0.241c0.162,0.006,0.323,0.013,0.483,0.02l0.328,0.014
			C16.013,30.106,16.01,30.187,16.007,30.267z M16.948,30.25c-0.142,0.001-0.286,0.003-0.429,0.004l-0.013-0.222l0.434-0.026
			c0.129-0.001,0.256-0.002,0.383-0.003c0.001,0.075,0.001,0.149,0.003,0.224L16.948,30.25z M18.396,30.108
			c-0.188,0.02-0.374,0.041-0.561,0.061c-0.01-0.08-0.018-0.161-0.026-0.241c0.208-0.023,0.418-0.047,0.627-0.069
			c0.06-0.006,0.118-0.013,0.179-0.019c0.01,0.08,0.018,0.16,0.026,0.24C18.562,30.09,18.479,30.099,18.396,30.108z M19.72,29.841
			c-0.192,0.039-0.384,0.081-0.576,0.122c-0.018-0.079-0.034-0.157-0.051-0.235l0.482-0.105h-0.002
			c0.11-0.023,0.221-0.046,0.33-0.07c0.006,0.024,0.01,0.046,0.016,0.07H19.9l0.036,0.171C19.865,29.809,19.793,29.825,19.72,29.841
			z M20.427,29.634c-0.026-0.076-0.05-0.154-0.075-0.231c0.063-0.02,0.127-0.04,0.189-0.06h0.662
			c0.004,0.014,0.008,0.027,0.012,0.039C20.952,29.465,20.689,29.55,20.427,29.634z M26.254,23.745h-0.097
			c0.071-0.092,0.14-0.186,0.21-0.28c0.017-0.022,0.031-0.044,0.047-0.066c0.014-0.018,0.026-0.036,0.04-0.056
			c0.044-0.063,0.088-0.127,0.132-0.191c0.009-0.013,0.019-0.026,0.026-0.039c0.106-0.159,0.211-0.32,0.31-0.484
			c0.007-0.011,0.013-0.021,0.021-0.032c0.042-0.07,0.084-0.141,0.126-0.213c0.009-0.016,0.018-0.031,0.025-0.047
			c0.042-0.072,0.083-0.146,0.124-0.219c0.005-0.01,0.011-0.02,0.015-0.029c0.092-0.169,0.18-0.34,0.264-0.513
			c0.008-0.016,0.015-0.032,0.022-0.048c0.033-0.068,0.065-0.136,0.097-0.206c0.01-0.022,0.02-0.044,0.03-0.067
			c0.03-0.067,0.061-0.134,0.088-0.203c0.009-0.02,0.019-0.04,0.026-0.058c0.036-0.086,0.071-0.173,0.105-0.259
			c0.006-0.015,0.011-0.029,0.018-0.044c0.027-0.069,0.056-0.141,0.08-0.21c0.013-0.034,0.026-0.069,0.038-0.104
			c0.018-0.051,0.036-0.102,0.054-0.152c0.014-0.041,0.027-0.082,0.041-0.122c0.016-0.045,0.03-0.091,0.046-0.136
			c0.013-0.043,0.027-0.088,0.041-0.132c0.011-0.036,0.022-0.071,0.031-0.106c0.03-0.101,0.06-0.203,0.087-0.305
			c0.008-0.028,0.016-0.053,0.022-0.08c0.016-0.06,0.031-0.121,0.045-0.181c0.007-0.026,0.014-0.05,0.019-0.075
			c0.016-0.064,0.031-0.127,0.046-0.193c0.003-0.014,0.007-0.03,0.01-0.044c0.068-0.308,0.125-0.619,0.169-0.933
			c0.001-0.006,0.002-0.012,0.002-0.019c0.058-0.398,0.094-0.803,0.111-1.211c0.001-0.021,0.001-0.042,0.003-0.062
			c0.002-0.068,0.005-0.134,0.005-0.201c0.002-0.031,0.002-0.061,0.003-0.089c0.001-0.063,0.001-0.124,0.001-0.186v-0.042
			c0-0.088-0.001-0.177-0.004-0.266c-0.001-0.06-0.004-0.121-0.007-0.18c-0.001-0.038-0.001-0.078-0.004-0.116
			c0-0.004-0.001-0.01-0.001-0.014c-0.002-0.046-0.004-0.091-0.008-0.137c-0.003-0.048-0.004-0.095-0.008-0.14
			c-0.004-0.058-0.008-0.114-0.015-0.17c-0.002-0.034-0.005-0.066-0.008-0.1c-0.006-0.062-0.012-0.126-0.02-0.188
			c-0.001-0.018-0.005-0.036-0.006-0.054c-0.025-0.227-0.057-0.453-0.094-0.678c-0.004-0.013-0.004-0.025-0.008-0.038
			c-0.012-0.071-0.023-0.141-0.037-0.208c-0.004-0.019-0.007-0.039-0.01-0.057c-0.014-0.069-0.027-0.138-0.043-0.206
			c-0.001-0.012-0.005-0.023-0.007-0.036c-0.045-0.212-0.096-0.421-0.151-0.629c-0.01-0.029-0.018-0.06-0.025-0.091
			c-0.015-0.052-0.03-0.105-0.045-0.159c-0.012-0.036-0.023-0.074-0.034-0.112c-0.015-0.048-0.029-0.096-0.045-0.144
			c-0.016-0.049-0.031-0.096-0.046-0.143c-0.013-0.04-0.024-0.078-0.038-0.116c-0.028-0.084-0.058-0.166-0.087-0.248
			c-0.01-0.031-0.021-0.061-0.033-0.089c-0.022-0.061-0.044-0.121-0.067-0.18c-0.012-0.029-0.023-0.059-0.035-0.087
			c-0.025-0.063-0.052-0.127-0.078-0.19c-0.01-0.023-0.019-0.045-0.027-0.066c-0.075-0.178-0.155-0.354-0.238-0.527
			c-0.003-0.005-0.005-0.011-0.009-0.016c-0.04-0.083-0.079-0.163-0.12-0.244c-0.007-0.011-0.012-0.021-0.016-0.032
			c-0.043-0.081-0.086-0.162-0.129-0.242c-0.002-0.005-0.004-0.008-0.006-0.011c-0.143-0.264-0.295-0.52-0.455-0.77
			c-0.003-0.004-0.004-0.008-0.008-0.011c-0.213-0.333-0.441-0.654-0.684-0.963c-0.006-0.007-0.01-0.014-0.016-0.019
			c-0.021-0.026-0.041-0.054-0.063-0.08C25.715,7.99,25.406,7.646,25.08,7.32c-2.259-2.26-5.379-3.656-8.826-3.656
			S9.687,5.061,7.427,7.32C6.819,7.929,6.273,8.601,5.8,9.324c0,0.001,0,0.002-0.003,0.003C5.756,9.391,5.715,9.455,5.674,9.52
			C5.672,9.522,5.67,9.526,5.668,9.53c-0.166,0.266-0.322,0.537-0.467,0.814c-0.003,0.004-0.006,0.009-0.007,0.012
			c-0.037,0.068-0.07,0.136-0.105,0.205c-0.002,0.003-0.004,0.008-0.006,0.012c-0.104,0.207-0.201,0.417-0.293,0.63
			c-0.002,0.005-0.006,0.011-0.008,0.017C4.756,11.28,4.73,11.34,4.704,11.403c-0.008,0.021-0.017,0.044-0.027,0.067
			c-0.021,0.057-0.045,0.114-0.067,0.171c-0.009,0.026-0.02,0.053-0.029,0.081c-0.042,0.108-0.083,0.22-0.121,0.331
			c-0.008,0.022-0.016,0.043-0.022,0.063c-0.015,0.042-0.028,0.084-0.042,0.126c-0.015,0.047-0.03,0.094-0.045,0.141
			c-0.012,0.04-0.025,0.079-0.037,0.119c-0.017,0.054-0.032,0.109-0.049,0.165c-0.009,0.032-0.02,0.064-0.028,0.098
			c-0.022,0.081-0.044,0.16-0.065,0.241c-0.002,0.009-0.005,0.017-0.006,0.025c-0.025,0.096-0.048,0.19-0.07,0.287
			c-0.004,0.012-0.005,0.023-0.008,0.034c-0.02,0.085-0.039,0.172-0.057,0.259c-0.002,0.014-0.006,0.027-0.008,0.042
			c-0.021,0.093-0.038,0.186-0.054,0.278c0,0.002-0.001,0.005-0.002,0.008c-0.055,0.307-0.098,0.616-0.13,0.929
			c0,0.001-0.001,0.002-0.001,0.003c-0.031,0.31-0.051,0.622-0.059,0.938c0,0.013,0,0.025-0.001,0.039
			c-0.002,0.085-0.004,0.172-0.004,0.257v0.077c0,0.046,0,0.093,0.002,0.14c0.001,0.043,0.001,0.088,0.003,0.133
			c0,0.03,0.001,0.062,0.002,0.094c0.001,0.059,0.004,0.119,0.007,0.179c0,0.007,0.001,0.014,0.001,0.02
			c0,0.008,0.001,0.015,0.002,0.022c0.004,0.099,0.01,0.198,0.018,0.296v0.006c0.055,0.743,0.174,1.469,0.354,2.171
			c0,0.003,0.001,0.006,0.001,0.011c0.075,0.291,0.16,0.579,0.255,0.862c0.006,0.021,0.014,0.042,0.022,0.062
			c0.022,0.068,0.045,0.135,0.069,0.202c0.011,0.029,0.021,0.056,0.03,0.084c0.024,0.063,0.048,0.126,0.071,0.188
			c0.011,0.028,0.021,0.053,0.032,0.08c0.031,0.08,0.063,0.162,0.098,0.242c0.017,0.039,0.032,0.079,0.051,0.117
			c0.018,0.044,0.037,0.087,0.056,0.131c0.021,0.045,0.041,0.091,0.063,0.136c0.016,0.035,0.031,0.069,0.049,0.104
			c0.022,0.048,0.046,0.099,0.069,0.146c0.012,0.025,0.025,0.05,0.038,0.077c0.091,0.182,0.184,0.361,0.284,0.538
			c0.01,0.019,0.021,0.038,0.03,0.057c0.031,0.056,0.064,0.112,0.097,0.168c0.01,0.017,0.021,0.035,0.031,0.051
			C5.656,22.751,5.815,23,5.981,23.24c0.012,0.018,0.023,0.034,0.036,0.049c0.035,0.054,0.072,0.105,0.11,0.157
			c0.004,0.007,0.008,0.012,0.013,0.019h0.001c0.067,0.094,0.137,0.188,0.208,0.28H5.695c-0.046,0-0.09,0.023-0.121,0.06
			c-0.081-0.112-0.16-0.225-0.237-0.34c-0.079-0.12-0.157-0.239-0.232-0.36c-0.012-0.02-0.025-0.039-0.037-0.06
			c-0.033-0.053-0.066-0.108-0.101-0.164c-0.012-0.019-0.022-0.039-0.034-0.058c-0.102-0.173-0.2-0.349-0.295-0.527
			c-0.015-0.029-0.031-0.057-0.045-0.086c-0.027-0.052-0.052-0.101-0.078-0.15c-0.018-0.035-0.035-0.069-0.052-0.105
			c-0.035-0.071-0.069-0.142-0.103-0.213c-0.023-0.051-0.048-0.101-0.07-0.153c-0.02-0.041-0.038-0.081-0.055-0.121
			c-0.022-0.05-0.044-0.098-0.063-0.148c-0.018-0.037-0.033-0.073-0.049-0.112C4.094,21.139,4.066,21.07,4.039,21
			c-0.008-0.018-0.014-0.035-0.021-0.053c-0.036-0.089-0.069-0.179-0.102-0.27c-0.01-0.022-0.017-0.043-0.025-0.066
			c-0.028-0.076-0.053-0.154-0.081-0.231c-0.006-0.017-0.011-0.034-0.017-0.051c-0.066-0.197-0.128-0.397-0.185-0.598
			c-0.001-0.002-0.003-0.006-0.003-0.008c-0.264-0.936-0.426-1.914-0.477-2.927c-0.001-0.014-0.001-0.028-0.002-0.043
			c-0.003-0.061-0.005-0.122-0.007-0.184c-0.001-0.031-0.002-0.063-0.003-0.095c-0.001-0.044-0.003-0.09-0.004-0.135v-0.224
			c0.001-0.893,0.093-1.766,0.266-2.607c0.001-0.009,0.002-0.018,0.004-0.027c0.02-0.091,0.039-0.183,0.061-0.273
			c0.003-0.016,0.007-0.032,0.011-0.047c0.046-0.193,0.095-0.386,0.147-0.575c0.008-0.031,0.019-0.062,0.027-0.095
			c0.017-0.06,0.035-0.121,0.054-0.181c0.01-0.038,0.022-0.074,0.034-0.111c0.02-0.063,0.04-0.125,0.062-0.189
			c0.021-0.063,0.042-0.126,0.064-0.19c0.015-0.042,0.03-0.085,0.045-0.127c0.019-0.051,0.037-0.103,0.057-0.155
			c0.012-0.032,0.025-0.065,0.037-0.096c0.021-0.056,0.044-0.112,0.065-0.168c0.002-0.004,0.004-0.009,0.006-0.013
			c0.053-0.134,0.108-0.268,0.167-0.399c0.006-0.012,0.011-0.026,0.017-0.038c0.027-0.063,0.058-0.127,0.087-0.191
			c0.007-0.013,0.012-0.026,0.019-0.039c0.097-0.205,0.196-0.408,0.303-0.608C4.646,9.982,4.647,9.98,4.649,9.977
			C4.684,9.91,4.721,9.844,4.757,9.778C4.76,9.772,4.764,9.766,4.767,9.76c0.075-0.134,0.151-0.266,0.23-0.398
			C5.55,8.447,6.211,7.605,6.962,6.855c2.378-2.379,5.663-3.851,9.292-3.851c3.63,0,6.915,1.471,9.292,3.851
			c0.817,0.816,1.528,1.741,2.107,2.75c0.001,0.001,0.001,0.001,0.001,0.002c0.156,0.271,0.303,0.547,0.438,0.829
			c0.005,0.009,0.01,0.018,0.014,0.026c0.088,0.185,0.173,0.371,0.254,0.561c0.004,0.011,0.009,0.022,0.013,0.034
			c0.033,0.078,0.065,0.157,0.097,0.236c0.009,0.022,0.019,0.046,0.028,0.069c0.028,0.075,0.058,0.148,0.084,0.223
			c0.007,0.018,0.015,0.038,0.021,0.058c0.033,0.086,0.063,0.175,0.094,0.263c0.011,0.034,0.022,0.067,0.033,0.101
			c0.02,0.057,0.037,0.112,0.056,0.168c0.013,0.042,0.025,0.083,0.039,0.126c0.015,0.049,0.028,0.098,0.044,0.146
			c0.021,0.074,0.042,0.149,0.063,0.225c0.013,0.048,0.027,0.097,0.039,0.147c0.016,0.057,0.029,0.114,0.044,0.17
			c0.008,0.034,0.016,0.066,0.023,0.1c0.015,0.06,0.027,0.119,0.042,0.178c0.005,0.027,0.012,0.053,0.017,0.08
			c0.045,0.208,0.086,0.418,0.122,0.631c0.003,0.021,0.007,0.043,0.009,0.065c0.011,0.067,0.022,0.134,0.032,0.203
			c0.004,0.022,0.006,0.043,0.01,0.066c0.028,0.208,0.052,0.416,0.072,0.627c0.003,0.038,0.007,0.076,0.009,0.114
			c0.006,0.055,0.01,0.109,0.013,0.161c0.004,0.054,0.007,0.108,0.011,0.162c0.002,0.04,0.006,0.083,0.007,0.125
			c0.004,0.047,0.004,0.094,0.005,0.141c0.003,0.062,0.007,0.124,0.007,0.186c0.004,0.094,0.004,0.187,0.004,0.281v0.219
			c-0.001,0.036-0.003,0.071-0.003,0.107c-0.001,0.065-0.003,0.131-0.005,0.196c0,0.022-0.003,0.043-0.003,0.065
			c-0.01,0.235-0.025,0.469-0.047,0.7c0,0.005,0,0.008-0.001,0.011c-0.007,0.08-0.017,0.16-0.024,0.239
			c-0.001,0.005-0.003,0.009-0.003,0.014c-0.026,0.238-0.061,0.475-0.1,0.71c-0.003,0.007-0.003,0.014-0.004,0.02
			c-0.013,0.075-0.026,0.147-0.04,0.222c-0.002,0.014-0.007,0.026-0.008,0.04c-0.042,0.212-0.087,0.424-0.139,0.631
			c-0.006,0.027-0.013,0.056-0.02,0.083c-0.015,0.057-0.03,0.114-0.045,0.171c-0.01,0.036-0.02,0.073-0.03,0.108
			c-0.014,0.053-0.027,0.104-0.042,0.156c-0.024,0.08-0.048,0.16-0.072,0.24c-0.013,0.04-0.025,0.078-0.037,0.117
			c-0.019,0.054-0.034,0.107-0.052,0.16c-0.015,0.038-0.027,0.075-0.04,0.115c-0.021,0.06-0.042,0.118-0.063,0.177
			c-0.01,0.031-0.021,0.061-0.031,0.089c-0.033,0.089-0.066,0.177-0.101,0.264c-0.006,0.017-0.014,0.034-0.021,0.049
			c-0.029,0.077-0.061,0.15-0.092,0.226c-0.009,0.022-0.02,0.045-0.028,0.068c-0.033,0.077-0.067,0.152-0.101,0.229
			c-0.006,0.012-0.011,0.024-0.016,0.037c-0.043,0.094-0.086,0.186-0.131,0.278c0,0.001-0.002,0.002-0.002,0.003
			c-0.043,0.088-0.086,0.176-0.13,0.263c-0.008,0.014-0.015,0.026-0.02,0.04c-0.045,0.085-0.09,0.17-0.135,0.254
			c-0.003,0.004-0.003,0.006-0.005,0.008c-0.098,0.181-0.201,0.358-0.307,0.534c-0.006,0.01-0.011,0.019-0.017,0.029
			c-0.314,0.516-0.664,1.008-1.045,1.476v-0.474C26.438,23.849,26.354,23.745,26.254,23.745z M26.438,25.926V25.58
			c0.015-0.015,0.028-0.031,0.044-0.045c0.059,0.056,0.115,0.113,0.173,0.169C26.582,25.777,26.51,25.852,26.438,25.926z
			 M26.983,25.332c-0.063-0.051-0.127-0.102-0.189-0.153c0.175-0.213,0.349-0.43,0.522-0.643c0.063,0.05,0.126,0.102,0.188,0.152
			C27.331,24.901,27.157,25.116,26.983,25.332z M27.797,24.287c-0.067-0.044-0.135-0.089-0.201-0.134
			c0.152-0.231,0.305-0.46,0.457-0.688h0.004c0.066,0.043,0.132,0.088,0.199,0.132C28.104,23.827,27.95,24.057,27.797,24.287z
			 M28.512,23.171c-0.07-0.038-0.141-0.076-0.214-0.114c0.128-0.238,0.254-0.477,0.382-0.716c0.071,0.038,0.143,0.075,0.215,0.114
			C28.766,22.694,28.639,22.932,28.512,23.171z M29.119,21.994c-0.074-0.03-0.148-0.062-0.223-0.092
			c0.103-0.25,0.205-0.5,0.309-0.751c0.074,0.031,0.149,0.063,0.224,0.093C29.326,21.494,29.222,21.744,29.119,21.994z
			 M29.697,20.469c-0.034,0.098-0.07,0.196-0.105,0.294c-0.075-0.028-0.152-0.055-0.228-0.082c0.041-0.115,0.081-0.229,0.122-0.343
			c0.05-0.141,0.1-0.28,0.149-0.421c0.077,0.028,0.152,0.054,0.229,0.082C29.808,20.155,29.752,20.312,29.697,20.469z
			 M29.977,19.449c-0.004,0.015-0.007,0.03-0.011,0.044c-0.078-0.019-0.156-0.038-0.234-0.058c0.004-0.016,0.007-0.03,0.011-0.045
			c0.061-0.247,0.123-0.495,0.185-0.742c0.077,0.02,0.155,0.04,0.234,0.059C30.1,18.954,30.038,19.201,29.977,19.449z M30.22,18.194
			c-0.081-0.012-0.16-0.023-0.24-0.035v-0.001c0.038-0.268,0.076-0.535,0.116-0.801c0.079,0.011,0.158,0.023,0.238,0.034
			C30.295,17.659,30.258,17.926,30.22,18.194z M30.359,16.658c-0.003,0.073-0.007,0.146-0.01,0.219
			c-0.08-0.004-0.161-0.006-0.241-0.01c0.003-0.075,0.006-0.15,0.009-0.224c0.009-0.195,0.017-0.392,0.024-0.587
			c0.082,0.003,0.161,0.007,0.241,0.01C30.375,16.262,30.367,16.459,30.359,16.658z"/>
	</g>
</g>
<path d="M4.382,16.699c0-6.9,5.595-12.495,12.494-12.495c3.012,0,5.773,1.065,7.931,2.839c-2.235-2.099-5.243-3.385-8.551-3.385
	c-6.901,0-12.495,5.594-12.495,12.495c0,3.89,1.777,7.365,4.564,9.656C5.898,23.529,4.382,20.291,4.382,16.699z"/>
<g>
	<rect x="24.91" y="21.131" width="0.692" height="0.637"/>
	<path d="M26.56,13.431l-0.288-0.009L15.666,6.093c-0.016-0.011-0.035-0.017-0.056-0.017c-0.03,0-0.061,0.015-0.079,0.042
		l-0.017,0.024c-0.006-0.001-0.011-0.001-0.015-0.001c-0.023,0-0.047,0.008-0.064,0.025l-8.316,7.341H6.968
		c-0.054,0-0.098,0.044-0.098,0.098v0.122v0.351v0.91c0,0.054,0.044,0.098,0.098,0.098h1.399c0.054,0,0.098-0.044,0.098-0.098
		v-0.423h2.311v0.374c0,0.054,0.043,0.098,0.098,0.098h2.146c0.054,0,0.098-0.043,0.098-0.098v-0.374h1.399v0.317
		c0,0.054,0.044,0.098,0.098,0.098h0.293v12.436c0,0.054,0.044,0.098,0.098,0.098h1.644c0.054,0,0.098-0.044,0.098-0.098V14.979
		h0.644c0.029,0,0.057-0.013,0.075-0.035l0.319-0.382l5.052-0.166v6.102h-3.428v1.796h7.137v-1.796h-3.362v-6.113l3.377-0.111
		c0.053-0.001,0.095-0.044,0.095-0.097v-0.648C26.654,13.476,26.612,13.432,26.56,13.431z M21.352,21.748
		c-0.014,0.122-0.122,0.217-0.254,0.217h-0.644c-0.14,0-0.252-0.109-0.252-0.244v-0.528c0-0.134,0.112-0.244,0.252-0.244h0.644
		c0.13,0,0.237,0.094,0.252,0.214v0.013h-0.866v0.558h0.868V21.748z M22.731,21.722c0,0.134-0.115,0.244-0.255,0.244h-0.674
		c-0.132,0-0.24-0.097-0.254-0.22h0.924v-0.181l-0.672,0c-0.132,0-0.239-0.096-0.253-0.219v-0.151c0-0.134,0.114-0.244,0.255-0.244
		h0.655c0.131,0,0.239,0.097,0.254,0.219h-0.905v0.176h0.674c0.13,0,0.239,0.096,0.251,0.219V21.722z M24.682,21.175
		c0-0.128,0.11-0.234,0.244-0.234h0.661c0.134,0,0.242,0.106,0.242,0.234v0.548c0,0.129-0.108,0.234-0.242,0.234h-0.661
		c-0.134,0-0.244-0.105-0.244-0.234V21.175z M23.285,21.175c0-0.128,0.109-0.234,0.243-0.234h0.707c0.119,0,0.221,0.085,0.24,0.198
		H23.51v0.617h0.741v-0.221h-0.354c-0.022,0-0.1-0.005-0.15-0.067c-0.04-0.047-0.051-0.084-0.054-0.103h0.783v0.385
		c-0.013,0.117-0.116,0.207-0.241,0.207h-0.707c-0.134,0-0.243-0.105-0.243-0.234V21.175z M26.203,13.693l-0.006,0.005l-0.04-0.037
		L26.203,13.693z M15.903,7.498l0.025,0.185l-0.086-0.099L15.903,7.498z M15.352,25.674l0.482-0.481l0.481,0.481H15.352z
		 M16.304,25.935l-0.47,0.469l-0.47-0.469H16.304z M15.168,25.491v-0.963l0.482,0.481L15.168,25.491z M15.364,24.356h0.939
		l-0.47,0.469L15.364,24.356z M15.352,24.091l0.482-0.481l0.481,0.481H15.352z M15.168,23.907v-0.962l0.482,0.481L15.168,23.907z
		 M15.364,22.773h0.939l-0.47,0.469L15.364,22.773z M15.352,22.513l0.482-0.481l0.481,0.481H15.352z M15.168,22.329v-0.963
		l0.482,0.481L15.168,22.329z M15.367,21.197h0.935l-0.468,0.467L15.367,21.197z M15.354,20.935l0.479-0.479l0.48,0.479H15.354z
		 M15.168,20.753V19.79l0.482,0.481L15.168,20.753z M15.364,19.619h0.939l-0.47,0.469L15.364,19.619z M15.352,19.358l0.482-0.481
		l0.481,0.481H15.352z M15.168,19.175v-0.963l0.482,0.481L15.168,19.175z M15.364,18.041h0.939l-0.47,0.469L15.364,18.041z
		 M15.352,17.775l0.482-0.481l0.481,0.481H15.352z M15.168,17.591v-0.963l0.482,0.481L15.168,17.591z M15.364,16.457h0.939
		l-0.47,0.469L15.364,16.457z M15.352,16.197l0.482-0.481l0.481,0.481H15.352z M15.465,14.979h0.738l-0.369,0.368L15.465,14.979z
		 M15.886,10.34l0.383,0.645l-0.676,0.003L15.886,10.34z M15.504,10.575l-0.005-0.887l0.232,0.392L15.504,10.575z M15.854,9.811
		l-0.267-0.444l0.473-0.003L15.854,9.811z M15.593,9.111l0.186-0.317l0.229,0.314L15.593,9.111z M15.756,8.37l-0.157-0.213
		l0.285-0.002L15.756,8.37z M15.627,8.587l-0.133,0.226L15.492,8.4L15.627,8.587z M15.488,7.688l-0.002-0.172l0.069,0.079
		L15.488,7.688z M15.483,6.914V6.876l0.018,0.018L15.483,6.914z M15.51,11.737l0.391,0.852l-0.141,0.43h-0.243L15.51,11.737z
		 M15.586,11.287l0.741-0.003l-0.307,0.937L15.586,11.287z M16.009,10.067l0.185-0.408l0.124,0.919L16.009,10.067z M15.906,8.575
		l0.116-0.196l0.057,0.431L15.906,8.575z M15.603,7.917l0.105-0.146l0.125,0.144L15.603,7.917z M15.658,7.049l0.047,0.048
		l-0.089,0.001L15.658,7.049z M15.63,6.714l0.024,0l-0.012,0.014L15.63,6.714z M15.755,7.32L15.689,7.41l-0.077-0.088L15.755,7.32z
		 M15.818,6.86l0.006,0.047L15.8,6.882L15.818,6.86z M15.603,6.368l0.185,0.128l-0.333,0.003L15.603,6.368z M15.65,15.532
		l-0.482,0.481V15.05L15.65,15.532z M14.614,13.019c-0.054,0-0.098,0.044-0.098,0.098v1.009h-1.399V14.06
		c0-0.054-0.044-0.098-0.098-0.098h-2.146c-0.055,0-0.098,0.043-0.098,0.098v0.065H8.465v-0.521c0-0.054-0.044-0.098-0.098-0.098
		H7.517l7.748-6.841v6.353H14.614z M15.168,26.106l0.482,0.481l-0.482,0.481V26.106z M15.352,27.252l0.482-0.481l0.481,0.481H15.352
		z M16.485,27.054l-0.467-0.466l0.467-0.466V27.054z M16.485,25.476l-0.467-0.466l0.467-0.466V25.476z M16.485,23.892l-0.467-0.466
		l0.467-0.466V23.892z M16.485,22.314l-0.467-0.466l0.467-0.466V22.314z M16.485,20.738l-0.467-0.466l0.467-0.466V20.738z
		 M16.485,19.16l-0.467-0.466l0.467-0.466V19.16z M16.485,17.576l-0.467-0.466l0.467-0.466V17.576z M16.485,15.998l-0.467-0.466
		l0.467-0.466V15.998z M16.394,13.019l-0.207-0.442l0.28-0.877l0.178,1.319H16.394z M18.613,13.847l-0.461,0.244
		c0-0.001,0-0.487,0-0.487L18.613,13.847z M18.316,13.402l1.076,0.033l-0.509,0.269L18.316,13.402z M18.295,14.303l0.588-0.313
		l0.528,0.279L18.295,14.303z M19.74,14.161l-0.589-0.314l0.589-0.313V14.161z M20.515,13.847l-0.497,0.294v-0.588L20.515,13.847z
		 M20.351,13.464l0.772,0.023l-0.367,0.217L20.351,13.464z M20.334,14.241l0.422-0.251l0.383,0.227L20.334,14.241z M21.424,14.104
		l-0.43-0.256l0.43-0.256V14.104z M22.044,13.848l-0.362,0.237V13.61L22.044,13.848z M21.971,13.513l0.559,0.017l-0.268,0.175
		L21.971,13.513z M21.957,14.192l0.305-0.201l0.28,0.184L21.957,14.192z M22.791,14.054l-0.313-0.206l0.313-0.207V14.054z
		 M23.039,14.037v-0.378l0.264,0.189L23.039,14.037z M23.293,13.553l0.403,0.012l-0.193,0.139L23.293,13.553z M23.282,14.152
		l0.221-0.16l0.204,0.147L23.282,14.152z M23.931,14.013l-0.229-0.165l0.229-0.165V14.013z M24.169,13.997V13.7l0.189,0.148
		L24.169,13.997z M24.387,14.119l0.158-0.124l0.146,0.115L24.387,14.119z M24.396,13.586l0.287,0.008l-0.139,0.108L24.396,13.586z
		 M24.893,13.976l-0.161-0.127l0.161-0.127V13.976z M25.128,13.96v-0.222l0.131,0.111L25.128,13.96z M25.324,14.09l0.11-0.093
		l0.103,0.086L25.324,14.09z M25.333,13.614l0.196,0.006l-0.095,0.081L25.333,13.614z M25.719,13.942l-0.109-0.094l0.109-0.093
		V13.942z M18.152,13.154v-0.038c0-0.054-0.043-0.098-0.098-0.098h-1.156l-0.89-6.369l9.777,6.756L18.152,13.154z M25.945,13.927
		v-0.155l0.086,0.078L25.945,13.927z M26.124,14.066L26.197,14l0.068,0.062L26.124,14.066z M26.432,13.912l-0.069-0.063l0.069-0.063
		V13.912z"/>
</g>
<g>
	<linearGradient id="SVGID_3_" gradientUnits="userSpaceOnUse" x1="1.8662" y1="0.2197" x2="26.1004" y2="22.4479">
		<stop  offset="0" style="stop-color:#EFE580"/>
		<stop  offset="1" style="stop-color:#E6B341"/>
	</linearGradient>
	<rect x="24.178" y="20.684" fill="url(#SVGID_3_)" width="0.693" height="0.637"/>
	<linearGradient id="SVGID_4_" gradientUnits="userSpaceOnUse" x1="0.3135" y1="1.9639" x2="24.5419" y2="24.1868">
		<stop  offset="0" style="stop-color:#EFE580"/>
		<stop  offset="1" style="stop-color:#E6B341"/>
	</linearGradient>
	<path fill="url(#SVGID_4_)" d="M25.828,13.024l-0.289-0.01L14.935,5.687c-0.017-0.012-0.036-0.017-0.056-0.017
		c-0.03,0-0.061,0.015-0.08,0.042l-0.017,0.024c-0.005,0-0.01-0.001-0.014-0.001c-0.023,0-0.047,0.008-0.065,0.024l-8.315,7.342
		H6.236c-0.055,0-0.098,0.043-0.098,0.097v0.123v0.351v0.91c0,0.054,0.043,0.098,0.098,0.098h1.398c0.055,0,0.099-0.043,0.099-0.098
		v-0.423h2.31v0.375c0,0.054,0.043,0.097,0.098,0.097h2.147c0.054,0,0.098-0.043,0.098-0.097v-0.375h1.399v0.317
		c0,0.054,0.043,0.097,0.098,0.097h0.292v12.437c0,0.054,0.044,0.098,0.099,0.098h1.643c0.054,0,0.098-0.044,0.098-0.098V14.572
		h0.645c0.029,0,0.057-0.012,0.075-0.035l0.319-0.382l5.052-0.166v6.101h-3.428v1.796h7.137v-1.796h-3.362v-6.113l3.377-0.111
		c0.053-0.001,0.094-0.045,0.094-0.098v-0.648C25.922,13.069,25.881,13.026,25.828,13.024z M20.619,21.301
		c-0.013,0.122-0.121,0.218-0.253,0.218h-0.644c-0.14,0-0.252-0.11-0.252-0.244v-0.528c0-0.134,0.112-0.244,0.252-0.244h0.644
		c0.13,0,0.237,0.094,0.252,0.214v0.013h-0.867v0.557h0.868V21.301z M22,21.274c0,0.134-0.115,0.244-0.255,0.244H21.07
		c-0.132,0-0.239-0.097-0.253-0.221h0.924v-0.181h-0.672c-0.132,0-0.24-0.096-0.253-0.219v-0.151c0-0.134,0.114-0.244,0.254-0.244
		h0.656c0.131,0,0.239,0.097,0.253,0.22h-0.904v0.176h0.674c0.13,0,0.238,0.096,0.251,0.219V21.274z M23.949,20.728
		c0-0.128,0.111-0.234,0.244-0.234h0.661c0.135,0,0.243,0.105,0.243,0.234v0.547c0,0.13-0.108,0.234-0.243,0.234h-0.661
		c-0.133,0-0.244-0.104-0.244-0.234V20.728z M22.554,20.728c0-0.128,0.109-0.234,0.243-0.234h0.707c0.118,0,0.221,0.084,0.239,0.197
		h-0.965v0.617h0.741v-0.221h-0.354c-0.022,0-0.101-0.005-0.15-0.067c-0.04-0.047-0.051-0.084-0.054-0.103h0.783v0.385
		c-0.013,0.117-0.116,0.207-0.241,0.207h-0.707c-0.134,0-0.243-0.104-0.243-0.234V20.728z M25.471,13.287l-0.005,0.005l-0.04-0.036
		L25.471,13.287z M15.172,7.091l0.025,0.185L15.11,7.177L15.172,7.091z M14.62,25.268l0.482-0.481l0.481,0.481H14.62z
		 M15.571,25.528l-0.469,0.469l-0.47-0.469H15.571z M14.436,25.084v-0.963l0.482,0.481L14.436,25.084z M14.633,23.95h0.938
		l-0.469,0.469L14.633,23.95z M14.62,23.685l0.482-0.481l0.481,0.481H14.62z M14.436,23.5v-0.962l0.482,0.481L14.436,23.5z
		 M14.633,22.367h0.938l-0.469,0.469L14.633,22.367z M14.62,22.106l0.482-0.481l0.481,0.481H14.62z M14.436,21.922V20.96
		l0.482,0.481L14.436,21.922z M14.635,20.791h0.936l-0.468,0.467L14.635,20.791z M14.622,20.528l0.48-0.479l0.48,0.479H14.622z
		 M14.436,20.346v-0.962l0.482,0.481L14.436,20.346z M14.633,19.212h0.938l-0.469,0.469L14.633,19.212z M14.62,18.952l0.482-0.481
		l0.481,0.481H14.62z M14.436,18.769v-0.963l0.482,0.481L14.436,18.769z M14.633,17.634h0.938l-0.469,0.469L14.633,17.634z
		 M14.62,17.368l0.482-0.481l0.481,0.481H14.62z M14.436,17.185v-0.963l0.482,0.481L14.436,17.185z M14.633,16.05h0.938
		l-0.469,0.469L14.633,16.05z M14.62,15.79l0.482-0.481l0.481,0.481H14.62z M14.733,14.572h0.738l-0.369,0.369L14.733,14.572z
		 M15.154,9.933l0.383,0.646l-0.677,0.003L15.154,9.933z M14.772,10.168l-0.005-0.887L15,9.673L14.772,10.168z M15.123,9.404
		L14.855,8.96l0.474-0.003L15.123,9.404z M14.861,8.705l0.186-0.317l0.229,0.314L14.861,8.705z M15.024,7.964L14.867,7.75
		l0.285-0.002L15.024,7.964z M14.896,8.18l-0.134,0.226L14.76,7.994L14.896,8.18z M14.756,7.282L14.755,7.11l0.069,0.079
		L14.756,7.282z M14.752,6.507V6.469l0.017,0.018L14.752,6.507z M14.778,11.331l0.391,0.852l-0.141,0.43h-0.243L14.778,11.331z
		 M14.854,10.881l0.741-0.003l-0.307,0.937L14.854,10.881z M15.277,9.661l0.185-0.408l0.123,0.92L15.277,9.661z M15.175,8.168
		l0.115-0.197l0.058,0.431L15.175,8.168z M14.871,7.511l0.104-0.146l0.125,0.145L14.871,7.511z M14.926,6.643l0.047,0.047
		l-0.088,0.001L14.926,6.643z M14.898,6.308h0.024l-0.012,0.013L14.898,6.308z M15.023,6.914l-0.065,0.09l-0.077-0.088L15.023,6.914
		z M15.087,6.453L15.093,6.5l-0.025-0.024L15.087,6.453z M14.871,5.962l0.185,0.127l-0.333,0.003L14.871,5.962z M14.918,15.125
		l-0.482,0.481v-0.963L14.918,15.125z M13.883,12.612c-0.055,0-0.098,0.044-0.098,0.098v1.008h-1.399v-0.065
		c0-0.054-0.044-0.098-0.098-0.098h-2.147c-0.055,0-0.098,0.044-0.098,0.098v0.065h-2.31v-0.521c0-0.054-0.044-0.097-0.099-0.097
		h-0.85l7.748-6.841v6.353H13.883z M14.436,25.7l0.482,0.481l-0.482,0.481V25.7z M14.62,26.846l0.482-0.481l0.481,0.481H14.62z
		 M15.753,26.647l-0.466-0.466l0.466-0.466V26.647z M15.753,25.069l-0.466-0.466l0.466-0.466V25.069z M15.753,23.486l-0.466-0.466
		l0.466-0.466V23.486z M15.753,21.908l-0.466-0.466l0.466-0.466V21.908z M15.753,20.332l-0.466-0.467l0.466-0.466V20.332z
		 M15.753,18.753l-0.466-0.466l0.466-0.466V18.753z M15.753,17.169l-0.466-0.466l0.466-0.466V17.169z M15.753,15.591l-0.466-0.466
		l0.466-0.466V15.591z M15.661,12.612l-0.206-0.442l0.28-0.877l0.177,1.32H15.661z M17.881,13.44l-0.46,0.243
		c0-0.001,0-0.487,0-0.487L17.881,13.44z M17.585,12.996l1.075,0.032l-0.509,0.27L17.585,12.996z M17.563,13.896l0.589-0.313
		l0.528,0.279L17.563,13.896z M19.008,13.754L18.42,13.44l0.588-0.313V13.754z M19.783,13.441l-0.497,0.294v-0.589L19.783,13.441z
		 M19.619,13.057l0.772,0.023l-0.367,0.218L19.619,13.057z M19.602,13.834l0.422-0.251l0.384,0.227L19.602,13.834z M20.692,13.697
		l-0.43-0.256l0.43-0.255V13.697z M21.313,13.441l-0.362,0.238v-0.476L21.313,13.441z M21.239,13.106l0.559,0.017l-0.268,0.175
		L21.239,13.106z M21.226,13.785l0.305-0.201l0.28,0.183L21.226,13.785z M22.06,13.647l-0.313-0.207l0.313-0.206V13.647z
		 M22.308,13.63v-0.378l0.264,0.189L22.308,13.63z M22.562,13.146l0.403,0.012l-0.193,0.139L22.562,13.146z M22.55,13.746
		l0.222-0.16l0.204,0.146L22.55,13.746z M23.199,13.606l-0.229-0.165l0.229-0.165V13.606z M23.437,13.59v-0.297l0.189,0.148
		L23.437,13.59z M23.655,13.712l0.158-0.124l0.146,0.115L23.655,13.712z M23.665,13.179l0.286,0.009l-0.138,0.107L23.665,13.179z
		 M24.161,13.569l-0.162-0.127l0.162-0.127V13.569z M24.396,13.553v-0.222l0.132,0.111L24.396,13.553z M24.593,13.684l0.109-0.093
		l0.104,0.086L24.593,13.684z M24.602,13.208l0.196,0.006l-0.096,0.08L24.602,13.208z M24.987,13.536l-0.11-0.093l0.11-0.094V13.536
		z M17.421,12.748V12.71c0-0.054-0.044-0.098-0.098-0.098h-1.157l-0.889-6.37l9.776,6.756L17.421,12.748z M25.214,13.52v-0.155
		l0.085,0.078L25.214,13.52z M25.393,13.659l0.073-0.066l0.067,0.062L25.393,13.659z M25.699,13.505l-0.068-0.063l0.068-0.063
		V13.505z"/>
</g>
<path fill-rule="evenodd" clip-rule="evenodd" fill="#282622" d="M5.358,29.823c-0.241,0-0.432-0.206-0.435-0.47l-0.021-5.609
	c-0.001-0.132,0.049-0.258,0.138-0.348c0.08-0.081,0.185-0.125,0.294-0.125l21.813-0.012c0.24,0,0.436,0.212,0.436,0.472
	l0.021,5.608c0,0.26-0.192,0.473-0.432,0.473L5.358,29.823C5.358,29.823,5.358,29.823,5.358,29.823z"/>
<g id="Shape_21_copy_4_">
	<g>
		<path fill-rule="evenodd" clip-rule="evenodd" fill="#DBAD22" d="M27.42,23.732c0-0.171-0.123-0.31-0.272-0.31L5.335,23.434
			c-0.148,0-0.271,0.137-0.27,0.31l0.021,5.608c0.002,0.172,0.122,0.31,0.272,0.31l21.813-0.011c0.149,0,0.271-0.139,0.271-0.309
			L27.42,23.732z"/>
	</g>
</g>
<g id="Shape_21_copy_2_2_">
	<g>
		<path fill-rule="evenodd" clip-rule="evenodd" fill="#282622" d="M26.971,24.124c-0.002-0.149-0.119-0.27-0.262-0.27l-20.934,0.01
			c-0.144,0-0.259,0.121-0.258,0.27l0.02,4.855c0,0.148,0.117,0.27,0.261,0.27l20.933-0.01c0.144,0,0.26-0.12,0.26-0.27
			L26.971,24.124z"/>
	</g>
</g>
<g>
	<path d="M8.984,25.172v3.122H7.403H7.311c-0.085,0-0.151-0.011-0.197-0.031c-0.046-0.021-0.068-0.05-0.068-0.088
		c0-0.063,0.047-0.104,0.142-0.124c0.078-0.017,0.124-0.027,0.138-0.031c0.012-0.004,0.026-0.013,0.04-0.026
		c0.028-0.024,0.042-0.063,0.042-0.117v-2.289c0-0.053-0.014-0.092-0.042-0.117c-0.014-0.014-0.028-0.022-0.04-0.026
		c-0.014-0.004-0.06-0.014-0.138-0.031c-0.095-0.02-0.142-0.061-0.142-0.124c0-0.038,0.022-0.067,0.068-0.088
		c0.046-0.021,0.112-0.031,0.197-0.031h0.093H8.984z M9.702,27.639v-1.804c0-0.111-0.025-0.199-0.075-0.265
		c-0.03-0.042-0.068-0.074-0.113-0.093c-0.045-0.02-0.116-0.037-0.213-0.051v-0.254c0.125,0,0.231,0.003,0.319,0.01
		c0.301,0.021,0.592,0.104,0.874,0.247c0.28,0.139,0.487,0.319,0.622,0.542c0.14,0.226,0.21,0.476,0.21,0.75
		c0,0.311-0.089,0.587-0.267,0.829c-0.178,0.242-0.433,0.432-0.765,0.571c-0.161,0.067-0.311,0.113-0.449,0.137
		c-0.139,0.024-0.32,0.037-0.545,0.037v-0.247C9.4,28.03,9.469,28.015,9.508,28c0.039-0.013,0.073-0.035,0.103-0.064
		c0.035-0.034,0.059-0.071,0.072-0.113S9.702,27.72,9.702,27.639z"/>
	<path d="M13.706,28.293h-1.585h-0.092c-0.086,0-0.151-0.011-0.197-0.031c-0.046-0.021-0.069-0.05-0.069-0.088
		c0-0.063,0.047-0.104,0.142-0.124c0.078-0.017,0.125-0.027,0.138-0.031s0.026-0.013,0.04-0.026
		c0.029-0.024,0.043-0.063,0.043-0.117v-2.289c0-0.053-0.014-0.092-0.043-0.117c-0.014-0.014-0.027-0.022-0.04-0.026
		c-0.013-0.004-0.06-0.014-0.138-0.031c-0.095-0.02-0.142-0.061-0.142-0.124c0-0.038,0.023-0.067,0.069-0.088
		c0.046-0.021,0.111-0.031,0.197-0.031h0.092h1.585h0.093c0.085,0,0.151,0.01,0.197,0.031c0.046,0.021,0.068,0.05,0.068,0.088
		c0,0.063-0.047,0.104-0.142,0.124c-0.078,0.017-0.124,0.027-0.137,0.031c-0.013,0.004-0.026,0.012-0.04,0.026
		c-0.029,0.024-0.044,0.063-0.044,0.117v2.289c0,0.054,0.015,0.093,0.044,0.117c0.014,0.014,0.027,0.022,0.04,0.026
		s0.059,0.014,0.137,0.031c0.095,0.02,0.142,0.061,0.142,0.124c0,0.038-0.022,0.067-0.068,0.088
		c-0.046,0.02-0.112,0.031-0.197,0.031H13.706z"/>
	<path d="M18.02,25.172v0.263l-1.965,2.858h-1.553v-0.227l1.972-2.895L18.02,25.172z M14.623,25.172h1.542l-0.178,0.261
		c-0.201,0.017-0.386,0.064-0.554,0.142c-0.214,0.097-0.359,0.236-0.438,0.416c-0.02,0.047-0.043,0.08-0.071,0.098
		c-0.028,0.019-0.069,0.027-0.121,0.027c-0.12,0-0.181-0.045-0.181-0.135V25.172z M18.02,28.293h-1.662l0.159-0.229
		c0.291-0.044,0.503-0.095,0.633-0.153c0.11-0.05,0.201-0.108,0.27-0.174c0.068-0.065,0.141-0.164,0.217-0.295
		c0.028-0.048,0.057-0.082,0.084-0.099s0.063-0.026,0.111-0.026c0.062,0,0.108,0.014,0.141,0.041
		c0.031,0.028,0.048,0.067,0.048,0.119V28.293z"/>
	<path d="M21.828,25.172v0.263l-1.964,2.858h-1.554v-0.227l1.973-2.895H21.828z M18.432,25.172h1.542l-0.177,0.26
		c-0.202,0.017-0.387,0.064-0.555,0.142c-0.213,0.097-0.359,0.236-0.437,0.416c-0.02,0.047-0.044,0.08-0.071,0.098
		c-0.029,0.019-0.069,0.027-0.121,0.027c-0.121,0-0.182-0.045-0.182-0.135V25.172z M21.828,28.293h-1.662l0.159-0.229
		c0.291-0.044,0.503-0.095,0.633-0.153c0.111-0.05,0.201-0.108,0.271-0.174c0.068-0.065,0.141-0.164,0.217-0.295
		c0.028-0.048,0.056-0.082,0.083-0.099s0.064-0.026,0.111-0.026c0.062,0,0.109,0.014,0.141,0.041
		c0.032,0.028,0.048,0.067,0.048,0.119V28.293z"/>
	<path d="M24.891,26.862v0.997c0,0.06,0.018,0.102,0.054,0.128c0.019,0.015,0.037,0.024,0.054,0.028
		c0.017,0.003,0.071,0.013,0.163,0.029c0.113,0.017,0.17,0.059,0.17,0.125c0,0.044-0.031,0.078-0.096,0.101
		c-0.037,0.015-0.11,0.023-0.221,0.023h-0.12h-1.584h-0.117c-0.107,0-0.182-0.009-0.225-0.027c-0.062-0.025-0.092-0.057-0.092-0.096
		c0-0.067,0.057-0.109,0.17-0.125c0.093-0.016,0.146-0.025,0.164-0.029c0.017-0.004,0.033-0.014,0.049-0.028
		c0.036-0.026,0.054-0.069,0.054-0.128v-0.773l-1.006-1.543c-0.037-0.058-0.091-0.1-0.159-0.125
		c-0.064-0.026-0.104-0.046-0.123-0.062c-0.018-0.016-0.026-0.037-0.026-0.064c0-0.079,0.09-0.119,0.27-0.119h1.741
		c0.092,0,0.156,0.007,0.192,0.021c0.059,0.024,0.089,0.056,0.089,0.096c0,0.049-0.035,0.087-0.104,0.114l-0.103,0.042
		c-0.041,0.017-0.062,0.042-0.062,0.076c0,0.038,0.014,0.075,0.039,0.112L24.891,26.862z M25.03,26.645l-0.2-0.299l0.373-0.538
		c0.031-0.045,0.047-0.108,0.047-0.187c0-0.088-0.076-0.152-0.228-0.19c-0.083-0.021-0.137-0.04-0.161-0.056
		c-0.025-0.016-0.038-0.041-0.038-0.074c0-0.042,0.021-0.072,0.064-0.094c0.028-0.014,0.06-0.022,0.096-0.027
		c0.035-0.005,0.098-0.007,0.185-0.007h0.877c0.166,0,0.249,0.043,0.249,0.128c0,0.031-0.011,0.054-0.033,0.071
		c-0.022,0.017-0.065,0.034-0.13,0.053c-0.116,0.034-0.199,0.067-0.248,0.101c-0.071,0.049-0.131,0.104-0.178,0.167l-0.082,0.116
		L25.03,26.645z"/>
</g>
<g>
	<linearGradient id="SVGID_5_" gradientUnits="userSpaceOnUse" x1="8.9961" y1="24.6343" x2="8.9961" y2="29.306">
		<stop  offset="0" style="stop-color:#EFE580"/>
		<stop  offset="1" style="stop-color:#E6B341"/>
	</linearGradient>
	<path fill="url(#SVGID_5_)" d="M8.795,25.01v3.121H7.214H7.121c-0.085,0-0.151-0.01-0.197-0.031
		c-0.046-0.021-0.069-0.049-0.069-0.088c0-0.063,0.048-0.104,0.143-0.123c0.078-0.017,0.123-0.027,0.137-0.031
		c0.013-0.004,0.026-0.013,0.041-0.026c0.027-0.024,0.043-0.063,0.043-0.117v-2.289c0-0.053-0.016-0.092-0.043-0.117
		c-0.015-0.014-0.028-0.022-0.041-0.026c-0.014-0.004-0.059-0.014-0.137-0.031c-0.095-0.02-0.143-0.061-0.143-0.124
		c0-0.038,0.023-0.067,0.069-0.088s0.112-0.031,0.197-0.031h0.093H8.795z M9.512,27.477v-1.804c0-0.111-0.023-0.2-0.074-0.265
		c-0.031-0.043-0.068-0.074-0.113-0.094c-0.045-0.02-0.116-0.036-0.214-0.05V25.01c0.126,0,0.232,0.003,0.32,0.009
		c0.301,0.021,0.593,0.104,0.874,0.247c0.279,0.139,0.486,0.32,0.622,0.542c0.14,0.226,0.21,0.476,0.21,0.75
		c0,0.311-0.09,0.587-0.268,0.829c-0.177,0.242-0.432,0.432-0.764,0.571c-0.161,0.067-0.311,0.113-0.449,0.137
		c-0.139,0.025-0.32,0.037-0.546,0.037v-0.247c0.1-0.017,0.169-0.032,0.208-0.046c0.04-0.014,0.073-0.035,0.102-0.064
		c0.036-0.033,0.061-0.071,0.072-0.113C9.506,27.619,9.512,27.558,9.512,27.477z"/>
	<linearGradient id="SVGID_6_" gradientUnits="userSpaceOnUse" x1="12.7246" y1="24.6343" x2="12.7246" y2="29.306">
		<stop  offset="0" style="stop-color:#EFE580"/>
		<stop  offset="1" style="stop-color:#E6B341"/>
	</linearGradient>
	<path fill="url(#SVGID_6_)" d="M13.517,28.131h-1.585H11.84c-0.085,0-0.151-0.01-0.197-0.031c-0.046-0.021-0.069-0.049-0.069-0.088
		c0-0.063,0.048-0.104,0.142-0.123c0.079-0.017,0.124-0.027,0.138-0.031c0.013-0.004,0.026-0.013,0.04-0.026
		c0.028-0.024,0.043-0.063,0.043-0.117v-2.289c0-0.053-0.015-0.092-0.043-0.117c-0.014-0.014-0.027-0.022-0.04-0.026
		c-0.014-0.004-0.059-0.014-0.138-0.031c-0.094-0.02-0.142-0.061-0.142-0.124c0-0.038,0.023-0.067,0.069-0.088
		s0.112-0.031,0.197-0.031h0.092h1.585h0.092c0.086,0,0.151,0.01,0.197,0.031s0.069,0.05,0.069,0.088
		c0,0.063-0.047,0.104-0.142,0.124c-0.078,0.017-0.124,0.027-0.138,0.031c-0.012,0.004-0.026,0.013-0.04,0.026
		c-0.028,0.024-0.042,0.063-0.042,0.117v2.289c0,0.054,0.014,0.092,0.042,0.117c0.014,0.014,0.028,0.022,0.04,0.026
		c0.014,0.004,0.06,0.014,0.138,0.031c0.095,0.02,0.142,0.061,0.142,0.123c0,0.039-0.023,0.067-0.069,0.088
		c-0.046,0.021-0.111,0.031-0.197,0.031H13.517z"/>
	<linearGradient id="SVGID_7_" gradientUnits="userSpaceOnUse" x1="16.0713" y1="24.6343" x2="16.0713" y2="29.306">
		<stop  offset="0" style="stop-color:#EFE580"/>
		<stop  offset="1" style="stop-color:#E6B341"/>
	</linearGradient>
	<path fill="url(#SVGID_7_)" d="M17.83,25.01v0.263l-1.965,2.858h-1.553v-0.227l1.972-2.895H17.83z M14.434,25.01h1.542
		l-0.178,0.261c-0.202,0.017-0.387,0.064-0.555,0.142c-0.213,0.098-0.358,0.236-0.437,0.416c-0.02,0.047-0.043,0.08-0.071,0.098
		c-0.029,0.019-0.069,0.027-0.12,0.027c-0.122,0-0.182-0.044-0.182-0.134V25.01z M17.83,28.131h-1.663l0.159-0.229
		c0.292-0.044,0.503-0.095,0.634-0.153c0.11-0.051,0.201-0.108,0.27-0.174c0.069-0.066,0.141-0.164,0.217-0.295
		c0.028-0.049,0.057-0.082,0.083-0.1c0.027-0.018,0.064-0.026,0.112-0.026c0.062,0,0.108,0.014,0.141,0.041
		c0.032,0.028,0.048,0.067,0.048,0.119V28.131z"/>
	<linearGradient id="SVGID_8_" gradientUnits="userSpaceOnUse" x1="19.8799" y1="24.6343" x2="19.8799" y2="29.306">
		<stop  offset="0" style="stop-color:#EFE580"/>
		<stop  offset="1" style="stop-color:#E6B341"/>
	</linearGradient>
	<path fill="url(#SVGID_8_)" d="M21.639,25.01v0.263l-1.965,2.858h-1.553v-0.227l1.972-2.895H21.639z M18.242,25.01h1.542
		l-0.178,0.261c-0.201,0.017-0.387,0.064-0.555,0.142c-0.213,0.098-0.358,0.236-0.437,0.416c-0.019,0.047-0.043,0.08-0.071,0.098
		c-0.028,0.019-0.069,0.027-0.12,0.027c-0.122,0-0.182-0.044-0.182-0.134V25.01z M21.639,28.131h-1.663l0.16-0.229
		c0.291-0.044,0.502-0.095,0.633-0.153c0.11-0.051,0.201-0.108,0.27-0.174c0.069-0.066,0.141-0.164,0.217-0.295
		c0.028-0.049,0.057-0.082,0.084-0.1s0.063-0.026,0.111-0.026c0.062,0,0.108,0.014,0.141,0.041c0.032,0.028,0.048,0.067,0.048,0.119
		V28.131z"/>
	<linearGradient id="SVGID_9_" gradientUnits="userSpaceOnUse" x1="23.957" y1="24.6343" x2="23.957" y2="29.306">
		<stop  offset="0" style="stop-color:#EFE580"/>
		<stop  offset="1" style="stop-color:#E6B341"/>
	</linearGradient>
	<path fill="url(#SVGID_9_)" d="M24.701,26.699v0.997c0,0.059,0.019,0.103,0.054,0.128c0.019,0.016,0.036,0.025,0.053,0.029
		s0.071,0.013,0.164,0.028c0.113,0.017,0.17,0.059,0.17,0.126c0,0.044-0.032,0.078-0.096,0.101c-0.038,0.015-0.111,0.023-0.22,0.023
		h-0.121H23.12h-0.117c-0.106,0-0.181-0.009-0.224-0.027c-0.063-0.024-0.093-0.057-0.093-0.096c0-0.067,0.058-0.109,0.171-0.126
		c0.092-0.015,0.146-0.024,0.163-0.028s0.034-0.013,0.05-0.029c0.036-0.025,0.054-0.069,0.054-0.128v-0.773l-1.005-1.543
		c-0.039-0.058-0.092-0.1-0.161-0.125c-0.063-0.026-0.104-0.047-0.122-0.062s-0.027-0.037-0.027-0.064
		c0-0.079,0.09-0.119,0.271-0.119h1.741c0.093,0,0.156,0.007,0.191,0.021c0.06,0.024,0.09,0.057,0.09,0.096
		c0,0.048-0.035,0.087-0.104,0.114l-0.104,0.041c-0.04,0.017-0.061,0.042-0.061,0.076c0,0.038,0.014,0.075,0.039,0.112
		L24.701,26.699z M24.84,26.482l-0.199-0.3l0.374-0.538c0.03-0.046,0.046-0.108,0.046-0.188c0-0.088-0.076-0.151-0.228-0.189
		c-0.083-0.021-0.138-0.04-0.162-0.056s-0.037-0.041-0.037-0.074c0-0.041,0.021-0.072,0.064-0.094
		c0.028-0.014,0.061-0.023,0.096-0.027c0.035-0.005,0.097-0.007,0.185-0.007h0.878c0.165,0,0.248,0.042,0.248,0.128
		c0,0.031-0.012,0.054-0.033,0.071c-0.022,0.017-0.065,0.035-0.13,0.052c-0.116,0.034-0.199,0.067-0.249,0.101
		c-0.071,0.048-0.13,0.104-0.178,0.167l-0.082,0.117L24.84,26.482z"/>
</g>
<path d="M5.802,24.438c-0.001-0.149,0.114-0.27,0.259-0.27l20.91-0.01v-0.015c-0.002-0.149-0.119-0.27-0.262-0.27l-20.934,0.01
	c-0.144,0-0.259,0.121-0.258,0.27l0.02,4.855c0,0.148,0.117,0.27,0.261,0.27h0.023L5.802,24.438z"/>
</svg>
