<?xml version="1.0" encoding="utf-8"?>
<!-- Generator: Adobe Illustrator 16.0.0, SVG Export Plug-In . SVG Version: 6.00 Build 0)  -->
<!DOCTYPE svg PUBLIC "-//W3C//DTD SVG 1.1//EN" "http://www.w3.org/Graphics/SVG/1.1/DTD/svg11.dtd">
<svg version="1.1" id="Layer_1" xmlns="http://www.w3.org/2000/svg" xmlns:xlink="http://www.w3.org/1999/xlink" x="0px" y="0px"
	 width="32px" height="32px" viewBox="0 0 32 32" enable-background="new 0 0 32 32" xml:space="preserve">
<g id="Shape_34">
	<g>
		<rect x="4.09" y="0.689" fill-rule="evenodd" clip-rule="evenodd" fill="#282622" width="24.203" height="31.029"/>
	</g>
</g>
<g id="Rectangle_1">
	<g>
		<path fill-rule="evenodd" clip-rule="evenodd" fill="#303535" d="M9.312,8.763l2.339,2.345l2.339-2.345L11.65,6.418L9.312,8.763z
			 M4.628,8.763l2.339,2.345l2.339-2.345L6.967,6.418L4.628,8.763z M9.312,4.037l2.339,2.345l2.339-2.345L11.65,1.692L9.312,4.037z
			 M18.678,8.763l2.338,2.345l2.34-2.345l-2.34-2.345L18.678,8.763z M13.995,4.037l2.339,2.345l2.338-2.345l-2.338-2.345
			L13.995,4.037z M4.628,4.037l2.339,2.345l2.339-2.345L6.967,1.692L4.628,4.037z M28.033,4.037l-2.338-2.345l-2.34,2.345
			l2.34,2.345L28.033,4.037z M18.678,4.037l2.338,2.345l2.34-2.345l-2.34-2.345L18.678,4.037z M23.355,8.763l2.34,2.345l2.338-2.345
			l-2.338-2.345L23.355,8.763z M13.995,8.763l2.339,2.345l2.338-2.345l-2.338-2.345L13.995,8.763z M4.628,13.488l2.339,2.346
			l2.339-2.346l-2.339-2.345L4.628,13.488z M13.995,18.215l2.339,2.345l2.338-2.345l-2.338-2.345L13.995,18.215z M9.312,18.215
			l2.339,2.345l2.339-2.345L11.65,15.87L9.312,18.215z M9.312,13.488l2.339,2.345l2.339-2.345l-2.339-2.345L9.312,13.488z
			 M4.628,18.215l2.339,2.345l2.339-2.345L6.967,15.87L4.628,18.215z M13.995,13.488l2.339,2.345l2.338-2.345l-2.338-2.345
			L13.995,13.488z M23.355,13.488l2.34,2.345l2.338-2.345l-2.338-2.345L23.355,13.488z M18.678,13.488l2.338,2.345l2.34-2.345
			l-2.34-2.345L18.678,13.488z M23.355,18.215l2.34,2.345l2.338-2.345l-2.338-2.345L23.355,18.215z M18.678,18.215l2.338,2.345
			l2.34-2.345l-2.34-2.345L18.678,18.215z M4.628,27.737l2.339,2.345l2.339-2.345l-2.339-2.345L4.628,27.737z M4.628,23.011
			l2.339,2.346l2.339-2.346l-2.339-2.345L4.628,23.011z M9.312,23.011l2.339,2.346l2.339-2.346l-2.339-2.345L9.312,23.011z
			 M18.678,23.011l2.338,2.346l2.34-2.346l-2.34-2.345L18.678,23.011z M23.355,27.737l2.34,2.345l2.338-2.345l-2.338-2.345
			L23.355,27.737z M23.355,23.011l2.34,2.346l2.338-2.346l-2.338-2.345L23.355,23.011z M13.995,23.011l2.339,2.346l2.338-2.346
			l-2.338-2.345L13.995,23.011z M13.995,27.737l2.339,2.345l2.338-2.345l-2.338-2.345L13.995,27.737z M18.678,27.737l2.338,2.345
			l2.34-2.345l-2.34-2.345L18.678,27.737z M9.312,27.737l2.339,2.345l2.339-2.345l-2.339-2.345L9.312,27.737z"/>
	</g>
</g>
<g id="Shape_36">
	<g>
		<polygon fill-rule="evenodd" clip-rule="evenodd" fill="#A9BDC4" points="22.635,11.858 22.314,11.674 20.676,12.62 20.68,12.296 
			20.357,12.111 20.037,12.296 20.031,12.992 18.678,13.774 18.684,13.062 18.363,12.877 18.043,13.062 18.033,14.146 
			17.348,14.542 16.439,14.018 16.439,13.223 17.369,12.676 17.369,12.306 17.049,12.121 16.439,12.479 16.439,10.915 
			17.033,10.564 17.033,10.194 16.713,10.01 16.439,10.171 16.439,8.281 16.119,8.097 15.799,8.281 15.798,10.174 15.52,10.01 
			15.199,10.194 15.199,10.564 15.798,10.918 15.798,12.481 15.185,12.121 14.864,12.306 14.864,12.676 15.798,13.226 
			15.799,14.018 14.891,14.542 14.202,14.145 14.193,13.066 13.873,12.881 13.552,13.066 13.558,13.772 12.204,12.99 12.197,12.301 
			11.877,12.116 11.557,12.301 11.56,12.618 9.923,11.674 9.603,11.858 9.603,12.229 11.242,13.175 10.96,13.335 10.96,13.704 
			11.28,13.89 11.886,13.547 13.24,14.329 12.621,14.68 12.621,15.05 12.941,15.234 13.884,14.7 14.571,15.097 14.571,16.145 
			13.881,16.543 12.943,16.012 12.623,16.196 12.623,16.566 13.238,16.915 11.883,17.697 11.283,17.357 10.962,17.542 
			10.962,17.912 11.239,18.068 9.603,19.014 9.603,19.383 9.923,19.568 11.563,18.621 11.559,18.945 11.88,19.131 12.2,18.945 
			12.206,18.25 13.561,17.468 13.555,18.18 13.875,18.365 14.195,18.18 14.204,17.097 14.891,16.7 15.798,17.224 15.799,18.02 
			14.87,18.566 14.869,18.937 15.19,19.121 15.799,18.763 15.798,20.327 15.205,20.678 15.204,21.047 15.525,21.232 15.799,21.07 
			15.798,22.96 16.119,23.146 16.439,22.961 16.439,21.067 16.718,21.232 17.039,21.047 17.039,20.677 16.439,20.324 16.439,18.76 
			17.053,19.121 17.373,18.937 17.373,18.566 16.439,18.017 16.439,17.224 17.348,16.7 18.037,17.098 18.045,18.176 18.365,18.36 
			18.686,18.176 18.68,17.47 20.035,18.251 20.041,18.941 20.361,19.126 20.682,18.941 20.678,18.623 22.314,19.568 22.635,19.383 
			22.635,19.014 20.996,18.067 21.277,17.907 21.277,17.537 20.957,17.353 20.352,17.695 18.998,16.913 19.617,16.563 
			19.617,16.192 19.297,16.008 18.354,16.542 17.668,16.146 17.668,15.097 18.357,14.699 19.295,15.23 19.615,15.045 19.615,14.676 
			19,14.327 20.355,13.545 20.955,13.885 21.275,13.7 21.275,13.33 20.998,13.174 22.635,12.229 		"/>
	</g>
</g>
<g id="Shape_36_copy">
	<g>
		<polygon fill-rule="evenodd" clip-rule="evenodd" fill="#A9BDC4" points="21.84,15.621 21.699,15.378 20.26,15.378 20.385,15.165 
			20.244,14.922 19.963,14.922 19.695,15.378 18.506,15.378 18.781,14.91 18.641,14.667 18.359,14.667 17.941,15.378 17.338,15.378 
			16.939,14.687 17.242,14.163 18.061,14.156 18.203,13.912 18.061,13.669 17.523,13.674 18.119,12.644 18.643,12.639 
			18.783,12.396 18.643,12.151 18.402,12.154 19.121,10.909 18.98,10.666 18.699,10.666 17.979,11.912 17.857,11.698 17.576,11.698 
			17.436,11.941 17.695,12.402 17.102,13.432 16.834,12.961 16.553,12.961 16.413,13.204 16.819,13.922 16.517,14.443 15.72,14.443 
			15.417,13.919 15.822,13.206 15.681,12.963 15.4,12.963 15.135,13.43 14.541,12.4 14.799,11.943 14.658,11.7 14.377,11.7 
			14.258,11.91 13.539,10.666 13.258,10.666 13.118,10.909 13.837,12.156 13.591,12.153 13.45,12.397 13.591,12.641 14.12,12.646 
			14.714,13.676 14.173,13.671 14.032,13.914 14.173,14.158 14.997,14.165 15.298,14.688 14.9,15.377 14.295,15.378 13.879,14.671 
			13.598,14.671 13.457,14.914 13.729,15.378 12.541,15.378 12.274,14.926 11.993,14.926 11.852,15.169 11.975,15.378 
			10.538,15.378 10.397,15.621 10.538,15.864 11.977,15.864 11.852,16.076 11.993,16.32 12.274,16.32 12.542,15.864 13.732,15.864 
			13.457,16.331 13.598,16.575 13.879,16.575 14.297,15.864 14.9,15.864 15.298,16.555 14.996,17.079 14.176,17.086 14.035,17.329 
			14.176,17.573 14.713,17.568 14.119,18.599 13.594,18.603 13.454,18.847 13.594,19.09 13.836,19.088 13.118,20.332 13.258,20.576 
			13.539,20.576 14.259,19.33 14.38,19.544 14.662,19.544 14.802,19.301 14.542,18.84 15.136,17.81 15.403,18.281 15.685,18.281 
			15.825,18.037 15.419,17.32 15.72,16.799 16.517,16.799 16.82,17.322 16.417,18.035 16.556,18.279 16.837,18.279 17.104,17.812 
			17.697,18.842 17.439,19.299 17.58,19.542 17.861,19.542 17.98,19.331 18.699,20.576 18.98,20.576 19.121,20.332 18.4,19.086 
			18.646,19.088 18.787,18.845 18.646,18.601 18.117,18.597 17.523,17.566 18.064,17.571 18.205,17.327 18.064,17.084 17.24,17.077 
			16.939,16.555 17.338,15.864 17.943,15.864 18.359,16.571 18.641,16.571 18.781,16.327 18.508,15.864 19.697,15.864 
			19.963,16.316 20.244,16.316 20.385,16.073 20.264,15.864 21.699,15.864 		"/>
	</g>
</g>
<g id="Shape_34_copy_3">
	<g>
		<path fill-rule="evenodd" clip-rule="evenodd" fill="#5A6568" d="M4.623,1.225v29.895H27.76V1.224L4.623,1.225z M27.201,30.517
			H5.16V1.827h22.041V30.517z"/>
	</g>
</g>
<g id="Shape_34_copy_5">
	<g>
		<path fill-rule="evenodd" clip-rule="evenodd" fill="#A9BDC4" d="M5.667,2.351v27.643h21.05V2.351H5.667z M26.389,29.641H5.975
			V2.73h20.414V29.641z"/>
	</g>
</g>
<g id="office" opacity="0.6392">
	<g>
		<path fill-rule="evenodd" clip-rule="evenodd" fill="#E0E4CD" d="M9.336,25.35c-0.482,0-0.873,0.159-1.171,0.479
			c-0.299,0.319-0.448,0.692-0.448,1.118c0,0.434,0.15,0.808,0.451,1.123c0.3,0.314,0.69,0.472,1.168,0.472
			c0.473,0,0.86-0.158,1.162-0.474c0.302-0.317,0.453-0.69,0.453-1.121c0-0.425-0.148-0.797-0.446-1.117
			C10.207,25.51,9.817,25.35,9.336,25.35z M9.981,27.634c-0.163,0.174-0.378,0.262-0.645,0.262c-0.268,0-0.484-0.088-0.648-0.262
			c-0.164-0.175-0.246-0.404-0.246-0.688c0-0.285,0.082-0.515,0.246-0.688s0.38-0.261,0.648-0.261c0.267,0,0.482,0.087,0.645,0.261
			c0.163,0.174,0.244,0.403,0.244,0.688C10.225,27.229,10.144,27.459,9.981,27.634z M11.771,28.501h0.703v-1.276h1.241v-0.57h-1.241
			V25.96h1.241v-0.57h-1.944V28.501z M14.582,28.501h0.703v-1.276h1.242v-0.57h-1.242V25.96h1.242v-0.57h-1.945V28.501z
			 M17.418,28.501h0.703V25.39h-0.703V28.501z M20.691,27.896c-0.295,0-0.535-0.09-0.723-0.27s-0.283-0.408-0.283-0.685
			c0-0.274,0.096-0.5,0.287-0.678s0.436-0.267,0.736-0.267c0.307,0,0.631,0.106,0.973,0.319v-0.693
			c-0.279-0.183-0.619-0.273-1.023-0.273c-0.504,0-0.914,0.155-1.229,0.468c-0.313,0.312-0.469,0.691-0.469,1.138
			c0,0.447,0.148,0.823,0.445,1.129c0.297,0.305,0.697,0.457,1.197,0.457c0.387,0,0.758-0.103,1.111-0.31v-0.679
			c-0.268,0.144-0.469,0.236-0.604,0.279C20.977,27.874,20.836,27.896,20.691,27.896z M23.295,27.931v-0.748h1.289v-0.57h-1.289
			V25.96h1.352v-0.57h-2.055v3.111h2.082v-0.57H23.295z"/>
	</g>
</g>
<g id="_x35_2375">
	<g>
		<path fill-rule="evenodd" clip-rule="evenodd" fill="#2F657A" d="M11.447,4.979c-0.068,0-0.142,0.002-0.221,0.007V4.244h0.976
			V3.983h-1.257v1.269c0.199-0.015,0.335-0.021,0.408-0.021c0.213,0,0.378,0.047,0.493,0.14s0.172,0.223,0.172,0.388
			c0,0.167-0.056,0.302-0.168,0.402c-0.112,0.102-0.26,0.152-0.444,0.152s-0.364-0.057-0.542-0.168v0.307
			c0.118,0.069,0.298,0.104,0.538,0.104c0.285,0,0.509-0.074,0.673-0.225c0.164-0.148,0.245-0.346,0.245-0.591
			c0-0.236-0.076-0.422-0.228-0.559C11.939,5.046,11.725,4.979,11.447,4.979z M13.38,6.073c0.019-0.053,0.051-0.104,0.098-0.157
			s0.109-0.108,0.188-0.169c0.079-0.06,0.18-0.132,0.301-0.217c0.098-0.068,0.183-0.135,0.256-0.201
			c0.072-0.065,0.132-0.135,0.18-0.206c0.048-0.071,0.083-0.148,0.107-0.229c0.023-0.081,0.035-0.172,0.035-0.271
			c0-0.109-0.019-0.207-0.057-0.291c-0.038-0.085-0.09-0.156-0.157-0.214s-0.145-0.102-0.235-0.132
			c-0.091-0.029-0.189-0.045-0.295-0.045c-0.148,0-0.274,0.021-0.377,0.063c-0.104,0.041-0.197,0.102-0.28,0.181v0.311
			c0.042-0.046,0.088-0.088,0.137-0.126c0.049-0.037,0.1-0.069,0.152-0.097c0.053-0.027,0.107-0.048,0.162-0.063
			c0.056-0.016,0.112-0.022,0.17-0.022c0.068,0,0.13,0.009,0.188,0.027c0.058,0.02,0.108,0.048,0.151,0.086
			c0.043,0.038,0.077,0.086,0.102,0.144c0.025,0.058,0.037,0.126,0.037,0.203c0,0.069-0.008,0.135-0.024,0.197
			c-0.016,0.062-0.043,0.122-0.082,0.183c-0.039,0.06-0.09,0.119-0.153,0.18c-0.063,0.06-0.142,0.123-0.236,0.188
			c-0.13,0.093-0.241,0.177-0.331,0.251s-0.163,0.147-0.218,0.222s-0.095,0.152-0.12,0.235c-0.024,0.082-0.036,0.178-0.036,0.285
			v0.126h1.603v-0.26h-1.293C13.352,6.186,13.361,6.125,13.38,6.073z M16.249,5.193V5.187c0.349-0.096,0.522-0.31,0.522-0.643
			c0-0.176-0.066-0.321-0.197-0.434c-0.131-0.113-0.306-0.17-0.524-0.17c-0.227,0-0.423,0.049-0.59,0.145v0.283
			c0.162-0.121,0.333-0.182,0.516-0.182c0.327,0,0.491,0.143,0.491,0.43c0,0.311-0.215,0.466-0.643,0.466h-0.205v0.245h0.216
			c0.481,0,0.723,0.166,0.723,0.496c0,0.149-0.055,0.269-0.162,0.356c-0.108,0.089-0.253,0.133-0.435,0.133
			c-0.223,0-0.423-0.068-0.601-0.205V6.42c0.146,0.091,0.342,0.136,0.589,0.136c0.273,0,0.494-0.069,0.661-0.209
			c0.168-0.14,0.251-0.322,0.251-0.55c0-0.165-0.055-0.302-0.165-0.412C16.584,5.275,16.436,5.211,16.249,5.193z M17.557,4.244
			h1.309l-0.973,2.27h0.309l1.027-2.438V3.983h-1.672V4.244z M21.203,5.182c-0.152-0.136-0.367-0.203-0.645-0.203
			c-0.068,0-0.143,0.002-0.221,0.007V4.244h0.975V3.983h-1.256v1.269c0.199-0.015,0.334-0.021,0.408-0.021
			c0.213,0,0.377,0.047,0.492,0.14s0.172,0.223,0.172,0.388c0,0.167-0.057,0.302-0.168,0.402c-0.113,0.102-0.262,0.152-0.445,0.152
			c-0.182,0-0.363-0.057-0.541-0.168v0.307c0.119,0.069,0.299,0.104,0.539,0.104c0.283,0,0.508-0.075,0.672-0.225
			c0.164-0.148,0.246-0.346,0.246-0.591C21.432,5.504,21.355,5.318,21.203,5.182z"/>
		<path fill="#A9BDC4" d="M16.049,3.94c0.219,0,0.394,0.057,0.524,0.17c0.131,0.112,0.197,0.258,0.197,0.434
			c0,0.333-0.174,0.547-0.522,0.643v0.007c0.188,0.018,0.336,0.082,0.447,0.191c0.11,0.11,0.165,0.247,0.165,0.412
			c0,0.228-0.083,0.41-0.251,0.55c-0.167,0.14-0.388,0.209-0.661,0.209c-0.247,0-0.443-0.045-0.589-0.136V6.107
			c0.177,0.137,0.378,0.205,0.601,0.205c0.182,0,0.326-0.044,0.435-0.133c0.107-0.088,0.162-0.207,0.162-0.356
			c0-0.33-0.241-0.496-0.723-0.496h-0.216V5.082h0.205c0.428,0,0.643-0.155,0.643-0.466c0-0.287-0.164-0.43-0.491-0.43
			c-0.182,0-0.354,0.061-0.516,0.182V4.085C15.626,3.989,15.823,3.94,16.049,3.94 M13.801,3.94c0.106,0,0.205,0.016,0.295,0.045
			c0.09,0.03,0.169,0.074,0.235,0.132s0.119,0.129,0.157,0.214c0.038,0.084,0.057,0.182,0.057,0.291c0,0.1-0.012,0.19-0.035,0.271
			c-0.024,0.081-0.06,0.158-0.107,0.229c-0.047,0.071-0.107,0.141-0.18,0.206c-0.073,0.066-0.158,0.133-0.256,0.201
			c-0.122,0.085-0.222,0.157-0.301,0.217c-0.079,0.061-0.142,0.116-0.188,0.169s-0.079,0.104-0.098,0.157
			c-0.019,0.052-0.028,0.112-0.028,0.181h1.293v0.26h-1.603V6.388c0-0.107,0.012-0.203,0.036-0.285
			c0.024-0.083,0.064-0.161,0.12-0.235s0.128-0.147,0.218-0.222s0.2-0.158,0.331-0.251c0.094-0.065,0.173-0.129,0.236-0.188
			c0.063-0.061,0.114-0.12,0.153-0.18c0.039-0.061,0.066-0.121,0.082-0.183c0.017-0.063,0.024-0.128,0.024-0.197
			c0-0.077-0.012-0.146-0.037-0.203c-0.024-0.058-0.059-0.105-0.102-0.144c-0.042-0.038-0.093-0.066-0.151-0.086
			c-0.058-0.019-0.121-0.027-0.188-0.027c-0.058,0-0.115,0.007-0.17,0.022c-0.055,0.016-0.109,0.036-0.162,0.063
			C13.38,4.3,13.329,4.332,13.28,4.369c-0.049,0.038-0.095,0.08-0.137,0.126V4.185c0.083-0.079,0.176-0.14,0.28-0.181
			C13.526,3.962,13.652,3.94,13.801,3.94 M21.313,3.983v0.261h-0.975v0.741c0.078-0.005,0.152-0.007,0.221-0.007
			c0.277,0,0.492,0.067,0.645,0.203c0.152,0.137,0.229,0.322,0.229,0.559c0,0.245-0.082,0.442-0.246,0.591
			c-0.164,0.149-0.389,0.225-0.672,0.225c-0.24,0-0.42-0.035-0.539-0.104V6.145c0.178,0.111,0.359,0.168,0.541,0.168
			c0.184,0,0.332-0.051,0.445-0.152c0.111-0.101,0.168-0.235,0.168-0.402c0-0.165-0.057-0.295-0.172-0.388s-0.279-0.14-0.492-0.14
			c-0.074,0-0.209,0.007-0.408,0.021V3.983H21.313 M19.229,3.983v0.092l-1.027,2.438h-0.309l0.973-2.27h-1.309V3.983H19.229
			 M12.202,3.983v0.261h-0.976v0.741c0.08-0.005,0.153-0.007,0.221-0.007c0.277,0,0.492,0.067,0.645,0.203
			c0.152,0.137,0.228,0.322,0.228,0.559c0,0.245-0.082,0.442-0.245,0.591c-0.164,0.15-0.388,0.225-0.673,0.225
			c-0.24,0-0.42-0.035-0.538-0.104V6.145c0.178,0.111,0.358,0.168,0.542,0.168s0.332-0.051,0.444-0.152
			c0.112-0.101,0.168-0.235,0.168-0.402c0-0.165-0.057-0.295-0.172-0.388s-0.279-0.14-0.493-0.14c-0.073,0-0.208,0.007-0.408,0.021
			V3.983H12.202 M16.049,3.721c-0.265,0-0.5,0.059-0.701,0.174c-0.068,0.039-0.11,0.112-0.11,0.19v0.283
			c0,0.083,0.047,0.159,0.122,0.196c0.031,0.017,0.065,0.023,0.099,0.023c0.046,0,0.093-0.015,0.132-0.044
			c0.124-0.093,0.25-0.138,0.384-0.138c0.251,0,0.271,0.087,0.271,0.21c0,0.092,0,0.246-0.422,0.246h-0.205
			c-0.122,0-0.22,0.099-0.22,0.22v0.246c0,0.121,0.099,0.22,0.22,0.22h0.216c0.502,0,0.502,0.187,0.502,0.275
			c0,0.084-0.024,0.14-0.081,0.186c-0.067,0.055-0.166,0.083-0.295,0.083c-0.175,0-0.327-0.052-0.466-0.159
			c-0.04-0.03-0.087-0.046-0.134-0.046c-0.033,0-0.067,0.008-0.098,0.023c-0.075,0.037-0.123,0.113-0.123,0.197V6.42
			c0,0.076,0.04,0.146,0.104,0.188c0.181,0.111,0.417,0.169,0.705,0.169c0.325,0,0.596-0.088,0.803-0.261
			c0.219-0.183,0.331-0.425,0.331-0.719c0-0.225-0.078-0.416-0.231-0.568c-0.029-0.028-0.06-0.055-0.092-0.079
			c0.151-0.152,0.231-0.357,0.231-0.605c0-0.239-0.094-0.447-0.272-0.601C16.546,3.795,16.322,3.721,16.049,3.721L16.049,3.721z
			 M13.801,3.721c-0.176,0-0.331,0.026-0.46,0.078c-0.128,0.052-0.245,0.128-0.348,0.226c-0.044,0.041-0.069,0.1-0.069,0.16v0.311
			c0,0.091,0.056,0.172,0.14,0.205c0.026,0.01,0.053,0.015,0.08,0.015c0.061,0,0.12-0.024,0.163-0.07
			c0.033-0.036,0.07-0.07,0.109-0.101c0.038-0.029,0.078-0.055,0.119-0.075c0.038-0.021,0.079-0.036,0.119-0.047
			c0.036-0.011,0.074-0.016,0.112-0.016c0.044,0,0.084,0.006,0.12,0.018c0.029,0.01,0.053,0.022,0.073,0.041
			c0.019,0.017,0.034,0.038,0.046,0.065c0.013,0.03,0.019,0.069,0.019,0.116c0,0.05-0.006,0.098-0.017,0.141
			c-0.01,0.039-0.029,0.079-0.055,0.119c-0.029,0.045-0.069,0.092-0.119,0.14c-0.055,0.052-0.126,0.108-0.211,0.168
			c-0.136,0.097-0.251,0.185-0.344,0.262c-0.103,0.084-0.189,0.172-0.254,0.26C12.95,5.83,12.898,5.933,12.867,6.04
			c-0.03,0.103-0.045,0.219-0.045,0.348v0.126c0,0.121,0.099,0.22,0.22,0.22h1.603c0.122,0,0.22-0.099,0.22-0.22v-0.26
			c0-0.122-0.099-0.221-0.22-0.221H13.67c0.034-0.033,0.077-0.07,0.129-0.11c0.076-0.058,0.175-0.129,0.294-0.211
			c0.105-0.073,0.198-0.147,0.278-0.22c0.085-0.077,0.158-0.161,0.215-0.247c0.06-0.09,0.105-0.188,0.135-0.29
			c0.029-0.101,0.044-0.213,0.044-0.333c0-0.141-0.025-0.269-0.076-0.382c-0.051-0.113-0.123-0.211-0.213-0.289
			c-0.088-0.077-0.193-0.136-0.311-0.175C14.053,3.739,13.93,3.721,13.801,3.721L13.801,3.721z M21.313,3.763h-1.256
			c-0.121,0-0.221,0.099-0.221,0.221v1.269c0,0.061,0.025,0.119,0.07,0.161c0.041,0.038,0.094,0.059,0.15,0.059
			c0.006,0,0.01,0,0.016,0c0.24-0.018,0.346-0.021,0.393-0.021c0.16,0,0.279,0.03,0.354,0.09c0.041,0.034,0.09,0.09,0.09,0.217
			c0,0.104-0.031,0.18-0.096,0.239c-0.07,0.063-0.168,0.095-0.297,0.095c-0.141,0-0.281-0.044-0.424-0.134
			c-0.035-0.022-0.076-0.034-0.117-0.034c-0.037,0-0.072,0.01-0.105,0.027c-0.07,0.039-0.115,0.113-0.115,0.193v0.307
			c0,0.078,0.043,0.151,0.109,0.19c0.154,0.091,0.367,0.135,0.65,0.135c0.34,0,0.615-0.095,0.82-0.282
			c0.211-0.192,0.318-0.445,0.318-0.754c0-0.301-0.102-0.544-0.303-0.723c-0.193-0.172-0.459-0.26-0.791-0.26c0,0,0,0-0.002,0V4.465
			h0.756c0.123,0,0.221-0.099,0.221-0.221V3.983C21.533,3.861,21.436,3.763,21.313,3.763L21.313,3.763z M19.229,3.763h-1.672
			c-0.123,0-0.221,0.099-0.221,0.221v0.261c0,0.122,0.098,0.221,0.221,0.221h0.975l-0.842,1.962
			c-0.029,0.067-0.021,0.146,0.02,0.208s0.109,0.099,0.184,0.099h0.309c0.088,0,0.168-0.053,0.203-0.135l1.027-2.438
			c0.012-0.026,0.018-0.056,0.018-0.085V3.983C19.449,3.861,19.352,3.763,19.229,3.763L19.229,3.763z M12.202,3.763h-1.257
			c-0.122,0-0.22,0.099-0.22,0.221v1.269c0,0.061,0.025,0.119,0.07,0.161c0.041,0.038,0.095,0.059,0.15,0.059
			c0.005,0,0.01,0,0.016,0c0.24-0.018,0.346-0.021,0.392-0.021c0.161,0,0.28,0.03,0.354,0.09c0.042,0.034,0.091,0.09,0.091,0.217
			c0,0.104-0.031,0.18-0.096,0.239c-0.071,0.063-0.168,0.095-0.296,0.095c-0.142,0-0.281-0.044-0.424-0.134
			c-0.036-0.022-0.076-0.034-0.117-0.034c-0.037,0-0.073,0.01-0.106,0.027c-0.07,0.039-0.114,0.113-0.114,0.193v0.307
			c0,0.078,0.042,0.151,0.109,0.19c0.154,0.091,0.366,0.135,0.649,0.135c0.34,0,0.617-0.095,0.821-0.282
			c0.21-0.192,0.317-0.445,0.317-0.754c0-0.301-0.102-0.544-0.302-0.723c-0.193-0.172-0.459-0.26-0.792-0.26c0,0,0,0-0.001,0V4.465
			h0.756c0.122,0,0.221-0.099,0.221-0.221V3.983C12.423,3.861,12.324,3.763,12.202,3.763L12.202,3.763z"/>
	</g>
</g>
</svg>
