<?xml version="1.0" encoding="utf-8"?>
<!-- Generator: Adobe Illustrator 16.0.0, SVG Export Plug-In . SVG Version: 6.00 Build 0)  -->
<!DOCTYPE svg PUBLIC "-//W3C//DTD SVG 1.1//EN" "http://www.w3.org/Graphics/SVG/1.1/DTD/svg11.dtd">
<svg version="1.1" id="Layer_1" xmlns="http://www.w3.org/2000/svg" xmlns:xlink="http://www.w3.org/1999/xlink" x="0px" y="0px"
	 width="32px" height="32px" viewBox="0 0 32 32" enable-background="new 0 0 32 32" xml:space="preserve">
<path fill="#4D4846" d="M4.237,30.16l-0.001-1.773L4.237,30.16c-0.632,0-1.224-0.246-1.669-0.693
	c-0.444-0.446-0.688-1.039-0.686-1.669V3.964c0-1.298,1.056-2.354,2.354-2.354l23.841,0c0.631,0,1.224,0.246,1.669,0.692
	c0.444,0.446,0.688,1.039,0.686,1.669v23.835c0,1.298-1.056,2.354-2.354,2.354H4.237z"/>
<path fill="#231D13" d="M3.941,29.273v-0.029c-0.28-0.057-0.539-0.195-0.745-0.402c-0.276-0.278-0.429-0.648-0.427-1.041V3.964
	c0-0.81,0.657-1.468,1.467-1.468l23.841,0c0.394,0,0.764,0.153,1.041,0.432c0.276,0.278,0.429,0.647,0.427,1.041v23.837
	c0,0.81-0.657,1.468-1.467,1.468H3.941z"/>
<path fill="#EEE8D8" d="M4.237,28.978l-0.001-0.591L4.237,28.978c-0.315,0-0.609-0.122-0.832-0.345
	c-0.221-0.222-0.343-0.518-0.341-0.831V3.964c0-0.646,0.525-1.172,1.172-1.172l23.841,0c0.313,0,0.609,0.122,0.832,0.345
	c0.221,0.222,0.343,0.518,0.342,0.831v23.838c0,0.646-0.526,1.172-1.173,1.172H4.237z"/>
<linearGradient id="SVGID_1_" gradientUnits="userSpaceOnUse" x1="16.1577" y1="3.2583" x2="16.1577" y2="28.5112">
	<stop  offset="0" style="stop-color:#B2A38B"/>
	<stop  offset="0.2701" style="stop-color:#B0A289"/>
	<stop  offset="0.4539" style="stop-color:#AB9F86"/>
	<stop  offset="0.612" style="stop-color:#A39B81"/>
	<stop  offset="0.7556" style="stop-color:#999579"/>
	<stop  offset="0.8881" style="stop-color:#8A8B6E"/>
	<stop  offset="1" style="stop-color:#797E61"/>
</linearGradient>
<path fill="url(#SVGID_1_)" d="M28.196,3.258c0.325,0,0.589,0.263,0.588,0.588v24.077c0,0.325-0.263,0.587-0.587,0.587H4.118
	c-0.324,0.001-0.589-0.262-0.587-0.588V3.846c0-0.326,0.262-0.588,0.587-0.587L28.196,3.258z"/>
<g>
	<linearGradient id="SVGID_2_" gradientUnits="userSpaceOnUse" x1="5.8398" y1="28.5112" x2="5.8398" y2="3.2588">
		<stop  offset="0" style="stop-color:#B2A38B"/>
		<stop  offset="0.1227" style="stop-color:#ADA087"/>
		<stop  offset="0.295" style="stop-color:#A49A81"/>
		<stop  offset="0.4965" style="stop-color:#948F75"/>
		<stop  offset="0.7203" style="stop-color:#7D7C63"/>
		<stop  offset="0.9598" style="stop-color:#5F634C"/>
		<stop  offset="1" style="stop-color:#5A5E47"/>
	</linearGradient>
	<rect x="5.741" y="3.259" fill="url(#SVGID_2_)" width="0.197" height="25.252"/>
	<linearGradient id="SVGID_3_" gradientUnits="userSpaceOnUse" x1="8.105" y1="28.5112" x2="8.105" y2="3.2588">
		<stop  offset="0" style="stop-color:#B2A38B"/>
		<stop  offset="0.1227" style="stop-color:#ADA087"/>
		<stop  offset="0.295" style="stop-color:#A49A81"/>
		<stop  offset="0.4965" style="stop-color:#948F75"/>
		<stop  offset="0.7203" style="stop-color:#7D7C63"/>
		<stop  offset="0.9598" style="stop-color:#5F634C"/>
		<stop  offset="1" style="stop-color:#5A5E47"/>
	</linearGradient>
	<rect x="8.007" y="3.259" fill="url(#SVGID_3_)" width="0.196" height="25.252"/>
	<linearGradient id="SVGID_4_" gradientUnits="userSpaceOnUse" x1="12.7832" y1="28.5112" x2="12.7832" y2="3.2588">
		<stop  offset="0" style="stop-color:#B2A38B"/>
		<stop  offset="0.1227" style="stop-color:#ADA087"/>
		<stop  offset="0.295" style="stop-color:#A49A81"/>
		<stop  offset="0.4965" style="stop-color:#948F75"/>
		<stop  offset="0.7203" style="stop-color:#7D7C63"/>
		<stop  offset="0.9598" style="stop-color:#5F634C"/>
		<stop  offset="1" style="stop-color:#5A5E47"/>
	</linearGradient>
	<rect x="12.685" y="3.259" fill="url(#SVGID_4_)" width="0.197" height="25.252"/>
	<linearGradient id="SVGID_5_" gradientUnits="userSpaceOnUse" x1="18.249" y1="28.5112" x2="18.249" y2="3.2588">
		<stop  offset="0" style="stop-color:#B2A38B"/>
		<stop  offset="0.1227" style="stop-color:#ADA087"/>
		<stop  offset="0.295" style="stop-color:#A49A81"/>
		<stop  offset="0.4965" style="stop-color:#948F75"/>
		<stop  offset="0.7203" style="stop-color:#7D7C63"/>
		<stop  offset="0.9598" style="stop-color:#5F634C"/>
		<stop  offset="1" style="stop-color:#5A5E47"/>
	</linearGradient>
	<rect x="18.15" y="3.259" fill="url(#SVGID_5_)" width="0.197" height="25.252"/>
	<linearGradient id="SVGID_6_" gradientUnits="userSpaceOnUse" x1="19.481" y1="28.5112" x2="19.481" y2="3.2588">
		<stop  offset="0" style="stop-color:#B2A38B"/>
		<stop  offset="0.1227" style="stop-color:#ADA087"/>
		<stop  offset="0.295" style="stop-color:#A49A81"/>
		<stop  offset="0.4965" style="stop-color:#948F75"/>
		<stop  offset="0.7203" style="stop-color:#7D7C63"/>
		<stop  offset="0.9598" style="stop-color:#5F634C"/>
		<stop  offset="1" style="stop-color:#5A5E47"/>
	</linearGradient>
	<rect x="19.383" y="3.259" fill="url(#SVGID_6_)" width="0.196" height="25.252"/>
	<linearGradient id="SVGID_7_" gradientUnits="userSpaceOnUse" x1="23.9121" y1="28.5112" x2="23.9121" y2="3.2588">
		<stop  offset="0" style="stop-color:#B2A38B"/>
		<stop  offset="0.1227" style="stop-color:#ADA087"/>
		<stop  offset="0.295" style="stop-color:#A49A81"/>
		<stop  offset="0.4965" style="stop-color:#948F75"/>
		<stop  offset="0.7203" style="stop-color:#7D7C63"/>
		<stop  offset="0.9598" style="stop-color:#5F634C"/>
		<stop  offset="1" style="stop-color:#5A5E47"/>
	</linearGradient>
	<rect x="23.813" y="3.259" fill="url(#SVGID_7_)" width="0.197" height="25.252"/>
	<linearGradient id="SVGID_8_" gradientUnits="userSpaceOnUse" x1="26.7686" y1="28.5112" x2="26.7686" y2="3.2588">
		<stop  offset="0" style="stop-color:#B2A38B"/>
		<stop  offset="0.1227" style="stop-color:#ADA087"/>
		<stop  offset="0.295" style="stop-color:#A49A81"/>
		<stop  offset="0.4965" style="stop-color:#948F75"/>
		<stop  offset="0.7203" style="stop-color:#7D7C63"/>
		<stop  offset="0.9598" style="stop-color:#5F634C"/>
		<stop  offset="1" style="stop-color:#5A5E47"/>
	</linearGradient>
	<rect x="26.67" y="3.259" fill="url(#SVGID_8_)" width="0.197" height="25.252"/>
	<linearGradient id="SVGID_9_" gradientUnits="userSpaceOnUse" x1="27.5195" y1="28.5112" x2="27.5195" y2="3.2588">
		<stop  offset="0" style="stop-color:#B2A38B"/>
		<stop  offset="0.1227" style="stop-color:#ADA087"/>
		<stop  offset="0.295" style="stop-color:#A49A81"/>
		<stop  offset="0.4965" style="stop-color:#948F75"/>
		<stop  offset="0.7203" style="stop-color:#7D7C63"/>
		<stop  offset="0.9598" style="stop-color:#5F634C"/>
		<stop  offset="1" style="stop-color:#5A5E47"/>
	</linearGradient>
	<rect x="27.421" y="3.259" fill="url(#SVGID_9_)" width="0.197" height="25.252"/>
</g>
<g>
	<path fill="#B5AFA0" d="M22.065,24.303c-0.554,0-0.955,0.352-0.955,0.836c0,0.293,0.123,0.542,0.395,0.791
		c-0.035-0.012-0.071-0.018-0.106-0.018c-0.115,0-0.314,0.074-0.333,0.354c-0.003,0.049-0.014,0.228-0.014,0.392
		c0,0.067,0,0.27,0.233,0.372c0.155,0.068,0.32,0.099,0.534,0.099c0.241,0,0.441-0.053,0.613-0.164
		c0.258-0.169,0.404-0.44,0.404-0.747c0-0.36-0.172-0.607-0.393-0.807c0.033,0,0.329-0.018,0.329-0.385
		c0-0.147,0.005-0.229,0.008-0.276l0-0.009l0.002-0.056c0-0.135-0.086-0.288-0.28-0.328C22.429,24.337,22.281,24.303,22.065,24.303
		L22.065,24.303z M21.858,26.392c-0.097,0-0.108-0.039-0.119-0.072c-0.008-0.027-0.013-0.056-0.013-0.064
		c0-0.069-0.017-0.128-0.044-0.178l0.092,0.072c0.164,0.128,0.164,0.178,0.164,0.218C21.936,26.375,21.912,26.392,21.858,26.392
		L21.858,26.392z"/>
	<path fill="#B5AFA0" d="M19.213,24.303c-0.044,0-0.269,0.014-0.328,0.291v0c0,0-0.066,0.294-0.066,0.39
		c0,0.227,0.164,0.345,0.325,0.345h0.232l0.074-0.213c0.016-0.001,0.035-0.002,0.06-0.003l0.112-0.003v0.855
		c0,0.19,0,0.372-0.006,0.49c-0.163,0.052-0.238,0.181-0.238,0.305c0,0.163,0.122,0.328,0.356,0.328
		c0.068,0,0.157-0.002,0.234-0.005l0.124-0.003l0.126,0.003c0.089,0.002,0.203,0.005,0.319,0.005c0.229,0,0.354-0.169,0.354-0.328
		c0-0.148-0.108-0.304-0.309-0.321c-0.006-0.127-0.006-0.297-0.006-0.474v-0.856l0.052,0.001c0.026,0,0.047,0.002,0.064,0.004
		c0.058,0.192,0.214,0.243,0.311,0.243c0.141,0,0.302-0.098,0.325-0.314c0.001-0.068,0.004-0.137,0.006-0.202l0.003-0.158
		c0-0.284-0.211-0.359-0.322-0.359c-0.041,0-0.074,0.007-0.116,0.016c-0.041,0.006-0.089,0.013-0.156,0.013h-1.124
		c-0.084,0-0.18-0.005-0.253-0.013C19.338,24.327,19.285,24.303,19.213,24.303L19.213,24.303z"/>
	<path fill="#B5AFA0" d="M17.826,24.303c-0.966,0-1.472,0.71-1.472,1.412c0,0.702,0.496,1.413,1.443,1.413
		c0.854,0,1.475-0.615,1.475-1.463C19.272,24.85,18.691,24.303,17.826,24.303L17.826,24.303z M17.917,26.386
		c-0.421,0-0.571-0.409-0.571-0.759c0-0.588,0.29-0.588,0.398-0.588c0.317,0,0.531,0.293,0.531,0.73
		C18.275,26.051,18.213,26.386,17.917,26.386L17.917,26.386z"/>
	<path fill="#B5AFA0" d="M15.193,24.303c-0.966,0-1.472,0.71-1.472,1.412c0,0.702,0.496,1.413,1.443,1.413
		c0.854,0,1.475-0.615,1.475-1.463C16.64,24.85,16.059,24.303,15.193,24.303L15.193,24.303z M15.284,26.386
		c-0.421,0-0.571-0.409-0.571-0.759c0-0.588,0.29-0.588,0.398-0.588c0.317,0,0.531,0.293,0.531,0.73
		C15.643,26.051,15.58,26.386,15.284,26.386L15.284,26.386z"/>
	<path fill="#B5AFA0" d="M13.611,24.343c-0.064,0-0.151,0.002-0.228,0.005l-0.129,0.003l-0.13-0.003
		c-0.084-0.002-0.186-0.005-0.279-0.005c-0.225,0-0.328,0.141-0.353,0.264c-0.025-0.123-0.128-0.264-0.353-0.264
		c-0.065,0-0.153,0.002-0.23,0.005l-0.127,0.003l-0.13-0.003c-0.084-0.002-0.186-0.005-0.279-0.005
		c-0.264,0-0.359,0.194-0.359,0.325c0,0.143,0.1,0.294,0.286,0.321c0.001,0.084,0.001,0.212,0.001,0.477v0.5
		c0,0.19,0,0.373-0.006,0.49c-0.163,0.052-0.238,0.181-0.238,0.305c0,0.163,0.122,0.328,0.356,0.328
		c0.067,0,0.156-0.002,0.233-0.005l0.125-0.003l0.126,0.003c0.089,0.002,0.201,0.005,0.316,0.005c0.177,0,0.292-0.099,0.336-0.216
		c0.044,0.119,0.159,0.216,0.34,0.216c0.065,0,0.153-0.002,0.229-0.005l0.125-0.003l0.128,0.003
		c0.089,0.002,0.201,0.005,0.315,0.005c0.231,0,0.356-0.169,0.356-0.328c0-0.147-0.108-0.304-0.309-0.321
		c-0.006-0.127-0.006-0.297-0.006-0.474v-0.5c0-0.282,0-0.408,0.001-0.488c0.165-0.048,0.243-0.18,0.243-0.31
		C13.971,24.537,13.875,24.343,13.611,24.343L13.611,24.343z M12.255,24.978c0.137-0.041,0.214-0.138,0.236-0.245
		c0.024,0.123,0.119,0.233,0.279,0.256c0.001,0.057,0.001,0.133,0.002,0.256h-0.519C12.254,25.11,12.254,25.033,12.255,24.978
		L12.255,24.978z M12.254,25.998h0.519c0,0.179,0,0.347-0.006,0.457c-0.114,0.036-0.185,0.111-0.217,0.195
		c-0.04-0.107-0.138-0.199-0.289-0.211C12.254,26.32,12.254,26.163,12.254,25.998L12.254,25.998z"/>
	<path fill="#B5AFA0" d="M10.452,24.303c-0.554,0-0.955,0.352-0.955,0.836c0,0.293,0.123,0.542,0.395,0.791
		c-0.035-0.012-0.071-0.018-0.106-0.018c-0.115,0-0.314,0.074-0.333,0.354c-0.003,0.049-0.014,0.228-0.014,0.392
		c0,0.067,0,0.27,0.233,0.372c0.155,0.068,0.32,0.099,0.534,0.099c0.241,0,0.441-0.053,0.613-0.164
		c0.258-0.169,0.404-0.44,0.404-0.747c0-0.36-0.172-0.607-0.393-0.807c0.033,0,0.329-0.018,0.329-0.385
		c0-0.147,0.005-0.229,0.008-0.276l0-0.009l0.002-0.056c0-0.135-0.086-0.288-0.28-0.328C10.815,24.337,10.667,24.303,10.452,24.303
		L10.452,24.303z M10.245,26.392c-0.097,0-0.108-0.039-0.119-0.072c-0.008-0.027-0.013-0.056-0.013-0.064
		c0-0.069-0.017-0.128-0.044-0.178l0.092,0.072c0.164,0.128,0.164,0.178,0.164,0.218C10.323,26.375,10.299,26.392,10.245,26.392
		L10.245,26.392z"/>
</g>
<g>
	<path fill="#EEE8D8" d="M16.152,16.337c-0.093,0-0.181-0.036-0.247-0.102l-2.101-2.1c-0.064-0.065-0.102-0.153-0.102-0.247
		c0-0.093,0.037-0.181,0.103-0.247l2.1-2.1c0.066-0.066,0.154-0.102,0.247-0.102s0.181,0.036,0.246,0.102l2.101,2.1
		c0.066,0.066,0.103,0.154,0.103,0.247c0,0.094-0.036,0.182-0.104,0.248l-2.1,2.1C16.333,16.301,16.245,16.337,16.152,16.337z"/>
	<path fill="none" d="M18.305,13.939l-2.101,2.101c-0.029,0.028-0.075,0.028-0.104,0l-2.1-2.101c-0.028-0.028-0.028-0.074,0-0.103
		l2.1-2.1c0.028-0.028,0.074-0.028,0.104,0l2.101,2.1C18.332,13.865,18.332,13.911,18.305,13.939z"/>
	<path fill="#B5AFA0" d="M7.621,13.089l0.038-0.311c0.486-3.856,3.52-6.881,7.377-7.355l0.31-0.038v1.91L15.11,7.33
		c-2.835,0.419-5.114,2.691-5.544,5.524l-0.035,0.235H7.621z"/>
	<path fill="#4D4846" d="M15.07,7.056v-1.36c-3.72,0.458-6.669,3.399-7.137,7.116h1.359C9.743,9.842,12.097,7.496,15.07,7.056z"/>
	<path fill="#B5AFA0" d="M22.635,13.088l-0.036-0.234c-0.424-2.796-2.58-5.004-5.367-5.494l-0.228-0.041V5.4l0.316,0.046
		c3.756,0.548,6.711,3.563,7.186,7.332l0.039,0.311H22.635z"/>
	<path fill="#4D4846" d="M17.28,5.72v1.368c2.886,0.508,5.151,2.816,5.591,5.725h1.361C23.771,9.157,20.912,6.25,17.28,5.72z"/>
	<path fill="#B5AFA0" d="M16.957,20.384l0.23-0.039c2.77-0.468,4.938-2.643,5.396-5.414l0.038-0.231h1.916l-0.043,0.314
		c-0.514,3.74-3.483,6.718-7.223,7.242L16.957,22.3V20.384z"/>
	<path fill="#4D4846" d="M17.233,20.617v1.366c3.624-0.509,6.488-3.379,6.986-7.007h-1.364
		C22.38,17.856,20.111,20.131,17.233,20.617z"/>
	<path fill="#B5AFA0" d="M15.036,22.274c-3.813-0.469-6.841-3.455-7.364-7.26L7.629,14.7h1.916l0.037,0.231
		c0.468,2.832,2.69,5.017,5.528,5.436l0.235,0.035v1.911L15.036,22.274z"/>
	<path fill="#4D4846" d="M9.311,14.976H7.945c0.504,3.673,3.436,6.571,7.125,7.025v-1.36C12.127,20.205,9.794,17.903,9.311,14.976z"
		/>
	<path fill="#B5AFA0" d="M10.455,13.089l0.067-0.331c0.45-2.229,2.258-4,4.499-4.405l0.324-0.058v1.767l-0.097,0.083
		c-1.173,0.997-2.067,1.956-2.884,2.854l-0.082,0.091H10.455z"/>
	<path fill="#4D4846" d="M15.07,9.934V8.625c-2.146,0.388-3.847,2.057-4.277,4.188h1.368C13.069,11.812,13.935,10.897,15.07,9.934z"
		/>
	<path fill="#B5AFA0" d="M19.735,13.089l-0.04-0.147c-0.24-0.277-1.706-1.866-2.601-2.667l-0.091-0.083V8.337l0.34,0.083
		c2.112,0.508,3.754,2.211,4.185,4.338l0.067,0.331L19.735,13.089z"/>
	<path fill="#4D4846" d="M17.28,8.688v1.38c1,0.898,2.659,2.714,2.666,2.745h1.312C20.847,10.782,19.283,9.17,17.28,8.688z"/>
	<path fill="#B5AFA0" d="M15.021,19.4c-2.259-0.408-4.021-2.123-4.491-4.367L10.461,14.7h1.792l0.082,0.087
		c0.84,0.895,3.011,2.917,3.011,2.917v1.756L15.021,19.4z"/>
	<path fill="#4D4846" d="M12.134,14.976h-1.333c0.442,2.114,2.135,3.767,4.27,4.152v-1.302
		C15.036,17.818,13.053,15.955,12.134,14.976z"/>
	<path fill="#B5AFA0" d="M16.957,17.628c0,0,2.515-2.518,2.727-2.776l0.043-0.153h1.863l-0.07,0.333
		c-0.445,2.128-2.103,3.822-4.224,4.313l-0.339,0.078V17.628z"/>
	<path fill="#4D4846" d="M17.233,17.756v1.32c2.015-0.466,3.591-2.071,4.017-4.101h-1.313C19.92,15.035,17.26,17.748,17.233,17.756z
		"/>
	<path fill="#B5AFA0" d="M16.152,16.337c-0.093,0-0.181-0.036-0.247-0.102l-2.101-2.1c-0.064-0.065-0.102-0.153-0.102-0.247
		c0-0.093,0.037-0.181,0.103-0.247l2.1-2.1c0.066-0.066,0.154-0.102,0.247-0.102s0.181,0.036,0.246,0.102l2.101,2.1
		c0.066,0.066,0.103,0.154,0.103,0.247c0,0.094-0.036,0.182-0.104,0.248l-2.1,2.1C16.333,16.301,16.245,16.337,16.152,16.337z"/>
	<path fill="#4D4846" d="M16.204,11.736c-0.029-0.028-0.075-0.028-0.104,0l-2.1,2.1c-0.028,0.029-0.028,0.074,0,0.103l2.1,2.101
		c0.028,0.028,0.074,0.028,0.104,0l2.101-2.101c0.027-0.028,0.027-0.074,0-0.103L16.204,11.736z"/>
</g>
<g>
	<g>
		<path fill="#231D13" d="M9.791,26.754c-0.046-0.02-0.054-0.034-0.054-0.097c0-0.156,0.011-0.326,0.014-0.372
			c0.003-0.043,0.012-0.074,0.034-0.074c0.025,0,0.028,0.026,0.028,0.048c0,0.037,0.012,0.097,0.025,0.145
			c0.063,0.21,0.23,0.287,0.406,0.287c0.255,0,0.38-0.173,0.38-0.324c0-0.139-0.042-0.27-0.278-0.454l-0.13-0.102
			c-0.313-0.244-0.42-0.443-0.42-0.673c0-0.312,0.261-0.536,0.655-0.536c0.185,0,0.304,0.028,0.377,0.048
			c0.026,0.005,0.04,0.014,0.04,0.034c0,0.037-0.011,0.12-0.011,0.341c0,0.063-0.009,0.085-0.031,0.085
			c-0.021,0-0.029-0.017-0.029-0.051c0-0.026-0.014-0.114-0.073-0.188c-0.043-0.054-0.125-0.139-0.31-0.139
			c-0.21,0-0.338,0.122-0.338,0.292c0,0.13,0.065,0.23,0.301,0.409l0.08,0.06c0.343,0.258,0.465,0.454,0.465,0.724
			c0,0.165-0.063,0.36-0.267,0.494c-0.142,0.091-0.301,0.116-0.451,0.116C10.041,26.828,9.913,26.808,9.791,26.754z"/>
	</g>
	<g>
		<path fill="#231D13" d="M13.056,25.545c0.008,0,0.017-0.006,0.017-0.02v-0.06c0-0.432,0-0.511-0.006-0.602
			c-0.006-0.097-0.028-0.142-0.122-0.162c-0.022-0.005-0.07-0.008-0.11-0.008c-0.031,0-0.049-0.006-0.049-0.026
			c0-0.02,0.021-0.025,0.06-0.025c0.153,0,0.332,0.009,0.409,0.009c0.068,0,0.247-0.009,0.357-0.009c0.04,0,0.06,0.006,0.06,0.025
			c0,0.02-0.017,0.026-0.051,0.026c-0.022,0-0.049,0.003-0.082,0.008c-0.077,0.014-0.1,0.063-0.105,0.162
			c-0.006,0.091-0.006,0.17-0.006,0.602v0.5c0,0.261,0,0.485,0.015,0.607c0.009,0.079,0.025,0.142,0.11,0.153
			c0.04,0.005,0.103,0.011,0.145,0.011c0.031,0,0.046,0.008,0.046,0.022c0,0.02-0.022,0.028-0.057,0.028
			c-0.185,0-0.363-0.008-0.443-0.008c-0.065,0-0.244,0.008-0.354,0.008c-0.04,0-0.06-0.008-0.06-0.028
			c0-0.014,0.012-0.022,0.046-0.022c0.042,0,0.076-0.006,0.102-0.011c0.057-0.012,0.071-0.074,0.082-0.156
			c0.015-0.119,0.015-0.343,0.015-0.604v-0.25c0-0.011-0.009-0.017-0.017-0.017h-1.085c-0.008,0-0.017,0.003-0.017,0.017v0.25
			c0,0.261,0,0.485,0.014,0.607c0.009,0.079,0.026,0.142,0.111,0.153c0.039,0.005,0.102,0.011,0.145,0.011
			c0.031,0,0.045,0.008,0.045,0.022c0,0.02-0.022,0.028-0.057,0.028c-0.185,0-0.363-0.008-0.442-0.008
			c-0.065,0-0.244,0.008-0.357,0.008c-0.037,0-0.057-0.008-0.057-0.028c0-0.014,0.011-0.022,0.045-0.022
			c0.043,0,0.077-0.006,0.103-0.011c0.057-0.012,0.07-0.074,0.082-0.156c0.015-0.119,0.015-0.343,0.015-0.604v-0.5
			c0-0.432,0-0.511-0.006-0.602c-0.006-0.097-0.028-0.142-0.122-0.162c-0.022-0.005-0.071-0.008-0.111-0.008
			c-0.03,0-0.048-0.006-0.048-0.026c0-0.02,0.02-0.025,0.06-0.025c0.153,0,0.332,0.009,0.409,0.009c0.067,0,0.246-0.009,0.357-0.009
			c0.04,0,0.06,0.006,0.06,0.025c0,0.02-0.018,0.026-0.051,0.026c-0.023,0-0.049,0.003-0.083,0.008
			c-0.076,0.014-0.099,0.063-0.104,0.162c-0.006,0.091-0.006,0.17-0.006,0.602v0.06c0,0.014,0.009,0.02,0.017,0.02H13.056z"/>
	</g>
	<g>
		<path fill="#231D13" d="M14.021,25.715c0-0.485,0.32-1.112,1.172-1.112c0.707,0,1.146,0.412,1.146,1.062s-0.454,1.164-1.175,1.164
			C14.351,26.828,14.021,26.218,14.021,25.715z M15.942,25.77c0-0.636-0.366-1.03-0.831-1.03c-0.326,0-0.698,0.182-0.698,0.888
			c0,0.59,0.326,1.059,0.871,1.059C15.483,26.686,15.942,26.59,15.942,25.77z"/>
	</g>
	<g>
		<path fill="#231D13" d="M16.654,25.715c0-0.485,0.32-1.112,1.172-1.112c0.707,0,1.146,0.412,1.146,1.062s-0.454,1.164-1.175,1.164
			C16.983,26.828,16.654,26.218,16.654,25.715z M18.575,25.77c0-0.636-0.366-1.03-0.831-1.03c-0.326,0-0.698,0.182-0.698,0.888
			c0,0.59,0.326,1.059,0.871,1.059C18.116,26.686,18.575,26.59,18.575,25.77z"/>
	</g>
	<g>
		<path fill="#231D13" d="M19.922,24.802l-0.423,0.011c-0.164,0.006-0.232,0.02-0.275,0.083c-0.028,0.042-0.042,0.076-0.048,0.099
			c-0.006,0.022-0.015,0.034-0.031,0.034c-0.021,0-0.025-0.014-0.025-0.045c0-0.045,0.054-0.304,0.06-0.327
			c0.008-0.037,0.017-0.054,0.034-0.054c0.022,0,0.051,0.028,0.122,0.034c0.082,0.008,0.189,0.014,0.283,0.014h1.124
			c0.091,0,0.153-0.009,0.196-0.014c0.042-0.009,0.064-0.014,0.076-0.014c0.02,0,0.022,0.017,0.022,0.06
			c0,0.06-0.008,0.255-0.008,0.329c-0.003,0.028-0.009,0.045-0.026,0.045c-0.022,0-0.028-0.014-0.031-0.057l-0.002-0.031
			c-0.006-0.074-0.083-0.153-0.335-0.159l-0.358-0.008v1.164c0,0.261,0,0.485,0.015,0.607c0.009,0.079,0.025,0.142,0.11,0.153
			c0.04,0.005,0.103,0.011,0.146,0.011c0.03,0,0.045,0.008,0.045,0.022c0,0.02-0.022,0.028-0.054,0.028
			c-0.188,0-0.366-0.008-0.445-0.008c-0.065,0-0.244,0.008-0.358,0.008c-0.036,0-0.057-0.008-0.057-0.028
			c0-0.014,0.012-0.022,0.046-0.022c0.042,0,0.076-0.006,0.102-0.011c0.057-0.012,0.074-0.074,0.083-0.156
			c0.014-0.119,0.014-0.343,0.014-0.604V24.802z"/>
	</g>
	<g>
		<path fill="#231D13" d="M21.404,26.754c-0.046-0.02-0.054-0.034-0.054-0.097c0-0.156,0.011-0.326,0.014-0.372
			c0.003-0.043,0.012-0.074,0.034-0.074c0.025,0,0.028,0.026,0.028,0.048c0,0.037,0.012,0.097,0.025,0.145
			c0.063,0.21,0.23,0.287,0.406,0.287c0.255,0,0.38-0.173,0.38-0.324c0-0.139-0.042-0.27-0.278-0.454l-0.13-0.102
			c-0.313-0.244-0.42-0.443-0.42-0.673c0-0.312,0.261-0.536,0.655-0.536c0.185,0,0.304,0.028,0.377,0.048
			c0.026,0.005,0.04,0.014,0.04,0.034c0,0.037-0.011,0.12-0.011,0.341c0,0.063-0.009,0.085-0.031,0.085
			c-0.021,0-0.029-0.017-0.029-0.051c0-0.026-0.014-0.114-0.073-0.188c-0.043-0.054-0.125-0.139-0.31-0.139
			c-0.21,0-0.338,0.122-0.338,0.292c0,0.13,0.065,0.23,0.301,0.409l0.08,0.06c0.343,0.258,0.465,0.454,0.465,0.724
			c0,0.165-0.063,0.36-0.267,0.494c-0.142,0.091-0.301,0.116-0.451,0.116C21.654,26.828,21.526,26.808,21.404,26.754z"/>
	</g>
</g>
<g>
	<path fill="#231D13" d="M9.328,9.176c-0.446,0.645-0.803,1.356-1.052,2.117h1.433c0.316-0.789,0.773-1.505,1.342-2.117H9.328z"/>
	<path fill="#231D13" d="M15.07,5.696c-1.945,0.24-3.679,1.159-4.959,2.513h2.055c0.849-0.59,1.836-0.995,2.904-1.153V5.696z"/>
	<path fill="#231D13" d="M17.28,5.72v1.368c0.997,0.176,1.92,0.566,2.719,1.122h2.056C20.815,6.898,19.15,5.993,17.28,5.72z"/>
	<path fill="#231D13" d="M21.112,9.176c0.569,0.612,1.028,1.328,1.346,2.117h1.432c-0.249-0.761-0.604-1.473-1.052-2.117H21.112z"/>
	<path fill="#231D13" d="M17.233,21.983c1.613-0.227,3.076-0.922,4.247-1.944h-2.429c-0.567,0.272-1.178,0.47-1.818,0.578V21.983z"
		/>
	<path fill="#231D13" d="M22.56,16.127c-0.274,0.78-0.686,1.495-1.204,2.117h1.666c0.412-0.65,0.735-1.361,0.954-2.117H22.56z"/>
	<path fill="#231D13" d="M15.07,20.64c-0.691-0.102-1.35-0.309-1.957-0.601h-2.427c1.204,1.05,2.716,1.756,4.384,1.961V20.64z"/>
	<path fill="#231D13" d="M8.191,16.126c0.217,0.756,0.541,1.468,0.953,2.118h1.666c-0.519-0.622-0.93-1.337-1.205-2.118H8.191z"/>
	<path fill="#231D13" d="M15.07,9.176h-1.571c-0.902,0.485-1.649,1.222-2.146,2.117h2.244c0.453-0.452,0.932-0.9,1.473-1.36V9.176z"
		/>
	<path fill="#231D13" d="M18.549,9.176H17.28v0.892c0.367,0.33,0.822,0.783,1.252,1.226h2.163
		C20.198,10.398,19.452,9.662,18.549,9.176z"/>
	<path fill="#231D13" d="M13.274,16.127l-2.091,0c0.397,0.853,1.015,1.582,1.776,2.118h2.11v-0.418
		C15.048,17.821,14.144,16.977,13.274,16.127z"/>
	<path fill="#231D13" d="M20.865,16.127h-2.024c-0.743,0.763-1.593,1.625-1.607,1.629v0.488h1.855
		C19.852,17.708,20.468,16.979,20.865,16.127z"/>
</g>
<g>
	<path fill="#231D13" d="M15.07,5.943V5.696c-3.72,0.458-6.669,3.399-7.137,7.116h0.3C8.769,9.282,11.546,6.496,15.07,5.943z"/>
	<path fill="#231D13" d="M20.343,8.479c1.327,1.054,2.264,2.58,2.528,4.333h0.218C22.764,11.031,21.758,9.495,20.343,8.479z"/>
	<path fill="#231D13" d="M17.546,5.923c1.316,0.192,2.526,0.705,3.563,1.444c-1.093-0.849-2.396-1.438-3.828-1.647v1.368
		c0.091,0.016,0.176,0.049,0.266,0.069V5.923z"/>
	<path fill="#231D13" d="M23.121,15.179h1.054c0.011-0.069,0.035-0.133,0.045-0.203h-1.364c-0.476,2.881-2.744,5.156-5.622,5.641
		v1.366c0.091-0.013,0.176-0.044,0.266-0.06V20.82C20.377,20.334,22.646,18.06,23.121,15.179z"/>
	<path fill="#231D13" d="M8.211,15.179h1.15c-0.014-0.069-0.039-0.133-0.051-0.203H7.945c0.316,2.304,1.588,4.301,3.401,5.583
		C9.677,19.274,8.511,17.367,8.211,15.179z"/>
	<path fill="#231D13" d="M15.07,20.64c-1.068-0.158-2.053-0.568-2.9-1.159c0.836,0.645,1.822,1.096,2.9,1.3V20.64z"/>
	<path fill="#231D13" d="M15.07,8.897V8.625c-2.146,0.388-3.847,2.057-4.277,4.188h0.323C11.59,10.871,13.121,9.355,15.07,8.897z"/>
	<path fill="#231D13" d="M17.546,10.271v-1.38c0.687,0.166,1.316,0.472,1.871,0.874c-0.614-0.507-1.338-0.885-2.137-1.077v1.38"/>
	<path fill="#231D13" d="M11.066,15.179h1.263c-0.065-0.068-0.138-0.142-0.195-0.203h-1.333c0.284,1.357,1.087,2.519,2.188,3.283
		C12.027,17.498,11.326,16.423,11.066,15.179z"/>
	<path fill="#231D13" d="M20.202,15.179h0.989c0.018-0.068,0.044-0.133,0.059-0.203h-1.313c-0.017,0.059-2.677,2.772-2.703,2.781
		v1.32c0.091-0.021,0.177-0.057,0.266-0.082v-1.035"/>
	<path fill="#231D13" d="M14.267,14.04l2.1-2.1c0.011-0.011,0.026,0.002,0.041,0l-0.203-0.203c-0.029-0.028-0.075-0.028-0.104,0
		l-2.1,2.1c-0.028,0.029-0.028,0.074,0,0.103l2.1,2.101c0.017,0.017,0.04,0.003,0.063,0l-1.896-1.897
		C14.238,14.114,14.238,14.068,14.267,14.04z"/>
	<path fill="#231D13" d="M19.417,9.765"/>
</g>
</svg>
