<?xml version="1.0" encoding="utf-8"?>
<!-- Generator: Adobe Illustrator 16.0.0, SVG Export Plug-In . SVG Version: 6.00 Build 0)  -->
<!DOCTYPE svg PUBLIC "-//W3C//DTD SVG 1.1//EN" "http://www.w3.org/Graphics/SVG/1.1/DTD/svg11.dtd">
<svg version="1.1" id="Layer_1" xmlns="http://www.w3.org/2000/svg" xmlns:xlink="http://www.w3.org/1999/xlink" x="0px" y="0px"
	 width="32px" height="32px" viewBox="0 0 32 32" enable-background="new 0 0 32 32" xml:space="preserve">
<g id="Shape_37_copy_6">
	<g>
		<rect x="1.434" y="4.102" fill-rule="evenodd" clip-rule="evenodd" fill="#D3D1B0" width="29.43" height="21.078"/>
	</g>
</g>
<g id="Shape_37_copy_7">
	<g>
		<rect x="1.857" y="4.426" fill-rule="evenodd" clip-rule="evenodd" fill="#722429" width="28.6" height="20.192"/>
	</g>
</g>
<g id="Shape_37_copy_5_2_">
	<g>
		<rect x="2.537" y="4.938" fill-rule="evenodd" clip-rule="evenodd" fill="#E8E5BC" width="27.416" height="19.048"/>
	</g>
</g>
<g id="Shape_37_copy_8">
	<g>
		<rect x="3.199" y="5.51" fill-rule="evenodd" clip-rule="evenodd" fill="#2F151C" width="26.213" height="17.942"/>
	</g>
</g>
<g id="Shape_37_copy_9">
	<g>
		<polygon fill-rule="evenodd" clip-rule="evenodd" fill="#878577" points="3.199,5.51 3.199,23.452 29.412,5.51 		"/>
	</g>
</g>
<g id="Shape_38">
	<g>
		<path fill-rule="evenodd" clip-rule="evenodd" fill="#2D2E2D" d="M16.258,7.948c-6.71,0-12.035,2.579-12.035,5.76
			c0,3.181,5.325,5.759,12.035,5.759c6.708,0,12.034-2.579,12.034-5.759C28.292,10.527,22.966,7.948,16.258,7.948z"/>
	</g>
</g>
<g id="Shape_38_copy">
	<g>
		<ellipse fill-rule="evenodd" clip-rule="evenodd" fill="#D3D1B0" cx="16.258" cy="13.708" rx="11.525" ry="5.266"/>
	</g>
</g>
<g id="Shape_38_copy_2">
	<g>
		<ellipse fill-rule="evenodd" clip-rule="evenodd" fill="#99654B" cx="16.249" cy="13.708" rx="11.119" ry="5.036"/>
	</g>
</g>
<g id="Shape_38_copy_3">
	<g>
		<ellipse fill-rule="evenodd" clip-rule="evenodd" fill="#722429" cx="16.225" cy="13.708" rx="10.635" ry="4.771"/>
	</g>
</g>
<g opacity="0.3">
	<g id="PARKER_2_">
		<g>
			<path fill-rule="evenodd" clip-rule="evenodd" fill="#2D2E2D" d="M10.131,11.784c-0.129-0.052-0.316-0.078-0.56-0.078H8.48v2.771
				h0.659v-1.029h0.457c0.198,0,0.343-0.012,0.436-0.037c0.092-0.024,0.188-0.074,0.287-0.148c0.099-0.075,0.176-0.177,0.229-0.307
				c0.054-0.13,0.082-0.263,0.082-0.4c0-0.194-0.05-0.359-0.151-0.493C10.375,11.929,10.26,11.835,10.131,11.784z M9.878,12.832
				c-0.065,0.074-0.178,0.111-0.339,0.111H9.116v-0.734h0.42c0.147,0,0.257,0.033,0.331,0.099c0.072,0.066,0.108,0.156,0.108,0.268
				C9.976,12.672,9.943,12.758,9.878,12.832z M11.558,11.706l-0.889,2.771h0.569l0.174-0.571h0.896l0.17,0.571h0.696l-0.867-2.771
				H11.558z M11.567,13.395l0.296-0.973l0.292,0.973H11.567z M16.017,12.535c0-0.17-0.044-0.325-0.133-0.464
				c-0.09-0.139-0.202-0.235-0.339-0.287c-0.136-0.052-0.316-0.078-0.541-0.078h-1.217v2.771h0.654v-1.099h0.464l0.426,1.099h0.717
				l-0.512-1.225C15.855,13.106,16.017,12.868,16.017,12.535z M15.279,12.756c-0.047,0.063-0.099,0.103-0.158,0.122
				c-0.059,0.018-0.153,0.027-0.284,0.027H14.44v-0.706h0.383c0.148,0,0.25,0.007,0.304,0.021c0.055,0.015,0.105,0.052,0.152,0.113
				c0.045,0.061,0.068,0.13,0.068,0.207C15.347,12.621,15.324,12.693,15.279,12.756z M18.957,11.706h-0.622l-0.868,1.301v-1.301
				h-0.637v2.771h0.637v-0.636l0.389-0.568l0.552,1.204h0.715l-0.832-1.782L18.957,11.706z M19.762,14.477h1.979v-0.548h-1.319
				v-0.605h1.037v-0.521h-1.037v-0.568h1.319v-0.528h-1.979V14.477z M24.193,13.251c0.322-0.145,0.481-0.384,0.481-0.717
				c0-0.17-0.045-0.325-0.134-0.464s-0.202-0.235-0.338-0.287c-0.137-0.052-0.316-0.078-0.541-0.078h-1.218v2.771h0.654v-1.099
				h0.464l0.425,1.099h0.717L24.193,13.251z M23.936,12.756c-0.046,0.063-0.098,0.103-0.158,0.122
				c-0.058,0.018-0.153,0.027-0.283,0.027h-0.397v-0.706h0.383c0.149,0,0.25,0.007,0.304,0.021c0.054,0.015,0.105,0.052,0.151,0.113
				c0.046,0.061,0.068,0.13,0.068,0.207C24.004,12.621,23.981,12.693,23.936,12.756z"/>
		</g>
	</g>
	<g id="BUILDING_MATERIALS_INC._2_">
		<g>
			<path fill-rule="evenodd" clip-rule="evenodd" fill="#2D2E2D" d="M9.863,15.583c0.107-0.033,0.16-0.101,0.16-0.203
				c0-0.058-0.021-0.109-0.064-0.152c-0.044-0.044-0.11-0.066-0.2-0.066H9.403v0.901h0.356c0.099,0,0.173-0.024,0.221-0.072
				c0.049-0.048,0.072-0.107,0.072-0.178c0-0.052-0.016-0.1-0.045-0.142C9.975,15.629,9.927,15.601,9.863,15.583z M9.511,15.254
				h0.225c0.058,0,0.102,0.013,0.131,0.038c0.03,0.026,0.045,0.059,0.045,0.1c0,0.042-0.014,0.078-0.041,0.109
				c-0.028,0.031-0.083,0.046-0.163,0.046H9.511V15.254z M9.89,15.92c-0.032,0.029-0.077,0.043-0.137,0.043H9.511v-0.33h0.225
				c0.052,0,0.091,0.007,0.119,0.022c0.026,0.015,0.046,0.037,0.061,0.063c0.015,0.028,0.022,0.058,0.022,0.089
				C9.938,15.855,9.921,15.892,9.89,15.92z M10.719,15.75c0,0.082-0.017,0.141-0.053,0.178c-0.037,0.036-0.089,0.055-0.158,0.055
				c-0.037,0-0.071-0.007-0.104-0.021s-0.058-0.035-0.074-0.063c-0.016-0.028-0.024-0.078-0.024-0.148v-0.588h-0.112v0.588
				c0,0.115,0.024,0.199,0.075,0.252c0.051,0.053,0.127,0.079,0.231,0.079c0.094,0,0.169-0.026,0.228-0.077
				c0.058-0.051,0.086-0.136,0.086-0.254v-0.588h-0.094V15.75z M11.012,16.063h0.113v-0.901h-0.113V16.063z M11.452,15.162h-0.115
				v0.901h0.532v-0.099h-0.417V15.162z M12.287,15.162h-0.302v0.901h0.339c0.106,0,0.194-0.044,0.264-0.131
				c0.068-0.087,0.103-0.194,0.103-0.322c0-0.125-0.036-0.231-0.107-0.318C12.512,15.205,12.414,15.162,12.287,15.162z
				 M12.501,15.867c-0.051,0.067-0.124,0.101-0.221,0.101h-0.183v-0.711h0.183c0.101,0,0.176,0.036,0.224,0.107
				c0.047,0.071,0.072,0.15,0.072,0.239C12.576,15.711,12.55,15.8,12.501,15.867z M12.845,16.063h0.112v-0.901h-0.112V16.063z
				 M13.744,15.768c0,0.019,0,0.041,0.001,0.065l0.002,0.063l-0.435-0.734h-0.143v0.901h0.092v-0.669c0-0.015,0-0.034-0.002-0.057
				l-0.001-0.06l0.466,0.786h0.11v-0.901h-0.09V15.768z M14.373,15.703h0.223c0.001,0.019,0.001,0.036,0.001,0.049
				c0,0.074-0.021,0.132-0.063,0.174c-0.043,0.042-0.096,0.063-0.159,0.063c-0.082,0-0.146-0.033-0.193-0.098
				c-0.047-0.066-0.071-0.157-0.071-0.274c0-0.109,0.021-0.198,0.063-0.271c0.042-0.071,0.108-0.107,0.198-0.107
				c0.049,0,0.095,0.015,0.138,0.045c0.042,0.03,0.07,0.079,0.086,0.146l0.106-0.026c-0.05-0.174-0.159-0.261-0.325-0.261
				c-0.12,0-0.214,0.045-0.285,0.136c-0.07,0.091-0.105,0.206-0.105,0.342c0,0.128,0.034,0.236,0.099,0.325
				c0.065,0.09,0.159,0.134,0.277,0.134c0.11,0,0.193-0.039,0.249-0.118l0.03,0.113h0.069v-0.467h-0.338V15.703z M15.669,15.883
				l-0.272-0.721h-0.167v0.901h0.097v-0.787l0.295,0.787h0.077l0.292-0.787v0.787H16.1v-0.901h-0.166L15.669,15.883z M16.496,15.162
				l-0.294,0.901h0.095l0.081-0.264h0.335l0.09,0.264h0.115l-0.294-0.901H16.496z M16.409,15.715l0.139-0.433l0.14,0.433H16.409z
				 M16.922,15.261h0.258v0.802h0.112v-0.802h0.258v-0.099h-0.629V15.261z M17.777,15.639h0.363v-0.091h-0.363v-0.287h0.458v-0.099
				h-0.571v0.901h0.582v-0.099h-0.469V15.639z M18.991,15.551c0.025-0.044,0.04-0.09,0.04-0.138c0-0.062-0.024-0.12-0.07-0.172
				c-0.046-0.053-0.119-0.08-0.214-0.08h-0.355v0.901h0.106v-0.391h0.257l0.166,0.391h0.12l-0.178-0.417
				C18.921,15.627,18.965,15.595,18.991,15.551z M18.732,15.581h-0.236v-0.32h0.249c0.05,0,0.09,0.014,0.122,0.04
				c0.034,0.026,0.05,0.063,0.05,0.111c0,0.047-0.016,0.087-0.046,0.12C18.84,15.564,18.794,15.581,18.732,15.581z M19.206,16.063
				h0.112v-0.901h-0.112V16.063z M19.713,15.162l-0.292,0.901h0.094l0.082-0.264h0.333l0.091,0.264h0.115l-0.293-0.901H19.713z
				 M19.627,15.715l0.139-0.433l0.14,0.433H19.627z M20.355,15.162H20.24v0.901h0.532v-0.099h-0.417V15.162z M21.26,15.56
				l-0.168-0.039c-0.098-0.023-0.146-0.068-0.146-0.135c0-0.048,0.019-0.085,0.058-0.11c0.038-0.026,0.083-0.04,0.131-0.04
				c0.049,0,0.097,0.014,0.14,0.041c0.044,0.027,0.072,0.067,0.084,0.12l0.103-0.031c-0.053-0.148-0.16-0.222-0.324-0.222
				c-0.089,0-0.161,0.022-0.219,0.067c-0.056,0.044-0.084,0.104-0.084,0.18c0,0.045,0.011,0.086,0.031,0.121
				c0.021,0.035,0.045,0.061,0.076,0.078c0.03,0.017,0.067,0.031,0.114,0.043l0.181,0.044c0.036,0.009,0.067,0.025,0.094,0.048
				c0.028,0.023,0.042,0.054,0.042,0.092c0,0.051-0.018,0.091-0.055,0.122c-0.035,0.03-0.089,0.045-0.161,0.045
				c-0.137,0-0.225-0.062-0.266-0.185l-0.101,0.023c0.06,0.172,0.183,0.257,0.37,0.257c0.104,0,0.187-0.026,0.245-0.077
				c0.058-0.052,0.086-0.117,0.086-0.195C21.49,15.68,21.414,15.597,21.26,15.56z M21.969,16.063h0.112v-0.901h-0.112V16.063z
				 M22.868,15.768c0,0.019,0,0.041,0.002,0.065l0,0.063l-0.435-0.734h-0.142v0.901h0.092v-0.669c0-0.015-0.001-0.034-0.002-0.057
				l-0.002-0.06l0.466,0.786h0.109v-0.901h-0.089V15.768z M23.485,15.239c0.106,0,0.181,0.072,0.219,0.215l0.107-0.021
				c-0.049-0.193-0.156-0.29-0.326-0.29c-0.114,0-0.204,0.042-0.271,0.126c-0.069,0.084-0.103,0.196-0.103,0.334
				c0,0.135,0.033,0.248,0.097,0.339c0.066,0.092,0.156,0.138,0.27,0.138c0.172,0,0.285-0.099,0.333-0.298l-0.103-0.023
				c-0.038,0.15-0.114,0.226-0.229,0.226c-0.075,0-0.133-0.034-0.179-0.1c-0.044-0.067-0.067-0.155-0.067-0.266
				c0-0.121,0.021-0.214,0.066-0.281C23.343,15.272,23.405,15.239,23.485,15.239z M23.919,15.915v0.148h0.148v-0.148H23.919z"/>
		</g>
	</g>
	<g id="Shape_39_copy_3_6_">
		<g>
			<path fill-rule="evenodd" clip-rule="evenodd" fill="#2D2E2D" d="M17.86,17.147c-0.065,0-0.091,0.05-0.094,0.064
				c-0.004,0.015-0.002,0.019,0.012,0.025c0.029,0.008,0.082,0.039,0.082,0.108c0,0.093-0.075,0.117-0.131,0.117
				c-0.102,0-0.202-0.096-0.254-0.164c-0.071-0.093-0.146-0.222-0.26-0.222h-0.003c-0.059,0-0.109,0.026-0.134,0.059
				c0.054,0.103,0.165,0.219,0.215,0.265c0.047,0.04,0.128,0.131,0.279,0.162v0.01h-0.041c-0.069,0-0.174-0.021-0.296-0.111
				c-0.133-0.101-0.223-0.258-0.286-0.339c-0.098-0.125-0.191-0.178-0.311-0.178c-0.183,0-0.403,0.15-0.403,0.361
				c0,0.146,0.123,0.26,0.247,0.26c0.041,0,0.083-0.013,0.124-0.042c0.011-0.006,0.011-0.017-0.007-0.017
				c-0.075,0-0.24-0.095-0.24-0.277c0-0.114,0.063-0.217,0.23-0.217c0.165,0,0.249,0.12,0.317,0.222
				c-0.032,0.017-0.064,0.05-0.064,0.116c0,0.077,0.04,0.148,0.146,0.227c0.127,0.083,0.27,0.121,0.417,0.121
				c0.139,0,0.33-0.053,0.399-0.165c0.019-0.027,0.03-0.036,0.052-0.058c0.038-0.035,0.118-0.118,0.118-0.204
				C17.975,17.209,17.931,17.147,17.86,17.147z"/>
		</g>
	</g>
	<g id="Shape_39_copy_3_4_">
		<g>
			<path fill-rule="evenodd" clip-rule="evenodd" fill="#2D2E2D" d="M16.437,17.075c-0.041,0-0.082,0.014-0.125,0.042
				c-0.01,0.006-0.01,0.018,0.007,0.018c0.076,0,0.24,0.094,0.24,0.277c0,0.114-0.063,0.216-0.23,0.216
				c-0.165,0-0.248-0.12-0.316-0.221c0.032-0.018,0.063-0.05,0.063-0.115c0-0.078-0.038-0.149-0.146-0.228
				c-0.125-0.083-0.268-0.12-0.416-0.12c-0.141,0-0.33,0.053-0.398,0.164c-0.019,0.027-0.03,0.036-0.054,0.058
				c-0.036,0.035-0.118,0.118-0.118,0.205c0,0.06,0.044,0.121,0.115,0.121c0.064,0,0.09-0.05,0.092-0.064
				c0.004-0.015,0.002-0.019-0.011-0.026c-0.029-0.007-0.082-0.039-0.082-0.107c0-0.093,0.075-0.118,0.133-0.118
				c0.101,0,0.2,0.097,0.252,0.164c0.072,0.093,0.147,0.222,0.262,0.222h0.002c0.058,0,0.108-0.027,0.133-0.06
				c-0.054-0.102-0.164-0.218-0.215-0.265c-0.047-0.04-0.127-0.131-0.278-0.162v-0.009h0.04c0.069,0,0.174,0.021,0.297,0.112
				c0.132,0.1,0.222,0.258,0.286,0.338c0.097,0.125,0.191,0.178,0.311,0.178c0.184,0,0.402-0.15,0.402-0.361
				C16.683,17.189,16.561,17.075,16.437,17.075z"/>
		</g>
	</g>
</g>
<g>
	<g id="PARKER">
		<g>
			<path fill-rule="evenodd" clip-rule="evenodd" fill="#EAE2CC" d="M9.802,11.469c-0.129-0.052-0.316-0.078-0.56-0.078H8.15v2.771
				H8.81v-1.029h0.457c0.199,0,0.343-0.012,0.436-0.037c0.092-0.025,0.188-0.074,0.287-0.148c0.099-0.075,0.176-0.177,0.229-0.307
				c0.053-0.13,0.081-0.263,0.081-0.4c0-0.194-0.05-0.359-0.151-0.493C10.045,11.614,9.931,11.521,9.802,11.469z M9.549,12.518
				c-0.065,0.074-0.178,0.111-0.339,0.111H8.787v-0.734h0.42c0.147,0,0.258,0.033,0.331,0.099c0.072,0.066,0.108,0.155,0.108,0.268
				C9.646,12.358,9.613,12.443,9.549,12.518z M11.228,11.391l-0.889,2.771h0.569l0.174-0.571h0.896l0.17,0.571h0.696l-0.867-2.771
				H11.228z M11.237,13.08l0.297-0.973l0.291,0.973H11.237z M15.687,12.22c0-0.17-0.044-0.325-0.133-0.464
				c-0.09-0.139-0.202-0.235-0.338-0.287c-0.137-0.052-0.316-0.078-0.541-0.078h-1.218v2.771h0.654v-1.099h0.464l0.426,1.099h0.717
				l-0.512-1.226C15.526,12.792,15.687,12.553,15.687,12.22z M14.949,12.441c-0.047,0.063-0.099,0.103-0.158,0.122
				c-0.059,0.018-0.153,0.027-0.283,0.027h-0.397v-0.706h0.383c0.149,0,0.25,0.007,0.304,0.021c0.054,0.015,0.104,0.052,0.151,0.113
				c0.045,0.061,0.068,0.13,0.068,0.207C15.018,12.307,14.994,12.378,14.949,12.441z M18.628,11.391h-0.622l-0.869,1.301v-1.301
				h-0.637v2.771h0.637v-0.636l0.389-0.568l0.552,1.204h0.715l-0.832-1.782L18.628,11.391z M19.433,14.162h1.979v-0.548h-1.319
				v-0.605h1.037v-0.522h-1.037v-0.568h1.319v-0.528h-1.979V14.162z M23.863,12.937c0.322-0.145,0.481-0.383,0.481-0.716
				c0-0.17-0.045-0.325-0.134-0.464c-0.089-0.139-0.202-0.235-0.338-0.287c-0.136-0.052-0.316-0.078-0.541-0.078h-1.218v2.771h0.654
				v-1.099h0.464l0.425,1.099h0.717L23.863,12.937z M23.606,12.441c-0.046,0.063-0.098,0.103-0.158,0.122
				c-0.058,0.018-0.153,0.027-0.283,0.027h-0.396v-0.706h0.383c0.148,0,0.25,0.007,0.304,0.021c0.055,0.015,0.105,0.052,0.151,0.113
				s0.068,0.13,0.068,0.207C23.674,12.307,23.652,12.378,23.606,12.441z"/>
		</g>
	</g>
	<g id="BUILDING_MATERIALS_INC.">
		<g>
			<path fill-rule="evenodd" clip-rule="evenodd" fill="#EAE2CC" d="M9.534,15.269c0.107-0.033,0.16-0.101,0.16-0.203
				c0-0.058-0.021-0.109-0.064-0.152c-0.044-0.044-0.11-0.066-0.2-0.066H9.073v0.901h0.356c0.099,0,0.173-0.024,0.221-0.072
				c0.049-0.048,0.072-0.107,0.072-0.178c0-0.052-0.016-0.1-0.046-0.142C9.646,15.315,9.598,15.286,9.534,15.269z M9.182,14.939
				h0.225c0.058,0,0.102,0.012,0.131,0.038c0.03,0.026,0.045,0.059,0.045,0.1c0,0.042-0.014,0.078-0.041,0.109
				c-0.028,0.031-0.083,0.046-0.163,0.046H9.182V14.939z M9.56,15.606c-0.032,0.029-0.077,0.043-0.137,0.043H9.182v-0.33h0.225
				c0.052,0,0.092,0.007,0.119,0.022c0.026,0.015,0.046,0.037,0.061,0.063c0.015,0.028,0.022,0.058,0.022,0.089
				C9.609,15.541,9.592,15.578,9.56,15.606z M10.389,15.436c0,0.082-0.017,0.141-0.053,0.178c-0.037,0.036-0.089,0.055-0.158,0.055
				c-0.036,0-0.071-0.007-0.104-0.021S10.016,15.613,10,15.584c-0.016-0.028-0.024-0.078-0.024-0.148v-0.588H9.863v0.588
				c0,0.115,0.024,0.199,0.075,0.252c0.05,0.053,0.127,0.079,0.231,0.079c0.094,0,0.169-0.026,0.228-0.077
				c0.058-0.052,0.086-0.136,0.086-0.254v-0.588h-0.094V15.436z M10.682,15.749h0.113v-0.901h-0.113V15.749z M11.122,14.847h-0.115
				v0.901h0.532v-0.099h-0.417V14.847z M11.957,14.847h-0.302v0.901h0.339c0.106,0,0.195-0.044,0.264-0.131
				c0.068-0.087,0.103-0.194,0.103-0.322c0-0.125-0.036-0.231-0.106-0.318C12.183,14.891,12.084,14.847,11.957,14.847z
				 M12.171,15.552c-0.05,0.067-0.124,0.101-0.221,0.101h-0.184v-0.711h0.184c0.101,0,0.176,0.036,0.224,0.107
				c0.048,0.071,0.072,0.15,0.072,0.239C12.246,15.397,12.22,15.485,12.171,15.552z M12.516,15.749h0.112v-0.901h-0.112V15.749z
				 M13.415,15.454c0,0.019,0,0.041,0,0.065l0.002,0.063l-0.435-0.734H12.84v0.901h0.092v-0.669c0-0.016,0-0.034-0.002-0.057
				l-0.002-0.06l0.466,0.786h0.111v-0.901h-0.09V15.454z M14.043,15.389h0.223c0.001,0.019,0.001,0.035,0.001,0.049
				c0,0.074-0.021,0.132-0.063,0.174c-0.043,0.042-0.096,0.063-0.159,0.063c-0.082,0-0.146-0.033-0.193-0.098
				c-0.048-0.066-0.071-0.157-0.071-0.274c0-0.109,0.021-0.198,0.063-0.271c0.042-0.071,0.108-0.107,0.198-0.107
				c0.049,0,0.095,0.015,0.139,0.045c0.041,0.03,0.07,0.079,0.086,0.146l0.107-0.026c-0.051-0.174-0.159-0.261-0.325-0.261
				c-0.12,0-0.214,0.045-0.284,0.136c-0.07,0.091-0.106,0.206-0.106,0.342c0,0.127,0.034,0.236,0.099,0.325
				c0.065,0.09,0.159,0.134,0.277,0.134c0.11,0,0.192-0.039,0.249-0.118l0.03,0.113h0.069v-0.467h-0.339V15.389z M15.34,15.568
				l-0.272-0.721H14.9v0.901h0.096v-0.787l0.296,0.787h0.077l0.292-0.787v0.787h0.109v-0.901h-0.166L15.34,15.568z M16.166,14.847
				l-0.294,0.901h0.096l0.081-0.264h0.335l0.09,0.264h0.115l-0.295-0.901H16.166z M16.08,15.4l0.139-0.433l0.139,0.433H16.08z
				 M16.593,14.946h0.258v0.802h0.112v-0.802h0.258v-0.099h-0.629V14.946z M17.447,15.324h0.363v-0.092h-0.363v-0.286h0.458v-0.099
				h-0.571v0.901h0.583v-0.099h-0.469V15.324z M18.661,15.237c0.025-0.044,0.04-0.09,0.04-0.138c0-0.062-0.024-0.12-0.07-0.172
				c-0.046-0.053-0.119-0.08-0.214-0.08h-0.354v0.901h0.105v-0.391h0.258l0.166,0.391h0.12l-0.178-0.417
				C18.592,15.312,18.635,15.281,18.661,15.237z M18.403,15.267h-0.236v-0.32h0.249c0.051,0,0.09,0.014,0.122,0.04
				c0.034,0.026,0.05,0.063,0.05,0.111c0,0.047-0.016,0.087-0.046,0.12C18.511,15.25,18.465,15.267,18.403,15.267z M18.876,15.749
				h0.112v-0.901h-0.112V15.749z M19.384,14.847l-0.292,0.901h0.095l0.082-0.264h0.333l0.091,0.264h0.115l-0.294-0.901H19.384z
				 M19.298,15.4l0.14-0.433l0.139,0.433H19.298z M20.026,14.847h-0.115v0.901h0.531v-0.099h-0.417V14.847z M20.93,15.246
				l-0.168-0.039c-0.098-0.023-0.146-0.068-0.146-0.135c0-0.048,0.019-0.085,0.058-0.11c0.037-0.026,0.082-0.04,0.131-0.04
				c0.05,0,0.097,0.014,0.141,0.041c0.044,0.027,0.072,0.067,0.084,0.12l0.103-0.031c-0.052-0.148-0.16-0.222-0.324-0.222
				c-0.089,0-0.161,0.022-0.219,0.067c-0.056,0.044-0.084,0.104-0.084,0.18c0,0.045,0.011,0.086,0.031,0.122
				c0.021,0.035,0.046,0.061,0.076,0.078s0.067,0.031,0.114,0.043l0.181,0.044c0.037,0.009,0.067,0.025,0.095,0.048
				c0.028,0.023,0.041,0.054,0.041,0.092c0,0.051-0.018,0.091-0.054,0.122c-0.036,0.03-0.089,0.045-0.161,0.045
				c-0.137,0-0.225-0.061-0.266-0.184L20.46,15.51c0.06,0.172,0.182,0.257,0.37,0.257c0.104,0,0.186-0.026,0.244-0.077
				c0.058-0.052,0.086-0.117,0.086-0.195C21.16,15.366,21.084,15.283,20.93,15.246z M21.64,15.749h0.112v-0.901H21.64V15.749z
				 M22.538,15.454c0,0.019,0,0.041,0.002,0.065l0.001,0.063l-0.436-0.734h-0.142v0.901h0.092v-0.669
				c0-0.016-0.001-0.034-0.002-0.057l-0.002-0.06l0.466,0.786h0.109v-0.901h-0.089V15.454z M23.156,14.925
				c0.107,0,0.181,0.071,0.219,0.215l0.106-0.021c-0.049-0.193-0.156-0.29-0.326-0.29c-0.114,0-0.204,0.042-0.271,0.126
				c-0.069,0.084-0.103,0.196-0.103,0.334c0,0.135,0.033,0.248,0.098,0.339c0.065,0.092,0.155,0.138,0.27,0.138
				c0.172,0,0.284-0.099,0.333-0.298l-0.103-0.023c-0.037,0.15-0.114,0.225-0.228,0.225c-0.075,0-0.133-0.033-0.179-0.1
				c-0.044-0.066-0.067-0.155-0.067-0.265c0-0.121,0.021-0.214,0.066-0.281C23.014,14.958,23.075,14.925,23.156,14.925z
				 M23.59,15.601v0.148h0.148v-0.148H23.59z"/>
		</g>
	</g>
	<g id="Shape_39_copy_3">
		<g>
			<path fill-rule="evenodd" clip-rule="evenodd" fill="#EAE2CC" d="M17.531,16.833c-0.064,0-0.091,0.05-0.094,0.064
				c-0.003,0.015-0.002,0.019,0.012,0.025c0.029,0.008,0.082,0.039,0.082,0.108c0,0.093-0.075,0.117-0.131,0.117
				c-0.102,0-0.202-0.096-0.254-0.164c-0.071-0.093-0.146-0.222-0.26-0.222h-0.003c-0.059,0-0.109,0.026-0.134,0.059
				c0.055,0.103,0.165,0.219,0.215,0.265c0.047,0.04,0.128,0.131,0.279,0.161v0.01h-0.041c-0.069,0-0.174-0.021-0.296-0.112
				c-0.133-0.101-0.223-0.258-0.285-0.338c-0.099-0.125-0.192-0.178-0.311-0.178c-0.182,0-0.403,0.15-0.403,0.361
				c0,0.146,0.123,0.26,0.247,0.26c0.042,0,0.083-0.013,0.124-0.042c0.011-0.006,0.011-0.017-0.007-0.017
				c-0.075,0-0.24-0.095-0.24-0.277c0-0.114,0.064-0.217,0.23-0.217c0.165,0,0.249,0.12,0.317,0.222
				c-0.032,0.017-0.065,0.05-0.065,0.115c0,0.078,0.04,0.149,0.146,0.228c0.127,0.083,0.27,0.121,0.417,0.121
				c0.139,0,0.33-0.053,0.399-0.165c0.019-0.027,0.03-0.036,0.052-0.058c0.038-0.035,0.118-0.118,0.118-0.205
				C17.645,16.895,17.602,16.833,17.531,16.833z"/>
		</g>
	</g>
	<g id="Shape_39_copy_3_2_">
		<g>
			<path fill-rule="evenodd" clip-rule="evenodd" fill="#EAE2CC" d="M16.107,16.761c-0.041,0-0.081,0.014-0.125,0.042
				c-0.01,0.006-0.01,0.018,0.008,0.018c0.076,0,0.239,0.094,0.239,0.277c0,0.114-0.063,0.216-0.23,0.216
				c-0.165,0-0.248-0.12-0.316-0.221c0.032-0.018,0.063-0.05,0.063-0.116c0-0.077-0.038-0.148-0.146-0.228
				c-0.125-0.083-0.268-0.12-0.416-0.12c-0.14,0-0.329,0.053-0.398,0.164c-0.019,0.027-0.03,0.036-0.053,0.058
				c-0.037,0.035-0.118,0.118-0.118,0.205c0,0.06,0.044,0.122,0.115,0.122c0.063,0,0.09-0.05,0.092-0.064
				c0.003-0.015,0.001-0.019-0.011-0.026c-0.029-0.007-0.083-0.039-0.083-0.107c0-0.093,0.075-0.118,0.133-0.118
				c0.101,0,0.2,0.097,0.253,0.164c0.072,0.093,0.147,0.222,0.262,0.222h0.002c0.058,0,0.108-0.027,0.133-0.06
				c-0.054-0.102-0.164-0.218-0.215-0.265c-0.047-0.04-0.127-0.131-0.278-0.162v-0.01h0.041c0.069,0,0.174,0.022,0.296,0.112
				c0.132,0.101,0.222,0.258,0.286,0.339c0.097,0.125,0.191,0.178,0.311,0.178c0.184,0,0.403-0.15,0.403-0.361
				C16.354,16.875,16.231,16.761,16.107,16.761z"/>
		</g>
	</g>
</g>
<g id="Shape_37_copy_10">
	<g>
		<path fill-rule="evenodd" clip-rule="evenodd" fill="#2D2E2D" d="M3.741,21.821v0.104c0.566,2.134,1.112,4.204,1.641,6.347
			c6.986-2.134,14.646-2.159,21.659,0c0.528-2.144,1.074-4.318,1.641-6.452C20.546,19.487,11.801,19.458,3.741,21.821z"/>
	</g>
</g>
<g id="Shape_37_copy_10_2_">
	<g>
		<path fill-rule="evenodd" clip-rule="evenodd" fill="#FBF0D7" d="M4.414,22.131l0,0.087c0.525,1.795,0.948,3.621,1.438,5.424
			c6.626-1.795,14.059-1.899,20.69-0.083c0.511-1.804,0.944-3.633,1.491-5.428C20.34,20.167,12.058,20.143,4.414,22.131z"/>
	</g>
</g>
<g id="Shape_37_copy_11">
	<g>
		<path fill-rule="evenodd" clip-rule="evenodd" fill="#D3D1B0" d="M4.867,22.371c0.427,1.562,0.844,3.152,1.25,4.772
			c6.582-1.771,13.607-1.771,20.19,0c0.405-1.62,0.821-3.211,1.249-4.772C20.15,20.5,12.273,20.5,4.867,22.371z"/>
	</g>
</g>
<g id="ASSAULT">
	<g>
		<path fill-rule="evenodd" clip-rule="evenodd" fill="#722429" d="M7.033,22.661c0.053,1.111,0.119,2.221,0.197,3.329
			c0.32-0.062,0.643-0.122,0.965-0.177L8.137,25.22c0.114-0.02,0.228-0.039,0.34-0.057c0.054,0.191,0.106,0.383,0.159,0.576
			c0.319-0.052,0.638-0.102,0.958-0.147C9.24,24.529,8.871,23.47,8.49,22.414C8.004,22.489,7.518,22.572,7.033,22.661z
			 M8.014,24.646c-0.03-0.292-0.057-0.757-0.074-1.396c0.153,0.533,0.287,0.98,0.405,1.34C8.234,24.608,8.125,24.627,8.014,24.646z
			 M11.848,23.769c-0.129-0.134-0.423-0.295-0.89-0.473c-0.163-0.062-0.265-0.118-0.305-0.169c-0.042-0.051-0.069-0.132-0.083-0.241
			c-0.012-0.085-0.005-0.15,0.021-0.196c0.026-0.045,0.068-0.071,0.13-0.078c0.056-0.006,0.097,0.005,0.124,0.034
			c0.028,0.028,0.048,0.099,0.063,0.213c0.01,0.081,0.02,0.162,0.03,0.243c0.307-0.033,0.614-0.064,0.922-0.091
			c-0.004-0.043-0.008-0.087-0.012-0.13c-0.027-0.261-0.076-0.443-0.146-0.547c-0.071-0.103-0.203-0.182-0.396-0.235
			c-0.194-0.054-0.424-0.066-0.688-0.037c-0.242,0.027-0.443,0.084-0.604,0.171c-0.161,0.086-0.271,0.193-0.33,0.318
			c-0.059,0.126-0.068,0.314-0.031,0.564c0.027,0.173,0.074,0.313,0.145,0.417c0.068,0.104,0.146,0.184,0.234,0.237
			s0.264,0.134,0.524,0.246c0.261,0.111,0.424,0.194,0.492,0.246c0.067,0.053,0.112,0.176,0.134,0.37
			c0.012,0.088,0.004,0.155-0.021,0.203s-0.07,0.076-0.133,0.083c-0.064,0.007-0.11-0.006-0.14-0.039
			c-0.03-0.032-0.052-0.109-0.067-0.232c-0.018-0.133-0.034-0.266-0.052-0.399c-0.3,0.034-0.599,0.071-0.897,0.111
			c0.01,0.071,0.021,0.143,0.031,0.214c0.037,0.245,0.094,0.43,0.169,0.556s0.208,0.22,0.397,0.285
			c0.191,0.064,0.411,0.082,0.662,0.054c0.23-0.025,0.427-0.083,0.592-0.175c0.164-0.092,0.273-0.195,0.322-0.312
			c0.05-0.116,0.064-0.292,0.04-0.526C12.053,24.133,11.975,23.904,11.848,23.769z M13.812,23.071
			c-0.158-0.071-0.257-0.133-0.292-0.187c-0.039-0.054-0.062-0.136-0.069-0.246c-0.005-0.085,0.007-0.15,0.034-0.194
			c0.029-0.043,0.074-0.067,0.135-0.07c0.055-0.003,0.097,0.011,0.122,0.041s0.042,0.102,0.048,0.216
			c0.005,0.082,0.01,0.163,0.014,0.245c0.31-0.016,0.618-0.028,0.926-0.038c-0.001-0.043-0.003-0.087-0.004-0.13
			c-0.01-0.263-0.045-0.448-0.109-0.555c-0.065-0.107-0.191-0.194-0.381-0.258s-0.418-0.09-0.684-0.076
			c-0.242,0.013-0.447,0.059-0.612,0.136c-0.166,0.077-0.282,0.177-0.349,0.299c-0.066,0.122-0.088,0.309-0.066,0.561
			c0.014,0.175,0.053,0.316,0.115,0.425c0.063,0.108,0.135,0.191,0.219,0.25c0.085,0.058,0.254,0.149,0.507,0.275
			c0.252,0.125,0.409,0.217,0.475,0.274c0.063,0.057,0.101,0.182,0.11,0.376c0.006,0.088-0.007,0.155-0.035,0.202
			c-0.029,0.046-0.074,0.071-0.139,0.074c-0.063,0.003-0.107-0.012-0.135-0.045c-0.027-0.034-0.045-0.113-0.053-0.236
			c-0.01-0.134-0.018-0.268-0.025-0.401c-0.301,0.017-0.602,0.037-0.902,0.059c0.006,0.072,0.012,0.144,0.018,0.215
			c0.021,0.247,0.064,0.436,0.133,0.565c0.066,0.13,0.193,0.231,0.379,0.307c0.186,0.075,0.403,0.105,0.655,0.092
			c0.23-0.012,0.431-0.058,0.601-0.141c0.17-0.082,0.285-0.179,0.342-0.292s0.082-0.288,0.074-0.522
			c-0.011-0.323-0.074-0.556-0.193-0.698C14.549,23.453,14.266,23.275,13.812,23.071z M15.76,21.816
			c-0.16,1.102-0.309,2.205-0.442,3.308c0.326-0.007,0.652-0.01,0.978-0.01l0.059-0.593c0.113,0,0.229,0,0.342,0.001
			c0.016,0.198,0.031,0.396,0.046,0.593c0.323,0.003,0.646,0.009,0.968,0.019c-0.145-1.105-0.303-2.209-0.476-3.313
			C16.742,21.813,16.251,21.811,15.76,21.816z M16.34,23.936c0.027-0.292,0.09-0.754,0.195-1.386
			c0.048,0.55,0.095,1.013,0.141,1.387C16.564,23.936,16.452,23.936,16.34,23.936z M19.481,24.349
			c-0.013,0.164-0.028,0.268-0.05,0.311c-0.02,0.042-0.061,0.063-0.121,0.059c-0.053-0.004-0.087-0.025-0.102-0.066
			c-0.014-0.042-0.018-0.134-0.008-0.277c0.055-0.824,0.11-1.647,0.166-2.47c-0.34-0.02-0.68-0.037-1.02-0.05
			c-0.028,0.65-0.058,1.301-0.086,1.951c-0.018,0.372-0.021,0.616-0.012,0.733c0.012,0.116,0.055,0.229,0.133,0.337
			c0.078,0.108,0.198,0.198,0.361,0.272c0.162,0.073,0.352,0.117,0.567,0.13c0.196,0.013,0.368-0.003,0.517-0.047
			s0.271-0.116,0.371-0.214c0.099-0.099,0.162-0.198,0.189-0.297c0.027-0.1,0.055-0.273,0.078-0.523
			c0.07-0.732,0.141-1.464,0.211-2.196c-0.34-0.029-0.679-0.055-1.018-0.077C19.601,22.731,19.541,23.54,19.481,24.349z
			 M22.457,22.182c-0.338-0.041-0.676-0.078-1.015-0.112c-0.124,1.094-0.248,2.188-0.372,3.282c0.506,0.051,1.01,0.11,1.514,0.176
			c0.033-0.218,0.065-0.436,0.098-0.654c-0.193-0.026-0.387-0.05-0.58-0.074C22.221,23.928,22.338,23.055,22.457,22.182z
			 M23.516,22.321l-0.105,0.653c0.197,0.028,0.393,0.057,0.59,0.087c-0.15,0.869-0.301,1.737-0.453,2.605
			c0.313,0.048,0.625,0.099,0.938,0.154c0.169-0.865,0.34-1.731,0.51-2.596c0.196,0.034,0.393,0.07,0.588,0.107
			c0.047-0.216,0.092-0.432,0.137-0.648C24.986,22.546,24.252,22.426,23.516,22.321z"/>
	</g>
</g>
</svg>
