<?xml version="1.0" encoding="utf-8"?>
<!-- Generator: Adobe Illustrator 16.0.0, SVG Export Plug-In . SVG Version: 6.00 Build 0)  -->
<!DOCTYPE svg PUBLIC "-//W3C//DTD SVG 1.1//EN" "http://www.w3.org/Graphics/SVG/1.1/DTD/svg11.dtd">
<svg version="1.1" id="Layer_1" xmlns="http://www.w3.org/2000/svg" xmlns:xlink="http://www.w3.org/1999/xlink" x="0px" y="0px"
	 width="32px" height="32px" viewBox="0 0 32 32" enable-background="new 0 0 32 32" xml:space="preserve">
<g id="Shape_5_copy_10">
	<g>
		<path fill-rule="evenodd" clip-rule="evenodd" fill="#B62025" d="M28.327,1.022L3.847,1.011l0.285,19.666
			c-0.004,0.105-0.007,0.211-0.007,0.317c0,5.585,5.459,9.971,12.194,9.971c6.531,0,11.862-4.117,12.179-9.467h0.028L28.327,1.022z"
			/>
	</g>
</g>
<g>
	<path fill="#010101" d="M6.525,9.676c-0.745,0.536-1.596,1.148-2.526,1.818l0.007,0.455c0.895-0.645,1.72-1.238,2.452-1.766
		L6.525,9.676z"/>
	<path fill="#010101" d="M6.682,15.186c-0.812,0.584-1.685,1.213-2.603,1.874l0.007,0.454c0.905-0.652,1.77-1.274,2.577-1.855
		L6.682,15.186z"/>
	<path fill="#010101" d="M6.559,12.463c-0.771,0.555-1.617,1.164-2.52,1.813l0.006,0.455c0.879-0.633,1.708-1.229,2.468-1.777
		L6.559,12.463z"/>
	<path fill="#010101" d="M7.175,17.642c-0.956,0.688-1.982,1.428-3.055,2.2l0.006,0.454c1.109-0.798,2.171-1.563,3.16-2.274
		L7.175,17.642z"/>
	<path fill="#010101" d="M10.208,24.514c-0.749,1.313-1.479,2.597-2.176,3.819c0.099,0.076,0.201,0.148,0.303,0.22
		c0.679-1.191,1.391-2.44,2.12-3.719L10.208,24.514z"/>
	<path fill="#010101" d="M9.585,23.802l-0.194-0.339c-1.07,1.157-2.095,2.268-3.047,3.297c0.082,0.095,0.164,0.188,0.249,0.28
		C7.528,26.028,8.536,24.938,9.585,23.802z"/>
	<path fill="#010101" d="M7.984,19.871c-1.16,0.834-2.411,1.735-3.715,2.675c0.025,0.133,0.055,0.265,0.086,0.396
		c1.282-0.923,2.516-1.811,3.662-2.636L7.984,19.871z"/>
	<path fill="#010101" d="M10.614,26.783c-0.198,0.938-0.394,1.865-0.585,2.772c0.114,0.056,0.23,0.108,0.346,0.162
		c0.195-0.921,0.394-1.862,0.595-2.815L10.614,26.783z"/>
	<path fill="#010101" d="M8.629,22.196L8.52,21.799c-1.235,1.069-2.409,2.085-3.482,3.014c0.057,0.114,0.118,0.226,0.18,0.337
		C6.269,24.239,7.418,23.245,8.629,22.196z"/>
	<polygon fill="#010101" points="7.714,8.814 18.546,1.018 17.908,1.017 7.497,8.512 	"/>
	<polygon fill="#010101" points="6.382,6.962 14.643,1.016 14.005,1.015 6.164,6.66 	"/>
	<polygon fill="#010101" points="9.047,10.666 22.448,1.019 21.811,1.019 8.83,10.364 	"/>
	<polygon fill="#010101" points="8.412,5.506 3.959,8.712 3.965,9.167 8.63,5.809 	"/>
	<polygon fill="#010101" points="10.38,12.518 26.351,1.021 25.713,1.021 10.163,12.215 	"/>
	<polygon fill="#010101" points="7.011,1.012 3.88,3.267 3.886,3.721 7.648,1.013 	"/>
	<polygon fill="#010101" points="10.914,1.014 3.92,6.049 3.927,6.503 11.551,1.014 	"/>
	<path fill="#010101" d="M23.21,18.807c1.813-1.091,3.593-2.163,5.259-3.166l-0.004-0.432c-1.698,1.022-3.519,2.118-5.376,3.236
		L23.21,18.807z"/>
	<path fill="#010101" d="M22.39,17.653c2.124-1.684,4.194-3.326,6.053-4.8l-0.005-0.472c-1.897,1.505-4.027,3.194-6.215,4.929
		L22.39,17.653z"/>
	<path fill="#010101" d="M23.563,20.053c1.686-0.624,3.348-1.239,4.931-1.825l-0.004-0.396c-1.621,0.6-3.325,1.231-5.056,1.871
		L23.563,20.053z"/>
	<polygon fill="#010101" points="17.888,18.148 28.419,10.566 28.415,10.11 17.67,17.846 	"/>
	<polygon fill="#010101" points="16.555,16.296 28.393,7.775 28.388,7.319 16.337,15.994 	"/>
	<path fill="#010101" d="M12.497,27.38c-0.06,1.031-0.118,2.048-0.176,3.043c0.122,0.034,0.244,0.069,0.368,0.1
		c0.057-0.976,0.114-1.973,0.172-2.984L12.497,27.38z"/>
	<polygon fill="#010101" points="13.671,12.291 13.889,12.593 28.338,2.191 28.334,1.735 	"/>
	<polygon fill="#010101" points="15.222,14.445 28.365,4.982 28.361,4.527 15.004,14.142 	"/>
	<path fill="#010101" d="M23.838,21.441c1.596-0.33,3.169-0.656,4.678-0.967l-0.003-0.38c-1.518,0.314-3.103,0.642-4.711,0.974
		L23.838,21.441z"/>
	<path fill="#010101" d="M24.738,22.667c1.196,0.119,2.377,0.235,3.529,0.35c0.03-0.121,0.055-0.244,0.08-0.366
		c-1.139-0.113-2.308-0.229-3.491-0.346L24.738,22.667z"/>
	<path fill="#010101" d="M18.717,28.223c0.4,0.793,0.791,1.567,1.169,2.315c0.124-0.03,0.246-0.063,0.368-0.097
		c-0.379-0.751-0.771-1.527-1.174-2.325L18.717,28.223z"/>
	<path fill="#010101" d="M16.639,27.706c0.289,1.092,0.573,2.168,0.85,3.214c0.126-0.009,0.251-0.022,0.376-0.036
		c-0.28-1.055-0.566-2.14-0.858-3.242L16.639,27.706z"/>
	<path fill="#010101" d="M14.39,27.779c0.138,1.053,0.274,2.093,0.406,3.107c0.126,0.012,0.252,0.025,0.38,0.034
		c-0.134-1.021-0.27-2.067-0.409-3.127L14.39,27.779z"/>
	<path fill="#010101" d="M20.513,28.1c0.495,0.592,0.981,1.176,1.459,1.748c0.12-0.05,0.236-0.104,0.353-0.158
		c-0.489-0.586-0.989-1.185-1.497-1.793L20.513,28.1z"/>
	<path fill="#010101" d="M23.988,24.341c1.166,0.27,2.318,0.537,3.443,0.797c0.063-0.113,0.124-0.226,0.181-0.341
		c-1.13-0.261-2.288-0.529-3.46-0.801L23.988,24.341z"/>
	<path fill="#010101" d="M21.887,27.255c0.755,0.479,1.504,0.955,2.242,1.422c0.112-0.076,0.222-0.153,0.33-0.231
		c-0.769-0.488-1.55-0.984-2.338-1.484L21.887,27.255z"/>
	<path fill="#010101" d="M22.938,25.776c1.027,0.452,2.044,0.9,3.041,1.339c0.09-0.095,0.18-0.192,0.266-0.29
		c-1.032-0.455-2.089-0.92-3.156-1.39L22.938,25.776z"/>
</g>
<g id="Shape_5_copy_9">
	<g>
		<path fill-rule="evenodd" clip-rule="evenodd" fill="#18224E" d="M27.133,2.252l-22.07-0.01l0.258,18.053
			c-0.003,0.098-0.006,0.195-0.006,0.292c0,5.126,4.921,9.153,10.993,9.153c5.888,0,10.694-3.779,10.979-8.691l0.025,0L27.133,2.252
			z"/>
	</g>
</g>
<g id="Shape_4">
	<g>
		<path fill-rule="evenodd" clip-rule="evenodd" fill="#0C1118" d="M27.035,6.403l-0.077-4.22L26.22,2.18L16,12.443L5.752,2.162
			l-0.67,0.005l0.086,4.44l8.333,8.333c0,0-4.266,4.298-7.785,7.817c0.216,1.189,1.008,1.934,1.749,3.189
			C11.054,22.357,16,17.439,16,17.439s5.166,5.168,8.744,8.747c0.534-0.654,1.746-1.57,1.912-3.037
			c-3.563-3.563-8.158-8.208-8.158-8.208L27.035,6.403z"/>
	</g>
</g>
<g id="Shape_5_copy_15">
	<g>
		<path fill-rule="evenodd" clip-rule="evenodd" fill="#0C1529" d="M26.956,2.212L5.094,2.202l0.255,17.934
			c-0.003,0.097-0.006,0.193-0.006,0.291c0,5.092,4.875,9.092,10.89,9.092c5.833,0,10.594-3.754,10.877-8.634h0.024L26.956,2.212z
			 M16.229,29.15c-5.836,0-10.567-4.025-10.567-8.904c0-0.093,0.002-0.186,0.005-0.278L5.421,2.541l21.214,0.01L26.8,20.793
			C26.525,25.468,21.889,29.15,16.229,29.15z"/>
	</g>
</g>
<g id="Shape_5_copy_16">
	<g>
		<path fill-rule="evenodd" clip-rule="evenodd" fill="#EFE4B1" d="M27.131,1.992L4.916,1.982l0.259,18.224
			c-0.003,0.098-0.006,0.196-0.006,0.295c0,5.174,4.954,9.239,11.065,9.239c5.927,0,10.79-3.782,11.078-8.74v-0.033L27.131,1.992z
			 M16.231,29.364c-5.93,0-10.737-4.09-10.737-9.048c0-0.094,0.002-0.188,0.005-0.282L5.248,2.326l21.557,0.01l0.167,18.537
			C26.693,25.623,21.982,29.364,16.231,29.364z"/>
	</g>
</g>
<g id="Shape_5_copy_17">
	<g>
		<path fill-rule="evenodd" clip-rule="evenodd" fill="#EFE4B1" d="M28.587,0.703L3.548,0.691L3.84,20.836
			c-0.004,0.108-0.007,0.217-0.007,0.326c0,5.72,5.584,10.213,12.472,10.213c6.68,0,12.162-4.181,12.486-9.661v-0.037L28.587,0.703z
			 M16.301,30.96c-6.684,0-12.103-4.521-12.103-10.001c0-0.104,0.003-0.208,0.007-0.312L3.922,1.071l24.297,0.011l0.188,20.492
			C28.094,26.825,22.783,30.96,16.301,30.96z"/>
	</g>
</g>
<path fill="#E2CCA8" d="M24.619,15.825c-0.096-0.134-0.233-0.019-0.214-0.326c0.019-0.306,0.23-1.15,0.25-1.495
	c0.019-0.345-0.036-0.53-0.189-0.99c-0.153-0.46-0.472-0.511-0.741-0.703c-0.269-0.191-1.293,0.313-1.293,0.313l-1.82,0.996
	c0,0-0.077-0.115,0.027-0.271c0.104-0.156,0.088-0.399,0.146-0.553s-0.093-0.46-0.189-0.537c-0.086-0.069-0.694-0.234-0.813-0.292
	c0.002-0.002,0.004-0.003,0.004-0.003s-0.004,0-0.011,0c-0.01-0.005-0.016-0.008-0.016-0.008s-0.048-0.098-0.048-0.29
	c0-0.192,0.405-0.531,0.405-0.531l0.543-0.205L20.3,11.57l0.255,0.396c0,0,0.249,0.083,0.383,0.102
	c0.134,0.02,0.46-0.204,0.46-0.204l0.189-0.218l0.297-0.754l-0.055-0.053l0.106-0.087c0,0-0.365-0.402-0.709-0.422
	c-0.345-0.019-1.169,0.096-1.361,0.307c-0.192,0.21-0.469,0.383-0.469,0.651c0,0.082-0.072,0.16-0.058,0.268l0.077,0.422
	l-0.288,0.102c-0.117,0.031-0.23,0.073-0.277,0.128c-0.115,0.134-0.115-0.096-0.115-0.096l-0.146-0.053
	c-0.006-0.032-0.006-0.095,0.012-0.219c0.056-0.161,0.119-0.393,0.096-0.571c-0.039-0.307-0.077-0.748-0.153-0.843
	c-0.077-0.096-0.264-0.202-0.412-0.307c-0.048-0.034-0.146-0.053-0.23-0.077c-0.033-0.018-0.076,0.005-0.108-0.006
	c-0.123-0.043-0.27-0.046-0.419-0.03c-0.032-0.001-0.064-0.002-0.096-0.002c-0.271,0-0.617,0.18-0.693,0.221
	c-0.002-0.008-0.016-0.058-0.035-0.13c-0.029-0.203-0.091-0.574-0.173-0.723c-0.025-0.046-0.059-0.095-0.094-0.144
	c-0.099-0.19-0.215-0.38-0.215-0.38s-0.024,0.024-0.058,0.061c-0.01-0.01-0.016-0.016-0.016-0.016s-0.024,0.039-0.059,0.098
	c-0.084,0.096-0.189,0.224-0.251,0.336c-0.115,0.211-0.202,0.939-0.202,0.939s-0.383-0.204-0.69-0.204
	c-0.306,0-0.586-0.009-0.734,0.096c-0.149,0.105-0.268,0.172-0.345,0.269c-0.045,0.056-0.122,0.224-0.186,0.414
	c-0.116,0.242-0.174,0.509-0.121,0.755c0.134,0.613,0.039,0.537,0.039,0.537l-0.03,0.039l-0.065-0.006c0,0,0.004,0.04,0.005,0.085
	l-0.061,0.081l-0.143-0.082c-0.046-0.029-0.1-0.059-0.155-0.088l-0.215-0.123L12.678,11.5c0,0-0.003-0.015-0.008-0.038
	c0.005-0.061,0.008-0.12,0.008-0.173c0-0.158-0.113-0.256-0.246-0.353c-0.03-0.035-0.063-0.065-0.1-0.088
	c-0.028-0.017-0.058-0.036-0.089-0.055c-0.029-0.025-0.058-0.051-0.083-0.079c-0.065-0.071-0.191-0.12-0.342-0.153
	c-0.149-0.066-0.301-0.115-0.444-0.115c-0.326,0-0.805,0.115-0.805,0.115l-0.392,0.376l0.296,0.754l0.173,0.402
	c0,0,0.345,0.115,0.479,0.096c0.135-0.02,0.501-0.217,0.501-0.217l0.194-0.35l-0.388-0.544l0.537,0.172c0,0,0.383,0.268,0.383,0.46
	c0,0.086-0.01,0.153-0.021,0.201c-0.029,0.009-0.054,0.008-0.054,0.008s0.016,0.015,0.042,0.04
	c-0.009,0.027,0.033,0.135,0.033,0.135s-0.748,0.249-0.843,0.326s-0.287,0.269-0.23,0.421c0.058,0.153,0.042,0.396,0.146,0.553
	c0.104,0.157-0.082,0.22-0.082,0.22l-1.738-0.881c0,0-0.895-0.466-1.163-0.274c-0.269,0.191-0.594,0.153-0.748,0.613
	c-0.153,0.459-0.307,0.632-0.288,0.977c0.019,0.345,0.23,1.188,0.249,1.495s-0.115,0.23-0.21,0.364s-0.134,0.459-0.058,0.613
	c0.077,0.153,0.077,0.421,0.287,0.652c0.211,0.23,0.825,0.843,0.997,1.016c0.172,0.173,1.208,1.667,1.361,2.319
	c0.153,0.651,0.038,1.571,0.038,1.571l0.143-0.215l-0.009,0.542c0,0,0.096,0.92,0.288,1.13c0.191,0.211,0.46,0.748,0.651,0.92
	c0.192,0.172,0.402,0.287,0.479,0.44c0.077,0.154,0.096,0.441,0.039,0.518c-0.058,0.077-0.153-0.134-0.153-0.134
	s-0.032-0.258-0.121-0.264c-0.089-0.005-0.152-0.017-0.294,0.037c-0.141,0.054-0.275,0.175-0.237,0.418
	c0.031,0.193,0.058,0.307,0.153,0.383c0.096,0.077,0.471,0.316,0.563,0.268s0.339,0.02,0.396-0.057
	c0.058-0.077,0.192-0.288,0.269-0.479c0.076-0.191,0.287-0.533,0.287-0.533l0.733-0.037c0,0-0.197,0.321-0.197,0.513
	s0.173,0.556,0.288,0.613c0.115,0.057,0.364,0.172,0.498,0.153c0.135-0.019,0.556-0.096,0.652-0.172
	c0.096-0.076,0.383-0.191,0.421-0.402c0.038-0.211,0.326-0.499,0.326-0.499s0.159,0.313,0.313,0.332
	c0.052,0.006,0.32,0.006,0.371,0.025c-0.16,0.224-0.016,0.69,0.081,0.576c0.013,0.014,0.025,0.028,0.038,0.043
	c0.098,0.116,0.153,0.181,0.317,0.043c0.165-0.138,0.241-0.291,0.222-0.425c-0.017-0.117-0.134-0.19-0.165-0.27
	c0.064-0.024,0.167,0.033,0.235,0.027c0.255-0.025,0.332-0.358,0.332-0.358s0.112,0.25,0.151,0.46
	c0.038,0.211,0.328,0.307,0.424,0.383s0.543,0.147,0.677,0.166c0.134,0.02,0.355-0.07,0.47-0.127C18.828,26.041,19,25.676,19,25.485
	s-0.246-0.652-0.246-0.652l0.817,0.128c0,0,0.089,0.358,0.166,0.549c0.077,0.192,0.173,0.256,0.23,0.333s0.332,0.191,0.562,0.128
	c0.1-0.028,0.39-0.128,0.485-0.205c0.096-0.077,0.186-0.271,0.211-0.495c0.022-0.195-0.108-0.32-0.249-0.374
	c-0.142-0.054-0.213,0.07-0.303,0.076c-0.09,0.005-0.122,0.263-0.122,0.263s-0.096,0.211-0.153,0.134s-0.122-0.416-0.045-0.569
	s0.374-0.287,0.565-0.46c0.192-0.172,0.458-0.639,0.649-0.85c0.191-0.21,0.288-1.131,0.288-1.131l-0.008-0.541l0.143,0.215
	c0,0-0.074-0.904,0.079-1.556s1.138-2.233,1.31-2.406s0.76-0.728,0.971-0.958s0.205-0.499,0.281-0.651
	C24.708,16.311,24.714,15.959,24.619,15.825z M16.543,10.96c0,0,0.792-0.118,0.881-0.118s0.077,0.04,0.196,0.098
	c0.119,0.06,0.136,0.283,0.174,0.466c0.039,0.184-0.013,0.315-0.051,0.434c-0.039,0.118-0.665,0.394-0.652,0.341
	c0.013-0.053-0.013-0.289-0.077-0.42c-0.063-0.132-0.166-0.145-0.243-0.158s-0.358,0.079-0.358,0.079L16.543,10.96z M14.431,11.194
	c0,0,0.17-0.238,0.234-0.263c0.063-0.025,0.498,0.154,0.613,0.103c0.115-0.051,0.23-0.064,0.23-0.064l0.089,0.703
	c0,0-0.294-0.026-0.371,0.013s-0.189,0.182-0.21,0.206c-0.02,0.024-0.02,0.382-0.02,0.382l-0.601-0.294c0,0-0.051-0.32-0.051-0.422
	S14.431,11.194,14.431,11.194z M10.576,18.406c-0.063-0.205-0.613-1.495-0.613-1.495l-0.191-0.166l-0.254-0.051l-0.22,0.073
	L9.03,17.026l-0.179,0.281l-0.217-0.204L8.378,16.63c0,0,0.218-0.153,0.282-0.192c0.064-0.038,0.038-0.077,0.038-0.269
	c0-0.191-0.064-0.038-0.192-0.166c-0.127-0.127-0.23-0.153-0.23-0.153s0.002-0.276,0.141-0.23c0.192,0.064,0.601,0.013,0.818-0.025
	c0.217-0.039,0.345-0.141,0.447-0.243c0,0,0.409,0.575,0.728,0.792c0.212,0.144,0.46,0.192,0.46,0.192l0.089,2.108
	c0,0-0.013,0.459-0.115,0.434C10.742,18.853,10.64,18.611,10.576,18.406z M10.774,21.927c0.006-0.205,0.115-0.314,0.236-0.448
	c0.122-0.134,0.416-0.172,0.435-0.179c0.02-0.006,0.108,0.07,0.153,0.096c0.045,0.026,0.205,0.333,0.205,0.403
	c0,0-0.856,0.511-0.914,0.517C10.832,22.322,10.768,22.13,10.774,21.927z M16.032,25.51c0.025-0.025,0.122-0.287,0.051-0.498
	c-0.071-0.211,0.121-0.02,0.223-0.039s-0.006,0.141,0.006,0.269s0.083,0.288,0.083,0.288L16.032,25.51z M21.271,21.843
	c-0.025,0.166-0.046,0.261-0.093,0.277c-0.048,0.017-0.188-0.175-0.418-0.265c-0.23-0.089-0.462-0.212-0.462-0.212
	c-0.036-0.043-0.023-0.057,0.143-0.286c0.166-0.23,0.294-0.077,0.332-0.077c0.039,0,0.281-0.205,0.37,0.063
	C21.232,21.613,21.296,21.677,21.271,21.843z M23.737,15.736c0,0-0.332,0.051-0.357,0.128c-0.026,0.076-0.077,0.204-0.051,0.242
	c0.025,0.039,0.115,0.217,0.204,0.23c0.089,0.013,0.153,0.077,0.153,0.077l-0.217,0.434c0,0-0.14,0.256-0.204,0.256
	s-0.243-0.269-0.281-0.345c-0.039-0.077-0.179-0.217-0.293-0.23c-0.115-0.013-0.093-0.036-0.243-0.013
	c-0.13,0.02-0.245,0.278-0.352,0.362c-0.108,0.084-0.364,0.736-0.453,0.954c-0.089,0.217-0.248,0.705-0.354,0.806
	c-0.07,0.067-0.122-0.005-0.148-0.062c-0.014,0.236-0.025,0.397-0.035,0.431c-0.049,0.18-0.276,0.632-0.409,0.704
	c-0.132,0.071-0.246,0.569-0.358,0.664c-0.112,0.095-0.07,0.479-0.051,0.652c0.02,0.172-0.231,0.392-0.281,0.498
	c-0.049,0.106-0.191,0.108-0.307,0.166c-0.115,0.058-0.124,0.383-0.143,0.441c-0.02,0.058,0.057,0.23,0.096,0.307
	c0.016,0.031,0.279,0.219,0.558,0.089c0.192-0.089,0.085-0.419,0.205-0.358c0.754,0.39,0.625,1.024,0.563,1.08
	c-0.044,0.039-0.543-0.262-0.78-0.122c-0.16,0.096-0.313,0.447,0.198,0.748c0.072,0.042-0.242,0.286-0.319,0.255
	c-0.409-0.16-0.709-0.313-1.15-0.332c-0.337-0.015-0.728-0.054-0.792-0.013c-0.211,0.134-0.045-0.179-0.045-0.179
	s-0.021-0.238-0.307-0.281c-0.285-0.042-0.587,0.306-0.587,0.306s-0.25-0.268-0.46-0.306c-0.21-0.039-0.46,0.268-0.46,0.268
	s-0.031,0.091-0.08,0.222c-0.006-0.123-0.008-0.205-0.008-0.205s-0.212-0.381-0.423-0.343c-0.211,0.039-0.4,0.363-0.4,0.363
	s-0.157-0.308-0.445-0.33c-0.547-0.04-0.395,0.626-0.395,0.626s-0.2-0.014-0.446-0.06c-1.259-0.237-1.985,0.484-2.121,0.383
	c-0.04-0.029-0.38-0.293-0.275-0.313c0.511-0.096,0.379-0.368,0.364-0.524c-0.016-0.166-0.307-0.179-0.364-0.223
	c-0.054-0.042-0.366,0.278-0.537,0.204c-0.155-0.067-0.205-0.632,0.435-1.022c0.154-0.095,0.394,0.33,0.428,0.326
	c0.249-0.032,0.364-0.14,0.402-0.217c0.039-0.077,0.116-0.25,0.097-0.307c-0.02-0.057-0.039-0.191-0.154-0.249
	c-0.115-0.058-0.284-0.133-0.333-0.24c-0.05-0.106-0.273-0.553-0.254-0.726c0.019-0.172,0.218-0.399,0.105-0.493
	c-0.112-0.095-0.384-0.489-0.516-0.56s-0.225-0.018-0.275-0.198c-0.05-0.18-0.203-4.473-0.203-4.473s0.063-0.961,0.137-0.931
	s1.377,0.414,1.569,0.395c0.191-0.019,0.958-0.383,1.092-0.575c0.134-0.191,0.326-0.575,0.441-0.671
	c0.115-0.096,0.268,0.096,0.46,0.077c0.176-0.018,0.351-0.163,0.377-0.187c-0.012,0.012-0.027,0.049,0.168,0.094c0,0,0,0,0.001,0
	c0.023,0.022,0.046,0.042,0.066,0.057c0.054,0.04,0.106,0.028,0.164,0.002c0.106,0.03,0.169,0.052,0.169,0.052l0.434,0.039
	c0,0,0.055-0.024,0.131-0.053c0.012,0.005,0.02,0.009,0.02,0.009l0.434-0.039c0,0,0.021-0.007,0.057-0.019
	c0.104,0.049,0.188,0.117,0.276,0.054c0.061-0.044,0.136-0.126,0.218-0.198c0.007-0.004,0.013-0.009,0.016-0.013
	c0.006-0.005,0.013-0.01,0.019-0.016c0.054,0.044,0.207,0.158,0.361,0.173c0.191,0.019,0.345-0.172,0.46-0.077
	c0.115,0.096,0.306,0.479,0.44,0.671c0.135,0.191,0.968,0.358,1.159,0.377s1.498-0.366,1.571-0.396
	c0.074-0.03,0.154,1.112,0.154,1.112s-0.021,0.651-0.048,1.417l0.023-0.42c0,0,0.498-0.127,0.651-0.255
	c0.153-0.127,0.485-0.652,0.485-0.652s0.997,0.256,1.329,0.205C24.043,15.416,23.737,15.736,23.737,15.736z"/>
<g id="Color_Fill_6">
	<g>
		<path fill-rule="evenodd" clip-rule="evenodd" fill="#194795" d="M21.113,14.092c0,0-0.544,0.192-0.676,0.236
			c-0.132,0.044-0.879,0.121-1.021,0.121s-0.934-0.264-0.978-0.319s-0.396-0.769-0.396-0.769l-0.209-0.132l-0.439-0.176
			l-0.203,0.132c0,0-0.176,0.354-0.319,0.354c-0.143,0-0.379-0.08-0.379-0.08s-0.121,0.121-0.187,0.099s-0.402-0.013-0.489,0
			c-0.219,0.033-0.313-0.121-0.313-0.121s-0.296,0-0.385,0c-0.088,0-0.329-0.198-0.329-0.198s-0.739,0.195-0.815,0.371
			c-0.077,0.176-0.451,0.675-0.451,0.675s-0.565,0.348-0.785,0.363c-0.574,0.039-1.728-0.343-1.728-0.343l-0.044,0.066
			c0,0-0.066,1.921-0.066,2.131c0,0.208,0.044,2.724,0.11,2.943s0.088,0.308,0.088,0.308s0.198,0.099,0.252,0.154
			c0.055,0.055,0.252,0.318,0.252,0.318s0.264,0.176,0.264,0.242s-0.011,0.417-0.011,0.417l-0.231,0.308l0.331,0.148l0.001,0.39
			h0.206c0,0,0.363,0.307,0.385,0.362c0.022,0.055-0.055,0.341-0.055,0.341l-0.11,0.132c0,0,0.231,0.087,0.33,0.187
			c0.099,0.099,0.944,0.846,0.944,0.846l0.648,0.275c0,0,0.286,0.077,0.318,0.121c0.033,0.044-0.109-0.23-0.099-0.363
			c0.011-0.131,0.143-0.286,0.143-0.286s0.253-0.099,0.318-0.011c0.066,0.088,0.374,0.296,0.374,0.296s0.143-0.33,0.307-0.34
			s0.297,0.044,0.297,0.044l0.143,0.143l0.132,0.143c0,0,0.219-0.351,0.352-0.329c0.132,0.022,0.34,0.121,0.34,0.121l0.176,0.264
			l0.044,0.143l0.176-0.363c0,0,0.11-0.154,0.296-0.121c0.187,0.033,0.341,0.154,0.341,0.154l0.129,0.061l1.305-0.917l0.167-0.258
			c0,0-0.085-0.39-0.041-0.488s0.211-0.209,0.211-0.209l0.261-0.176l0.302-0.483c0,0-0.096-0.252-0.042-0.494
			c0.055-0.242,0.398-0.801,0.398-0.801l0.5-0.745l0.027-3.111l0.052-0.863L21.113,14.092z"/>
	</g>
</g>
<g id="Color_Fill_5">
	<g>
		<path fill-rule="evenodd" clip-rule="evenodd" fill="#B62025" d="M21.047,14.092l-0.955,0.264c0,0-0.544,0.115-0.906,0.066
			c-0.363-0.049-0.775-0.215-0.808-0.313s-0.214-0.922-0.214-0.922s-0.395,0.099-0.577,0.049c-0.181-0.049-0.412-0.214-0.412-0.214
			s0,0.313-0.082,0.362c-0.083,0.05-0.23,0.132-0.313,0.099c-0.082-0.033-0.296-0.033-0.296-0.033s-0.198,0.165-0.264,0.148
			c-0.007-0.002-0.019-0.004-0.033-0.007v4.735H10.94c0.004,0.453,0.009,0.857,0.023,0.923c0.033,0.148,0.115,0.461,0.115,0.461
			s0.214,0.033,0.28,0.132s0.132,0.313,0.23,0.378c0.099,0.066,0.28,0.198,0.28,0.198l-0.065,0.51l-0.231,0.297l0.29,0.106
			l0.067,0.345l0.088,0.01l0.23,0.05l0.297,0.329v0.247l-0.149,0.231l0.445,0.362l0.791,0.643l0.527,0.264l0.363,0.115
			c0,0-0.099-0.379,0.017-0.527c0.115-0.148,0.313-0.132,0.378-0.099c0.066,0.033,0.429,0.28,0.429,0.28s0.181-0.28,0.313-0.313
			c0.131-0.033,0.33,0.017,0.379,0.099c0.034,0.056,0.106,0.174,0.148,0.243v-5.269h4.943v-1.12l0.082-1.417v-1.071L21.047,14.092z"
			/>
	</g>
</g>
<path fill-rule="evenodd" clip-rule="evenodd" fill="#6E563E" d="M18.281,11.341c0.136,0.092,0.1,0.086,0.073,0.256
	c-0.024,0-0.049,0-0.073,0C18.281,11.512,18.281,11.426,18.281,11.341z M24.734,13.981c-0.092,0.555-0.189,0.97-0.22,1.503
	c0.013,0,0.025,0,0.037,0c0-0.024,0-0.049,0-0.073c0.024-0.073,0.049-0.146,0.073-0.22c0.012,0,0.024,0,0.037,0
	c0.008,0.555,0.118,1.171-0.073,1.613c-0.257,0.594-0.883,0.905-1.247,1.393c-0.342,0.563-0.685,1.125-1.027,1.687
	c-0.356,0.701-0.079,1.689-0.293,2.236c-0.024-0.049-0.049-0.098-0.073-0.146c0.033,1.392-0.73,2.226-1.614,2.896
	c0.024,0.098,0.049,0.196,0.073,0.293c0.087-0.01,0.046,0.008,0.147-0.037c0.042-0.184,0.08-0.189,0.183-0.293
	c0.11,0.012,0.22,0.024,0.33,0.037c0.074,0.073,0.147,0.146,0.221,0.22c0.013,0.439-0.149,0.714-0.44,0.843
	c-0.14,0.09-0.493,0.168-0.697,0.073c-0.457-0.18-0.456-0.564-0.66-0.99c-0.191-0.058-0.309-0.07-0.587-0.11
	c-0.024,0.012-0.049,0.024-0.073,0.037c0.192,0.276,0.266,0.56,0.22,0.917c-0.647,0.706-1.673,0.314-2.09-0.331
	c-0.159,0.049-0.258,0.093-0.426,0.092c0.223,0.125,0.179,0.442,0.023,0.642c-0.118,0.069-0.263,0.115-0.385,0.106
	c-0.408-0.149-0.378-0.312-0.312-0.766c-0.267,0.032-0.372-0.018-0.55-0.147c-0.008-0.013-0.012-0.058-0.034-0.091l-0.156,0.181
	c-0.308,0.674-1.637,1.278-2.121,0.314c0.026-0.312,0.096-0.595,0.257-0.844c-0.315-0.007-0.488,0.044-0.697,0.11
	c-0.147,0.565-0.274,1.065-0.99,1.063c-0.462-0.132-0.777-0.316-0.77-0.917c0.06-0.117,0.068-0.153,0.183-0.22
	c0.09-0.077,0.272-0.104,0.404-0.037c0.085,0.11,0.171,0.22,0.256,0.33c0-0.024,0-0.049,0-0.073c0.155-0.224,0.01-0.365-0.11-0.513
	c-0.799-0.296-1.442-1.631-1.393-2.604c-0.037,0.037-0.074,0.073-0.11,0.11c0.013-0.416,0.024-0.832,0.037-1.247
	C9.9,20.14,9.452,19.36,9.004,18.711c-0.582-0.844-2.204-1.637-1.54-3.337c0.024,0.122,0.049,0.244,0.073,0.367
	c0.012,0,0.024,0,0.037,0c-0.019-0.563-0.116-0.967-0.22-1.503c-0.095-0.488,0.154-0.993,0.33-1.247
	c1.111-1.606,2.641,0.362,3.667,0.55c-0.597-1.255,0.507-1.105,0.953-1.54c0.066-0.214-0.076-0.438-0.183-0.587
	c-0.208-0.098-0.37-0.186-0.578-0.284c0.129,0.164,0.228,0.213,0.268,0.437c0.003,0.007,0.006,0.014,0.007,0.021
	c0.002,0.009,0.002,0.021,0.002,0.034c0.003,0.023,0.005,0.049,0.007,0.076c-0.002,0-0.007,0-0.013,0.001
	c-0.006,0.056-0.015,0.109-0.015,0.109s-0.06,0.069-0.088,0.115c0.022,0.014-0.058,0.11-0.068,0.15c-0.36,0.244-0.705,0.255-1.063,0
	c-0.128-0.5-0.648-1.151-0.477-1.247c0.886-0.967,2.991-0.255,2.677,1.21c0.146,0.073,0.293,0.146,0.44,0.22
	c0.024-0.012,0.049-0.024,0.073-0.037c0.057-0.103,0.054-0.085,0.146-0.146c-0.355-1.536,0.575-2.505,2.053-1.907
	c0.018-0.612,0.208-1.034,0.514-1.393c0.381,0.265,0.481,0.812,0.586,1.356c0.512-0.33,1.5-0.254,1.833,0.146
	c0,0.012,0,0.024,0,0.037c-0.012,0-0.024,0-0.037,0c-0.073-0.037-0.146-0.073-0.22-0.11c-0.024-0.012-0.049-0.024-0.074-0.037
	c0,0.012,0,0.024,0,0.037c0.025,0,0.049,0,0.074,0c0.049,0.061,0.098,0.122,0.146,0.184c-0.061,0-0.123,0-0.183,0
	c0.164,0.068,0.199,0.118,0.256,0.293c-0.11-0.062-0.22-0.123-0.33-0.184c0.152,0.205,0.355,0.396,0.256,0.66
	c-0.012,0-0.024,0-0.037,0c-0.06-0.445-0.326-0.374-0.55-0.624c-0.024,0.024-0.049,0.049-0.073,0.073c0,0.012,0,0.025,0,0.037
	c0.312,0.031,0.463,0.182,0.514,0.477c-0.012,0-0.024,0-0.037,0c0-0.024,0-0.049,0-0.073c-0.14-0.123-0.37-0.449-0.587-0.257
	c0.138,0.007,0.313,0.054,0.403,0.22c0.079,0.101,0.1,0.307,0.11,0.476c-0.013,0-0.025,0-0.037,0
	c-0.039-0.318-0.147-0.452-0.404-0.55c0.116,0.11,0.159,0.232,0.22,0.44c0.012-0.061,0.024-0.122,0.037-0.183
	c0.067,0.237-0.011,0.514-0.11,0.66c-0.22,0.159-0.44,0.317-0.66,0.476c0,0.013,0,0.024,0,0.037c0.012,0,0.024,0,0.037,0
	c0.159-0.086,0.317-0.171,0.476-0.257c-0.093,0.17-0.277,0.268-0.476,0.33c0,0.012,0,0.024,0,0.037
	c0.297-0.041,0.436-0.155,0.623-0.293c-0.013,0.049-0.025,0.098-0.037,0.146c-0.171,0.098-0.342,0.196-0.513,0.293
	c0.22-0.11,0.439-0.22,0.66-0.33c-0.07,0.15-0.138,0.195-0.293,0.257c0,0.013,0,0.024,0,0.037c1.04-0.122,1.181-1.322,0.88-2.236
	c0.049,0.037,0.093,0.06,0.133,0.176c0.167,0.313,0.166,1.092-0.013,1.495c0.155,0.005,0.203,0.064,0.283,0.125
	c0.146-0.073,0.294-0.146,0.44-0.22c-0.433-1.44,1.814-2.179,2.676-1.247c-0.053,0.776-0.467,1.55-1.393,1.43
	c-0.032-0.052-0.065-0.104-0.098-0.156c-0.07-0.056-0.172-0.135-0.196-0.174c-0.028-0.046-0.046-0.193-0.028-0.257
	c0.006-0.019,0.016-0.04,0.028-0.061c0-0.017,0-0.033,0-0.049c0.083-0.201,0.165-0.262,0.293-0.403
	c-0.466,0.121-0.898,0.387-0.807,0.953c0.381,0.034,0.664,0.171,0.917,0.33c0.117,0.338,0.205,0.77,0.037,1.137
	c1.01-0.375,2.572-2.115,3.667-0.623C24.581,13.048,24.813,13.509,24.734,13.981z M17.988,10.498
	c0.012-0.012,0.024-0.024,0.037-0.037c-0.074-0.037-0.147-0.073-0.221-0.11c-0.012,0.024-0.024,0.049-0.036,0.073
	C17.841,10.449,17.914,10.473,17.988,10.498z M24.587,15.888c-0.049-0.012-0.098-0.024-0.147-0.037
	c0.049,0.073,0.098,0.146,0.147,0.22C24.587,16.01,24.587,15.949,24.587,15.888z M24.221,17.098
	c0.024-0.012,0.049-0.024,0.073-0.037c0.032-0.159-0.003-0.301,0.037-0.44c0.037,0.062,0.073,0.123,0.11,0.184
	c0-0.024,0-0.049,0-0.073c-0.012-0.11-0.024-0.22-0.037-0.33c0.012,0,0.024,0,0.037,0c0.024,0.049,0.049,0.098,0.073,0.147
	c0-0.061,0-0.122,0-0.184c-0.172-0.421-0.243-0.615-0.88-0.586c-0.085,0.049-0.171,0.098-0.256,0.146
	c0.024,0.11,0.049,0.22,0.073,0.33C23.914,16.39,24.237,16.47,24.221,17.098z M21.324,15.154c0.47-0.179,0.443-0.608,0.733-0.954
	c0.013,0.061,0.025,0.122,0.037,0.184c0.012-0.135,0.024-0.269,0.036-0.403c-0.073,0-0.146,0-0.22,0
	C21.953,14.504,21.613,14.851,21.324,15.154z M21.397,14.091c-0.048,0.078-0.045,0.053-0.073,0.183c0.012,0,0.024,0,0.037,0
	c0-0.024,0-0.049,0-0.073C21.411,14.122,21.428,14.181,21.397,14.091z M21.288,14.751c0.012,0,0.024,0,0.037,0
	c0-0.024,0-0.049,0-0.073c0.144-0.115,0.355-0.469,0.293-0.66C21.491,14.297,21.313,14.377,21.288,14.751z M21.397,15.447
	c0.117-0.124,0.667-0.632,0.55-0.806c-0.17,0.332-0.432,0.467-0.697,0.696c0.012,0.049,0.024,0.098,0.037,0.146
	C21.324,15.472,21.361,15.459,21.397,15.447z M21.288,15.667c0.049-0.024,0.098-0.049,0.146-0.074
	c0.268-0.073,0.675-0.448,0.55-0.77C21.825,15.208,21.439,15.33,21.288,15.667z M21.288,15.007c0.248-0.063,0.656-0.832,0.513-0.99
	C21.678,14.413,21.377,14.647,21.288,15.007z M21.581,15.778c0.224-0.086,0.647-0.514,0.477-0.733
	c-0.097,0.351-0.388,0.63-0.77,0.696c0.012,0.11,0.024,0.22,0.037,0.33c0.037,0,0.073,0,0.11,0c0.413-0.156,0.785-0.412,0.843-0.917
	c-0.024-0.012-0.048-0.024-0.073-0.037c-0.072,0.363-0.37,0.661-0.697,0.77C21.532,15.851,21.556,15.814,21.581,15.778z
	 M21.324,16.217c-0.037,0.819-0.073,1.638-0.11,2.457c0.025-0.012,0.049-0.024,0.074-0.037c0.115-0.624,0.586-1.942,1.136-2.163
	c0.476,0.029,0.672,0.227,0.807,0.587c0.037-0.012,0.073-0.024,0.11-0.037c0.098-0.208,0.195-0.415,0.293-0.623
	c-0.024,0-0.049,0-0.073,0c-0.153-0.107-0.186-0.141-0.293-0.293c0.024-0.085,0.049-0.171,0.073-0.256
	c0.11-0.049,0.22-0.098,0.33-0.146c-0.012-0.074-0.024-0.147-0.037-0.221c-0.511,0.077-0.909-0.036-1.283-0.146
	C22.163,15.832,21.864,16.081,21.324,16.217z M23.487,17.391c0.134-0.067,0.201-0.147,0.22-0.22
	C23.634,17.244,23.561,17.317,23.487,17.391z M23.744,16.474c-0.012,0.037-0.024,0.074-0.037,0.11
	C23.757,16.505,23.774,16.564,23.744,16.474z M23.67,16.987c-0.098,0.098-0.195,0.196-0.293,0.293
	C23.513,17.255,23.755,17.085,23.67,16.987z M23.414,17.098c0.17-0.071,0.291-0.246,0.256-0.403
	c-0.122,0.159-0.244,0.318-0.366,0.477C23.341,17.146,23.377,17.122,23.414,17.098z M24,16.951
	c-0.012,0.049-0.024,0.098-0.037,0.147C24.02,17.014,24.031,17.053,24,16.951z M21.911,21.718c0.043-0.426-0.254-0.646-0.216-0.697
	c0.046-0.101,0.147,0.174,0.179,0.055c0.024-0.09-0.194-0.281-0.147-0.385c0.029-0.069,0.155,0.179,0.179,0.151
	c0.042-0.128-0.147-0.312-0.105-0.371c0.03-0.05,0.13,0.151,0.147,0.11c0.044-0.085-0.123-0.299-0.074-0.367
	c0.012,0,0.024,0,0.037,0c0.07,0.139,0.016,0.075,0.11,0.11c0.058-0.473,0.363-0.573,0.256-1.026
	c0.109,0.084,0.085,0.088,0.184,0.11c0.012-0.11,0.024-0.22,0.036-0.33c0.025,0.037,0.049,0.073,0.074,0.11
	c0.037-0.073,0.073-0.146,0.11-0.22c-0.024-0.073-0.049-0.146-0.073-0.22c0.132,0.036,0.103,0.046,0.22,0.037
	c0-0.012,0-0.024,0-0.037c-0.049-0.061-0.098-0.122-0.146-0.183c0.012-0.012,0.024-0.025,0.037-0.037
	c0.061,0.037,0.122,0.073,0.183,0.109c-0.012-0.073-0.024-0.146-0.037-0.22c0.037,0.024,0.073,0.049,0.11,0.073
	c-0.012-0.098-0.024-0.196-0.037-0.293c0.012,0,0.025,0,0.037,0c0.024,0.085,0.049,0.171,0.073,0.257c0-0.024,0-0.048,0-0.073
	c0.072-0.113,0.035-0.211,0-0.403c0.013,0,0.024,0,0.037,0c0.037,0.073,0.073,0.146,0.11,0.22c0.025-0.012,0.049-0.024,0.074-0.037
	c-0.012-0.134-0.024-0.269-0.037-0.403c0.012,0,0.024,0,0.037,0c0.059,0.136,0.053,0.016,0.22,0.146
	c0.055-0.265,0.245-0.191,0.44-0.44c-0.16,0-0.318,0-0.477,0c-0.291-0.174-0.467-0.61-0.66-0.879c-0.11-0.012-0.22-0.025-0.33-0.037
	c-0.049,0.037-0.098,0.073-0.147,0.109c0.035,0.054,0.117,0.057,0.037,0.074c-0.085,0.049-0.171,0.098-0.256,0.146
	c0.159,0,0.317,0,0.477,0c0,0.012,0,0.024,0,0.037c-0.171,0.024-0.342,0.049-0.514,0.073c0,0.012,0,0.025,0,0.037
	c0.073,0,0.147,0,0.22,0c-0.012,0.025-0.024,0.049-0.036,0.074c-0.132,0.032-0.32,0.141-0.33,0.403
	c0.073,0.012,0.486-0.058,0.458,0.055c-0.291,0.003-0.447,0.022-0.532,0.166c0.053,0.049,0.152,0.027,0.111,0.11
	c-0.211,0.039-0.182,0.059-0.257,0.22c0.198,0.614-1.569,1.902-1.283,2.97c0.024-0.037,0.049-0.074,0.073-0.11
	c-0.022-0.105-0.098-0.06,0-0.11c0.438-0.253,1.316,0.512,1.394,0.917C21.886,21.718,21.898,21.718,21.911,21.718z M20.297,21.644
	c0.024,0,0.049,0,0.073,0c0.352,0.123,0.583,0.263,0.807,0.477c0-0.024,0-0.049,0-0.073c0.104-0.232-0.026-0.534-0.111-0.696
	c-0.334,0.032-0.442-0.107-0.733-0.184c-0.085,0.146-0.171,0.293-0.257,0.44c0.037,0,0.073,0,0.11,0
	c0.024-0.012,0.049-0.025,0.073-0.037c0.048-0.189,0.066-0.239,0.257-0.293c0,0.012,0,0.024,0,0.037
	C20.444,21.424,20.371,21.534,20.297,21.644z M21.031,21.241c-0.098-0.098-0.196-0.195-0.293-0.293
	C20.789,21.138,20.853,21.181,21.031,21.241z M21.251,22.194c0.037,0.037,0.073,0.074,0.11,0.11c0.012,0,0.024,0,0.037,0
	c0-0.049,0-0.098,0-0.146c-0.024-0.024-0.049-0.049-0.073-0.073C21.3,22.121,21.243,22.13,21.251,22.194z M21.544,22.561
	c0.037-0.025,0.073-0.049,0.11-0.074c0.069-0.331,0.164-0.688-0.037-0.953C21.68,21.957,21.652,22.228,21.544,22.561z
	 M21.581,22.304c-0.04-0.231-0.012-0.587-0.146-0.807c0.031,0.308,0,0.714,0.037,0.954C21.507,22.402,21.544,22.353,21.581,22.304z
	 M21.801,22.34c-0.074,0.099-0.147,0.196-0.22,0.294c0.049,0.073,0.098,0.146,0.146,0.22c0-0.024,0-0.049,0-0.073
	C21.811,22.674,21.874,22.498,21.801,22.34z M21.434,23.074c-0.037-0.098-0.073-0.196-0.11-0.293c0,0.11,0,0.22,0,0.33
	C21.361,23.099,21.397,23.086,21.434,23.074z M21.324,23.221c0,0.037,0,0.073,0,0.11c0.012-0.037,0.024-0.073,0.037-0.11
	C21.349,23.221,21.336,23.221,21.324,23.221z M21.507,23.221c-0.061,0.098-0.122,0.195-0.183,0.293c-0.012,0-0.024,0-0.037,0
	c0-0.049,0-0.098,0-0.146c-0.012,0.036-0.024,0.073-0.037,0.11c0.024,0.036,0.049,0.073,0.073,0.109
	c0.024-0.012,0.049-0.024,0.073-0.036c0.061-0.086,0.122-0.171,0.183-0.257c0.043-0.857-0.754-1.627-1.687-1.613
	c-0.098,0.073-0.196,0.146-0.293,0.22c0,0.098,0,0.195,0,0.293c0.012,0,0.024,0,0.037,0c0.111-0.143,0.147-0.178,0.331-0.256
	c0.243,0.026,0.496,0.122,0.586,0.22c0.037,0.049,0.073,0.098,0.11,0.146c0.099-0.014,0.567,0.267,0.587,0.293
	C21.417,22.735,21.499,22.922,21.507,23.221z M20.114,23.514c0-0.012,0-0.024,0-0.036c-0.017-0.146,0.232-0.226,0.183-0.367
	c-0.073,0.061-0.147,0.122-0.22,0.183c-0.001,0.24,0.031,0.327,0.147,0.44c0.012,0,0.024,0,0.037,0c0-0.012,0-0.025,0-0.038
	c-0.095-0.188-0.036-0.334,0.293-0.366c0-0.012,0-0.024,0-0.037C20.286,23.234,20.24,23.394,20.114,23.514z M20.518,23.221
	c0-0.012,0-0.024,0-0.037c-0.049-0.024-0.098-0.049-0.147-0.073C20.442,23.248,20.354,23.171,20.518,23.221z M20.334,23.514
	c0.037-0.024,0.073-0.049,0.11-0.073c-0.025,0-0.049,0-0.074,0C20.358,23.465,20.346,23.49,20.334,23.514z M20.444,23.624
	c-0.037,0.037-0.074,0.073-0.11,0.11c0.024,0.024,0.049,0.049,0.073,0.073c0.081-0.076,0.069-0.051,0.11-0.184
	C20.493,23.624,20.469,23.624,20.444,23.624z M20.334,23.881c-0.195-0.058-0.263-0.104-0.33-0.294
	c-0.083-0.185-0.003-0.322,0.073-0.439c0.098-0.037,0.196-0.073,0.293-0.11c0.184,0.061,0.367,0.122,0.55,0.183
	c0.024-0.024,0.049-0.049,0.073-0.073c-0.012-0.11-0.024-0.22-0.037-0.33c-0.104-0.26-0.327-0.446-0.55-0.587
	c-0.046,0.21-0.081,0.286-0.257,0.367c-0.223,0.061-0.322-0.019-0.513-0.073c-0.412,0.567-0.999,0.745-1.503,1.21
	c0.826-0.021,1.415,0.114,1.943,0.366c0.086-0.061,0.171-0.122,0.257-0.183C20.334,23.905,20.334,23.893,20.334,23.881z
	 M20.15,22.414c0-0.012,0-0.024,0-0.037c-0.024-0.086-0.048-0.171-0.073-0.257c-0.012,0.098-0.024,0.195-0.036,0.293
	c-0.037-0.024-0.073-0.049-0.11-0.074c-0.041-0.04-0.069,0.034-0.22-0.073c-0.011,0.067,0.023,0.177,0.101,0.215
	C19.908,22.542,20.073,22.506,20.15,22.414z M21.031,22.708c0.049,0.098,0.098,0.195,0.147,0.293c0-0.061,0-0.122,0-0.183
	C21.129,22.781,21.08,22.744,21.031,22.708z M21.067,23.257c-0.012,0.024-0.024,0.049-0.036,0.073
	c0.036,0.025,0.074,0.049,0.11,0.073c0.024-0.048,0.049-0.097,0.073-0.146C21.165,23.257,21.116,23.257,21.067,23.257z
	 M20.188,25.971c0.71,0.046,1.253-0.469,0.843-1.027c-0.037-0.012-0.074-0.024-0.11-0.037c-0.126,0.06-0.178,0.032-0.256,0.147
	c-0.074,0.138-0.085,0.23-0.073,0.366c-0.351,0.064-0.372,0.234-0.733,0.22C19.956,25.78,20.073,25.853,20.188,25.971z
	 M19.784,25.201c0.024-0.012,0.049-0.024,0.073-0.037c0-0.085,0-0.171,0-0.257c0.012,0,0.024,0,0.037,0
	c-0.005,0.286,0.043,0.438,0.11,0.623c0.012,0,0.024,0,0.037,0c-0.042-0.256-0.064-0.456-0.037-0.733c0.012,0,0.024,0,0.037,0
	c-0.008,0.26,0.009,0.492,0.073,0.66c0.049,0,0.098,0,0.146,0c0-0.012,0-0.024,0-0.037c-0.124-0.25-0.229-0.581,0-0.807
	c-0.069,0.229-0.068,0.432,0,0.66c0.012,0,0.024,0,0.037,0c-0.03-0.299,0.005-0.463,0.147-0.66c0.53-0.207,1.161-0.847,0.439-1.283
	c-0.049,0-0.098,0-0.146,0c-0.088,0.808-0.986,0.783-1.063,1.613C19.757,25.062,19.77,24.947,19.784,25.201z M19.784,24.395
	c0.012,0,0.024,0,0.036,0c-0.05-0.149-0.036-0.109-0.146-0.184C19.71,24.272,19.747,24.333,19.784,24.395z M19.234,24.21
	c0.101,0.137,0.31,0.191,0.513,0.22c-0.024-0.036-0.049-0.074-0.073-0.11C19.527,24.284,19.381,24.247,19.234,24.21z M18.611,26.044
	c0.012,0,0.024,0,0.037,0c0.116-0.094,0.153-0.139,0.183-0.33c0.093,0.09,0.02,0.044,0.11,0.073
	c-0.012-0.171-0.024-0.342-0.037-0.514c-0.089-0.222-0.201-0.408-0.403-0.477c-0.123,0-0.239,0.006-0.373,0.037
	c-0.098,0.102-0.13,0.18-0.14,0.293c0.152,0.169,0.19,0.277,0.513,0.293c-0.016,0.157-0.034,0.386-0.11,0.55
	c0.098-0.085,0.196-0.171,0.293-0.256C18.66,25.824,18.635,25.934,18.611,26.044z M18.317,25.677
	c0.012-0.012,0.024-0.025,0.037-0.037c0-0.049,0-0.098,0-0.146c-0.085-0.025-0.171-0.049-0.257-0.074
	C18.128,25.623,18.136,25.627,18.317,25.677z M17.768,26.117c0.217,0.035,0.298,0.053,0.403-0.11c-0.155,0.078-0.242,0.071-0.403,0
	C17.768,26.044,17.768,26.081,17.768,26.117z M17.511,25.934c-0.107-0.177-0.217-0.288-0.256-0.55
	c0.141,0.136,0.493,0.491,0.917,0.55c-0.138-0.125-0.263-0.161-0.367-0.33c0.013-0.013,0.024-0.025,0.037-0.037
	c0.085,0.061,0.171,0.123,0.256,0.184c-0.127-0.267-0.378-0.806,0-0.99c0.494-0.129,1.005,0.216,1.467,0.11
	c-0.244-0.098-0.489-0.196-0.733-0.293c0.024-0.013,0.049-0.025,0.073-0.037c0.22,0.061,0.44,0.122,0.66,0.183
	c0.012-0.024,0.024-0.049,0.037-0.073c-0.024-0.025-0.049-0.049-0.073-0.073c-0.244-0.061-0.489-0.122-0.733-0.183
	c0.322-0.057,0.612,0.086,0.88,0.183c0-0.013,0-0.025,0-0.037c-0.17-0.154-0.983-0.303-0.88-0.477
	c0.195,0.037,0.392,0.073,0.587,0.11c-0.066-0.075,0-0.026-0.11-0.073c0-0.012,0-0.024,0-0.037c0.232,0.049,0.464,0.098,0.697,0.146
	c0-0.012,0-0.024,0-0.037c-0.436-0.324-1.159-0.333-1.797-0.366c-0.165,0.26-0.226,0.433-0.66,0.439
	c0.024,0.16,0.049,0.318,0.073,0.477c-0.172,0.195-0.286,0.275-0.587,0.256C17.144,25.364,17.133,25.709,17.511,25.934z
	 M17.841,23.478c-0.12-0.052-0.303-0.08-0.41-0.013c-0.107,0.131-0.141,0.142-0.168,0.376c-0.006,0.149,0.092,0.263,0.205,0.293
	c0.119,0.052,0.265,0.022,0.446-0.144C18.035,23.815,18.008,23.559,17.841,23.478z M17.453,24.651
	c0.06-0.182,0.005-0.298-0.088-0.404c-0.058-0.04-0.162-0.064-0.235-0.076c-0.153,0-0.309,0.076-0.37,0.327
	c-0.009,0.043,0.006,0.104,0.006,0.116c0.061,0.086,0.098,0.135,0.159,0.22C17.057,24.933,17.352,24.941,17.453,24.651z
	 M15.207,24.085c0.483,0.075,0.448,0.314,0.456,0.565c0.049,0.012,0.113,0.061,0.162,0.073c-0.046-0.156-0.046-0.309,0-0.44
	c-0.253-0.076-0.358-0.2-0.513-0.366C15.287,23.979,15.265,24.052,15.207,24.085z M15.261,23.688
	c-0.104-0.209-0.245-0.287-0.416-0.344c-0.119-0.008-0.205,0.065-0.285,0.229c-0.001,0.17-0.063,0.195,0.063,0.395
	c0.089,0.062,0.227,0.13,0.337,0.106C15.083,24.049,15.224,23.931,15.261,23.688z M15.458,23.917c0.052,0.093,0.13,0.15,0.367,0.22
	c-0.024-0.061-0.049-0.122-0.074-0.183c0.142,0.076,0.105,0.166,0.22,0.073c0.128-0.06,0.081-0.036,0.146-0.146
	c0.049-0.115,0.04-0.241-0.07-0.431c-0.08-0.067-0.25-0.119-0.407-0.046C15.496,23.531,15.323,23.726,15.458,23.917z M16.142,24.171
	c-0.162-0.018-0.218,0.073-0.25,0.195c-0.021,0.143,0.006,0.247,0.03,0.389c0.049,0.067,0.096,0.118,0.273,0.163
	c0.177-0.013,0.288-0.146,0.335-0.335c0.026-0.143-0.03-0.208-0.098-0.303C16.337,24.23,16.255,24.176,16.142,24.171z
	 M16.279,25.031c0.016-0.074-0.11-0.006-0.143-0.042c0.052,0.181,0.029,0.312-0.019,0.468c0.062,0.012,0.083,0,0.144,0.012
	c0-0.012,0.046-0.006,0.046-0.018C16.245,25.349,16.254,25.147,16.279,25.031z M16.558,24.797c0.061,0,0.122,0,0.183,0
	c-0.024-0.184-0.034-0.337-0.059-0.521c-0.049-0.012-0.112-0.054-0.161-0.066c0.037,0.049,0.067,0.156,0.104,0.205
	C16.637,24.602,16.628,24.672,16.558,24.797z M16.337,23.917c0.081,0.127,0.089,0.167,0.257,0.22
	c-0.012-0.037-0.024-0.073-0.037-0.11c0.094,0.055,0.091,0.054,0.146,0.146c0.185-0.041,0.213-0.103,0.33-0.22
	c0.048-0.145,0.008-0.273-0.116-0.456c-0.024-0.012-0.08-0.046-0.104-0.058c-0.085-0.04-0.162-0.067-0.271-0.027
	c-0.077,0.061-0.129,0.113-0.178,0.174C16.307,23.674,16.301,23.791,16.337,23.917z M16.885,25.387
	c0.09-0.203,0.036-0.323-0.051-0.44c-0.017-0.014-0.091-0.029-0.101-0.034c-0.068-0.034-0.186-0.031-0.251,0.003
	c-0.206,0.178-0.187,0.442,0.048,0.589C16.604,25.524,16.785,25.544,16.885,25.387z M15.963,26.062
	c0.023,0.045,0.024,0.083,0.086,0.137c0.125,0.059,0.193,0.07,0.317,0.043c0.107-0.046,0.112-0.047,0.172-0.137
	c0.023-0.08,0.067-0.122,0.047-0.227c-0.098-0.237-0.2-0.287-0.494-0.288c-0.073,0.062-0.083,0.046-0.137,0.138
	C15.899,25.826,15.915,25.949,15.963,26.062z M15.54,25.513c0.012,0,0.073,0,0.084,0c-0.04-0.037-0.117-0.112-0.099-0.124
	c0.032-0.012,0.133,0.11,0.189,0.112c0.112,0.003,0.224,0.008,0.303-0.102c0.049-0.09,0.061-0.196,0.052-0.3
	c-0.025-0.125-0.152-0.255-0.38-0.29c-0.079-0.011-0.186,0.014-0.256,0.101c-0.056,0.059-0.082,0.167-0.079,0.313
	C15.368,25.325,15.416,25.428,15.54,25.513z M15.549,24.669c0.012-0.085-0.03-0.211-0.018-0.297
	c-0.056-0.127-0.178-0.151-0.33-0.198c-0.162,0.037-0.236,0.111-0.288,0.214c0.002,0.238-0.021,0.27,0.104,0.373
	c0.012,0,0.025,0,0.037,0c0-0.012,0-0.024,0-0.037c-0.024-0.049-0.049-0.098-0.073-0.146c0.085,0.073,0.17,0.254,0.331,0.25
	C15.396,24.724,15.439,24.689,15.549,24.669z M13.991,26.154c0.159,0.138,0.446-0.054,0.367-0.11c-0.134,0.106-0.31,0.07-0.44,0.11
	C13.942,26.154,13.966,26.154,13.991,26.154z M13.881,25.751c0.049-0.074,0.098-0.147,0.146-0.221
	c-0.024-0.012-0.049-0.024-0.073-0.036c-0.08,0.064-0.098,0.064-0.257,0.073c0.012,0.061,0.024,0.123,0.037,0.184
	C13.783,25.751,13.832,25.751,13.881,25.751z M13.221,25.934c0.016-0.096-0.036-0.02,0.037-0.11c0.041,0.189,0.094,0.235,0.22,0.33
	c-0.024-0.11-0.049-0.22-0.073-0.33c0.012,0,0.024,0,0.037,0c0.055,0.17,0.103,0.135,0.256,0.22c-0.077-0.161-0.112-0.281-0.11-0.55
	c0.085-0.013,0.171-0.025,0.256-0.037c0.086-0.085,0.171-0.171,0.257-0.256c-0.026-0.19-0.046-0.219-0.184-0.293
	c-0.098,0-0.196,0-0.293,0C13.355,25.001,12.899,25.538,13.221,25.934z M12.414,24.688c0.012,0,0.024,0,0.037,0
	c0.257-0.15,0.544-0.244,0.88-0.22c0,0.012,0,0.024,0,0.036c-0.292,0.042-0.687,0.103-0.844,0.293
	c0.024,0.024,0.049,0.049,0.074,0.073c0.174-0.092,0.432-0.274,0.624-0.22c0.024,0,0.049,0,0.073,0
	c-0.012,0.024-0.024,0.049-0.037,0.073c-0.286,0.033-0.571,0.133-0.697,0.33c0.438-0.18,1.256-0.356,1.65-0.11
	c0.033,0.374-0.057,0.59-0.184,0.88c0.098-0.061,0.196-0.123,0.293-0.184c-0.07,0.216-0.212,0.245-0.367,0.367
	c0.442-0.092,0.743-0.39,0.917-0.55c-0.05,0.262-0.133,0.321-0.22,0.514c0.037-0.024,0.073-0.049,0.11-0.073
	c0.116-0.231,0.19-0.396,0.334-0.626l0.193-0.234c0.007-0.045,0.016-0.09,0.029-0.132c-0.238-0.001-0.325-0.064-0.41-0.217
	c-0.05-0.092,0.015-0.42,0-0.44c-0.386-0.517-2.344-0.4-2.75,0.073c0,0.012,0,0.025,0,0.037c0.256-0.073,0.513-0.146,0.77-0.22
	c0,0.012,0,0.024,0,0.037c-0.024,0-0.049,0-0.073,0c-0.049,0.024-0.098,0.049-0.146,0.073c0,0.012,0,0.025,0,0.037
	c0.012,0,0.024,0,0.037,0c0.172-0.061,0.488-0.142,0.66-0.073c-0.16,0.009-0.784,0.284-0.954,0.44
	C12.414,24.663,12.414,24.675,12.414,24.688z M11.974,22.23c-0.004,0.163-0.066,0.252,0.037,0.294
	c0.073,0.059,0.051,0.047,0.184,0.073c0.084-0.073,0.122-0.076,0.183-0.183c-0.164,0.06-0.155,0.037-0.202,0.037
	c-0.037,0.024-0.092,0.048-0.128,0.073c-0.012,0-0.024,0-0.037,0C12.022,22.345,12.05,22.344,11.974,22.23z M12.011,22.781
	c-0.153-0.121-0.25-0.301-0.403-0.403c-0.159,0.184-0.317,0.367-0.477,0.55c0,0.135,0,0.269,0,0.403
	c0.024,0.012,0.049,0.025,0.074,0.037c0.159-0.074,0.317-0.147,0.476-0.22c0.172,0.063,0.316,0.104,0.403,0.256
	c0.012,0.086,0.024,0.171,0.037,0.257c-0.089,0.202-0.181,0.327-0.404,0.293c0.037,0.049,0.074,0.098,0.11,0.146
	c0.062,0.037,0.123,0.073,0.184,0.11c0.281-0.11,0.563-0.22,0.843-0.33c0.367-0.037,0.733-0.073,1.1-0.11
	c-0.687-0.218-1.044-0.739-1.54-1.137C12.28,22.683,12.146,22.732,12.011,22.781z M11.827,23.844
	c0.049-0.024,0.098-0.049,0.147-0.073c0.012-0.062,0.024-0.123,0.037-0.184c-0.13,0.019-0.257-0.141-0.289-0.091
	c-0.017,0.061,0.09,0.099,0.215,0.165C11.901,23.722,11.864,23.783,11.827,23.844z M11.681,23.771c-0.037,0-0.073,0-0.11,0
	c0.012,0.049,0.024,0.098,0.037,0.146c0.049-0.012,0.098-0.024,0.146-0.037C11.729,23.844,11.705,23.808,11.681,23.771z
	 M12.011,23.551c-0.012-0.073-0.024-0.147-0.037-0.22c-0.024-0.012-0.049-0.024-0.073-0.037c-0.11-0.012-0.22-0.024-0.33-0.037
	C11.661,23.337,11.875,23.459,12.011,23.551z M12.231,24.431c0.012,0.012,0.024,0.025,0.037,0.037
	c0.037-0.037,0.197-0.073,0.174-0.106c-0.027-0.042-0.114,0.014-0.151,0.014C12.278,24.4,12.243,24.407,12.231,24.431z
	 M12.341,24.541c0.038,0.067,0.379-0.15,0.586-0.211c0-0.012,0.055-0.029,0.055-0.041c-0.035-0.046-0.185,0.027-0.293,0.064
	C12.567,24.426,12.303,24.509,12.341,24.541z M11.498,25.53c-0.004-0.132-0.03-0.319-0.132-0.425
	c-0.112-0.059-0.173-0.051-0.272-0.051c-0.061,0.061-0.122,0.122-0.183,0.183c-0.006,0.384,0.106,0.521,0.256,0.733
	c0.208,0.049,0.416,0.098,0.624,0.146c0.186-0.114,0.33-0.131,0.403-0.366C11.873,25.776,11.795,25.624,11.498,25.53z
	 M11.791,25.384c0.024-0.012,0.049-0.025,0.073-0.037c0-0.183,0-0.367,0-0.55c0.024,0.012,0.049,0.024,0.073,0.037
	c0.05,0.309,0.005,0.485-0.11,0.696c0.025,0.025,0.049,0.049,0.074,0.074c0.037-0.025,0.073-0.049,0.11-0.074
	c0.024-0.207,0.049-0.415,0.073-0.623c0,0.22,0,0.44,0,0.66c0.024-0.012,0.049-0.025,0.073-0.037
	c0.024-0.171,0.049-0.342,0.074-0.513c0.007,0.158,0.009,0.177,0.073,0.257c0.104-0.951-0.329-0.722-0.807-1.356
	c-0.073-0.159-0.146-0.318-0.22-0.477c-0.258,0.149-0.418,0.233-0.44,0.624C11.179,24.513,11.868,24.638,11.791,25.384z
	 M10.874,23.368c0,0.048,0,0.097,0,0.146c0.134-0.039,0.108-0.029,0.183-0.11C10.996,23.392,10.935,23.379,10.874,23.368z
	 M10.984,23.111c-0.012-0.049-0.024-0.098-0.037-0.147c-0.012,0.061-0.024,0.123-0.037,0.184
	C10.935,23.135,10.96,23.123,10.984,23.111z M10.508,23.44c0.085,0.098,0.171,0.195,0.256,0.294c0.012,0,0.024,0,0.037,0
	c0.012-0.038,0.024-0.074,0.037-0.11c-0.012-0.037-0.024-0.073-0.037-0.11c-0.012,0-0.024,0-0.037,0
	c0.012,0.037,0.024,0.073,0.037,0.11c-0.201-0.065-0.228-0.173-0.22-0.44c0.073-0.159,0.146-0.318,0.22-0.477
	c0.248-0.08,0.296-0.069,0.587-0.367c-0.049,0.086-0.098,0.172-0.146,0.257c0.473-0.362,0.457-0.696,1.246-0.33
	c0-0.062,0-0.123,0-0.184c-0.121-0.212-0.216-0.218-0.477-0.293C11.348,22.071,10.328,22.486,10.508,23.44z M10.764,23.184
	c-0.012-0.085-0.024-0.171-0.037-0.257c-0.024,0.098-0.049,0.196-0.073,0.293c0.012,0,0.024,0,0.037,0
	C10.715,23.208,10.74,23.196,10.764,23.184z M10.984,21.57c-0.109,0.176-0.126,0.456-0.073,0.697c0.012,0,0.024,0,0.037,0
	c0.282-0.184,0.563-0.367,0.844-0.55c-0.153-0.075-0.185-0.14-0.22-0.331c0.209,0.073,0.194,0.199,0.33,0.331
	c-0.023-0.206-0.092-0.369-0.257-0.44C11.46,21.463,11.135,21.437,10.984,21.57z M11.314,21.241c0-0.061,0-0.122,0-0.183
	c-0.061,0.098-0.122,0.195-0.184,0.293C11.192,21.314,11.253,21.277,11.314,21.241z M10.837,22.34
	c-0.024-0.037-0.049-0.073-0.073-0.11c-0.024,0-0.049,0-0.073,0c0,0.073,0,0.147,0,0.221c0.012,0,0.024,0,0.037,0
	C10.764,22.414,10.801,22.377,10.837,22.34z M10.581,22.597c0.012,0,0.024,0,0.037,0c0.011-0.114,0.025-0.148-0.037-0.257
	c0-0.171,0-0.342,0-0.513C10.511,22.125,10.489,22.297,10.581,22.597z M10.435,21.681c-0.134,0.32-0.137,0.813,0.11,1.026
	C10.448,22.406,10.515,21.981,10.435,21.681z M10.654,21.718c0.012-0.049,0.024-0.099,0.037-0.147
	c-0.012-0.012-0.024-0.024-0.037-0.036c-0.012,0.061-0.024,0.122-0.037,0.184C10.63,21.718,10.642,21.718,10.654,21.718z M10.361,23
	c0.024-0.012,0.049-0.024,0.074-0.037c0.024-0.073,0.049-0.146,0.073-0.22c-0.086-0.074-0.171-0.147-0.257-0.22
	C10.288,22.683,10.324,22.842,10.361,23z M8.454,17.941c0.149-0.026,0.043-0.074,0.147,0.037c0.001,0.112-0.035,0.051,0.037,0.146
	c0-0.024,0-0.049,0-0.073c0.037-0.049,0.073-0.098,0.11-0.146c0.037,0.159,0.073,0.317,0.11,0.477
	c0.037-0.025,0.073-0.049,0.11-0.074c0.024-0.085,0.049-0.171,0.073-0.256c0.013,0,0.024,0,0.037,0
	c-0.037,0.134-0.073,0.269-0.11,0.403c0.037,0.049,0.073,0.098,0.11,0.146c0.012-0.073,0.025-0.146,0.037-0.22
	c0.013,0,0.024,0,0.037,0c0,0.098,0,0.195,0,0.293c0.037-0.049,0.073-0.098,0.11-0.146c-0.037,0.085-0.073,0.171-0.11,0.256
	c0.085-0.037,0.171-0.073,0.256-0.11c0,0.037,0,0.073,0,0.11c-0.097,0.073-0.072,0.041-0.11,0.183
	c0.061-0.012,0.108-0.088,0.183-0.037c-0.069,0.206-0.037,0.21,0.037,0.403c0.037-0.037,0.037-0.174,0.11-0.11c0,0.11,0,0.22,0,0.33
	c0.086-0.01,0.05-0.115,0.147-0.037c-0.044,0.295,0.186,0.718,0.33,0.991c0.037-0.049,0.037-0.208,0.11-0.147
	c-0.024,0.122-0.049,0.245-0.073,0.367c0.049-0.037,0.093-0.188,0.146-0.11c-0.037,0.11-0.073,0.22-0.11,0.33
	c0.012,0,0.024,0,0.037,0c0.049-0.037,0.084-0.183,0.146-0.11c-0.049,0.134-0.098,0.269-0.146,0.403
	c0.049-0.024,0.093-0.126,0.146-0.073c-0.113,0.143-0.157,0.395-0.183,0.697c0.012,0,0.024,0,0.037,0
	c0.11-0.523,0.849-1.044,1.466-0.954c0,0.073,0,0.147,0,0.22c0.065-0.267,0.085-0.374,0.037-0.697
	c-0.299-0.128-0.304-0.552-0.697-0.623c0.091-0.191-0.694-1.805-0.879-1.833c0.086-0.131,0.09-0.075,0.073-0.256
	c-0.158-0.008-0.177-0.01-0.257-0.074c0.191-0.016,0.146,0.024,0.22-0.11c-0.18-0.213-0.18-0.174-0.367-0.366
	c0.074,0.012,0.147,0.024,0.22,0.037c-0.124-0.126-0.293-0.107-0.477-0.184c0.024,0,0.049,0,0.073,0c0.122,0,0.245,0,0.367,0
	c-0.11-0.049-0.22-0.098-0.33-0.146c0.049-0.024,0.098-0.049,0.146-0.073c-0.098-0.037-0.195-0.073-0.293-0.11
	c-0.073,0.024-0.146,0.049-0.22,0.073c-0.22,0.306-0.44,0.611-0.66,0.917c-0.159-0.012-0.318-0.024-0.477-0.037
	C8.259,17.746,8.356,17.843,8.454,17.941z M10.397,14.164c0.073,0.268,0.222,0.566,0.403,0.733c0.012-0.061,0.024-0.122,0.037-0.183
	C10.691,14.531,10.544,14.347,10.397,14.164z M10.801,14.458c-0.048-0.126-0.037-0.151-0.146-0.22
	C10.703,14.311,10.752,14.384,10.801,14.458z M10.764,15.851c-0.482-0.071-0.515-0.42-0.807-0.66c0.07,0.408,0.297,0.523,0.513,0.77
	c-0.287-0.1-0.521-0.375-0.586-0.697c-0.024,0.012-0.049,0.024-0.074,0.037c-0.012,0.024-0.024,0.049-0.036,0.073
	c0.208,0.446,0.47,0.744,0.99,0.88C10.764,16.12,10.764,15.985,10.764,15.851z M10.801,15.814c-0.091-0.238-0.613-0.566-0.77-0.88
	C10.077,15.402,10.39,15.709,10.801,15.814z M9.994,14.531c0.012,0,0.024,0,0.037,0c0.013-0.061,0.024-0.122,0.037-0.184
	c0,0.025,0,0.049,0,0.074c0.156,0.233,0.224,0.462,0.371,0.642c-0.139-0.148-0.282-0.298-0.408-0.459
	c0.116,0.419,0.366,0.726,0.697,0.935c0.012,0,0.024,0.055,0.037,0.055c0.012-0.037,0.024-0.073,0.037-0.11
	c-0.084-0.116-0.183-0.228-0.286-0.339c0.065,0.061,0.146,0.113,0.249,0.156c-0.284-0.306-0.558-0.529-0.586-1.1
	c0.024,0.012,0.049,0.024,0.073,0.037c0.082,0.393,0.245,0.677,0.477,0.917c0.024-0.012,0.049-0.024,0.073-0.037
	c0-0.012,0-0.024,0-0.037c-0.148-0.318-0.39-0.6-0.55-0.954c-0.098,0-0.196,0-0.293,0C9.97,14.262,9.982,14.396,9.994,14.531z
	 M10.764,16.364c-0.661-0.167-0.681-0.531-1.1-0.88c-0.297,0.201-0.73,0.256-1.21,0.184c-0.018,0.148-0.023,0.137-0.073,0.22
	c0.215,0.038,0.275,0.108,0.403,0.22c-0.012,0.122-0.024,0.245-0.037,0.367c-0.098,0.037-0.195,0.074-0.293,0.11
	c0,0.012,0,0.024,0,0.036c0.13,0.247,0.181,0.472,0.403,0.624c0-0.024,0-0.049,0-0.073c0.202-0.227,0.42-0.715,0.953-0.477
	c0.512,0.218,0.833,1.545,0.99,2.09c0.024,0,0.049,0,0.073,0C10.837,17.978,10.801,17.171,10.764,16.364z M8.674,17.391
	c-0.085-0.049-0.171-0.098-0.257-0.146c0.061,0.073,0.123,0.146,0.184,0.22c0.037,0,0.073,0,0.11,0
	c0.024-0.061,0.049-0.122,0.073-0.183c-0.304-0.142-0.297-0.493-0.477-0.624c0.063,0.376,0.254,0.479,0.403,0.733
	C8.699,17.391,8.687,17.391,8.674,17.391z M7.684,16.987c0.024-0.024,0.049-0.049,0.073-0.073c-0.027,0.229-0.009,0.313,0.147,0.44
	c-0.134-0.788,0.417-0.542,0.733-0.99c0.091-0.107,0.044-0.202,0-0.256c-0.138-0.152-0.352-0.161-0.66-0.146
	c-0.091,0.082-0.155,0.104-0.22,0.22c-0.073,0.171-0.146,0.343-0.22,0.514C7.654,16.785,7.547,16.821,7.684,16.987z M7.464,16.144
	c0,0.037,0,0.073,0,0.11c0.012,0.012,0.024,0.024,0.037,0.037c0.024-0.012,0.049-0.024,0.073-0.037
	c0.04-0.124,0.073-0.136,0.037-0.256C7.562,16.046,7.513,16.095,7.464,16.144z M7.501,13.688c0.036,0.514,0.37,0.501,0.586,0.806
	c-0.012,0-0.024,0-0.037,0c-0.134-0.073-0.269-0.147-0.403-0.22c0.119,0.198,0.285,0.251,0.44,0.404
	c-0.061-0.012-0.122-0.024-0.183-0.037c0.061,0.073,0.122,0.146,0.183,0.22c0,0.012,0,0.024,0,0.037
	c-0.171-0.085-0.342-0.171-0.513-0.256c0.154,0.261,0.295,0.456,0.66,0.513c0,0.012,0,0.024,0,0.037c-0.073,0-0.147,0-0.22,0
	c-0.146-0.11-0.293-0.22-0.44-0.33c0.126,0.205,0.288,0.332,0.55,0.403c0,0.012,0,0.024,0,0.037c-0.061,0-0.122,0-0.183,0
	c-0.085-0.061-0.171-0.122-0.257-0.183c0.475,0.65,1.593,0.656,2.09,0.073c-0.013-0.024-0.025-0.049-0.037-0.073
	c-0.049,0-0.098,0-0.146,0c0.024-0.012,0.049-0.024,0.073-0.037c0.061-0.049,0.122-0.098,0.184-0.147
	c0.11-0.64-0.1-1.216-0.771-1.209C8.534,14.501,7.997,14.247,7.501,13.688z M8.234,14.018c-0.012-0.11-0.024-0.22-0.037-0.33
	c-0.012,0.085-0.025,0.171-0.037,0.256C8.186,13.969,8.21,13.993,8.234,14.018z M7.978,13.761c-0.024-0.012-0.049-0.024-0.073-0.037
	C7.892,13.7,7.88,13.675,7.868,13.651c0,0.049,0,0.098,0,0.147C7.904,13.786,7.941,13.773,7.978,13.761z M10.664,10.553
	c-0.214,0.137-0.327,0.238-0.486,0.385c0.223,0.335,0.36,0.724,0.565,1.105c0.421,0.161,0.625,0.133,0.883-0.07l0.082-0.164
	c0,0,0.025-0.088,0.034-0.17c-0.057-0.268-0.218-0.36-0.391-0.517c-0.208,0.002-0.235,0.01-0.331,0.11c0,0.012,0,0.024,0,0.037
	c0.086,0.012,0.172,0.024,0.257,0.037c-0.037,0.061-0.073,0.122-0.111,0.183c-0.122-0.012-0.244-0.024-0.366-0.037
	c-0.012-0.024-0.024-0.049-0.037-0.073c0.06-0.117,0.068-0.153,0.183-0.22c0.359-0.353,1.195-0.081,1.43,0.293
	c0.037,0.196,0.074,0.392,0.11,0.587c0-0.024,0-0.049,0-0.073c0.074-0.203-0.073-0.639-0.146-0.843
	c0.061,0.049,0.122,0.098,0.184,0.146C12.266,10.575,11.236,10.403,10.664,10.553z M10.874,11.268
	c-0.012,0.024-0.024,0.049-0.037,0.073c0.098,0.012,0.196,0.024,0.293,0.037c0-0.012,0-0.024,0-0.037
	C11.045,11.316,10.959,11.292,10.874,11.268z M12.487,12.111c-0.389,0.153-0.733,0.242-1.036,0.431
	c-0.089,0.288-0.113,0.528-0.027,0.852c0.314,0.197,0.702,0.404,1.063,0.183c-0.049-0.024-0.098-0.048-0.146-0.073
	c0-0.012,0-0.024,0-0.037c0.098-0.012,0.196-0.024,0.293-0.037c-0.073-0.037-0.147-0.073-0.22-0.11
	c0.196,0.014,0.175,0.045,0.293-0.073c0-0.012,0-0.024,0-0.037c-0.25-0.08-0.354-0.274-0.513-0.44
	c-0.181-0.005-0.277,0.002-0.367,0.073c0.311-0.009,0.431,0.042,0.55,0.22c-0.199-0.087-0.291-0.149-0.624-0.147
	c0,0.037,0,0.073,0,0.11c0.158-0.012,0.2-0.031,0.33,0.037c-0.11,0.012-0.22,0.024-0.33,0.037c0,0.061,0,0.122,0,0.183
	c0.098,0.085,0.196,0.171,0.293,0.256c-0.049,0-0.098,0-0.146,0c-0.085-0.037-0.171-0.073-0.257-0.11c0-0.183,0-0.366,0-0.55
	c0.139-0.205,0.48-0.557,0.843-0.403c0.294,0.127,0.365,0.423,0.403,0.697c-0.118,0.259-0.261,0.497-0.55,0.587
	c-1.614,0.435-3.305-2.278-4.547-0.807c0.159-0.073,0.318-0.146,0.477-0.22c-0.024,0.037-0.049,0.073-0.073,0.11
	c-0.3,0.045-0.426,0.185-0.477,0.477c0.012,0,0.024,0,0.037,0c0.052-0.178,0.069-0.181,0.257-0.22
	c-0.073,0.122-0.146,0.244-0.22,0.366c0.013,0,0.024,0,0.037,0c0.082-0.095,0.108-0.148,0.22-0.22
	c-0.037,0.085-0.073,0.171-0.11,0.256c0.211-0.159,0.336-0.256,0.66-0.33c-0.012,0.024-0.024,0.049-0.037,0.073
	c-0.289,0.077-0.404,0.193-0.55,0.403c0,0.049,0,0.098,0,0.147c0.024-0.012,0.049-0.024,0.073-0.037
	c0.042-0.165,0.034-0.191,0.184-0.257c0.062,0.117-0.019,0.042,0.11,0.073c0,0.16,0,0.318,0,0.477c0.012,0,0.024,0,0.037,0
	c0.061-0.024,0.123-0.049,0.184-0.073c-0.002-0.173,0.005-0.244,0.073-0.33c0.012,0.086,0.024,0.171,0.037,0.257
	c0.159-0.122,0.318-0.244,0.477-0.367c0.992,0.335,3.519,1.708,4.399,0.55c0-0.012,0-0.024,0-0.037
	c-0.061,0.012-0.122,0.024-0.183,0.037c0.159-0.203,0.309-0.265,0.366-0.587c-0.012,0-0.024,0-0.037,0
	c-0.024,0.012-0.049,0.025-0.073,0.037c-0.068,0.196-0.144,0.316-0.366,0.367c0.157-0.227,0.331-0.383,0.366-0.733
	c-0.012,0-0.024,0-0.037,0c0,0.024,0,0.049,0,0.073c-0.111,0.196-0.132,0.259-0.33,0.366C13.583,12.92,13.512,12.089,12.487,12.111z
	 M12.561,12.991c-0.083-0.191-0.208-0.286-0.44-0.33C12.268,12.771,12.414,12.881,12.561,12.991z M14.504,12.881
	c-0.012,0-0.024,0-0.036,0c-0.075,0.133-0.119,0.15-0.293,0.184c0-0.012,0-0.024,0-0.037c0.024-0.013,0.049-0.024,0.073-0.037
	c0.049-0.037,0.098-0.073,0.146-0.11c-0.012-0.024-0.024-0.049-0.037-0.073c-0.061,0-0.122,0-0.183,0
	c-0.078,0.065-0.089,0.049-0.147,0.146c0,0.037,0,0.074,0,0.11c0.012,0.049,0.025,0.098,0.037,0.146
	c0.098,0.012,0.196,0.024,0.293,0.037c0.086-0.073,0.171-0.146,0.257-0.22c-0.085,0.049-0.171,0.098-0.257,0.146
	c0-0.037,0-0.073,0-0.11C14.473,12.998,14.452,13.011,14.504,12.881z M14.174,12.661c0-0.012,0-0.024,0-0.037
	c-0.205,0.018-0.298,0.072-0.404,0c0.049-0.037,0.098-0.073,0.147-0.11c-0.085,0-0.171,0-0.257,0
	c-0.024,0.012-0.049,0.024-0.073,0.037c0.012,0.062,0.024,0.123,0.037,0.184c0.061,0.037,0.122,0.073,0.184,0.11
	C13.93,12.783,14.052,12.722,14.174,12.661z M13.404,12.221c-0.037,0.037-0.073,0.073-0.11,0.11c0.024,0,0.049,0,0.073,0
	c0.037,0,0.073,0,0.11,0c0.049-0.024,0.098-0.049,0.146-0.073c-0.012-0.012-0.024-0.024-0.037-0.037
	C13.526,12.221,13.465,12.221,13.404,12.221z M14.284,10.424c-0.012,0-0.043,0.022-0.055,0.022
	c-0.077,0.034-0.196,0.084-0.165,0.125c0.086-0.025,0.171-0.049,0.257-0.074C14.309,10.473,14.296,10.449,14.284,10.424z
	 M14.354,10.667c0,0-0.527,0.172-0.547,0.601c-0.028,0.033-0.067,0.022-0.07-0.025c0-0.012-0.003-0.036-0.003-0.048
	c0.035-0.247,0.057-0.375,0.229-0.528c0.06-0.053,0.072-0.079,0.067-0.091c-0.02-0.039-0.052-0.025-0.275,0.153
	c-0.081,0.057-0.099-0.017-0.005-0.111c0.119-0.102,0.398-0.275,0.387-0.304c-0.05-0.081-0.241,0.127-0.363,0.176
	c-0.009,0.003-0.019-0.001-0.006-0.038c0.046-0.048,0.16-0.132,0.211-0.166c0.01-0.015,0.006-0.036-0.025-0.045
	c-1.002,0.706-0.296,1.977,0.403,2.42c0.049-0.012,0.098-0.024,0.146-0.037c-0.024,0-0.08-0.018-0.11-0.037
	c-0.101-0.097-0.266-0.238-0.22-0.257c0.04-0.04,0.266,0.245,0.477,0.257c-0.147-0.11-0.461-0.348-0.413-0.373
	c0.095-0.043,0.4,0.299,0.632,0.299c0.064,0.003,0.015-0.049-0.037-0.073c-0.177-0.068-0.406-0.189-0.366-0.257
	c0.021-0.024,0.314,0.187,0.513,0.22c0.098,0.003,0.019-0.083-0.064-0.107c-0.281-0.102-0.598-0.278-0.669-0.406
	c-0.151-0.238-0.08-0.63,0-0.624c0.052,0.021-0.037,0.244,0.037,0.22c0.05-0.465,0.273-0.45,0.22-0.513
	c-0.241-0.039-0.396,0.232-0.44,0.586c-0.012,0-0.024,0-0.037,0c0.025-0.146,0.049-0.293,0.074-0.439
	c0.101-0.189,0.305-0.31,0.513-0.184c0.066,0.015,0.027-0.121-0.069-0.141c-0.35,0.019-0.394,0.126-0.529,0.281
	c-0.062,0.09-0.094,0.013-0.057-0.05c0.122-0.17,0.449-0.356,0.449-0.356L14.354,10.667z M14.688,12.587
	c0.061,0.037,0.122,0.074,0.183,0.11C14.798,12.601,14.83,12.625,14.688,12.587z M15.274,13.101
	c-0.049,0.073-0.099,0.146-0.146,0.22c0.012,0,0.023,0,0.036,0c0.086-0.061,0.171-0.122,0.257-0.183
	C15.372,13.125,15.323,13.113,15.274,13.101z M15.494,13.064c-0.077-0.062-0.072-0.057-0.22-0.074
	C15.348,13.015,15.421,13.04,15.494,13.064z M15.128,12.844c-0.037,0.024-0.074,0.049-0.111,0.073
	c-0.012,0.086-0.024,0.171-0.037,0.257c0.024-0.012,0.049-0.024,0.073-0.037C15.126,12.979,15.211,12.961,15.128,12.844z
	 M15.458,10.754c0.003-0.181-0.037-0.335-0.153-0.461c-0.024-0.034-0.076-0.006-0.067,0.021c0.015,0.077,0.11,0.178,0.079,0.22
	c-0.024,0.028-0.073,0.034-0.104-0.024c-0.051-0.114-0.136-0.25-0.196-0.232c-0.07,0.012,0.141,0.229,0.111,0.257
	c-0.071,0.052-0.272-0.296-0.331-0.257c-0.067,0.027,0.116,0.196,0.073,0.22c-0.085,0.021-0.333-0.413-0.403-0.367
	c-0.04,0.04,0.146,0.22,0.22,0.33c0.034,0.077,0.012,0.138-0.037,0.11c-0.073-0.098-0.147-0.196-0.22-0.294c0,0.049,0,0.098,0,0.147
	c0.151,0.187,0.263,0.319,0.44,0.477c0.28,0.011,0.437-0.017,0.587-0.11C15.458,10.779,15.458,10.767,15.458,10.754z M15.421,11.048
	c-0.049,0.012-0.098,0.024-0.146,0.037c-0.196-0.037-0.392-0.073-0.587-0.11c-0.085,0.074-0.171,0.147-0.257,0.22
	c-0.032,0.273-0.029,0.543,0.037,0.77c0.159,0.085,0.317,0.171,0.476,0.256c-0.076-0.243-0.009-0.363,0.147-0.476
	c0.095-0.146,0.188-0.157,0.44-0.147C15.494,11.414,15.458,11.231,15.421,11.048z M16.028,9.043
	c-0.463,0.432-0.526,1.78-0.204,2.812c-0.013,0.012-0.024,0.024-0.037,0.037c-0.324-0.232-0.46-0.248-0.77,0
	c0,0.049,0,0.098,0,0.146c0.074,0.11,0.147,0.22,0.221,0.33c-0.074,0.11-0.147,0.22-0.221,0.33c0.061,0.037,0.123,0.073,0.184,0.11
	c0.161-0.009,0.276,0.054,0.439,0.11c0.065-0.476-0.182-0.582-0.366-0.88c0.024-0.012,0.049-0.024,0.073-0.037
	c0.324,0.051,0.541,0.152,0.477,0.586c0.037-0.024,0.073-0.049,0.11-0.073c-0.006-0.303-0.098-0.378-0.22-0.55
	c0.086,0.049,0.171,0.098,0.257,0.146c-0.056-0.185-0.024-0.397,0.037-0.55c0.036,0.024,0.073,0.049,0.109,0.073
	c0.013,0.135,0.025,0.27,0.037,0.404c0.073-0.037,0.146-0.073,0.22-0.11c-0.129,0.184-0.213,0.258-0.22,0.586
	c0.037,0.012,0.073,0.024,0.11,0.037c-0.017-0.305,0.026-0.506,0.33-0.586c-0.061,0.073-0.123,0.146-0.184,0.22
	c0.156-0.115,0.23-0.2,0.403-0.11c-0.154,0.174-0.262,0.307-0.403,0.513c0.025,0.11,0.049,0.22,0.074,0.33
	c0.024-0.012,0.049-0.024,0.073-0.037c0.097-0.172,0.291-0.151,0.513-0.183c-0.067-0.208-0.159-0.188-0.22-0.404
	c0.073-0.146,0.146-0.293,0.22-0.439c-0.062-0.073-0.122-0.146-0.184-0.221c-0.32-0.014-0.348,0.107-0.623,0.184
	C16.441,11.216,16.641,9.554,16.028,9.043z M15.897,13.321c-0.122-0.073-0.245-0.146-0.367-0.22
	c0.103,0.166,0.092,0.204,0.146,0.403c0.297,0.017,0.499,0.03,0.733-0.037c0.037-0.134,0.074-0.269,0.11-0.403
	C16.383,13.235,16.185,13.298,15.897,13.321z M16.374,12.991c-0.073-0.11-0.146-0.22-0.22-0.33
	c-0.062-0.012-0.122-0.024-0.184-0.037c-0.104,0.127-0.153,0.224-0.22,0.404c0.037,0.024,0.074,0.049,0.11,0.073
	C16.063,13.236,16.254,13.143,16.374,12.991z M16.887,13.394c-0.11-0.012-0.22-0.024-0.33-0.037c0.037,0.037,0.073,0.073,0.11,0.11
	c0.073-0.012,0.146-0.024,0.22-0.037C16.887,13.418,16.887,13.406,16.887,13.394z M16.924,13.284
	c-0.048-0.172-0.048-0.171-0.22-0.22c0,0.049,0,0.098,0,0.146C16.777,13.235,16.851,13.26,16.924,13.284z M17.73,10.131
	c-0.061,0.049-0.122,0.098-0.183,0.146c-0.037,0.074-0.073,0.147-0.11,0.22c-0.012,0-0.024,0-0.037,0c0-0.012,0-0.024,0-0.037
	c0.061-0.135,0.122-0.269,0.183-0.403c-0.122,0.122-0.244,0.244-0.366,0.367c0.024-0.073,0.049-0.147,0.073-0.22
	c-0.098,0.085-0.196,0.171-0.294,0.257c0.024-0.085,0.049-0.171,0.074-0.257c-0.037,0.024-0.074,0.049-0.11,0.073
	c-0.036,0.074-0.073,0.147-0.11,0.22c-0.012-0.049-0.024-0.098-0.037-0.146c0.012-0.025,0.024-0.049,0.037-0.074
	c-0.073,0.049-0.146,0.098-0.22,0.147c0,0.012,0,0.024,0,0.037c0,0.232,0.031,0.278,0.11,0.403c0.012,0,0.024,0,0.037,0
	C17.394,10.872,17.582,10.576,17.73,10.131z M17.181,12.147c0.209-0.086,0.555-0.259,0.477-0.514
	c0.055-0.19,0.009-0.373-0.037-0.549c-0.085-0.117-0.159-0.098-0.293-0.184c-0.165,0.108-0.47,0.089-0.697,0.147
	c-0.024,0.171-0.049,0.342-0.073,0.513C16.955,11.506,17.196,11.679,17.181,12.147z M16.851,12.808
	c-0.061,0.024-0.122,0.049-0.183,0.073c0,0.012,0,0.024,0,0.037c0.3,0.021,0.28,0.118,0.44,0.257
	C17.105,12.909,17.065,12.859,16.851,12.808z M17.272,13.248c0,0-0.018,0.238-0.248,0.33c-0.229,0.092-0.504-0.009-0.504-0.009
	s-0.166,0.12-0.275,0.11c-0.11-0.009-0.32-0.11-0.467-0.073s-0.257-0.055-0.257-0.055s-0.119,0.172-0.398,0.111
	c-0.192-0.042-0.239-0.251-0.239-0.251s-0.077,0.13-0.27,0.231c-0.193,0.101-0.468-0.046-0.468-0.046s-0.174,0.376-0.413,0.596
	c-0.238,0.221-0.651,0.486-0.999,0.523s-1.595-0.302-1.595-0.302s-0.046,0.055-0.055,0.11c-0.009,0.055-0.138,3.785,0,4.565
	c0.094,0.532,0.072,0.576,0.061,0.572c-0.007-0.012-0.004-0.002,0,0c0.001,0.001,0.002,0.003,0.004,0.005
	c0.037,0.064,0.21,0.092,0.312,0.238c0.101,0.147,0.119,0.257,0.174,0.321c0.055,0.064,0.221,0.101,0.221,0.101
	s0.155,0.138,0.11,0.413c-0.046,0.274-0.128,0.486-0.128,0.486s0.174,0.174,0.202,0.274c0.027,0.101,0.027,0.202,0.027,0.202
	s0.037-0.119,0.256,0.083c0.22,0.202,0.275,0.312,0.275,0.312l0.009,0.22c0,0,0.009,0.046-0.027,0.12
	c-0.037,0.073-0.083,0.128-0.083,0.128s0.21,0.119,0.394,0.302c0.183,0.184,0.468,0.422,0.669,0.541s0.568,0.34,0.696,0.386
	c0.128,0.045,0.22,0.055,0.22,0.055s-0.11-0.358,0.119-0.522c0.229-0.165,0.477-0.037,0.477-0.037l0.285,0.248
	c0,0,0.101-0.192,0.192-0.248c0.092-0.055,0.248-0.101,0.422-0.036c0.174,0.064,0.238,0.293,0.238,0.293s0.101-0.147,0.238-0.248
	s0.266-0.073,0.422-0.009c0.156,0.064,0.293,0.33,0.293,0.33s0.083-0.174,0.211-0.266c0.128-0.092,0.357-0.073,0.44-0.064
	c0.083,0.009,0.174,0.128,0.174,0.128s0.586-0.293,0.724-0.385c0.138-0.091,0.761-0.623,0.789-0.696
	c0.027-0.073-0.019-0.238-0.019-0.293c0-0.055,0.019-0.21,0.019-0.21s0.137-0.193,0.229-0.22c0.091-0.028,0.22-0.138,0.22-0.138
	l0.256-0.458c0,0-0.083-0.503,0.027-0.733c0.11-0.229,0.385-0.559,0.532-0.788c0.146-0.229,0.274-0.504,0.274-0.504
	s0.009-1.302,0.027-1.659c0.019-0.358,0.046-1.128,0.046-1.128s0.101-0.733,0.083-1.063c-0.018-0.331-0.138-0.963-0.138-0.963
	s-0.046,0-0.303,0.119c-0.256,0.12-0.825,0.257-1.118,0.257c-0.293,0-1.182-0.184-1.311-0.367c-0.128-0.184-0.339-0.807-0.339-0.807
	s-0.092-0.028-0.294-0.019C17.492,13.367,17.272,13.248,17.272,13.248z M17.768,12.734c0.021,0.111,0.067,0.125,0.146,0.256
	c-0.098-0.037-0.196-0.073-0.293-0.11c0.063,0.138,0.104,0.253,0.11,0.257c0.012,0.012,0.024,0.024,0.037,0.037
	c0.061-0.024,0.122-0.049,0.183-0.073c0.013-0.049,0.024-0.098,0.037-0.147c0-0.012,0-0.024,0-0.037
	c-0.037-0.061-0.074-0.122-0.11-0.183C17.841,12.734,17.804,12.734,17.768,12.734z M18.171,12.441
	c0.049,0.024,0.098,0.049,0.146,0.073c0,0.024,0,0.049,0,0.073c-0.203-0.024-0.289-0.084-0.403,0
	c0.098,0.025,0.196,0.049,0.293,0.074c0.024,0.037,0.049,0.073,0.073,0.11c0.073-0.085,0.146-0.171,0.22-0.257
	c-0.024-0.024-0.049-0.049-0.074-0.073C18.342,12.441,18.256,12.441,18.171,12.441z M18.647,12.147
	c-0.049-0.012-0.098-0.024-0.146-0.037c-0.013,0.037-0.024,0.073-0.037,0.11c0.086,0.024,0.171,0.049,0.257,0.073
	c0.012-0.024,0.024-0.049,0.037-0.073C18.721,12.196,18.684,12.172,18.647,12.147z M19.564,11.231
	c-0.063,0.049-0.112,0.164-0.073,0.293c0.012,0,0.061-0.037,0.073-0.037C19.564,11.402,19.564,11.316,19.564,11.231z M21.324,11.268
	c0,0.012,0,0.024,0,0.037c-0.275,0.053-0.404,0.073-0.514-0.146c0.256-0.017,0.239-0.011,0.22-0.146
	c-0.086-0.013-0.171-0.025-0.257-0.037c-0.229,0.189-0.304,0.286-0.435,0.541c-0.002,0.044,0,0.091,0.013,0.128
	c0.037,0.101,0.083,0.192,0.12,0.22c0.275,0.183,0.524,0.162,0.736,0.029c0.002,0,0.004-0.001,0.006-0.001
	c0.001-0.001,0.002-0.002,0.003-0.004c0.35-0.226,0.591-0.757,0.657-1.169c-0.147-0.123-0.275-0.18-0.467-0.266
	c-0.696-0.119-1.488-0.025-1.806,0.632c0.156,0.06-0.021,0.548,0,0.843c0.012,0,0.024,0,0.037,0
	C19.603,11.007,20.958,10.412,21.324,11.268z M21.141,11.158c-0.061,0.024-0.123,0.049-0.184,0.073c0,0.012,0,0.024,0,0.037
	c0.074,0,0.147,0,0.221,0c0.024-0.012,0.049-0.024,0.073-0.037c0-0.012,0-0.024,0-0.037c-0.012-0.012-0.024-0.024-0.037-0.037
	C21.19,11.158,21.165,11.158,21.141,11.158z M24.294,12.771c-1.359-1.624-3.382,1.814-4.693,0.806
	c-0.223-0.102-0.31-0.282-0.403-0.513c0.011-0.36,0.146-0.583,0.403-0.697c0.381-0.118,0.735,0.166,0.844,0.44
	c0.054,0.176,0.031,0.379-0.037,0.513c-0.122,0.037-0.244,0.073-0.366,0.11c0.012-0.024,0.024-0.049,0.036-0.073
	c0.086-0.073,0.171-0.146,0.257-0.22c0-0.061,0-0.123,0-0.184c-0.122,0.012-0.244,0.024-0.366,0.037
	c0.078-0.073,0.276-0.091,0.366-0.146c-0.122-0.012-0.244-0.024-0.366-0.037c-0.074,0.037-0.147,0.073-0.221,0.11
	c0.037-0.049,0.073-0.098,0.11-0.146c0.122-0.024,0.245-0.049,0.367-0.073c-0.024-0.024-0.049-0.049-0.074-0.074
	c-0.394,0.118-0.503,0.289-0.77,0.514c0.1,0.101,0.075,0.093,0.22,0.073c0.012,0.012,0.024,0.024,0.037,0.037
	c-0.084,0.102-0.077,0.051-0.073,0.11c0.061,0,0.122,0,0.183,0c-0.051,0.079-0.083,0.087-0.146,0.146c0.024,0,0.049,0,0.073,0
	c0.208,0.012,0.416,0.025,0.624,0.037c0.134-0.11,0.269-0.22,0.403-0.33c0.03-0.36-0.012-0.59-0.073-0.88
	c-1.169-0.438-2.49-0.43-1.833,1.21c-0.227-0.129-0.243-0.242-0.367-0.476c0.03,0.423,0.277,0.593,0.477,0.843
	c-0.308-0.116-0.366-0.328-0.586-0.514c0,0.037,0,0.073,0,0.11c0.1,0.25,0.236,0.315,0.367,0.514c-0.061,0-0.122,0-0.183,0
	c0.024,0.037,0.049,0.073,0.073,0.11c1.115,0.53,1.806,0.125,2.933-0.22c0.232-0.012,0.464-0.024,0.697-0.037
	c0.225-0.13,0.263-0.335,0.696-0.514c0.159,0.122,0.318,0.245,0.477,0.367c0.012-0.086,0.024-0.171,0.037-0.257
	c0.024,0.012,0.049,0.024,0.073,0.037c-0.007,0.272,0.009,0.281,0.183,0.367c0.012,0,0.024,0,0.037,0c0-0.183,0-0.367,0-0.55
	c0.024,0.012,0.049,0.024,0.073,0.037c0.049-0.012,0.098-0.024,0.147-0.037c0.048,0.085,0.098,0.171,0.146,0.256
	c0-0.037,0-0.073,0-0.11c-0.173-0.251-0.382-0.296-0.624-0.477c0.35,0.046,0.486,0.166,0.697,0.33
	c-0.037-0.073-0.073-0.146-0.11-0.22c0.013-0.012,0.025-0.024,0.037-0.037c0.061,0.061,0.122,0.122,0.183,0.183
	c-0.034-0.171-0.062-0.215-0.183-0.293c0.012-0.024,0.024-0.049,0.036-0.073c0.086,0.073,0.171,0.147,0.257,0.22
	c-0.112-0.352-0.311-0.345-0.55-0.55C23.976,12.624,24.135,12.698,24.294,12.771z M19.491,12.917
	c-0.012,0.024-0.024,0.049-0.037,0.073c0.024,0,0.049,0,0.073,0C19.515,12.966,19.503,12.942,19.491,12.917z M20.041,12.514
	c-0.049,0-0.098,0-0.147,0c-0.146,0.126-0.265,0.192-0.367,0.367C19.698,12.759,19.87,12.637,20.041,12.514z M23.854,13.504
	c0,0.11,0,0.221,0,0.331c0.024-0.012,0.049-0.024,0.074-0.037c0-0.061,0-0.123,0-0.184C23.903,13.577,23.878,13.541,23.854,13.504z
	 M24.11,13.577c0.037,0,0.074,0,0.11,0c0-0.048,0-0.098,0-0.146c-0.012,0-0.024,0-0.037,0C24.16,13.479,24.135,13.529,24.11,13.577z
	 M24.514,13.248c0,0.037,0,0.073,0,0.11c0.013-0.037,0.025-0.073,0.037-0.11C24.539,13.248,24.526,13.248,24.514,13.248z
	 M24.514,13.394c-0.012,0.098-0.024,0.196-0.036,0.294c-0.123,0.11-0.245,0.22-0.367,0.33c-0.627,0.008-0.945-0.437-1.21-0.44
	c-0.233-0.026-0.377,0.125-0.55,0.257c-0.065,0.294-0.175,0.566-0.11,0.917c0.085,0.073,0.171,0.146,0.256,0.22
	c-0.049,0-0.098,0-0.146,0c0.012,0.061,0.024,0.123,0.037,0.184c0.532,0.274,1.423,0.456,1.87-0.11
	c-0.098,0.024-0.195,0.049-0.293,0.073c0.012-0.024,0.024-0.049,0.037-0.073c0.254-0.055,0.403-0.206,0.513-0.403
	c-0.206,0.178-0.283,0.344-0.66,0.366c0.012-0.024,0.024-0.049,0.037-0.073c0.315-0.037,0.49-0.225,0.587-0.477
	c-0.147,0.086-0.293,0.171-0.44,0.257c-0.012-0.037-0.024-0.073-0.037-0.11c0.086-0.061,0.171-0.122,0.257-0.183
	c-0.107,0.04-0.162,0.067-0.257,0.037c0-0.012,0-0.024,0-0.037c0.22-0.052,0.356-0.179,0.44-0.367
	c-0.146,0.073-0.293,0.146-0.44,0.22c0.245-0.246,0.551-0.301,0.587-0.77C24.563,13.467,24.539,13.431,24.514,13.394z
	 M19.454,14.054c0.037,0,0.073,0,0.11,0c0,0.012,0,0.024,0,0.037c-0.049,0.012-0.098,0.024-0.146,0.037
	C19.43,14.103,19.442,14.079,19.454,14.054z M18.977,13.504c-0.024-0.061-0.049-0.122-0.073-0.183
	c0.085,0.073,0.171,0.146,0.256,0.22c-0.036,0-0.073,0-0.109,0C19.026,13.529,19.001,13.516,18.977,13.504z M21.067,11.891
	c0.038-0.037,0.074-0.073,0.111-0.11c-0.171,0.044-0.237,0.095-0.367,0c0.122-0.024,0.244-0.049,0.367-0.073
	c0-0.012,0-0.025,0-0.037c-0.22,0.005-0.3-0.011-0.404-0.111c0.215,0.031,0.382,0.072,0.477-0.11
	c-0.188,0.059-0.331,0.043-0.44-0.073c0.183,0,0.367,0,0.55,0c0,0.26-0.053,0.36-0.144,0.51c-0.003,0.002-0.006,0.003-0.009,0.005
	c-0.047,0.012-0.094,0.023-0.141,0.035C21.067,11.916,21.067,11.903,21.067,11.891z M16.008,10.864
	c-0.127-0.399-0.099-1.227,0.033-1.649c0.142,0.464,0.232,1.46-0.033,1.722C16.008,10.913,16.008,10.889,16.008,10.864z
	 M16.117,11.377c-0.024,0.012-0.049,0.024-0.073,0.037c-0.024-0.012-0.049-0.024-0.073-0.037c0-0.049,0-0.098,0-0.146
	c0.049,0,0.098,0,0.146,0C16.117,11.28,16.117,11.329,16.117,11.377z M13.917,11.487c-0.024-0.012-0.049-0.024-0.074-0.037
	c0-0.012,0-0.024,0-0.037c0.013-0.073,0.027-0.236,0.046-0.232C13.96,11.215,13.905,11.39,13.917,11.487z M13.697,11.634
	c0.012-0.073,0.024-0.146,0.037-0.22c0.078,0.076,0.068,0.095,0.074,0.257c-0.013,0-0.024,0-0.037,0
	C13.746,11.659,13.722,11.646,13.697,11.634z M12.927,13.651c0.061-0.074,0.122-0.147,0.184-0.22c0.017,0.1,0.007,0.083-0.038,0.183
	C13.025,13.626,12.976,13.639,12.927,13.651z M12.524,14.164c0.037,0,0.073,0,0.11,0c0,0.012,0,0.024,0,0.037
	c-0.037,0.012-0.073,0.024-0.11,0.037C12.524,14.213,12.524,14.188,12.524,14.164z M11.262,11.535
	c0.061,0.026,0.064,0.037-0.005,0.079c-0.014,0.022-0.285,0.009-0.419,0.021c0.012,0.025,0.024,0.049,0.037,0.074
	c0.048,0.055,0.35-0.02,0.425,0.037c-0.025,0,0.014,0.052-0.016,0.073c-0.085,0.037-0.218-0.016-0.304,0.021
	c0.024,0,0.038,0.068,0.063,0.068c0.089-0.002,0.163,0.018,0.247,0.005c0.068-0.004,0.1,0.077,0.016,0.094
	c-0.388,0.024-0.278,0.068-0.54-0.115c-0.012-0.024-0.019-0.033-0.031-0.058c-0.058-0.098-0.105-0.28-0.026-0.32
	C10.774,11.486,11.162,11.526,11.262,11.535z M10.438,15.063c0.025,0.027,0.051,0.055,0.077,0.082
	C10.486,15.119,10.462,15.091,10.438,15.063z M12.891,24.101c0.037-0.012,0.073-0.024,0.11-0.037c0.037,0,0.073,0,0.111,0
	c0,0.012,0,0.024,0,0.037C12.948,24.131,12.999,24.174,12.891,24.101z M18.208,11.377c-0.024-0.024-0.049-0.049-0.073-0.073
	c0.012-0.061,0.024-0.122,0.037-0.183C18.221,11.214,18.234,11.293,18.208,11.377z M10.031,23.074
	c-0.07-0.232-0.113-0.458-0.11-0.807c0.181,0.308,0.179,0.698,0.367,0.953C10.202,23.172,10.117,23.123,10.031,23.074z M21.911,23
	c-0.037,0.024-0.074,0.049-0.11,0.074c0.199-0.276,0.218-0.542,0.33-0.954C22.285,22.44,22.113,22.893,21.911,23z"/>
<g>
	<g>
		<path fill="#E2CCA8" d="M8.085,4.204H7.369c-0.059,0-0.107,0.048-0.107,0.107v0.024c0,0.03,0.012,0.058,0.033,0.079
			c0.02,0.019,0.046,0.029,0.074,0.029c0.002,0,0.004,0,0.005,0c0.008,0,0.015,0,0.022,0c0.028,0,0.044,0.003,0.051,0.005
			c0.004,0.013,0.015,0.054,0.015,0.156v1.811c0,0.084-0.007,0.124-0.012,0.14C7.439,6.558,7.415,6.563,7.369,6.563
			c-0.059,0-0.107,0.048-0.107,0.107v0.024c0,0.06,0.048,0.107,0.107,0.107h0.716c0.06,0,0.107-0.048,0.107-0.107V6.67
			c0-0.028-0.011-0.056-0.031-0.076c-0.02-0.021-0.047-0.032-0.076-0.032c-0.067,0-0.087-0.008-0.088-0.009
			C7.995,6.553,7.994,6.552,7.993,6.551c-0.002-0.013-0.006-0.049-0.006-0.14V4.583c0-0.071,0.003-0.108,0.005-0.127
			c0.002-0.001,0.004-0.002,0.007-0.003c0.024-0.007,0.046-0.011,0.065-0.011c0.004,0,0.008,0,0.012,0c0.003,0,0.007,0,0.01,0
			c0.027,0,0.053-0.01,0.072-0.028c0.022-0.021,0.035-0.049,0.035-0.08V4.312C8.192,4.252,8.145,4.204,8.085,4.204z"/>
	</g>
	<g>
		<path fill="#E2CCA8" d="M11.476,4.204h-0.52c-0.059,0-0.107,0.048-0.107,0.107v0.024c0,0.06,0.048,0.108,0.107,0.108
			c0.033,0,0.06,0.004,0.08,0.012c0.003,0.009,0.008,0.032,0.008,0.076v1.432l-1.831-1.73c-0.02-0.019-0.047-0.029-0.074-0.029
			H8.634c-0.059,0-0.107,0.048-0.107,0.107v0.024c0,0.029,0.012,0.058,0.033,0.078c0.02,0.019,0.046,0.03,0.074,0.03
			c0.001,0,0.003,0,0.005,0c0.009,0,0.019,0,0.027,0c0.097,0,0.157,0.022,0.179,0.065C8.882,4.582,8.9,4.683,8.9,4.806v1.612
			c0,0.081-0.007,0.12-0.011,0.137C8.877,6.558,8.851,6.563,8.802,6.563c-0.06,0-0.107,0.048-0.107,0.107v0.024
			c0,0.06,0.048,0.107,0.107,0.107h0.516c0.059,0,0.107-0.048,0.107-0.107V6.67c0-0.054-0.04-0.099-0.093-0.106
			C9.281,6.557,9.254,6.551,9.24,6.548C9.236,6.535,9.232,6.511,9.232,6.461V4.948l1.961,1.853c0.021,0.019,0.046,0.029,0.073,0.029
			c0.015,0,0.029-0.003,0.043-0.009c0.039-0.017,0.064-0.056,0.064-0.099V4.554c0-0.07,0.011-0.093,0.013-0.097l0,0
			c0.002,0,0.025-0.012,0.092-0.014c0.058-0.001,0.104-0.049,0.104-0.108V4.312C11.583,4.252,11.535,4.204,11.476,4.204z"/>
	</g>
	<g>
		<path fill="#E2CCA8" d="M13.718,4.204h-1.699c-0.059,0-0.107,0.048-0.107,0.107v0.024c0,0.06,0.048,0.108,0.107,0.108
			c0.05,0,0.067,0.009,0.07,0.01c0,0.001,0.012,0.024,0.012,0.097V6.51c0,0.022-0.002,0.037-0.006,0.045
			c-0.009,0.003-0.032,0.007-0.076,0.007c-0.059,0-0.107,0.048-0.107,0.107v0.024c0,0.06,0.048,0.107,0.107,0.107h0.706
			c0.059,0,0.107-0.048,0.107-0.107V6.67c0-0.059-0.048-0.107-0.107-0.107c-0.063,0-0.085-0.01-0.09-0.013
			c0.001-0.001-0.009-0.025-0.009-0.091V5.616h0.764c0.006,0,0.012,0,0.017,0c0.012,0.046,0.054,0.083,0.104,0.083h0.027
			c0.06,0,0.108-0.049,0.108-0.108V5.363c0-0.059-0.048-0.107-0.108-0.107H13.51c-0.048,0-0.089,0.031-0.103,0.075
			c-0.016,0.002-0.042,0.004-0.083,0.004h-0.699V4.5h0.758c0.099,0,0.142,0.012,0.159,0.019c0,0,0.019,0.012,0.038,0.074
			c0,0.003,0.001,0.007,0.002,0.01c0.005,0.054,0.051,0.096,0.106,0.096h0.027c0.06,0,0.107-0.048,0.107-0.107v-0.28
			C13.825,4.252,13.777,4.204,13.718,4.204z"/>
	</g>
	<g>
		<path fill="#E2CCA8" d="M16.034,6.26h-0.027c-0.052,0-0.097,0.038-0.106,0.089c-0.016,0.097-0.035,0.119-0.036,0.12
			c-0.014,0.013-0.032,0.022-0.055,0.027c-0.016,0.003-0.073,0.011-0.267,0.011h-0.473c-0.116,0-0.174-0.008-0.203-0.015
			c-0.016-0.004-0.028-0.011-0.039-0.034c-0.009-0.02-0.024-0.07-0.024-0.195V5.635h0.736c0.033,0,0.054,0.001,0.065,0.003
			c0.015,0.043,0.056,0.076,0.103,0.076h0.027c0.059,0,0.108-0.048,0.108-0.108V5.382c0-0.059-0.049-0.107-0.108-0.107h-0.027
			c-0.048,0-0.088,0.031-0.103,0.075c-0.016,0.002-0.042,0.004-0.087,0.004h-0.715V4.5h0.778c0.07,0,0.102,0.006,0.114,0.009
			c0.006,0.011,0.026,0.053,0.058,0.161c0.014,0.045,0.056,0.077,0.104,0.077h0.027c0.059,0,0.107-0.048,0.107-0.107V4.312
			c0-0.06-0.048-0.107-0.107-0.107h-1.688c-0.059,0-0.107,0.048-0.107,0.107v0.028c0,0.059,0.048,0.107,0.107,0.107
			c0.039,0,0.061,0.003,0.072,0.006c0.005,0.018,0.01,0.055,0.01,0.124V6.5c0,0.025-0.002,0.041-0.004,0.049
			c-0.014,0.005-0.039,0.011-0.083,0.013c-0.057,0.003-0.102,0.05-0.102,0.107v0.024c0,0.06,0.048,0.107,0.107,0.107h1.836
			c0.059,0,0.107-0.048,0.107-0.107V6.368C16.142,6.308,16.093,6.26,16.034,6.26z"/>
	</g>
	<g>
		<path fill="#E2CCA8" d="M19.399,6.492c-0.01-0.03-0.033-0.054-0.062-0.065c-0.013-0.005-0.026-0.008-0.04-0.008
			c-0.017,0-0.034,0.004-0.05,0.013c-0.101,0.053-0.188,0.08-0.26,0.08c-0.074,0-0.153-0.021-0.235-0.061
			c-0.057-0.028-0.168-0.116-0.377-0.372c-0.175-0.215-0.283-0.354-0.322-0.415l-0.122-0.167c0.112-0.071,0.205-0.154,0.275-0.247
			c0.096-0.128,0.144-0.267,0.144-0.41c0-0.126-0.029-0.235-0.085-0.325c-0.057-0.09-0.141-0.162-0.25-0.213
			c-0.102-0.048-0.203-0.076-0.302-0.085c-0.09-0.008-0.23-0.012-0.428-0.012h-0.762c-0.06,0-0.107,0.048-0.107,0.107v0.024
			c0,0.06,0.047,0.107,0.106,0.108c0.042,0,0.064,0.006,0.073,0.009c0.009,0.025,0.014,0.058,0.014,0.098v1.893
			c0,0.063-0.006,0.095-0.01,0.108c-0.011,0.003-0.035,0.009-0.08,0.01c-0.058,0.002-0.104,0.05-0.104,0.107v0.024
			c0,0.06,0.048,0.107,0.107,0.107h0.693c0.059,0,0.107-0.048,0.107-0.107V6.67c0-0.059-0.048-0.107-0.107-0.107
			c-0.042,0-0.063-0.005-0.072-0.007c-0.004-0.011-0.011-0.038-0.011-0.09V5.662h0.11l0.186-0.006l0.232,0.318
			c0.003,0.004,0.006,0.009,0.009,0.013v0c0.286,0.378,0.484,0.605,0.605,0.694c0.13,0.095,0.287,0.143,0.464,0.143
			c0.255,0,0.468-0.06,0.631-0.179c0.038-0.027,0.054-0.077,0.039-0.121L19.399,6.492z M17.134,4.482h0.114
			c0.23,0,0.389,0.052,0.472,0.156c0.091,0.112,0.135,0.226,0.135,0.349c0,0.12-0.041,0.213-0.124,0.285
			c-0.086,0.075-0.229,0.113-0.422,0.113h-0.174V4.482z"/>
	</g>
	<g>
		<path fill="#E2CCA8" d="M22.246,4.204h-0.52c-0.06,0-0.107,0.048-0.107,0.107v0.024c0,0.06,0.048,0.108,0.107,0.108
			c0.032,0,0.06,0.004,0.079,0.012c0.004,0.009,0.009,0.032,0.009,0.076v1.432l-1.832-1.73c-0.02-0.019-0.046-0.029-0.073-0.029
			h-0.505c-0.059,0-0.107,0.048-0.107,0.107v0.024c0,0.029,0.012,0.058,0.033,0.078c0.02,0.019,0.046,0.03,0.074,0.03
			c0.001,0,0.003,0,0.004,0c0.009,0,0.019,0,0.027,0c0.097,0,0.158,0.022,0.179,0.065c0.037,0.074,0.055,0.174,0.055,0.298v1.612
			c0,0.081-0.006,0.12-0.011,0.137c-0.013,0.003-0.039,0.008-0.088,0.008c-0.059,0-0.107,0.048-0.107,0.107v0.024
			c0,0.06,0.048,0.107,0.107,0.107h0.516c0.06,0,0.107-0.048,0.107-0.107V6.67c0-0.054-0.04-0.099-0.093-0.106
			c-0.051-0.007-0.078-0.012-0.092-0.016c-0.004-0.013-0.008-0.037-0.008-0.086V4.948l1.961,1.853
			c0.021,0.019,0.047,0.029,0.074,0.029c0.015,0,0.029-0.003,0.042-0.009c0.04-0.017,0.065-0.056,0.065-0.099V4.554
			c0-0.069,0.011-0.093,0.013-0.097c0.001,0,0.025-0.012,0.092-0.014c0.058-0.001,0.104-0.049,0.104-0.108V4.312
			C22.354,4.252,22.305,4.204,22.246,4.204z"/>
	</g>
	<g>
		<path fill="#E2CCA8" d="M25.104,4.461c-0.258-0.22-0.593-0.331-0.994-0.331c-0.333,0-0.625,0.073-0.871,0.218
			c-0.246,0.145-0.433,0.335-0.556,0.567c-0.122,0.229-0.184,0.458-0.184,0.678c0,0.333,0.131,0.62,0.39,0.856
			C23.146,6.682,23.477,6.8,23.875,6.8c0.484,0,0.881-0.145,1.177-0.431C25.35,6.082,25.5,5.724,25.5,5.304
			C25.5,4.968,25.367,4.685,25.104,4.461z M24.061,6.498c-0.303,0-0.57-0.116-0.817-0.354c-0.246-0.237-0.365-0.502-0.365-0.813
			c0-0.232,0.094-0.422,0.286-0.58c0.199-0.163,0.414-0.242,0.657-0.242c0.171,0,0.362,0.05,0.568,0.149
			c0.205,0.099,0.374,0.236,0.501,0.41c0.126,0.171,0.188,0.356,0.188,0.565c0,0.141-0.046,0.281-0.137,0.416
			c-0.092,0.138-0.221,0.247-0.382,0.327C24.396,6.458,24.228,6.498,24.061,6.498z"/>
	</g>
</g>
<g opacity="0.6">
	<path fill="#0C1118" d="M8.085,4.204c0.06,0,0.107,0.048,0.107,0.107v0.024c0,0.031-0.013,0.06-0.035,0.08
		c-0.02,0.018-0.045,0.028-0.072,0.028c-0.003,0-0.007,0-0.01,0c-0.004,0-0.008,0-0.012,0c-0.019,0-0.041,0.004-0.065,0.011
		C7.996,4.454,7.993,4.455,7.991,4.456C7.989,4.475,7.986,4.512,7.986,4.583v1.829c0,0.09,0.004,0.126,0.006,0.14
		c0.001,0,0.002,0.001,0.004,0.002c0,0,0.021,0.009,0.088,0.009c0.029,0,0.056,0.011,0.076,0.032c0.02,0.02,0.031,0.047,0.031,0.076
		v0.024c0,0.06-0.048,0.107-0.107,0.107H7.369c-0.059,0-0.107-0.048-0.107-0.107V6.67c0-0.059,0.048-0.107,0.107-0.107
		c0.046,0,0.07-0.004,0.082-0.008c0.005-0.016,0.012-0.056,0.012-0.14V4.604c0-0.102-0.011-0.143-0.015-0.156
		C7.44,4.446,7.424,4.443,7.396,4.443c-0.007,0-0.014,0-0.022,0c-0.001,0-0.003,0-0.005,0c-0.027,0-0.054-0.01-0.074-0.029
		C7.273,4.394,7.262,4.366,7.262,4.335V4.312c0-0.06,0.048-0.107,0.107-0.107H8.085 M8.085,4.051H7.369
		c-0.144,0-0.26,0.117-0.26,0.261v0.024c0,0.072,0.029,0.141,0.081,0.189c0.034,0.032,0.075,0.054,0.12,0.065
		c0,0.004,0,0.009,0,0.014v1.811c0,0,0,0.001,0,0.002c-0.115,0.027-0.2,0.13-0.2,0.253v0.024c0,0.144,0.117,0.261,0.26,0.261h0.716
		c0.144,0,0.261-0.117,0.261-0.261V6.67c0-0.068-0.028-0.136-0.076-0.184C8.234,6.45,8.188,6.426,8.14,6.415
		c0-0.001,0-0.002,0-0.003V4.591C8.185,4.581,8.226,4.56,8.26,4.529c0.054-0.049,0.085-0.12,0.085-0.193V4.312
		C8.346,4.168,8.229,4.051,8.085,4.051L8.085,4.051z"/>
	<path fill="#0C1118" d="M11.476,4.204c0.059,0,0.107,0.048,0.107,0.107v0.024c0,0.059-0.046,0.106-0.104,0.108
		c-0.067,0.002-0.09,0.014-0.092,0.014l0,0c-0.002,0.004-0.013,0.027-0.013,0.097v2.169c0,0.043-0.025,0.082-0.064,0.099
		c-0.014,0.006-0.028,0.009-0.043,0.009c-0.027,0-0.053-0.01-0.073-0.029L9.232,4.948v1.513c0,0.05,0.004,0.074,0.008,0.086
		c0.014,0.003,0.041,0.009,0.092,0.016C9.385,6.571,9.425,6.616,9.425,6.67v0.024c0,0.06-0.048,0.107-0.107,0.107H8.802
		c-0.06,0-0.107-0.048-0.107-0.107V6.67c0-0.059,0.048-0.107,0.107-0.107c0.049,0,0.075-0.004,0.087-0.008
		C8.894,6.538,8.9,6.499,8.9,6.418V4.806c0-0.124-0.019-0.224-0.055-0.298C8.823,4.465,8.763,4.443,8.666,4.443
		c-0.009,0-0.018,0-0.027,0c-0.001,0-0.003,0-0.005,0c-0.027,0-0.054-0.011-0.074-0.03c-0.021-0.02-0.033-0.049-0.033-0.078V4.312
		c0-0.06,0.048-0.107,0.107-0.107h0.505c0.027,0,0.054,0.011,0.074,0.029l1.831,1.73V4.532c0-0.044-0.005-0.067-0.008-0.076
		c-0.02-0.008-0.047-0.012-0.08-0.012c-0.059,0-0.107-0.048-0.107-0.108V4.312c0-0.06,0.048-0.107,0.107-0.107H11.476 M11.476,4.051
		h-0.52c-0.144,0-0.26,0.117-0.26,0.261v0.024c0,0.122,0.083,0.224,0.195,0.253v1.02L9.318,4.122
		C9.27,4.076,9.206,4.051,9.139,4.051H8.634c-0.144,0-0.261,0.117-0.261,0.261v0.024c0,0.071,0.029,0.14,0.08,0.188
		c0.049,0.047,0.113,0.073,0.181,0.073h0.004l0.008,0c0.006,0,0.013,0,0.02,0c0.025,0,0.042,0.001,0.052,0.003
		c0.015,0.04,0.029,0.105,0.029,0.207v1.609C8.629,6.44,8.542,6.545,8.542,6.67v0.024c0,0.144,0.117,0.261,0.26,0.261h0.516
		c0.144,0,0.26-0.117,0.26-0.261V6.67c0-0.119-0.081-0.222-0.193-0.251V5.304l1.702,1.608c0.049,0.046,0.113,0.071,0.179,0.071
		c0.036,0,0.07-0.007,0.103-0.021c0.097-0.042,0.158-0.136,0.158-0.24V4.592c0.121-0.023,0.209-0.128,0.209-0.256V4.312
		C11.736,4.168,11.62,4.051,11.476,4.051L11.476,4.051z"/>
	<path fill="#0C1118" d="M13.718,4.204c0.06,0,0.107,0.048,0.107,0.107v0.28c0,0.06-0.048,0.107-0.107,0.107H13.69
		c-0.055,0-0.101-0.042-0.106-0.096c-0.001-0.003-0.002-0.007-0.002-0.01c-0.02-0.062-0.038-0.074-0.038-0.074
		C13.526,4.512,13.483,4.5,13.384,4.5h-0.758v0.835h0.699c0.042,0,0.067-0.002,0.083-0.004c0.014-0.044,0.055-0.075,0.103-0.075
		h0.027c0.06,0,0.108,0.048,0.108,0.107v0.228c0,0.059-0.048,0.108-0.108,0.108H13.51c-0.049,0-0.091-0.036-0.104-0.083
		c-0.004,0-0.01,0-0.017,0h-0.764v0.843c0,0.065,0.01,0.089,0.009,0.091c0.005,0.003,0.027,0.013,0.09,0.013
		c0.059,0,0.107,0.048,0.107,0.107v0.024c0,0.06-0.048,0.107-0.107,0.107h-0.706c-0.059,0-0.107-0.048-0.107-0.107V6.67
		c0-0.059,0.048-0.107,0.107-0.107c0.044,0,0.066-0.004,0.076-0.007c0.004-0.009,0.006-0.023,0.006-0.045V4.551
		c0-0.073-0.012-0.096-0.012-0.097c-0.003-0.001-0.02-0.01-0.07-0.01c-0.059,0-0.107-0.048-0.107-0.108V4.312
		c0-0.06,0.048-0.107,0.107-0.107H13.718 M13.718,4.051h-1.699c-0.144,0-0.261,0.117-0.261,0.261v0.024
		c0,0.12,0.081,0.22,0.19,0.251v1.833c-0.109,0.031-0.19,0.131-0.19,0.25v0.024c0,0.144,0.117,0.261,0.261,0.261h0.706
		c0.144,0,0.26-0.117,0.26-0.261V6.67c0-0.125-0.088-0.229-0.206-0.255V5.77h0.542c0.048,0.051,0.116,0.082,0.189,0.082h0.027
		c0.144,0,0.261-0.117,0.261-0.261V5.363c0-0.144-0.117-0.26-0.261-0.26H13.51c-0.073,0-0.14,0.029-0.188,0.079h-0.543V4.653h0.605
		c0.022,0,0.04,0,0.053,0.001c0.029,0.115,0.132,0.197,0.253,0.197h0.027c0.144,0,0.261-0.117,0.261-0.261v-0.28
		C13.979,4.168,13.862,4.051,13.718,4.051L13.718,4.051z"/>
	<path fill="#0C1118" d="M15.887,4.204c0.059,0,0.107,0.048,0.107,0.107V4.64c0,0.059-0.048,0.107-0.107,0.107h-0.027
		c-0.048,0-0.09-0.031-0.104-0.077c-0.032-0.108-0.052-0.15-0.058-0.161C15.686,4.506,15.653,4.5,15.583,4.5h-0.778v0.854h0.715
		c0.044,0,0.071-0.002,0.087-0.004c0.014-0.044,0.055-0.075,0.103-0.075h0.027c0.059,0,0.108,0.048,0.108,0.107v0.225
		c0,0.06-0.049,0.108-0.108,0.108h-0.027c-0.046,0-0.087-0.033-0.103-0.076c-0.012-0.002-0.032-0.003-0.065-0.003h-0.736v0.628
		c0,0.125,0.015,0.175,0.024,0.195c0.01,0.023,0.022,0.03,0.039,0.034c0.028,0.007,0.087,0.015,0.203,0.015h0.473
		c0.194,0,0.251-0.007,0.267-0.011c0.022-0.005,0.041-0.014,0.055-0.027c0-0.001,0.02-0.023,0.036-0.12
		c0.009-0.052,0.054-0.089,0.106-0.089h0.027c0.059,0,0.107,0.048,0.107,0.108v0.326c0,0.06-0.048,0.107-0.107,0.107h-1.836
		c-0.059,0-0.107-0.048-0.107-0.107V6.67c0-0.057,0.044-0.104,0.102-0.107c0.044-0.002,0.069-0.008,0.083-0.013
		C14.278,6.542,14.28,6.526,14.28,6.5V4.577c0-0.069-0.005-0.105-0.01-0.124c-0.011-0.003-0.033-0.006-0.072-0.006
		c-0.059,0-0.107-0.048-0.107-0.107V4.312c0-0.06,0.048-0.107,0.107-0.107H15.887 M15.887,4.051h-1.688
		c-0.144,0-0.26,0.117-0.26,0.261v0.028c0,0.119,0.08,0.22,0.189,0.25v1.83c-0.11,0.031-0.189,0.132-0.189,0.25v0.024
		c0,0.144,0.117,0.261,0.26,0.261h1.836c0.144,0,0.26-0.117,0.26-0.261V6.368c0-0.144-0.117-0.261-0.26-0.261h-0.027
		c-0.127,0-0.235,0.091-0.257,0.217c-0.002,0.01-0.003,0.019-0.005,0.026c-0.033,0.003-0.093,0.005-0.201,0.005h-0.473
		c-0.048,0-0.083-0.001-0.109-0.003c-0.002-0.021-0.003-0.049-0.003-0.087V5.789h0.565c0.048,0.05,0.115,0.08,0.186,0.08h0.027
		c0.144,0,0.261-0.117,0.261-0.261V5.382c0-0.144-0.117-0.261-0.261-0.261h-0.027c-0.073,0-0.14,0.03-0.188,0.08
		c0,0-0.001,0-0.002,0h-0.562V4.653h0.625c0.002,0,0.004,0,0.006,0c0.006,0.019,0.013,0.039,0.019,0.061
		c0.033,0.109,0.135,0.186,0.25,0.186h0.027c0.144,0,0.26-0.117,0.26-0.26V4.312C16.147,4.168,16.03,4.051,15.887,4.051
		L15.887,4.051z"/>
	<path fill="#0C1118" d="M17.286,4.204c0.198,0,0.338,0.004,0.428,0.012c0.099,0.009,0.2,0.037,0.302,0.085
		c0.109,0.051,0.193,0.124,0.25,0.213c0.057,0.09,0.085,0.199,0.085,0.325c0,0.144-0.048,0.282-0.144,0.41
		c-0.07,0.093-0.163,0.176-0.275,0.247l0.122,0.167c0.039,0.061,0.147,0.2,0.322,0.415c0.209,0.256,0.32,0.344,0.377,0.372
		c0.082,0.04,0.161,0.061,0.235,0.061c0.072,0,0.16-0.027,0.26-0.08c0.016-0.008,0.033-0.013,0.05-0.013
		c0.014,0,0.027,0.003,0.04,0.008c0.029,0.012,0.052,0.036,0.062,0.065l0.011,0.032c0.015,0.044-0.001,0.094-0.039,0.121
		c-0.163,0.119-0.376,0.179-0.631,0.179c-0.178,0-0.334-0.048-0.464-0.143c-0.121-0.089-0.319-0.315-0.605-0.694v0
		c-0.003-0.004-0.006-0.008-0.009-0.013L17.43,5.656l-0.186,0.006h-0.11v0.803c0,0.053,0.007,0.079,0.011,0.09
		c0.009,0.002,0.03,0.007,0.072,0.007c0.059,0,0.107,0.048,0.107,0.107v0.024c0,0.06-0.048,0.107-0.107,0.107h-0.693
		c-0.06,0-0.107-0.048-0.107-0.107V6.67c0-0.058,0.046-0.105,0.104-0.107c0.045-0.001,0.069-0.007,0.08-0.01
		c0.003-0.014,0.01-0.045,0.01-0.108V4.551c0-0.04-0.004-0.073-0.014-0.098c-0.009-0.003-0.031-0.009-0.073-0.009
		c-0.06,0-0.106-0.048-0.106-0.108V4.312c0-0.06,0.048-0.107,0.107-0.107H17.286 M17.134,5.385h0.174
		c0.193,0,0.336-0.038,0.422-0.113c0.083-0.072,0.124-0.165,0.124-0.285c0-0.123-0.044-0.236-0.135-0.349
		c-0.083-0.104-0.242-0.156-0.472-0.156h-0.114V5.385 M17.286,4.051h-0.762c-0.144,0-0.261,0.117-0.261,0.261v0.024
		c0,0.121,0.082,0.222,0.193,0.252v1.83c-0.112,0.03-0.193,0.131-0.193,0.252v0.024c0,0.144,0.117,0.261,0.261,0.261h0.693
		c0.144,0,0.26-0.117,0.26-0.261V6.67c0-0.119-0.08-0.22-0.189-0.25V5.813l0.066-0.002L17.44,5.93l-0.003,0.001l0.111,0.148
		c0.299,0.396,0.502,0.626,0.638,0.725c0.157,0.114,0.344,0.172,0.555,0.172c0.288,0,0.531-0.07,0.721-0.208
		c0.093-0.067,0.13-0.186,0.094-0.294l-0.011-0.032c-0.024-0.072-0.079-0.13-0.15-0.159c-0.03-0.012-0.063-0.019-0.096-0.019
		c-0.042,0-0.084,0.01-0.122,0.03c-0.103,0.054-0.162,0.062-0.188,0.062c-0.05,0-0.106-0.015-0.167-0.045
		c-0.016-0.008-0.106-0.061-0.327-0.331c-0.213-0.263-0.287-0.363-0.311-0.401L18.18,5.577l-0.003-0.004l-0.03-0.042
		c0.07-0.058,0.131-0.121,0.183-0.189c0.117-0.155,0.175-0.324,0.175-0.502c0-0.155-0.037-0.292-0.11-0.407
		c-0.073-0.116-0.179-0.206-0.314-0.27c-0.118-0.055-0.237-0.089-0.354-0.099C17.632,4.055,17.488,4.051,17.286,4.051L17.286,4.051z
		 M17.287,5.232V4.636c0.155,0.005,0.266,0.04,0.313,0.099c0.069,0.085,0.101,0.166,0.101,0.253c0,0.076-0.021,0.126-0.07,0.169
		c-0.057,0.049-0.171,0.076-0.322,0.076H17.287L17.287,5.232z"/>
	<path fill="#0C1118" d="M22.246,4.204c0.059,0,0.107,0.048,0.107,0.107v0.024c0,0.059-0.046,0.106-0.104,0.108
		c-0.067,0.002-0.09,0.014-0.092,0.014c-0.002,0.004-0.013,0.028-0.013,0.097v2.169c0,0.043-0.025,0.082-0.065,0.099
		c-0.014,0.006-0.028,0.009-0.042,0.009c-0.027,0-0.053-0.01-0.074-0.029l-1.961-1.853v1.513c0,0.05,0.004,0.074,0.008,0.086
		c0.014,0.003,0.041,0.009,0.092,0.016c0.053,0.007,0.093,0.053,0.093,0.106v0.024c0,0.06-0.048,0.107-0.107,0.107h-0.516
		c-0.059,0-0.107-0.048-0.107-0.107V6.67c0-0.059,0.048-0.107,0.107-0.107c0.049,0,0.075-0.004,0.088-0.008
		c0.004-0.017,0.011-0.056,0.011-0.137V4.806c0-0.124-0.019-0.224-0.055-0.298c-0.021-0.043-0.082-0.065-0.179-0.065
		c-0.009,0-0.018,0-0.027,0c-0.001,0-0.003,0-0.004,0c-0.028,0-0.054-0.011-0.074-0.03c-0.021-0.02-0.033-0.049-0.033-0.078V4.312
		c0-0.06,0.048-0.107,0.107-0.107h0.505c0.027,0,0.054,0.011,0.073,0.029l1.832,1.73V4.532c0-0.044-0.005-0.067-0.009-0.076
		c-0.02-0.008-0.047-0.012-0.079-0.012c-0.06,0-0.107-0.048-0.107-0.108V4.312c0-0.06,0.048-0.107,0.107-0.107H22.246 M22.246,4.051
		h-0.52c-0.144,0-0.261,0.117-0.261,0.261v0.024c0,0.122,0.083,0.224,0.195,0.253v1.02l-1.573-1.486
		c-0.049-0.046-0.112-0.071-0.179-0.071h-0.505c-0.144,0-0.261,0.117-0.261,0.261v0.024c0,0.071,0.029,0.14,0.08,0.188
		c0.049,0.047,0.113,0.073,0.181,0.073h0.004l0.008,0c0.006,0,0.013,0,0.02,0c0.025,0,0.042,0.002,0.052,0.003
		c0.015,0.04,0.029,0.105,0.029,0.207v1.609C19.4,6.44,19.312,6.545,19.312,6.67v0.024c0,0.144,0.117,0.261,0.26,0.261h0.516
		c0.144,0,0.261-0.117,0.261-0.261V6.67c0-0.119-0.081-0.222-0.193-0.251V5.304l1.703,1.608c0.048,0.046,0.111,0.071,0.179,0.071
		c0.035,0,0.07-0.007,0.103-0.021c0.096-0.042,0.158-0.136,0.158-0.24V4.592c0.12-0.023,0.209-0.128,0.209-0.256V4.312
		C22.507,4.168,22.39,4.051,22.246,4.051L22.246,4.051z"/>
	<path fill="#0C1118" d="M24.11,4.13c0.401,0,0.735,0.111,0.994,0.331C25.367,4.685,25.5,4.968,25.5,5.304
		c0,0.42-0.15,0.778-0.448,1.065C24.756,6.655,24.359,6.8,23.875,6.8c-0.398,0-0.729-0.118-0.986-0.351
		c-0.259-0.236-0.39-0.524-0.39-0.856c0-0.22,0.062-0.448,0.184-0.678c0.123-0.231,0.31-0.422,0.556-0.567
		C23.484,4.204,23.777,4.13,24.11,4.13 M24.061,6.498c0.167,0,0.335-0.041,0.5-0.121c0.162-0.08,0.291-0.189,0.382-0.327
		c0.091-0.135,0.137-0.275,0.137-0.416c0-0.209-0.062-0.394-0.188-0.565c-0.128-0.174-0.296-0.312-0.501-0.41
		C24.185,4.56,23.993,4.51,23.822,4.51c-0.243,0-0.458,0.079-0.657,0.242c-0.192,0.158-0.286,0.348-0.286,0.58
		c0,0.31,0.119,0.576,0.365,0.813C23.49,6.382,23.757,6.498,24.061,6.498 M24.11,3.977c-0.36,0-0.68,0.081-0.949,0.239
		c-0.271,0.16-0.477,0.371-0.614,0.627c-0.134,0.252-0.202,0.504-0.202,0.75c0,0.377,0.148,0.703,0.441,0.97
		c0.285,0.259,0.651,0.391,1.089,0.391c0.525,0,0.958-0.16,1.284-0.474c0.328-0.317,0.495-0.713,0.495-1.176
		c0-0.383-0.152-0.706-0.451-0.959C24.916,4.101,24.548,3.977,24.11,3.977L24.11,3.977z M24.061,6.344
		c-0.262,0-0.494-0.102-0.71-0.31c-0.216-0.209-0.318-0.432-0.318-0.702c0-0.186,0.073-0.333,0.23-0.461
		c0.17-0.14,0.353-0.208,0.56-0.208c0.147,0,0.316,0.045,0.502,0.134c0.182,0.088,0.332,0.21,0.444,0.363
		c0.106,0.144,0.158,0.299,0.158,0.474c0,0.11-0.037,0.221-0.11,0.331c-0.077,0.115-0.186,0.207-0.323,0.273
		C24.35,6.309,24.205,6.344,24.061,6.344L24.061,6.344z"/>
</g>
</svg>
