<?xml version="1.0" encoding="utf-8"?>
<!-- Generator: Adobe Illustrator 16.0.0, SVG Export Plug-In . SVG Version: 6.00 Build 0)  -->
<!DOCTYPE svg PUBLIC "-//W3C//DTD SVG 1.1//EN" "http://www.w3.org/Graphics/SVG/1.1/DTD/svg11.dtd">
<svg version="1.1" id="Layer_1" xmlns="http://www.w3.org/2000/svg" xmlns:xlink="http://www.w3.org/1999/xlink" x="0px" y="0px"
	 width="32px" height="32px" viewBox="0 0 32 32" enable-background="new 0 0 32 32" xml:space="preserve">
<g id="Shape_22_copy_11_6_">
	<g>
		
			<linearGradient id="SVGID_1_" gradientUnits="userSpaceOnUse" x1="-190.104" y1="144.1758" x2="-190.104" y2="120" gradientTransform="matrix(1 0 0 -1 206 149)">
			<stop  offset="0" style="stop-color:#BEDCDE"/>
			<stop  offset="0.271" style="stop-color:#BDD8DA"/>
			<stop  offset="0.4107" style="stop-color:#B9D0CF"/>
			<stop  offset="0.5206" style="stop-color:#B5C5C0"/>
			<stop  offset="0.6148" style="stop-color:#AFB6AC"/>
			<stop  offset="0.6991" style="stop-color:#A8A393"/>
			<stop  offset="0.7761" style="stop-color:#9F8E78"/>
			<stop  offset="0.8479" style="stop-color:#95765D"/>
			<stop  offset="0.9153" style="stop-color:#8A5C40"/>
			<stop  offset="0.9771" style="stop-color:#7F3F26"/>
			<stop  offset="1" style="stop-color:#7B321F"/>
		</linearGradient>
		<path fill="url(#SVGID_1_)" d="M27.242,4.825L4.551,4.824c-0.243,0-0.44,0.199-0.44,0.44v11.722
			c0.025,0.395,0.508,0.88,0.508,0.88s10.83,10.874,10.963,11.008c0.135,0.134,0.42,0.2,0.626-0.006
			c0.205-0.207,11.035-11.002,11.035-11.002s0.438-0.457,0.438-0.88V5.264C27.682,5.022,27.484,4.825,27.242,4.825z"/>
	</g>
</g>
<g>
	
		<linearGradient id="SVGID_2_" gradientUnits="userSpaceOnUse" x1="-189.9771" y1="128.8018" x2="-189.9771" y2="138.9211" gradientTransform="matrix(1 0 0 -1 206 149)">
		<stop  offset="0" style="stop-color:#396538"/>
		<stop  offset="0.2959" style="stop-color:#334A2A"/>
		<stop  offset="0.586" style="stop-color:#272E19"/>
	</linearGradient>
	<path fill="url(#SVGID_2_)" d="M24.813,18.366c0,0-0.768-0.443-1.898-0.738c0.12-1.098,0.107-2.448-0.674-2.618
		c-0.617-0.133-1.299,0.128-2.385,0.801c-0.197,0.123-0.315,0.207-0.379,0.265c-0.244,0.176-0.508,0.4-0.789,0.678
		c-0.178,0.074-0.365,0.155-0.567,0.247c-0.528,0.24-0.911,0.717-1.19,1.274c-0.007,0.002-0.013,0.006-0.018,0.009
		c0.204-0.943,0.52-1.957,1.011-2.788c0.952-0.567,1.947-0.83,1.947-0.83s-0.681-0.078-1.533,0.231
		c0.122-0.151,0.253-0.293,0.394-0.423c1.91-1.748,6.774-2.116,6.774-2.116s-4.8-0.771-7.739,2.199
		c-0.25,0.252-0.457,0.606-0.632,1.021c-0.172,0.139-0.344,0.297-0.514,0.481c0.124-0.623,0.313-1.222,0.604-1.735
		c0.903-0.798,1.916-1.24,1.916-1.24s-0.445-0.054-1.041,0.168c1.709-1.566,4.629-2.419,4.629-2.419s-3.479-0.319-5.766,2.901
		c-0.105,0.15-0.197,0.331-0.277,0.534c-0.035,0.04-0.07,0.081-0.104,0.124c0.104-1.131,0.224-2.082,0.353-2.557
		c1-3.378,3.553-3.889,3.553-3.889s-0.754-0.702-2.907,1.602c-0.964,1.03-1.394,2.851-1.566,4.796
		c-0.089-0.469-0.201-0.923-0.341-1.35c0.333-0.768,0.631-1.375,0.631-1.375s-0.273,0.275-0.738,1.068
		c-0.289-0.779-0.682-1.455-1.223-1.943c-2.344-2.123-3.54-2.648-3.54-2.648s3.831,3.416,4.297,4.73
		c0.042,0.123,0.086,0.281,0.13,0.466c-0.081,0.155-0.168,0.324-0.259,0.507c-0.55-0.784-0.977-1.172-1.486-1.267
		c-0.242-0.045-0.461,0.053-0.659,0.239c-3.323-2.72-6.116-2.421-6.116-2.421s3.569,1.093,5.793,2.825
		c-0.047,0.072-0.091,0.148-0.135,0.228c-1.438-1.114-2.107-1.338-2.107-1.338s1.016,0.806,1.942,1.669
		c-0.057,0.121-0.109,0.247-0.158,0.372c-3.345-1.617-5.503,0.644-5.503,0.644s2.891-1.341,5.308-0.104
		c-0.095,0.288-0.17,0.551-0.221,0.743c-0.888-0.125-1.536,0.145-1.536,0.145s1.625,0.114,2.865,0.794
		c-0.47-0.158-0.789-0.203-0.789-0.203s0.797,0.331,1.634,0.845c0.431,0.474,0.75,1.159,0.982,1.837
		c-0.018-0.021-0.045-0.047-0.081-0.082c-0.062-0.074-0.124-0.146-0.187-0.217c-0.264-0.516-0.559-0.958-0.87-1.181
		c-2.219-1.585-4.365-0.515-4.365-0.515s2.42-0.27,3.825,0.621c0.075,0.047,0.146,0.101,0.219,0.158
		c-0.034-0.014-0.069-0.025-0.103-0.035c-3.048-0.9-5.807,0.743-5.807,0.743s3.202-0.95,5.119-0.495
		c0.192,0.045,0.377,0.111,0.555,0.192c-0.11,0.126-0.159,0.351-0.173,0.592c-0.045-0.021-0.101-0.042-0.174-0.067
		c-0.725-0.267-1.155-0.326-1.471-0.127c-0.404,0.252-0.129,1.158,0.161,1.857c-0.562,0.395-0.892,0.82-0.892,0.82
		s0.421-0.315,0.976-0.624c0.162,0.368,0.306,0.638,0.306,0.638s-0.055-0.332-0.114-0.742c0.483-0.25,1.034-0.471,1.508-0.484
		c1.067-0.029,2.119,1.322,2.119,1.322s0.007,0.002,0.017,0.002c0.018,0.06,0.027,0.092,0.027,0.092s0.156,0.156,0.158,0.021
		c0-0.002-0.002-0.008-0.002-0.013c0.017,0.018,0.027,0.028,0.027,0.028s-0.013-0.03-0.037-0.082
		c-0.011-0.043-0.026-0.107-0.048-0.185c0.028,0.089,0.045,0.136,0.045,0.136s-0.026-0.154-0.071-0.416
		c0.017,0.055,0.031,0.104,0.045,0.148c0.004,0.085,0.01,0.141,0.014,0.152c0.012,0.037,0.028,0.045,0.046,0.039
		c0.025,0.086,0.04,0.135,0.04,0.135s-0.008-0.051-0.023-0.145c0.023-0.018,0.047-0.055,0.063-0.08
		c0.03,0.01,0.083-0.047,0.083-0.047s0.009-0.056,0.029-0.15c0.163,0.287,0.245,0.502,0.245,0.502s0.006,0.004,0.014,0.009
		C16.002,21.369,16,21.393,16,21.393s0.084,0.16,0.133,0.088c0.001-0.002,0.002-0.004,0.003-0.008
		c0.01,0.019,0.016,0.028,0.016,0.028s-0.002-0.022-0.006-0.063c0.006-0.027,0.015-0.069,0.021-0.121
		c-0.005,0.062-0.007,0.096-0.007,0.096s0.024-0.082,0.068-0.221v0.002c0,0,0.004-0.006,0.011-0.017
		c-0.003,0.027-0.007,0.054-0.009,0.078c-0.025,0.047-0.041,0.079-0.042,0.088c-0.003,0.024,0.009,0.037,0.027,0.043
		c-0.007,0.06-0.01,0.093-0.01,0.093s0.01-0.033,0.028-0.09c0.027,0.002,0.061-0.006,0.084-0.013
		c0.024,0.021,0.093,0.017,0.093,0.017s0.912-0.834,1.979-0.728c1.104,0.108,2.756,1.035,2.756,1.035s-1.32-1.161-3.102-1.253
		c-0.586-0.03-1.291,0.496-1.591,0.761c0.312-0.435,1.239-1.597,2.476-1.829c0.137,0.278,0.242,0.508,0.242,0.508
		s-0.005-0.236-0.045-0.539c1.564-0.197,3.948,0.529,3.948,0.529s-1.812-1.057-3.995-0.818c-0.036-0.181-0.087-0.365-0.155-0.524
		c1.166-0.38,2.888-0.206,3.677-0.097c0.055,0.328,0.092,0.551,0.092,0.551s0.045-0.205,0.102-0.522
		c0.143,0.022,0.225,0.038,0.225,0.038s-0.076-0.043-0.213-0.105c0.023-0.137,0.049-0.291,0.069-0.457
		C23.954,18.118,24.813,18.366,24.813,18.366z M21.044,15.32c0.332-0.147,0.677,0.122,0.917,0.448
		c0.141,0.193,0.322,0.989,0.469,1.748c-0.977-0.193-2.168-0.25-3.425,0.133c-0.153,0.049-0.307,0.125-0.456,0.225
		c0.329-0.432,0.664-0.85,0.987-1.221c0.606-0.296,1.108-0.518,1.108-0.518s-0.275,0.033-0.826,0.203
		C20.275,15.847,20.7,15.472,21.044,15.32z M14.773,15.695c0.005-0.238,0.1-0.607,0.237-1.024c0.089,0.29,0.173,0.606,0.252,0.937
		c-0.092,0.179-0.172,0.417-0.252,0.728c-0.075-0.192-0.155-0.383-0.237-0.57C14.772,15.741,14.772,15.717,14.773,15.695z
		 M16.729,16.875c-0.021-0.095-0.043-0.188-0.069-0.279c0.039,0.041,0.073,0.08,0.108,0.117
		C16.753,16.768,16.74,16.82,16.729,16.875z M17.241,18.602c-0.046,0.039-0.074,0.068-0.091,0.088
		c-0.025,0.025-0.053,0.053-0.078,0.08c0.051-0.127,0.102-0.246,0.148-0.354c0.057-0.024,0.115-0.05,0.176-0.071
		C17.343,18.43,17.291,18.516,17.241,18.602z M15.299,15.758c0.082,0.352,0.158,0.717,0.23,1.081
		c-0.007,0.048-0.014,0.099-0.021,0.147c-0.122-0.123-0.246-0.234-0.371-0.336c-0.001-0.002-0.003-0.006-0.003-0.008
		c0.009-0.337,0.04-0.616,0.104-0.792C15.254,15.812,15.274,15.783,15.299,15.758z M15.675,17.624
		c0.013,0.075,0.025,0.149,0.039,0.222c-0.017,0.086-0.033,0.172-0.048,0.26c-0.029-0.088-0.06-0.178-0.091-0.268
		c0.011-0.096,0.021-0.193,0.035-0.289C15.633,17.574,15.653,17.6,15.675,17.624z M15.452,17.492
		c-0.021-0.061-0.044-0.121-0.065-0.184c0.025,0.026,0.051,0.053,0.076,0.078C15.46,17.422,15.455,17.457,15.452,17.492z
		 M15.294,17.768c-0.045-0.045-0.091-0.09-0.136-0.133c-0.006-0.095-0.01-0.188-0.014-0.279
		C15.196,17.495,15.246,17.632,15.294,17.768z M15.518,18.507c0.02,0.032,0.037,0.065,0.055,0.099
		c0.006,0.02,0.011,0.039,0.018,0.058c-0.006,0.035-0.009,0.071-0.012,0.106c-0.021-0.058-0.044-0.115-0.065-0.172
		C15.514,18.566,15.516,18.537,15.518,18.507z M15.514,19.609c-0.001,0.037-0.003,0.074-0.005,0.108
		c-0.007-0.011-0.015-0.022-0.022-0.032c0-0.049-0.001-0.096-0.001-0.146C15.496,19.564,15.506,19.587,15.514,19.609z
		 M15.765,19.261c0.012,0.042,0.022,0.083,0.033,0.122c-0.012-0.035-0.024-0.07-0.035-0.104
		C15.763,19.271,15.764,19.266,15.765,19.261z M16.446,18.443c-0.011-0.045-0.023-0.09-0.036-0.133
		c0.003-0.403,0.021-0.832,0.064-1.266c0.009,0.038,0.018,0.074,0.021,0.105c0.024,0.191,0.024,0.505,0.01,0.879
		C16.484,18.169,16.465,18.307,16.446,18.443z M14.9,16.865c-0.007,0.045-0.013,0.093-0.02,0.143
		c-0.008-0.06-0.015-0.119-0.021-0.177C14.873,16.843,14.888,16.854,14.9,16.865z M15.358,19.227
		c-0.001,0.092-0.003,0.18-0.003,0.266c-0.01-0.014-0.02-0.027-0.029-0.04c-0.016-0.132-0.031-0.271-0.047-0.413
		C15.308,19.104,15.333,19.165,15.358,19.227z M15.031,19.643c0,0.002,0.001,0.002,0.001,0.004c-0.01-0.006-0.018-0.012-0.027-0.019
		C15,19.616,14.994,19.604,14.99,19.59C15.004,19.607,15.018,19.625,15.031,19.643z M17.463,17.943
		c0.086-0.127,0.288-0.286,0.551-0.455c-0.141,0.169-0.27,0.34-0.39,0.512c-0.078,0.02-0.158,0.043-0.237,0.072
		C17.413,18.023,17.438,17.98,17.463,17.943z M16.877,16.308c-0.02,0.063-0.036,0.128-0.054,0.193
		c-0.015-0.027-0.029-0.056-0.046-0.084C16.811,16.379,16.843,16.344,16.877,16.308z M15.481,14.649
		c-0.035-0.07-0.07-0.139-0.106-0.202c-0.026-0.064-0.082-0.162-0.175-0.305c0.043-0.114,0.088-0.229,0.134-0.343
		C15.384,14.055,15.433,14.341,15.481,14.649z M13.407,13.271c0.329-0.191,0.726-0.295,0.944-0.05
		c0.12,0.135,0.235,0.333,0.343,0.575c-0.086-0.083-0.132-0.12-0.132-0.12S14.647,13.8,14.781,14
		c0.013,0.032,0.025,0.065,0.038,0.099c0,0.001,0,0.002-0.001,0.002c-0.155,0.322-0.245,0.705-0.29,1.121
		c-0.36-0.764-0.75-1.451-1.154-1.928C13.386,13.285,13.397,13.277,13.407,13.271z M14.494,15.846
		c-0.001,0.122,0.001,0.244,0.006,0.368c-0.053-0.029-0.104-0.057-0.155-0.083c-0.064-0.106-0.13-0.208-0.195-0.307
		c-0.35-0.83-0.765-1.552-1.259-1.999c0.048-0.06,0.094-0.118,0.139-0.172C13.608,14.257,14.093,15.035,14.494,15.846z
		 M13.249,14.808c-0.051-0.04-0.103-0.077-0.155-0.111c-0.199-0.129-0.397-0.248-0.595-0.356c0.047-0.063,0.093-0.125,0.14-0.188
		C12.868,14.381,13.08,14.604,13.249,14.808z M13.927,16.628c-0.778-0.784-1.541-1.109-2.182-1.223
		c0.109-0.159,0.253-0.366,0.411-0.589c0.789,0.474,1.445,1.23,1.982,2.054c-0.01-0.006-0.02-0.013-0.031-0.019
		C14.049,16.768,13.989,16.691,13.927,16.628z M14.375,18.91c0.101,0.175,0.195,0.354,0.28,0.529
		c-0.288-0.138-0.571-0.236-0.839-0.307c-0.206-0.152-0.392-0.273-0.563-0.371c0.081-0.227,0.165-0.423,0.226-0.473
		c0.021-0.016,0.041-0.032,0.064-0.046C13.846,18.436,14.124,18.665,14.375,18.91z M11.674,20.094
		c-0.071-0.523-0.132-1.082-0.093-1.236c0.065-0.26,0.204-0.502,0.416-0.461c0.23,0.045,0.554,0.238,0.916,0.506
		c0.001,0.029,0.002,0.059,0.003,0.086c-0.586-0.038-0.982,0.043-0.982,0.043s0.438,0.018,0.993,0.102
		c0.021,0.25,0.054,0.444,0.06,0.475C12.482,19.68,12.039,19.871,11.674,20.094z M13.54,19.58c-0.192-0.007-0.375,0.003-0.551,0.027
		c0.009-0.031,0.061-0.217,0.131-0.443c0.057,0.01,0.112,0.021,0.169,0.031c0.176,0.142,0.354,0.295,0.53,0.451
		C13.724,19.607,13.629,19.583,13.54,19.58z M14.174,19.426c0.139,0.049,0.272,0.104,0.394,0.166
		c0.078,0.04,0.152,0.085,0.224,0.135c0.134,0.291,0.246,0.57,0.336,0.81C14.9,20.195,14.584,19.793,14.174,19.426z M15.654,20.686
		c0-0.006,0-0.013,0-0.02c0.001,0.001,0.002,0.002,0.003,0.003C15.656,20.675,15.655,20.682,15.654,20.686z M16.017,20.825
		c0.004,0.002,0.008,0.006,0.014,0.009c0,0.011,0,0.023,0,0.036C16.025,20.855,16.021,20.84,16.017,20.825z M18.41,19.172
		c-0.532,0.122-1.068,0.619-1.484,1.111c0.133-0.209,0.301-0.455,0.498-0.709c0.321-0.346,0.704-0.672,1.139-0.889
		c0.07,0.119,0.149,0.265,0.228,0.414C18.664,19.12,18.537,19.145,18.41,19.172z M18.827,18.271c0.12-0.074,0.243-0.142,0.372-0.199
		c0.172-0.002,0.277,0.004,0.277,0.004s-0.061-0.023-0.164-0.053c0.125-0.049,0.254-0.092,0.388-0.125
		c0.817-0.203,1.864-0.146,2.8-0.014c0.025,0.148,0.053,0.289,0.075,0.42C21.895,18.042,20.502,17.682,18.827,18.271z"/>
	<g>
		
			<linearGradient id="SVGID_3_" gradientUnits="userSpaceOnUse" x1="-189.9673" y1="124.0566" x2="-189.9673" y2="128.417" gradientTransform="matrix(1 0 0 -1 206 149)">
			<stop  offset="0" style="stop-color:#DDD5B3"/>
			<stop  offset="0.0027" style="stop-color:#DCD4B2"/>
			<stop  offset="0.1989" style="stop-color:#A3A17E"/>
			<stop  offset="0.2357" style="stop-color:#929672"/>
			<stop  offset="0.3018" style="stop-color:#798761"/>
			<stop  offset="0.374" style="stop-color:#657B52"/>
			<stop  offset="0.4524" style="stop-color:#567247"/>
			<stop  offset="0.5397" style="stop-color:#496C40"/>
			<stop  offset="0.6404" style="stop-color:#40683B"/>
			<stop  offset="0.7667" style="stop-color:#3B6639"/>
			<stop  offset="1" style="stop-color:#396538"/>
		</linearGradient>
		<rect x="15.629" y="20.583" fill="url(#SVGID_3_)" width="0.808" height="4.36"/>
		<rect x="15.629" y="24.813" fill="#81735C" width="0.808" height="0.131"/>
		<rect x="15.629" y="24.943" fill="#DDD5B3" width="0.808" height="4.359"/>
	</g>
	<g>
		
			<linearGradient id="SVGID_4_" gradientUnits="userSpaceOnUse" x1="-134.645" y1="125.9678" x2="-134.645" y2="130.3359" gradientTransform="matrix(0.7466 0.0032 -0.0032 -1 116.4038 150.3569)">
			<stop  offset="0" style="stop-color:#DDD5B3"/>
			<stop  offset="0.0027" style="stop-color:#DCD4B2"/>
			<stop  offset="0.1989" style="stop-color:#A3A17E"/>
			<stop  offset="0.2357" style="stop-color:#929672"/>
			<stop  offset="0.3018" style="stop-color:#798761"/>
			<stop  offset="0.374" style="stop-color:#657B52"/>
			<stop  offset="0.4524" style="stop-color:#567247"/>
			<stop  offset="0.5397" style="stop-color:#496C40"/>
			<stop  offset="0.6404" style="stop-color:#40683B"/>
			<stop  offset="0.7667" style="stop-color:#3B6639"/>
			<stop  offset="1" style="stop-color:#396538"/>
		</linearGradient>
		<polygon fill="url(#SVGID_4_)" points="15.802,23.952 15.199,23.958 15.133,19.6 15.736,19.592 		"/>
		
			<rect x="15.197" y="23.825" transform="matrix(-0.9999 0.0113 -0.0113 -0.9999 31.2659 47.6011)" fill="#81735C" width="0.603" height="0.129"/>
		<polygon fill="#DDD5B3" points="15.868,28.311 15.265,28.316 15.199,23.958 15.802,23.952 		"/>
		
			<rect x="15.264" y="28.187" transform="matrix(-1 0.0097 -0.0097 -1 31.4061 56.3496)" fill="#81735C" width="0.604" height="0.129"/>
		
			<rect x="15.215" y="25.576" transform="matrix(-1 0.0097 -0.0097 -1 31.2812 51.1295)" fill="#81735C" width="0.604" height="0.129"/>
		
			<rect x="15.275" y="28.315" transform="matrix(-1 0.0097 -0.0097 -1 31.4393 58.9569)" fill="#DDD5B3" width="0.604" height="2.479"/>
	</g>
	<g>
		
			<linearGradient id="SVGID_5_" gradientUnits="userSpaceOnUse" x1="-135.5244" y1="123.3232" x2="-135.5244" y2="127.6953" gradientTransform="matrix(0.7578 -0.0049 0.0049 -0.9999 118.7428 147.0976)">
			<stop  offset="0" style="stop-color:#DDD5B3"/>
			<stop  offset="0.0027" style="stop-color:#DCD4B2"/>
			<stop  offset="0.1989" style="stop-color:#A3A17E"/>
			<stop  offset="0.2357" style="stop-color:#929672"/>
			<stop  offset="0.3018" style="stop-color:#798761"/>
			<stop  offset="0.374" style="stop-color:#657B52"/>
			<stop  offset="0.4524" style="stop-color:#567247"/>
			<stop  offset="0.5397" style="stop-color:#496C40"/>
			<stop  offset="0.6404" style="stop-color:#40683B"/>
			<stop  offset="0.7667" style="stop-color:#3B6639"/>
			<stop  offset="1" style="stop-color:#396538"/>
		</linearGradient>
		<polygon fill="url(#SVGID_5_)" points="16.911,24.448 16.299,24.438 16.402,20.08 17.016,20.089 		"/>
		
			<rect x="16.301" y="24.313" transform="matrix(-0.9999 -0.0159 0.0159 -0.9999 32.824 49.0186)" fill="#81735C" width="0.612" height="0.13"/>
		
			<rect x="16.335" y="23.308" transform="matrix(-0.9999 -0.016 0.016 -0.9999 32.9058 47.0079)" fill="#81735C" width="0.611" height="0.13"/>
		<polygon fill="#DDD5B3" points="16.807,28.807 16.194,28.796 16.299,24.438 16.911,24.448 		"/>
		
			<rect x="16.249" y="26.591" transform="matrix(-0.9999 -0.0159 0.0159 -0.9999 32.6848 53.5727)" fill="#81735C" width="0.613" height="0.131"/>
	</g>
</g>
<path fill="#D69976" d="M27.207,3.989H4.82c-0.834,0-1.331,0.616-1.331,1.211v12.269c0,1.055,0.613,1.818,0.64,1.852l0.012,0.014
	l0.012,0.014c3.288,3.504,10.948,11.67,11.11,11.814c0.196,0.174,0.468,0.273,0.745,0.273c0.274,0,0.537-0.1,0.74-0.281
	c0.253-0.225,9.369-9.874,11.193-11.807l0.029-0.031l0.023-0.035c0.058-0.081,0.543-0.815,0.543-1.658V5.2
	C28.538,4.628,27.992,3.989,27.207,3.989z M27.832,17.628c0,0.795-0.46,1.489-0.512,1.563l-0.023,0.035l-0.027,0.029
	c-1.723,1.824-10.324,10.928-10.563,11.141c-0.19,0.17-0.439,0.266-0.698,0.266c-0.263,0-0.519-0.096-0.703-0.26
	c-0.152-0.135-7.381-7.842-10.482-11.147l-0.011-0.013l-0.013-0.014c-0.023-0.029-0.604-0.75-0.604-1.746V5.906
	c0-0.563,0.471-1.142,1.258-1.142h21.121c0.74,0,1.258,0.603,1.258,1.142V17.628z"/>
<path fill="#84C3EA" d="M16.008,30.333c-0.006,0-0.014-0.002-0.02-0.004c-0.518-0.531-8.07-8.58-11.013-11.718
	c-0.053-0.072-0.384-0.541-0.384-1.144V5.206C4.595,5.187,4.624,5.092,4.82,5.092h22.387c0.154,0,0.215,0.104,0.229,0.13v12.4
	c0,0.399-0.224,0.838-0.328,1.003c-2.996,3.172-10.697,11.318-11.094,11.707C16.012,30.333,16.011,30.333,16.008,30.333z
	 M25.973,18.13c0.104-0.116,0.258-0.362,0.258-0.479V6.483H5.637v11.144c0.015,0.098,0.169,0.34,0.315,0.5
	c0.094,0.1,8.86,9.371,9.978,10.55C17.023,27.525,25.719,18.396,25.973,18.13z"/>
<path id="Shape_22_copy_12_6_" fill="#0E141F" d="M27.207,4.541H4.82c-0.555,0-0.779,0.398-0.779,0.66V17.47
	c0,0.871,0.514,1.501,0.514,1.501s10.914,11.637,11.074,11.78c0.162,0.144,0.505,0.213,0.752-0.008
	c0.248-0.22,11.16-11.772,11.16-11.772s0.445-0.65,0.445-1.347V5.2C27.986,4.939,27.699,4.541,27.207,4.541z M26.781,17.65
	c0,0.41-0.403,0.854-0.403,0.854s-9.97,10.468-10.159,10.667c-0.189,0.199-0.452,0.137-0.575,0.006
	c-0.123-0.13-10.091-10.673-10.091-10.673s-0.444-0.47-0.468-0.854V6.357c0-0.235,0.182-0.426,0.404-0.426h20.889
	c0.224,0,0.403,0.191,0.403,0.426V17.65z"/>
<g>
	<path fill="#84C3EA" d="M25.919,5.569c0,0.867-0.751,1.569-1.679,1.569H7.729c-0.927,0-1.678-0.702-1.678-1.569V2.432
		c0-0.866,0.751-1.569,1.678-1.569H24.24c0.928,0,1.679,0.703,1.679,1.569V5.569z"/>
	<path fill="#363938" d="M7.668,6.718c-0.622,0-1.129-0.477-1.129-1.063V2.347c0-0.585,0.507-1.063,1.129-1.063h16.634
		c0.622,0,1.128,0.478,1.128,1.063v3.308c0,0.587-0.506,1.063-1.128,1.063H7.668z"/>
</g>
<g enable-background="new    ">
	<path fill="#151515" d="M9.71,2.54v0.145C9.658,2.698,9.619,2.721,9.592,2.75S9.551,2.816,9.551,2.859
		c0,0.042,0.011,0.078,0.034,0.109c0.022,0.032,0.059,0.062,0.11,0.09c0.035,0.02,0.114,0.056,0.238,0.11
		c0.075,0.032,0.133,0.062,0.174,0.088c0.042,0.026,0.081,0.06,0.117,0.099c0.099,0.104,0.148,0.227,0.148,0.369
		c0,0.107-0.027,0.206-0.08,0.296c-0.054,0.089-0.127,0.159-0.221,0.21c-0.05,0.027-0.105,0.048-0.165,0.063S9.792,4.317,9.74,4.317
		V4.174c0.073-0.017,0.125-0.041,0.157-0.073c0.032-0.031,0.048-0.073,0.048-0.127c0-0.056-0.025-0.104-0.075-0.147
		C9.837,3.799,9.773,3.765,9.68,3.724C9.578,3.679,9.507,3.646,9.469,3.627C9.431,3.608,9.395,3.585,9.359,3.56
		C9.203,3.447,9.124,3.299,9.124,3.112c0-0.095,0.02-0.183,0.059-0.264c0.039-0.08,0.094-0.146,0.164-0.194
		C9.445,2.586,9.566,2.548,9.71,2.54z M9.645,4.174v0.144c-0.068,0-0.144-0.02-0.227-0.06C9.388,4.244,9.366,4.234,9.354,4.23
		S9.332,4.225,9.321,4.225c-0.017,0-0.029,0.003-0.038,0.008c-0.008,0.006-0.022,0.02-0.04,0.041
		C9.228,4.292,9.212,4.301,9.194,4.301c-0.047,0-0.07-0.036-0.07-0.107V3.737c0-0.023,0.007-0.043,0.02-0.06
		c0.014-0.017,0.03-0.024,0.05-0.025c0.018-0.001,0.033,0.004,0.043,0.016c0.011,0.011,0.02,0.031,0.027,0.06
		c0.02,0.071,0.047,0.139,0.083,0.201s0.079,0.116,0.127,0.159C9.524,4.133,9.581,4.162,9.645,4.174z M9.809,2.685V2.547
		c0.05,0.003,0.093,0.01,0.13,0.02c0.037,0.01,0.089,0.028,0.156,0.057c0.017,0.007,0.03,0.01,0.042,0.01
		c0.016,0,0.027-0.005,0.035-0.016L10.2,2.58c0.013-0.018,0.03-0.027,0.049-0.027c0.022,0,0.039,0.009,0.049,0.024
		c0.011,0.017,0.016,0.042,0.016,0.077v0.413c0,0.024-0.007,0.044-0.021,0.06S10.261,3.15,10.24,3.15
		c-0.017,0-0.032-0.006-0.046-0.017c-0.007-0.007-0.014-0.015-0.018-0.024c-0.005-0.01-0.009-0.025-0.013-0.048
		c-0.009-0.041-0.025-0.083-0.047-0.127c-0.023-0.043-0.049-0.082-0.079-0.116C9.976,2.751,9.9,2.706,9.809,2.685z"/>
	<path fill="#151515" d="M10.675,3.783V2.802c0-0.029-0.005-0.05-0.015-0.063c-0.005-0.008-0.01-0.013-0.014-0.015
		s-0.021-0.008-0.048-0.017c-0.033-0.011-0.05-0.033-0.05-0.066c0-0.021,0.008-0.038,0.024-0.05
		c0.016-0.011,0.039-0.017,0.069-0.017h0.033h0.558h0.033l0.045,0.005c0.014,0.004,0.026,0.012,0.035,0.022s0.014,0.024,0.014,0.039
		c0,0.033-0.017,0.056-0.05,0.066c-0.028,0.009-0.044,0.015-0.048,0.017s-0.009,0.007-0.015,0.015
		c-0.01,0.014-0.015,0.034-0.015,0.063v1.051c0,0.071,0.002,0.12,0.005,0.148c0.004,0.028,0.012,0.053,0.023,0.075
		c0.011,0.021,0.023,0.036,0.036,0.046c0.013,0.009,0.039,0.02,0.076,0.031v0.164h-0.027c-0.108,0-0.199-0.01-0.271-0.029
		c-0.084-0.022-0.158-0.056-0.222-0.1c-0.063-0.045-0.108-0.095-0.135-0.149C10.689,3.98,10.675,3.896,10.675,3.783z M11.488,4.317
		V4.153c0.083-0.011,0.153-0.045,0.209-0.103c0.063-0.066,0.095-0.161,0.095-0.284V2.95c0-0.114-0.043-0.194-0.131-0.239
		c-0.026-0.014-0.042-0.025-0.051-0.035c-0.008-0.009-0.012-0.023-0.012-0.041c0-0.022,0.008-0.037,0.024-0.047
		c0.016-0.009,0.042-0.014,0.078-0.014h0.307c0.026,0,0.043,0.001,0.052,0.002s0.018,0.004,0.026,0.01
		c0.021,0.012,0.032,0.029,0.032,0.051c0,0.019-0.006,0.034-0.02,0.047c-0.004,0.004-0.022,0.015-0.054,0.033
		c-0.037,0.021-0.065,0.051-0.086,0.092c-0.021,0.042-0.031,0.089-0.031,0.142v0.817c0,0.14-0.031,0.255-0.093,0.346
		c-0.045,0.066-0.109,0.12-0.194,0.16C11.597,4.293,11.546,4.308,11.488,4.317z"/>
	<path fill="#151515" d="M12.957,2.54v0.14c-0.073,0.018-0.11,0.075-0.11,0.175v1.166c0,0.045,0.006,0.079,0.019,0.104
		c0.011,0.021,0.034,0.037,0.069,0.052v0.142c-0.027,0-0.051-0.003-0.073-0.007s-0.052-0.013-0.088-0.024
		c-0.087-0.03-0.167-0.076-0.238-0.138c-0.071-0.063-0.129-0.136-0.175-0.222c-0.071-0.135-0.106-0.294-0.106-0.478
		c0-0.178,0.032-0.335,0.095-0.473s0.154-0.246,0.273-0.325c0.068-0.046,0.142-0.078,0.22-0.099
		C12.874,2.545,12.913,2.54,12.957,2.54z M13.625,4.074c-0.033,0.033-0.078,0.067-0.133,0.102c-0.055,0.035-0.108,0.063-0.157,0.082
		c-0.045,0.018-0.095,0.032-0.15,0.043s-0.103,0.017-0.145,0.017V4.176c0.024-0.006,0.042-0.013,0.054-0.021
		c0.012-0.009,0.022-0.021,0.031-0.035c0.014-0.025,0.021-0.059,0.021-0.099V3.654c0-0.032-0.006-0.056-0.019-0.069
		c-0.006-0.009-0.012-0.014-0.017-0.016c-0.006-0.003-0.025-0.007-0.058-0.015c-0.04-0.01-0.06-0.033-0.06-0.07
		c0-0.021,0.009-0.038,0.028-0.05c0.019-0.012,0.046-0.018,0.083-0.018h0.041h0.458c0.038,0,0.064,0.005,0.08,0.016
		c0.015,0.011,0.023,0.028,0.023,0.055c0,0.016-0.003,0.028-0.009,0.039s-0.018,0.021-0.035,0.033s-0.027,0.022-0.031,0.032
		c-0.004,0.011-0.006,0.028-0.006,0.056V4.074z M13.059,2.677V2.542c0.136,0.012,0.248,0.037,0.336,0.075
		c0.026,0.012,0.046,0.018,0.06,0.018c0.013,0,0.023-0.004,0.03-0.01c0.007-0.006,0.021-0.024,0.043-0.054
		c0.015-0.021,0.034-0.031,0.056-0.031c0.023,0,0.04,0.007,0.05,0.02c0.009,0.014,0.014,0.035,0.014,0.064v0.487
		c0,0.063-0.023,0.095-0.07,0.095c-0.023,0-0.041-0.006-0.052-0.019s-0.022-0.037-0.032-0.073c-0.013-0.047-0.035-0.102-0.068-0.164
		c-0.032-0.062-0.064-0.111-0.094-0.146c-0.034-0.042-0.073-0.073-0.115-0.093S13.123,2.681,13.059,2.677z"/>
	<path fill="#151515" d="M14.31,2.893l0.063,0.259L14.152,3.96c-0.006,0.023-0.01,0.045-0.01,0.065c0,0.053,0.024,0.09,0.074,0.112
		l0.044,0.021c0.027,0.013,0.042,0.033,0.042,0.063c0,0.042-0.031,0.063-0.092,0.063h-0.318c-0.031,0-0.055-0.007-0.073-0.02
		s-0.027-0.03-0.027-0.053c0-0.024,0.019-0.045,0.055-0.061c0.034-0.015,0.06-0.028,0.076-0.041
		c0.016-0.012,0.032-0.028,0.047-0.049c0.023-0.034,0.042-0.08,0.058-0.137L14.31,2.893z M14.396,2.574h0.505l0.348,1.471
		c0.006,0.026,0.014,0.049,0.022,0.069c0.007,0.016,0.024,0.028,0.05,0.039c0.022,0.009,0.037,0.018,0.045,0.027
		c0.008,0.009,0.012,0.021,0.012,0.037c0,0.044-0.032,0.065-0.098,0.065h-0.625c-0.025,0-0.045-0.006-0.06-0.019
		c-0.015-0.012-0.022-0.027-0.022-0.048c0-0.017,0.003-0.029,0.01-0.037c0.007-0.009,0.022-0.02,0.045-0.031
		c0.017-0.009,0.028-0.018,0.035-0.028c0.007-0.01,0.01-0.022,0.01-0.037s-0.001-0.026-0.004-0.038l-0.04-0.181h-0.349l0.034-0.149
		h0.28l-0.23-1.018L14.396,2.574z"/>
	<path fill="#151515" d="M16.166,2.574v1.471c0,0.033,0.006,0.057,0.019,0.07c0.006,0.009,0.013,0.014,0.019,0.016
		s0.025,0.008,0.058,0.016c0.04,0.01,0.06,0.032,0.06,0.069c0,0.021-0.011,0.039-0.032,0.053c-0.016,0.01-0.042,0.015-0.079,0.015
		h-0.042h-0.559h-0.032c-0.03,0-0.053-0.006-0.07-0.017c-0.016-0.012-0.024-0.027-0.024-0.049c0-0.034,0.017-0.057,0.05-0.067
		c0.027-0.009,0.043-0.015,0.048-0.017c0.004-0.002,0.009-0.007,0.014-0.015c0.01-0.014,0.015-0.034,0.015-0.063V2.802
		c0-0.029-0.005-0.05-0.015-0.063c-0.005-0.008-0.01-0.013-0.014-0.015c-0.005-0.002-0.021-0.008-0.048-0.017
		c-0.034-0.011-0.05-0.033-0.05-0.067c0-0.021,0.008-0.037,0.024-0.049c0.017-0.011,0.04-0.017,0.07-0.017h0.032H16.166z
		 M16.55,3.445c0.077,0.012,0.136,0.025,0.177,0.039c0.042,0.015,0.079,0.033,0.113,0.058c0.035,0.026,0.062,0.057,0.08,0.093
		c0.02,0.036,0.028,0.074,0.028,0.114v0.259c0,0.026,0.009,0.04,0.026,0.04c0.006,0,0.012-0.002,0.017-0.006s0.011-0.011,0.02-0.021
		c0.021-0.028,0.042-0.043,0.063-0.043c0.015,0,0.029,0.008,0.043,0.022c0.014,0.016,0.021,0.03,0.021,0.045
		c0,0.026-0.013,0.058-0.037,0.095c-0.025,0.037-0.055,0.07-0.092,0.1c-0.035,0.027-0.072,0.048-0.111,0.06
		c-0.041,0.012-0.088,0.019-0.142,0.019c-0.11,0-0.196-0.032-0.258-0.095c-0.062-0.063-0.092-0.151-0.092-0.264v-0.21
		c0-0.047,0-0.074-0.001-0.082C16.4,3.634,16.389,3.605,16.37,3.581c-0.024-0.029-0.059-0.047-0.104-0.052V3.396
		c0.045-0.007,0.077-0.019,0.097-0.035c0.017-0.015,0.028-0.032,0.034-0.051c0.006-0.02,0.01-0.048,0.01-0.086V2.893
		c0-0.053-0.01-0.092-0.031-0.118c-0.021-0.025-0.058-0.046-0.111-0.062V2.574h0.032c0.093,0,0.172,0.003,0.236,0.01
		c0.098,0.01,0.184,0.041,0.26,0.096c0.109,0.077,0.164,0.188,0.164,0.331c0,0.118-0.037,0.215-0.11,0.29
		c-0.03,0.031-0.067,0.058-0.108,0.077C16.697,3.398,16.635,3.421,16.55,3.445z"/>
	<path fill="#151515" d="M17.963,2.54v0.152c-0.049,0.007-0.086,0.028-0.109,0.064c-0.025,0.036-0.037,0.088-0.037,0.154v1.034
		v0.054c0,0.02,0.004,0.039,0.012,0.061s0.019,0.04,0.031,0.055c0.014,0.017,0.027,0.028,0.043,0.035
		c0.015,0.008,0.035,0.013,0.061,0.015v0.153c-0.162,0-0.303-0.043-0.422-0.127c-0.105-0.074-0.184-0.174-0.238-0.3
		c-0.053-0.126-0.08-0.274-0.08-0.446c0-0.126,0.018-0.243,0.053-0.353c0.034-0.108,0.084-0.203,0.15-0.283
		c0.066-0.081,0.146-0.146,0.24-0.195c0.093-0.05,0.182-0.074,0.269-0.074L17.963,2.54z M18.063,2.693V2.542
		c0.041,0.007,0.074,0.014,0.1,0.021c0.025,0.008,0.07,0.023,0.138,0.048c0.042,0.016,0.071,0.022,0.085,0.022
		c0.024,0,0.043-0.011,0.055-0.032l0.018-0.03c0.01-0.02,0.028-0.03,0.056-0.03c0.022,0,0.04,0.007,0.052,0.021
		s0.019,0.033,0.019,0.059V3.14c0,0.034-0.008,0.058-0.022,0.073c-0.016,0.015-0.032,0.022-0.052,0.022
		c-0.021,0-0.036-0.007-0.048-0.02s-0.021-0.034-0.029-0.063c-0.018-0.065-0.035-0.117-0.052-0.155
		c-0.036-0.079-0.077-0.144-0.122-0.192c-0.031-0.033-0.063-0.06-0.094-0.077C18.134,2.71,18.1,2.698,18.063,2.693z M18.066,4.317
		V4.164c0.064-0.005,0.133-0.029,0.205-0.073c0.038-0.024,0.072-0.057,0.103-0.098c0.03-0.04,0.052-0.085,0.067-0.133
		c0.008-0.027,0.018-0.046,0.029-0.058c0.012-0.011,0.026-0.017,0.045-0.017c0.02,0,0.036,0.008,0.05,0.022
		c0.013,0.015,0.021,0.034,0.021,0.057c0,0.037-0.016,0.083-0.044,0.137c-0.028,0.053-0.065,0.103-0.11,0.147
		c-0.055,0.055-0.111,0.096-0.17,0.122C18.203,4.299,18.139,4.313,18.066,4.317z"/>
	<path fill="#151515" d="M19.189,2.893l0.063,0.259L19.031,3.96c-0.006,0.023-0.01,0.045-0.01,0.065c0,0.053,0.024,0.09,0.074,0.112
		l0.043,0.021c0.027,0.013,0.042,0.033,0.042,0.063c0,0.042-0.03,0.063-0.092,0.063h-0.317c-0.031,0-0.056-0.007-0.074-0.02
		c-0.018-0.013-0.026-0.03-0.026-0.053c0-0.024,0.019-0.045,0.056-0.061c0.033-0.015,0.059-0.028,0.075-0.041
		c0.017-0.012,0.032-0.028,0.047-0.049c0.023-0.034,0.042-0.08,0.058-0.137L19.189,2.893z M19.275,2.574h0.505l0.349,1.471
		c0.006,0.026,0.014,0.049,0.021,0.069c0.008,0.016,0.024,0.028,0.051,0.039c0.021,0.009,0.037,0.018,0.045,0.027
		c0.008,0.009,0.012,0.021,0.012,0.037c0,0.044-0.031,0.065-0.098,0.065h-0.624c-0.024,0-0.046-0.006-0.06-0.019
		c-0.016-0.012-0.023-0.027-0.023-0.048c0-0.017,0.004-0.029,0.01-0.037c0.008-0.009,0.022-0.02,0.045-0.031
		c0.018-0.009,0.029-0.018,0.035-0.028c0.008-0.01,0.011-0.022,0.011-0.037s-0.001-0.026-0.004-0.038l-0.04-0.181h-0.35l0.034-0.149
		h0.28l-0.23-1.018L19.275,2.574z"/>
	<path fill="#151515" d="M20.545,3.014l0.133,0.221v0.671c0,0.059,0.01,0.106,0.029,0.144c0.02,0.038,0.051,0.068,0.094,0.093
		l0.037,0.021c0.021,0.013,0.033,0.031,0.033,0.057c0,0.019-0.008,0.035-0.024,0.047c-0.013,0.011-0.041,0.017-0.083,0.017h-0.289
		c-0.076,0-0.113-0.021-0.113-0.065c0-0.015,0.004-0.026,0.012-0.035s0.025-0.021,0.052-0.036c0.08-0.044,0.12-0.125,0.12-0.241
		V3.014z M21.07,2.574l0.666,1.157v0.552h-0.342l-0.851-1.465c-0.019-0.031-0.034-0.054-0.046-0.066s-0.025-0.021-0.045-0.027
		l-0.047-0.018c-0.013-0.004-0.023-0.012-0.03-0.022s-0.011-0.023-0.011-0.036c0-0.015,0.004-0.027,0.011-0.04
		c0.007-0.012,0.018-0.021,0.03-0.025c0.014-0.006,0.053-0.009,0.115-0.009H21.07z M21.736,3.53l-0.133-0.224V2.96
		c0-0.07-0.011-0.124-0.031-0.161s-0.057-0.069-0.108-0.096c-0.018-0.008-0.029-0.018-0.036-0.027
		c-0.007-0.009-0.01-0.021-0.01-0.036c0-0.022,0.007-0.039,0.021-0.05s0.038-0.016,0.07-0.016h0.313
		c0.042,0,0.071,0.007,0.084,0.021c0.015,0.013,0.021,0.028,0.021,0.047c0,0.018-0.005,0.031-0.013,0.04s-0.026,0.021-0.057,0.035
		c-0.044,0.022-0.077,0.058-0.1,0.104c-0.016,0.034-0.023,0.08-0.023,0.139V3.53z"/>
	<path fill="#151515" d="M22.766,2.574v1.709h-0.557h-0.033c-0.029,0-0.053-0.006-0.069-0.017c-0.017-0.012-0.024-0.027-0.024-0.049
		c0-0.034,0.017-0.057,0.051-0.067c0.027-0.009,0.043-0.015,0.048-0.017s0.009-0.007,0.015-0.015
		c0.01-0.014,0.015-0.034,0.015-0.063V2.802c0-0.029-0.005-0.05-0.015-0.063c-0.006-0.008-0.01-0.013-0.015-0.015
		s-0.021-0.008-0.048-0.017c-0.034-0.011-0.051-0.033-0.051-0.067c0-0.021,0.008-0.037,0.024-0.049
		c0.017-0.011,0.04-0.017,0.069-0.017h0.033H22.766z M22.871,3.485V3.341c0.049-0.023,0.084-0.049,0.107-0.077
		c0.023-0.027,0.041-0.063,0.051-0.109c0.008-0.032,0.016-0.054,0.027-0.066c0.01-0.012,0.025-0.018,0.046-0.018
		c0.026,0,0.045,0.01,0.056,0.031c0.006,0.011,0.008,0.035,0.008,0.073v0.478c0,0.039-0.004,0.066-0.013,0.081
		c-0.009,0.016-0.024,0.022-0.048,0.022c-0.02,0-0.035-0.006-0.045-0.018c-0.012-0.012-0.02-0.031-0.027-0.059
		c-0.014-0.058-0.034-0.102-0.061-0.133C22.947,3.517,22.912,3.496,22.871,3.485z M22.877,2.574h0.505v0.443
		c0,0.025-0.005,0.045-0.015,0.057s-0.026,0.017-0.048,0.017c-0.019,0-0.032-0.003-0.04-0.011c-0.009-0.008-0.017-0.023-0.023-0.046
		c-0.032-0.098-0.078-0.171-0.141-0.222c-0.061-0.052-0.141-0.082-0.238-0.092V2.574z M22.879,4.283V4.148
		c0.054-0.009,0.099-0.021,0.135-0.035c0.035-0.016,0.07-0.038,0.106-0.069c0.036-0.03,0.064-0.063,0.086-0.096
		c0.021-0.033,0.042-0.076,0.061-0.131c0.009-0.026,0.019-0.045,0.028-0.055s0.024-0.014,0.041-0.014
		c0.023,0,0.041,0.007,0.049,0.021c0.01,0.014,0.015,0.037,0.015,0.071v0.442H22.879z"/>
</g>
<g enable-background="new    ">
	<path fill="#E5DAD1" d="M9.396,2.414v0.145C9.344,2.572,9.305,2.595,9.277,2.624S9.237,2.69,9.237,2.733
		c0,0.042,0.011,0.078,0.034,0.109c0.022,0.032,0.059,0.062,0.11,0.09c0.035,0.02,0.114,0.056,0.238,0.11
		c0.075,0.032,0.133,0.062,0.174,0.088C9.834,3.157,9.874,3.19,9.91,3.229c0.099,0.104,0.148,0.227,0.148,0.369
		c0,0.107-0.027,0.206-0.08,0.296c-0.054,0.089-0.127,0.159-0.221,0.21c-0.05,0.027-0.105,0.048-0.165,0.063
		S9.478,4.191,9.426,4.191V4.048c0.073-0.017,0.125-0.041,0.157-0.073c0.032-0.031,0.048-0.073,0.048-0.127
		c0-0.056-0.025-0.104-0.075-0.147c-0.034-0.027-0.097-0.062-0.19-0.103C9.263,3.553,9.192,3.521,9.155,3.501
		C9.117,3.482,9.08,3.459,9.045,3.434C8.888,3.321,8.81,3.173,8.81,2.986c0-0.095,0.02-0.183,0.059-0.264
		c0.039-0.08,0.094-0.146,0.164-0.194C9.13,2.46,9.251,2.422,9.396,2.414z M9.331,4.048v0.144c-0.068,0-0.144-0.02-0.227-0.06
		C9.073,4.118,9.052,4.108,9.04,4.104S9.017,4.099,9.006,4.099c-0.017,0-0.029,0.003-0.038,0.008
		c-0.008,0.006-0.022,0.02-0.04,0.041C8.914,4.166,8.897,4.175,8.88,4.175c-0.047,0-0.07-0.036-0.07-0.107V3.611
		c0-0.023,0.007-0.043,0.02-0.06c0.014-0.017,0.03-0.024,0.05-0.025C8.898,3.525,8.913,3.53,8.923,3.542
		c0.011,0.011,0.02,0.031,0.027,0.06c0.02,0.071,0.047,0.139,0.083,0.201S9.112,3.919,9.16,3.962
		C9.209,4.007,9.266,4.036,9.331,4.048z M9.495,2.559V2.421c0.05,0.003,0.093,0.01,0.13,0.02c0.037,0.01,0.089,0.028,0.156,0.057
		c0.017,0.007,0.03,0.01,0.042,0.01c0.016,0,0.027-0.005,0.035-0.016l0.028-0.037c0.013-0.018,0.03-0.027,0.049-0.027
		c0.022,0,0.039,0.009,0.049,0.024c0.011,0.017,0.016,0.042,0.016,0.077v0.413c0,0.024-0.007,0.044-0.021,0.06
		S9.947,3.024,9.925,3.024c-0.017,0-0.032-0.006-0.046-0.017C9.872,3.001,9.865,2.993,9.861,2.983
		c-0.005-0.01-0.009-0.025-0.013-0.048C9.838,2.895,9.823,2.853,9.8,2.809C9.777,2.766,9.751,2.727,9.721,2.692
		C9.661,2.625,9.585,2.58,9.495,2.559z"/>
	<path fill="#E5DAD1" d="M10.361,3.657V2.676c0-0.029-0.005-0.05-0.015-0.063c-0.005-0.008-0.01-0.013-0.014-0.015
		s-0.021-0.008-0.048-0.017c-0.033-0.011-0.05-0.033-0.05-0.066c0-0.021,0.008-0.038,0.024-0.05
		c0.016-0.011,0.039-0.017,0.069-0.017h0.033h0.558h0.033l0.045,0.005c0.014,0.004,0.026,0.012,0.035,0.022s0.014,0.024,0.014,0.039
		c0,0.033-0.017,0.056-0.05,0.066c-0.028,0.009-0.044,0.015-0.048,0.017s-0.009,0.007-0.015,0.015
		c-0.01,0.014-0.015,0.034-0.015,0.063v1.051c0,0.071,0.002,0.12,0.005,0.148c0.004,0.028,0.012,0.053,0.023,0.075
		c0.011,0.021,0.023,0.036,0.036,0.046c0.013,0.009,0.039,0.02,0.076,0.031v0.164h-0.027c-0.108,0-0.199-0.01-0.271-0.029
		c-0.084-0.022-0.158-0.056-0.222-0.1c-0.063-0.045-0.108-0.095-0.135-0.149C10.375,3.854,10.361,3.77,10.361,3.657z M11.173,4.191
		V4.027c0.083-0.011,0.153-0.045,0.209-0.103c0.063-0.066,0.095-0.161,0.095-0.284V2.824c0-0.114-0.043-0.194-0.131-0.239
		C11.32,2.571,11.304,2.56,11.295,2.55c-0.008-0.009-0.012-0.023-0.012-0.041c0-0.022,0.008-0.037,0.024-0.047
		c0.016-0.009,0.042-0.014,0.078-0.014h0.307c0.026,0,0.043,0.001,0.052,0.002s0.018,0.004,0.026,0.01
		c0.021,0.012,0.032,0.029,0.032,0.051c0,0.019-0.006,0.034-0.02,0.047c-0.004,0.004-0.022,0.015-0.054,0.033
		c-0.037,0.021-0.065,0.051-0.086,0.092c-0.021,0.042-0.031,0.089-0.031,0.142v0.817c0,0.14-0.031,0.255-0.093,0.346
		c-0.045,0.066-0.109,0.12-0.194,0.16C11.282,4.167,11.232,4.182,11.173,4.191z"/>
	<path fill="#E5DAD1" d="M12.642,2.414v0.14c-0.073,0.018-0.11,0.075-0.11,0.175v1.166c0,0.045,0.006,0.079,0.019,0.104
		c0.011,0.021,0.034,0.037,0.069,0.052v0.142c-0.027,0-0.051-0.003-0.073-0.007s-0.052-0.013-0.088-0.024
		c-0.087-0.03-0.167-0.076-0.238-0.138c-0.071-0.063-0.129-0.136-0.175-0.222c-0.071-0.135-0.106-0.294-0.106-0.478
		c0-0.178,0.032-0.335,0.095-0.473s0.154-0.246,0.273-0.325c0.068-0.046,0.142-0.078,0.22-0.099
		C12.56,2.419,12.598,2.414,12.642,2.414z M13.311,3.948c-0.033,0.033-0.078,0.067-0.133,0.102
		c-0.055,0.035-0.108,0.063-0.157,0.082c-0.045,0.018-0.095,0.032-0.15,0.043s-0.103,0.017-0.145,0.017V4.05
		c0.024-0.006,0.042-0.013,0.054-0.021c0.012-0.009,0.022-0.021,0.031-0.035c0.014-0.025,0.021-0.059,0.021-0.099V3.528
		c0-0.032-0.006-0.056-0.019-0.069c-0.006-0.009-0.012-0.014-0.017-0.016c-0.006-0.003-0.025-0.007-0.058-0.015
		c-0.04-0.01-0.06-0.033-0.06-0.07c0-0.021,0.009-0.038,0.028-0.05c0.019-0.012,0.046-0.018,0.083-0.018h0.041h0.458
		c0.038,0,0.064,0.005,0.08,0.016c0.015,0.011,0.023,0.028,0.023,0.055c0,0.016-0.003,0.028-0.009,0.039s-0.018,0.021-0.035,0.033
		s-0.027,0.022-0.031,0.032c-0.004,0.011-0.006,0.028-0.006,0.056V3.948z M12.745,2.551V2.416c0.136,0.012,0.248,0.037,0.336,0.075
		c0.026,0.012,0.046,0.018,0.06,0.018c0.013,0,0.023-0.004,0.03-0.01c0.007-0.006,0.021-0.024,0.043-0.054
		c0.015-0.021,0.034-0.031,0.056-0.031c0.023,0,0.04,0.007,0.05,0.02c0.009,0.014,0.014,0.035,0.014,0.064v0.487
		c0,0.063-0.023,0.095-0.07,0.095c-0.023,0-0.041-0.006-0.052-0.019s-0.022-0.037-0.032-0.073c-0.013-0.047-0.035-0.102-0.068-0.164
		c-0.032-0.062-0.064-0.111-0.094-0.146c-0.034-0.042-0.073-0.073-0.115-0.093S12.808,2.555,12.745,2.551z"/>
	<path fill="#E5DAD1" d="M13.996,2.767l0.063,0.259l-0.222,0.809c-0.006,0.023-0.01,0.045-0.01,0.065
		c0,0.053,0.024,0.09,0.074,0.112l0.044,0.021c0.027,0.013,0.042,0.033,0.042,0.063c0,0.042-0.031,0.063-0.092,0.063h-0.318
		c-0.031,0-0.055-0.007-0.073-0.02s-0.027-0.03-0.027-0.053c0-0.024,0.019-0.045,0.055-0.061c0.034-0.015,0.06-0.028,0.076-0.041
		c0.016-0.012,0.032-0.028,0.047-0.049c0.023-0.034,0.042-0.08,0.058-0.137L13.996,2.767z M14.082,2.448h0.505l0.348,1.471
		c0.006,0.026,0.014,0.049,0.022,0.069c0.007,0.016,0.024,0.028,0.05,0.039c0.022,0.009,0.037,0.018,0.045,0.027
		c0.008,0.009,0.012,0.021,0.012,0.037c0,0.044-0.032,0.065-0.098,0.065h-0.625c-0.025,0-0.045-0.006-0.06-0.019
		c-0.015-0.012-0.022-0.027-0.022-0.048c0-0.017,0.003-0.029,0.01-0.037c0.007-0.009,0.022-0.02,0.045-0.031
		c0.017-0.009,0.028-0.018,0.035-0.028c0.007-0.01,0.01-0.022,0.01-0.037s-0.001-0.026-0.004-0.038l-0.04-0.181h-0.349L14,3.589
		h0.28l-0.23-1.018L14.082,2.448z"/>
	<path fill="#E5DAD1" d="M15.851,2.448v1.471c0,0.033,0.006,0.057,0.019,0.07c0.006,0.009,0.013,0.014,0.019,0.016
		s0.025,0.008,0.058,0.016c0.04,0.01,0.06,0.032,0.06,0.069c0,0.021-0.011,0.039-0.032,0.053c-0.016,0.01-0.042,0.015-0.079,0.015
		h-0.042h-0.559h-0.032c-0.03,0-0.053-0.006-0.07-0.017c-0.016-0.012-0.024-0.027-0.024-0.049c0-0.034,0.017-0.057,0.05-0.067
		c0.027-0.009,0.043-0.015,0.048-0.017c0.004-0.002,0.009-0.007,0.014-0.015c0.01-0.014,0.015-0.034,0.015-0.063V2.676
		c0-0.029-0.005-0.05-0.015-0.063c-0.005-0.008-0.01-0.013-0.014-0.015c-0.005-0.002-0.021-0.008-0.048-0.017
		c-0.034-0.011-0.05-0.033-0.05-0.067c0-0.021,0.008-0.037,0.024-0.049c0.017-0.011,0.04-0.017,0.07-0.017h0.032H15.851z
		 M16.235,3.319c0.077,0.012,0.136,0.025,0.177,0.039c0.042,0.015,0.079,0.033,0.113,0.058c0.035,0.026,0.062,0.057,0.08,0.093
		c0.02,0.036,0.028,0.074,0.028,0.114v0.259c0,0.026,0.009,0.04,0.026,0.04c0.006,0,0.012-0.002,0.017-0.006s0.011-0.011,0.02-0.021
		c0.021-0.028,0.042-0.043,0.063-0.043c0.015,0,0.029,0.008,0.043,0.022c0.014,0.016,0.021,0.03,0.021,0.045
		c0,0.026-0.013,0.058-0.037,0.095c-0.025,0.037-0.055,0.07-0.092,0.1c-0.035,0.027-0.072,0.048-0.111,0.06
		c-0.041,0.012-0.087,0.019-0.142,0.019c-0.11,0-0.196-0.032-0.258-0.095c-0.062-0.063-0.092-0.151-0.092-0.264v-0.21
		c0-0.047,0-0.074-0.001-0.082c-0.004-0.033-0.016-0.062-0.035-0.086c-0.024-0.029-0.059-0.047-0.104-0.052V3.27
		c0.045-0.007,0.077-0.019,0.097-0.035c0.017-0.015,0.028-0.032,0.034-0.051c0.006-0.02,0.01-0.048,0.01-0.086V2.767
		c0-0.053-0.01-0.092-0.031-0.118c-0.021-0.025-0.058-0.046-0.111-0.062V2.448h0.032c0.093,0,0.172,0.003,0.237,0.01
		c0.097,0.01,0.183,0.041,0.259,0.096c0.109,0.077,0.164,0.188,0.164,0.331c0,0.118-0.037,0.215-0.11,0.29
		c-0.03,0.031-0.067,0.058-0.108,0.077C16.383,3.272,16.32,3.295,16.235,3.319z"/>
	<path fill="#E5DAD1" d="M17.648,2.414v0.152c-0.049,0.007-0.086,0.028-0.109,0.064c-0.025,0.036-0.037,0.088-0.037,0.154v1.034
		v0.054c0,0.02,0.004,0.039,0.012,0.061s0.019,0.04,0.031,0.055c0.014,0.017,0.027,0.028,0.043,0.035
		c0.015,0.008,0.035,0.013,0.061,0.015v0.153c-0.162,0-0.303-0.043-0.422-0.127c-0.105-0.074-0.184-0.174-0.238-0.3
		c-0.053-0.126-0.08-0.274-0.08-0.446c0-0.126,0.018-0.243,0.053-0.353c0.034-0.108,0.084-0.203,0.15-0.283
		c0.066-0.081,0.146-0.146,0.24-0.195c0.093-0.05,0.182-0.074,0.269-0.074L17.648,2.414z M17.748,2.567V2.416
		c0.041,0.007,0.074,0.014,0.1,0.021c0.025,0.008,0.07,0.023,0.138,0.048c0.042,0.016,0.071,0.022,0.085,0.022
		c0.024,0,0.043-0.011,0.055-0.032l0.018-0.03c0.01-0.02,0.028-0.03,0.056-0.03c0.022,0,0.04,0.007,0.052,0.021
		s0.019,0.033,0.019,0.059v0.521c0,0.034-0.008,0.058-0.022,0.073c-0.016,0.015-0.032,0.022-0.052,0.022
		c-0.021,0-0.036-0.007-0.048-0.02s-0.021-0.034-0.029-0.063c-0.018-0.065-0.035-0.117-0.052-0.155
		c-0.036-0.079-0.077-0.144-0.122-0.192c-0.031-0.033-0.063-0.06-0.094-0.077C17.819,2.584,17.785,2.572,17.748,2.567z
		 M17.752,4.191V4.038c0.064-0.005,0.133-0.029,0.205-0.073c0.038-0.024,0.072-0.057,0.103-0.098c0.03-0.04,0.052-0.085,0.067-0.133
		c0.008-0.027,0.018-0.046,0.029-0.058c0.012-0.011,0.026-0.017,0.045-0.017c0.02,0,0.036,0.008,0.05,0.022
		c0.013,0.015,0.021,0.034,0.021,0.057c0,0.037-0.016,0.083-0.044,0.137c-0.028,0.053-0.065,0.103-0.11,0.147
		c-0.055,0.055-0.111,0.096-0.17,0.122C17.889,4.173,17.824,4.188,17.752,4.191z"/>
	<path fill="#E5DAD1" d="M18.875,2.767l0.063,0.259l-0.222,0.809c-0.006,0.023-0.01,0.045-0.01,0.065
		c0,0.053,0.024,0.09,0.074,0.112l0.043,0.021c0.027,0.013,0.042,0.033,0.042,0.063c0,0.042-0.03,0.063-0.092,0.063h-0.317
		c-0.031,0-0.056-0.007-0.074-0.02c-0.018-0.013-0.026-0.03-0.026-0.053c0-0.024,0.019-0.045,0.056-0.061
		c0.033-0.015,0.059-0.028,0.075-0.041c0.017-0.012,0.032-0.028,0.047-0.049c0.023-0.034,0.042-0.08,0.058-0.137L18.875,2.767z
		 M18.961,2.448h0.505l0.349,1.471c0.006,0.026,0.014,0.049,0.021,0.069c0.008,0.016,0.024,0.028,0.051,0.039
		c0.021,0.009,0.037,0.018,0.045,0.027c0.008,0.009,0.012,0.021,0.012,0.037c0,0.044-0.031,0.065-0.098,0.065h-0.624
		c-0.024,0-0.046-0.006-0.06-0.019c-0.016-0.012-0.023-0.027-0.023-0.048c0-0.017,0.004-0.029,0.01-0.037
		c0.008-0.009,0.022-0.02,0.045-0.031c0.018-0.009,0.029-0.018,0.035-0.028c0.008-0.01,0.011-0.022,0.011-0.037
		s-0.001-0.026-0.004-0.038l-0.04-0.181h-0.35l0.034-0.149h0.28l-0.23-1.018L18.961,2.448z"/>
	<path fill="#E5DAD1" d="M20.23,2.888l0.133,0.221v0.671c0,0.059,0.01,0.106,0.029,0.144c0.02,0.038,0.051,0.068,0.094,0.093
		l0.037,0.021c0.021,0.013,0.033,0.031,0.033,0.057c0,0.019-0.008,0.035-0.024,0.047c-0.013,0.011-0.041,0.017-0.083,0.017H20.16
		c-0.076,0-0.113-0.021-0.113-0.065c0-0.015,0.004-0.026,0.012-0.035s0.025-0.021,0.052-0.036c0.08-0.044,0.12-0.125,0.12-0.241
		V2.888z M20.756,2.448l0.666,1.157v0.552H21.08l-0.851-1.465c-0.019-0.031-0.034-0.054-0.046-0.066s-0.025-0.021-0.045-0.027
		l-0.047-0.018c-0.013-0.004-0.023-0.012-0.03-0.022s-0.011-0.023-0.011-0.036c0-0.015,0.004-0.027,0.011-0.04
		c0.007-0.012,0.018-0.021,0.03-0.025c0.014-0.006,0.053-0.009,0.115-0.009H20.756z M21.422,3.404l-0.133-0.224V2.834
		c0-0.07-0.011-0.124-0.031-0.161s-0.057-0.069-0.108-0.096C21.132,2.569,21.12,2.56,21.113,2.55
		c-0.007-0.009-0.01-0.021-0.01-0.036c0-0.022,0.007-0.039,0.021-0.05s0.038-0.016,0.07-0.016h0.313
		c0.042,0,0.071,0.007,0.084,0.021c0.015,0.013,0.021,0.028,0.021,0.047c0,0.018-0.005,0.031-0.013,0.04s-0.026,0.021-0.057,0.035
		c-0.044,0.022-0.077,0.058-0.1,0.104c-0.016,0.034-0.023,0.08-0.023,0.139V3.404z"/>
	<path fill="#E5DAD1" d="M22.451,2.448v1.709h-0.557h-0.033c-0.029,0-0.053-0.006-0.069-0.017c-0.017-0.012-0.024-0.027-0.024-0.049
		c0-0.034,0.017-0.057,0.051-0.067c0.027-0.009,0.043-0.015,0.048-0.017s0.009-0.007,0.015-0.015
		c0.01-0.014,0.015-0.034,0.015-0.063V2.676c0-0.029-0.005-0.05-0.015-0.063c-0.006-0.008-0.01-0.013-0.015-0.015
		s-0.021-0.008-0.048-0.017c-0.034-0.011-0.051-0.033-0.051-0.067c0-0.021,0.008-0.037,0.024-0.049
		c0.017-0.011,0.04-0.017,0.069-0.017h0.033H22.451z M22.557,3.359V3.215c0.049-0.023,0.084-0.049,0.107-0.077
		c0.023-0.027,0.041-0.063,0.051-0.109c0.008-0.032,0.016-0.054,0.027-0.066c0.01-0.012,0.025-0.018,0.046-0.018
		c0.026,0,0.045,0.01,0.056,0.031c0.006,0.011,0.008,0.035,0.008,0.073v0.478c0,0.039-0.004,0.066-0.013,0.081
		C22.83,3.623,22.814,3.63,22.791,3.63c-0.02,0-0.035-0.006-0.045-0.018c-0.012-0.012-0.02-0.031-0.027-0.059
		c-0.014-0.058-0.034-0.102-0.061-0.133C22.633,3.391,22.598,3.37,22.557,3.359z M22.563,2.448h0.505v0.443
		c0,0.025-0.005,0.045-0.015,0.057s-0.026,0.017-0.048,0.017c-0.019,0-0.032-0.003-0.04-0.011c-0.009-0.008-0.017-0.023-0.023-0.046
		c-0.032-0.098-0.078-0.171-0.141-0.222c-0.061-0.052-0.141-0.082-0.238-0.092V2.448z M22.564,4.157V4.022
		c0.054-0.009,0.099-0.021,0.135-0.035c0.035-0.016,0.07-0.038,0.106-0.069c0.036-0.03,0.064-0.063,0.086-0.096
		c0.021-0.033,0.042-0.076,0.061-0.131c0.009-0.026,0.019-0.045,0.028-0.055s0.024-0.014,0.041-0.014
		c0.023,0,0.041,0.007,0.049,0.021c0.01,0.014,0.015,0.037,0.015,0.071v0.442H22.564z"/>
</g>
<g id="Shape_16_6_">
	<g>
		<path fill="#D69976" d="M19.657,5.045h-0.611c-0.133,0-0.241,0.108-0.241,0.242v0.521c0,0.133,0.108,0.241,0.241,0.241h0.611
			c0.125,0,0.228-0.094,0.239-0.216V5.821h-0.822V5.27h0.822V5.256C19.883,5.138,19.779,5.045,19.657,5.045z M20.968,5.436h-0.639
			V5.262h0.858c-0.014-0.121-0.115-0.217-0.24-0.217h-0.622c-0.134,0-0.241,0.108-0.241,0.242v0.149
			c0.012,0.122,0.114,0.217,0.241,0.217l0.637-0.001v0.18h-0.876c0.012,0.122,0.114,0.217,0.239,0.217h0.641
			c0.134,0,0.241-0.108,0.241-0.241V5.652C21.195,5.53,21.093,5.436,20.968,5.436z M23.917,5.037H23.29
			c-0.127,0-0.231,0.104-0.231,0.23V5.81c0,0.127,0.104,0.23,0.231,0.23h0.627c0.126,0,0.229-0.104,0.229-0.23V5.268
			C24.146,5.141,24.043,5.037,23.917,5.037z M23.932,5.854h-0.656v-0.63h0.656V5.854z M22.17,5.557
			c0.049,0.062,0.123,0.066,0.145,0.066h0.334v0.219h-0.701v-0.61h0.916c-0.02-0.113-0.115-0.195-0.229-0.195h-0.671
			c-0.126,0-0.229,0.104-0.229,0.23V5.81c0,0.127,0.103,0.23,0.229,0.23h0.671c0.119,0,0.22-0.089,0.229-0.204V5.455H22.12
			C22.123,5.474,22.134,5.511,22.17,5.557z"/>
	</g>
</g>
</svg>
