<?xml version="1.0" encoding="utf-8"?>
<!-- Generator: Adobe Illustrator 23.0.2, SVG Export Plug-In . SVG Version: 6.00 Build 0)  -->
<svg version="1.1" id="Layer_1" xmlns="http://www.w3.org/2000/svg" xmlns:xlink="http://www.w3.org/1999/xlink" x="0px" y="0px"
	 width="32px" height="32px" viewBox="0 0 32 32" enable-background="new 0 0 32 32" xml:space="preserve">
<linearGradient id="SVGID_1_" gradientUnits="userSpaceOnUse" x1="292.903" y1="-1174.2194" x2="319.124" y2="-1174.2194" gradientTransform="matrix(1 0 0 -1 -290 -1158.2194)">
	<stop  offset="0" style="stop-color:#302E2E"/>
	<stop  offset="0.1262" style="stop-color:#2B2929"/>
	<stop  offset="0.4685" style="stop-color:#1C1C1C"/>
	<stop  offset="0.771" style="stop-color:#10100F"/>
	<stop  offset="1" style="stop-color:#030303"/>
</linearGradient>
<polygon fill="url(#SVGID_1_)" points="29.097,16 16,29.097 2.903,16 16,2.903 "/>
<radialGradient id="SVGID_2_" cx="-3838.7021" cy="-693.1246" r="11.5047" gradientTransform="matrix(-0.0607 -0.9982 -2.2198 0.1351 -1754.624 -3729.8008)" gradientUnits="userSpaceOnUse">
	<stop  offset="0" style="stop-color:#999999"/>
	<stop  offset="0.3646" style="stop-color:#878787"/>
	<stop  offset="1" style="stop-color:#000000"/>
</radialGradient>
<path fill="url(#SVGID_2_)" d="M16.361,16.361c1.806,0.09,2.529-0.271,4.606,0c2.529,0.271,3.342,1.174,3.974,0.542
	c0.09-0.09,0.181-0.271,0.361-0.452c0.09-0.181,0.09-0.271,0.09-0.452c0-0.271-0.09-0.542-0.271-0.723l-8.4-8.4
	C16.542,6.697,16.271,6.607,16,6.607s-0.542,0.09-0.723,0.271l-8.4,8.4c-0.18,0.18-0.27,0.451-0.27,0.722
	c0,0.271,0.09,0.542,0.361,0.813c0.632,0.542,1.355,0.723,2.258,0.452C11.665,16.632,13.742,16.271,16.361,16.361z"/>
<linearGradient id="SVGID_3_" gradientUnits="userSpaceOnUse" x1="306.0364" y1="-1170.2096" x2="306.0081" y2="-1185.4795" gradientTransform="matrix(1 0 0 -1 -290 -1158.2194)">
	<stop  offset="0" style="stop-color:#000000"/>
	<stop  offset="1" style="stop-color:#404A44"/>
</linearGradient>
<path fill="url(#SVGID_3_)" d="M6.697,16.903l8.4,8.4c0.542,0.542,1.355,0.542,1.897,0l8.4-8.4c0.361-0.361,0.09-0.903,0.09-0.903
	c0,0.271-0.09,0.542-0.271,0.723l-8.4,8.4c-0.181,0.181-0.452,0.271-0.723,0.271s-0.542-0.09-0.723-0.271l-8.4-8.4
	c-0.18-0.181-0.27-0.452-0.27-0.723C6.607,16,6.245,16.542,6.697,16.903z"/>
<linearGradient id="SVGID_4_" gradientUnits="userSpaceOnUse" x1="303.0059" y1="2005.6226" x2="308.4788" y2="2022.9065" gradientTransform="matrix(1 0 0 1 -290 -1998.89)">
	<stop  offset="0.0196" style="stop-color:#675A5A"/>
	<stop  offset="0.5439" style="stop-color:#443A3A"/>
	<stop  offset="0.9944" style="stop-color:#2B2323"/>
</linearGradient>
<path fill="url(#SVGID_4_)" d="M15.006,6.516c0.542-0.542,1.355-0.542,1.897,0l8.58,8.58c0.542,0.542,0.542,1.355,0,1.897
	l-8.58,8.58c-0.542,0.542-1.355,0.542-1.897,0l-8.58-8.58c-0.542-0.542-0.542-1.355,0-1.897L15.006,6.516z"/>
<radialGradient id="SVGID_5_" cx="298.6385" cy="1997.7714" r="31.3367" gradientTransform="matrix(1 0 0 1 -290 -1998.89)" gradientUnits="userSpaceOnUse">
	<stop  offset="0" style="stop-color:#B2CAD4"/>
	<stop  offset="0.2238" style="stop-color:#B5CAD2"/>
	<stop  offset="0.3874" style="stop-color:#BECBCB"/>
	<stop  offset="0.5316" style="stop-color:#CECDC0"/>
	<stop  offset="0.5447" style="stop-color:#D0CDBF"/>
	<stop  offset="0.7058" style="stop-color:#D1CABC"/>
	<stop  offset="0.8243" style="stop-color:#D2C1B3"/>
	<stop  offset="0.9288" style="stop-color:#D5B1A3"/>
	<stop  offset="1" style="stop-color:#D8A193"/>
</radialGradient>
<path fill="url(#SVGID_5_)" d="M15.097,6.878c0.542-0.542,1.355-0.542,1.806,0l8.219,8.219c0.542,0.542,0.542,1.355,0,1.806
	l-8.219,8.219c-0.542,0.542-1.355,0.542-1.806,0l-8.219-8.219c-0.542-0.542-0.542-1.355,0-1.806L15.097,6.878z"/>
<linearGradient id="SVGID_6_" gradientUnits="userSpaceOnUse" x1="305.9771" y1="2016.2919" x2="306.1612" y2="2004.2383" gradientTransform="matrix(1 0 0 1 -290 -1998.89)">
	<stop  offset="0.0098" style="stop-color:#F7FDFF;stop-opacity:0.4"/>
	<stop  offset="0.7258" style="stop-color:#B7B3B3;stop-opacity:0.7"/>
</linearGradient>
<path fill="url(#SVGID_6_)" d="M16.361,16.271c1.716,0.09,2.529-0.271,4.516,0c2.439,0.271,3.252,1.084,3.884,0.542
	c0.09-0.09,0.181-0.271,0.361-0.452c0.09-0.181,0.09-0.271,0.09-0.452c0-0.271-0.09-0.542-0.271-0.723l-8.219-8.219
	c-0.18-0.18-0.451-0.27-0.722-0.27s-0.542,0.09-0.723,0.271l-8.219,8.219c-0.181,0.181-0.271,0.452-0.271,0.723
	c0,0.271,0.09,0.542,0.361,0.813c0.542,0.542,1.355,0.632,2.168,0.452C11.755,16.542,13.742,16.181,16.361,16.271z"/>
<radialGradient id="SVGID_7_" cx="313.709" cy="2032.4696" r="37.5603" gradientTransform="matrix(1 0 0 1 -290 -1998.89)" gradientUnits="userSpaceOnUse">
	<stop  offset="0" style="stop-color:#612A2A"/>
	<stop  offset="0.2109" style="stop-color:#948A87"/>
	<stop  offset="0.2122" style="stop-color:#948A87"/>
	<stop  offset="0.3051" style="stop-color:#A9A4A2"/>
	<stop  offset="0.3998" style="stop-color:#B8B6B5"/>
	<stop  offset="0.4972" style="stop-color:#C1C0C0"/>
	<stop  offset="0.6006" style="stop-color:#C4C4C4"/>
	<stop  offset="1" style="stop-color:#ABAAA9"/>
</radialGradient>
<path fill="url(#SVGID_7_)" d="M16,29.909c-0.452,0-0.903-0.181-1.264-0.542L2.542,17.174c-0.723-0.723-0.723-1.897,0-2.619
	L14.736,2.542C15.097,2.181,15.548,2,16,2s0.903,0.181,1.264,0.542l12.103,12.103c0.361,0.361,0.542,0.813,0.542,1.264
	c0,0.452-0.181,0.903-0.542,1.264L17.264,29.367C16.903,29.729,16.452,29.909,16,29.909z M16,6.155
	c-0.361,0-0.723,0.181-0.994,0.452l-8.4,8.4c-0.27,0.27-0.451,0.632-0.451,0.993c0,0.361,0.181,0.723,0.452,0.994l8.4,8.4
	c0.271,0.271,0.632,0.452,0.994,0.452c0.361,0,0.723-0.181,0.994-0.452l8.4-8.4c0.271-0.271,0.452-0.632,0.452-0.994
	c0-0.361-0.181-0.723-0.452-0.994l-8.4-8.4C16.723,6.245,16.361,6.155,16,6.155z"/>
<linearGradient id="SVGID_8_" gradientUnits="userSpaceOnUse" x1="10.7792" y1="807.737" x2="21.1214" y2="843.9145" gradientTransform="matrix(1 0 0 1 0 -810)">
	<stop  offset="0" style="stop-color:#E6CDCD"/>
	<stop  offset="0.4738" style="stop-color:#867676"/>
	<stop  offset="0.8284" style="stop-color:#443A3A"/>
	<stop  offset="0.9944" style="stop-color:#2B2323"/>
</linearGradient>
<path fill="url(#SVGID_8_)" d="M29.819,14.555L17.445,2.181C17.084,1.82,16.542,1.549,16,1.549s-1.084,0.181-1.445,0.632
	L2.181,14.555C1.82,14.916,1.549,15.458,1.549,16c0,0.542,0.181,1.084,0.632,1.445l12.374,12.374
	c0.361,0.361,0.903,0.632,1.445,0.632c0.542,0,1.084-0.181,1.445-0.632l12.374-12.374c0.361-0.361,0.632-0.903,0.632-1.445
	C30.451,15.458,30.271,14.916,29.819,14.555z M29.458,17.355l-5.329,5.329v-1.987l-1.445,3.342l-5.329,5.329
	c-0.361,0.361-0.813,0.542-1.264,0.542c-0.452,0-0.994-0.181-1.264-0.542l-5.419-5.239h2.168l-3.613-1.535l-5.329-5.329
	C2.271,16.903,2.091,16.452,2.091,16c0-0.452,0.181-0.994,0.542-1.264l5.51-5.51v2.258L9.678,7.6l5.058-5.058
	C15.097,2.181,15.548,2,16,2s0.994,0.181,1.264,0.542l5.329,5.329h-1.897l3.252,1.355l5.51,5.51C29.819,15.097,30,15.548,30,16
	C29.909,16.542,29.729,16.994,29.458,17.355z"/>
<rect x="31.886" y="15.647" opacity="0.01" enable-background="new    " width="0.114" height="0.353"/>
<rect y="15.647" opacity="0.01" enable-background="new    " width="0.114" height="0.353"/>
<g>
	
		<linearGradient id="SVGID_9_" gradientUnits="userSpaceOnUse" x1="14.0231" y1="26.2306" x2="16.9333" y2="17.8188" gradientTransform="matrix(1 0 0 -1 0 31.89)">
		<stop  offset="0" style="stop-color:#E6CDCD"/>
		<stop  offset="0.4738" style="stop-color:#867676"/>
		<stop  offset="0.8284" style="stop-color:#443A3A"/>
		<stop  offset="0.9944" style="stop-color:#2B2323"/>
	</linearGradient>
	<path fill="url(#SVGID_9_)" d="M15.157,11.49c0.44,0,0.812,0.303,0.826,0.314c0.109,0.085,0.518,0.377,1.042,0.377
		c0.595,0,1.067-0.395,1.087-0.412l-0.259-0.305c-0.003,0.003-0.386,0.316-0.829,0.316c-0.44,0-0.812-0.303-0.826-0.314
		c-0.109-0.085-0.518-0.377-1.042-0.377c-0.595,0-1.067,0.395-1.087,0.412l0.259,0.305C14.331,11.803,14.714,11.49,15.157,11.49z"/>
	
		<linearGradient id="SVGID_10_" gradientUnits="userSpaceOnUse" x1="13.7429" y1="26.1337" x2="16.6531" y2="17.7218" gradientTransform="matrix(1 0 0 -1 0 31.89)">
		<stop  offset="0" style="stop-color:#E6CDCD"/>
		<stop  offset="0.4738" style="stop-color:#867676"/>
		<stop  offset="0.8284" style="stop-color:#443A3A"/>
		<stop  offset="0.9944" style="stop-color:#2B2323"/>
	</linearGradient>
	<path fill="url(#SVGID_10_)" d="M17.024,12.687c-0.44,0-0.812-0.303-0.826-0.314c-0.109-0.085-0.518-0.377-1.042-0.377
		c-0.595,0-1.067,0.395-1.087,0.412l0.259,0.305c0.003-0.003,0.386-0.316,0.829-0.316c0.44,0,0.812,0.303,0.826,0.314
		c0.109,0.085,0.518,0.377,1.042,0.377c0.595,0,1.067-0.395,1.087-0.412l-0.259-0.305C17.849,12.374,17.467,12.687,17.024,12.687z"
		/>
	
		<linearGradient id="SVGID_11_" gradientUnits="userSpaceOnUse" x1="13.463" y1="26.0369" x2="16.3732" y2="17.625" gradientTransform="matrix(1 0 0 -1 0 31.89)">
		<stop  offset="0" style="stop-color:#E6CDCD"/>
		<stop  offset="0.4738" style="stop-color:#867676"/>
		<stop  offset="0.8284" style="stop-color:#443A3A"/>
		<stop  offset="0.9944" style="stop-color:#2B2323"/>
	</linearGradient>
	<path fill="url(#SVGID_11_)" d="M17.024,13.593c-0.44,0-0.812-0.303-0.826-0.314c-0.109-0.085-0.518-0.377-1.042-0.377
		c-0.595,0-1.067,0.395-1.087,0.412l0.259,0.305c0.003-0.003,0.386-0.316,0.829-0.316c0.44,0,0.812,0.303,0.826,0.314
		c0.109,0.085,0.518,0.377,1.042,0.377c0.595,0,1.067-0.395,1.087-0.412l-0.259-0.305C17.849,13.28,17.467,13.593,17.024,13.593z"/>
</g>
<g>
	
		<linearGradient id="SVGID_12_" gradientUnits="userSpaceOnUse" x1="9.887" y1="20.8985" x2="10.4514" y2="13.0569" gradientTransform="matrix(1 0 0 -1 0 31.89)">
		<stop  offset="0" style="stop-color:#E6CDCD"/>
		<stop  offset="0.4738" style="stop-color:#867676"/>
		<stop  offset="0.8284" style="stop-color:#443A3A"/>
		<stop  offset="0.9944" style="stop-color:#2B2323"/>
	</linearGradient>
	<path fill="url(#SVGID_12_)" d="M10.399,17.361l-0.221-0.134c-0.139-0.085-0.237-0.168-0.296-0.25s-0.088-0.176-0.088-0.283
		c0-0.16,0.056-0.29,0.167-0.39c0.111-0.1,0.255-0.149,0.433-0.149c0.17,0,0.325,0.047,0.467,0.143v0.33
		c-0.146-0.141-0.304-0.211-0.473-0.211c-0.095,0-0.173,0.022-0.234,0.066s-0.092,0.1-0.092,0.168c0,0.061,0.022,0.118,0.067,0.171
		c0.045,0.054,0.118,0.108,0.217,0.167l0.222,0.132c0.248,0.148,0.372,0.337,0.372,0.565c0,0.163-0.055,0.295-0.164,0.396
		c-0.109,0.103-0.251,0.153-0.425,0.153c-0.201,0-0.383-0.062-0.548-0.186v-0.368c0.157,0.199,0.339,0.299,0.545,0.299
		c0.091,0,0.167-0.025,0.228-0.076s0.091-0.114,0.091-0.19C10.667,17.59,10.578,17.472,10.399,17.361z"/>
	
		<linearGradient id="SVGID_13_" gradientUnits="userSpaceOnUse" x1="10.9574" y1="20.9755" x2="11.5217" y2="13.1339" gradientTransform="matrix(1 0 0 -1 0 31.89)">
		<stop  offset="0" style="stop-color:#E6CDCD"/>
		<stop  offset="0.4738" style="stop-color:#867676"/>
		<stop  offset="0.8284" style="stop-color:#443A3A"/>
		<stop  offset="0.9944" style="stop-color:#2B2323"/>
	</linearGradient>
	<path fill="url(#SVGID_13_)" d="M11.264,16.181h0.291v2.032h-0.291V16.181z"/>
	
		<linearGradient id="SVGID_14_" gradientUnits="userSpaceOnUse" x1="12.2643" y1="21.0695" x2="12.8286" y2="13.2279" gradientTransform="matrix(1 0 0 -1 0 31.89)">
		<stop  offset="0" style="stop-color:#E6CDCD"/>
		<stop  offset="0.4738" style="stop-color:#867676"/>
		<stop  offset="0.8284" style="stop-color:#443A3A"/>
		<stop  offset="0.9944" style="stop-color:#2B2323"/>
	</linearGradient>
	<path fill="url(#SVGID_14_)" d="M12.014,18.213v-2.032h0.509c0.206,0,0.369,0.051,0.489,0.153s0.181,0.239,0.181,0.413
		c0,0.118-0.03,0.221-0.089,0.307s-0.144,0.15-0.254,0.193c0.065,0.043,0.128,0.101,0.19,0.175c0.062,0.073,0.149,0.202,0.262,0.386
		c0.071,0.115,0.127,0.202,0.17,0.26l0.107,0.146h-0.346l-0.088-0.134c-0.003-0.005-0.009-0.013-0.018-0.024l-0.057-0.08
		l-0.09-0.148l-0.097-0.159c-0.06-0.083-0.115-0.149-0.165-0.199c-0.05-0.049-0.095-0.085-0.136-0.106
		c-0.04-0.021-0.108-0.032-0.203-0.032h-0.076v0.884h-0.289V18.213z M12.392,16.428h-0.087v0.641h0.111
		c0.147,0,0.248-0.012,0.303-0.037c0.055-0.025,0.097-0.063,0.128-0.114c0.03-0.051,0.045-0.109,0.045-0.174
		c0-0.064-0.017-0.122-0.051-0.174c-0.034-0.052-0.082-0.088-0.143-0.11S12.535,16.428,12.392,16.428z"/>
	
		<linearGradient id="SVGID_15_" gradientUnits="userSpaceOnUse" x1="14.1579" y1="21.2058" x2="14.7223" y2="13.3642" gradientTransform="matrix(1 0 0 -1 0 31.89)">
		<stop  offset="0" style="stop-color:#E6CDCD"/>
		<stop  offset="0.4738" style="stop-color:#867676"/>
		<stop  offset="0.8284" style="stop-color:#443A3A"/>
		<stop  offset="0.9944" style="stop-color:#2B2323"/>
	</linearGradient>
	<path fill="url(#SVGID_15_)" d="M14.622,16.152c0.314,0,0.575,0.099,0.784,0.298s0.313,0.448,0.313,0.748
		c0,0.299-0.105,0.547-0.316,0.743c-0.21,0.196-0.477,0.295-0.797,0.295c-0.306,0-0.562-0.099-0.765-0.295
		c-0.204-0.196-0.306-0.442-0.306-0.737c0-0.304,0.103-0.555,0.308-0.754S14.308,16.152,14.622,16.152z M14.633,16.428
		c-0.232,0-0.423,0.073-0.573,0.218c-0.149,0.146-0.224,0.331-0.224,0.558c0,0.219,0.075,0.401,0.225,0.546
		c0.15,0.146,0.338,0.219,0.563,0.219c0.227,0,0.416-0.074,0.567-0.223c0.152-0.148,0.228-0.333,0.228-0.554
		c0-0.216-0.076-0.396-0.228-0.543C15.041,16.502,14.854,16.428,14.633,16.428z"/>
	
		<linearGradient id="SVGID_16_" gradientUnits="userSpaceOnUse" x1="16.4523" y1="21.3709" x2="17.0166" y2="13.5293" gradientTransform="matrix(1 0 0 -1 0 31.89)">
		<stop  offset="0" style="stop-color:#E6CDCD"/>
		<stop  offset="0.4738" style="stop-color:#867676"/>
		<stop  offset="0.8284" style="stop-color:#443A3A"/>
		<stop  offset="0.9944" style="stop-color:#2B2323"/>
	</linearGradient>
	<path fill="url(#SVGID_16_)" d="M17.828,17.742v0.319c-0.213,0.116-0.459,0.175-0.738,0.175c-0.228,0-0.42-0.046-0.578-0.137
		c-0.158-0.091-0.283-0.217-0.375-0.377c-0.092-0.16-0.138-0.333-0.138-0.519c0-0.297,0.105-0.545,0.316-0.747
		c0.21-0.202,0.471-0.302,0.781-0.302c0.213,0,0.45,0.056,0.711,0.167v0.313c-0.237-0.136-0.47-0.204-0.696-0.204
		c-0.234,0-0.427,0.073-0.581,0.22c-0.153,0.147-0.23,0.331-0.23,0.552c0,0.223,0.076,0.406,0.227,0.549
		c0.151,0.144,0.344,0.216,0.581,0.216C17.354,17.968,17.594,17.892,17.828,17.742z"/>
	
		<linearGradient id="SVGID_17_" gradientUnits="userSpaceOnUse" x1="18.5498" y1="21.5219" x2="19.1142" y2="13.6803" gradientTransform="matrix(1 0 0 -1 0 31.89)">
		<stop  offset="0" style="stop-color:#E6CDCD"/>
		<stop  offset="0.4738" style="stop-color:#867676"/>
		<stop  offset="0.8284" style="stop-color:#443A3A"/>
		<stop  offset="0.9944" style="stop-color:#2B2323"/>
	</linearGradient>
	<path fill="url(#SVGID_17_)" d="M19.937,17.742v0.319c-0.213,0.116-0.459,0.175-0.738,0.175c-0.228,0-0.42-0.046-0.577-0.137
		c-0.158-0.091-0.283-0.217-0.376-0.377c-0.092-0.16-0.138-0.333-0.138-0.519c0-0.297,0.105-0.545,0.316-0.747
		s0.471-0.302,0.78-0.302c0.213,0,0.45,0.056,0.711,0.167v0.313c-0.237-0.136-0.47-0.204-0.696-0.204
		c-0.233,0-0.426,0.073-0.58,0.22c-0.153,0.147-0.23,0.331-0.23,0.552c0,0.223,0.076,0.406,0.227,0.549
		c0.151,0.144,0.345,0.216,0.581,0.216C19.462,17.968,19.702,17.892,19.937,17.742z"/>
	
		<linearGradient id="SVGID_18_" gradientUnits="userSpaceOnUse" x1="20.7932" y1="21.6833" x2="21.3575" y2="13.8418" gradientTransform="matrix(1 0 0 -1 0 31.89)">
		<stop  offset="0" style="stop-color:#E6CDCD"/>
		<stop  offset="0.4738" style="stop-color:#867676"/>
		<stop  offset="0.8284" style="stop-color:#443A3A"/>
		<stop  offset="0.9944" style="stop-color:#2B2323"/>
	</linearGradient>
	<path fill="url(#SVGID_18_)" d="M21.292,16.152c0.314,0,0.575,0.099,0.784,0.298s0.313,0.448,0.313,0.748
		c0,0.299-0.105,0.547-0.316,0.743s-0.477,0.295-0.797,0.295c-0.307,0-0.562-0.099-0.766-0.295s-0.306-0.442-0.306-0.737
		c0-0.304,0.103-0.555,0.308-0.754C20.719,16.251,20.979,16.152,21.292,16.152z M21.304,16.428c-0.232,0-0.424,0.073-0.573,0.218
		c-0.149,0.146-0.225,0.331-0.225,0.558c0,0.219,0.075,0.401,0.226,0.546c0.15,0.146,0.338,0.219,0.563,0.219
		c0.227,0,0.416-0.074,0.567-0.223s0.228-0.333,0.228-0.554c0-0.216-0.076-0.396-0.228-0.543S21.524,16.428,21.304,16.428z"/>
</g>
<linearGradient id="SVGID_19_" gradientUnits="userSpaceOnUse" x1="17.8348" y1="39.2776" x2="13.8546" y2="-11.2175">
	<stop  offset="0" style="stop-color:#E6CDCD"/>
	<stop  offset="0.15" style="stop-color:#E3CBCB"/>
	<stop  offset="0.2442" style="stop-color:#DBC3C3"/>
	<stop  offset="0.323" style="stop-color:#CCB6B6"/>
	<stop  offset="0.3933" style="stop-color:#B7A3A3"/>
	<stop  offset="0.4574" style="stop-color:#9D8B8B"/>
	<stop  offset="0.5013" style="stop-color:#867676"/>
	<stop  offset="0.8106" style="stop-color:#443A3A"/>
	<stop  offset="0.9944" style="stop-color:#2B2323"/>
</linearGradient>
<path fill="url(#SVGID_19_)" d="M16,29.999c-0.557,0-1.146-0.255-1.573-0.683L2.684,17.572C2.251,17.229,2,16.663,2,16
	c0-0.557,0.255-1.145,0.684-1.573L14.428,2.683C14.771,2.251,15.337,2,16,2c0.557,0,1.145,0.255,1.573,0.683l11.744,11.745
	C29.749,14.77,30,15.336,30,16c0,0.557-0.255,1.145-0.683,1.572L17.573,29.316C17.229,29.749,16.663,29.999,16,29.999z
	 M15.036,29.152c0.217,0.284,0.638,0.458,1.055,0.458c0.386,0,0.76-0.161,1.053-0.454l5.287-5.288l1.998-4.621v2.713l4.817-4.816
	c0.212-0.289,0.376-0.701,0.458-1.193c-0.004-0.336-0.165-0.709-0.458-1.001L23.778,9.48l-4.582-1.909h2.672l-4.816-4.817
	C16.838,2.473,16.417,2.3,16,2.3c-0.385,0-0.759,0.162-1.052,0.455L9.935,7.768l-2.091,5.291V9.95l-4.999,4.998
	C2.564,15.162,2.391,15.583,2.391,16c0,0.386,0.162,0.76,0.455,1.053l5.288,5.288l4.916,2.088H10.15L15.036,29.152z"/>
<linearGradient id="SVGID_20_" gradientUnits="userSpaceOnUse" x1="10.7792" y1="807.737" x2="21.1214" y2="843.9145" gradientTransform="matrix(1 0 0 1 0 -810)">
	<stop  offset="0" style="stop-color:#E6CDCD"/>
	<stop  offset="0.4738" style="stop-color:#867676"/>
	<stop  offset="0.8284" style="stop-color:#443A3A"/>
	<stop  offset="0.9944" style="stop-color:#2B2323"/>
</linearGradient>
<path fill="url(#SVGID_20_)" d="M29.819,14.555L17.445,2.181C17.084,1.82,16.542,1.549,16,1.549s-1.084,0.181-1.445,0.632
	L2.181,14.555C1.82,14.916,1.549,15.458,1.549,16c0,0.542,0.181,1.084,0.632,1.445l12.374,12.374
	c0.361,0.361,0.903,0.632,1.445,0.632c0.542,0,1.084-0.181,1.445-0.632l12.374-12.374c0.361-0.361,0.632-0.903,0.632-1.445
	C30.451,15.458,30.271,14.916,29.819,14.555z M29.458,17.355l-5.329,5.329v-1.987l-1.445,3.342l-5.329,5.329
	c-0.361,0.361-0.813,0.542-1.264,0.542c-0.452,0-0.994-0.181-1.264-0.542l-5.419-5.239h2.168l-3.613-1.535l-5.329-5.329
	C2.271,16.903,2.091,16.452,2.091,16c0-0.452,0.181-0.994,0.542-1.264l5.51-5.51v2.258L9.678,7.6l5.058-5.058
	C15.097,2.181,15.548,2,16,2s0.994,0.181,1.264,0.542l5.329,5.329h-1.897l3.252,1.355l5.51,5.51C29.819,15.097,30,15.548,30,16
	C29.909,16.542,29.729,16.994,29.458,17.355z"/>
</svg>
