<?xml version="1.0" encoding="utf-8"?>
<!-- Generator: Adobe Illustrator 16.0.0, SVG Export Plug-In . SVG Version: 6.00 Build 0)  -->
<!DOCTYPE svg PUBLIC "-//W3C//DTD SVG 1.1//EN" "http://www.w3.org/Graphics/SVG/1.1/DTD/svg11.dtd">
<svg version="1.1" id="Layer_1" xmlns="http://www.w3.org/2000/svg" xmlns:xlink="http://www.w3.org/1999/xlink" x="0px" y="0px"
	 width="32px" height="32px" viewBox="0 0 32 32" enable-background="new 0 0 32 32" xml:space="preserve">
<path fill="#D3D2CF" d="M29.802,12.938h-1.52L16.815,1.461c-0.191-0.192-0.447-0.298-0.72-0.298c-0.271,0-0.528,0.106-0.721,0.298
	L3.936,12.938H2.452c-0.955,0-1.73,0.776-1.73,1.73v5.121c0,0.954,0.775,1.73,1.73,1.73H4.89h1.349l9.139,9.139
	c0.191,0.191,0.447,0.297,0.72,0.297c0.271,0,0.528-0.105,0.721-0.297l9.137-9.139h1.349h2.499c0.955,0,1.73-0.776,1.73-1.73v-5.121
	C31.532,13.714,30.757,12.938,29.802,12.938z"/>
<g>
	<path fill-rule="evenodd" clip-rule="evenodd" fill="#D3D2CF" d="M30.221,16.29c0.163-0.163,0.163-0.427,0-0.59L16.392,1.87
		c-0.163-0.163-0.428-0.163-0.59,0L1.972,15.699c-0.162,0.163-0.162,0.428,0,0.59H30.221z"/>
	<path fill="#404A9E" d="M16.097,2.658l12.867,12.866H3.23L16.097,2.658 M16.097,1.749c-0.106,0-0.213,0.04-0.295,0.122
		L1.972,15.699c-0.162,0.163-0.162,0.428,0,0.59h28.249c0.163-0.163,0.163-0.427,0-0.59L16.392,1.87
		C16.311,1.789,16.204,1.749,16.097,1.749L16.097,1.749z"/>
</g>
<path fill="#404A9E" d="M30.221,16.314L16.392,30.144c-0.081,0.081-0.188,0.122-0.295,0.122c-0.106,0-0.213-0.041-0.295-0.122
	L1.972,16.314c-0.162-0.163-0.162-0.427,0-0.59h28.249C30.384,15.887,30.384,16.151,30.221,16.314z"/>
<path fill="#2E3678" d="M5.653,19.119l10.443,10.236l10.247-10.018L5.653,19.119z M8.237,20.082l8.354-0.012l0.349,7.902
	l-0.495,0.318L8.237,20.082z M17.716,26.361l-0.044-0.342l0.121-0.004l-0.182-1.578l0.12-0.004l-0.18-1.543l0.12-0.006l-0.175-1.422
	l0.115-0.001l-0.17-1.41l6.56-0.005L17.716,26.361z"/>
<g>
	<path fill-rule="evenodd" clip-rule="evenodd" fill="#A09F9F" d="M17.946,6.085c-0.229-0.326-1.288-0.82-1.733-0.542
		c-0.236,0.147-0.401,0.036-0.692,0.473c-0.143-0.243-0.359-0.905-0.912-0.563c-0.039,0.024-0.078,0.05-0.118,0.076l-1.216-0.157
		l-8.258,8.362h0.64c0,0,2.681-2.72,2.671-2.66c-0.062,0.385-0.113,0.757-0.113,0.757c-0.037,0.425,0.02,0.691,0.02,0.691
		l0.418-1.064l0.156,0.424l0.187-0.797L9.34,11.42l-0.017-0.619c0,0,0.328,0.282,0.295,0.229s0.188-0.69,0.188-0.69l0.585-0.321
		l0.37,0.069l-0.016-0.567l0.296,0.282l0.103-0.39l0.243,0.07c-0.934,1.056-1.617,2.802-1.652,2.918
		c-0.043,0.138,0.776-0.809,0.776-0.809l0.172,0.581l0.208-0.557l0.272,0.254l-0.019-0.563l0.436,0.409l0.204-0.827l0.285,0.357
		c-0.026,0.017-0.044,0.027-0.044,0.027l0.146,0.147l-0.32,0.152c0,0-0.232,0.71-0.27,1.19c-0.035,0.481,0.062,1.1,0.103,1.24
		c0.039,0.141,0.131,0.581,0.131,0.581s0.126-0.475,0.339-1.006c0.214-0.532,0.927-1.25,0.927-1.25l0.083-0.172
		c0,0,0.341-0.252,0.627-0.733c0.038-0.063,0.072-0.125,0.105-0.188c-0.003,0.092,0.004,0.146,0.004,0.146l-0.064,0.143
		c0,0,0.289,0.971,0.179,1.426c-0.111,0.456,0.642,1.02,0.642,1.02s-0.267-0.531-0.225-0.636c0.044-0.112,0.042-0.376,0.075-0.593
		c0.059-0.384,0.359-0.824,0.359-0.824L14.49,11.3l0.47,0.349c0,0-0.076-0.375-0.132-0.438c-0.055-0.064,0.031-0.09,0.031-0.09
		l0.209,0.108c-0.016,0.028-0.027,0.048-0.027,0.048l0.137,0.064l-0.161,0.119c0,0,0.041,0.389,0.131,0.622
		c0.09,0.233,0.279,0.498,0.331,0.553c0.054,0.056,0.316,0.141,0.316,0.141s-0.157-0.156-0.167-0.458
		c-0.008-0.301,0.349,0.985,0.349,0.985l0.567,0.57l0.69-0.094l-0.173-2.703c0,0,0-0.178,0.002-0.29
		c0.104,0.14,0.305,0.428,0.361,0.641c0.078,0.291-0.028,0.486-0.028,0.486s0.229-0.157,0.262-0.226
		c0.022-0.042,0.069-0.172,0.107-0.324c0.086,0.104,0.146,0.161,0.146,0.161l0.056,0.159c0,0,0.574,0.713,0.703,1.194
		c0.128,0.481-0.048,0.803-0.048,0.803s0.375-0.26,0.433-0.373c0.058-0.113,0.232-0.621,0.264-1.033
		c0.032-0.412-0.09-1.046-0.09-1.046l-0.72-0.263l0.596-0.017c0,0-0.326-0.256-0.413-0.273c-0.086-0.017-0.042-0.093-0.042-0.093
		l0.207-0.041c0.126,0.111,0.215,0.223,0.243,0.272c0.062,0.108,0.218-0.307,0.218-0.307l0.111,0.322l0.199-0.169l0.11,0.544
		l0.2-0.23l0.196,0.598l0.216-0.399l0.371,0.744l0.337-0.445l0.102,0.529l0.211-0.276l0.319,0.491l0.044-0.567
		c0,0,0.997,0.767,0.926,0.644c-0.07-0.123-1.423-1.664-2.729-2.423c-0.236-0.137-0.493-0.255-0.753-0.356l0.454-0.224l0.557,0.615
		l0.375-0.214l0.207,0.352l0.21-0.34l0.142,0.548l0.343-0.152l0.657,0.173c0,0,0.394,0.563,0.376,0.621
		c-0.019,0.059,0.223-0.289,0.223-0.289l0.155,0.6l0.244-0.402l0.403,0.724l0.033-0.444l0.704,0.926c0,0-0.021-0.268-0.174-0.668
		c-0.153-0.4-0.597-0.897-1.221-1.841c-0.374-0.564-0.733-0.966-1.332-1.218L17.946,6.085z M11.787,9.092l0.142-0.284l0.196,0.044
		c-0.065,0.041-0.13,0.083-0.192,0.127C11.884,9.015,11.835,9.053,11.787,9.092z M12.499,11.035
		c-0.068,0.002-0.294,0.133-0.407,0.199l0.058-0.615l0.198,0.164c-0.054,0.018-0.087,0.029-0.087,0.029l0.296,0.123
		C12.557,10.936,12.591,11.032,12.499,11.035z M13.18,10.531c-0.049-0.004-0.534,0.153-0.78,0.235l-0.012-0.52l0.236,0.144
		l0.001-0.006C12.688,10.4,13.242,10.538,13.18,10.531z M13.486,10.307l-0.861,0.075l0.038-0.342c0,0,0.194-0.342,0.232-0.463
		c0.03-0.095,0.367-0.231,0.697-0.337c-0.405,0.447-0.568,0.773-0.568,0.773L13.486,10.307z M15.185,11.073
		c-0.023,0.013-0.061,0.066-0.091,0.115c-0.087-0.184-0.312-0.655-0.348-0.688c-0.041-0.037,0.345,0.23,0.433,0.291
		c-0.05,0.075-0.121,0.214-0.121,0.214l0.183-0.017C15.24,10.988,15.232,11.049,15.185,11.073z M15.274,10.44l-0.049,0.093
		l-0.077,0.181c0,0,0.029,0.026,0.056,0.043c-0.008,0.007-0.014,0.017-0.022,0.028l-0.476-0.605l0.488,0.165
		c0,0,0.094-0.31,0.122-1.013c0.075,0.112,0.146,0.238,0.208,0.388C15.313,10.205,15.274,10.44,15.274,10.44z"/>
</g>
<g>
	<path fill="#DCB622" d="M16.557,7.957c0.004,0.063,0.007,0.104,0.009,0.154C16.563,8.063,16.561,8.012,16.557,7.957z"/>
	<path fill="#DCB622" d="M16.588,8.619c0.004,0.074,0.007,0.233,0.01,0.347c0.007,0,0.015,0,0.021,0
		c-0.02-0.319-0.031-0.512-0.048-0.772c-0.288,0-0.576-0.001-0.864-0.001c-0.017,0.26-0.028,0.454-0.051,0.772
		c0.009,0,0.017,0,0.024,0c0.004-0.113,0.008-0.272,0.014-0.347C15.992,8.618,16.29,8.619,16.588,8.619z"/>
	<path fill="#DCB622" d="M16.649,10.014c-0.007-0.125-0.014-0.231-0.021-0.331c-0.107-0.001-0.283-0.024-0.517-0.028
		c-0.263-0.004-0.425,0.008-0.465,0.012c-0.007,0.104-0.014,0.214-0.022,0.347C15.966,10.014,16.309,10.014,16.649,10.014z"/>
	<path fill="#DCB622" d="M16.629,10.274c-0.327,0-0.655-0.001-0.983-0.001c0.002-0.034,0.004-0.063,0.006-0.088
		c-0.021,0.325-0.034,0.537-0.059,0.911c0.363,0,0.726,0.001,1.088,0.001C16.658,10.757,16.646,10.551,16.629,10.274z"/>
	<path fill="#DCB622" d="M15.623,11.252c0.002-0.045,0.005-0.088,0.009-0.147C15.628,11.157,15.625,11.206,15.623,11.252z"/>
	<path fill="#DCB622" d="M16.642,11.106c0,0.018,0.002,0.035,0.002,0.05C16.643,11.14,16.642,11.123,16.642,11.106z"/>
	<path fill="#DCB622" d="M16.656,11.365c-0.347,0-0.693,0-1.042-0.001c-0.017,0.287-0.031,0.499-0.053,0.85
		c0.383,0,0.765,0,1.148,0.001C16.688,11.864,16.674,11.651,16.656,11.365z"/>
	<path fill="#DCB622" d="M16.82,19.795c0,0.004,0,0.007,0,0.012c0.018,0,0.035,0,0.052,0c-0.029-0.55-0.052-0.863-0.081-1.4
		c0.007,0.127,0.01,0.189,0.018,0.316c-0.453,0-0.905,0-1.359-0.001c-0.017,0.364-0.027,0.65-0.052,1.083c0.018,0,0.035,0,0.052,0
		c0-0.004,0-0.008,0-0.012C15.906,19.794,16.363,19.794,16.82,19.795z"/>
	<path fill="#B69F4F" d="M16.82,19.604c0,0.004,0,0.008,0,0.012c0.018,0,0.035,0,0.052,0c-0.029-0.549-0.052-0.862-0.081-1.4
		c0.007,0.127,0.01,0.19,0.018,0.317c-0.453-0.001-0.905-0.001-1.359-0.002c-0.017,0.365-0.027,0.651-0.052,1.083
		c0.018,0,0.035,0,0.052,0c0-0.004,0-0.008,0-0.012C15.906,19.603,16.363,19.603,16.82,19.604z"/>
	<path fill="#DCB622" d="M16.817,22.668c0.019,0,0.075,0,0.095,0c-0.022-0.464-0.063-0.75-0.093-1.131
		c-0.463-0.002-0.925-0.002-1.387-0.002c-0.028,0.381-0.063,0.668-0.087,1.131c0.017,0,0.07,0,0.085,0v0.001
		C15.893,22.668,16.354,22.668,16.817,22.668C16.817,22.668,16.817,22.668,16.817,22.668z"/>
	<path fill="#DCB622" d="M16.863,27.371c0.019,0,0.08,0,0.102,0c-0.022-0.508-0.063-0.828-0.093-1.24c-0.5,0-1-0.001-1.5-0.002
		c-0.028,0.414-0.064,0.732-0.089,1.24c0.019,0,0.076,0,0.094,0c0,0.004,0,0.008-0.001,0.012c0.496,0,0.991,0,1.487,0.001
		C16.863,27.378,16.863,27.375,16.863,27.371z"/>
	<path fill="#DCB622" d="M16.886,27.778c-0.511-0.001-1.022-0.001-1.533-0.001c-0.029,0.416-0.066,0.738-0.09,1.26
		c0.266,0,0.597,0.582,0.862,0.582c0.305,0,0.544-0.581,0.849-0.581C16.951,28.518,16.915,28.195,16.886,27.778z"/>
	<path fill="#DCB622" d="M16.833,21.196C16.833,21.197,16.833,21.197,16.833,21.196c0.021,0.001,0.044,0.001,0.056,0.001
		c-0.024-0.465-0.061-0.727-0.089-1.102c-0.447-0.001-0.894-0.002-1.341-0.002c-0.03,0.377-0.068,0.637-0.094,1.103
		c0.011,0,0.032,0,0.054,0c0-0.001,0-0.001,0-0.001C15.891,21.195,16.362,21.195,16.833,21.196z"/>
	<path fill="#DCB622" d="M16.833,24.161c0.02,0,0.078,0,0.099,0c-0.023-0.466-0.063-0.761-0.092-1.14c-0.477,0-0.953,0-1.431-0.001
		c-0.028,0.378-0.062,0.674-0.086,1.14c0.017,0,0.072,0,0.09,0c0,0.003,0,0.006,0,0.009c0.474,0.001,0.947,0.001,1.42,0.001
		C16.833,24.168,16.833,24.164,16.833,24.161z"/>
	<path fill="#DCB622" d="M16.849,25.748c0.02,0,0.08,0,0.101,0c-0.023-0.495-0.063-0.805-0.094-1.211
		c-0.489,0-0.977-0.001-1.464-0.001c-0.029,0.405-0.065,0.715-0.089,1.211c0.018,0,0.074,0,0.091,0c0,0.001,0,0.001,0,0.001
		C15.879,25.748,16.364,25.748,16.849,25.748L16.849,25.748z"/>
	<path fill="#B69F4F" d="M15.707,8.192L15.707,8.192c0.005-0.072,0.011-0.149,0.015-0.236C15.716,8.051,15.713,8.097,15.707,8.192z"
		/>
	<path fill="#B69F4F" d="M16.571,8.193c-0.002-0.031-0.003-0.057-0.006-0.082C16.568,8.139,16.57,8.166,16.571,8.193L16.571,8.193z"
		/>
	<path fill="#B69F4F" d="M16.565,8.111c-0.002-0.049-0.005-0.091-0.009-0.154c-0.277,0-0.556,0-0.835-0.001
		c-0.004,0.087-0.01,0.164-0.015,0.236c0.288,0,0.576,0,0.864,0.001C16.57,8.166,16.568,8.139,16.565,8.111z"/>
	<path fill="#B69F4F" d="M16.586,8.974c0.017,0.29,0.028,0.478,0.043,0.709c0.003,0,0.009,0,0.011,0c0-0.253-0.042-0.479-0.039-0.63
		C16.6,9.03,16.598,9,16.598,8.965c-0.307,0-0.611,0-0.917-0.001c-0.002,0.035-0.003,0.065-0.006,0.088
		c-0.017,0.271-0.038,0.615-0.038,0.615s0.004,0,0.011-0.001c0.014-0.225,0.025-0.411,0.045-0.694
		C15.99,8.973,16.288,8.974,16.586,8.974z"/>
	<path fill="#B69F4F" d="M16.588,8.619c-0.298,0-0.596,0-0.894-0.001c-0.006,0.075-0.01,0.233-0.014,0.347
		c0.306,0,0.61,0.001,0.917,0.001C16.595,8.852,16.592,8.693,16.588,8.619z"/>
	<path fill="#B69F4F" d="M16.112,9.655c0.233,0.004,0.409,0.026,0.517,0.028c-0.015-0.231-0.026-0.42-0.043-0.709
		c-0.298,0-0.596,0-0.894,0c-0.02,0.283-0.031,0.469-0.045,0.694C15.688,9.663,15.85,9.651,16.112,9.655z"/>
	<path fill="#B69F4F" d="M16.629,10.274c-0.006-0.101-0.01-0.151-0.016-0.251C16.619,10.115,16.625,10.197,16.629,10.274
		L16.629,10.274z"/>
	<path fill="#B69F4F" d="M15.651,10.185c0.003-0.051,0.006-0.105,0.009-0.163C15.656,10.088,15.654,10.133,15.651,10.185z"/>
	<path fill="#B69F4F" d="M16.629,10.274c-0.004-0.077-0.01-0.159-0.016-0.251c-0.317,0-0.635,0-0.953-0.001
		c-0.003,0.058-0.006,0.111-0.009,0.163c-0.002,0.026-0.004,0.054-0.006,0.088C15.974,10.273,16.302,10.273,16.629,10.274z"/>
	<path fill="#B69F4F" d="M15.614,11.364L15.614,11.364c0.003-0.036,0.007-0.072,0.009-0.111
		C15.621,11.286,15.617,11.32,15.614,11.364z"/>
	<path fill="#B69F4F" d="M16.657,11.365c-0.006-0.085-0.008-0.136-0.014-0.208C16.649,11.231,16.653,11.3,16.657,11.365
		C16.656,11.365,16.656,11.365,16.657,11.365z"/>
	<path fill="#B69F4F" d="M16.644,11.156c0-0.016-0.002-0.032-0.002-0.05c-0.337,0-0.674,0-1.01-0.001
		c-0.004,0.06-0.007,0.102-0.009,0.147c-0.002,0.039-0.006,0.076-0.009,0.111c0.349,0,0.695,0.001,1.042,0.001
		C16.653,11.3,16.649,11.231,16.644,11.156z"/>
	<path fill="#B69F4F" d="M15.449,18.722L15.449,18.722c0.006-0.099,0.011-0.202,0.019-0.316
		C15.46,18.531,15.456,18.596,15.449,18.722z"/>
	<path fill="#B69F4F" d="M16.791,18.406c-0.441,0-0.883-0.001-1.323-0.001c-0.008,0.114-0.013,0.218-0.019,0.316
		c0.454,0.001,0.906,0.001,1.359,0.001C16.801,18.596,16.798,18.533,16.791,18.406z"/>
	<path fill="#B69F4F" d="M16.82,19.795c-0.457-0.001-0.914-0.001-1.371-0.002c0,0.004,0,0.008,0,0.012
		c0.457,0,0.914,0.001,1.371,0.002C16.82,19.802,16.82,19.799,16.82,19.795z"/>
	<path fill="#B69F4F" d="M16.781,19.789c-0.434,0-0.868,0-1.303-0.001c-0.006,0.112-0.013,0.213-0.02,0.306
		c0.447,0,0.894,0.001,1.341,0.002C16.794,20.002,16.788,19.902,16.781,19.789z"/>
	<path fill="#B69F4F" d="M16.797,21.197c0.008,0,0.022,0,0.036,0c0,0,0,0,0-0.001c-0.471-0.001-0.942-0.001-1.414-0.001
		c0,0,0,0,0,0.001c0.015,0,0.028,0,0.035,0c-0.007,0.124-0.014,0.234-0.021,0.339c0.462,0,0.924,0,1.387,0.002
		C16.812,21.433,16.805,21.322,16.797,21.197z"/>
	<path fill="#B69F4F" d="M16.817,22.669c-0.463-0.001-0.925-0.001-1.387-0.001c-0.006,0.129-0.013,0.244-0.021,0.353
		c0.478,0.001,0.954,0.001,1.431,0.001C16.831,22.913,16.824,22.798,16.817,22.669z"/>
	<path fill="#DCB622" d="M16.656,13.377c0.016,0,0.059,0,0.073,0c-0.018-0.355-0.048-0.575-0.071-0.866
		c-0.354-0.001-0.709-0.001-1.063-0.001c-0.022,0.292-0.048,0.511-0.066,0.867c0.013,0,0.055,0,0.065,0l0,0
		c0.354,0,0.708,0.001,1.063,0.002V13.377z"/>
	<path fill="#DCB622" d="M16.669,12.249C16.669,12.25,16.669,12.25,16.669,12.249c0.016,0.001,0.034,0.001,0.042,0.001
		c-0.019-0.357-0.046-0.557-0.068-0.845c-0.343,0-0.685-0.001-1.027-0.001c-0.022,0.289-0.053,0.489-0.072,0.845
		c0.008,0,0.025,0,0.041,0v0C15.946,12.249,16.308,12.249,16.669,12.249z"/>
	<path fill="#B69F4F" d="M16.641,12.25c0.006,0,0.018,0,0.028,0c0,0,0-0.001,0-0.001c-0.361,0-0.723,0-1.085,0v0
		c0.012,0,0.021,0,0.027,0c-0.006,0.095-0.01,0.18-0.017,0.26c0.354,0,0.709,0,1.063,0.001
		C16.652,12.431,16.646,12.346,16.641,12.25z"/>
	<path fill="#B69F4F" d="M16.656,13.378c-0.354,0-0.709-0.001-1.063-0.001c-0.005,0.099-0.01,0.188-0.017,0.271
		c0.365,0,0.731,0.001,1.097,0.001C16.667,13.565,16.662,13.478,16.656,13.378z"/>
	<path fill="#B69F4F" d="M16.833,24.17c-0.473,0-0.946,0-1.42-0.001c-0.007,0.134-0.016,0.254-0.021,0.367
		c0.487,0,0.975,0.001,1.464,0.001C16.847,24.425,16.839,24.305,16.833,24.17z"/>
	<path fill="#B69F4F" d="M16.849,25.749c-0.484-0.001-0.97-0.001-1.455-0.001c-0.006,0.139-0.015,0.264-0.021,0.381
		c0.5,0.001,1,0.002,1.5,0.002C16.863,26.014,16.855,25.889,16.849,25.749z"/>
	<path fill="#B69F4F" d="M16.863,27.382c-0.496-0.001-0.991-0.001-1.487-0.001c-0.006,0.145-0.014,0.273-0.023,0.396
		c0.089,0,0.176,0,0.263,0c0.155,0,0.312,0,0.468,0c0.193,0,0.387,0,0.58,0.001c0.074,0,0.148,0,0.223,0
		C16.877,27.656,16.869,27.527,16.863,27.382z"/>
</g>
<rect x="24.566" y="8.86" transform="matrix(0.708 -0.7062 0.7062 0.708 -1.053 20.9758)" fill-rule="evenodd" clip-rule="evenodd" fill="#A09F9F" width="0.546" height="5.802"/>
<polygon fill="#B69F4F" points="16.104,28.303 15.366,27.564 15.353,27.781 16.104,28.533 16.884,27.755 16.872,27.551 "/>
<path fill="#404A9E" d="M30.221,16.314c0.163-0.163,0.163-0.427,0-0.59H1.972c-0.162,0.163-0.162,0.427,0,0.59l13.83,13.829
	c0.082,0.081,0.136,0.122,0.295,0.122c0.158,0,0.277-0.105,0.277-0.105L30.221,16.314z M16.097,28.431L5.081,17.415h22.031
	L16.097,28.431z"/>
<path fill-rule="evenodd" clip-rule="evenodd" fill="#D3D2CF" d="M30.282,19.778c0,0.391-0.316,0.708-0.707,0.708H2.68
	c-0.392,0-0.708-0.317-0.708-0.708v-5.036c0-0.391,0.316-0.708,0.708-0.708h26.896c0.391,0,0.707,0.317,0.707,0.708V19.778z"/>
<path fill="#404A9E" d="M29.802,20.951H2.452c-0.623,0-1.13-0.508-1.13-1.131V14.7c0-0.623,0.507-1.129,1.13-1.129h27.35
	c0.623,0,1.13,0.506,1.13,1.129v5.121C30.932,20.443,30.425,20.951,29.802,20.951z M2.452,14.389c-0.171,0-0.31,0.14-0.31,0.311
	v5.121c0,0.172,0.139,0.311,0.31,0.311h27.35c0.172,0,0.311-0.139,0.311-0.311V14.7c0-0.171-0.139-0.311-0.311-0.311H2.452z"/>
<rect x="7.907" y="18.254" fill="#F4F4E6" width="1.729" height="0.692"/>
<rect x="7.907" y="17.789" fill="#F4F4E6" width="1.729" height="0.693"/>
<path fill="#F4F4E6" d="M26.245,19.158c-1.504,0-1.706-0.948-1.706-1.877c0-0.923,0.211-1.867,1.778-1.867
	c0.84,0,1.306,0.315,1.428,0.962l0.05,0.261l-0.979-0.009l-0.054-0.139c-0.036-0.095-0.084-0.12-0.44-0.12
	c-0.606,0-0.709,0.228-0.709,0.912c0,0.654,0.058,0.92,0.633,0.92c0.4,0,0.413-0.053,0.433-0.131l0.039-0.159l1.021-0.044
	l-0.007,0.235C27.714,18.613,27.313,19.158,26.245,19.158z"/>
<path fill="#F4F4E6" d="M22.737,19.197l-0.817-1.338h-0.29l0.007,1.337h-1.076l0.007-3.812h1.729c0.813,0,1.379,0.438,1.379,1.066
	c0,0.409-0.078,0.95-0.68,1.2l1.109,1.547H22.737z M22.17,16.875c0.416,0,0.497-0.155,0.497-0.422c0-0.075,0-0.232-0.631-0.232
	H21.64v0.654H22.17z"/>
<path fill="#F4F4E6" d="M18.724,19.181l-0.217-0.669h-0.685l-0.185,0.669h-1.137l1.225-3.788h0.838l1.254,3.788H18.724z
	 M18.182,17.555l-0.03-0.097l-0.025,0.097H18.182z"/>
<polygon fill="#F4F4E6" points="12.663,15.431 13.596,15.431 14.289,16.518 14.982,15.431 15.922,15.431 15.946,19.145 
	14.873,19.143 14.872,17.497 14.282,18.511 13.696,17.431 13.712,19.143 12.64,19.145 "/>
<polygon fill="#F4F4E6" points="8.292,17.949 8.292,16.432 7.495,16.423 7.495,15.412 10.086,15.412 10.086,16.423 9.292,16.432 
	9.292,17.949 "/>
<path fill="#F4F4E6" d="M5.308,19.158c-0.545,0-0.95-0.131-1.205-0.39c-0.195-0.199-0.297-0.472-0.291-0.789l0.003-0.228
	l1.006,0.061l0.033,0.164c0.039,0.193,0.056,0.273,0.504,0.273c0.499,0,0.499-0.118,0.499-0.267c0-0.175,0-0.356-0.701-0.356h-0.01
	c-0.848,0-1.295-0.406-1.295-1.174c0-1.04,1.108-1.04,1.473-1.04c0.608,0,0.998,0.115,1.228,0.361
	c0.157,0.168,0.228,0.389,0.208,0.656l-0.014,0.205l-0.898-0.009l-0.054-0.14c-0.044-0.118-0.075-0.204-0.487-0.204
	c-0.281,0-0.451,0.111-0.477,0.159c0.002,0.026,0.003,0.052,0.005,0.077c0.005,0.102,0.01,0.109,0.021,0.117
	c0.033,0.024,0.159,0.078,0.589,0.079c0.877,0,1.443,0.518,1.443,1.318C6.888,18.552,6.475,19.158,5.308,19.158z"/>
<g>
	<g>
		<path fill="#404A9E" d="M5.444,16.933c-0.9-0.001-0.81-0.221-0.833-0.48c-0.019-0.196,0.292-0.388,0.694-0.388
			c0.462,0,0.603,0.108,0.692,0.345l0.543,0.005c0.042-0.592-0.456-0.783-1.218-0.783c-0.77,0-1.256,0.2-1.256,0.821
			c0,0.473,0.188,0.956,1.078,0.956c0.657-0.001,0.929,0.15,0.929,0.575c0,0.386-0.246,0.485-0.717,0.485
			c-0.477,0-0.646-0.091-0.718-0.449l-0.61-0.036c-0.009,0.53,0.321,0.957,1.278,0.957c0.908,0,1.361-0.401,1.361-0.908
			C6.669,17.292,6.143,16.933,5.444,16.933z M7.714,16.208l0.796,0.008v1.515h0.563v-1.515l0.794-0.008v-0.577H7.714V16.208z
			 M15.102,15.648l-0.813,1.276l-0.812-1.276h-0.597l-0.021,3.277l0.632-0.001l-0.021-2.37l0.819,1.511l0.8-1.377l0.002,2.237
			l0.635,0.001l-0.021-3.277H15.102z M17.885,15.611l-1.084,3.352h0.671l0.185-0.67h1.009l0.217,0.67h0.633l-1.109-3.352H17.885z
			 M17.842,17.772l0.298-1.116l0.335,1.116H17.842z M23.456,16.451c0-0.503-0.476-0.848-1.16-0.848h-1.511l-0.006,3.375h0.638
			l-0.005-1.338h0.631l0.816,1.338h0.82l-1.041-1.449C23.327,17.395,23.456,16.956,23.456,16.451z M21.421,17.094v-1.091h0.615
			c0.571,0,0.85,0.125,0.85,0.451c0,0.433-0.229,0.64-0.716,0.64H21.421z M26.245,18.42c-0.829,0-0.852-0.559-0.852-1.139
			c0-0.646,0.085-1.129,0.928-1.129c0.336,0,0.548,0.009,0.645,0.26l0.565,0.005c-0.082-0.441-0.348-0.785-1.214-0.785
			c-1.326,0-1.562,0.7-1.562,1.649c0,0.958,0.226,1.659,1.489,1.659c0.93,0,1.253-0.435,1.267-0.845l-0.621,0.026
			C26.828,18.375,26.641,18.42,26.245,18.42z M8.126,18.264h1.292v-0.256H8.126V18.264z M8.126,18.729h1.292v-0.258H8.126V18.729z"
			/>
	</g>
</g>
<path fill="#F4F4E6" d="M29.802,14.389H2.452c-0.171,0-0.31,0.14-0.31,0.311v5.121c0,0.172,0.139,0.311,0.31,0.311h27.35
	c0.172,0,0.311-0.139,0.311-0.311V14.7C30.112,14.528,29.974,14.389,29.802,14.389z M29.894,19.82c0,0.052-0.04,0.093-0.092,0.093
	H2.452c-0.051,0-0.093-0.041-0.093-0.093V14.7c0-0.051,0.042-0.092,0.093-0.092h27.35c0.052,0,0.092,0.041,0.092,0.092V19.82z"/>
<g>
	<path fill="#59763E" d="M19.426,7.479c-0.188,0.033-0.97-0.893-0.709-0.358c0.435,0.887,0.493,1.685,0.5,1.856
		c0.015,0.315,0.028,0.538,0.037,0.704l0.207,0.214c0,0,0.033,0.818-0.019,0.872c-0.053,0.055,0.384-0.195,0.384-0.195l-0.214,0.733
		l0.471-0.308l-0.055,0.998l0.3-0.464l0.042,0.538c0,0,0.203-0.006,0.328,0c0.095-0.516-0.05-1.267-0.072-2.621
		c-0.008-0.393-0.034-0.741-0.106-1.064C20.146,8.003,19.577,7.452,19.426,7.479z"/>
</g>
<rect x="14.653" y="3.242" transform="matrix(0.7071 0.7071 -0.7071 0.7071 8.0374 -10.0138)" fill-rule="evenodd" clip-rule="evenodd" fill="#A0A0A0" width="2.907" height="2.907"/>
<path fill-rule="evenodd" clip-rule="evenodd" fill="#618A41" d="M24.751,6.581c-0.424-0.236-0.789-0.463-1.291-0.655
	c0.559-0.052,0.923-0.078,0.923-0.078l0.294-0.367l0.886,0.683l0.111-0.682l0.813,1.136l-0.031-0.875l1.188,0.604
	c0,0-1.321-1.405-2.337-2.214c-1.245-0.991-2.922-1.115-5.418-0.664c-0.918,0.166-1.621,0.475-2.162,0.827
	c-0.248-0.372-1.392-0.935-1.874-0.621c-0.255,0.167-0.432,0.04-0.746,0.535c-0.156-0.276-0.394-1.029-0.987-0.641
	c-0.041,0.027-0.413-0.146-0.455-0.116c-0.616-0.429-1.058-0.461-1.897-0.486C9.084,2.885,8.128,3.755,7.474,4.608
	C7.043,5.17,6.93,5.306,6.901,5.335l0.849-0.39L7.544,5.632l0.765-0.847L8.23,5.341l0.742-0.495l0.114,0.32
	c0,0,0.7-0.099,1.558-0.003c-0.091,0.015-0.181,0.032-0.276,0.051C8.756,5.546,7.723,6.431,6.943,7.035
	C6.163,7.64,5.541,8.283,5.229,8.827C4.915,9.369,4.915,9.369,4.915,9.369s0.947-0.162,1.118-0.263
	C6.204,9.005,6.17,8.463,6.17,8.463l0.173,0.563l0.492-0.925l0.177,0.703l0.337-0.945c0,0,0.115,0.984,0.113,0.904
	s0.571-1.187,0.571-1.187L8.194,7.79C8.091,7.995,8.006,8.212,7.937,8.44c-0.362,1.206-0.672,1.87-0.71,2.353
	c-0.038,0.482,0.023,0.783,0.023,0.783l0.449-1.206l0.17,0.482l0.199-0.905l0.375,0.381L8.422,9.625c0,0,0.357,0.321,0.32,0.261
	C8.706,9.825,8.945,9.102,8.945,9.102l0.63-0.362l0.401,0.08L9.958,8.176l0.321,0.321l0.107-0.443l0.263,0.081
	c-1.005,1.196-1.738,3.177-1.777,3.309c-0.046,0.156,0.839-0.916,0.839-0.916l0.186,0.66l0.224-0.632l0.295,0.288l-0.021-0.64
	l0.471,0.465l0.218-0.938l0.311,0.407c-0.029,0.019-0.048,0.031-0.048,0.031l0.662,0.149l-0.851,0.19c0,0-0.248,0.806-0.287,1.352
	c-0.037,0.546,0.068,1.249,0.113,1.408c0.044,0.16,0.145,0.66,0.145,0.66s0.133-0.539,0.363-1.142
	c0.229-0.603,0.996-1.417,0.996-1.417l0.091-0.195c0,0,0.366-0.286,0.675-0.831c0.04-0.071,0.077-0.143,0.111-0.213
	c-0.001,0.104,0.007,0.166,0.007,0.166l-0.069,0.162c0,0,0.316,1.103,0.197,1.62c0.287,0,0.416-0.01,0.503-0.01
	c0.007-0.094,0.015-0.137,0.027-0.228c0.063-0.436,0.387-0.935,0.387-0.935l-0.407-0.701l0.508,0.397c0,0-0.084-0.425-0.144-0.498
	c-0.06-0.072,0.033-0.101,0.033-0.101l0.226,0.123c-0.017,0.032-0.029,0.055-0.029,0.055l0.147,0.074l-0.172,0.135
	c0,0,0.045,0.442,0.142,0.707c0.098,0.265,0.305,0.564,0.361,0.627c0.058,0.063,0.342,0.161,0.342,0.161s-0.171-0.177-0.183-0.52
	c-0.011-0.342,0.214-0.923,0.214-0.923l0.005-0.115l0.05-0.28c0,0,0.074-0.04,0.094-0.128c0.383-0.13,0.936-0.127,1.184,0.041
	c0.002-0.09,0-0.201,0.002-0.328c0.111,0.159,0.33,0.486,0.393,0.728c0.085,0.331-0.029,0.552-0.029,0.552s0.244-0.179,0.282-0.256
	c0.022-0.047,0.073-0.195,0.114-0.367c0.093,0.119,0.158,0.183,0.158,0.183l0.062,0.18c0,0,0.622,0.812,0.762,1.358
	c0.142,0.547-0.049,0.912-0.049,0.912s0.405-0.294,0.468-0.423c0.061-0.128,0.249-0.704,0.281-1.171
	c0.033-0.467-0.1-1.188-0.1-1.188l-0.778-0.299l0.643-0.018c0,0-0.353-0.292-0.446-0.311s-0.045-0.106-0.045-0.106l0.223-0.046
	c0.135,0.125,0.231,0.253,0.264,0.31c0.066,0.122,0.234-0.349,0.234-0.349l0.12,0.367l0.216-0.191l0.119,0.619l0.217-0.261
	l0.214,0.68l0.231-0.453l0.404,0.846l0.362-0.504l0.111,0.601l0.227-0.313l0.347,0.558l0.045-0.645c0,0,1.08,0.874,1.004,0.735
	c-0.077-0.14-1.541-1.894-2.957-2.76c-0.255-0.157-0.532-0.291-0.813-0.406l0.489-0.253l0.604,0.7L20.568,8.4l0.225,0.399
	l0.227-0.385l0.154,0.623l0.368-0.171l0.711,0.199c0,0,0.428,0.64,0.409,0.707c-0.02,0.066,0.24-0.327,0.24-0.327l0.17,0.682
	l0.262-0.457l0.437,0.824l0.036-0.505l0.763,1.054c0,0-0.022-0.305-0.188-0.76c-0.167-0.455-0.646-1.02-1.325-2.094
	c-0.406-0.642-0.795-1.098-1.443-1.386c0.973,0.007,2.019,0.72,2.019,0.72l0.136-0.262c0,0,0.766,1.012,0.777,1.092
	c0.013,0.079-0.049-0.906-0.049-0.906l0.502,0.885l0.05-0.716l0.652,0.845l0.071-0.577c0,0,0.063,0.539,0.25,0.615
	c0.186,0.077,1.362,0.8,1.362,0.8s-0.207-0.691-0.614-1.184C26.362,7.622,25.632,7.071,24.751,6.581z M11.237,7.565
	c-0.052,0.04-0.105,0.082-0.157,0.127l0.153-0.322l0.211,0.051C11.374,7.467,11.305,7.515,11.237,7.565z M11.854,9.9
	c-0.072,0.002-0.316,0.149-0.438,0.225l0.062-0.698l0.214,0.186c-0.058,0.021-0.095,0.033-0.095,0.033l0.32,0.14
	C11.917,9.787,11.954,9.897,11.854,9.9z M12.59,9.33c-0.054-0.006-0.577,0.172-0.843,0.264l-0.014-0.589l0.256,0.164l0.002-0.007
	C12.058,9.179,12.657,9.337,12.59,9.33z M12.921,9.076l-0.93,0.083l0.038-0.388c0,0,0.209-0.388,0.25-0.525
	c0.032-0.108,0.396-0.261,0.753-0.381c-0.438,0.507-0.611,0.876-0.611,0.876L12.921,9.076z M14.759,9.951
	c-0.026,0.014-0.066,0.075-0.101,0.13c-0.093-0.209-0.337-0.746-0.376-0.783c-0.044-0.042,0.373,0.263,0.468,0.332
	c-0.055,0.085-0.129,0.243-0.129,0.243l0.196-0.02C14.817,9.854,14.809,9.923,14.759,9.951z M14.853,9.233l-0.052,0.105
	l-0.084,0.205c0,0,0.032,0.03,0.06,0.05c-0.007,0.008-0.014,0.019-0.022,0.032l-0.516-0.689l0.527,0.189c0,0,0.101-0.352,0.129-1.15
	c0.081,0.128,0.159,0.271,0.227,0.441C14.895,8.965,14.853,9.233,14.853,9.233z M21.776,5.536l0.045-0.899l0.383,0.973L21.776,5.536
	z"/>
<path fill-rule="evenodd" clip-rule="evenodd" fill="#DCB622" d="M15.745,9.314c-0.029,0.339-0.08,0.495-0.185,0.856
	c0.396,0.001,0.791,0.001,1.187,0.001c-0.03-0.346-0.045-0.518-0.074-0.857c-0.235,0-0.484,0.624-0.721,0.624
	C15.843,9.939,15.856,9.314,15.745,9.314z"/>
<path fill-rule="evenodd" clip-rule="evenodd" fill="#B69F4F" d="M16.753,10.282c0-0.234-0.051-0.444-0.047-0.584
	c-0.008-0.091,0.001-0.25-0.006-0.34c-0.092-0.233-0.391-0.456-0.391-0.456s-0.033,0.313-0.082,0.456
	c-0.08,0.188-0.139,0.408-0.26,0.539c-0.109-0.142-0.151-0.338-0.202-0.52c-0.024,0,0.005-0.203,0.005-0.203
	s-0.044,0.012-0.064,0.012c-0.008,0.09-0.019,0.406-0.025,0.497c-0.026,0.313-0.109,0.306-0.134,0.584c0,0,0.005-0.002,0.009-0.007
	c0,0.002,0,0.003-0.001,0.004c0.39,0,0.778,0.001,1.166,0.001c-0.001-0.012-0.001-0.023-0.003-0.034
	C16.729,10.264,16.74,10.282,16.753,10.282z M16.259,10.034c0.088-0.214,0.179-0.507,0.234-0.504
	c0.088,0.004,0.136,0.288,0.178,0.505C16.534,10.034,16.396,10.034,16.259,10.034z"/>
<g>
	<path fill-rule="evenodd" clip-rule="evenodd" fill="#59763E" d="M15.239,5.698c0,0-0.216-0.515-1.078-0.668
		c-0.049-0.009,0.027-0.314,0.027-0.314s-0.203,0.125-0.325,0.277c-0.76-0.073-3.27-0.085-4.706,0.606
		c0.374,0.047,1.101,0.023,1.354,0.054c1.626-0.427,3.065-0.303,3.917-0.148c0.064,0.011,0.193-0.182,0.251-0.17
		c0.068,0.014,0.065,0.232,0.123,0.246C15.083,5.645,15.239,5.698,15.239,5.698z"/>
	<path fill-rule="evenodd" clip-rule="evenodd" fill="#59763E" d="M21.687,5.507c0,0-0.672-0.358-1.658-0.496
		c-0.052-0.208-0.089-0.797-0.089-0.797s-0.237,0.487-0.289,0.762c-0.867-0.053-1.306,0.097-2.501,0.694
		c0.829-0.218,1.582-0.326,2.234-0.354C20.779,5.254,21.687,5.507,21.687,5.507z"/>
	<path fill-rule="evenodd" clip-rule="evenodd" fill="#59763E" d="M13.892,6.902c-0.045,0.018-0.48-0.03-0.48-0.03
		s0.234,0.14,0.178,0.168c-0.352,0.18-0.911,0.505-1.26,1.141c0.258-0.162,0.535-0.326,0.703-0.316
		c0.266-0.209,1.088-0.624,1.088-0.624l-0.205-0.109c0,0,0.416,0.054,0.511-0.007c0.649-0.417,1.061-0.366,1.061-0.366
		S14.968,6.465,13.892,6.902z"/>
	<path fill-rule="evenodd" clip-rule="evenodd" fill="#59763E" d="M18.76,7.5l-0.504,0.355c0,0-0.484-0.142-0.573-0.164
		c-0.41-0.099-0.022-0.11-0.619-0.164c1.095,0.573,1.179,1.078,1.724,1.788c-0.032-0.363-0.158-0.804-0.213-0.986
		c0.143,0.077,0.35,0.171,0.665,0.294c0.039,0.016,0.258-0.056,0.299-0.04c0.049,0.019-0.007,0.153,0.041,0.171
		c0.354,0.13,0.711,0.245,0.935,0.285c-0.35-0.396-1.564-0.945-1.864-1.054C18.597,7.868,18.76,7.5,18.76,7.5z"/>
	<path fill-rule="evenodd" clip-rule="evenodd" fill="#59763E" d="M15.591,3.785c0,0-0.47,0.179-0.484,0.425
		c0.146,0.251,0.449,0.496,0.664,0.929c0.124,0.246,0.086-0.085-0.006-0.389C15.493,3.854,15.591,3.785,15.591,3.785z"/>
	<path fill-rule="evenodd" clip-rule="evenodd" fill="#59763E" d="M9.412,6.843L9.343,6.53c0,0-0.057,0.185-0.11,0.37
		C9.084,6.957,8.938,7.035,8.797,7.14L8.661,6.899L8.617,7.293C8.286,7.61,8.23,7.697,7.937,8.44
		c0.299-0.284,0.654-0.552,1.041-0.786C9.008,7.636,9.044,7.317,9.074,7.3c0.027-0.016,0.05,0.268,0.075,0.253
		C9.32,7.457,9.493,7.369,9.67,7.288c0.034-0.016,0.071-0.265,0.104-0.279c0.036-0.015,0.068,0.203,0.104,0.188
		c0.873-0.362,1.774-0.51,2.428-0.274c0.332-0.222,0.7-0.378,2.028-0.615C12.385,5.37,10.395,6.586,9.412,6.843z"/>
	<path fill-rule="evenodd" clip-rule="evenodd" fill="#59763E" d="M17.212,9.363l-0.266,0.089l0.122-0.396l-0.47,0.132l0.189,0.446
		c0,0,0.301,0.351,0.421,1.04c0.14-0.32,0.159-0.607,0.159-0.607L17.136,9.69L17.212,9.363z"/>
	<path fill-rule="evenodd" clip-rule="evenodd" fill="#59763E" d="M14.889,7.873c-0.036,0-0.428,0.146-0.637,0.291
		s-0.5,0.237-0.5,0.237s0.135,0.012,0.181,0.083c0.034,0.052,0.02,0.137-0.135,0.272c-0.023,0.021-0.046,0.043-0.066,0.068
		C13.647,8.81,13.483,8.81,13.483,8.81s0.169,0.146,0.15,0.191c-0.159,0.378-0.219,0.937-0.219,0.937s-0.101,0.183-0.166,0.881
		c-0.025,0.271-0.058,0.74,0.109,1.251c0.063,0.414,0.329,0.898,0.329,0.898s0.513-1.758,0.729-2.061
		c-0.109-0.31-0.341-0.624-0.341-0.624l0.425,0.307c0.005-0.181-0.103-0.49-0.084-0.521c0.042-0.072,0.209,0.072,0.209,0.072
		l0.051-0.087L14.405,9.53l-0.144-0.256l0.143,0.106l0.038-0.172l-0.204-0.273l0.527,0.189c0,0,0.133-0.705,0.112-0.831
		C14.858,8.167,14.926,7.873,14.889,7.873z"/>
	<path fill-rule="evenodd" clip-rule="evenodd" fill="#59763E" d="M16.781,4.497c-0.169,0.312-0.109,0.655,0.068,0.382
		c0.15-0.23,0.672-0.488,0.831-0.563c0.028-0.014,0.046-0.021,0.046-0.021s-0.33-0.11-0.515-0.092
		c-0.131,0.012-0.234,0.068-0.31,0.139c-0.028,0.025-0.285-0.146-0.285-0.146S16.795,4.473,16.781,4.497z"/>
</g>
<path fill="#59763E" d="M24.381,10.282c-0.167-0.455-0.646-1.02-1.325-2.094c-0.027-0.042-0.054-0.084-0.081-0.125v0
	c-0.367-0.762-1.083-1.113-1.362-1.261c-0.066-0.035-1.239-0.054-1.311-0.083c-0.156-0.063,0.065-0.393-0.026-0.429
	c-0.036-0.015-0.268,0.356-0.306,0.342c-0.506-0.186-1.146-0.298-1.924-0.202c0.635,0.058,1.436,0.366,2.211,0.745
	c0.176,0.112,0.334,0.229,0.476,0.344c0.044,0.036,0.176-0.208,0.216-0.173c0.038,0.033-0.014,0.347,0.021,0.38
	c0.361,0.334,0.567,0.625,0.626,0.712c0.166,0.246,0.285,0.418,0.375,0.548l0.283,0.079c0,0,0.428,0.64,0.409,0.707
	c-0.02,0.066,0.24-0.327,0.24-0.327l0.17,0.682l0.262-0.457l0.437,0.824l0.036-0.505l0.763,1.054
	C24.569,11.042,24.547,10.737,24.381,10.282z"/>
<path fill-rule="evenodd" clip-rule="evenodd" fill="#59763E" d="M15.621,9.2c-0.01-0.027-0.041-0.247,0.073-0.583
	c0.113-0.335,0.332-0.608,0.332-0.608l0.3,0.682L16.31,8.903L16.184,9.47l-0.231,0.47L15.621,9.2z"/>
</svg>
